<svg width="380" height="23" viewBox="0 0 380 23" fill="none" xmlns="http://www.w3.org/2000/svg">
<path d="M12.4842 0.470215V3.48235H7.81083V21.5678H4.63399V3.48235H0V0.470215H12.4842Z" fill="#3F6EB4"/>
<path d="M15.4511 11.0698C15.4511 7.25696 15.9762 4.4736 17.0395 2.7197C18.0897 0.978512 19.7306 0.101562 21.9491 0.101562C24.1677 0.101562 25.8611 0.991222 26.8982 2.78325C27.9353 4.57528 28.4604 7.33322 28.4604 11.0698C28.4604 14.8064 27.9353 17.666 26.8719 19.4199C25.8349 21.1484 24.2071 22.0126 21.9885 22.0126C19.77 22.0126 18.0634 21.1229 17.0132 19.3563C15.9499 17.5643 15.4248 14.8064 15.4248 11.0698H15.4511ZM18.6542 11.0698C18.6542 12.5187 18.7198 13.7515 18.8379 14.7809C18.9692 15.785 19.153 16.6111 19.4024 17.2466C19.6518 17.8439 19.98 18.3142 20.4001 18.6319C20.8202 18.9369 21.319 19.0894 21.8966 19.0894C23.1175 19.0894 23.9839 18.454 24.4827 17.1957C24.9816 15.9248 25.231 13.8913 25.231 11.0825C25.231 9.63363 25.1654 8.40081 25.0472 7.37135C24.9159 6.30376 24.7322 5.47765 24.4565 4.86759C24.1808 4.24483 23.8395 3.78729 23.4325 3.48227C23.0387 3.17724 22.5399 3.02473 21.936 3.02473C21.3322 3.02473 20.8464 3.17724 20.4132 3.48227C19.98 3.78729 19.6387 4.25754 19.3893 4.89301C19.1399 5.54119 18.9561 6.3546 18.8248 7.35864C18.6935 8.3881 18.641 9.5955 18.641 11.0062L18.6673 11.0698H18.6542Z" fill="#3F6EB4"/>
<path d="M41.4306 16.7764H35.4576L34.3418 21.5678H31.1387L36.4422 0.470215H40.4329L45.7495 21.5678H42.5464L41.4306 16.7764ZM40.8267 13.8532L38.9626 6.07507C38.7526 5.21083 38.6344 4.48639 38.5951 3.90176C38.5557 3.49506 38.5163 3.30441 38.5032 3.30441H38.4375C38.4375 3.30441 38.385 3.50777 38.3456 3.90176C38.3063 4.48639 38.175 5.21083 37.9781 6.07507L36.1665 13.8532H40.8399H40.8267Z" fill="#3F6EB4"/>
<path d="M57.8262 21.5678V0.470215H61.003V21.5678H57.8262Z" fill="#3F6EB4"/>
<path d="M78.384 0.470215L78.2265 21.7458H75.5747L70.35 10.2056C70.3106 10.1294 70.2318 9.95144 70.1137 9.68454C69.9955 9.41764 69.9168 9.20158 69.8511 9.03636C69.6674 8.61695 69.5098 8.22296 69.3786 7.86709C69.3392 7.74 69.221 7.44768 69.0372 6.96473L68.9191 6.60886H68.8272L68.8928 7.0664C68.8928 7.16808 68.9191 7.35872 68.9585 7.63833C68.9979 7.91793 69.0241 8.1467 69.0504 8.33734C69.116 8.89656 69.1816 9.54474 69.2342 10.2692C69.2998 11.0317 69.3261 11.8579 69.3261 12.7348V21.6568H66.2148V0.559181H68.8666L74.3145 12.4679C74.4326 12.7221 74.6033 13.1161 74.8133 13.6372C74.984 14.0185 75.1021 14.3489 75.1809 14.6285C75.2203 14.7302 75.2728 14.8446 75.3253 14.9971C75.3778 15.1369 75.4172 15.2386 75.4303 15.3021L75.5222 15.5436H75.6141L75.5878 15.086C75.5878 15.086 75.5747 14.8827 75.5353 14.5904C75.5091 14.2981 75.4828 14.0439 75.4566 13.8278C75.4172 13.4211 75.3778 12.7856 75.3253 11.896C75.2859 10.8919 75.2597 10.0658 75.2597 9.43035V0.470215H78.3709H78.384Z" fill="#3F6EB4"/>
<path d="M87.5604 0.520996H87.4948C90.3828 0.520996 92.5226 1.46149 93.9403 3.32978C95.3319 5.17264 96.0276 7.80349 96.0276 11.1969C96.0276 14.5903 95.3712 17.2085 94.0716 18.9751C92.7851 20.7163 90.7241 21.5932 87.8755 21.5932H83.6484V0.520996H87.5735H87.5604ZM88.4662 18.5811L88.44 18.6446C89.3326 18.6446 90.0415 18.4794 90.5929 18.1617C91.1705 17.8185 91.6299 17.3356 91.9581 16.7128C92.3126 16.0519 92.5488 15.2639 92.667 14.3616C92.7983 13.4211 92.8508 12.3408 92.8508 11.1334C92.8508 8.43896 92.4701 6.48171 91.6956 5.26161C90.921 4.0415 89.7396 3.41874 88.1511 3.41874H86.8384V18.5811H88.4531H88.4662Z" fill="#3F6EB4"/>
<path d="M112.62 0.470215L112.646 14.9717C112.646 17.2212 112.121 18.9497 111.058 20.1571C110.021 21.3391 108.485 21.9364 106.45 21.9364C104.415 21.9364 102.879 21.3391 101.842 20.1571C100.779 18.9497 100.254 17.2339 100.254 15.0098V0.470215H103.431V15.175C103.431 17.7423 104.428 19.0387 106.424 19.0387C108.419 19.0387 109.443 17.755 109.443 15.175V0.470215H112.62Z" fill="#3F6EB4"/>
<path d="M125.892 5.88439L125.708 6.01148C125.432 5.03286 125.038 4.25758 124.5 3.72379C123.975 3.17728 123.293 2.91039 122.439 2.91039C121.717 2.91039 121.153 3.12645 120.759 3.57128C120.339 4.02881 120.142 4.61345 120.142 5.32518C120.142 6.06232 120.523 6.79947 121.258 7.5239C121.94 8.18479 122.899 8.94736 124.12 9.8116C124.723 10.2564 125.288 10.6885 125.826 11.108C126.391 11.5655 126.889 12.0485 127.323 12.5568C127.756 13.0652 128.097 13.6244 128.347 14.2472C128.596 14.8445 128.714 15.5181 128.714 16.268C128.714 17.1068 128.583 17.8694 128.307 18.5303C128.032 19.2166 127.638 19.8139 127.126 20.335C126.653 20.818 126.036 21.2247 125.288 21.5424C124.54 21.822 123.765 21.9618 122.951 21.9618C122.019 21.9618 121.166 21.822 120.404 21.5424C119.656 21.2374 119.026 20.8434 118.501 20.335C117.976 19.8266 117.569 19.2293 117.254 18.5303C116.965 17.8821 116.742 17.1322 116.571 16.268L119.564 15.48C119.735 16.6493 120.103 17.5389 120.68 18.1617C121.284 18.8099 122.045 19.1276 122.951 19.1276C123.699 19.1276 124.316 18.8861 124.815 18.4032C125.314 17.9202 125.564 17.272 125.564 16.4459C125.564 16.0392 125.485 15.6579 125.314 15.2766C125.17 14.9335 124.933 14.5776 124.592 14.1963C124.264 13.8151 123.883 13.4592 123.437 13.116C123.253 12.9762 122.977 12.7475 122.61 12.4552C122.242 12.1501 122.019 11.9595 121.914 11.8832C121.205 11.3621 120.575 10.8665 120.011 10.4089C119.472 9.98953 118.96 9.48115 118.488 8.89652C118.055 8.40085 117.713 7.82893 117.464 7.20617C117.215 6.60883 117.083 5.93523 117.083 5.18537C117.083 4.53719 117.215 3.91443 117.464 3.31709C117.713 2.69433 118.068 2.14782 118.527 1.69028C118.987 1.20732 119.564 0.813332 120.273 0.521016C120.956 0.21599 121.757 0.0634766 122.676 0.0634766C124.251 0.0634766 125.564 0.533725 126.601 1.47422C127.625 2.40201 128.333 3.62211 128.754 5.14724L125.892 5.8971V5.88439Z" fill="#3F6EB4"/>
<path d="M144.415 0.470215V3.48235H139.741V21.5678H136.565V3.48235H131.931V0.470215H144.415Z" fill="#3F6EB4"/>
<path d="M156.834 21.5679L153.683 13.9168C153.683 13.9168 153.526 13.9422 153.407 13.9422H151.478V21.5425H148.301V0.432129H153.158C154.116 0.432129 154.983 0.597351 155.77 0.915087C156.584 1.23282 157.28 1.70307 157.858 2.30041C158.435 2.89776 158.908 3.62219 159.262 4.47372C159.59 5.29984 159.761 6.22762 159.761 7.2825C159.761 8.64241 159.472 9.82439 158.895 10.803C158.317 11.7943 157.556 12.5569 156.624 13.0907L160.391 21.5552H156.847L156.834 21.5679ZM153.224 11.197C154.221 11.197 155.035 10.8411 155.652 10.1421C156.269 9.44311 156.584 8.4899 156.584 7.2825C156.584 6.07511 156.269 5.18545 155.652 4.47372C155.035 3.762 154.221 3.41884 153.224 3.41884H151.57V11.197H153.224Z" fill="#3F6EB4"/>
<path d="M164.447 21.5678V0.470215H167.624V21.5678H164.447Z" fill="#3F6EB4"/>
<path d="M182.839 18.5557V21.5678H172.875V0.470215H182.655V3.48235H176.052V9.0872H180.817V11.9849H176.052V18.5557H182.839Z" fill="#3F6EB4"/>
<path d="M195.52 5.88439L195.336 6.01148C195.074 5.03286 194.667 4.25758 194.129 3.72379C193.617 3.17728 192.921 2.91039 192.081 2.91039C191.359 2.91039 190.794 3.12645 190.401 3.57128C189.98 4.02881 189.784 4.61345 189.784 5.32518C189.784 6.06232 190.164 6.79947 190.899 7.5239C191.582 8.18479 192.54 8.94736 193.761 9.8116C194.365 10.2564 194.929 10.6885 195.468 11.108C196.032 11.5655 196.531 12.0485 196.964 12.5568C197.397 13.0652 197.739 13.6244 197.988 14.2472C198.238 14.8445 198.356 15.5181 198.356 16.268C198.356 17.1068 198.224 17.8694 197.949 18.5303C197.686 19.2166 197.279 19.8139 196.767 20.335C196.295 20.818 195.678 21.2247 194.93 21.5424C194.181 21.822 193.407 21.9618 192.593 21.9618C191.661 21.9618 190.807 21.822 190.046 21.5424C189.298 21.2374 188.668 20.8434 188.143 20.335C187.618 19.8266 187.211 19.2293 186.896 18.5303C186.607 17.8821 186.384 17.1322 186.213 16.268L189.206 15.48C189.377 16.6493 189.744 17.5389 190.322 18.1617C190.926 18.8099 191.687 19.1276 192.593 19.1276C193.341 19.1276 193.958 18.8861 194.457 18.4032C194.956 17.9202 195.205 17.272 195.205 16.4459C195.205 16.0392 195.126 15.6579 194.956 15.2766C194.811 14.9335 194.575 14.5776 194.234 14.1963C193.906 13.8151 193.525 13.4592 193.079 13.116C192.895 12.9762 192.619 12.7475 192.252 12.4552C191.884 12.1501 191.661 11.9595 191.556 11.8832C190.847 11.3621 190.217 10.8665 189.652 10.4089C189.114 9.98953 188.602 9.48115 188.129 8.89652C187.696 8.40085 187.355 7.82893 187.106 7.20617C186.856 6.60883 186.725 5.93523 186.725 5.18537C186.725 4.53719 186.856 3.91443 187.106 3.31709C187.355 2.69433 187.709 2.14782 188.169 1.69028C188.628 1.20732 189.206 0.813332 189.915 0.521016C190.597 0.21599 191.398 0.0634766 192.317 0.0634766C193.892 0.0634766 195.205 0.533725 196.242 1.47422C197.266 2.40201 197.975 3.62211 198.395 5.14724L195.533 5.8971L195.52 5.88439Z" fill="#3F6EB4"/>
<path d="M289.539 21.5679L286.402 13.9168C286.402 13.9168 286.244 13.9422 286.126 13.9422H284.196V21.5425H281.02V0.432129H285.877C286.835 0.432129 287.701 0.597351 288.489 0.915087C289.303 1.23282 289.999 1.70307 290.576 2.30041C291.154 2.89776 291.626 3.62219 291.981 4.47372C292.309 5.29984 292.48 6.22762 292.48 7.2825C292.48 8.64241 292.191 9.82439 291.613 10.803C291.036 11.7943 290.274 12.5569 289.342 13.0907L293.11 21.5552H289.565L289.539 21.5679ZM285.929 11.197C286.927 11.197 287.741 10.8411 288.358 10.1421C288.975 9.44311 289.29 8.4899 289.29 7.2825C289.29 6.07511 288.975 5.18545 288.358 4.47372C287.741 3.762 286.927 3.41884 285.929 3.41884H284.275V11.197H285.929Z" fill="#3F6EB4"/>
<path d="M307.116 18.5557V21.5678H297.152V0.470215H306.932V3.48235H300.329V9.0872H305.094V11.9849H300.329V18.5557H307.116Z" fill="#3F6EB4"/>
<path d="M319.89 6.342H319.863C319.575 5.03293 319.194 4.15598 318.708 3.68573C318.223 3.21548 317.606 2.96129 316.897 2.96129C315.715 2.96129 314.875 3.60947 314.376 4.89313C313.877 6.20219 313.628 8.22299 313.628 10.9809C313.628 13.7389 313.904 15.8359 314.468 17.0942C315.033 18.3651 315.886 18.9879 317.054 18.9879C317.881 18.9879 318.564 18.6828 319.102 18.0855C319.64 17.4882 320.021 16.4841 320.218 15.0734L323.119 15.8232C322.765 17.9076 322.069 19.4454 321.032 20.4367C319.995 21.4281 318.643 21.911 316.989 21.911C314.731 21.911 313.063 21.0214 312.013 19.2548C310.95 17.4882 310.425 14.7175 310.425 10.9682C310.425 7.21895 310.95 4.37204 312.013 2.61814C313.077 0.87695 314.717 0 316.936 0C318.551 0 319.837 0.457539 320.795 1.35991C321.767 2.26228 322.45 3.66031 322.856 5.55402L319.903 6.342H319.89Z" fill="#3F6EB4"/>
<path d="M335.695 21.5679L332.557 13.9168C332.557 13.9168 332.4 13.9422 332.281 13.9422H330.352V21.5425H327.175V0.432129H332.032C332.99 0.432129 333.857 0.597351 334.644 0.915087C335.458 1.23282 336.154 1.70307 336.732 2.30041C337.309 2.89776 337.782 3.62219 338.136 4.47372C338.464 5.29984 338.635 6.22762 338.635 7.2825C338.635 8.64241 338.346 9.82439 337.769 10.803C337.191 11.7943 336.43 12.5569 335.498 13.0907L339.265 21.5552H335.721L335.695 21.5679ZM332.071 11.197C333.069 11.197 333.883 10.8411 334.5 10.1421C335.117 9.44311 335.432 8.4899 335.432 7.2825C335.432 6.07511 335.117 5.18545 334.5 4.47372C333.883 3.762 333.069 3.41884 332.071 3.41884H330.417V11.197H332.071Z" fill="#3F6EB4"/>
<path d="M355.255 0.470215L355.281 14.9717C355.281 17.2212 354.756 18.9497 353.693 20.1571C352.655 21.3391 351.12 21.9364 349.085 21.9364C347.05 21.9364 345.514 21.3391 344.477 20.1571C343.414 18.9497 342.889 17.2339 342.889 15.0098V0.470215H346.065V15.175C346.065 17.7423 347.063 19.0387 349.059 19.0387C351.054 19.0387 352.078 17.755 352.078 15.175V0.470215H355.255Z" fill="#3F6EB4"/>
<path d="M360.427 21.5678V0.470215H363.604V21.5678H360.427Z" fill="#3F6EB4"/>
<path d="M380 0.470215V3.48235H375.326V21.5678H372.15V3.48235H367.516V0.470215H380Z" fill="#3F6EB4"/>
<path d="M214.568 18.5557L214.41 18.6193L214.502 18.5938C214.502 18.5938 214.646 18.5938 214.765 18.5811C214.883 18.5684 215.014 18.5684 215.158 18.5684C215.775 18.5303 216.327 18.5049 216.799 18.5049H222.103V21.4789H210.734V19.2293C212.139 17.3483 213.189 15.9376 213.872 15.0225C214.239 14.5014 214.791 13.7643 215.513 12.8111C216.235 11.8579 216.734 11.2097 216.996 10.8411C217.613 10.0658 218.165 9.29056 218.637 8.52799C219.136 7.75272 219.385 6.85035 219.385 5.82088C219.385 4.79142 219.123 4.0924 218.611 3.59674C218.073 3.07565 217.416 2.80875 216.629 2.80875C216.195 2.80875 215.788 2.88501 215.421 3.05023C215.066 3.21545 214.765 3.41881 214.515 3.6857C214.253 3.96531 214.042 4.28305 213.898 4.65162C213.714 5.09645 213.57 5.49044 213.465 5.85901L210.734 5.13458C210.853 4.58807 211.063 4.00344 211.351 3.35526C211.614 2.79604 212.008 2.24954 212.533 1.70303C213.045 1.18195 213.636 0.775246 214.305 0.47022C214.988 0.165194 215.788 0.0253906 216.694 0.0253906C217.6 0.0253906 218.375 0.139775 219.083 0.381254C219.792 0.622733 220.409 0.978597 220.948 1.46155C221.459 1.94451 221.866 2.52915 222.155 3.24087C222.444 3.96531 222.588 4.766 222.588 5.64295C222.588 6.46906 222.47 7.21892 222.221 7.89252C221.971 8.57883 221.656 9.23972 221.289 9.87519C220.934 10.4725 220.501 11.0826 219.989 11.7053L218.506 13.5101C217.889 14.2726 217.416 14.8573 217.114 15.2513C216.944 15.4673 216.72 15.7596 216.445 16.1282C216.169 16.4841 215.959 16.7383 215.841 16.8781C215.473 17.361 215.158 17.755 214.909 18.0473C214.659 18.3524 214.528 18.4922 214.502 18.4922L214.568 18.5557Z" fill="#3F6EB4"/>
<path d="M236.727 2.92313C237.829 4.82954 238.368 7.52393 238.368 11.0063C238.368 14.4887 237.816 17.1831 236.727 19.0895C235.65 20.9705 234.062 21.911 231.975 21.911C229.887 21.911 228.299 20.9705 227.222 19.0895C226.12 17.1831 225.582 14.4887 225.582 11.0063C225.582 7.52393 226.133 4.82954 227.222 2.92313C228.325 1.01671 229.9 0.0635071 231.975 0.0635071C234.049 0.0635071 235.624 1.01671 236.727 2.92313ZM231.975 3.0248C230.859 3.0248 230.019 3.66027 229.454 4.94392C228.89 6.22757 228.614 8.23566 228.614 10.9809C228.614 13.7261 228.89 15.7342 229.454 17.0179C230.019 18.3015 230.846 18.937 231.975 18.937C233.104 18.937 233.904 18.2888 234.456 16.9797C235.02 15.6834 235.296 13.6626 235.296 10.9428C235.296 8.22295 235.02 6.20216 234.456 4.9058C233.891 3.60943 233.064 2.94854 231.975 2.94854V3.01209V3.0248Z" fill="#3F6EB4"/>
<path d="M245.154 18.5557L244.997 18.6193L245.089 18.5938C245.089 18.5938 245.233 18.5938 245.351 18.5811C245.47 18.5684 245.601 18.5684 245.745 18.5684C246.362 18.5303 246.914 18.5049 247.386 18.5049H252.69V21.4789H241.321V19.2293C242.726 17.3483 243.776 15.9376 244.459 15.0225C244.826 14.5014 245.378 13.7643 246.1 12.8111C246.822 11.8579 247.321 11.2097 247.583 10.8411C248.2 10.0658 248.751 9.29056 249.224 8.52799C249.723 7.75272 249.972 6.85035 249.972 5.82088C249.972 4.79142 249.71 4.0924 249.198 3.59674C248.66 3.07565 248.003 2.80875 247.216 2.80875C246.782 2.80875 246.375 2.88501 246.008 3.05023C245.653 3.21545 245.351 3.41881 245.102 3.6857C244.839 3.96531 244.629 4.28305 244.485 4.65162C244.301 5.09645 244.157 5.49044 244.052 5.85901L241.321 5.13458C241.439 4.58807 241.649 4.00344 241.938 3.35526C242.201 2.79604 242.595 2.24954 243.12 1.70303C243.632 1.18195 244.222 0.775246 244.892 0.47022C245.575 0.165194 246.375 0.0253906 247.281 0.0253906C248.187 0.0253906 248.961 0.139775 249.67 0.381254C250.379 0.622733 250.996 0.978597 251.534 1.46155C252.046 1.94451 252.453 2.52915 252.742 3.24087C253.031 3.96531 253.175 4.766 253.175 5.64295C253.175 6.46906 253.057 7.21892 252.808 7.89252C252.558 8.57883 252.243 9.23972 251.876 9.87519C251.521 10.4725 251.088 11.0826 250.576 11.7053L249.093 13.5101C248.476 14.2726 248.003 14.8573 247.701 15.2513C247.531 15.4673 247.307 15.7596 247.032 16.1282C246.756 16.4841 246.546 16.7383 246.428 16.8781C246.06 17.361 245.745 17.755 245.496 18.0473C245.246 18.3524 245.115 18.4922 245.089 18.4922L245.154 18.5557Z" fill="#3F6EB4"/>
<path d="M259.765 8.73134L259.857 8.9474C260.146 8.56612 260.487 8.2738 260.881 8.07045C261.301 7.85439 261.761 7.74 262.273 7.74C263.087 7.74 263.822 7.91794 264.504 8.28651C265.213 8.64237 265.804 9.13804 266.277 9.7608C266.788 10.4217 267.182 11.1715 267.458 12.0104C267.747 12.9127 267.891 13.8532 267.891 14.8319C267.891 15.874 267.734 16.8399 267.432 17.7423C267.143 18.6066 266.723 19.3691 266.158 20.03C265.646 20.6528 265.003 21.1357 264.229 21.4789C263.48 21.8347 262.68 22.0254 261.813 22.0254C260.947 22.0254 260.08 21.8475 259.332 21.4789C258.584 21.1357 257.941 20.6401 257.402 19.9792C256.904 19.3564 256.497 18.5811 256.155 17.6661C255.84 16.8018 255.696 15.8359 255.696 14.781C255.696 13.9168 255.761 13.1034 255.88 12.3408C255.998 11.5782 256.195 10.8538 256.444 10.1802C256.667 9.54474 256.969 8.88385 257.35 8.19754C257.678 7.6002 258.072 6.93931 258.531 6.24029L262.286 0.495636H265.292L259.765 8.73134ZM261.813 19.0387C262.811 19.0387 263.599 18.6447 264.202 17.8694C264.806 17.0687 265.108 16.0265 265.108 14.7429C265.108 13.4592 264.793 12.4044 264.176 11.6164C263.559 10.8411 262.771 10.4471 261.813 10.4471C260.776 10.4471 259.975 10.8411 259.385 11.6164C258.807 12.3789 258.518 13.3957 258.518 14.6793C258.518 16.0393 258.833 17.0941 259.45 17.8313C260.067 18.5938 260.881 18.9751 261.866 18.9751L261.8 19.0387H261.813Z" fill="#3F6EB4"/>
</svg>
