<svg width="222" height="13" viewBox="0 0 222 13" fill="none" xmlns="http://www.w3.org/2000/svg">
<g clip-path="url(#clip0_2283_4667)">
<path d="M7.2934 0.270355V2.05025H4.56317V12.7371H2.70722V2.05025H0V0.270355H7.2934Z" fill=""/>
<path d="M9.02706 6.53381C9.02706 4.28077 9.33382 2.63606 9.95503 1.59966C10.5686 0.57078 11.5272 0.0525818 12.8233 0.0525818C14.1194 0.0525818 15.1087 0.57829 15.7146 1.63722C16.3205 2.69614 16.6272 4.32583 16.6272 6.53381C16.6272 8.74178 16.3205 10.4316 15.6993 11.4679C15.0934 12.4893 14.1424 13 12.8463 13C11.5502 13 10.5532 12.4743 9.93969 11.4304C9.31849 10.3715 9.01172 8.74178 9.01172 6.53381H9.02706ZM10.8983 6.53381C10.8983 7.38996 10.9367 8.11844 11.0057 8.72676C11.0824 9.32006 11.1898 9.80821 11.3355 10.1837C11.4812 10.5367 11.6729 10.8146 11.9183 11.0023C12.1638 11.1826 12.4552 11.2727 12.7926 11.2727C13.5059 11.2727 14.012 10.8972 14.3035 10.1537C14.5949 9.40267 14.7406 8.20105 14.7406 6.54132C14.7406 5.68516 14.7023 4.95668 14.6332 4.34836C14.5565 3.71751 14.4492 3.22936 14.2881 2.86887C14.1271 2.50088 13.9277 2.23051 13.6899 2.05027C13.4598 1.87003 13.1684 1.77991 12.8156 1.77991C12.4629 1.77991 12.1791 1.87003 11.926 2.05027C11.6729 2.23051 11.4735 2.50839 11.3278 2.88389C11.1821 3.26691 11.0747 3.74756 10.998 4.34085C10.9213 4.94917 10.8907 5.66263 10.8907 6.49626L10.906 6.53381H10.8983Z" fill=""/>
<path d="M24.2041 9.90583H20.7146L20.0627 12.7371H18.1914L21.2898 0.270355H23.6212L26.7272 12.7371H24.8559L24.2041 9.90583ZM23.8513 8.1785L22.7622 3.58231C22.6395 3.07163 22.5705 2.64355 22.5475 2.29808C22.5245 2.05776 22.5015 1.94511 22.4938 1.94511H22.4555C22.4555 1.94511 22.4248 2.06527 22.4018 2.29808C22.3788 2.64355 22.3021 3.07163 22.1871 3.58231L21.1287 8.1785H23.8589H23.8513Z" fill=""/>
<path d="M33.7832 12.7371V0.270355H35.6391V12.7371H33.7832Z" fill=""/>
<path d="M45.7929 0.270355L45.7009 12.8423H44.1517L41.0994 6.0231C41.0764 5.97804 41.0304 5.8729 40.9613 5.71518C40.8923 5.55747 40.8463 5.4298 40.808 5.33217C40.7006 5.08434 40.6086 4.85152 40.5319 4.64124C40.5089 4.56614 40.4398 4.3934 40.3325 4.10802L40.2634 3.89774H40.2098L40.2481 4.1681C40.2481 4.22818 40.2634 4.34083 40.2865 4.50606C40.3095 4.67128 40.3248 4.80646 40.3401 4.91911C40.3785 5.24956 40.4168 5.63257 40.4475 6.06065C40.4859 6.51126 40.5012 6.99941 40.5012 7.51761V12.7897H38.6836V0.322926H40.2328L43.4155 7.3599C43.4845 7.5101 43.5842 7.74291 43.7069 8.05083C43.8066 8.27613 43.8756 8.4714 43.9217 8.63662C43.9447 8.6967 43.9753 8.76429 44.006 8.85441C44.0367 8.93702 44.0597 8.9971 44.0674 9.03465L44.121 9.17735H44.1747L44.1594 8.90698C44.1594 8.90698 44.1517 8.78682 44.1287 8.61409C44.1134 8.44135 44.098 8.29115 44.0827 8.16348C44.0597 7.92316 44.0367 7.54765 44.006 7.02194C43.983 6.42865 43.9677 5.94049 43.9677 5.56498V0.270355H45.7853H45.7929Z" fill=""/>
<path d="M51.1536 0.300415H51.1152C52.8025 0.300415 54.0525 0.856163 54.8808 1.96015C55.6937 3.04911 56.1002 4.60371 56.1002 6.60891C56.1002 8.61411 55.7168 10.1612 54.9575 11.2051C54.2059 12.234 53.0019 12.7522 51.3376 12.7522H48.8682V0.300415H51.1612H51.1536ZM51.6828 10.9723L51.6674 11.0098C52.1889 11.0098 52.6031 10.9122 52.9252 10.7244C53.2626 10.5217 53.531 10.2363 53.7228 9.86829C53.9298 9.47777 54.0679 9.01214 54.1369 8.47892C54.2136 7.92318 54.2443 7.28482 54.2443 6.57136C54.2443 4.97921 54.0219 3.82266 53.5694 3.10169C53.1169 2.38072 52.4267 2.01272 51.4987 2.01272H50.7318V10.9723H51.6751H51.6828Z" fill=""/>
<path d="M65.7937 0.270355L65.809 8.83939C65.809 10.1687 65.5023 11.1901 64.8811 11.9035C64.2752 12.602 63.3779 12.9549 62.1892 12.9549C61.0005 12.9549 60.1032 12.602 59.4973 11.9035C58.8761 11.1901 58.5693 10.1762 58.5693 8.86192V0.270355H60.4253V8.95955C60.4253 10.4766 61.0081 11.2426 62.1739 11.2426C63.3396 11.2426 63.9378 10.4841 63.9378 8.95955V0.270355H65.7937Z" fill=""/>
<path d="M73.5477 3.46966L73.4403 3.54476C73.2792 2.96648 73.0492 2.50837 72.7347 2.19294C72.428 1.87001 72.0292 1.71229 71.5307 1.71229C71.1089 1.71229 70.7791 1.83997 70.549 2.10282C70.3036 2.37318 70.1886 2.71865 70.1886 3.13921C70.1886 3.5748 70.411 4.01039 70.8404 4.43846C71.2392 4.82899 71.7991 5.2796 72.5123 5.79028C72.8651 6.05314 73.1949 6.30848 73.5093 6.55631C73.8391 6.82668 74.1305 7.11206 74.3836 7.41247C74.6367 7.71287 74.8361 8.04332 74.9818 8.41131C75.1275 8.76429 75.1965 9.16232 75.1965 9.60542C75.1965 10.1011 75.1198 10.5517 74.9588 10.9422C74.7977 11.3478 74.5677 11.7007 74.2686 12.0087C73.9925 12.294 73.632 12.5344 73.1949 12.7221C72.7577 12.8873 72.3053 12.9699 71.8298 12.9699C71.2853 12.9699 70.7868 12.8873 70.3419 12.7221C69.9048 12.5419 69.5367 12.3091 69.2299 12.0087C68.9231 11.7083 68.6854 11.3553 68.5013 10.9422C68.3326 10.5592 68.2022 10.1161 68.1025 9.60542L69.8511 9.13979C69.9508 9.83072 70.1655 10.3564 70.503 10.7244C70.8558 11.1074 71.3006 11.2952 71.8298 11.2952C72.2669 11.2952 72.6274 11.1525 72.9188 10.8671C73.2102 10.5817 73.3559 10.1987 73.3559 9.71056C73.3559 9.47024 73.3099 9.24494 73.2102 9.01963C73.1259 8.81686 72.9878 8.60658 72.7884 8.38127C72.5967 8.15597 72.3743 7.94569 72.1135 7.74291C72.0062 7.6603 71.8451 7.52512 71.6304 7.35239C71.4156 7.17214 71.2853 7.05949 71.2239 7.01443C70.8098 6.70652 70.4416 6.41362 70.1119 6.14326C69.7974 5.89543 69.4983 5.59502 69.2222 5.24956C68.9692 4.95666 68.7698 4.61871 68.624 4.25071C68.4783 3.89774 68.4016 3.4997 68.4016 3.0566C68.4016 2.67359 68.4783 2.30559 68.624 1.95262C68.7698 1.58462 68.9768 1.26169 69.2452 0.991323C69.5137 0.705939 69.8511 0.473126 70.2652 0.300393C70.664 0.120151 71.1319 0.0300293 71.6687 0.0300293C72.589 0.0300293 73.3559 0.307903 73.9618 0.863652C74.56 1.41189 74.9741 2.13286 75.2195 3.03407L73.5477 3.47717V3.46966Z" fill=""/>
<path d="M84.3686 0.270355V2.05025H81.6384V12.7371H79.7824V2.05025H77.0752V0.270355H84.3686Z" fill=""/>
<path d="M91.6236 12.7371L89.783 8.21606C89.783 8.21606 89.691 8.23108 89.622 8.23108H88.4946V12.7221H86.6387V0.247833H89.4763C90.0361 0.247833 90.5423 0.345465 91.0024 0.533217C91.4779 0.72097 91.8844 0.998844 92.2218 1.35182C92.5593 1.70479 92.8354 2.13287 93.0424 2.63605C93.2342 3.12421 93.3339 3.67244 93.3339 4.29578C93.3339 5.09936 93.1652 5.7978 92.8277 6.37608C92.4903 6.96187 92.0454 7.41248 91.5009 7.7279L93.702 12.7296H91.6313L91.6236 12.7371ZM89.5146 6.6089C90.0975 6.6089 90.573 6.39861 90.9334 5.98556C91.2939 5.5725 91.4779 5.00924 91.4779 4.29578C91.4779 3.58232 91.2939 3.05661 90.9334 2.63605C90.573 2.21548 90.0975 2.01271 89.5146 2.01271H88.5483V6.6089H89.5146Z" fill=""/>
<path d="M96.0723 12.7371V0.270355H97.9282V12.7371H96.0723Z" fill=""/>
<path d="M106.816 10.9572V12.7371H100.995V0.270355H106.709V2.05025H102.851V5.36221H105.635V7.07452H102.851V10.9572H106.816Z" fill=""/>
<path d="M114.225 3.46966L114.117 3.54476C113.964 2.96648 113.726 2.50837 113.412 2.19294C113.113 1.87001 112.706 1.71229 112.215 1.71229C111.793 1.71229 111.464 1.83997 111.234 2.10282C110.988 2.37318 110.873 2.71865 110.873 3.13921C110.873 3.5748 111.096 4.01039 111.525 4.43846C111.924 4.82899 112.484 5.2796 113.197 5.79028C113.55 6.05314 113.879 6.30848 114.194 6.55631C114.524 6.82668 114.815 7.11206 115.068 7.41247C115.321 7.71287 115.521 8.04332 115.666 8.41131C115.812 8.76429 115.881 9.16232 115.881 9.60542C115.881 10.1011 115.804 10.5517 115.643 10.9422C115.49 11.3478 115.252 11.7007 114.953 12.0087C114.677 12.294 114.317 12.5344 113.879 12.7221C113.442 12.8873 112.99 12.9699 112.514 12.9699C111.97 12.9699 111.471 12.8873 111.027 12.7221C110.589 12.5419 110.221 12.3091 109.914 12.0087C109.608 11.7083 109.37 11.3553 109.186 10.9422C109.017 10.5592 108.887 10.1161 108.787 9.60542L110.536 9.13979C110.635 9.83072 110.85 10.3564 111.188 10.7244C111.54 11.1074 111.985 11.2952 112.514 11.2952C112.951 11.2952 113.312 11.1525 113.603 10.8671C113.895 10.5817 114.04 10.1987 114.04 9.71056C114.04 9.47024 113.994 9.24494 113.895 9.01963C113.81 8.81686 113.672 8.60658 113.473 8.38127C113.281 8.15597 113.059 7.94569 112.798 7.74291C112.691 7.6603 112.53 7.52512 112.315 7.35239C112.1 7.17214 111.97 7.05949 111.908 7.01443C111.494 6.70652 111.126 6.41362 110.796 6.14326C110.482 5.89543 110.183 5.59502 109.907 5.24956C109.654 4.95666 109.454 4.61871 109.309 4.25071C109.163 3.89774 109.086 3.4997 109.086 3.0566C109.086 2.67359 109.163 2.30559 109.309 1.95262C109.454 1.58462 109.661 1.26169 109.93 0.991323C110.198 0.705939 110.536 0.473126 110.95 0.300393C111.349 0.120151 111.816 0.0300293 112.353 0.0300293C113.274 0.0300293 114.041 0.307903 114.646 0.863652C115.245 1.41189 115.659 2.13286 115.904 3.03407L114.232 3.47717L114.225 3.46966Z" fill=""/>
<path d="M169.151 12.7371L167.318 8.21606C167.318 8.21606 167.226 8.23108 167.157 8.23108H166.03V12.7221H164.174V0.247833H167.011C167.571 0.247833 168.077 0.345465 168.538 0.533217C169.013 0.72097 169.42 0.998844 169.757 1.35182C170.094 1.70479 170.371 2.13287 170.578 2.63605C170.769 3.12421 170.869 3.67244 170.869 4.29578C170.869 5.09936 170.7 5.7978 170.363 6.37608C170.025 6.96187 169.581 7.41248 169.036 7.7279L171.237 12.7296H169.166L169.151 12.7371ZM167.042 6.6089C167.625 6.6089 168.1 6.39861 168.461 5.98556C168.821 5.5725 169.005 5.00924 169.005 4.29578C169.005 3.58232 168.821 3.05661 168.461 2.63605C168.1 2.21548 167.625 2.01271 167.042 2.01271H166.076V6.6089H167.042Z" fill=""/>
<path d="M179.421 10.9572V12.7371H173.6V0.270355H179.313V2.05025H175.456V5.36221H178.239V7.07452H175.456V10.9572H179.421Z" fill=""/>
<path d="M186.883 3.74004H186.868C186.699 2.9665 186.477 2.4483 186.193 2.17042C185.909 1.89255 185.549 1.74235 185.134 1.74235C184.444 1.74235 183.953 2.12536 183.662 2.88388C183.371 3.65743 183.225 4.85153 183.225 6.48123C183.225 8.11092 183.386 9.35009 183.716 10.0936C184.045 10.8446 184.544 11.2126 185.226 11.2126C185.71 11.2126 186.108 11.0324 186.423 10.6794C186.737 10.3264 186.96 9.73311 187.075 8.89948L188.77 9.34258C188.563 10.5742 188.156 11.483 187.55 12.0687C186.944 12.6545 186.154 12.9399 185.188 12.9399C183.869 12.9399 182.895 12.4142 182.281 11.3703C181.66 10.3264 181.354 8.6892 181.354 6.47372C181.354 4.25823 181.66 2.57597 182.281 1.53958C182.903 0.51069 183.861 -0.00750732 185.157 -0.00750732C186.101 -0.00750732 186.852 0.262857 187.412 0.796074C187.98 1.32929 188.378 2.1554 188.616 3.27441L186.891 3.74004H186.883Z" fill=""/>
<path d="M196.117 12.7371L194.284 8.21606C194.284 8.21606 194.192 8.23108 194.123 8.23108H192.996V12.7221H191.14V0.247833H193.977C194.537 0.247833 195.043 0.345465 195.503 0.533217C195.979 0.72097 196.385 0.998844 196.723 1.35182C197.06 1.70479 197.336 2.13287 197.543 2.63605C197.735 3.12421 197.835 3.67244 197.835 4.29578C197.835 5.09936 197.666 5.7978 197.329 6.37608C196.991 6.96187 196.546 7.41248 196.002 7.7279L198.203 12.7296H196.132L196.117 12.7371ZM194 6.6089C194.583 6.6089 195.059 6.39861 195.419 5.98556C195.78 5.5725 195.964 5.00924 195.964 4.29578C195.964 3.58232 195.78 3.05661 195.419 2.63605C195.059 2.21548 194.583 2.01271 194 2.01271H193.034V6.6089H194Z" fill=""/>
<path d="M207.544 0.270355L207.559 8.83939C207.559 10.1687 207.252 11.1901 206.631 11.9035C206.025 12.602 205.128 12.9549 203.939 12.9549C202.75 12.9549 201.853 12.602 201.247 11.9035C200.626 11.1901 200.319 10.1762 200.319 8.86192V0.270355H202.175V8.95955C202.175 10.4766 202.758 11.2426 203.924 11.2426C205.09 11.2426 205.688 10.4841 205.688 8.95955V0.270355H207.544Z" fill=""/>
<path d="M210.565 12.7371V0.270355H212.421V12.7371H210.565Z" fill=""/>
<path d="M222 0.270355V2.05025H219.27V12.7371H217.414V2.05025H214.707V0.270355H222Z" fill=""/>
<path d="M125.353 10.9572L125.261 10.9948L125.314 10.9798C125.314 10.9798 125.399 10.9798 125.468 10.9723C125.537 10.9648 125.613 10.9648 125.698 10.9648C126.058 10.9422 126.38 10.9272 126.656 10.9272H129.755V12.6846H123.113V11.3553C123.934 10.2438 124.547 9.41017 124.946 8.86944C125.161 8.56152 125.483 8.12594 125.905 7.56268C126.327 6.99942 126.618 6.6164 126.771 6.39861C127.132 5.94049 127.454 5.48238 127.73 5.03177C128.022 4.57365 128.167 4.04044 128.167 3.43212C128.167 2.8238 128.014 2.41074 127.715 2.11785C127.4 1.80993 127.017 1.65222 126.557 1.65222C126.304 1.65222 126.066 1.69728 125.851 1.79491C125.644 1.89255 125.468 2.01271 125.322 2.17042C125.169 2.33564 125.046 2.52339 124.962 2.74119C124.854 3.00404 124.77 3.23685 124.708 3.45465L123.113 3.02657C123.182 2.70364 123.305 2.35817 123.474 1.97516C123.627 1.64471 123.857 1.32178 124.164 0.998842C124.463 0.690927 124.808 0.450604 125.199 0.270361C125.598 0.0901186 126.066 0.00750732 126.595 0.00750732C127.124 0.00750732 127.577 0.0750983 127.991 0.21779C128.405 0.360483 128.765 0.570766 129.08 0.85615C129.379 1.14153 129.617 1.487 129.785 1.90757C129.954 2.33564 130.039 2.80878 130.039 3.32698C130.039 3.81513 129.97 4.25823 129.824 4.65627C129.678 5.06181 129.494 5.45234 129.279 5.82784C129.072 6.18082 128.819 6.5413 128.52 6.9093L127.653 7.97573C127.293 8.42634 127.017 8.77181 126.841 9.00462C126.741 9.13229 126.61 9.30502 126.449 9.52282C126.288 9.7331 126.166 9.8833 126.097 9.96591C125.882 10.2513 125.698 10.4841 125.552 10.6568C125.406 10.8371 125.33 10.9197 125.314 10.9197L125.353 10.9572Z" fill=""/>
<path d="M138.298 1.7198C138.942 2.84632 139.257 4.43846 139.257 6.49623C139.257 8.554 138.935 10.1461 138.298 11.2727C137.669 12.3842 136.741 12.9399 135.522 12.9399C134.303 12.9399 133.375 12.3842 132.746 11.2727C132.102 10.1461 131.787 8.554 131.787 6.49623C131.787 4.43846 132.109 2.84632 132.746 1.7198C133.39 0.593288 134.31 0.0300293 135.522 0.0300293C136.734 0.0300293 137.654 0.593288 138.298 1.7198ZM135.522 1.77988C134.87 1.77988 134.379 2.15539 134.05 2.91391C133.72 3.67243 133.559 4.85903 133.559 6.48121C133.559 8.1034 133.72 9.29 134.05 10.0485C134.379 10.807 134.862 11.1825 135.522 11.1825C136.182 11.1825 136.649 10.7995 136.971 10.026C137.301 9.25996 137.462 8.06585 137.462 6.45868C137.462 4.85152 137.301 3.65741 136.971 2.89138C136.642 2.12535 136.159 1.73482 135.522 1.73482V1.77237V1.77988Z" fill=""/>
<path d="M143.222 10.9572L143.13 10.9948L143.183 10.9798C143.183 10.9798 143.268 10.9798 143.337 10.9723C143.406 10.9648 143.483 10.9648 143.567 10.9648C143.927 10.9422 144.249 10.9272 144.526 10.9272H147.624V12.6846H140.982V11.3553C141.803 10.2438 142.417 9.41017 142.815 8.86944C143.03 8.56152 143.352 8.12594 143.774 7.56268C144.196 6.99942 144.487 6.6164 144.641 6.39861C145.001 5.94049 145.323 5.48238 145.599 5.03177C145.891 4.57365 146.036 4.04044 146.036 3.43212C146.036 2.8238 145.883 2.41074 145.584 2.11785C145.269 1.80993 144.886 1.65222 144.426 1.65222C144.173 1.65222 143.935 1.69728 143.72 1.79491C143.513 1.89255 143.337 2.01271 143.191 2.17042C143.038 2.33564 142.915 2.52339 142.831 2.74119C142.723 3.00404 142.639 3.23685 142.578 3.45465L140.982 3.02657C141.051 2.70364 141.174 2.35817 141.343 1.97516C141.496 1.64471 141.726 1.32178 142.033 0.998842C142.332 0.690927 142.677 0.450604 143.068 0.270361C143.467 0.0901186 143.935 0.00750732 144.464 0.00750732C144.993 0.00750732 145.446 0.0750983 145.86 0.21779C146.274 0.360483 146.635 0.570766 146.949 0.85615C147.248 1.14153 147.486 1.487 147.655 1.90757C147.823 2.33564 147.908 2.80878 147.908 3.32698C147.908 3.81513 147.839 4.25823 147.693 4.65627C147.547 5.06181 147.363 5.45234 147.148 5.82784C146.941 6.18082 146.688 6.5413 146.389 6.9093L145.523 7.97573C145.162 8.42634 144.886 8.77181 144.71 9.00462C144.61 9.13229 144.48 9.30502 144.319 9.52282C144.157 9.7331 144.035 9.8833 143.966 9.96591C143.751 10.2513 143.567 10.4841 143.421 10.6568C143.276 10.8371 143.199 10.9197 143.183 10.9197L143.222 10.9572Z" fill=""/>
<path d="M151.757 5.15192L151.811 5.27959C151.98 5.05429 152.179 4.88156 152.409 4.7614C152.655 4.63372 152.923 4.56613 153.222 4.56613C153.698 4.56613 154.127 4.67127 154.526 4.88907C154.94 5.09935 155.285 5.39224 155.561 5.76024C155.86 6.15077 156.09 6.59386 156.251 7.08953C156.42 7.62275 156.505 8.1785 156.505 8.75677C156.505 9.3726 156.413 9.94337 156.236 10.4766C156.067 10.9873 155.822 11.4379 155.492 11.8284C155.193 12.1964 154.817 12.4818 154.365 12.6846C153.928 12.8948 153.46 13.0075 152.954 13.0075C152.448 13.0075 151.941 12.9024 151.504 12.6846C151.067 12.4818 150.691 12.1889 150.377 11.7984C150.085 11.4304 149.848 10.9723 149.648 10.4315C149.464 9.92084 149.38 9.35007 149.38 8.72673C149.38 8.21605 149.418 7.7354 149.487 7.28479C149.556 6.83419 149.671 6.40611 149.817 6.00807C149.947 5.63257 150.124 5.24204 150.346 4.8365C150.538 4.48352 150.768 4.093 151.036 3.67994L153.23 0.28537H154.986L151.757 5.15192ZM152.954 11.2426C153.537 11.2426 153.997 11.0098 154.35 10.5517C154.702 10.0786 154.879 9.46272 154.879 8.7042C154.879 7.94568 154.695 7.32234 154.334 6.85672C153.974 6.3986 153.514 6.16579 152.954 6.16579C152.348 6.16579 151.88 6.3986 151.535 6.85672C151.197 7.30732 151.029 7.90813 151.029 8.66665C151.029 9.47023 151.213 10.0936 151.573 10.5292C151.934 10.9798 152.409 11.2051 152.984 11.2051L152.946 11.2426H152.954Z" fill=""/>
</g>
<defs>
<clipPath id="clip0_2283_4667">
<rect width="222" height="13" fill="white"/>
</clipPath>
</defs>
</svg>
