<svg width="153" height="40" viewBox="0 0 153 40" fill="none" xmlns="http://www.w3.org/2000/svg">
<path d="M128.405 14.39V16.025H124.94V26.03H122.9V16.025H119.465V14.39H128.405ZM135.737 14.195C138.722 14.195 140.717 16.355 140.717 20.21C140.717 24.05 138.707 26.255 135.722 26.255C132.737 26.255 130.742 24.08 130.742 20.24C130.742 16.385 132.767 14.195 135.737 14.195ZM135.737 15.755C134.027 15.755 132.887 17.24 132.887 20.225C132.887 23.195 134.027 24.695 135.737 24.695C137.447 24.695 138.572 23.195 138.572 20.225C138.572 17.24 137.447 15.755 135.737 15.755ZM148.868 14.39L152.453 26.03H150.338L149.348 22.61H145.778L144.773 26.03H142.853L146.423 14.39H148.868ZM148.988 21.11L148.313 18.755C148.058 17.84 147.878 16.985 147.623 15.89H147.488C147.233 17 147.023 17.84 146.768 18.74L146.138 21.11H148.988Z" fill="#15327e"/>
<path d="M9.85793 16.8531C9.15991 17.1024 7.99136 17.52 6.38966 17.9531C6.24164 17.9905 6.08583 18.031 5.93003 18.0716C6.80567 17.0697 8.03966 15.8014 8.34972 15.535C8.78598 15.1564 8.85142 15.094 9.03215 14.8479L9.18173 14.6438L8.09108 13.3552L7.89164 13.4129C5.9238 13.9847 4.90637 14.1218 2.68923 14.1062L2.17819 14.1031L3.02734 15.8918L3.25014 15.8715C4.34547 15.7749 5.5 15.5724 6.32578 15.401C6.28527 15.4462 6.24008 15.496 6.18867 15.5521C5.22266 16.5976 4.93753 16.9092 4.23173 17.6789L3.55397 18.419C3.24703 18.7384 3.15042 18.8272 2.72663 18.9363C2.07691 19.0983 1.13428 19.3149 0.431586 19.3305L0 19.3398L0.63881 21.3046L0.950425 21.1924C1.51289 20.9914 1.73725 20.9213 2.01771 20.8372C2.35113 20.7343 3.28286 20.4694 4.26756 20.1874C4.83782 20.0254 5.41586 19.8602 5.91912 19.7153C5.08555 20.5598 4.24108 21.7019 4.24108 23.0543C4.24108 24.7744 5.30524 25.8963 7.23414 26.211C7.83867 26.3123 8.33725 26.3419 9.02592 26.3839L9.42479 26.4089V24.589L9.09915 24.5937C8.21261 24.6077 7.91346 24.5937 7.49745 24.5251C6.41303 24.3475 5.86303 23.891 5.86303 23.168C5.86303 21.9574 6.9085 20.8855 7.4102 20.3713L7.45694 20.323C8.67535 19.1046 9.24249 18.8428 9.47153 18.7945L9.54476 18.7805C9.85949 18.7182 10.0324 18.6839 10.4095 18.5717L10.679 18.4922L10.3861 16.6662L9.85793 16.8547V16.8531Z" fill="#15327e"/>
<path d="M23.1667 21.1865C22.7148 22.0481 21.8766 23.6545 20.7532 23.6545C20.5039 23.6545 20.2811 23.6124 20.2811 23.0952C20.2811 23.0344 20.2858 22.7087 20.3637 22.2242L20.3668 22.207C20.5803 20.9107 20.613 20.7113 20.613 20.2828C20.613 19.4757 20.1814 18.5346 18.9661 18.5346C18.2011 18.5346 17.4283 18.893 16.6773 19.3589C17.3379 17.8397 18.2665 16.0542 18.9988 14.7734L19.1624 14.4883L17.3893 13.5254L17.0045 14.493C16.7225 15.2034 16.5682 15.5945 16.3641 16.0588C16.0011 16.9033 14.6159 20.0164 13.6048 22.2896C13.1264 23.3663 12.7213 24.2746 12.5297 24.7093L12.3926 25.0178L14.0473 25.652L14.1688 25.37C15.2672 22.8225 15.5274 22.2553 16.3283 21.4545C16.6165 21.1662 17.6199 20.2267 18.4753 20.2267C18.776 20.2267 18.9334 20.4215 18.9334 20.6116C18.9303 20.7082 18.8399 21.2395 18.7931 21.4716C18.6763 22.2117 18.6155 22.8552 18.6155 23.1076C18.6155 24.4616 19.3899 25.303 20.6379 25.303C21.2237 25.303 21.8142 25.1066 22.4437 24.7031C23.4565 24.0378 23.9504 23.2494 24.3851 22.5529L24.5097 22.3535L23.4175 20.705L23.1651 21.1865H23.1667Z" fill="#15327e"/>
<path d="M33.0838 17.0806L33.3113 17.0448L33.626 15.2016L33.1228 15.3621C32.8299 15.4555 32.5276 15.5521 31.5772 15.7111C31.7143 15.334 31.8171 15.024 32.0976 14.1499L32.1802 13.8928L30.4647 13L30.3946 13.4394C30.2263 14.4849 29.949 15.3761 29.7527 15.9728C29.5922 15.9822 29.452 15.9822 29.1964 15.9822C28.2522 15.9822 27.8783 15.9027 27.52 15.8061L27.0977 15.6924L27.1709 17.4234L27.4561 17.4592C27.6882 17.4888 28.0372 17.5325 28.6916 17.5325C28.7649 17.5325 28.9347 17.5247 29.2058 17.5107C29.2214 17.5107 29.2369 17.5091 29.2541 17.5075C28.0248 20.6097 27.185 21.6941 26.6209 22.4233L26.3623 22.7567L28.1089 23.4688L28.2476 23.2242C29.3787 21.2438 30.2559 19.1544 30.9664 17.3471C31.7252 17.2598 32.6538 17.1461 33.0807 17.0791L33.0838 17.0806Z" fill="#15327e"/>
<path d="M34.5751 22.4987C34.5424 22.1248 34.5128 21.7944 34.4863 21.5062C34.4131 20.696 34.3648 20.16 34.3648 20.0089C34.3648 19.5804 34.4723 19.4324 34.9007 19.0709L35.1905 18.8263L33.9347 17.7637L33.7259 17.9569C33.1292 18.5116 32.6711 19.0055 32.6711 19.8936C32.6711 20.0728 32.7303 20.6944 32.816 21.5529C32.8347 21.7383 32.8519 21.9175 32.8674 22.0733C32.5122 22.0126 32.104 21.9518 31.7238 21.9518C30.0255 21.9518 29.1094 22.9568 29.1094 23.9025C29.1094 24.9963 30.2109 26.1275 32.0557 26.1275C33.9005 26.1275 34.2931 24.9605 34.4723 24.1627C35.0597 24.4338 35.4258 24.6177 35.9852 24.9558L36.317 25.1568L36.9262 23.5177L36.6723 23.3884C36.1674 23.1297 35.6891 22.8835 34.5767 22.5003L34.5751 22.4987ZM32.9017 23.8168C32.9017 24.5367 32.2645 24.5928 32.0682 24.5928C31.4091 24.5928 30.6441 24.3045 30.6441 23.9321C30.6441 23.7389 30.9978 23.46 31.6366 23.46C32.0728 23.46 32.5247 23.5504 32.9017 23.6299V23.8168Z" fill="#15327e"/>
<path d="M48.3152 20.5878C48.5567 21.0132 48.7421 21.5196 48.7421 22.1007C48.7421 23.4968 47.5845 24.5501 46.0482 24.5501C44.512 24.5501 43.9028 23.4797 43.9028 22.4762C43.9028 22.1818 43.9355 21.7954 43.9776 21.4682C44.5026 21.4604 45.4998 21.4214 46.7945 21.2064L47.0236 21.1675L47.3227 19.1902L46.8335 19.3429C46.3739 19.4863 45.5512 19.7418 44.1785 19.8057C44.1832 19.7823 44.1863 19.7574 44.191 19.734C44.2611 19.3055 44.3328 18.863 44.4886 18.0077C44.9716 17.9781 45.5528 17.9204 46.9021 17.6711L47.1451 17.6259L47.2885 15.7671L46.8257 15.9276C46.3038 16.1099 45.7538 16.2797 44.8438 16.3685C45.0277 15.429 45.21 14.6671 45.4546 14.0564L45.5855 13.7307L43.3294 13.0576L43.3372 13.4954C43.3496 14.2122 43.2562 14.8183 43.0271 16.2797L43.0131 16.3732C42.5363 16.3249 41.8897 16.2268 40.8583 15.8949L40.4516 15.764L40.4049 17.4218L40.609 17.506C41.1902 17.7475 41.7215 17.9017 42.7311 17.9921C42.6579 18.4844 42.5348 19.2448 42.4506 19.7574C41.8492 19.7138 41.2727 19.5969 40.7664 19.4162L40.3379 19.2635V21.1176L40.6775 21.1877C41.0343 21.2625 41.4332 21.3451 42.22 21.4121C42.1982 21.7019 42.1702 22.0836 42.1702 22.4435C42.1702 22.7458 42.22 23.8053 42.8604 24.7573C43.6893 25.9851 45.1804 26.1673 45.9968 26.1673C48.5115 26.1673 50.5573 24.335 50.5573 22.082C50.5573 21.0833 50.1911 20.2435 49.7845 19.6094L48.3199 20.5832L48.3152 20.5878Z" fill="#15327e"/>
<path d="M62.8991 21.1863C62.4472 22.0479 61.609 23.6543 60.4856 23.6543C60.2363 23.6543 60.0135 23.6122 60.0135 23.0949C60.0135 23.0341 60.0182 22.7085 60.0961 22.2239L60.0992 22.2068C60.3127 20.9105 60.3454 20.711 60.3454 20.2826C60.3454 19.4755 59.9138 18.5344 58.6985 18.5344C57.9335 18.5344 57.1607 18.8928 56.4097 19.3586C57.0703 17.8395 57.9989 16.0539 58.7312 14.7732L58.8948 14.488L57.1217 13.5251L56.7369 14.4927C56.4549 15.2032 56.3006 15.5943 56.0965 16.0586C55.7335 16.9031 54.3484 20.0161 53.3372 22.2894C52.8589 23.366 52.4538 24.2744 52.2621 24.7091L52.125 25.0176L53.7797 25.6517L53.9012 25.3697C54.9996 22.8222 55.2598 22.2551 56.0607 21.4542C56.3489 21.166 57.3539 20.228 58.2077 20.228C58.5084 20.228 58.6658 20.4228 58.6658 20.6129C58.6627 20.7095 58.5723 21.2408 58.5256 21.4729C58.4087 22.213 58.3479 22.8565 58.3479 23.1089C58.3479 24.4629 59.1223 25.3043 60.3703 25.3043C60.9562 25.3043 61.5467 25.108 62.1761 24.7044C63.1889 24.0391 63.6828 23.2507 64.1175 22.5543L64.2421 22.3548L63.1499 20.7064L62.8975 21.1878L62.8991 21.1863Z" fill="#15327e"/>
<path d="M74.1141 20.3758C72.4018 23.9734 70.5181 24.3614 69.7889 24.3614C69.6316 24.3614 68.826 24.3209 68.4942 23.5231C68.4334 23.3923 68.3072 23.118 68.3072 21.3932C68.3072 20.7092 68.3228 17.1599 68.6375 14.3912L68.6702 14.0967L66.5762 13.6963L66.6463 14.1466C66.7429 14.7714 66.7429 15.4943 66.7429 16.1316C66.7429 16.4229 66.7289 17.255 66.7148 18.1368C66.6993 19.0561 66.6852 20.0065 66.6852 20.3571C66.6852 22.6958 66.7242 23.2333 66.9439 23.9376C67.2446 24.9566 68.2402 25.9849 69.7889 25.9849C71.8892 25.9849 73.8321 24.5203 75.5631 21.6301L75.7158 21.3745L74.3089 19.9676L74.1141 20.3774V20.3758Z" fill="#15327e"/>
<path d="M85.8628 17.7557C85.333 17.7557 84.8407 17.8725 84.5151 17.9645C84.0913 17.3989 83.7407 16.9377 83.2733 16.4298L83.1066 16.249L81.6903 16.9953L82.0284 17.3023C82.3135 17.5609 82.6454 17.885 83.1393 18.4818C82.7108 18.6905 82.3197 18.89 81.7993 19.1736C81.1761 17.8414 80.9595 17.5017 80.7835 17.2259L80.6542 17.0234L79.0696 17.483L79.3672 17.857C79.8393 18.4506 80.2117 19.1159 80.57 19.8077C79.7707 20.205 79.2908 20.4263 78.5835 20.6537L78.127 20.8002L79.2394 22.1152L79.4685 21.9906C79.5386 21.9516 79.5947 21.9189 79.6539 21.8846C79.7287 21.841 79.8066 21.7958 79.9265 21.7319L79.9406 21.7241C80.0512 21.6571 80.4049 21.4593 80.7461 21.2676C80.891 21.1866 81.0343 21.1056 81.1574 21.037C82.0159 22.955 82.6142 24.577 83.0287 26.1195L83.1299 26.4934L84.6132 25.7767L84.501 25.4994C83.5444 23.1139 83.1424 22.1246 82.3571 20.3966C82.8074 20.1645 83.3683 19.884 83.9183 19.6176C83.9245 19.627 83.9292 19.6363 83.9355 19.6457C84.1271 19.9682 84.138 19.9884 84.2923 20.4076L84.42 20.7534L85.8129 20.0056L85.6524 19.7204C85.4639 19.387 85.3549 19.2172 85.2707 19.0956C85.4125 19.0551 85.5605 19.0302 85.7335 19.0302C86.3209 19.0302 86.9269 19.3901 86.9269 19.9931C86.9269 20.3655 86.8101 20.6678 86.5795 20.8921C86.2009 21.2598 85.5216 21.4328 84.5587 21.4063L84.0492 21.3923L84.6646 22.7649H84.8718C87.5938 22.7649 88.3199 21.0401 88.3199 20.0211C88.3199 18.7918 87.1949 17.7541 85.8644 17.7541L85.8628 17.7557Z" fill="#15327e"/>
<path d="M108.065 21.0613C107.521 23.0183 107.206 23.3611 107.105 23.4203C106.768 23.3517 105.636 22.1271 105.636 18.8831C105.636 17.766 105.782 16.9885 105.86 16.5709L105.927 16.211L104.029 15.6143L103.992 16.144C103.961 16.5678 103.914 17.2082 103.914 18.1197C103.914 20.0938 104.129 21.5864 104.568 22.6708C104.578 22.6958 105.517 25.2323 107.091 25.2323C108.415 25.2323 109.176 23.0806 109.542 22.0476L109.612 21.8482L108.205 20.5581L108.065 21.0613Z" fill="#15327e"/>
<path d="M113.317 15.8734L113.176 15.7129L111.572 16.2551L111.839 16.6088C112.705 17.7633 113.673 19.2482 114.188 22.2537L114.251 22.6214L116 22.0387L115.943 21.7598C115.748 20.8203 115.154 17.9597 113.317 15.8734Z" fill="#15327e"/>
<path d="M72.6234 17.6791L72.759 17.891L73.926 17.0699L73.8107 16.8782C73.4991 16.3594 73.1111 15.7798 72.3897 15.0584L72.2464 14.915L71.1152 15.7206L71.2882 15.92C71.6465 16.3329 72.0906 16.8471 72.6234 17.6806V17.6791Z" fill="#15327e"/>
<path d="M74.1942 16.505L74.325 16.7372L75.5216 15.888L75.4001 15.6948C75.0199 15.095 74.6943 14.6509 73.9729 13.8843L73.8249 13.7285L72.6875 14.5808L72.8714 14.7771C73.2749 15.2056 73.7906 15.7883 74.1926 16.5035L74.1942 16.505Z" fill="#15327e"/>
<path d="M34.7938 15.7885L34.5866 15.7246L34.0615 16.9726L34.289 17.0646C35.8767 17.7018 36.2085 17.842 37.2618 18.484L37.4893 18.6226L38.1468 17.2453L37.9551 17.1347C37.0406 16.6049 35.978 16.1531 34.7954 15.7916L34.7938 15.7885Z" fill="#15327e"/>
<path d="M98.3378 22.4987C98.3051 22.1248 98.2755 21.7944 98.249 21.5062C98.1758 20.696 98.1274 20.16 98.1274 20.0089C98.1274 19.5804 98.235 19.4324 98.6634 19.0709L98.9532 18.8263L97.6974 17.7637L97.4886 17.9569C96.8919 18.5116 96.4338 19.0055 96.4338 19.8936C96.4338 20.0728 96.493 20.6944 96.5787 21.5529C96.5974 21.7383 96.6146 21.9175 96.6301 22.0733C96.2749 22.0126 95.8667 21.9518 95.4865 21.9518C93.7882 21.9518 92.8721 22.9568 92.8721 23.9025C92.8721 24.9963 93.9736 26.1275 95.8184 26.1275C97.6631 26.1275 98.0558 24.9605 98.235 24.1627C98.8224 24.4338 99.1885 24.6177 99.7478 24.9558L100.08 25.1568L100.689 23.5177L100.435 23.3884C99.9301 23.1297 99.4518 22.8835 98.3393 22.5003L98.3378 22.4987ZM96.6629 23.6299V23.8168C96.6629 24.5367 96.0256 24.5928 95.8293 24.5928C95.1702 24.5928 94.4052 24.3045 94.4052 23.9321C94.4052 23.7389 94.7589 23.46 95.3977 23.46C95.834 23.46 96.2858 23.5504 96.6629 23.6299Z" fill="#15327e"/>
<path d="M96.8456 17.0806L97.073 17.0448L97.3878 15.2016L96.8845 15.3621C96.5916 15.4555 96.2893 15.5521 95.3389 15.7111C95.476 15.334 95.5788 15.024 95.8593 14.1499L95.9419 13.8928L94.2264 13L94.1563 13.4394C93.988 14.4849 93.7107 15.3761 93.5144 15.9728C93.3539 15.9822 93.2137 15.9822 92.9582 15.9822C92.014 15.9822 91.64 15.9027 91.2817 15.8061L90.8594 15.6924L90.9327 17.4234L91.2178 17.4592C91.4499 17.4888 91.799 17.5325 92.4533 17.5325C92.5266 17.5325 92.6964 17.5247 92.9675 17.5107C92.9831 17.5107 92.9987 17.5091 93.0158 17.5075C91.7865 20.6097 90.9467 21.6941 90.3827 22.4233L90.124 22.7567L91.8706 23.4688L92.0093 23.2242C93.1405 21.2438 94.0176 19.1544 94.7281 17.3471C95.4869 17.2598 96.4155 17.1461 96.8424 17.0791L96.8456 17.0806Z" fill="#15327e"/>
<path d="M98.5546 15.7895L98.3473 15.7256L97.8223 16.9736L98.0497 17.0655C99.6686 17.7153 99.9662 17.8415 101.024 18.485L101.252 18.6236L101.909 17.2463L101.717 17.1357C100.803 16.6059 99.7402 16.1541 98.5577 15.7926L98.5546 15.7895Z" fill="#15327e"/>
</svg>
