<svg width="27" height="13" viewBox="0 0 27 13" fill="none" xmlns="http://www.w3.org/2000/svg">
<path d="M17.3147 12.1188H16.1967C16.0667 12.1188 16.0537 12.1058 16.0537 11.9888C16.0537 11.8978 16.0797 11.2998 16.0797 8.19282V5.93082C16.0797 3.72082 16.0537 3.09682 16.0537 3.01882C16.0537 2.88882 16.0667 2.87582 16.1967 2.87582C16.2877 2.87582 16.7167 2.90182 17.9647 2.90182H20.3827V2.21282C20.3827 1.41982 20.3697 0.977821 20.2787 0.34082C20.7727 0.353821 21.2797 0.37982 21.7347 0.43182C21.8517 0.43182 21.9297 0.50982 21.9297 0.587821C21.9297 0.678821 21.8907 0.76982 21.8517 0.89982C21.8127 1.06882 21.7867 1.31582 21.7867 2.19982V2.90182H24.3737C25.6217 2.90182 26.0507 2.87582 26.1417 2.87582C26.2717 2.87582 26.2847 2.88882 26.2847 3.01882C26.2847 3.09682 26.2587 3.72082 26.2587 5.63182V8.16682C26.2587 11.2608 26.2847 11.8588 26.2847 11.9368C26.2847 12.0538 26.2717 12.0668 26.1417 12.0668H25.0107C24.8807 12.0668 24.8677 12.0538 24.8677 11.9368V11.3908H17.4577V11.9888C17.4577 12.1058 17.4447 12.1188 17.3147 12.1188ZM21.7867 10.1298H24.8677V7.68582H21.7867V10.1298ZM17.4577 10.1298H20.3827V7.68582H17.4577V10.1298ZM24.8677 4.16282H21.7867V6.45082H24.8677V4.16282ZM17.4577 4.16282V6.45082H20.3827V4.16282H17.4577Z" fill="#B8B8B8"/>
<path d="M10.9315 11.5988H6.16051C4.87351 11.5988 4.43151 11.6248 4.35351 11.6248C4.22351 11.6248 4.21051 11.6118 4.21051 11.4818V10.5588C4.21051 10.4288 4.22351 10.4158 4.35351 10.4158C4.43151 10.4158 4.87351 10.4418 6.16051 10.4418H8.13651V9.16778H7.33051C6.13451 9.16778 5.73151 9.19378 5.65351 9.19378C5.52351 9.19378 5.51051 9.18078 5.51051 9.05078V8.15378C5.51051 8.02378 5.52351 8.01078 5.65351 8.01078C5.73151 8.01078 6.13451 8.03678 7.33051 8.03678H8.13651V6.91878H7.29151C6.10851 6.91878 5.67951 6.94478 5.60151 6.94478C5.45851 6.94478 5.44551 6.93178 5.44551 6.81478C5.44551 6.73678 5.47151 6.32078 5.47151 5.37178V2.48578C5.47151 1.56278 5.44551 1.15978 5.44551 1.06878C5.44551 0.938781 5.45851 0.925781 5.60151 0.925781C5.67951 0.925781 6.10851 0.951781 7.29151 0.951781H10.3855C11.5815 0.951781 11.9975 0.925781 12.0885 0.925781C12.2185 0.925781 12.2315 0.938781 12.2315 1.06878C12.2315 1.14678 12.2055 1.56278 12.2055 2.48578V5.37178C12.2055 6.32078 12.2315 6.73678 12.2315 6.81478C12.2315 6.93178 12.2185 6.94478 12.0885 6.94478C11.9975 6.94478 11.5815 6.91878 10.3855 6.91878H9.43651V8.03678H10.4245C11.6075 8.03678 12.0235 8.01078 12.1015 8.01078C12.2315 8.01078 12.2445 8.02378 12.2445 8.15378V9.05078C12.2445 9.18078 12.2315 9.19378 12.1015 9.19378C12.0235 9.19378 11.6075 9.16778 10.4245 9.16778H9.43651V10.4418H10.9315C12.2055 10.4418 12.6605 10.4158 12.7255 10.4158C12.8555 10.4158 12.8685 10.4288 12.8685 10.5588V11.4818C12.8685 11.6118 12.8555 11.6248 12.7255 11.6248C12.6605 11.6248 12.2055 11.5988 10.9315 11.5988ZM10.9705 5.82678V4.43578H9.43651V5.82678H10.9705ZM10.9705 2.05678H9.43651V3.36978H10.9705V2.05678ZM6.69351 5.82678H8.13651V4.43578H6.69351V5.82678ZM6.69351 3.36978H8.13651V2.05678H6.69351V3.36978ZM3.78151 5.80078V8.11478C4.23651 7.90678 4.67851 7.69878 5.13351 7.45178C5.12051 7.67278 5.12051 8.01078 5.13351 8.29678C5.14651 8.72578 5.14651 8.72578 4.80851 8.92078C3.95051 9.37578 2.98851 9.79178 2.00051 10.1688C1.79251 10.2598 1.66251 10.3118 1.59751 10.3638C1.51951 10.4288 1.46751 10.4548 1.38951 10.4548C1.32451 10.4548 1.27251 10.4158 1.22051 10.2858C1.10351 9.94778 0.999508 9.53178 0.895508 9.06378C1.28551 8.99878 1.66251 8.89478 2.11751 8.75178L2.49451 8.62178V5.80078C1.67551 5.80078 1.42851 5.82678 1.35051 5.82678C1.22051 5.82678 1.20751 5.81378 1.20751 5.68378V4.74778C1.20751 4.60478 1.22051 4.59178 1.35051 4.59178C1.42851 4.59178 1.67551 4.61778 2.49451 4.61778V2.32978H2.41651C1.54551 2.32978 1.27251 2.35578 1.19451 2.35578C1.07751 2.35578 1.06451 2.34278 1.06451 2.21278V1.26378C1.06451 1.12078 1.07751 1.10778 1.19451 1.10778C1.27251 1.10778 1.54551 1.13378 2.41651 1.13378H3.76851C4.65251 1.13378 4.92551 1.10778 4.99051 1.10778C5.12051 1.10778 5.13351 1.12078 5.13351 1.26378V2.21278C5.13351 2.34278 5.12051 2.35578 4.99051 2.35578C4.92551 2.35578 4.65251 2.32978 3.78151 2.32978V4.61778C4.49651 4.61778 4.74351 4.59178 4.82151 4.59178C4.95151 4.59178 4.95151 4.60478 4.95151 4.74778V5.68378C4.95151 5.81378 4.95151 5.82678 4.82151 5.82678C4.74351 5.82678 4.49651 5.80078 3.78151 5.80078Z" fill="#B8B8B8"/>
</svg>
