<svg width="143" height="14" viewBox="0 0 143 14" fill="none" xmlns="http://www.w3.org/2000/svg">
<g clip-path="url(#clip0_2041_624)">
<path d="M9.6081 13.6651V11.8097L9.27572 11.8154C8.37192 11.8291 8.06686 11.8165 7.64342 11.746C6.53814 11.565 5.97697 11.0994 5.97697 10.3629C5.97697 9.12905 7.0424 8.03629 7.55349 7.51154L7.6013 7.4626C8.84317 6.22073 9.42142 5.95437 9.65363 5.90542L9.72762 5.89063C10.0486 5.82688 10.225 5.7916 10.6087 5.67777L10.8841 5.59581L10.5847 3.73358L10.0463 3.92595C9.33491 4.17978 8.14426 4.6055 6.51196 5.04716C6.36057 5.08472 6.20235 5.1257 6.04413 5.16782C6.93654 4.14677 8.19435 2.85368 8.51079 2.58277C8.95472 2.19803 9.02302 2.13315 9.20742 1.88273L9.35995 1.67442L8.24785 0.36084L8.0441 0.420031C6.0373 1.00283 5.00146 1.14284 2.74197 1.12691L2.22177 1.12349L3.08687 2.94588L3.31338 2.9254C4.4289 2.82636 5.60703 2.6192 6.44822 2.44504C6.40724 2.49057 6.36171 2.54179 6.30821 2.59871C5.3236 3.66414 5.03219 3.98172 4.3128 4.766L3.62186 5.51955C3.30997 5.84509 3.2098 5.93502 2.77953 6.04543C2.11819 6.21048 1.15634 6.43245 0.440354 6.44725L0.000976562 6.45635L0.653214 8.45973L0.969657 8.34591C1.54221 8.13988 1.77215 8.0693 2.05786 7.98279C2.3982 7.87807 3.34753 7.60716 4.3515 7.32145C4.93203 7.1564 5.52166 6.98793 6.03502 6.83996C5.18586 7.7005 4.32532 8.86496 4.32532 10.2434C4.32532 11.9964 5.40897 13.1392 7.37706 13.4614C7.99401 13.5638 8.50055 13.5957 9.20287 13.6378L9.61037 13.6628L9.6081 13.6651Z" fill="white"/>
<path d="M24.8544 9.738L24.9819 9.53425L23.8698 7.85414L23.6137 8.34474C23.1538 9.2235 22.2978 10.8592 21.1538 10.8592C20.9 10.8592 20.6724 10.816 20.6724 10.2889C20.6724 10.2275 20.6769 9.89622 20.7566 9.40107L20.76 9.384C20.9774 8.06245 21.0116 7.8587 21.0116 7.42273C21.0116 6.60089 20.5722 5.64018 19.3326 5.64018C18.5517 5.64018 17.7652 6.00557 17.0002 6.48023C17.6741 4.93217 18.62 3.11091 19.3667 1.80758L19.5329 1.51731L17.7253 0.534973L17.3338 1.52187C17.0469 2.24695 16.8887 2.64535 16.6815 3.11774C16.3116 3.97828 14.899 7.15182 13.8688 9.46823C13.3805 10.5655 12.9684 11.491 12.7727 11.9349L12.6338 12.2491L14.3207 12.8956L14.4448 12.6076C15.5637 10.0112 15.829 9.43294 16.6462 8.61679C16.9388 8.32312 17.9632 7.36582 18.8352 7.36582C19.1414 7.36582 19.3019 7.56388 19.3019 7.75853C19.2996 7.85642 19.2062 8.39824 19.1584 8.63501C19.0401 9.38969 18.9774 10.0453 18.9774 10.3026C18.9774 11.6833 19.7674 12.5405 21.0389 12.5405C21.6365 12.5405 22.2375 12.3413 22.8795 11.9281C23.9119 11.2496 24.415 10.446 24.8578 9.73687L24.8544 9.738Z" fill="white"/>
<path d="M28.7956 10.4221C29.9487 8.40396 30.8422 6.27309 31.5662 4.43248C32.3391 4.34369 33.2861 4.22645 33.7221 4.15929L33.9543 4.12287L34.2753 2.24356L33.7631 2.40747C33.4637 2.50309 33.1564 2.60098 32.1877 2.76376C32.3266 2.38015 32.4324 2.06257 32.7193 1.17243L32.8035 0.909489L31.0551 0L30.9834 0.447346C30.8126 1.51278 30.5292 2.42227 30.3289 3.02898C30.1661 3.03922 30.0227 3.03922 29.762 3.03922C28.8002 3.03922 28.4188 2.95726 28.0534 2.85937L27.6232 2.74327L27.6972 4.50875L27.9874 4.54517C28.2231 4.57477 28.5793 4.61916 29.2464 4.61916C29.3204 4.61916 29.4934 4.61119 29.77 4.59753C29.7859 4.59753 29.8019 4.59639 29.8189 4.59526C28.5657 7.75741 27.7108 8.86268 27.136 9.60485L26.873 9.94519L28.6533 10.6714L28.7956 10.4233V10.4221Z" fill="white"/>
<path d="M36.6774 12.1862L37.0154 12.3899L37.6358 10.7189L37.3774 10.5869C36.8629 10.3228 36.3746 10.0724 35.242 9.68196C35.2078 9.30063 35.1782 8.96484 35.1509 8.67002C35.0758 7.84363 35.0269 7.29839 35.0269 7.14358C35.0269 6.70648 35.1361 6.55509 35.5721 6.18742L35.868 5.93814L34.5875 4.85449L34.3758 5.05142C33.7668 5.616 33.3012 6.12026 33.3012 7.02634C33.3012 7.2096 33.3627 7.84363 33.4481 8.71783C33.4663 8.90678 33.4845 9.09005 33.4993 9.24827C33.1373 9.1868 32.7218 9.1242 32.3337 9.1242C30.6035 9.1242 29.6689 10.1487 29.6689 11.1116C29.6689 12.226 30.7924 13.3791 32.6717 13.3791C34.551 13.3791 34.9529 12.1885 35.135 11.3769C35.7337 11.6535 36.1071 11.8401 36.6774 12.185V12.1862ZM33.5346 11.024C33.5346 11.757 32.8846 11.814 32.6854 11.814C32.0138 11.814 31.233 11.5203 31.233 11.1412C31.233 10.9443 31.5926 10.6597 32.2437 10.6597C32.6877 10.6597 33.1498 10.7519 33.5334 10.8328V11.024H33.5346Z" fill="white"/>
<path d="M51.5271 9.25967C51.5271 8.24205 51.1538 7.38606 50.7394 6.74065L49.2471 7.73323C49.493 8.16692 49.6831 8.6837 49.6831 9.27561C49.6831 10.6985 48.5027 11.7719 46.9376 11.7719C45.3724 11.7719 44.7509 10.6803 44.7509 9.65807C44.7509 9.35756 44.7851 8.96372 44.826 8.6302C45.361 8.62337 46.3775 8.58239 47.6968 8.3627L47.9313 8.324L48.2363 6.30924L47.7378 6.46405C47.2688 6.60975 46.4299 6.87041 45.0321 6.93643C45.0366 6.91139 45.04 6.88749 45.0446 6.86244C45.1152 6.42534 45.1892 5.97572 45.3474 5.10266C45.8403 5.07306 46.4322 5.01387 47.8072 4.75889L48.0542 4.71336L48.1999 2.81812L47.7287 2.98203C47.1959 3.16757 46.6359 3.34059 45.7093 3.43052C45.8972 2.47322 46.0827 1.69691 46.332 1.07427L46.4652 0.741888L44.1647 0.0566406L44.1727 0.502848C44.1863 1.23363 44.0896 1.85058 43.8562 3.34173L43.8414 3.43735C43.3565 3.3884 42.6963 3.28823 41.6445 2.95016L41.2302 2.81698L41.1824 4.5062L41.3907 4.5927C41.9826 4.83857 42.5256 4.99566 43.5546 5.089C43.4795 5.59098 43.3542 6.36501 43.2689 6.88863C42.6565 6.84309 42.068 6.72471 41.5512 6.54031L41.1152 6.3855V8.27619L41.4613 8.34791C41.8255 8.42417 42.2319 8.5084 43.0332 8.57556C43.0105 8.87152 42.982 9.26081 42.982 9.62734C42.982 9.93581 43.0321 11.016 43.6843 11.9859C44.5289 13.2368 46.0497 13.4235 46.8806 13.4235C49.4441 13.4235 51.5294 11.5556 51.5294 9.25967H51.5271Z" fill="white"/>
<path d="M65.3526 9.73819L65.4801 9.53443L64.368 7.85433L64.1119 8.34493C63.652 9.22368 62.796 10.8594 61.6521 10.8594C61.3982 10.8594 61.1706 10.8161 61.1706 10.2891C61.1706 10.2276 61.1751 9.89641 61.2548 9.40125L61.2582 9.38418C61.4756 8.06263 61.5098 7.85888 61.5098 7.42292C61.5098 6.60107 61.0704 5.64036 59.8308 5.64036C59.0499 5.64036 58.2634 6.00575 57.4973 6.48042C58.1712 4.93235 59.1171 3.11109 59.8638 1.80776L60.03 1.5175L58.2224 0.535156L57.8308 1.52205C57.544 2.24714 57.3858 2.64554 57.1786 3.11792C56.8087 3.97847 55.3972 7.152 54.3659 9.46841C53.8776 10.5657 53.4655 11.4911 53.2697 11.9351L53.1309 12.2492L54.8178 12.8958L54.9419 12.6078C56.0608 10.0114 56.326 9.43313 57.1433 8.61698C57.437 8.3233 58.4614 7.36714 59.3311 7.36714C59.6373 7.36714 59.7978 7.5652 59.7978 7.75985C59.7955 7.85774 59.7022 8.39957 59.6544 8.63633C59.536 9.39101 59.4734 10.0467 59.4734 10.3039C59.4734 11.6847 60.2634 12.5418 61.5348 12.5418C62.1324 12.5418 62.7334 12.3426 63.3754 11.9294C64.4078 11.251 64.911 10.4473 65.3538 9.73819H65.3526Z" fill="white"/>
<path d="M37.978 5.58891L38.2102 5.73005L38.8795 4.32541L38.6837 4.21158C37.7526 3.67204 36.669 3.21103 35.4635 2.84223L35.2518 2.77734L34.7168 4.04881L34.9479 4.14215C36.5665 4.79211 36.9046 4.93553 37.9791 5.58891H37.978Z" fill="white"/>
<path d="M75.591 7.52176C73.8448 11.1882 71.9257 11.5843 71.1813 11.5843C71.0208 11.5843 70.2001 11.5433 69.8608 10.7306C69.7994 10.5963 69.6708 10.3185 69.6708 8.55988C69.6708 7.86325 69.6867 4.24578 70.0065 1.42284L70.0407 1.12233L67.9053 0.713684L67.977 1.17241C68.076 1.80871 68.076 2.54518 68.076 3.19514C68.076 3.49224 68.0624 4.3414 68.0476 5.2395C68.0328 6.17631 68.0168 7.14499 68.0168 7.50241C68.0168 9.88712 68.0567 10.4335 68.2798 11.1529C68.586 12.191 69.6013 13.2394 71.1801 13.2394C73.3201 13.2394 75.3007 11.7459 77.0662 8.80006L77.2221 8.53939L75.7879 7.10629L75.5887 7.52404L75.591 7.52176Z" fill="white"/>
<path d="M87.5647 4.85136C87.0252 4.85136 86.5232 4.97088 86.1908 5.06536C85.7583 4.48939 85.4009 4.01928 84.9239 3.50136L84.7532 3.31696L83.3098 4.07733L83.6547 4.39036C83.945 4.65444 84.2831 4.98454 84.7862 5.59239C84.3502 5.80525 83.9518 6.00786 83.4203 6.29698C82.784 4.93901 82.5643 4.59297 82.3856 4.31182L82.2535 4.10579L80.6383 4.57476L80.9422 4.95609C81.4237 5.56051 81.8027 6.24007 82.1681 6.94467C81.3531 7.3499 80.8637 7.57528 80.1431 7.80749L79.6787 7.9566L80.8124 9.2975L81.0458 9.17001C81.1175 9.13131 81.1756 9.09717 81.2359 9.06302C81.311 9.01862 81.3918 8.97309 81.5136 8.90707L81.5273 8.8991C81.64 8.83081 82.0008 8.62933 82.3491 8.43354C82.4971 8.35045 82.6428 8.26849 82.768 8.19792C83.6434 10.1524 84.2523 11.8063 84.6758 13.3783L84.7782 13.7596L86.2899 13.0288L86.176 12.7454C85.2005 10.3151 84.7907 9.30547 83.9905 7.54454C84.4493 7.30778 85.0207 7.02207 85.5819 6.75002C85.5875 6.76027 85.5932 6.76937 85.5989 6.77848C85.7936 7.10744 85.805 7.12793 85.962 7.55479L86.0918 7.90766L87.5112 7.14501L87.3473 6.85474C87.155 6.5144 87.0446 6.34138 86.958 6.21844C87.1026 6.17747 87.254 6.15128 87.4304 6.15128C88.028 6.15128 88.6473 6.51895 88.6473 7.13249C88.6473 7.51267 88.5277 7.82115 88.2932 8.0488C87.9085 8.4233 87.2153 8.59973 86.233 8.57355L85.7128 8.55876L86.34 9.95771H86.5517C89.3257 9.95771 90.0656 8.2002 90.0656 7.16208C90.0656 5.90883 88.9193 4.85023 87.5636 4.85023L87.5647 4.85136Z" fill="white"/>
<path d="M74.07 4.77249L74.2078 4.98877L75.3973 4.15213L75.28 3.95634C74.9625 3.42704 74.5675 2.83627 73.8321 2.10094L73.6853 1.9541L72.5322 2.7748L72.7087 2.97856C73.0729 3.39972 73.5271 3.92333 74.0689 4.77249H74.07Z" fill="white"/>
<path d="M75.6721 3.57764L75.8053 3.8144L77.0255 2.94931L76.9015 2.75238C76.5144 2.14112 76.1821 1.68809 75.4467 0.907224L75.2965 0.747864L74.1377 1.61751L74.3255 1.81671C74.7364 2.25268 75.2623 2.84686 75.6721 3.5765V3.57764Z" fill="white"/>
<path d="M99.9392 9.68568C99.9051 9.30435 99.8755 8.96856 99.8482 8.67374C99.7731 7.84735 99.7241 7.30211 99.7241 7.14731C99.7241 6.7102 99.8334 6.55881 100.269 6.19115L100.565 5.94186L99.2847 4.85822L99.073 5.05514C98.464 5.61973 97.9985 6.12399 97.9985 7.03006C97.9985 7.21333 98.0599 7.84735 98.1453 8.72155C98.1635 8.91051 98.1817 9.09377 98.1965 9.25199C97.8346 9.19053 97.4191 9.12792 97.0309 9.12792C95.3007 9.12792 94.3662 10.1524 94.3662 11.1154C94.3662 12.2297 95.4897 13.3828 97.369 13.3828C99.2483 13.3828 99.6501 12.1922 99.8322 11.3806C100.431 11.6572 100.804 11.8439 101.375 12.1888L101.713 12.3925L102.333 10.7215L102.075 10.5895C101.56 10.3254 101.072 10.075 99.9392 9.68454V9.68568ZM98.2318 11.0289C98.2318 11.7619 97.5819 11.8188 97.3827 11.8188C96.7111 11.8188 95.9302 11.5251 95.9302 11.1461C95.9302 10.9492 96.2899 10.6646 96.941 10.6646C97.3849 10.6646 97.8471 10.7568 98.2307 10.8376V11.0289H98.2318Z" fill="white"/>
<path d="M98.4186 4.16273L98.6508 4.12631L98.9718 2.247L98.4595 2.41091C98.1602 2.50653 97.8528 2.60442 96.8841 2.76719C97.0242 2.38359 97.1289 2.06601 97.4157 1.17587L97.5 0.912929L95.7504 0.00457764L95.6787 0.451924C95.508 1.51736 95.2245 2.42685 95.0242 3.03355C94.8614 3.0438 94.718 3.0438 94.4573 3.0438C93.4955 3.0438 93.1141 2.96184 92.7488 2.86395L92.3185 2.74784L92.3925 4.51332L92.6827 4.54975C92.9184 4.57934 93.2746 4.62374 93.9417 4.62374C94.0157 4.62374 94.1887 4.61577 94.4653 4.60211C94.4812 4.60211 94.4972 4.60097 94.5142 4.59983C93.261 7.76199 92.4061 8.86726 91.8313 9.60942L91.5684 9.94977L93.3486 10.676L93.4909 10.4279C94.644 8.40967 95.5376 6.2788 96.2615 4.4382C97.0344 4.34941 97.9815 4.23217 98.4174 4.16501L98.4186 4.16273Z" fill="white"/>
<path d="M100.16 2.84686L99.9481 2.78198L99.4131 4.05345L99.6442 4.14679C101.294 4.80927 101.599 4.93789 102.675 5.59355L102.908 5.73469L103.577 4.33005L103.381 4.21622C102.45 3.67667 101.366 3.21567 100.16 2.84686Z" fill="white"/>
<path d="M114.634 2.49623L113.221 3.27141L113.446 3.52411C113.801 3.92364 114.165 4.34822 114.698 5.12567C115.074 5.66636 115.182 5.9441 115.182 6.36185C115.182 6.39486 115.182 6.45746 115.174 6.47226C115.174 6.47226 115.134 6.50527 114.979 6.50527C114.911 6.50527 114.455 6.47568 114.387 6.46429L113.876 6.37892L114.706 8.11936L114.8 8.30945L115.007 8.26734C116.01 8.06017 116.877 7.8826 116.877 6.59747C116.877 5.31235 116.079 4.30724 114.777 2.67153L114.636 2.49396L114.634 2.49623Z" fill="white"/>
<path d="M112.687 4.14882C112.258 3.76978 111.74 3.57854 111.147 3.57854C110.852 3.57854 110.586 3.62066 110.172 3.714C110.332 2.86712 110.463 2.33781 110.618 1.8973L110.7 1.66395L108.852 0.826172L108.822 1.20977C108.735 2.2957 108.661 3.05721 108.403 4.2433C107.763 4.43226 107.023 4.60528 105.292 4.77943L104.907 4.81814L105.668 6.38669L105.871 6.34913C106.643 6.2057 107.172 6.08277 107.96 5.86081C106.825 9.41567 105.731 10.6803 104.997 11.5283L104.771 11.7879L106.419 12.6325L106.552 12.4287C108.511 9.42136 109.235 7.27114 109.784 5.33947C110.415 5.15962 110.658 5.12547 110.911 5.12547C111.342 5.12547 111.913 5.27573 111.913 6.57109C111.913 7.75946 111.635 9.05939 111.17 10.0508C110.836 10.7588 110.523 10.9011 110.127 10.9011C109.88 10.9011 109.657 10.8658 109.064 10.7725L108.401 10.6678L109.106 12.4515L109.262 12.4731C109.695 12.5346 109.855 12.5346 110.025 12.5346C111.119 12.5346 111.887 12.1168 112.375 11.2586C112.952 10.2443 113.535 8.40601 113.535 6.58362C113.535 6.18522 113.474 4.83407 112.689 4.14769L112.687 4.14882Z" fill="white"/>
<path d="M125.394 5.5459C124.378 5.5459 123.48 5.77469 122.1 6.14691C119.853 6.74451 119.598 6.80598 118.689 6.97103L118.312 7.03933L119.197 8.5817L119.415 8.49292C122.662 7.17706 124.711 6.82647 125.409 6.82647C126.977 6.82647 127.298 8.4804 127.298 8.92319C127.298 9.06547 127.265 10.3312 126.121 11.062C124.934 11.8213 123.232 11.9192 122.216 11.9783L121.743 12.0057L122.47 13.457L122.656 13.4376C123.203 13.3796 123.575 13.3227 124.133 13.2111C124.877 13.0574 125.841 12.8173 126.699 12.3221C128.076 11.5162 128.564 9.93968 128.564 8.8344C128.564 6.77638 126.952 5.54704 125.394 5.54704V5.5459Z" fill="white"/>
<path d="M139.41 11.3293C138.147 11.3293 137.506 11.0573 137.506 10.52C137.506 10.1705 137.572 9.98614 137.647 9.81313L137.753 9.56612L136.354 8.95941L136.257 9.23146C135.974 10.0294 135.931 10.5576 135.931 10.8012C135.931 12.1102 137.183 12.8615 139.366 12.8615C140.319 12.8615 141.241 12.7727 142.183 12.5905L142.374 12.553L142.6 10.7989L142.206 10.9116C141.234 11.1893 140.294 11.3305 139.41 11.3305V11.3293Z" fill="white"/>
<path d="M138.722 4.24923L138.897 4.18321V2.48831L138.527 2.63628C138.043 2.82979 137.489 3.03582 136.505 3.25551L136.588 2.95273C136.806 2.16276 136.887 1.8668 137.04 1.25099L137.097 1.02447L135.296 0.286865L135.281 0.671605C135.241 1.6437 134.948 2.81158 134.759 3.52984C134.261 3.59472 133.775 3.65163 133.169 3.65163C132.624 3.65163 132.426 3.62545 132.163 3.58106L131.811 3.52187L131.994 5.18946L132.229 5.19629C133.028 5.22133 133.633 5.19629 134.312 5.14962C134.014 6.06366 133.63 7.18146 132.981 8.6487C132.225 10.3607 131.701 11.1188 131.193 11.8518L130.935 12.2252L132.702 12.6612L132.806 12.4972C133.303 11.7118 133.686 11.0573 134.455 9.18484C135.179 7.40456 135.64 5.98739 135.979 4.92993C136.61 4.82521 137.719 4.62601 138.723 4.24696L138.722 4.24923Z" fill="white"/>
<path d="M140.284 5.26459C139.617 5.26459 138.488 5.36134 137.9 5.42964L137.668 5.45696L137.621 7.0756L138.006 6.98681C138.36 6.90486 138.761 6.81152 139.853 6.81152C140.819 6.81152 141.292 6.8764 142.224 7.07218L142.536 7.13707L142.603 5.56282L142.389 5.50932C141.73 5.34427 141.042 5.26459 140.282 5.26459H140.284Z" fill="white"/>
</g>
<defs>
<clipPath id="clip0_2041_624">
<rect width="142.604" height="13.7584" fill="white"/>
</clipPath>
</defs>
</svg>
