<svg width="157" height="13" viewBox="0 0 157 13" fill="none" xmlns="http://www.w3.org/2000/svg">
<path d="M147.315 12.1188H146.197C146.067 12.1188 146.054 12.1058 146.054 11.9888C146.054 11.8978 146.08 11.2998 146.08 8.19282V5.93082C146.08 3.72082 146.054 3.09682 146.054 3.01882C146.054 2.88882 146.067 2.87582 146.197 2.87582C146.288 2.87582 146.717 2.90182 147.965 2.90182H150.383V2.21282C150.383 1.41982 150.37 0.977821 150.279 0.34082C150.773 0.353821 151.28 0.37982 151.735 0.43182C151.852 0.43182 151.93 0.50982 151.93 0.587821C151.93 0.678821 151.891 0.76982 151.852 0.89982C151.813 1.06882 151.787 1.31582 151.787 2.19982V2.90182H154.374C155.622 2.90182 156.051 2.87582 156.142 2.87582C156.272 2.87582 156.285 2.88882 156.285 3.01882C156.285 3.09682 156.259 3.72082 156.259 5.63182V8.16682C156.259 11.2608 156.285 11.8588 156.285 11.9368C156.285 12.0538 156.272 12.0668 156.142 12.0668H155.011C154.881 12.0668 154.868 12.0538 154.868 11.9368V11.3908H147.458V11.9888C147.458 12.1058 147.445 12.1188 147.315 12.1188ZM151.787 10.1298H154.868V7.68582H151.787V10.1298ZM147.458 10.1298H150.383V7.68582H147.458V10.1298ZM154.868 4.16282H151.787V6.45082H154.868V4.16282ZM147.458 4.16282V6.45082H150.383V4.16282H147.458Z" fill="#B8B8B8"/>
<path d="M140.932 11.5988H136.161C134.874 11.5988 134.432 11.6248 134.354 11.6248C134.224 11.6248 134.211 11.6118 134.211 11.4818V10.5588C134.211 10.4288 134.224 10.4158 134.354 10.4158C134.432 10.4158 134.874 10.4418 136.161 10.4418H138.137V9.16778H137.331C136.135 9.16778 135.732 9.19378 135.654 9.19378C135.524 9.19378 135.511 9.18078 135.511 9.05078V8.15378C135.511 8.02378 135.524 8.01078 135.654 8.01078C135.732 8.01078 136.135 8.03678 137.331 8.03678H138.137V6.91878H137.292C136.109 6.91878 135.68 6.94478 135.602 6.94478C135.459 6.94478 135.446 6.93178 135.446 6.81478C135.446 6.73678 135.472 6.32078 135.472 5.37178V2.48578C135.472 1.56278 135.446 1.15978 135.446 1.06878C135.446 0.938781 135.459 0.925781 135.602 0.925781C135.68 0.925781 136.109 0.951781 137.292 0.951781H140.386C141.582 0.951781 141.998 0.925781 142.089 0.925781C142.219 0.925781 142.232 0.938781 142.232 1.06878C142.232 1.14678 142.206 1.56278 142.206 2.48578V5.37178C142.206 6.32078 142.232 6.73678 142.232 6.81478C142.232 6.93178 142.219 6.94478 142.089 6.94478C141.998 6.94478 141.582 6.91878 140.386 6.91878H139.437V8.03678H140.425C141.608 8.03678 142.024 8.01078 142.102 8.01078C142.232 8.01078 142.245 8.02378 142.245 8.15378V9.05078C142.245 9.18078 142.232 9.19378 142.102 9.19378C142.024 9.19378 141.608 9.16778 140.425 9.16778H139.437V10.4418H140.932C142.206 10.4418 142.661 10.4158 142.726 10.4158C142.856 10.4158 142.869 10.4288 142.869 10.5588V11.4818C142.869 11.6118 142.856 11.6248 142.726 11.6248C142.661 11.6248 142.206 11.5988 140.932 11.5988ZM140.971 5.82678V4.43578H139.437V5.82678H140.971ZM140.971 2.05678H139.437V3.36978H140.971V2.05678ZM136.694 5.82678H138.137V4.43578H136.694V5.82678ZM136.694 3.36978H138.137V2.05678H136.694V3.36978ZM133.782 5.80078V8.11478C134.237 7.90678 134.679 7.69878 135.134 7.45178C135.121 7.67278 135.121 8.01078 135.134 8.29678C135.147 8.72578 135.147 8.72578 134.809 8.92078C133.951 9.37578 132.989 9.79178 132.001 10.1688C131.793 10.2598 131.663 10.3118 131.598 10.3638C131.52 10.4288 131.468 10.4548 131.39 10.4548C131.325 10.4548 131.273 10.4158 131.221 10.2858C131.104 9.94778 131 9.53178 130.896 9.06378C131.286 8.99878 131.663 8.89478 132.118 8.75178L132.495 8.62178V5.80078C131.676 5.80078 131.429 5.82678 131.351 5.82678C131.221 5.82678 131.208 5.81378 131.208 5.68378V4.74778C131.208 4.60478 131.221 4.59178 131.351 4.59178C131.429 4.59178 131.676 4.61778 132.495 4.61778V2.32978H132.417C131.546 2.32978 131.273 2.35578 131.195 2.35578C131.078 2.35578 131.065 2.34278 131.065 2.21278V1.26378C131.065 1.12078 131.078 1.10778 131.195 1.10778C131.273 1.10778 131.546 1.13378 132.417 1.13378H133.769C134.653 1.13378 134.926 1.10778 134.991 1.10778C135.121 1.10778 135.134 1.12078 135.134 1.26378V2.21278C135.134 2.34278 135.121 2.35578 134.991 2.35578C134.926 2.35578 134.653 2.32978 133.782 2.32978V4.61778C134.497 4.61778 134.744 4.59178 134.822 4.59178C134.952 4.59178 134.952 4.60478 134.952 4.74778V5.68378C134.952 5.81378 134.952 5.82678 134.822 5.82678C134.744 5.82678 134.497 5.80078 133.782 5.80078Z" fill="#B8B8B8"/>
<g clip-path="url(#clip0_2311_1359)">
<path d="M9.05229 12.0161V10.3846L8.76002 10.3896C7.96528 10.4016 7.69704 10.3906 7.32469 10.3285C6.3528 10.1694 5.85934 9.75997 5.85934 9.11238C5.85934 8.02737 6.79621 7.06649 7.24562 6.60506L7.28766 6.56202C8.37967 5.47002 8.88813 5.2358 9.09232 5.19276L9.15738 5.17975C9.43964 5.1237 9.59479 5.09267 9.9321 4.99257L10.1743 4.92051L9.91108 3.283L9.43764 3.45215C8.81207 3.67536 7.7651 4.0497 6.32977 4.43806C6.19665 4.47109 6.05752 4.50713 5.9184 4.54416C6.70312 3.64633 7.80914 2.50928 8.0874 2.27106C8.47776 1.93275 8.53781 1.8757 8.69996 1.6555L8.83409 1.47233L7.85618 0.317261L7.67702 0.369309C5.91239 0.881782 5.00155 1.0049 3.01472 0.990882L2.55729 0.987879L3.318 2.59036L3.51718 2.57234C4.49808 2.48526 5.53404 2.30309 6.27372 2.14995C6.23769 2.18999 6.19765 2.23503 6.15061 2.28508C5.28481 3.22194 5.02857 3.5012 4.39599 4.19083L3.78843 4.85345C3.51418 5.13971 3.4261 5.21878 3.04775 5.31587C2.46621 5.46101 1.62043 5.65619 0.990849 5.6692L0.604492 5.67721L1.17802 7.43883L1.45628 7.33874C1.95974 7.15757 2.16193 7.09551 2.41316 7.01944C2.71244 6.92736 3.54721 6.68914 4.43002 6.43791C4.94049 6.29277 5.45897 6.14464 5.91039 6.01452C5.1637 6.77122 4.407 7.79516 4.407 9.00728C4.407 10.5487 5.35988 11.5536 7.09048 11.8369C7.63298 11.927 8.07839 11.955 8.69596 11.992L9.05429 12.0141L9.05229 12.0161Z" fill="#B8B8B8"/>
<path d="M22.4588 8.56293L22.5709 8.38376L21.593 6.9064L21.3678 7.3378C20.9634 8.11051 20.2107 9.54884 19.2048 9.54884C18.9816 9.54884 18.7814 9.5108 18.7814 9.04737C18.7814 8.99332 18.7854 8.70205 18.8555 8.26665L18.8585 8.25164C19.0497 7.08957 19.0797 6.9104 19.0797 6.52705C19.0797 5.80438 18.6933 4.9596 17.6033 4.9596C16.9167 4.9596 16.2251 5.2809 15.5524 5.69828C16.145 4.33703 16.9767 2.73555 17.6334 1.58949L17.7795 1.33426L16.19 0.470459L15.8457 1.33826C15.5935 1.97585 15.4543 2.32617 15.2722 2.74155C14.9469 3.49825 13.7047 6.28883 12.7989 8.32571C12.3695 9.2906 12.0072 10.1043 11.835 10.4947L11.7129 10.771L13.1963 11.3395L13.3054 11.0863C14.2893 8.80315 14.5225 8.29468 15.2411 7.57702C15.4984 7.31878 16.3992 6.477 17.1659 6.477C17.4352 6.477 17.5763 6.65116 17.5763 6.82232C17.5743 6.9084 17.4922 7.38484 17.4502 7.59303C17.3461 8.25664 17.291 8.83318 17.291 9.05938C17.291 10.2735 17.9857 11.0272 19.1037 11.0272C19.6292 11.0272 20.1577 10.852 20.7222 10.4887C21.63 9.89215 22.0724 9.1855 22.4618 8.56192L22.4588 8.56293Z" fill="#B8B8B8"/>
<path d="M25.924 9.16446C26.9379 7.38982 27.7236 5.51609 28.3602 3.8976C29.0398 3.81952 29.8726 3.71643 30.256 3.65738L30.4601 3.62535L30.7424 1.97282L30.292 2.11695C30.0287 2.20103 29.7585 2.28711 28.9067 2.43024C29.0288 2.09293 29.1219 1.81367 29.3741 1.03095L29.4482 0.799738L27.9108 0L27.8477 0.393363C27.6976 1.33023 27.4484 2.12997 27.2722 2.66346C27.1291 2.67247 27.003 2.67247 26.7737 2.67247C25.928 2.67247 25.5927 2.6004 25.2714 2.51432L24.893 2.41223L24.9581 3.96466L25.2133 3.99669C25.4205 4.02271 25.7338 4.06175 26.3203 4.06175C26.3854 4.06175 26.5375 4.05474 26.7807 4.04273C26.7948 4.04273 26.8088 4.04173 26.8238 4.04073C25.7218 6.82129 24.9701 7.79319 24.4646 8.44579L24.2334 8.74507L25.7988 9.38366L25.924 9.16546V9.16446Z" fill="#B8B8B8"/>
<path d="M32.8551 10.7156L33.1523 10.8948L33.6978 9.42543L33.4706 9.30933C33.0182 9.07711 32.5888 8.85691 31.5929 8.51359C31.5629 8.17828 31.5369 7.88301 31.5128 7.62377C31.4468 6.8971 31.4037 6.41766 31.4037 6.28153C31.4037 5.89718 31.4998 5.76406 31.8832 5.44076L32.1434 5.22156L31.0174 4.26868L30.8312 4.44184C30.2957 4.93829 29.8863 5.3817 29.8863 6.17844C29.8863 6.33959 29.9404 6.8971 30.0155 7.66581C30.0315 7.83196 30.0475 7.99311 30.0605 8.13224C29.7422 8.07819 29.3769 8.02314 29.0355 8.02314C27.5141 8.02314 26.6924 8.92397 26.6924 9.77075C26.6924 10.7507 27.6803 11.7646 29.3328 11.7646C30.9853 11.7646 31.3387 10.7176 31.4988 10.004C32.0253 10.2472 32.3536 10.4113 32.8551 10.7146V10.7156ZM30.0915 9.69368C30.0915 10.3383 29.52 10.3883 29.3448 10.3883C28.7543 10.3883 28.0677 10.1301 28.0677 9.79678C28.0677 9.62362 28.3839 9.37339 28.9565 9.37339C29.3468 9.37339 29.7532 9.45446 30.0905 9.52553V9.69368H30.0915Z" fill="#B8B8B8"/>
<path d="M45.9123 8.14227C45.9123 7.24745 45.584 6.49475 45.2196 5.92723L43.9074 6.80003C44.1236 7.18139 44.2908 7.6358 44.2908 8.15628C44.2908 9.40744 43.2528 10.3513 41.8766 10.3513C40.5003 10.3513 39.9538 9.39142 39.9538 8.49259C39.9538 8.22835 39.9838 7.88203 40.0198 7.58876C40.4903 7.58276 41.3841 7.54672 42.5442 7.35354L42.7504 7.31951L43.0186 5.54788L42.5802 5.684C42.1678 5.81212 41.4301 6.04133 40.201 6.09939C40.205 6.07737 40.208 6.05635 40.212 6.03433C40.2741 5.64997 40.3391 5.25461 40.4783 4.4869C40.9117 4.46088 41.4321 4.40883 42.6413 4.18462L42.8585 4.14458L42.9866 2.47805L42.5722 2.62218C42.1038 2.78533 41.6113 2.93747 40.7966 3.01654C40.9617 2.17477 41.1249 1.49214 41.3441 0.94463L41.4612 0.652361L39.4383 0.0498047L39.4453 0.442167C39.4573 1.08476 39.3722 1.62726 39.1671 2.93847L39.154 3.02255C38.7277 2.97951 38.1471 2.89143 37.2223 2.59415L36.8579 2.47704L36.8159 3.96241L36.9991 4.03849C37.5195 4.25468 37.997 4.39281 38.9018 4.47489C38.8358 4.9163 38.7257 5.59692 38.6506 6.05735C38.1121 6.01731 37.5946 5.91322 37.1402 5.75107L36.7568 5.61494V7.27747L37.0611 7.34053C37.3814 7.40759 37.7387 7.48166 38.4434 7.54072C38.4234 7.80096 38.3983 8.14327 38.3983 8.46557C38.3983 8.73682 38.4424 9.6867 39.0159 10.5395C39.7586 11.6395 41.0958 11.8037 41.8265 11.8037C44.0806 11.8037 45.9143 10.1611 45.9143 8.14227H45.9123Z" fill="#B8B8B8"/>
<path d="M58.0702 8.56305L58.1823 8.38388L57.2044 6.90652L56.9791 7.33792C56.5748 8.11063 55.8221 9.54896 54.8162 9.54896C54.5929 9.54896 54.3928 9.51092 54.3928 9.04749C54.3928 8.99345 54.3968 8.70218 54.4668 8.26677L54.4698 8.25176C54.661 7.08969 54.691 6.91052 54.691 6.52717C54.691 5.8045 54.3047 4.95972 53.2147 4.95972C52.528 4.95972 51.8364 5.28102 51.1628 5.6984C51.7553 4.33715 52.5871 2.73567 53.2437 1.58961L53.3898 1.33438L51.8004 0.470581L51.4561 1.33838C51.2038 1.97597 51.0647 2.32629 50.8825 2.74168C50.5572 3.49837 49.3161 6.28895 48.4092 8.32583C47.9798 9.29072 47.6175 10.1045 47.4454 10.4948L47.3232 10.7711L48.8066 11.3396L48.9157 11.0864C49.8996 8.80327 50.1328 8.2948 50.8515 7.57714C51.1097 7.3189 52.0106 6.47812 52.7753 6.47812C53.0445 6.47812 53.1857 6.65228 53.1857 6.82344C53.1837 6.90952 53.1016 7.38596 53.0595 7.59415C52.9554 8.25777 52.9004 8.8343 52.9004 9.06051C52.9004 10.2746 53.595 11.0283 54.7131 11.0283C55.2385 11.0283 55.767 10.8532 56.3316 10.4898C57.2394 9.89328 57.6818 9.18662 58.0712 8.56305H58.0702Z" fill="#B8B8B8"/>
<path d="M33.9985 4.91442L34.2027 5.03853L34.7912 3.80339L34.6191 3.7033C33.8003 3.22886 32.8474 2.82349 31.7875 2.49919L31.6013 2.44214L31.1309 3.56017L31.334 3.64225C32.7574 4.21377 33.0546 4.33989 33.9995 4.91442H33.9985Z" fill="#B8B8B8"/>
<path d="M67.0727 6.61409C65.5373 9.83806 63.8497 10.1864 63.1951 10.1864C63.054 10.1864 62.3323 10.1504 62.034 9.43569C61.98 9.31758 61.8669 9.07336 61.8669 7.52693C61.8669 6.91436 61.8809 3.73343 62.1622 1.25114L62.1922 0.986895L60.3145 0.627563L60.3775 1.03094C60.4646 1.59045 60.4646 2.23805 60.4646 2.80958C60.4646 3.07082 60.4526 3.81751 60.4396 4.60724C60.4266 5.431 60.4125 6.28278 60.4125 6.59707C60.4125 8.69401 60.4476 9.17445 60.6438 9.80703C60.913 10.7199 61.8058 11.6417 63.1941 11.6417C65.0758 11.6417 66.8175 10.3285 68.3699 7.73812L68.507 7.50891L67.2458 6.24875L67.0707 6.61609L67.0727 6.61409Z" fill="#B8B8B8"/>
<path d="M77.6014 4.26599C77.127 4.26599 76.6855 4.37109 76.3933 4.45417C76.0129 3.9477 75.6986 3.53432 75.2792 3.0789L75.1291 2.91675L73.8599 3.58537L74.1632 3.86062C74.4185 4.09283 74.7157 4.3831 75.1581 4.91759C74.7748 5.10477 74.4245 5.28293 73.957 5.53717C73.3975 4.34306 73.2043 4.03878 73.0472 3.79156L72.9311 3.61039L71.5108 4.02277L71.778 4.35808C72.2014 4.88957 72.5347 5.48712 72.856 6.10669C72.1394 6.46302 71.709 6.6612 71.0754 6.86539L70.667 6.99651L71.6639 8.1756L71.8691 8.0635C71.9322 8.02947 71.9832 7.99944 72.0363 7.96941C72.1023 7.93038 72.1734 7.89034 72.2805 7.83228L72.2925 7.82528C72.3916 7.76522 72.7089 7.58806 73.0152 7.4159C73.1453 7.34283 73.2734 7.27077 73.3835 7.20871C74.1532 8.92729 74.6887 10.3816 75.061 11.7639L75.1511 12.0992L76.4804 11.4566L76.3803 11.2074C75.5225 9.07043 75.1621 8.18261 74.4585 6.63418C74.8619 6.42599 75.3643 6.17475 75.8578 5.93553C75.8628 5.94454 75.8678 5.95255 75.8728 5.96056C76.044 6.24982 76.054 6.26784 76.1921 6.64319L76.3062 6.95347L77.5543 6.28285L77.4102 6.02762C77.2411 5.72834 77.144 5.5762 77.0679 5.4681C77.195 5.43207 77.3281 5.40905 77.4833 5.40905C78.0088 5.40905 78.5533 5.73235 78.5533 6.27184C78.5533 6.60615 78.4482 6.8774 78.242 7.07759C77.9037 7.40689 77.2941 7.56203 76.4303 7.53901L75.9729 7.526L76.5244 8.75614H76.7106C79.1498 8.75614 79.8004 7.21071 79.8004 6.29787C79.8004 5.19585 78.7925 4.26499 77.6004 4.26499L77.6014 4.26599Z" fill="#B8B8B8"/>
<path d="M65.7351 4.19655L65.8562 4.38672L66.9021 3.65105L66.799 3.47889C66.5198 3.01346 66.1725 2.49398 65.5259 1.84738L65.3967 1.71826L64.3828 2.43993L64.538 2.61909C64.8582 2.98943 65.2576 3.44986 65.7341 4.19655H65.7351Z" fill="#B8B8B8"/>
<path d="M67.1442 3.14589L67.2613 3.35408L68.3343 2.59338L68.2252 2.42022C67.8849 1.88272 67.5926 1.48436 66.946 0.797722L66.8139 0.657593L65.7949 1.4223L65.9601 1.59746C66.3214 1.98081 66.7838 2.5033 67.1442 3.14489V3.14589Z" fill="#B8B8B8"/>
<path d="M88.4825 8.51689C88.4525 8.18158 88.4265 7.88631 88.4025 7.62707C88.3364 6.9004 88.2934 6.42096 88.2934 6.28483C88.2934 5.90048 88.3895 5.76735 88.7728 5.44405L89.0331 5.22485L87.907 4.27197L87.7208 4.44513C87.1854 4.94159 86.776 5.385 86.776 6.18173C86.776 6.34288 86.83 6.9004 86.9051 7.66911C86.9211 7.83526 86.9371 7.99641 86.9501 8.13554C86.6318 8.08149 86.2665 8.02644 85.9252 8.02644C84.4038 8.02644 83.582 8.92727 83.582 9.77405C83.582 10.754 84.5699 11.7679 86.2225 11.7679C87.875 11.7679 88.2283 10.7209 88.3885 10.0073C88.9149 10.2505 89.2433 10.4146 89.7447 10.7179L90.042 10.8971L90.5875 9.42773L90.3603 9.31162C89.9079 9.07941 89.4785 8.85921 88.4825 8.51589V8.51689ZM86.9812 9.69798C86.9812 10.3426 86.4096 10.3926 86.2345 10.3926C85.6439 10.3926 84.9573 10.1344 84.9573 9.80107C84.9573 9.62791 85.2736 9.37768 85.8461 9.37768C86.2365 9.37768 86.6429 9.45876 86.9802 9.52982V9.69798H86.9812Z" fill="#B8B8B8"/>
<path d="M87.1456 3.6604L87.3498 3.62837L87.6321 1.97585L87.1817 2.11998C86.9184 2.20406 86.6482 2.29014 85.7964 2.43327C85.9195 2.09596 86.0116 1.8167 86.2638 1.03398L86.3379 0.802765L84.7995 0.00402832L84.7364 0.397391C84.5863 1.33426 84.337 2.13399 84.1609 2.66749C84.0177 2.67649 83.8916 2.67649 83.6624 2.67649C82.8166 2.67649 82.4813 2.60443 82.16 2.51835L81.7817 2.41625L81.8467 3.96869L82.102 4.00072C82.3092 4.02674 82.6225 4.06578 83.209 4.06578C83.2741 4.06578 83.4262 4.05877 83.6694 4.04676C83.6834 4.04676 83.6974 4.04576 83.7125 4.04476C82.6104 6.82532 81.8587 7.79722 81.3533 8.44982L81.1221 8.7491L82.6875 9.38769L82.8126 9.16949C83.8266 7.39485 84.6123 5.52112 85.2489 3.90263C85.9285 3.82455 86.7613 3.72146 87.1446 3.6624L87.1456 3.6604Z" fill="#B8B8B8"/>
<path d="M88.6771 2.50334L88.4909 2.44629L88.0205 3.56432L88.2237 3.6464C89.674 4.22893 89.9423 4.34204 90.8892 4.91857L91.0933 5.04268L91.6819 3.80755L91.5097 3.70745C90.691 3.23302 89.7381 2.82764 88.6771 2.50334Z" fill="#B8B8B8"/>
<path d="M101.405 2.195L100.162 2.87662L100.36 3.09883C100.673 3.45015 100.993 3.8235 101.461 4.50713C101.792 4.98257 101.887 5.22679 101.887 5.59413C101.887 5.62316 101.887 5.67821 101.88 5.69122C101.88 5.69122 101.845 5.72025 101.709 5.72025C101.648 5.72025 101.247 5.69422 101.188 5.68422L100.739 5.60915L101.468 7.13956L101.55 7.30671L101.733 7.26968C102.614 7.08751 103.377 6.93137 103.377 5.80132C103.377 4.67128 102.675 3.78746 101.53 2.34914L101.406 2.19299L101.405 2.195Z" fill="#B8B8B8"/>
<path d="M99.6919 3.64814C99.3145 3.31483 98.8591 3.14667 98.3376 3.14667C98.0784 3.14667 97.8442 3.18371 97.4798 3.26578C97.621 2.5211 97.7361 2.05567 97.8722 1.66831L97.9443 1.46312L96.3198 0.72644L96.2927 1.06375C96.2167 2.01863 96.1516 2.68825 95.9244 3.73121C95.3619 3.89737 94.7113 4.04951 93.1889 4.20265L92.8506 4.23668L93.5202 5.61595L93.6983 5.58292C94.377 5.4568 94.8424 5.34871 95.535 5.15353C94.5371 8.27941 93.5752 9.39144 92.9296 10.1371L92.7314 10.3653L94.1798 11.108L94.2969 10.9289C96.0195 8.28441 96.6561 6.39367 97.1395 4.6951C97.694 4.53696 97.9072 4.50693 98.1304 4.50693C98.5088 4.50693 99.0112 4.63905 99.0112 5.7781C99.0112 6.82307 98.767 7.96612 98.3576 8.83792C98.0644 9.4605 97.7891 9.58561 97.4408 9.58561C97.2236 9.58561 97.0274 9.55459 96.5059 9.47251L95.9234 9.38043L96.543 10.9489L96.6801 10.9679C97.0604 11.0219 97.2016 11.0219 97.3507 11.0219C98.3126 11.0219 98.9882 10.6546 99.4176 9.89991C99.9251 9.00808 100.438 7.39159 100.438 5.78911C100.438 5.43879 100.384 4.25069 99.6939 3.64714L99.6919 3.64814Z" fill="#B8B8B8"/>
<path d="M110.865 4.87671C109.973 4.87671 109.183 5.07789 107.969 5.4052C105.993 5.93068 105.769 5.98473 104.97 6.12987L104.639 6.18992L105.416 7.54617L105.609 7.4681C108.463 6.31103 110.265 6.00275 110.878 6.00275C112.258 6.00275 112.54 7.45709 112.54 7.84645C112.54 7.97156 112.511 9.08459 111.505 9.72718C110.461 10.3948 108.965 10.4809 108.071 10.5329L107.655 10.557L108.294 11.8331L108.458 11.8161C108.939 11.7651 109.266 11.715 109.756 11.6169C110.411 11.4818 111.259 11.2706 112.013 10.8352C113.224 10.1266 113.653 8.74027 113.653 7.76838C113.653 5.95871 112.236 4.87771 110.865 4.87771V4.87671Z" fill="#B8B8B8"/>
<path d="M123.191 9.96222C122.08 9.96222 121.516 9.723 121.516 9.25056C121.516 8.94328 121.574 8.78113 121.64 8.62899L121.733 8.41179L120.503 7.8783L120.418 8.11752C120.169 8.81916 120.131 9.28359 120.131 9.49779C120.131 10.6489 121.232 11.3095 123.152 11.3095C123.989 11.3095 124.8 11.2314 125.629 11.0712L125.797 11.0382L125.995 9.49579L125.649 9.59488C124.794 9.83911 123.967 9.96322 123.191 9.96322V9.96222Z" fill="#B8B8B8"/>
<path d="M122.585 3.73641L122.739 3.67836V2.18798L122.413 2.3181C121.988 2.48826 121.501 2.66943 120.636 2.86261L120.709 2.59636C120.9 1.90172 120.971 1.64148 121.106 1.09998L121.156 0.900796L119.573 0.252197L119.559 0.590509C119.524 1.4453 119.267 2.47225 119.1 3.10383C118.662 3.16088 118.235 3.21093 117.702 3.21093C117.223 3.21093 117.049 3.18791 116.817 3.14887L116.508 3.09682L116.669 4.56317L116.875 4.56918C117.578 4.5912 118.11 4.56918 118.707 4.52814C118.445 5.33188 118.107 6.31479 117.537 7.60498C116.872 9.11037 116.411 9.77699 115.965 10.4216L115.737 10.7499L117.292 11.1332L117.383 10.9891C117.82 10.2985 118.157 9.72294 118.833 8.07642C119.47 6.51097 119.875 5.26482 120.173 4.33496C120.728 4.24288 121.703 4.06772 122.586 3.73441L122.585 3.73641Z" fill="#B8B8B8"/>
<path d="M123.958 4.62927C123.372 4.62927 122.38 4.71435 121.862 4.77441L121.658 4.79843L121.617 6.22174L121.956 6.14367C122.267 6.0716 122.619 5.98953 123.58 5.98953C124.429 5.98953 124.845 6.04658 125.665 6.21874L125.939 6.27579L125.998 4.89151L125.81 4.84447C125.231 4.69934 124.625 4.62927 123.957 4.62927H123.958Z" fill="#B8B8B8"/>
</g>
<defs>
<clipPath id="clip0_2311_1359">
<rect width="125.396" height="12.0982" fill="white" transform="translate(0.603516)"/>
</clipPath>
</defs>
</svg>
