<svg width="675" height="238" viewBox="0 0 675 238" fill="none" xmlns="http://www.w3.org/2000/svg">
<g filter="url(#filter0_d_2212_687)">
<path d="M556.291 22C518.133 22 483.442 44.5601 467.912 79.4721C466.986 81.5524 467.921 83.9889 469.995 84.9158C472.072 85.8428 474.505 84.9068 475.431 82.8265C489.641 50.8825 521.383 30.2426 556.291 30.2426C605.076 30.2426 644.766 69.9885 644.766 118.844C644.766 167.699 605.076 207.444 556.291 207.444C521.38 207.444 489.641 186.805 475.431 154.861C474.505 152.78 472.072 151.847 469.995 152.771C467.918 153.698 466.986 156.135 467.909 158.215C483.439 193.13 518.133 215.69 556.291 215.69C609.617 215.69 653 172.246 653 118.844C653 65.4415 609.617 22 556.291 22Z" fill="white"/>
</g>
<g filter="url(#filter1_d_2212_687)">
<path d="M271.71 121.76C271.9 121.567 272.071 121.359 272.222 121.132C272.289 121.03 272.337 120.921 272.394 120.815C272.466 120.686 272.545 120.559 272.602 120.423C272.659 120.287 272.69 120.145 272.732 120.003C272.765 119.885 272.81 119.774 272.834 119.653C272.94 119.119 272.94 118.572 272.834 118.038C272.81 117.917 272.765 117.805 272.732 117.687C272.69 117.549 272.659 117.407 272.602 117.268C272.545 117.129 272.466 117.005 272.394 116.875C272.337 116.77 272.292 116.661 272.222 116.558C272.071 116.332 271.9 116.12 271.71 115.93L250.306 94.4963C248.699 92.887 246.091 92.887 244.484 94.4963C242.877 96.1056 242.877 98.7172 244.484 100.327L258.86 114.722H221.082C213.653 114.722 207.487 120.356 206.736 127.826C202.175 173.215 164.33 207.445 118.71 207.445C94.8432 207.445 72.4718 198.073 55.7114 181.053C38.9539 164.039 29.9089 141.497 30.2436 117.579C30.5722 93.9981 40.1479 71.8909 57.2098 55.3301C74.2929 38.7542 96.6974 29.8443 120.278 30.261C154.504 30.8558 185.628 51.4896 199.57 82.8267C200.495 84.907 202.925 85.84 205.006 84.9161C207.083 83.9892 208.015 81.5526 207.089 79.4723C191.851 45.2185 157.83 22.6645 120.42 22.0153C94.6351 21.5745 70.1442 31.2966 51.4783 49.4123C32.8335 67.5099 22.3684 91.6793 22.0096 117.467C21.6478 143.608 31.534 168.245 49.8502 186.844C68.1694 205.446 92.6241 215.69 118.71 215.69C142.833 215.69 165.937 206.744 183.768 190.503C201.475 174.371 212.543 152.406 214.928 128.653C215.254 125.414 217.901 122.968 221.082 122.968H258.86L244.484 137.364C242.877 138.973 242.877 141.585 244.484 143.194C245.286 144 246.341 144.402 247.394 144.402C248.446 144.402 249.501 144 250.303 143.194L271.707 121.76H271.71Z" fill="white"/>
</g>
<g filter="url(#filter2_d_2212_687)">
<path d="M251.202 84.9189C251.747 85.1634 252.314 85.2782 252.875 85.2782C254.452 85.2782 255.953 84.3663 256.638 82.8325C270.848 50.8885 302.587 30.2457 337.497 30.2457C372.408 30.2457 404.147 50.8855 418.357 82.8295C419.282 84.9098 421.713 85.8428 423.793 84.9189C425.87 83.9919 426.802 81.5554 425.879 79.4751C410.349 44.5601 375.658 22 337.5 22C299.342 22 264.649 44.5601 249.118 79.4751C248.193 81.5554 249.127 83.9919 251.205 84.9189H251.202Z" fill="white"/>
</g>
<g filter="url(#filter3_d_2212_687)">
<path d="M490.5 121.76C490.69 121.57 490.859 121.362 491.01 121.138C491.049 121.081 491.073 121.017 491.109 120.957C491.212 120.785 491.314 120.616 491.39 120.429C491.423 120.344 491.441 120.257 491.471 120.172C491.528 120.003 491.592 119.837 491.625 119.659C491.679 119.393 491.706 119.118 491.706 118.844C491.706 118.569 491.679 118.294 491.625 118.028C491.589 117.85 491.525 117.684 491.468 117.515C491.438 117.431 491.423 117.343 491.39 117.258C491.311 117.074 491.212 116.902 491.109 116.73C491.073 116.673 491.049 116.606 491.013 116.549C490.862 116.325 490.693 116.117 490.503 115.927L469.1 94.493C467.493 92.8838 464.885 92.8838 463.278 94.493C461.671 96.1023 461.671 98.714 463.278 100.323L477.653 114.719H439.875C432.446 114.719 426.277 120.353 425.53 127.823C420.968 173.212 383.124 207.441 337.503 207.441C302.593 207.441 270.854 186.802 256.644 154.858C255.718 152.777 253.285 151.841 251.208 152.768C249.13 153.695 248.199 156.132 249.124 158.212C264.655 193.124 299.348 215.684 337.503 215.684C361.627 215.684 384.731 206.738 402.561 190.497C420.268 174.365 431.337 152.4 433.721 128.647C434.047 125.407 436.694 122.962 439.875 122.962H477.653L463.278 137.358C461.671 138.967 461.671 141.579 463.278 143.188C464.08 143.994 465.135 144.396 466.187 144.396C467.239 144.396 468.295 143.994 469.097 143.188L490.5 121.754V121.76Z" fill="white"/>
</g>
<defs>
<filter id="filter0_d_2212_687" x="445.552" y="0" width="229.448" height="237.69" filterUnits="userSpaceOnUse" color-interpolation-filters="sRGB">
<feFlood flood-opacity="0" result="BackgroundImageFix"/>
<feColorMatrix in="SourceAlpha" type="matrix" values="0 0 0 0 0 0 0 0 0 0 0 0 0 0 0 0 0 0 127 0" result="hardAlpha"/>
<feOffset/>
<feGaussianBlur stdDeviation="11"/>
<feComposite in2="hardAlpha" operator="out"/>
<feColorMatrix type="matrix" values="0 0 0 0 1 0 0 0 0 1 0 0 0 0 1 0 0 0 1 0"/>
<feBlend mode="normal" in2="BackgroundImageFix" result="effect1_dropShadow_2212_687"/>
<feBlend mode="normal" in="SourceGraphic" in2="effect1_dropShadow_2212_687" result="shape"/>
</filter>
<filter id="filter1_d_2212_687" x="0" y="0.000976562" width="294.913" height="237.689" filterUnits="userSpaceOnUse" color-interpolation-filters="sRGB">
<feFlood flood-opacity="0" result="BackgroundImageFix"/>
<feColorMatrix in="SourceAlpha" type="matrix" values="0 0 0 0 0 0 0 0 0 0 0 0 0 0 0 0 0 0 127 0" result="hardAlpha"/>
<feOffset/>
<feGaussianBlur stdDeviation="11"/>
<feComposite in2="hardAlpha" operator="out"/>
<feColorMatrix type="matrix" values="0 0 0 0 1 0 0 0 0 1 0 0 0 0 1 0 0 0 1 0"/>
<feBlend mode="normal" in2="BackgroundImageFix" result="effect1_dropShadow_2212_687"/>
<feBlend mode="normal" in="SourceGraphic" in2="effect1_dropShadow_2212_687" result="shape"/>
</filter>
<filter id="filter2_d_2212_687" x="226.761" y="0" width="221.474" height="107.278" filterUnits="userSpaceOnUse" color-interpolation-filters="sRGB">
<feFlood flood-opacity="0" result="BackgroundImageFix"/>
<feColorMatrix in="SourceAlpha" type="matrix" values="0 0 0 0 0 0 0 0 0 0 0 0 0 0 0 0 0 0 127 0" result="hardAlpha"/>
<feOffset/>
<feGaussianBlur stdDeviation="11"/>
<feComposite in2="hardAlpha" operator="out"/>
<feColorMatrix type="matrix" values="0 0 0 0 1 0 0 0 0 1 0 0 0 0 1 0 0 0 1 0"/>
<feBlend mode="normal" in2="BackgroundImageFix" result="effect1_dropShadow_2212_687"/>
<feBlend mode="normal" in="SourceGraphic" in2="effect1_dropShadow_2212_687" result="shape"/>
</filter>
<filter id="filter3_d_2212_687" x="226.767" y="71.2861" width="286.939" height="166.398" filterUnits="userSpaceOnUse" color-interpolation-filters="sRGB">
<feFlood flood-opacity="0" result="BackgroundImageFix"/>
<feColorMatrix in="SourceAlpha" type="matrix" values="0 0 0 0 0 0 0 0 0 0 0 0 0 0 0 0 0 0 127 0" result="hardAlpha"/>
<feOffset/>
<feGaussianBlur stdDeviation="11"/>
<feComposite in2="hardAlpha" operator="out"/>
<feColorMatrix type="matrix" values="0 0 0 0 1 0 0 0 0 1 0 0 0 0 1 0 0 0 1 0"/>
<feBlend mode="normal" in2="BackgroundImageFix" result="effect1_dropShadow_2212_687"/>
<feBlend mode="normal" in="SourceGraphic" in2="effect1_dropShadow_2212_687" result="shape"/>
</filter>
</defs>
</svg>
