<svg width="360" height="141" viewBox="0 0 360 141" fill="none" xmlns="http://www.w3.org/2000/svg">
<g filter="url(#filter0_d_2283_3120)">
<path d="M288.827 22C269.797 22 252.497 33.2509 244.752 50.6618C244.29 51.6992 244.756 52.9144 245.791 53.3766C246.827 53.8389 248.04 53.3721 248.502 52.3346C255.588 36.4039 271.418 26.1107 288.827 26.1107C313.157 26.1107 332.951 45.9322 332.951 70.2966C332.951 94.661 313.157 114.483 288.827 114.483C271.417 114.483 255.588 104.189 248.502 88.2586C248.04 87.2212 246.827 86.7559 245.791 87.2166C244.755 87.6789 244.29 88.894 244.75 89.9315C252.495 107.344 269.797 118.595 288.827 118.595C315.421 118.595 337.057 96.9287 337.057 70.2966C337.057 43.6646 315.421 22 288.827 22Z" fill="white"/>
</g>
<g filter="url(#filter1_d_2283_3120)">
<path d="M146.904 71.7514C146.999 71.6551 147.084 71.5512 147.159 71.4382C147.192 71.387 147.217 71.3328 147.245 71.2801C147.281 71.2154 147.32 71.1521 147.349 71.0844C147.377 71.0166 147.392 70.9459 147.413 70.8751C147.43 70.8164 147.453 70.7607 147.465 70.7004C147.517 70.4339 147.517 70.1614 147.465 69.8948C147.453 69.8346 147.43 69.7789 147.413 69.7202C147.392 69.6509 147.377 69.5802 147.349 69.5109C147.32 69.4416 147.281 69.3799 147.245 69.3151C147.217 69.2624 147.194 69.2082 147.159 69.157C147.084 69.0441 146.999 68.9387 146.904 68.8438L136.23 58.1546C135.428 57.352 134.128 57.352 133.326 58.1546C132.525 58.9571 132.525 60.2596 133.326 61.0622L140.495 68.2415H121.655C117.95 68.2415 114.875 71.0513 114.501 74.7765C112.226 97.4123 93.3527 114.483 70.6016 114.483C58.6991 114.483 47.5423 109.809 39.1837 101.321C30.8266 92.8363 26.3158 81.5945 26.4827 69.666C26.6466 57.9061 31.4221 46.8811 39.931 38.6221C48.4505 30.3556 59.6238 25.9122 71.3835 26.1199C88.4525 26.4166 103.974 36.7068 110.927 52.3349C111.389 53.3724 112.6 53.8376 113.638 53.3769C114.674 52.9146 115.139 51.6995 114.677 50.662C107.078 33.5794 90.1109 22.3315 71.4542 22.0078C58.5953 21.7879 46.3815 26.6364 37.0726 35.6709C27.7743 44.6963 22.5553 56.7497 22.3764 69.6103C22.1959 82.647 27.1263 94.9338 36.2607 104.209C45.3966 113.486 57.5924 118.595 70.6016 118.595C82.632 118.595 94.1542 114.134 103.047 106.034C111.877 97.989 117.397 87.0347 118.586 75.189C118.749 73.5734 120.069 72.3537 121.655 72.3537H140.495L133.326 79.5331C132.525 80.3357 132.525 81.6381 133.326 82.4407C133.726 82.8427 134.252 83.043 134.777 83.043C135.302 83.043 135.828 82.8427 136.228 82.4407L146.902 71.7514H146.904Z" fill="white"/>
</g>
<g filter="url(#filter2_d_2283_3120)">
<path d="M136.677 53.3781C136.949 53.5001 137.232 53.5573 137.511 53.5573C138.298 53.5573 139.046 53.1026 139.388 52.3376C146.474 36.4069 162.303 26.1122 179.713 26.1122C197.123 26.1122 212.952 36.4054 220.038 52.3361C220.5 53.3736 221.712 53.8389 222.749 53.3781C223.785 52.9159 224.25 51.7007 223.79 50.6633C216.045 33.2509 198.744 22 179.714 22C160.685 22 143.383 33.2509 135.638 50.6633C135.176 51.7007 135.642 52.9159 136.678 53.3781H136.677Z" fill="white"/>
</g>
<g filter="url(#filter3_d_2283_3120)">
<path d="M256.017 71.7511C256.112 71.6563 256.196 71.5524 256.271 71.4409C256.291 71.4123 256.303 71.3807 256.321 71.3506C256.372 71.2648 256.423 71.1804 256.461 71.0871C256.477 71.0449 256.486 71.0013 256.501 70.9591C256.53 70.8748 256.562 70.792 256.578 70.7031C256.605 70.5706 256.619 70.4336 256.619 70.2966C256.619 70.1596 256.605 70.0225 256.578 69.89C256.56 69.8012 256.529 69.7184 256.5 69.6341C256.485 69.5919 256.477 69.5482 256.461 69.5061C256.422 69.4142 256.372 69.3284 256.321 69.2426C256.303 69.2139 256.291 69.1808 256.273 69.1522C256.198 69.0408 256.114 68.9369 256.019 68.842L245.345 58.1528C244.543 57.3502 243.243 57.3502 242.441 58.1528C241.64 58.9553 241.64 60.2578 242.441 61.0604L249.61 68.2397H230.77C227.065 68.2397 223.989 71.0494 223.616 74.7746C221.341 97.4104 202.468 114.481 179.717 114.481C162.306 114.481 146.478 104.188 139.391 88.257C138.93 87.2196 137.716 86.7528 136.68 87.2151C135.644 87.6773 135.18 88.8925 135.641 89.9299C143.386 107.341 160.688 118.592 179.717 118.592C191.747 118.592 203.269 114.13 212.162 106.031C220.992 97.9856 226.512 87.0314 227.701 75.1857C227.864 73.5701 229.184 72.3504 230.77 72.3504H249.61L242.441 79.5298C241.64 80.3323 241.64 81.6348 242.441 82.4374C242.841 82.8394 243.367 83.0397 243.892 83.0397C244.417 83.0397 244.943 82.8394 245.343 82.4374L256.017 71.7481V71.7511Z" fill="white"/>
</g>
<defs>
<filter id="filter0_d_2283_3120" x="222.573" y="-1.52588e-05" width="136.484" height="140.595" filterUnits="userSpaceOnUse" color-interpolation-filters="sRGB">
<feFlood flood-opacity="0" result="BackgroundImageFix"/>
<feColorMatrix in="SourceAlpha" type="matrix" values="0 0 0 0 0 0 0 0 0 0 0 0 0 0 0 0 0 0 127 0" result="hardAlpha"/>
<feOffset/>
<feGaussianBlur stdDeviation="11"/>
<feComposite in2="hardAlpha" operator="out"/>
<feColorMatrix type="matrix" values="0 0 0 0 1 0 0 0 0 1 0 0 0 0 1 0 0 0 1 0"/>
<feBlend mode="normal" in2="BackgroundImageFix" result="effect1_dropShadow_2283_3120"/>
<feBlend mode="normal" in="SourceGraphic" in2="effect1_dropShadow_2283_3120" result="shape"/>
</filter>
<filter id="filter1_d_2283_3120" x="0.371582" y="0.000610352" width="169.132" height="140.594" filterUnits="userSpaceOnUse" color-interpolation-filters="sRGB">
<feFlood flood-opacity="0" result="BackgroundImageFix"/>
<feColorMatrix in="SourceAlpha" type="matrix" values="0 0 0 0 0 0 0 0 0 0 0 0 0 0 0 0 0 0 127 0" result="hardAlpha"/>
<feOffset/>
<feGaussianBlur stdDeviation="11"/>
<feComposite in2="hardAlpha" operator="out"/>
<feColorMatrix type="matrix" values="0 0 0 0 1 0 0 0 0 1 0 0 0 0 1 0 0 0 1 0"/>
<feBlend mode="normal" in2="BackgroundImageFix" result="effect1_dropShadow_2283_3120"/>
<feBlend mode="normal" in="SourceGraphic" in2="effect1_dropShadow_2283_3120" result="shape"/>
</filter>
<filter id="filter2_d_2283_3120" x="113.459" y="-1.52588e-05" width="132.508" height="75.5573" filterUnits="userSpaceOnUse" color-interpolation-filters="sRGB">
<feFlood flood-opacity="0" result="BackgroundImageFix"/>
<feColorMatrix in="SourceAlpha" type="matrix" values="0 0 0 0 0 0 0 0 0 0 0 0 0 0 0 0 0 0 127 0" result="hardAlpha"/>
<feOffset/>
<feGaussianBlur stdDeviation="11"/>
<feComposite in2="hardAlpha" operator="out"/>
<feColorMatrix type="matrix" values="0 0 0 0 1 0 0 0 0 1 0 0 0 0 1 0 0 0 1 0"/>
<feBlend mode="normal" in2="BackgroundImageFix" result="effect1_dropShadow_2283_3120"/>
<feBlend mode="normal" in="SourceGraphic" in2="effect1_dropShadow_2283_3120" result="shape"/>
</filter>
<filter id="filter3_d_2283_3120" x="113.463" y="35.5509" width="165.156" height="105.041" filterUnits="userSpaceOnUse" color-interpolation-filters="sRGB">
<feFlood flood-opacity="0" result="BackgroundImageFix"/>
<feColorMatrix in="SourceAlpha" type="matrix" values="0 0 0 0 0 0 0 0 0 0 0 0 0 0 0 0 0 0 127 0" result="hardAlpha"/>
<feOffset/>
<feGaussianBlur stdDeviation="11"/>
<feComposite in2="hardAlpha" operator="out"/>
<feColorMatrix type="matrix" values="0 0 0 0 1 0 0 0 0 1 0 0 0 0 1 0 0 0 1 0"/>
<feBlend mode="normal" in2="BackgroundImageFix" result="effect1_dropShadow_2283_3120"/>
<feBlend mode="normal" in="SourceGraphic" in2="effect1_dropShadow_2283_3120" result="shape"/>
</filter>
</defs>
</svg>
