<svg width="285" height="67" viewBox="0 0 285 67" fill="none" xmlns="http://www.w3.org/2000/svg">
<path d="M134.552 16.6888C133.531 16.6149 133.272 17.4597 132.681 17.8962C131.315 18.903 130.081 19.5542 128.684 20.6666C128.395 20.8954 126.825 21.4832 127.239 22.1397C128.605 22.7821 129.969 23.4668 131.201 24.3433C131.662 24.6707 133.07 25.7901 133.387 26.1931C133.735 26.6367 133.975 27.6997 134.649 27.7649C134.888 27.7877 136.374 27.14 136.671 26.9763C138.04 26.223 138.871 25.2867 140.445 24.6918C142.133 24.0547 144.134 23.583 145.852 22.9669C146.182 22.849 146.394 22.4618 146.858 22.3844C147.374 22.2981 149.081 23.1394 149.16 23.4914C149.468 24.8502 147.897 24.866 147.094 25.2621C143.974 26.8074 140.475 28.1609 137.379 29.7924C137.102 29.9385 136.131 30.7745 136.219 31.116C136.254 31.2533 137.937 33.0309 138.16 33.2069C141.365 35.7009 144.95 36.9453 148.759 38.0841C149.505 38.3076 151.897 38.6948 152.32 39.0961C153.133 39.8705 151.918 39.6734 151.704 39.7561C148.976 40.8051 142.386 39.6558 139.672 38.1985C138.382 37.5068 137.055 35.935 135.851 35.1624C135.49 34.93 134.846 34.8737 134.504 34.6203C134.022 34.263 134.256 33.6786 133.1 33.9567C132.327 34.1433 131.757 35.8329 131.326 36.581C129.054 40.5393 127.35 43.4698 124.344 47.0463C123.972 47.488 123.641 48.2536 123.215 48.6831C123.024 48.8767 121.61 49.6318 121.41 49.6898C121.001 49.8095 120.199 49.7691 119.782 49.6283C119.597 49.5666 118.564 48.6268 118.546 48.5458C118.421 47.9685 118.58 46.9565 118.55 46.2912C118.492 45.0486 118.226 43.9961 118.638 42.6936C118.152 41.9896 115.691 43.6828 114.776 43.0333C113.834 42.3645 115.522 41.3226 115.2 40.5886C117.425 41.0445 118.701 39.1577 120.438 38.3498C121.711 37.7584 124.933 36.4085 126.201 36.5405C126.825 36.6056 126.959 37.0403 127.573 36.7006C128.353 36.2694 129.149 34.6132 129.353 33.7596C129.576 32.8285 129.694 32.7792 129.934 32.0224C131.041 28.5094 127.235 30.104 125.523 30.9541C123.217 32.0981 118.194 35.106 116.43 36.808C116.093 37.1354 115.355 37.8306 115.244 38.2583C115.102 38.8057 115.431 40.1891 115.207 40.3316L112.687 40.2331C110.557 38.0753 112.02 37.7936 113.444 36.4613C116.351 33.7402 119.567 31.4434 122.99 29.4809C124.213 28.7804 125.827 28.2629 126.966 27.478C127.163 27.3424 128.239 26.4096 128.235 26.2688C128.203 24.8696 125.768 24.5809 124.801 24.4067C124.497 24.3521 124.303 24.1145 123.916 24.0599C123.435 23.9931 121.948 24.0071 121.491 24.1163C119.637 24.558 118.039 27.1576 115.975 27.3952C115.793 27.4164 114.264 27.4146 114.183 27.3759C114.149 27.36 114.107 27.1013 113.933 26.9957C113.421 26.6912 112.763 26.7123 112.99 25.8182C113.268 24.7235 115.565 24.5422 116.464 24.1867C118.66 23.3172 121.206 21.8035 123.356 20.7035C124.615 20.0593 125.85 19.3571 127.135 18.7692L127.154 17.9261C125.727 17.3489 124.676 19.1247 123.509 19.2902C122.61 19.4187 120.565 18.9663 120.47 17.8487C120.486 17.7097 122.614 16.2699 122.761 16.2277C123.129 16.1203 123.414 16.3597 123.694 16.2999C126.186 15.7718 127.23 15.4814 129.861 15.2667C131.555 15.1294 134.063 14.1403 134.554 16.6853L134.552 16.6888ZM126.28 39.5396C124.28 38.906 122.219 39.3443 121.987 41.7326C121.89 42.7288 121.862 44.5012 123.115 44.6315C123.069 43.9521 123.717 43.6898 124.074 43.2129C124.432 42.7359 126.507 39.8635 126.282 39.5396H126.28Z" fill="white"/>
<path d="M202.453 15.4602C202.715 15.4884 202.919 15.6415 203.201 15.6028C203.55 15.5553 205.947 14.5115 206.454 14.281C206.686 14.1754 206.677 13.8638 207.006 13.7776C208.495 13.3904 211.88 13.0947 213.328 13.4696C214.384 13.7442 214.073 14.0662 214.374 14.7051C214.481 14.9322 214.736 15.1346 214.81 15.337C215.113 16.1713 213.459 19.6755 212.987 20.6242C212.088 22.43 211.016 24.1742 210.053 25.9519C209.534 26.9094 208.657 27.6398 208.858 28.9141C208.888 29.1077 209.213 29.2326 209.28 29.4667C209.379 29.8135 209.43 30.7269 209.49 31.1951C209.514 31.3922 209.184 31.8974 209.588 31.9766C210.064 32.0716 212.876 31.2761 213.666 31.1441C214.821 30.9504 216.125 30.9663 217.278 30.7093C218.431 30.4524 220.152 29.648 221.358 29.5142C222.704 29.3646 222.171 29.7747 222.676 30.2834C222.891 30.4981 223.398 30.2851 223.368 31.0156C223.331 31.9255 222.541 31.7636 221.998 32.0874C221.138 32.6014 219.867 34.0059 218.934 34.2981C218.683 34.3773 217.968 34.5392 217.781 34.4213C217.271 33.6469 218 33.2614 217.933 32.5134C216.812 32.2353 215.65 32.8126 214.599 32.9639C206.468 34.1379 197.942 36.6037 190.293 39.4321C189.73 39.6398 188.313 40.321 187.896 40.3914C187.64 40.4336 185.754 40.1485 185.609 40.0253C185.354 39.6662 185.308 39.1294 185.578 38.7598C185.68 38.619 186.912 37.8164 187.151 37.6985C187.454 37.5507 188.535 37.1353 188.828 37.0913C191.173 36.7357 193.716 35.8628 196.117 35.2327C197.583 34.849 199.061 34.511 200.517 34.0904L200.44 33.5553C199.648 32.9464 198.741 33.6293 197.953 33.7261C197.326 33.8035 194.512 33.5835 194.519 32.7809C194.529 31.6721 195.793 31.7073 195.777 30.6653C195.77 30.2623 195.494 30.0264 195.466 29.7659C195.422 29.3629 195.645 28.8877 195.548 28.2488C195.415 27.3687 194.776 26.1455 194.702 25.2144C194.556 23.3805 194.593 20.4024 194.932 18.5878C195.305 16.5937 197.319 15.7436 198.676 17.3963L199.262 17.0267C198.032 14.3197 199.487 11.7359 199.267 8.98321C199.067 8.63296 196.629 9.2965 196.201 9.49011C194.985 10.041 194.813 11.215 193.031 11.2554C192.041 11.2783 190.333 10.5285 190.89 9.35986C191.125 8.86177 191.917 8.81953 192.195 8.65408C195.661 6.59306 198 7.13163 201.026 5.69719C201.439 5.50182 201.797 5.00021 202.193 4.92453C203.066 4.76084 204.282 5.57575 205.201 5.61799C205.929 5.65143 206.524 5.16037 207.277 5.81159C208.069 6.49449 207.927 7.17916 207.207 7.83038C206.265 8.684 204.549 8.36543 203.905 9.01313C203.798 9.1205 202.45 11.5371 202.45 11.6884V15.4673L202.453 15.4602ZM209.22 21.1663C210.196 20.3215 210.847 17.6374 211.174 16.335C211.343 15.6626 210.118 15.4039 209.62 15.4884C209.254 15.55 205.912 16.7327 205.584 16.9193C205.257 17.1059 205.149 17.4526 204.956 17.567C204.414 17.8944 203.31 18.2534 202.932 18.6125C202.638 18.8923 202.337 19.7741 202.008 20.0223C201.492 20.4112 200.922 20.5168 200.475 21.3001C200.117 21.9284 199.903 23.215 199.545 23.7149C199.23 24.1566 198.315 24.3555 198.257 24.447C198.021 24.8255 198.313 29.0954 199.98 28.0182C200.605 27.2174 204.197 25.1986 204.47 24.5931C205.176 23.0267 203.247 23.3153 202.397 22.9721C202.356 22.9563 201.76 22.4036 201.751 22.3596C201.555 21.4831 202.282 20.8759 202.807 20.281C203.083 20.1631 204.405 20.7492 204.871 20.8583C205.304 20.9604 205.762 20.8477 206.195 20.941C207.267 21.1733 207.962 22.2487 209.217 21.161L209.22 21.1663ZM205.971 27.7612C204.482 27.2156 204.093 28.9862 203.453 29.4738C203.4 29.5142 202.546 29.6022 202.981 30.044C203.182 30.2482 204.958 29.699 205.259 29.421C205.473 29.2238 206.137 27.9196 205.971 27.7612ZM204.387 32.6823H203.155L203.333 33.0308C202.64 33.2139 202.008 33.279 201.307 33.3723C201.086 33.4022 200.543 33.2526 200.695 33.6451C200.902 34.1801 203.548 33.4955 203.983 33.2438C204.225 33.103 204.452 33.0238 204.386 32.6823H204.387Z" fill="white"/>
<path d="M52.8784 24.4823C52.9347 24.5316 52.9241 24.7446 53.0016 24.8748C53.0508 24.9558 53.2779 24.961 53.2779 25.0578C53.2779 25.4099 52.8097 25.5436 53.4609 25.7531L53.116 26.9869L53.4539 27.147C52.4929 28.5956 52.7499 34.5762 50.2013 34.4601C49.3758 34.4213 49.7173 33.7349 49.3002 33.5853C48.7704 33.3952 47.8939 33.6962 47.3377 33.7754C46.8326 34.6484 47.3219 35.5548 47.4785 36.4313C46.9487 36.8977 47.0262 37.3272 46.1637 37.4363C44.8349 37.6053 44.4917 37.0051 43.2104 37.7795C43.0484 37.8781 43.0097 38.1509 42.7844 38.2706C41.9695 38.7088 40.7533 38.2583 40.0968 37.681C38.1801 35.9966 42.2863 35.2785 43.2509 34.7047C42.6982 34.0693 41.8604 32.612 40.8466 32.9904C40.6829 33.052 39.641 33.8792 39.6093 33.9602C39.2802 34.7751 39.8487 35.5883 39.4615 36.368C39.2855 36.7217 38.2981 37.2621 37.9918 37.9221C37.242 39.5378 36.7158 42.5862 36.4042 44.561C36.2212 45.7209 36.1262 46.7875 36.7527 47.789C37.1628 48.0723 38.2875 46.483 38.6694 46.1151C41.1705 43.7232 44.1432 41.187 46.8308 38.7212C47.9608 37.6845 49.1101 37.1125 50.6272 37.8816C51.6481 38.3991 52.7974 39.6117 54.1174 40.1943C55.5149 40.8103 58.0459 41.1377 59.1283 41.9949C59.5842 42.3557 59.7883 43.241 59.5243 43.7602C59.468 43.8711 57.7871 45.3706 57.6727 45.4234C57.0444 45.7138 55.8159 45.4199 55.3935 44.8954C55.1066 44.5399 55.2439 44.114 54.8496 43.681C54.179 42.9488 53.2497 43.0227 52.6355 42.7464C50.8279 41.928 49.6698 40.7787 47.4257 41.4739C47.1987 41.5443 47.0121 42.4577 46.2429 42.1779C46.081 42.3557 46.9681 42.3821 46.419 42.6179C45.3964 43.0562 45.8469 42.9541 45.194 43.5032C43.9426 44.5557 42.4377 45.8388 41.3166 47.0092C39.5407 48.8608 38.1907 51.779 35.2215 51.955C34.8607 51.9761 33.4315 51.8248 33.1534 51.647C31.6943 50.7159 32.8296 46.0377 33.0461 44.5452C33.2872 42.8819 33.3822 41.2028 33.8434 39.5431C34.4946 37.1987 35.8551 35.1324 36.4905 32.7704C35.9237 31.3201 33.421 32.6542 33.7888 30.5228C33.8592 30.1092 36.4342 27.8546 36.9287 27.5149C38.4811 26.4465 42.4043 25.5102 41.6298 22.9687C41.5348 22.6554 41.1335 22.5216 41.0437 22.3157C40.9469 22.0904 41.137 21.7648 41.0719 21.4357C40.9839 20.9904 40.5122 20.5891 40.4594 20.2599C40.1672 18.4013 44.5005 18.037 44.9634 20.3409C45.1271 21.1576 44.3086 23.0848 45.7044 23.4421C46.1426 23.5548 48.3321 23.1253 49.0309 23.1288C50.2048 23.1323 51.9913 23.7026 52.8748 24.4894L52.8784 24.4823ZM49.3494 25.8886C48.9517 25.5471 47.2233 25.3025 46.7058 25.3518C46.3222 25.3887 46.0053 25.7971 45.7009 25.9009C43.536 26.6419 41.4908 27.3917 39.6163 28.7012C39.2661 28.9458 38.0781 30.6759 38.328 30.9223C39.1376 30.7569 39.7642 30.6566 40.5914 30.859C41.4186 31.0614 42.0223 31.9537 42.8126 31.9537C43.3089 31.9537 45.2362 30.8942 45.9279 30.6988C46.6812 30.4841 47.702 30.5827 48.1843 30.4665C48.3462 30.4278 49.6856 29.5231 49.7543 29.3788C50.0799 28.6836 49.9355 26.392 49.3477 25.8886H49.3494Z" fill="white"/>
<path d="M77.8659 17.1763C77.7972 17.245 76.1516 17.9103 76.0548 17.9173C75.752 17.942 75.4229 17.7325 75.0304 17.7519C74.5411 17.7765 72.4273 18.2218 72.063 18.4471C72.0278 18.4682 71.4874 18.998 71.4628 19.0332C71.2516 19.3306 69.3806 22.4125 69.3226 22.6131C69.2451 22.8789 69.3419 23.1799 69.2838 23.421C69.2469 23.5759 68.9336 23.4808 68.9178 23.7994C68.8421 25.3571 69.8699 25.2532 71.1178 25.1054C73.0134 24.8818 75.2663 24.0001 77.3079 23.9103C77.3995 23.9068 77.366 24.1831 77.4646 24.2077C77.8254 24.2993 78.1528 24.1549 78.6121 24.5105C79.1102 24.8977 79.2686 26.0118 79.1366 26.5821C79.1032 26.7299 78.811 26.7158 78.7318 26.9147C78.3182 27.9602 78.158 29.1465 77.5895 30.338C77.1706 31.2163 75.5831 33.0063 76.2519 33.8933C76.6585 34.4337 79.552 35.8188 80.3528 36.3046C82.7412 37.7566 85.0011 39.2228 87.5849 40.3193C90.012 41.3489 92.6574 41.8048 95.1408 42.6126C95.8184 42.8326 97.1367 43.7091 97.0135 44.5434C96.9501 44.9746 95.5984 45.8599 95.1936 45.9867C92.9055 46.7048 92.4057 44.5469 90.7319 43.6792C90.0754 43.3395 89.4629 43.4099 89.1654 43.2832C85.2423 41.6323 81.3525 39.9092 77.7145 38.0559C77.146 37.7672 74.2507 36.2553 73.9462 36.1972C73.6945 36.1497 72.6596 36.1304 72.4942 36.2272L71.0597 37.9133C70.8485 38.3111 70.8169 38.9359 70.6356 39.2949C69.9509 40.6519 65.8253 40.6643 65.7831 39.089C65.7602 38.2055 66.6473 38.0242 67.0767 37.5771C67.4217 37.2163 67.5713 36.5897 67.8916 36.2835C68.4126 35.7836 69.4317 35.3999 69.9104 34.7857C70.662 33.8194 70.398 33.661 69.6024 32.9834C69.3261 32.7475 67.2545 31.3553 67.0943 31.3395C66.8955 31.3201 66.547 31.4908 66.3798 31.6193C65.5719 32.2459 63.2416 35.1166 62.8772 36.0195C62.6027 36.6988 62.8772 37.8798 62.74 38.6947C62.4267 40.5498 60.9711 41.4862 59.2762 40.4794C57.9544 39.6945 58.7323 38.7053 58.0459 37.5384C58.9277 36.9998 58.7886 36.206 59.2322 35.3665C60.1685 33.5959 60.1949 34.0095 60.5698 31.9608C60.7353 31.0544 61.295 31.028 61.6434 30.5756C63.6253 27.9989 64.5159 24.5422 65.8746 21.6187C66.0031 21.3406 66.3586 21.1787 66.4449 20.7721C66.7494 19.3324 64.2959 18.5632 65.4962 17.3752C66.8039 16.0798 72.5875 15.5236 74.4778 15.5518C75.1941 15.5624 77.3871 15.6856 77.9116 16.064C78.2038 16.2752 78.0912 16.944 77.8659 17.1675V17.1763ZM74.5658 27.4093C73.6171 27.2086 70.104 27.4709 70.544 29.0409C70.6743 29.5073 72.466 30.9329 72.9958 30.8396C74.1222 30.6407 74.7171 28.416 74.5658 27.4093Z" fill="white"/>
<path d="M45.4932 4.86478C45.4791 4.9035 45.0356 5.49312 45.0057 5.51952C44.6431 5.84161 43.3864 6.09329 43.8634 7.02788C44.1239 7.53654 46.6302 9.00442 47.211 9.48668C48.4853 10.5392 52.4314 14.0223 53.0791 15.2227C53.1935 15.4339 53.5736 16.2928 53.5965 16.4688C53.6898 17.1746 52.9928 18.1497 52.273 18.2359C51.8365 18.2887 50.8631 17.7026 50.5481 17.3999C50.0007 16.8771 49.5466 15.9408 49.0538 15.3776C48.0858 14.2705 45.3947 12.2429 44.1204 11.3435C43.0467 10.585 41.4451 9.28603 40.1532 9.80525C40.1004 9.82637 39.2591 10.4265 39.2169 10.4653C39.0004 10.6677 38.4512 11.6639 38.145 12.0388C35.9925 14.6824 33.7273 17.5829 31.6434 20.304C31.0221 21.1154 29.1634 22.8455 28.8079 23.4527C28.6002 23.8065 28.9082 23.6234 28.4101 24.2641C27.8856 24.9364 27.1904 25.6141 26.7134 26.267C26.3562 26.7563 26.4741 27.2192 25.8176 27.6645C25.6644 27.7684 25.3424 27.742 25.3107 27.7719C25.2913 27.7895 25.499 28.0658 25.404 28.2841C25.2737 28.5762 24.5433 29.1412 24.3127 29.414C23.5999 30.2588 23.5559 30.8273 22.998 31.7003C22.6125 32.3058 21.3858 33.4305 20.8384 34.1046C20.1801 34.9142 19.895 36.0793 18.802 36.3768L19.1523 36.6373C18.4553 37.3607 17.8551 38.1527 17.2479 38.9535C16.1742 40.3668 15.1288 41.6517 14.1238 43.0386C13.821 43.4575 13.2789 43.674 13.3458 44.2865L12.8213 44.1087C12.765 44.1633 12.9745 44.4502 12.9023 44.642C12.8653 44.7388 11.8709 46.1257 11.7107 46.3387C11.445 46.6889 10.0616 47.9315 9.93309 48.324C9.87149 48.5106 10.0528 48.8098 10.007 48.8503C9.94717 48.9013 9.59516 48.7394 9.47195 48.9647C9.33995 49.2058 9.32763 49.7374 9.10058 50.1439C8.66937 50.9148 7.77526 51.7755 7.38805 52.5112C7.21028 52.8509 6.87235 54.3557 6.81251 54.4402C4.84301 57.1683 4.53852 61.4329 3.09704 64.8492C2.95271 65.1906 3.24136 65.4282 2.60422 65.7979C2.19941 66.0337 0.6312 66.3576 0.272149 66.09C-0.560356 65.4722 0.754404 61.9134 1.05889 60.9489C1.45139 59.7116 2.12373 58.1803 2.60422 56.9747C3.11992 55.6828 3.64265 54.3786 4.21467 53.0779L4.54556 53.2416C4.4646 52.4144 5.32526 51.9779 5.51007 51.4816C5.61391 51.2035 5.57343 50.6966 5.6368 50.6262C5.69136 50.5646 5.98705 50.679 6.15073 50.4995C6.29857 50.3358 6.47458 49.6353 6.67347 49.3378C9.66556 44.862 13.1962 40.9177 16.5157 36.6408C18.4429 34.1574 20.2329 31.4856 22.0704 29.0092C24.707 25.4574 27.4843 21.8317 30.1596 18.2869C32.1362 15.668 34.155 13.1282 35.9414 10.3561C36.1702 10.0024 37.3565 8.1508 37.4146 7.95719C37.6152 7.29013 37.0432 6.62131 37.3583 5.97537C37.5008 5.68496 39.1412 5.1411 39.6006 4.74861C40.6777 3.82634 40.8326 2.39366 42.649 2.12085C43.0397 2.06277 44.3615 2.03637 44.659 2.19829C45.1306 2.45702 45.6992 4.335 45.4932 4.8683V4.86478Z" fill="white"/>
<path d="M178.296 16.2945C177.943 17.1112 178.108 18.7727 177.987 19.9273C177.145 27.9443 175.876 35.4369 176.931 43.505C177.026 44.2389 177.351 46.615 177.112 47.1271C177.04 47.2803 176.806 47.2856 176.719 47.4827C176.103 48.8854 176.387 49.6986 174.488 49.9908C173.916 50.0788 173.285 49.945 172.845 49.556C172.752 49.4733 172.354 48.7323 172.356 48.5986C172.361 47.7819 172.851 47.2521 172.916 46.6555C172.976 46.1098 172.641 45.1964 172.772 44.7652C173.814 41.3524 173.189 38.4483 173.432 34.8789C173.645 31.7601 174.25 28.8226 174.66 25.7372C174.785 24.7921 174.604 23.8276 175.016 22.8402C174.607 22.8718 174.127 22.5797 173.791 22.9264C173.194 23.5407 172.33 25.878 171.819 26.7633C171.522 27.279 170.823 27.9003 170.568 28.3333C169.369 30.3644 168.998 32.869 168.5 35.1341C167.326 35.1412 165.902 34.5093 165.914 33.1699C165.946 29.8769 168.401 26.0153 169.748 23.113C169.936 22.7064 169.903 22.1889 170.107 21.7137C170.343 21.1664 171.165 19.9537 171.774 19.8604C173.523 19.5929 173.55 21.2491 174.84 21.6081C174.848 21.2473 174.796 20.8654 174.882 20.5081C175.899 16.3086 175.809 11.4667 176.073 7.11408C176.198 5.0425 176.337 4.06918 176.124 1.99408C176.001 0.786684 176.499 0.466354 177.578 0.181225C179.597 -0.353831 179.337 0.34139 180.482 1.66847C180.231 2.27217 180.484 2.83891 180.437 3.37396C180.194 6.09677 179.356 8.41124 178.902 10.9932C178.699 12.1443 178.657 15.4761 178.303 16.2945H178.296Z" fill="white"/>
<path d="M283.079 19.0807C283.285 19.2109 283.578 19.3007 283.713 19.4221C284.428 20.0593 285.633 21.6891 284.597 22.3966C284.417 22.5181 283.21 23.2063 283.039 23.2573C282.856 23.3119 282.032 23.4122 281.964 23.3682L282.141 23.0232C281.55 23.1306 281.517 22.6378 281.251 22.416C280.862 22.0921 278.12 22.0886 277.482 22.1432C276.407 22.2365 275.23 22.6747 274.115 22.8208C266.317 23.8452 258.667 25.0174 250.98 26.6331C249.64 26.9147 248.889 27.2597 247.664 27.675C245.356 28.4583 243.482 28.9792 241.315 30.1198C240.312 30.6478 238.895 30.3855 238.443 31.468C237.899 32.7704 238.455 32.8003 236.654 33.1963C235.745 33.397 231.501 33.6891 230.72 33.3477C230.461 33.2351 230.41 32.7739 229.885 32.7651C229.623 31.4856 231.256 31.0033 232.187 30.646C232.629 30.4753 232.386 30.7763 233.013 30.4014C234.847 29.3048 236.082 29.3612 237.969 28.5339C242.019 26.7581 249.068 25.1177 253.62 24.1673C261.114 22.6026 268.927 21.9901 276.587 20.7193C278.683 20.3708 280.966 19.5805 282.942 18.8061C283.041 18.7956 283.007 19.0349 283.079 19.0807Z" fill="white"/>
<path d="M103.915 18.4875C103.992 18.5192 104.851 19.6069 105.015 19.7494C105.572 20.2335 106.56 20.3091 106.414 21.168C106.296 21.858 104.011 22.4353 103.515 23.5564C103.311 24.0158 103.439 24.6706 103.223 25.0085C102.837 25.6104 102.362 25.4731 101.996 26.4341C101.375 28.0622 101.746 28.9352 103.575 28.1871C105.396 27.4426 106.928 25.1458 108.975 24.9574C110.083 24.8554 110.942 25.9132 111.138 26.8671C110.476 26.7351 110.423 27.631 109.918 27.8475C109.547 28.0059 109.161 27.8703 108.823 27.9847C106.731 28.687 100.335 32.9851 98.7223 34.6782C98.5393 34.8718 97.1823 36.484 97.1189 36.5932C97.0116 36.7797 97.1735 37.0367 96.9676 37.269C95.9538 38.4131 91.5871 38.1385 93.6446 35.6603C94.0547 35.1658 94.7587 34.2118 95.1477 33.8281C96.2477 32.7404 97.0749 32.5081 97.6487 30.704C97.867 30.0158 97.7209 29.2326 97.8476 28.7627C97.9321 28.4494 98.2718 28.1537 98.3967 27.7595C98.8156 26.4429 99.1025 25.1106 99.5408 23.8028C99.6182 23.4244 99.3665 23.5388 99.1078 23.5459C97.9866 23.5793 95.8059 24.5755 95.1283 22.7574C94.6249 21.4057 96.2882 21.3001 97.0802 20.9973C97.4428 20.8583 97.7138 20.5045 98.0852 20.42C98.7822 20.2616 99.4088 20.6207 99.8981 20.4869C101.01 20.1842 101.322 18.6283 102.813 18.4628C103.124 18.4276 103.526 18.7057 103.915 18.4892V18.4875Z" fill="white"/>
<path d="M136.736 15.3581C136.198 15.9002 135.559 16.5039 134.728 16.5145C134.913 14.6612 135.51 12.5438 135.066 10.6412C134.872 9.81046 134.533 9.11699 133.681 8.86355C131.866 8.32145 130.472 8.72802 128.747 9.06595C126.211 9.56405 123.087 10.4476 120.841 11.8697C120.491 12.0915 119.453 12.9557 119.294 13.3112C118.675 14.6964 119.919 17.3488 118.377 17.8416C117.077 18.257 117.393 17.6128 116.964 17.12C116.487 16.5761 116.473 16.5303 116.054 15.9266C115.809 15.5764 115.137 14.9956 115.063 14.6277C114.896 13.804 115.531 12.3573 115.04 11.4913L115.383 11.3276C114.699 10.3631 115.288 7.936 116.367 7.39742C118.242 6.46283 119.599 7.71951 120.408 9.28596C120.502 9.30884 122.047 8.77378 122.223 8.6805C122.559 8.5045 123.112 7.77231 123.367 7.69487C123.791 7.56815 124.277 7.77055 124.761 7.71071C125.616 7.60511 126.336 7.20029 127.128 7.06125C129.819 6.58428 132.796 6.47867 135.478 7.06653C139.051 7.84975 138.76 11.0337 137.768 13.8392C137.444 14.7562 137.352 14.7368 136.736 15.3564V15.3581Z" fill="white"/>
<path d="M199.144 47.8258L199.024 48.1444C197.81 46.8103 195.698 47.0971 195.328 44.9851C197.291 42.7551 199.801 40.9774 201.841 38.8337C202.728 37.9026 202.749 37.1141 204.211 36.6336C205.424 36.2341 205.95 36.4224 206.858 37.3324C208.566 39.0396 206.374 39.3916 205.28 40.1608C204.185 40.9299 201.212 43.2127 200.621 44.2934C200.374 44.744 200.232 45.4145 200.38 45.9109C200.484 46.2629 201.189 46.6219 201.031 47.1499C200.908 47.5653 199.609 48.0828 199.144 47.8258Z" fill="white"/>
<path d="M211.385 39.5836C211.458 39.6593 211.401 39.9268 211.475 39.9972C212.269 40.7382 217.285 43.4715 218.279 43.6739C218.938 43.8077 219.246 43.3466 220.085 44.0999C221.409 45.2879 220.179 46.4196 218.934 46.9476C217.505 47.5531 216.864 46.2383 215.683 45.559C214.284 44.7546 212.767 44.0981 211.377 43.3519C210.282 42.764 208.217 42.7358 207.645 41.2732C207.339 40.49 208.448 39.478 209.052 39.3618C209.435 39.2879 211.151 39.3425 211.385 39.5836Z" fill="white"/>
<path d="M186.667 22.629C186.737 22.6976 186.991 22.6219 187.158 22.7803C187.222 22.8402 188.116 24.0652 188.182 24.1708C188.941 25.3905 187.475 26.2212 186.447 25.7355C186.259 25.6457 186.137 25.3447 185.903 25.218C185.171 24.8202 184.569 24.5193 183.978 23.7607C183.696 23.3981 182.436 21.4128 182.313 21.0731C181.948 20.0663 183.024 19.8234 183.682 19.4978C183.789 19.445 183.782 19.1845 183.927 19.1511C184.969 18.91 185.931 19.6598 186.336 20.5715C186.59 21.1417 186.523 22.4882 186.665 22.6272L186.667 22.629Z" fill="white"/>
</svg>
