<svg width="142" height="33" viewBox="0 0 142 33" fill="none" xmlns="http://www.w3.org/2000/svg">
<path d="M67.0398 8.31514C66.5312 8.27831 66.4023 8.69924 66.1076 8.91672C65.4271 9.41833 64.8124 9.7428 64.1161 10.297C63.9723 10.411 63.1901 10.7039 63.3961 11.031C64.0767 11.3511 64.7563 11.6922 65.3701 12.1289C65.5999 12.2921 66.3014 12.8498 66.4593 13.0506C66.6329 13.2716 66.7522 13.8013 67.0881 13.8337C67.2073 13.8451 67.9475 13.5224 68.0957 13.4408C68.7779 13.0655 69.1918 12.599 69.9758 12.3026C70.8168 11.9851 71.8139 11.7501 72.6698 11.4432C72.8346 11.3844 72.9399 11.1915 73.1714 11.1529C73.4283 11.1099 74.279 11.5291 74.3184 11.7045C74.4719 12.3815 73.6888 12.3894 73.2889 12.5867C71.7341 13.3567 69.9907 14.031 68.4482 14.844C68.3105 14.9167 67.8264 15.3333 67.8703 15.5034C67.8878 15.5718 68.7262 16.4575 68.8376 16.5452C70.4345 17.7878 72.2208 18.4078 74.1185 18.9752C74.4903 19.0866 75.6821 19.2795 75.8925 19.4795C76.2977 19.8653 75.6926 19.7671 75.5856 19.8083C74.2263 20.331 70.9431 19.7583 69.5908 19.0322C68.9481 18.6876 68.2868 17.9045 67.687 17.5195C67.5072 17.4037 67.1863 17.3757 67.0161 17.2494C66.7759 17.0714 66.8925 16.7802 66.3164 16.9188C65.9314 17.0117 65.6472 17.8536 65.4324 18.2263C64.3003 20.1985 63.4514 21.6586 61.9536 23.4406C61.7685 23.6607 61.6037 24.0422 61.3915 24.2561C61.2959 24.3526 60.5917 24.7288 60.4917 24.7577C60.2883 24.8174 59.8884 24.7972 59.6806 24.7271C59.5885 24.6964 59.0737 24.2281 59.0649 24.1877C59.0027 23.9001 59.0816 23.3959 59.0667 23.0644C59.0378 22.4453 58.9053 21.9208 59.1105 21.2719C58.8685 20.9211 57.6426 21.7648 57.1865 21.4412C56.7174 21.1079 57.5584 20.5888 57.3979 20.2231C58.5063 20.4502 59.1421 19.5101 60.0077 19.1076C60.6417 18.813 62.2474 18.1404 62.8788 18.2061C63.1901 18.2386 63.2567 18.4552 63.5628 18.2859C63.9513 18.0711 64.3476 17.2459 64.4494 16.8206C64.5607 16.3567 64.6195 16.3321 64.7387 15.955C65.2903 14.2047 63.3944 14.9992 62.5411 15.4227C61.3923 15.9927 58.8896 17.4914 58.0109 18.3394C57.8425 18.5025 57.4751 18.8489 57.4198 19.062C57.3488 19.3348 57.5128 20.024 57.4014 20.0951L56.1456 20.046C55.0845 18.9708 55.8133 18.8305 56.5227 18.1667C57.9714 16.8109 59.5736 15.6665 61.2792 14.6887C61.8887 14.3397 62.6928 14.0819 63.2602 13.6908C63.3584 13.6233 63.8942 13.1585 63.8925 13.0883C63.8767 12.3912 62.663 12.2473 62.1816 12.1605C62.0299 12.1333 61.9334 12.0149 61.7405 11.9878C61.5011 11.9544 60.7601 11.9615 60.5321 12.0158C59.6087 12.2359 58.8124 13.5312 57.7837 13.6496C57.6934 13.6601 56.9314 13.6592 56.891 13.6399C56.8744 13.632 56.8533 13.5031 56.7665 13.4505C56.5113 13.2988 56.1833 13.3093 56.2964 12.8638C56.435 12.3184 57.5794 12.228 58.0275 12.0509C59.1219 11.6177 60.39 10.8635 61.4616 10.3154C62.0886 9.99448 62.7042 9.64458 63.3444 9.35168L63.3541 8.93163C62.6429 8.64399 62.1193 9.52883 61.5379 9.61126C61.0898 9.67527 60.0708 9.4499 60.0234 8.89305C60.0313 8.82377 61.0916 8.10643 61.1652 8.08538C61.3485 8.03189 61.4906 8.15115 61.63 8.12134C62.8717 7.85826 63.3918 7.71356 64.7028 7.60658C65.5464 7.53818 66.796 7.04534 67.0407 8.31339L67.0398 8.31514ZM62.9182 19.7004C61.922 19.3847 60.8951 19.6031 60.7794 20.7931C60.7311 21.2895 60.7171 22.1725 61.3415 22.2374C61.3187 21.8989 61.6414 21.7683 61.8194 21.5306C61.9974 21.293 63.0313 19.8618 62.9191 19.7004H62.9182Z" fill="white"/>
<path d="M100.871 7.70291C101.002 7.71695 101.104 7.79324 101.244 7.77395C101.418 7.75027 102.612 7.23024 102.865 7.11537C102.98 7.06275 102.976 6.90753 103.14 6.86456C103.882 6.67163 105.568 6.52431 106.29 6.7111C106.816 6.8479 106.661 7.00838 106.811 7.32671C106.864 7.43983 106.991 7.54068 107.028 7.64153C107.179 8.0572 106.355 9.80318 106.12 10.2759C105.672 11.1756 105.138 12.0446 104.658 12.9303C104.399 13.4074 103.962 13.7713 104.062 14.4062C104.077 14.5027 104.24 14.565 104.273 14.6816C104.322 14.8544 104.347 15.3095 104.377 15.5427C104.39 15.641 104.225 15.8926 104.426 15.9321C104.663 15.9795 106.065 15.5831 106.458 15.5173C107.034 15.4209 107.683 15.4287 108.258 15.3007C108.832 15.1727 109.69 14.7719 110.29 14.7053C110.961 14.6307 110.696 14.8351 110.947 15.0885C111.054 15.1955 111.307 15.0894 111.292 15.4533C111.274 15.9067 110.88 15.826 110.61 15.9874C110.181 16.2434 109.548 16.9432 109.083 17.0888C108.958 17.1283 108.602 17.2089 108.509 17.1502C108.254 16.7643 108.617 16.5723 108.584 16.1996C108.025 16.061 107.447 16.3487 106.923 16.4241C102.872 17.009 98.6237 18.2376 94.8125 19.6468C94.5319 19.7503 93.826 20.0897 93.6181 20.1248C93.491 20.1458 92.5509 20.0037 92.479 19.9423C92.3518 19.7635 92.329 19.496 92.4632 19.3118C92.5141 19.2417 93.1279 18.8418 93.2472 18.783C93.398 18.7094 93.9365 18.5024 94.0829 18.4805C95.251 18.3034 96.5182 17.8684 97.7143 17.5544C98.4448 17.3633 99.1814 17.1949 99.9067 16.9853L99.8681 16.7187C99.4734 16.4153 99.0218 16.7556 98.6289 16.8038C98.3168 16.8424 96.9145 16.7328 96.918 16.3329C96.9233 15.7804 97.5529 15.7979 97.5451 15.2788C97.5415 15.078 97.4039 14.9605 97.3898 14.8307C97.3679 14.6299 97.4793 14.3931 97.4311 14.0748C97.3644 13.6363 97.0461 13.0268 97.0092 12.5629C96.9365 11.6491 96.9549 10.1654 97.1241 9.26123C97.31 8.26766 98.3133 7.8441 98.9894 8.66755L99.2814 8.48339C98.6684 7.13466 99.3936 5.84731 99.284 4.47578C99.1841 4.30127 97.9695 4.63187 97.7564 4.72834C97.1504 5.00282 97.0645 5.58774 96.177 5.60791C95.6833 5.61931 94.8327 5.24573 95.1098 4.66344C95.2273 4.41527 95.6219 4.39422 95.7605 4.31179C97.4872 3.2849 98.6526 3.55324 100.16 2.83853C100.366 2.74119 100.544 2.49127 100.742 2.45356C101.176 2.372 101.782 2.77803 102.24 2.79907C102.603 2.81573 102.9 2.57107 103.275 2.89554C103.67 3.23579 103.599 3.57692 103.24 3.90138C102.771 4.3267 101.916 4.16797 101.595 4.49069C101.541 4.54418 100.87 5.74822 100.87 5.82363V7.70642L100.871 7.70291ZM104.243 10.5459C104.729 10.125 105.053 8.78769 105.217 8.13875C105.301 7.80376 104.69 7.67485 104.442 7.71695C104.26 7.74764 102.594 8.33694 102.431 8.4299C102.268 8.52285 102.215 8.69561 102.118 8.75261C101.848 8.91572 101.298 9.09462 101.11 9.27351C100.963 9.41294 100.813 9.85229 100.649 9.97594C100.392 10.1697 100.108 10.2224 99.8856 10.6126C99.7076 10.9257 99.6006 11.5667 99.4226 11.8158C99.2656 12.0359 98.8096 12.135 98.7807 12.1806C98.6631 12.3691 98.8087 14.4966 99.6392 13.9599C99.9505 13.5609 101.74 12.555 101.876 12.2534C102.228 11.4729 101.267 11.6167 100.843 11.4457C100.823 11.4378 100.526 11.1624 100.521 11.1405C100.424 10.7038 100.786 10.4013 101.048 10.1048C101.185 10.0461 101.844 10.3381 102.076 10.3925C102.292 10.4433 102.52 10.3872 102.736 10.4337C103.27 10.5495 103.616 11.0853 104.241 10.5433L104.243 10.5459ZM102.624 13.8318C101.882 13.56 101.689 14.4422 101.369 14.6851C101.343 14.7053 100.918 14.7491 101.134 14.9692C101.234 15.071 102.119 14.7973 102.269 14.6588C102.376 14.5606 102.707 13.9108 102.624 13.8318ZM101.835 16.2838H101.221L101.31 16.4574C100.964 16.5486 100.649 16.581 100.3 16.6275C100.19 16.6424 99.9198 16.5679 99.9952 16.7634C100.099 17.03 101.417 16.6889 101.633 16.5635C101.754 16.4933 101.867 16.4539 101.834 16.2838H101.835Z" fill="white"/>
<path d="M26.3463 12.1982C26.3743 12.2227 26.3691 12.3288 26.4077 12.3937C26.4322 12.4341 26.5453 12.4367 26.5453 12.4849C26.5453 12.6603 26.3121 12.727 26.6365 12.8313L26.4647 13.4461L26.633 13.5259C26.1542 14.2476 26.2823 17.2274 25.0124 17.1695C24.6012 17.1503 24.7713 16.8082 24.5635 16.7337C24.2995 16.639 23.8628 16.789 23.5857 16.8284C23.334 17.2634 23.5778 17.715 23.6558 18.1517C23.3919 18.3841 23.4305 18.5981 23.0008 18.6524C22.3387 18.7366 22.1677 18.4376 21.5292 18.8235C21.4486 18.8726 21.4293 19.0085 21.317 19.0681C20.911 19.2865 20.305 19.062 19.9779 18.7743C19.023 17.9351 21.0689 17.5773 21.5494 17.2914C21.2741 16.9749 20.8566 16.2488 20.3515 16.4373C20.27 16.468 19.7508 16.8802 19.735 16.9205C19.571 17.3265 19.8543 17.7317 19.6614 18.1201C19.5737 18.2964 19.0817 18.5656 18.9291 18.8945C18.5555 19.6995 18.2933 21.2184 18.1381 22.2023C18.0469 22.7802 17.9996 23.3116 18.3118 23.8106C18.5161 23.9518 19.0765 23.1599 19.2667 22.9766C20.5129 21.7849 21.994 20.5212 23.3331 19.2926C23.8961 18.7761 24.4687 18.4911 25.2247 18.8743C25.7333 19.1321 26.3059 19.7363 26.9636 20.0266C27.6599 20.3335 28.921 20.4966 29.4603 20.9237C29.6874 21.1035 29.7891 21.5446 29.6576 21.8033C29.6295 21.8585 28.7921 22.6057 28.7351 22.632C28.422 22.7767 27.8099 22.6302 27.5994 22.3689C27.4565 22.1918 27.5249 21.9796 27.3284 21.7638C26.9943 21.399 26.5313 21.4359 26.2253 21.2982C25.3246 20.8904 24.7476 20.3178 23.6295 20.6641C23.5164 20.6992 23.4234 21.1544 23.0402 21.0149C22.9595 21.1035 23.4015 21.1166 23.1279 21.2342C22.6184 21.4525 22.8429 21.4017 22.5176 21.6753C21.8941 22.1997 21.1443 22.839 20.5857 23.4221C19.7008 24.3447 19.0282 25.7986 17.5488 25.8863C17.3691 25.8968 16.657 25.8214 16.5184 25.7329C15.7914 25.269 16.3571 22.938 16.4649 22.1944C16.5851 21.3657 16.6324 20.5291 16.8622 19.7021C17.1866 18.5341 17.8645 17.5045 18.1811 16.3277C17.8987 15.6051 16.6517 16.2698 16.835 15.2078C16.8701 15.0018 18.153 13.8784 18.3995 13.7091C19.1729 13.1768 21.1276 12.7103 20.7418 11.444C20.6944 11.2879 20.4945 11.2213 20.4497 11.1187C20.4015 11.0064 20.4962 10.8442 20.4638 10.6802C20.4199 10.4583 20.1849 10.2584 20.1586 10.0944C20.013 9.16835 22.172 8.98683 22.4027 10.1347C22.4842 10.5416 22.0765 11.5019 22.7719 11.6799C22.9902 11.736 24.0811 11.5221 24.4293 11.5238C25.0142 11.5256 25.9043 11.8097 26.3445 12.2017L26.3463 12.1982ZM24.588 12.8989C24.3898 12.7287 23.5287 12.6068 23.2709 12.6314C23.0797 12.6498 22.9218 12.8533 22.7701 12.905C21.6915 13.2742 20.6725 13.6478 19.7385 14.3002C19.564 14.4221 18.9721 15.2841 19.0966 15.4069C19.5 15.3245 19.8122 15.2745 20.2244 15.3753C20.6365 15.4762 20.9373 15.9208 21.3311 15.9208C21.5784 15.9208 22.5386 15.3929 22.8832 15.2955C23.2586 15.1885 23.7672 15.2376 24.0075 15.1798C24.0882 15.1605 24.7555 14.7097 24.7897 14.6378C24.9519 14.2914 24.88 13.1497 24.5871 12.8989H24.588Z" fill="white"/>
<path d="M38.7964 8.55809C38.7622 8.59229 37.9422 8.92377 37.894 8.92728C37.7431 8.93956 37.5792 8.8352 37.3836 8.84485C37.1398 8.85713 36.0866 9.07899 35.9051 9.19124C35.8875 9.20176 35.6183 9.46572 35.606 9.48326C35.5008 9.63146 34.5686 11.167 34.5397 11.267C34.5011 11.3994 34.5493 11.5493 34.5204 11.6695C34.502 11.7466 34.3459 11.6993 34.338 11.858C34.3003 12.6341 34.8124 12.5824 35.4342 12.5087C36.3786 12.3973 37.5011 11.958 38.5184 11.9133C38.564 11.9115 38.5473 12.0492 38.5964 12.0615C38.7762 12.1071 38.9393 12.0352 39.1682 12.2123C39.4163 12.4052 39.4953 12.9603 39.4295 13.2445C39.4128 13.3181 39.2673 13.3111 39.2278 13.4102C39.0217 13.9311 38.9419 14.5222 38.6587 15.1158C38.45 15.5534 37.659 16.4453 37.9922 16.8873C38.1948 17.1565 39.6365 17.8466 40.0355 18.0887C41.2255 18.8121 42.3515 19.5426 43.6388 20.089C44.8481 20.602 46.1661 20.8291 47.4035 21.2316C47.7411 21.3412 48.398 21.7779 48.3366 22.1936C48.305 22.4085 47.6315 22.8496 47.4298 22.9127C46.2898 23.2705 46.0407 22.1954 45.2068 21.763C44.8797 21.5938 44.5745 21.6289 44.4263 21.5657C42.4716 20.7432 40.5336 19.8846 38.7209 18.9612C38.4377 18.8174 36.9951 18.0641 36.8434 18.0352C36.718 18.0115 36.2024 18.0018 36.1199 18.0501L35.4052 18.8902C35.3 19.0884 35.2842 19.3997 35.1939 19.5786C34.8528 20.2547 32.7972 20.2608 32.7762 19.476C32.7648 19.0358 33.2067 18.9454 33.4207 18.7227C33.5926 18.5429 33.6671 18.2307 33.8267 18.0781C34.0863 17.8291 34.5941 17.6379 34.8326 17.3319C35.207 16.8504 35.0755 16.7715 34.6791 16.4339C34.5414 16.3164 33.5093 15.6227 33.4295 15.6148C33.3304 15.6052 33.1568 15.6902 33.0734 15.7542C32.6709 16.0664 31.5099 17.4967 31.3283 17.9466C31.1915 18.2851 31.3283 18.8735 31.2599 19.2795C31.1038 20.2038 30.3786 20.6704 29.5341 20.1688C28.8755 19.7776 29.2631 19.2848 28.9211 18.7034C29.3605 18.4351 29.2912 18.0396 29.5122 17.6213C29.9787 16.7391 29.9919 16.9451 30.1787 15.9244C30.2611 15.4728 30.54 15.4596 30.7136 15.2342C31.701 13.9504 32.1448 12.2281 32.8218 10.7715C32.8858 10.6329 33.0629 10.5522 33.1059 10.3497C33.2576 9.63234 32.0352 9.24912 32.6332 8.65718C33.2848 8.01176 36.1664 7.73464 37.1082 7.74868C37.4652 7.75394 38.5578 7.81532 38.8191 8.00386C38.9647 8.1091 38.9086 8.44233 38.7964 8.5537V8.55809ZM37.1521 13.6566C36.6794 13.5566 34.9291 13.6873 35.1483 14.4695C35.2132 14.7019 36.1059 15.4122 36.3699 15.3658C36.9311 15.2667 37.2275 14.1582 37.1521 13.6566Z" fill="white"/>
<path d="M22.6668 2.42383C22.6598 2.44313 22.4388 2.7369 22.4239 2.75005C22.2432 2.91053 21.6171 3.03594 21.8547 3.50159C21.9845 3.75503 23.2333 4.48639 23.5227 4.72667C24.1576 5.25108 26.1237 6.98655 26.4464 7.58462C26.5034 7.68985 26.6928 8.1178 26.7042 8.20549C26.7507 8.55714 26.4034 9.04297 26.0448 9.08594C25.8273 9.11224 25.3423 8.82022 25.1854 8.66939C24.9126 8.40894 24.6864 7.94241 24.4408 7.66179C23.9585 7.11019 22.6177 6.09996 21.9828 5.65184C21.4478 5.27388 20.6498 4.6267 20.0062 4.8854C19.9798 4.89592 19.5607 5.19496 19.5396 5.21425C19.4318 5.3151 19.1582 5.81145 19.0056 5.99824C17.9331 7.3154 16.8044 8.76059 15.7662 10.1163C15.4566 10.5206 14.5305 11.3826 14.3534 11.6852C14.2499 11.8614 14.4034 11.7702 14.1552 12.0895C13.8939 12.4244 13.5475 12.7621 13.3098 13.0874C13.1318 13.3312 13.1906 13.5618 12.8635 13.7837C12.7872 13.8354 12.6267 13.8223 12.6109 13.8372C12.6013 13.846 12.7048 13.9836 12.6574 14.0924C12.5925 14.238 12.2286 14.5195 12.1137 14.6554C11.7585 15.0763 11.7366 15.3596 11.4586 15.7945C11.2666 16.0962 10.6554 16.6565 10.3826 16.9924C10.0547 17.3958 9.91259 17.9763 9.36801 18.1245L9.54252 18.2543C9.19525 18.6148 8.89622 19.0094 8.59367 19.4084C8.05874 20.1126 7.53784 20.7527 7.03711 21.4438C6.88627 21.6525 6.61617 21.7603 6.6495 22.0655L6.38817 21.9769C6.36011 22.0041 6.46446 22.1471 6.42851 22.2427C6.41009 22.2909 5.91462 22.9819 5.83482 23.088C5.7024 23.2625 5.01313 23.8816 4.94911 24.0772C4.91842 24.1702 5.00875 24.3192 4.98595 24.3394C4.95613 24.3648 4.78074 24.2842 4.71936 24.3964C4.65359 24.5166 4.64745 24.7814 4.53432 24.984C4.31947 25.3681 3.87399 25.7969 3.68106 26.1634C3.59249 26.3327 3.42412 27.0825 3.3943 27.1246C2.41301 28.4838 2.2613 30.6086 1.54308 32.3108C1.47117 32.4809 1.61499 32.5993 1.29754 32.7835C1.09585 32.901 0.314493 33.0623 0.135597 32.929C-0.279195 32.6212 0.375878 30.8481 0.527589 30.3675C0.723146 29.751 1.05814 28.9881 1.29754 28.3874C1.55448 27.7437 1.81493 27.0939 2.09994 26.4458L2.2648 26.5274C2.22447 26.1152 2.65329 25.8977 2.74537 25.6504C2.79711 25.5119 2.77694 25.2593 2.80851 25.2242C2.83569 25.1936 2.98302 25.2506 3.06457 25.1611C3.13824 25.0795 3.22593 24.7305 3.32502 24.5823C4.81582 22.3523 6.57496 20.387 8.22886 18.2561C9.18911 17.0187 10.081 15.6875 10.9965 14.4537C12.3101 12.684 13.6939 10.8775 15.0269 9.11137C16.0117 7.80648 17.0175 6.54106 17.9076 5.15988C18.0216 4.98362 18.6127 4.06108 18.6416 3.96461C18.7416 3.63225 18.4566 3.29902 18.6136 2.97718C18.6846 2.83249 19.5019 2.56151 19.7308 2.36595C20.2675 1.90644 20.3447 1.19261 21.2497 1.05669C21.4443 1.02775 22.1029 1.01459 22.2511 1.09527C22.4861 1.22418 22.7694 2.15987 22.6668 2.42559V2.42383Z" fill="white"/>
<path d="M88.8353 8.11867C88.6591 8.52557 88.7415 9.3534 88.681 9.92867C88.2618 13.9231 87.6295 17.6563 88.1548 21.6761C88.2022 22.0418 88.3644 23.2257 88.2451 23.4809C88.2092 23.5572 88.0926 23.5598 88.0496 23.658C87.7427 24.3569 87.8838 24.7621 86.9376 24.9077C86.6526 24.9515 86.3387 24.8849 86.1194 24.6911C86.073 24.6498 85.8748 24.2806 85.8757 24.214C85.8783 23.8071 86.1221 23.5431 86.1545 23.2459C86.1843 22.974 86.0177 22.5189 86.0826 22.304C86.6018 20.6036 86.2904 19.1567 86.4115 17.3783C86.5176 15.8243 86.8192 14.3607 87.0236 12.8234C87.0858 12.3525 86.9955 11.872 87.2007 11.38C86.9973 11.3958 86.7579 11.2502 86.5904 11.423C86.2931 11.729 85.8625 12.8936 85.6082 13.3347C85.46 13.5916 85.1118 13.9012 84.9847 14.1169C84.3875 15.1289 84.2025 16.3768 83.9543 17.5054C83.3694 17.5089 82.6599 17.1941 82.6661 16.5268C82.6818 14.886 83.9052 12.962 84.576 11.5159C84.6699 11.3134 84.6532 11.0555 84.7549 10.8188C84.8724 10.546 85.282 9.94182 85.5854 9.89535C86.4571 9.76205 86.4702 10.5873 87.113 10.7661C87.1174 10.5864 87.0911 10.3961 87.1341 10.2181C87.6409 8.12568 87.5962 5.71323 87.7277 3.54456C87.79 2.5124 87.8593 2.02745 87.7532 0.993542C87.6918 0.391962 87.94 0.232359 88.4775 0.0902946C89.4834 -0.176295 89.3536 0.170096 89.9245 0.831308C89.7991 1.1321 89.9254 1.41447 89.9017 1.68106C89.7807 3.03769 89.3632 4.19086 89.137 5.47733C89.0361 6.05085 89.0151 7.71089 88.8388 8.11867H88.8353Z" fill="white"/>
<path d="M141.043 9.50684C141.146 9.57174 141.291 9.61646 141.359 9.67697C141.715 9.99442 142.316 10.8065 141.799 11.159C141.71 11.2195 141.108 11.5624 141.023 11.5878C140.932 11.615 140.521 11.665 140.487 11.6431L140.576 11.4712C140.281 11.5247 140.264 11.2791 140.132 11.1686C139.938 11.0073 138.572 11.0055 138.254 11.0327C137.719 11.0792 137.132 11.2976 136.577 11.3703C132.691 11.8807 128.88 12.4648 125.05 13.2698C124.382 13.4101 124.008 13.582 123.397 13.7889C122.248 14.1792 121.314 14.4387 120.234 15.007C119.734 15.2701 119.028 15.1394 118.803 15.6787C118.532 16.3277 118.809 16.3426 117.912 16.5399C117.459 16.6399 115.344 16.7854 114.955 16.6153C114.826 16.5592 114.801 16.3294 114.539 16.325C114.409 15.6875 115.223 15.4472 115.686 15.2692C115.907 15.1841 115.786 15.3341 116.098 15.1473C117.012 14.601 117.627 14.629 118.567 14.2169C120.585 13.3321 124.097 12.5147 126.365 12.0412C130.099 11.2616 133.992 10.9564 137.808 10.3233C138.853 10.1496 139.99 9.7559 140.975 9.37004C141.024 9.36478 141.007 9.48404 141.043 9.50684Z" fill="white"/>
<path d="M51.7748 9.21135C51.8134 9.22713 52.2414 9.76908 52.3229 9.84011C52.6009 10.0813 53.0929 10.119 53.0201 10.5469C52.9613 10.8907 51.8231 11.1783 51.5758 11.7369C51.474 11.9658 51.5381 12.292 51.4302 12.4604C51.2381 12.7603 51.0014 12.6919 50.819 13.1707C50.5094 13.9819 50.6944 14.4169 51.6056 14.0442C52.5132 13.6732 53.2761 12.5288 54.296 12.435C54.8485 12.3841 55.2764 12.9112 55.3738 13.3865C55.0441 13.3207 55.0178 13.767 54.7661 13.8749C54.581 13.9538 54.389 13.8863 54.2206 13.9433C53.1779 14.2932 49.9911 16.4347 49.1879 17.2783C49.0967 17.3748 48.4205 18.178 48.389 18.2324C48.3355 18.3254 48.4162 18.4534 48.3136 18.5692C47.8084 19.1392 45.6327 19.0024 46.6579 17.7676C46.8622 17.5212 47.213 17.0459 47.4068 16.8547C47.9549 16.3128 48.367 16.197 48.6529 15.2982C48.7617 14.9553 48.6889 14.5651 48.752 14.3309C48.7941 14.1748 48.9634 14.0275 49.0256 13.8311C49.2343 13.1751 49.3773 12.5113 49.5956 11.8597C49.6342 11.6712 49.5088 11.7282 49.3799 11.7317C48.8213 11.7483 47.7348 12.2447 47.3971 11.3388C47.1463 10.6653 47.9751 10.6127 48.3697 10.4619C48.5503 10.3926 48.6854 10.2163 48.8704 10.1742C49.2177 10.0953 49.5299 10.2742 49.7737 10.2075C50.3279 10.0567 50.4831 9.2815 51.2259 9.19907C51.3811 9.18153 51.581 9.32009 51.7748 9.21222V9.21135Z" fill="white"/>
<path d="M68.1284 7.65216C67.8601 7.92226 67.5418 8.22305 67.1278 8.22831C67.2199 7.30489 67.5172 6.24993 67.2962 5.30196C67.1998 4.88805 67.0305 4.54253 66.6061 4.41626C65.7019 4.14616 65.0074 4.34873 64.148 4.5171C62.8843 4.76528 61.3278 5.2055 60.2088 5.91407C60.0343 6.02456 59.5169 6.45514 59.438 6.63228C59.1293 7.32243 59.7493 8.64398 58.9811 8.88952C58.333 9.09648 58.4909 8.77552 58.2769 8.52998C58.0393 8.259 58.0322 8.2362 57.8235 7.93541C57.7016 7.7609 57.3666 7.47151 57.3298 7.28823C57.2465 6.87782 57.5631 6.15698 57.3184 5.72552L57.4894 5.64397C57.1483 5.16341 57.4421 3.95411 57.9796 3.68577C58.9136 3.22011 59.5897 3.84625 59.9931 4.62672C60.0396 4.63812 60.8095 4.37153 60.8972 4.32505C61.0647 4.23736 61.3401 3.87255 61.4672 3.83397C61.6786 3.77083 61.9206 3.87168 62.1617 3.84186C62.5879 3.78924 62.9466 3.58755 63.3412 3.51827C64.6821 3.28062 66.165 3.228 67.5014 3.5209C69.2816 3.91114 69.1369 5.49752 68.6423 6.89536C68.481 7.35225 68.4354 7.3426 68.1284 7.65128V7.65216Z" fill="white"/>
<path d="M99.2227 23.829L99.1631 23.9877C98.558 23.323 97.5057 23.466 97.3215 22.4136C98.2993 21.3026 99.5498 20.4168 100.566 19.3487C101.008 18.8848 101.019 18.492 101.747 18.2526C102.352 18.0535 102.614 18.1473 103.066 18.6007C103.917 19.4513 102.825 19.6267 102.28 20.0099C101.734 20.3932 100.253 21.5306 99.9585 22.069C99.8357 22.2935 99.7647 22.6276 99.8383 22.8749C99.8901 23.0503 100.242 23.2292 100.163 23.4923C100.101 23.6992 99.4542 23.957 99.2227 23.829Z" fill="white"/>
<path d="M105.322 19.7223C105.358 19.76 105.33 19.8933 105.366 19.9284C105.762 20.2976 108.261 21.6595 108.757 21.7603C109.085 21.827 109.238 21.5972 109.656 21.9725C110.316 22.5645 109.703 23.1283 109.083 23.3914C108.371 23.6931 108.052 23.038 107.463 22.6995C106.766 22.2988 106.01 21.9717 105.317 21.5998C104.772 21.3069 103.743 21.2929 103.458 20.5642C103.306 20.1739 103.858 19.6697 104.159 19.6118C104.35 19.575 105.205 19.6022 105.322 19.7223Z" fill="white"/>
<path d="M93.006 11.2747C93.041 11.3089 93.1673 11.2712 93.2506 11.3501C93.2822 11.38 93.7277 11.9903 93.761 12.0429C94.139 12.6506 93.4085 13.0646 92.8963 12.8225C92.8025 12.7778 92.742 12.6278 92.6254 12.5647C92.2606 12.3665 91.9606 12.2166 91.666 11.8386C91.5257 11.658 90.8978 10.6688 90.8364 10.4995C90.6549 9.99791 91.1907 9.87689 91.5187 9.71465C91.5722 9.68835 91.5687 9.55856 91.6406 9.5419C92.1597 9.42176 92.6394 9.79533 92.8411 10.2496C92.9674 10.5337 92.934 11.2046 93.0051 11.2739L93.006 11.2747Z" fill="white"/>
</svg>
