<svg width="645" height="201" viewBox="0 0 645 201" fill="none" xmlns="http://www.w3.org/2000/svg">
<g clip-path="url(#clip0_2172_1550)">
<path d="M9.72279 4.39831H20.7656V0H5.35645V40.9831H9.72279V4.39831Z" fill="white"/>
<path d="M44.1967 27.7624C44.1967 27.1014 43.5621 26.7455 43.1559 26.5167L40.9981 25.3472H45.5168V34.5506C45.5168 36.1269 45.5168 39.0506 50.2639 39.0506H58.2604C60.6721 39.0506 61.9667 38.0591 63.236 32.2116V32.0591L59.1235 29.593L59.0728 29.9235C58.2858 34.398 56.9657 34.398 56.1788 34.398H52.4217C50.7716 34.398 50.6193 33.9658 50.6193 32.593V25.3472H58.0319V3.20312H31.6816V25.3472H38.6119C36.9364 29.898 34.4486 32.9743 26.6298 36.0506L26.3252 36.1777L29.803 40.0421L29.9554 39.9658C38.5865 36.1777 41.3535 31.5506 42.1659 29.7455C42.5974 28.7285 42.5974 28.7286 42.9528 28.6269C43.689 28.4743 44.1713 28.3472 44.1713 27.7624H44.1967ZM53.1071 18.9404V21.0252H36.6064V18.9404H53.1071ZM36.6064 9.43194V7.49974H53.1071V9.43194H36.6064ZM36.6064 15.1777V13.2455H53.1071V15.1777H36.6064Z" fill="white"/>
<path d="M105.503 37.3479L105.681 37.2971L105.452 31.6784L105.173 31.7547C104.158 32.0598 101.772 32.7717 97.2529 32.7717C92.2011 32.7717 91.7949 31.6022 91.7949 30.331C91.7949 29.6445 91.998 29.2123 92.1757 28.831L92.2773 28.5767L87.3524 27.3818L87.3017 27.6106C86.997 28.9073 86.8193 30.331 86.8193 31.6276C86.8193 36.814 91.0841 37.831 98.4714 37.831C99.9184 37.831 103.295 37.831 105.503 37.3479Z" fill="white"/>
<path d="M91.8965 15.7376V20.9495L92.1757 20.8732C94.6889 20.263 97.5067 20.2376 98.0398 20.2376C100.426 20.2376 103.142 20.7207 104.996 21.102L105.275 21.1529V16.0173L105.021 15.9664C104.285 15.7885 103.066 15.5088 99.2837 15.5088C98.2683 15.5088 93.2165 15.6868 92.1503 15.7122H91.9219L91.8965 15.7376Z" fill="white"/>
<path d="M78.0107 38.0589L78.1122 37.8809C80.3462 33.2284 83.4178 26.8216 86.9211 14.847C90.272 14.186 92.7344 13.5758 95.2476 12.4317L95.3745 12.3809L95.1968 7.42327V7.04191L94.8414 7.2453C93.826 7.85547 92.4551 8.69445 88.3426 9.7114C88.3934 9.50801 88.4696 9.22835 88.5457 8.89784C88.8504 7.65208 89.4088 5.33852 89.5104 5.13513C89.5612 5.08428 89.7896 4.93174 89.9166 4.83005C90.1196 4.70293 90.2212 4.62666 90.2973 4.55038C90.5004 4.34699 90.5004 4.06733 90.5004 3.96564C90.5004 3.53343 89.6881 3.22835 88.9773 3.05038L84.1286 1.85547V2.13513C84.1286 4.32157 83.8494 6.15208 82.7832 10.6521C82.047 10.7284 80.8031 10.8555 79.2038 10.8555C77.2491 10.8555 76.0306 10.6775 75.0659 10.525L74.7867 10.4741L75.0152 15.8639H75.2436C77.9091 15.8131 79.28 15.7368 81.5393 15.5334C80.6 18.9148 77.9599 27.9656 72.7558 35.7707L72.6035 35.9995L77.7822 37.9572L77.9853 38.0334L78.0107 38.0589Z" fill="white"/>
<path d="M131.879 36.4063C136.931 36.4063 141.78 35.9487 145.283 35.6182L145.867 35.5673L145.384 29.9233L145.13 29.9995C143.15 30.508 139.469 31.4233 131.854 31.4233C124.238 31.4233 122.943 30.2284 122.943 28.9317C122.943 27.8131 123.806 26.5165 125.634 24.9148L125.812 24.7368L122.106 21.3555L121.953 21.508C120.379 23.1351 117.739 25.83 117.739 29.5419C117.739 35.5928 124.517 36.4317 131.854 36.4317L131.879 36.4063Z" fill="white"/>
<path d="M121.191 10.7036H121.394C126.471 10.8308 126.725 10.8308 132.97 10.8308C131.574 12.1528 130.787 12.7121 129.873 13.3223L129.645 13.4748L133.173 17.263L133.326 17.1104C136.245 14.3901 139.418 11.5935 143.455 9.53415L143.658 9.43245L141.398 5.13584H141.221C137.844 5.84771 134.189 5.97482 131.676 5.97482C126.04 5.97482 122.029 5.33923 120.709 5.11042L120.404 5.05957L121.14 10.5002V10.7036H121.191Z" fill="white"/>
<path d="M185.671 37.8307V31.907L185.341 31.9833C182.066 32.6189 177.116 33.6104 172.191 33.6104C168.028 33.6104 164.169 33.1019 164.169 29.4663C164.169 22.6782 178.74 18.3816 185.747 16.3222L185.95 16.2714L184.452 10.6019L184.198 10.7036C183.208 11.1612 180.34 12.3816 177.598 13.5765C175.466 14.4917 173.46 15.3561 172.648 15.7121C170.896 14.9748 170.414 14.0087 170.414 9.22903C170.414 6.81378 170.465 4.70361 170.541 2.36462V2.08496L164.499 2.8731L164.575 3.66123C164.88 6.94089 165.514 13.7799 166.098 15.5595C166.581 17.085 167.368 17.7968 167.926 18.2036C161.554 21.9917 159.193 25.068 159.193 29.4409C159.193 38.4409 168.535 38.4409 172.064 38.4409C176.557 38.4409 181.076 38.1358 185.468 37.8307H185.671Z" fill="white"/>
<path d="M216.236 33.3818L215.829 33.5089L219.383 37.8818L219.536 37.8309C222.785 36.6106 232.635 32.9496 232.635 20.6699C232.635 11.2631 226.009 4.93262 216.134 4.93262C205.574 4.93262 197.298 12.8902 197.298 23.0597C197.298 31.958 203.822 35.7208 206.411 35.7208C208.772 35.7208 210.727 32.0597 211.666 29.8733C215.322 21.636 216.337 14.3902 216.997 9.50889C219.79 9.94109 227.329 11.314 227.329 20.6191C227.329 29.9241 218.977 32.5936 216.21 33.3818H216.236ZM211.692 10.0682C211.235 15.7123 209.864 21.2547 207.604 26.5428C207.122 27.636 206.335 29.4665 205.523 29.4665C204.152 29.4665 202.045 26.6953 202.045 23.0343C202.045 20.1614 202.984 13.1953 211.717 10.0428L211.692 10.0682Z" fill="white"/>
<path d="M266.169 34.8053C267.616 35.8223 268.733 36.7375 269.951 37.9579L270.129 38.1358L273.251 33.8646L273.099 33.7375C271.525 32.3901 269.494 30.7884 266.143 29.1104C266.143 28.5765 266.093 27.407 266.067 26.1867C266.016 24.7629 265.966 23.2884 265.966 22.7799C265.966 21.585 265.966 20.9748 267.92 19.3731L268.174 19.1697L263.63 16.3985L263.478 16.3223L263.351 16.424C262.132 17.4918 261.117 18.6104 261.117 21.6867C261.117 22.5002 261.219 26.0596 261.269 27.3562C260.406 27.1528 259.162 26.8985 257.487 26.8985C253.197 26.8985 249.973 29.6189 249.973 33.229C249.973 37.068 253.603 39.7629 258.832 39.7629C264.798 39.7629 265.788 36.5341 266.143 34.8307L266.169 34.8053ZM257.208 31.3223C258.451 31.3223 259.442 31.6019 261.32 32.2884C261.219 33.5087 260.99 35.2375 258.248 35.2375C257.005 35.2375 254.669 34.8053 254.669 33.1782C254.669 32.8731 254.796 31.3223 257.208 31.3223Z" fill="white"/>
<path d="M263.529 14.008C265.408 14.6436 270.053 16.3724 272.897 19.1945L273.1 19.3724L275.968 15.2538L275.816 15.1267C272.82 12.686 269.622 11.0843 266.017 10.1436L265.865 10.0928L263.275 13.8809L263.555 13.9826L263.529 14.008Z" fill="white"/>
<path d="M247.358 31.7291C247.587 31.3223 253.222 21.8647 256.294 13.6274C259.036 13.3223 261.041 12.9664 262.996 12.4325L263.148 12.3817L263.478 6.94098L263.123 7.11894C262.209 7.57657 261.092 7.95792 257.995 8.56809C258.706 6.4325 259.34 4.85623 259.543 4.70369C260.61 4.06809 260.61 3.8647 260.61 3.76301C260.61 3.22911 259.772 2.94945 259.163 2.72064L254.822 1.27148L254.771 1.52572C254.212 4.22064 253.4 6.81386 252.613 9.25454C251.471 9.33081 250.379 9.40708 249.237 9.40708C247.841 9.40708 246.546 9.27996 245.607 9.20369L244.896 9.12742L245.124 13.9579V14.1867H245.353C246.978 14.1359 249.11 14.0596 250.887 13.9833C248.247 20.6952 245.556 25.3986 242.18 29.1867L241.977 29.4156L247.231 31.8817L247.333 31.7037L247.358 31.7291Z" fill="white"/>
<path d="M315.189 29.1357V29.3899L320.977 28.6272V28.3984C320.571 24.0001 319.2 15.6357 314.58 9.10176L314.479 8.94922L309.427 11.0848L309.579 11.3136C313.158 16.4746 315.012 22.2967 315.189 29.1357Z" fill="white"/>
<path d="M298.586 23.4657C296.403 28.7538 295.134 29.847 294.449 29.847C293.255 29.847 291.478 27.1521 291.478 21.3809C291.478 15.9402 293.23 11.186 293.56 10.8301L293.662 10.7538C294.22 10.3216 294.525 10.0928 294.525 9.73686C294.525 9.22838 293.814 8.87245 293.306 8.61821L288.356 6.33008L288.305 6.60974C288.204 7.24533 287.772 9.27923 287.442 10.7792C287.29 11.5419 287.138 12.203 287.087 12.4826C286.706 14.2877 286.249 17.1352 286.249 20.3894C286.249 29.2369 289.651 36.1775 293.992 36.1775C296.936 36.1775 299.424 33.4318 302.623 26.6691L302.699 26.5165L298.739 23.1352L298.612 23.4148L298.586 23.4657Z" fill="white"/>
<path d="M331.232 31.3476C331.232 34.3222 332.933 37.551 336.64 37.551C338.848 37.551 340.803 36.5849 343.037 35.0849L343.494 36.534L348.266 34.0679L348.215 33.89C348.165 33.712 348.089 33.534 348.012 33.3052C347.86 32.8984 347.657 32.3391 347.352 31.373C350.246 28.2967 351.795 25.551 353.927 21.0256C355.73 21.89 357.862 23.0086 357.862 27.0001C357.862 31.3476 354.384 34.373 347.784 35.7205L347.429 35.7967L350.526 40.1442L350.678 40.0934C353.597 39.3561 363.142 36.1781 363.142 26.8984C363.142 19.9069 357.583 17.5934 355.527 16.7798C355.679 16.3984 355.755 16.1442 355.857 15.9408C355.958 15.6866 356.034 15.4832 356.136 15.1781L356.212 14.9493L351.084 13.6781L351.033 13.8815C350.957 14.1357 350.576 15.3052 350.399 15.8137C350.018 15.7883 349.586 15.7883 348.926 15.7883C347.505 15.7883 346.54 15.8645 345.905 15.9662C346.007 15.2289 346.058 14.9239 346.235 13.9323L346.337 13.4239C351.059 12.7883 353.546 12.3306 357.862 11.1866L358.04 11.1357V5.6442L357.71 5.77132C354.181 7.29674 351.465 7.83064 347.454 8.49166C348.165 6.0764 348.698 4.83064 348.901 4.70352C349.561 4.44928 349.815 4.34759 349.815 3.83912C349.815 3.35606 349.358 3.1781 348.495 2.89844L343.849 1.39844L343.671 2.23742C343.189 4.34759 342.859 5.89844 342.199 9.0764H341.971C341.412 9.12725 340.727 9.20352 339.762 9.20352C337.173 9.20352 335.294 8.84759 334.203 8.61878L333.746 8.51708L334.939 13.7798H335.37C336.106 13.8561 337.223 13.9323 338.493 13.9323C339.762 13.9323 340.651 13.9069 341.463 13.8561C341.336 14.873 341.234 15.8645 341.158 17.5679C331.994 22.373 331.258 29.3137 331.258 31.3222L331.232 31.3476ZM341.818 30.1018C340.625 31.1188 338.848 32.6696 337.553 32.6696C336.69 32.6696 336.183 31.9832 336.183 30.8137C336.183 29.212 337.198 25.5256 341.031 22.7289C341.082 24.712 341.387 28.3476 341.818 30.0764V30.1018ZM348.85 20.0086C347.505 23.1611 346.515 24.8137 345.88 25.7289C345.728 24.4069 345.499 22.1696 345.525 20.5425C346.794 20.034 347.682 19.9323 348.85 19.9832V20.0086Z" fill="white"/>
<path d="M402.262 38.1356L405.384 33.8644L405.232 33.7373C403.658 32.3898 401.627 30.7881 398.276 29.1102C398.276 28.5763 398.226 27.4068 398.2 26.1864C398.149 24.7627 398.099 23.2881 398.099 22.7797C398.099 21.5847 398.099 20.9746 400.053 19.3729L400.307 19.1695L395.763 16.3983L395.611 16.322L395.484 16.4237C394.265 17.4915 393.25 18.6102 393.25 21.6864C393.25 22.5 393.352 26.0593 393.402 27.3559C392.539 27.1525 391.295 26.8983 389.62 26.8983C385.33 26.8983 382.106 29.6186 382.106 33.2288C382.106 37.0678 385.761 39.7627 390.965 39.7627C396.931 39.7627 397.921 36.5339 398.276 34.8305C399.723 35.8475 400.84 36.7627 402.059 37.9831L402.237 38.161L402.262 38.1356ZM389.341 31.322C390.585 31.322 391.575 31.6017 393.453 32.2881C393.352 33.5085 393.123 35.2373 390.381 35.2373C389.138 35.2373 386.802 34.8051 386.802 33.178C386.802 32.8729 386.929 31.322 389.341 31.322Z" fill="white"/>
<path d="M395.637 14.008C397.515 14.6436 402.161 16.3724 405.004 19.1945L405.207 19.3724L408.076 15.2538L407.923 15.1267C404.928 12.686 401.729 11.0843 398.124 10.1436L397.972 10.0928L395.383 13.8809L395.662 13.9826L395.637 14.008Z" fill="white"/>
<path d="M379.466 31.7291C379.694 31.3223 385.33 21.8647 388.402 13.6274C391.143 13.3223 393.149 12.9664 395.103 12.4325L395.256 12.3817L395.586 6.94098L395.23 7.11894C394.316 7.57657 393.199 7.95792 390.102 8.56809C390.813 6.4325 391.448 4.85623 391.651 4.70369C392.717 4.06809 392.717 3.8647 392.717 3.76301C392.717 3.22911 391.879 2.94945 391.27 2.72064L386.929 1.27148L386.878 1.52572C386.32 4.22064 385.508 6.81386 384.721 9.25454C383.578 9.33081 382.487 9.40708 381.344 9.40708C379.948 9.40708 378.653 9.27996 377.714 9.20369L377.003 9.12742L377.232 13.9579V14.1867H377.46C379.085 14.1359 381.217 14.0596 382.994 13.9833C380.354 20.6952 377.663 25.3986 374.287 29.1867L374.084 29.4156L379.339 31.8817L379.44 31.7037L379.466 31.7291Z" fill="white"/>
<path d="M422.596 38.0589L422.697 37.8809C424.931 33.2284 428.003 26.8216 431.506 14.847C434.857 14.186 437.319 13.5758 439.833 12.4317L439.959 12.3809L439.782 7.42327V7.04191L439.426 7.2453C438.411 7.85547 437.04 8.69445 432.928 9.7114C432.978 9.50801 433.055 9.22835 433.131 8.89784C433.435 7.65208 433.994 5.33852 434.095 5.13513C434.146 5.08428 434.375 4.93174 434.502 4.83005C434.705 4.70293 434.806 4.62666 434.882 4.55038C435.085 4.34699 435.085 4.06733 435.085 3.96564C435.085 3.53343 434.273 3.22835 433.562 3.05038L428.714 1.85547V2.13513C428.714 4.32157 428.434 6.15208 427.368 10.6521C426.632 10.7284 425.388 10.8555 423.789 10.8555C421.834 10.8555 420.616 10.6775 419.651 10.525L419.372 10.4741L419.6 15.8639H419.829C422.494 15.8131 423.865 15.7368 426.124 15.5334C425.185 18.9148 422.545 27.9656 417.341 35.7707L417.188 35.9995L422.367 37.9572L422.57 38.0334L422.596 38.0589Z" fill="white"/>
<path d="M436.481 15.7376V20.9495L436.761 20.8732C439.274 20.263 442.092 20.2376 442.625 20.2376C445.011 20.2376 447.727 20.7207 449.58 21.102L449.86 21.1529V16.0173L449.606 15.9664C448.87 15.7885 447.651 15.5088 443.869 15.5088C442.853 15.5088 437.801 15.6868 436.735 15.7122H436.507L436.481 15.7376Z" fill="white"/>
<path d="M450.088 37.3479L450.266 37.2971L450.037 31.6784L449.758 31.7547C448.743 32.0598 446.356 32.7717 441.838 32.7717C436.786 32.7717 436.38 31.6022 436.38 30.331C436.38 29.6445 436.583 29.2123 436.761 28.831L436.862 28.5767L431.937 27.3818L431.887 27.6106C431.582 28.9073 431.404 30.331 431.404 31.6276C431.404 36.814 435.669 37.831 443.056 37.831C444.503 37.831 447.88 37.831 450.088 37.3479Z" fill="white"/>
<path d="M467.706 24.7114C467.046 25.9572 466.64 26.6182 466.36 27.0504C466.132 25.4233 466.107 23.9741 466.107 23.3894C466.107 16.7538 468.544 7.39784 469.28 6.96564C469.813 6.78767 469.94 6.7114 469.965 6.68598C470.168 6.58428 470.168 6.33004 470.168 6.22835C470.168 5.69445 469.711 5.51649 468.899 5.18598L464.38 3.35547L464.203 4.21988C461.892 15.6351 461.334 18.33 461.334 23.0589C461.334 26.3385 461.74 32.5673 464.507 37.347L464.609 37.4995L468.163 36.2284V36.0758C468.544 32.4911 469.457 29.5419 470.955 27.0504L471.057 26.8724L467.833 24.4317L467.706 24.6606V24.7114Z" fill="white"/>
<path d="M475.373 11.8472L475.525 11.898C477.125 12.4828 480.171 12.4828 481.161 12.4828C485.73 12.4828 489.335 11.8217 491.95 11.3387L492.305 11.2624L492.407 6.22852L492.102 6.33021C488.878 7.32174 485.603 7.77936 482.151 7.77936C479.257 7.77936 477.759 7.44885 475.602 6.91496L475.322 6.83869L475.373 11.6692V11.8217V11.8472Z" fill="white"/>
<path d="M484.69 35.6442C488.294 35.6442 490.63 35.4916 493.346 35.0849H493.524L493.651 29.5171V29.212L493.372 29.2883C489.767 30.1272 486.187 30.5849 483.293 30.5849C479.892 30.5849 478.394 29.5679 478.394 27.3052C478.394 26.4662 478.496 25.6272 478.699 24.9916L478.8 24.6611L473.875 25.0933V25.2967C473.647 29.5933 474.104 31.9577 475.5 33.4323C476.998 35.034 479.587 35.6442 484.69 35.6442Z" fill="white"/>
<path d="M510.659 11.3639L510.811 11.5419L514.188 8.00801L514.061 7.85547C512.487 5.97411 510.76 4.39784 508.095 2.00801L507.943 1.85547L504.693 5.08428L504.516 5.26225L504.693 5.41479C507.08 7.49954 510.05 10.6521 510.659 11.3639Z" fill="white"/>
<path d="M515.508 27.3558V30.61H525.383V33.7625H529.546V30.61H539.396V27.3558H529.546V26.1354H536.959V22.7795H529.546V21.5591H538.05V18.2032H529.546C529.546 17.7964 529.571 17.7964 529.724 17.7456C530.257 17.593 530.663 17.4151 530.663 16.8812C530.663 16.6778 530.562 16.1693 529.724 16.1693L525.383 15.8896V18.2032H516.929V21.5591H525.383V22.7795H517.869V26.1354H525.383V27.3558H515.508Z" fill="white"/>
<path d="M532.11 11.9741C535.943 9.63511 537.669 7.57579 538.355 6.78766L538.481 6.63511L536.248 4.55037L536.171 4.49952H525.865C526.322 3.9402 526.372 3.91477 526.702 3.86393C527.286 3.73681 527.794 3.60969 527.794 3.02494C527.794 2.49105 527.312 2.36393 526.804 2.23681L522.362 1.11816L522.285 1.27071C521.372 2.9741 519.671 6.17749 513.553 9.99105L513.299 10.1436L516.32 12.8385L516.548 12.686C517.64 12.0758 519.239 11.1351 521.245 9.4063C521.803 10.0419 522.463 10.7283 523.631 11.6944C519.518 13.2707 515.939 13.9063 513.654 14.186L513.299 14.2368L515.66 17.8724L515.761 17.9995H515.914C517.487 17.6944 522.235 16.9063 527.718 14.3639C531.145 16.0673 534.902 17.2622 539.497 18.1266H539.649L542.264 13.9317H541.883C538.685 13.7029 535.41 13.0419 532.135 11.9487L532.11 11.9741ZM530.51 7.98257C529.85 8.59274 529.14 9.15206 527.54 9.96562C526.144 9.12664 525.255 8.4402 524.722 7.98257H530.51Z" fill="white"/>
<path d="M523.25 34.78C518.452 34.78 513.908 34.78 513.908 29.5936V16.958H503.779V21.5089H509.313V30.7631C508.577 31.2207 506.013 32.7207 504.439 33.6106C503.855 33.9411 503.424 34.1953 503.297 34.2716L503.119 34.3733L505.328 38.5682C505.607 39.1275 505.937 39.4326 506.318 39.4326C506.699 39.4326 507.003 39.1275 507.054 38.7207C507.232 37.8309 507.257 37.8055 507.384 37.7038C507.511 37.6275 510.075 35.6699 511.369 34.6529C512.385 36.3817 514.162 39.0767 520.94 39.0767H540.385L542.264 34.1445H541.908C535.689 34.7038 529.546 34.7292 523.275 34.7292L523.25 34.78Z" fill="white"/>
<path d="M575.926 33.661C573.463 33.661 573.362 32.9492 573.362 31.5509C573.362 31.2204 573.438 30.178 573.514 29.0848C573.616 27.8898 573.692 26.6441 573.692 26.1865C573.692 24.8898 573.387 23.9746 572.778 23.3898C571.915 22.5509 570.493 22.5254 569.072 22.6017C574.073 16.0932 574.631 15.4322 576.459 14.0848L576.637 13.9576L573.667 9.7373L573.489 9.81358C567.574 12.5085 562.192 13.1187 554.881 13.2458H554.602L555.744 18.5848H555.922C557.877 18.5339 560.517 18.3559 567.117 16.7543C561.329 25.6017 555.795 31.017 551.581 34.7543L551.353 34.9576L556.455 38.0593L556.633 38.161L556.76 37.9831C559.222 34.3983 562.979 29.9746 564.477 28.2204C565.492 27.5339 566.432 27.1526 567.142 27.1526C567.295 27.1526 568.64 27.2034 568.64 28.8814C568.64 29.2373 568.539 30.4068 568.437 31.5254C568.336 32.7458 568.209 34.017 568.209 34.4492C568.209 38.0085 570.113 38.6441 575.52 38.6441C578.972 38.6441 580.521 38.339 582.78 37.8305L582.958 37.7797V32.2119L582.653 32.339C580.368 33.2797 577.677 33.6102 575.926 33.6102V33.661Z" fill="white"/>
<path d="M570.849 7.57654C571.407 7.57654 571.966 7.57654 572.549 7.55111H572.753L572.956 2.7206H572.702C572.143 2.77145 571.432 2.8223 570.392 2.8223C566.33 2.8223 563.512 2.11043 561.05 1.37315L560.77 1.29688L560.542 5.94942V6.12738L560.72 6.17823C564.248 7.16976 567.295 7.60196 570.874 7.60196L570.849 7.57654Z" fill="white"/>
<path d="M611.339 15.7374C610.095 15.7374 609.13 15.8899 608.394 16.0425C612.558 11.2882 614.918 8.66959 617.406 6.81366L617.584 6.68654L615.401 2.92383L615.223 3.0001C611.441 4.57637 603.926 5.23739 601.413 5.23739C600.042 5.23739 597.656 5.08485 596.945 5.034H596.666L597.428 10.2713V10.4747H597.656C602.048 10.195 603.469 10.0425 607.43 9.534C603.546 14.9493 598.545 20.034 592.122 25.0425L591.919 25.195L595.93 29.1357L596.184 28.856C600.982 23.5933 604.155 20.1103 609.968 20.1103C615.782 20.1103 616.695 23.2882 616.695 25.9323C616.695 28.9832 615.147 30.4832 613.903 31.5255C612.151 27.8645 609.359 26.0086 605.576 26.0086C600.449 26.0086 598.621 29.2628 598.621 32.0594C598.621 37.9323 604.967 38.5425 607.709 38.5425C615.858 38.5425 621.798 33.2543 621.798 25.9577C621.798 23.5679 621.036 15.7374 611.339 15.7374ZM605.551 30.1018C608.343 30.1018 609.156 32.3137 609.587 33.712C609.105 33.8645 608.242 34.0679 607.201 34.0679C605.297 34.0679 603.292 33.3052 603.292 31.9069C603.292 30.9408 604.333 30.1018 605.576 30.1018H605.551Z" fill="white"/>
<path d="M640.608 0.253906V36.8641H629.565V41.237H645V0.253906H640.608Z" fill="white"/>
<path d="M15.3583 81.839L15.2821 82.1695C15.079 82.9831 14.5967 85.1441 13.5559 87.1017H5.91479V119.542H10.8142V117.127H28.6096V119.542H33.4583V87.1017H19.09C19.4454 86.3136 19.9531 84.9915 20.2323 84.2542C20.3085 84.0763 20.4862 83.822 20.6385 83.7712C21.1462 83.5424 21.5524 83.339 21.5524 82.9068C21.5524 82.322 20.7654 82.1949 19.9023 82.1695L15.3583 81.8644V81.839ZM10.8142 95.5424V91.5508H28.6096V95.5424H10.8142ZM10.8142 103.958V99.9153H28.6096V103.958H10.8142ZM28.6096 108.356V112.602H10.8142V108.356H28.6096Z" fill="white"/>
<path d="M79.4571 83.4404H59.8086V87.3557H79.4571V83.4404Z" fill="white"/>
<path d="M79.4571 99.5596H59.8086V103.424H79.4571V99.5596Z" fill="white"/>
<path d="M83.1131 88.6777H56.8896V92.593H83.1131V88.6777Z" fill="white"/>
<path d="M79.4571 94.1182H59.8086V97.9317H79.4571V94.1182Z" fill="white"/>
<path d="M80.6755 119.542V104.924H58.8184V119.542H63.5909V117.61H75.9029V119.542H80.6755ZM75.9029 109.093V113.441H63.5909V109.093H75.9029Z" fill="white"/>
<path d="M47.4964 100.957C48.2579 99.9658 48.5879 99.559 49.5018 98.3387V119.542H54.3505V93.8641C54.3505 93.5845 54.4267 93.4319 54.6551 93.2794C55.0105 93.0251 55.2136 92.7963 55.2136 92.4404C55.2136 91.9828 54.9598 91.7031 54.0713 91.1946C54.9851 89.4404 55.8229 87.6862 56.6606 85.6777C56.8129 85.3218 56.9144 85.2709 57.016 85.2455C57.4222 85.1438 58.006 84.9912 58.006 84.4573C58.006 84.1523 57.7014 83.6946 56.8637 83.415L52.675 81.9658L52.5989 82.1946C49.7557 91.0421 45.5417 96.1014 43.9677 98.0336L43.8154 98.2116L47.3187 101.186L47.471 101.008L47.4964 100.957Z" fill="white"/>
<path d="M104.818 82.1947C104.437 84.1015 103.701 86.1099 103.117 87.7625C101.492 87.8133 101.34 87.8133 100.299 87.8133C98.573 87.8133 96.6945 87.7879 94.7144 87.5591H94.4352L95.0952 92.4913H95.2983C97.0499 92.5676 99.9185 92.415 101.01 92.3642C99.6392 95.0591 97.1007 99.1015 92.6328 103.576L92.4297 103.779L96.6437 106.525L96.8468 106.652L96.9737 106.449C98.243 104.466 102.102 98.415 106.29 98.415C108.499 98.415 109.108 100.017 109.438 101.135C105.351 103.22 99.1569 106.373 99.1569 112.576C99.1569 118.779 106.138 119.415 111.393 119.415C115.378 119.415 118.425 118.957 121.192 118.5H121.395V113.313L121.116 113.364C115.404 114.686 111.723 114.864 110.022 114.864C107.28 114.864 104.132 114.508 104.132 111.686C104.132 108.61 107.966 106.551 109.717 105.661C109.717 106.474 109.717 107.186 109.514 112.118V112.347H114.845V112.118C114.795 109.805 114.642 107.339 114.515 104.949L114.439 103.576C115.099 103.322 116.571 102.737 118.12 102.152C120.125 101.364 122.309 100.525 123.045 100.22L123.248 100.144L121.547 95.3133L121.446 95.0337L121.192 95.2116C118.501 97.1438 115.175 98.593 113.931 99.1014C113.271 96.7116 111.977 94.3472 107.966 94.3472C106.57 94.3472 105.529 94.6015 104.818 94.8557C105.376 94.0421 105.935 93.1269 106.62 91.7794C108.321 91.6014 113.474 90.9913 116.927 90.1523L117.079 90.1014L117.663 84.915L117.308 85.0675C115.15 86.0336 111.19 86.8726 108.88 87.1523C109.26 86.3133 109.971 84.8387 110.098 84.6608C110.961 84.0506 111.139 83.9235 111.139 83.5675C111.139 83.1353 110.885 82.932 109.387 82.7031L104.97 81.9404L104.919 82.1692L104.818 82.1947Z" fill="white"/>
<path d="M151.807 115.373L155.666 112.779L155.589 112.601C154.802 110.974 153.559 109.118 152.238 107.593L152.112 107.44L148.126 109.754L148.304 109.957C149.801 111.712 151.223 114.305 151.68 115.144L151.807 115.373Z" fill="white"/>
<path d="M159.93 91.1437H168.485V86.7199H159.93V84.0504C159.93 83.8979 159.93 83.8979 160.412 83.4657C160.514 83.364 160.641 83.2115 160.641 83.0081C160.641 82.4233 159.829 82.3725 159.473 82.347L155.132 82.0674V86.7199H147.44V91.1437H155.132V94.6267H145.866V98.2877L145.663 98.364C144.775 98.7199 143.607 99.203 142.617 99.5843V93.3047H146.882V88.9064H142.617V84.1521C142.617 84.1521 142.617 83.9233 142.744 83.8216C143.201 83.4911 143.353 83.3894 143.353 83.0843C143.353 82.525 142.719 82.4742 142.185 82.4233L137.895 82.1945V88.9064H132.412V93.3047H137.895V101.262C135.052 102.254 133.707 102.584 132.387 102.889L131.803 103.042L132.793 107.491C133.021 108.406 133.148 108.864 133.656 108.864C133.859 108.864 134.062 108.737 134.138 108.584C134.164 108.533 134.24 108.432 134.291 108.305C134.367 108.152 134.57 107.822 134.595 107.771C134.646 107.72 135.052 107.491 137.845 106.423V113.211C137.845 113.695 137.845 114.076 137.565 114.305C137.159 114.686 136.093 114.813 134.113 114.661H133.757L135.814 119.618H135.991C141.17 118.957 142.566 118.22 142.566 114.406V104.364C144.597 103.449 145.359 103.067 145.943 102.762V107.135H159.829V113.567C159.829 114.61 159.829 114.762 158.762 114.762C157.798 114.762 156.884 114.737 155.411 114.559L155.031 114.508L157.138 119.669H157.29C163.256 119.491 164.753 118.957 164.753 114.432V107.135H169.856V102.61H164.753V99.1267H170.059V94.6013H159.829V91.1182L159.93 91.1437ZM146.298 102.635L146.425 102.559V99.1521H159.905V102.635H146.298Z" fill="white"/>
<path d="M199.938 94.4492C197.171 94.4492 196.181 94.7797 188.667 97.3475L188.489 97.3983C186.027 98.2119 183.488 98.7712 180.949 99.0254H180.645L182.701 103.576H182.879C184.656 103.195 187.144 102.407 189.555 101.466C195.089 99.3051 196.968 98.6187 199.43 98.6187C201.69 98.6187 204.888 100.22 204.888 103.754C204.888 105.992 203.619 111.28 191.713 112.169H191.358L193.769 116.619H193.921C197.729 115.856 209.331 113.67 209.331 103.703C209.331 98.339 205.37 94.4492 199.913 94.4492H199.938Z" fill="white"/>
<path d="M250.202 84.0509C237.737 87.1526 222.887 87.7373 218.622 87.839H218.368L219.13 92.8983V93.1017H219.384C220.958 92.9492 226.466 92.3136 230.909 91.8305C232.99 91.6017 234.844 91.3983 236.037 91.2458C232.153 94.3983 227.228 98.7204 227.228 105.89C227.228 110.695 229.817 116.898 242.18 119.085H242.383L244.033 113.822L244.109 113.542H243.83C240.758 113.263 232.61 112.627 232.61 105.61C232.61 99.1526 239.438 91.1187 250.506 89.3644H250.71L250.481 83.9746L250.202 84.0509Z" fill="white"/>
<path d="M293.458 119.796V105.305H265.433V119.796H270.51V117.991H288.381V119.796H293.458ZM288.381 109.652V113.644H270.51V109.652H288.381Z" fill="white"/>
<path d="M297.546 88.5508H260.94V92.7712H297.546V88.5508Z" fill="white"/>
<path d="M291.732 94.322H266.728V98.2373H291.732V94.322Z" fill="white"/>
<path d="M291.732 83.0088H266.728V86.9749H291.732V83.0088Z" fill="white"/>
<path d="M291.732 99.8644H266.728V103.78H291.732V99.8644Z" fill="white"/>
<path d="M310.67 118.449L310.797 118.271C313.259 114.686 317.016 110.263 318.514 108.508C319.529 107.822 320.469 107.441 321.18 107.441C321.332 107.441 322.677 107.492 322.677 109.169C322.677 109.525 322.576 110.695 322.474 111.814C322.373 113.034 322.246 114.305 322.246 114.737C322.246 118.297 324.15 118.932 329.557 118.932C333.009 118.932 334.558 118.627 336.817 118.119L336.995 118.068V112.5L336.69 112.627C334.406 113.568 331.715 113.898 329.963 113.898C327.501 113.898 327.399 113.186 327.399 111.788C327.399 111.432 327.475 110.364 327.551 109.322C327.653 108.127 327.729 106.907 327.729 106.449C327.729 105.153 327.424 104.237 326.815 103.653C325.952 102.814 324.53 102.788 323.109 102.864C328.11 96.3559 328.668 95.6949 330.496 94.3475L330.674 94.2203L327.704 90L327.526 90.0763C321.611 92.7712 316.229 93.3813 308.918 93.5085H308.639L309.781 98.8475H309.959C311.914 98.7966 314.554 98.6186 321.154 97.0169C315.366 105.864 309.832 111.28 305.618 115.042L305.39 115.246L310.492 118.347L310.67 118.449Z" fill="white"/>
<path d="M314.732 81.5088L314.504 86.1613V86.3393L314.682 86.3901C318.21 87.3817 321.282 87.8139 324.861 87.8139C325.394 87.8139 325.953 87.8139 326.537 87.7884H326.74L326.943 82.9579H326.689C326.131 83.0088 325.42 83.0596 324.379 83.0596C320.317 83.0596 317.499 82.3478 315.037 81.6105L314.758 81.5342L314.732 81.5088Z" fill="white"/>
<path d="M375.784 106.195C375.784 103.805 375.023 95.9747 365.325 95.9747C364.081 95.9747 363.117 96.1272 362.381 96.2798C366.544 91.5255 368.905 88.9069 371.393 87.051L371.57 86.9238L369.387 83.1611L369.209 83.2374C365.427 84.8137 357.913 85.4747 355.4 85.4747C354.029 85.4747 351.642 85.3222 350.932 85.2713H350.652L351.414 90.5086V90.712H351.642C356.034 90.4323 357.456 90.2798 361.416 89.7713C357.532 95.1866 352.531 100.271 346.108 105.28L345.905 105.432L349.916 109.373L350.17 109.093C354.968 103.831 358.141 100.348 363.955 100.348C369.768 100.348 370.682 103.526 370.682 106.17C370.682 109.22 369.133 110.72 367.889 111.763C366.138 108.102 363.345 106.246 359.563 106.246C354.435 106.246 352.607 109.5 352.607 112.297C352.607 118.17 358.954 118.78 361.695 118.78C369.844 118.78 375.784 113.492 375.784 106.195ZM359.537 110.339C362.33 110.339 363.142 112.551 363.574 113.949C363.091 114.102 362.228 114.305 361.187 114.305C359.284 114.305 357.278 113.542 357.278 112.144C357.278 111.178 358.319 110.339 359.563 110.339H359.537Z" fill="white"/>
<path d="M399.647 111.509C399.647 115.373 402.948 117.865 408.076 117.865C409.903 117.865 412.391 117.534 413.863 115.983C414.6 115.195 415.006 114.178 415.006 112.932C416.453 114 417.646 115.068 418.788 116.314L418.966 116.517L422.266 112.5L422.088 112.348C419.753 110.415 417.443 108.992 414.65 107.695C414.117 101.288 414.067 100.449 413.99 98.5172C414.879 98.3138 417.087 97.8053 420.337 96.6612L420.489 96.6104L420.159 91.4748L419.829 91.6782C418.331 92.568 415.666 93.3307 414.244 93.7375L414.016 93.7883C414.143 91.1189 414.27 89.9494 414.447 88.9324C415.234 88.729 416.047 88.5256 416.681 88.3731C417.265 88.2205 417.773 88.0934 417.925 88.068H418.128V83.085L417.798 83.2375C414.143 84.9663 407.796 85.9324 404.775 85.9324C403.582 85.9324 402.871 85.8307 402.237 85.7545L401.704 85.6782L401.932 90.3053V90.5341H402.161C405.537 90.4833 408.253 90.1273 409.599 89.9239C409.573 90.585 409.523 91.5765 409.523 94.7799H409.345C407.898 95.0341 405.486 95.4409 403.582 95.4409C402.618 95.4409 401.856 95.3646 401.272 95.3138C401.094 95.3138 400.968 95.2884 400.815 95.2629H400.536L401.12 100.119H401.323C404.141 100.068 406.019 99.9155 409.649 99.3816C409.751 101.06 409.827 102 409.878 102.966C409.929 103.831 410.005 104.721 410.081 106.195C409.243 106.017 408.202 105.865 406.832 105.865C401.551 105.865 399.647 108.763 399.647 111.483V111.509ZM409.548 112.831C409.091 113.288 408.355 113.517 407.339 113.517C405.791 113.517 404.166 112.805 404.166 111.763C404.166 110.339 406.045 109.958 407.035 109.958C408.025 109.958 409.015 110.136 410.132 110.492C410.132 111.254 410.132 112.195 409.548 112.831Z" fill="white"/>
<path d="M394.164 105.153C393.478 106.322 393.047 107.008 392.793 107.441C392.59 105.432 392.565 104.797 392.565 103.169C392.565 94.3729 395.078 87.3305 395.535 86.9492C396.245 86.4915 396.449 86.339 396.449 86.0339C396.449 85.678 396.245 85.3983 395.128 84.9661L391.016 83.3136L390.965 83.5932C390.864 84.2797 390.407 86.2119 389.975 88.0932C389.594 89.7203 389.239 91.2712 389.137 91.8305C388.452 95.4153 388.097 99.0763 388.097 102.686C388.097 108.407 389.061 114.534 390.534 118.297L390.61 118.475L394.367 117.61V117.432C394.545 113.797 395.382 110.669 397.159 106.983L397.236 106.805L394.265 104.924L394.088 105.203L394.164 105.153Z" fill="white"/>
<path d="M462.756 86.8475L465.421 84.9915L465.32 84.8136C464.152 82.7542 462.959 81.2797 461.842 80.4915L461.715 80.4153L459.202 82.1186L459.405 82.322C460.674 83.5932 461.614 84.839 462.654 86.6441L462.781 86.8475H462.756Z" fill="white"/>
<path d="M459.888 118.068H460.091V112.119L459.761 112.195C456.486 112.831 451.536 113.822 446.611 113.822C442.447 113.822 438.589 113.314 438.589 109.678C438.589 102.89 453.16 98.5935 460.167 96.5342L460.37 96.4833L458.872 90.8138L458.618 90.9155C457.628 91.3731 454.81 92.5681 452.069 93.763C449.911 94.7037 447.88 95.5681 447.042 95.924C445.291 95.1867 444.808 94.2206 444.808 89.4409C444.808 86.9494 444.859 84.8392 444.935 82.5765V82.2969L438.894 83.085L438.97 84.0003C439.274 87.2545 439.909 94.0172 440.467 95.746C440.95 97.2715 441.737 97.9833 442.295 98.3901C435.923 102.178 433.562 105.255 433.562 109.653C433.562 118.653 442.904 118.653 446.433 118.653C450.926 118.653 455.445 118.348 459.837 118.043L459.888 118.068Z" fill="white"/>
<path d="M457.501 88.9068L457.603 89.1356L460.37 87.3305L460.268 87.1525C459.05 84.9915 457.933 83.4153 456.943 82.4492L456.816 82.322L454.226 84.2288L454.379 84.4068C455.445 85.7288 456.638 87.2288 457.501 88.9576V88.9068Z" fill="white"/>
<path d="M486.187 110.111C489.842 101.873 490.858 94.6275 491.518 89.7462C494.31 90.1784 501.85 91.5513 501.85 100.856C501.85 110.161 493.498 112.831 490.731 113.619L490.325 113.746L493.879 118.119L494.031 118.068C497.28 116.848 507.13 113.187 507.13 100.907C507.13 91.5004 500.504 85.1699 490.629 85.1699C480.069 85.1699 471.793 93.1276 471.793 103.297C471.793 112.195 478.317 115.958 480.906 115.958C483.267 115.958 485.222 112.297 486.161 110.111H486.187ZM486.212 90.3055C485.755 95.9496 484.384 101.492 482.125 106.78C481.643 107.873 480.856 109.704 480.043 109.704C478.672 109.704 476.565 106.933 476.565 103.272C476.565 100.399 477.505 93.4581 486.237 90.2801L486.212 90.3055Z" fill="white"/>
<path d="M34.2961 167.365L34.1438 167.187C32.8491 165.687 32.1891 164.924 30.1328 162.814L30.0059 162.687L26.2742 165.051L26.5027 165.255C27.5943 166.272 28.5843 167.314 29.6505 169.043H23.3295C23.3295 166.551 23.431 165.026 23.6341 164.543C23.6595 164.492 23.8118 164.339 23.9387 164.212C24.3703 163.78 24.5734 163.551 24.5734 163.348C24.5734 162.687 23.761 162.636 22.7456 162.611L18.6585 162.458V162.687C18.6585 165.814 18.6839 166.653 18.76 168.331V169.043H3.27476V169.297C3.63016 171.865 3.78247 173.873 3.78247 177.687C3.78247 188.517 2.64011 192.509 0.101543 197.416L0 197.619L4.49327 199.577L4.59481 199.373C6.37181 195.509 6.82876 193.831 7.38724 191.568L8.93577 195.153H9.08808C17.11 194.873 17.77 192.356 17.8969 178.322V178.094H8.7073V173.797H19.0901C19.6739 180.865 20.4609 184.475 22.441 189.051C19.8009 192.102 17.3384 194.111 13.6575 196.195L13.429 196.322L16.6276 200.06L16.78 199.958C20.8924 197.492 22.8471 195.611 24.878 193.424C28.0512 197.543 30.1582 200.263 33.0014 200.263C34.5499 200.263 36.0477 199.653 37.3678 192.433V192.28L33.4837 189.814L33.4076 190.144C32.9506 192.407 32.5191 193.551 32.1129 193.551C31.3767 193.551 29.4728 191.772 28.0766 189.458C29.0412 187.983 31.2244 184.678 33.1283 179.238C33.3568 178.5 33.4076 178.399 33.4584 178.373L33.6868 178.246C34.1692 177.992 34.3976 177.839 34.3976 177.534C34.3976 177.128 34.1945 177.051 32.976 176.619L29.0412 175.221L28.9905 175.475C27.975 179.899 26.6296 182.568 25.6396 184.373C24.6495 181.221 24.218 179.543 23.5579 173.848H37.5201V169.068H31.986L34.2961 167.39V167.365ZM8.55498 182.67H13.2513C13.0736 189.89 11.6267 190.5 10.2558 190.5C9.87504 190.5 9.39271 190.475 7.6411 190.144C8.14881 187.424 8.42805 185.772 8.58037 182.644L8.55498 182.67Z" fill="white"/>
<path d="M73.9994 191.517C75.0148 190.754 76.0302 189.94 76.7664 189.356L77.2233 188.974C77.7564 188.542 79.0003 187.627 79.178 187.55H79.2796C80.0412 187.449 80.295 187.423 80.295 187.017C80.295 186.686 79.965 186.406 79.4065 185.949L77.8834 184.627H83.3667V180.457H58.2602V178.5H77.5534V174.711H58.2602V172.779H77.5534V168.991H58.2602V167.11H79.5842V163.067H53.4877V180.432H45.5166V184.601H52.5484V194.033L51.9392 194.11C50.4668 194.313 48.2583 194.618 47.3444 194.618H47.0651L48.1821 199.042C48.3852 199.932 48.7152 200.389 49.1468 200.389C49.426 200.389 49.5275 200.237 49.8068 199.805L49.8576 199.703C49.9591 199.525 50.3907 199.398 51.203 199.22C61.1542 197.161 63.2358 196.703 67.0944 195.661L67.2722 195.61V192.203C70.5977 195.635 73.6693 197.974 79.7365 200.237L79.8888 200.288L83.6205 195.635L83.2651 195.559C79.1019 194.542 76.6902 193.296 74.0247 191.491L73.9994 191.517ZM74.6848 184.627C73.3139 185.974 71.8416 187.322 70.2677 188.313C68.9222 186.966 68.2622 186.025 67.4245 184.627H74.6848ZM61.8904 184.627C63.312 187.449 64.6574 189.203 66.2313 191.084C63.3628 192.025 60.875 192.559 57.7779 193.245L57.524 193.296V184.652H61.8904V184.627Z" fill="white"/>
<path d="M117.536 176.492L117.307 176.339L115.353 178.907L115.556 179.034C117.561 180.331 118.805 181.449 120.1 182.72L120.277 182.898L122.511 180.305L122.359 180.153C120.455 178.271 118.5 177.076 117.561 176.492H117.536Z" fill="white"/>
<path d="M121.013 172.475L120.861 172.373L118.83 174.661L119.033 174.814C120.48 175.78 122.105 176.949 123.425 178.449L123.603 178.653L125.735 176.212L125.583 176.059C123.679 174.204 122.206 173.212 121.013 172.475Z" fill="white"/>
<path d="M105.097 185.822C105.097 180.051 110.098 175.627 113.068 173.517C116.749 170.949 119.541 170.237 122.562 169.627L122.765 169.576L122.537 164.212L122.257 164.288C111.367 167.136 100.172 168.203 90.6269 168.864H90.373L91.3123 174.153H91.5154C92.7339 173.949 93.8509 173.797 94.9425 173.619C96.7956 173.364 98.5473 173.11 100.477 172.805C100.807 172.754 101.492 172.653 102.355 172.525C104.208 172.246 106.874 171.839 108.295 171.636C104.818 174.585 99.6388 179.339 99.6388 186.737C99.6388 190.83 102.127 194.669 106.315 196.958C107.864 197.797 109.971 198.686 114.794 199.398H114.997L116.647 194.136L116.749 193.856H116.444C111.545 193.703 105.046 192.712 105.046 185.771L105.097 185.822Z" fill="white"/>
<path d="M162.925 171.076C160.539 172.831 158.153 173.898 154.853 175.119C154.117 173.517 153.863 172.856 153.533 172.042C156.554 171.025 157.671 170.568 160.869 169.17L161.047 169.093L159.701 164.085L159.422 164.288C156.807 166.195 154.675 167.034 151.984 167.949C151.68 167.059 151.045 164.949 151.045 164.619C151.045 164.542 151.197 164.314 151.273 164.186C151.476 163.831 151.553 163.653 151.553 163.525C151.553 162.814 151.172 162.814 149.725 162.814H144.648L144.825 163.144C145.384 164.212 146.425 166.907 147.237 169.093C145.79 169.347 143.125 169.831 140.256 169.831C138.758 169.831 137.819 169.729 137.057 169.653L136.474 169.602L137.997 174.508H138.174C141.728 174.508 144.394 174.331 148.862 173.339C149.496 174.941 149.725 175.5 150.131 176.415L150.207 176.593H150.08C148.227 177.076 143.861 178.119 140.028 178.119C138.784 178.119 137.743 178.017 136.905 177.915L135.991 177.814L137.717 182.593H137.87C144.064 182.517 147.44 181.805 152.162 180.686C153.152 182.568 153.812 183.636 154.624 184.729C153.05 184.297 150.994 183.788 148.354 183.788C142.084 183.788 138.327 186.788 138.327 191.797C138.327 197.136 142.541 199.627 151.578 199.627C154.675 199.627 156.934 199.322 158.737 199.017H158.94V193.805L158.254 193.932C155.411 194.492 153.152 194.924 150.283 194.924C145.663 194.924 143.302 193.805 143.302 191.568C143.302 189.331 146.095 187.856 148.811 187.856C152.238 187.856 155.97 189.127 159.295 191.39L159.473 191.492L162.9 187.602L162.748 187.449C159.803 184.271 158.813 182.797 156.858 179.212C160.133 178.068 161.859 177.254 164.22 176.034L164.372 175.958L163.179 170.873L162.9 171.076H162.925Z" fill="white"/>
<path d="M194.886 176.212C193.642 176.212 192.678 176.364 191.941 176.517C196.105 171.763 198.466 169.144 200.953 167.288L201.131 167.161L198.948 163.398L198.77 163.475C194.988 165.051 187.473 165.712 184.96 165.712C183.589 165.712 181.203 165.559 180.492 165.508H180.213L180.975 170.746V170.949H181.203C185.595 170.67 187.017 170.517 190.977 170.009C187.093 175.424 182.092 180.508 175.669 185.517L175.466 185.67L179.477 189.61L179.731 189.331C184.529 184.068 187.702 180.585 193.515 180.585C199.329 180.585 200.242 183.763 200.242 186.407C200.242 189.458 198.694 190.958 197.45 192C195.698 188.339 192.906 186.483 189.124 186.483C183.996 186.483 182.168 189.737 182.168 192.534C182.168 198.407 188.514 199.017 191.256 199.017C199.405 199.017 205.345 193.729 205.345 186.432C205.345 184.042 204.583 176.212 194.886 176.212ZM189.124 190.576C191.916 190.576 192.728 192.788 193.16 194.186C192.678 194.339 191.814 194.542 190.774 194.542C188.87 194.542 186.864 193.78 186.864 192.381C186.864 191.415 187.905 190.576 189.149 190.576H189.124Z" fill="white"/>
<path d="M229.969 173.085H251.648V163.348H229.969V173.085ZM247.485 166.983V169.373H245.429V166.983H247.485ZM241.798 166.983V169.373H239.793V166.983H241.798ZM236.188 166.983V169.373H234.234V166.983H236.188Z" fill="white"/>
<path d="M248.221 193.22C248.399 193.093 248.602 192.915 248.856 192.712C249.643 192.102 250.963 191.059 251.369 190.958L251.547 190.907C252.486 190.678 252.715 190.627 252.715 190.119C252.715 189.737 252.562 189.636 251.775 189.203L249.77 188.085H250.328V179.085H231.01V188.085H236.468C234.056 190.042 230.908 192.254 225.882 194.339L225.577 194.466L228.801 198.025L229.461 197.67C230.502 197.11 232.228 196.195 235.148 194.39V199.958H239.92V190.881C240.2 190.602 240.428 190.398 240.58 190.246C242.789 194.542 246.089 197.873 250.379 200.186L250.532 200.263L254.06 196.754L253.781 196.602C252.105 195.763 249.795 194.517 248.221 193.144V193.22ZM248.018 188.11C246.851 189.407 246.191 190.042 245.556 190.602C245.023 190.042 244.541 189.458 243.677 188.11H248.018ZM245.759 182.669V184.551H235.681V182.669H245.759Z" fill="white"/>
<path d="M230.071 190.856L230.223 186.584L229.918 186.661C229.69 186.737 228.801 186.991 227.887 187.271C227.151 187.5 226.364 187.728 225.856 187.881V180.254H229.004V177.915H253.857V174.228H228.243V175.703H225.856V168.279H229.131V163.805H216.845V168.279H221.211V175.703H217.073V180.254H221.211V189.152C220.297 189.356 219.561 189.534 218.926 189.686C217.758 189.966 216.997 190.144 216.21 190.322L215.956 190.372L217.2 194.542C217.301 194.872 217.555 195.61 218.19 195.61C218.469 195.61 218.698 195.483 218.825 195.406L218.926 195.305C219.231 194.822 219.383 194.618 219.434 194.542C219.764 194.415 221.846 193.703 223.876 193.017C226.39 192.152 229.233 191.186 229.918 190.932L230.071 190.881V190.856Z" fill="white"/>
<path d="M275.359 188.085V183.382L275.029 183.534C273.683 184.195 272.668 184.678 271.399 185.212V175.094H275.181V176.441H299.881V172.272H293.129C293.636 171.077 293.865 170.543 294.119 169.526H298.536V165.611H288.965C288.965 165.127 288.965 164.975 289.067 164.822C289.092 164.797 289.143 164.746 289.219 164.695C289.778 164.212 290.032 163.958 290.032 163.729C290.032 162.941 288.889 162.865 288.356 162.814L283.711 162.458V165.636H275.46V169.551H278.887C278.938 169.678 278.989 169.882 279.065 170.085C279.319 170.772 279.649 171.738 279.852 172.297H275.587V170.339H271.348V165.89C271.348 165.356 271.5 165.229 271.729 165.051C272.287 164.67 272.439 164.568 272.439 164.263C272.439 163.373 270.916 163.348 270.739 163.348L266.347 162.941V170.365H262.59V175.144H266.347V187.119L266.118 187.195C265.484 187.424 264.392 187.805 262.158 188.416L261.955 188.466L262.717 193.043C262.844 193.678 262.996 194.39 263.554 194.39C263.961 194.39 264.214 194.085 264.291 193.958L264.341 193.882C264.976 193.017 265.001 192.966 265.864 192.56C270.739 190.5 273.531 189.077 275.206 188.187L275.333 188.111L275.359 188.085ZM283.685 169.526H289.346C289.092 170.365 288.813 171 288.382 171.941L288.229 172.272H284.777C284.345 171.178 284.218 170.848 283.838 169.907L283.685 169.526Z" fill="white"/>
<path d="M295.845 191.212C295.845 193.373 295.565 194.822 294.271 194.822H292.341C291.91 194.822 291.656 194.67 291.656 193.881V189.661H296.479V177.661H276.907V189.661H280.892C279.471 194.441 275.358 195 270.637 195.636L270.256 195.687L273.429 199.831L273.505 199.932H273.632C279.115 198.865 282.695 197.365 284.7 192.814L284.776 192.661C285.183 191.746 285.208 191.746 285.437 191.695L285.589 191.644C286.02 191.517 286.249 191.441 286.249 191.034C286.249 190.551 286.02 190.5 284.7 190.093L283.279 189.636H286.985V196.144C286.985 198.153 288 199.449 289.549 199.449H295.718C299.272 199.449 299.906 197.365 300.008 192.712V192.559L295.845 190.856V191.187V191.212ZM292.443 185.009V186.509H280.994V185.009H292.443ZM280.969 182.059V180.788H292.418V182.059H280.969Z" fill="white"/>
<path d="M327.755 171.941C326.283 171.941 324.734 172.221 323.592 172.449C323.744 171.483 323.947 170.187 324.125 168.915C324.227 168.204 324.328 167.492 324.43 166.856C324.48 166.805 324.633 166.653 324.734 166.576C324.912 166.424 325.039 166.322 325.064 166.297C325.166 166.195 325.344 166.017 325.344 165.712C325.344 165.204 325.064 165.153 323.846 164.949L318.845 164.11V164.39C318.997 167.619 318.87 170.136 318.439 173.568C312.879 174.661 312.27 174.788 309.351 175.17H309.071L310.823 180.839L311.051 180.737C312.879 179.949 314.377 179.492 317.525 178.653C315.9 185.441 313.082 191.212 309.198 195.814L308.995 196.043L313.895 198.229L314.072 198.305L314.174 198.153C318.109 192.788 320.876 185.975 322.653 177.331C322.729 177.331 322.83 177.305 322.932 177.28C323.82 177.102 325.902 176.67 326.765 176.67C328.72 176.67 328.872 178.526 328.872 181.144C328.872 186.483 327.044 190.653 327.044 190.704C326.334 192.382 325.623 192.941 324.277 192.941C323.16 192.941 321.993 192.61 320.596 192.204L320.292 192.127L320.52 197.263L320.749 197.339C321.51 197.593 322.526 197.975 324.201 197.975C330.065 197.975 331.461 193.831 332.045 192.026C332.325 191.161 333.797 186.509 333.797 180.763C333.797 176.39 333.086 171.941 327.781 171.941H327.755Z" fill="white"/>
<path d="M340.473 165.483L340.346 165.355L337.655 167.364L337.833 167.542C339.305 169.093 340.346 170.415 341.387 172.093L341.514 172.296L344.484 170.313L344.357 170.11C343.088 168.305 341.819 166.779 340.498 165.508L340.473 165.483Z" fill="white"/>
<path d="M336.081 168.102L332.527 170.797L332.68 170.975C337.985 177.203 338.138 179.695 338.138 179.949C338.138 180.686 337.604 180.839 335.523 181.271L335.244 181.322L337.528 185.949L337.604 186.127L337.782 186.076C340.702 185.263 343.722 184.449 343.722 181.525C343.722 180.636 343.367 175.856 336.208 168.229L336.056 168.076L336.081 168.102Z" fill="white"/>
<path d="M344.966 163.144L344.839 163.017L342.199 164.974L342.377 165.152C343.824 166.728 344.636 167.923 345.576 169.449L345.702 169.652L348.546 167.847L348.444 167.669C347.327 165.712 346.312 164.389 344.992 163.169L344.966 163.144Z" fill="white"/>
<path d="M379.567 177.254C379.719 176.873 379.795 176.619 379.897 176.415C379.998 176.161 380.074 175.958 380.176 175.653L380.252 175.424L375.124 174.153L375.073 174.356C374.997 174.61 374.616 175.78 374.439 176.288C374.058 176.263 373.626 176.263 372.966 176.263C371.545 176.263 370.58 176.339 369.945 176.441C370.022 175.704 370.098 175.398 370.275 174.382L370.352 173.898C375.073 173.263 377.561 172.805 381.877 171.661L382.054 171.61V166.119L381.724 166.246C378.196 167.771 375.479 168.305 371.469 168.966C372.179 166.551 372.712 165.305 372.916 165.178C373.576 164.924 373.829 164.822 373.829 164.314C373.829 163.831 373.372 163.653 372.509 163.373L367.864 161.873L367.686 162.712C367.204 164.822 366.874 166.373 366.214 169.551H365.985C365.427 169.602 364.741 169.678 363.777 169.678C361.187 169.678 359.309 169.322 358.217 169.093L357.76 168.992L358.953 174.254H359.385C360.121 174.331 361.238 174.407 362.507 174.407C363.777 174.407 364.665 174.382 365.478 174.331C365.351 175.348 365.249 176.339 365.173 178.043C356.009 182.848 355.272 189.788 355.272 191.797C355.272 194.771 356.973 198 360.68 198C362.888 198 364.843 197.034 367.077 195.534L367.534 196.983L372.306 194.517L372.256 194.339C372.205 194.161 372.129 193.983 372.052 193.754C371.9 193.348 371.697 192.788 371.392 191.822C374.286 188.746 375.835 186 377.967 181.475C379.77 182.339 381.902 183.458 381.902 187.449C381.902 191.797 378.424 194.822 371.824 196.17L371.469 196.246L374.566 200.593L374.718 200.543C377.637 199.805 387.182 196.627 387.182 187.348C387.182 180.356 381.623 178.043 379.567 177.229V177.254ZM372.89 180.509C371.545 183.661 370.555 185.314 369.92 186.229C369.768 184.907 369.539 182.67 369.565 181.043C370.834 180.534 371.722 180.432 372.89 180.483V180.509ZM361.594 193.144C360.73 193.144 360.223 192.458 360.223 191.288C360.223 189.687 361.238 186 365.071 183.204C365.122 185.187 365.427 188.822 365.858 190.551C364.665 191.568 362.888 193.119 361.594 193.119V193.144Z" fill="white"/>
<path d="M425.134 164.568C425.134 164.39 425.083 164.263 424.956 164.161C424.702 163.932 424.246 163.983 423.357 164.085L418.661 164.593L418.711 164.822C419.524 169.449 419.701 173.695 419.701 176.441C419.701 184.882 417.696 189.738 411.477 196.424L411.299 196.602L415.767 199.907L415.944 200.034L416.071 199.882C420.412 194.797 424.931 189.534 424.931 175.5C424.931 174.687 424.804 172.5 424.702 170.39C424.601 168.382 424.499 166.475 424.499 165.814C424.499 165.738 424.702 165.407 424.804 165.229C425.032 164.848 425.109 164.67 425.109 164.543L425.134 164.568Z" fill="white"/>
<path d="M407.847 173.567L407.746 173.771C406.882 175.525 406.045 177.279 404.699 180.406C404.674 179.694 404.623 178.754 404.623 177.889C404.623 172.805 406.299 167.644 406.73 166.779C406.755 166.703 406.959 166.5 407.086 166.347C407.466 165.94 407.593 165.788 407.593 165.61C407.593 165.076 406.959 164.949 405.892 164.694L401.831 163.83L401.78 164.059C401.069 167.491 399.876 173.949 399.876 178.55C399.876 184.805 401.221 187.856 402.11 189.889L402.338 189.839L402.135 189.94L402.211 190.093L405.639 189.533L405.689 189.406C407.796 183.355 410.03 178.601 411.096 176.313L411.426 175.627L407.847 173.593V173.567Z" fill="white"/>
<path d="M455.953 168.331L456.004 167.365C456.105 165.661 456.13 165.356 456.207 165.026C456.232 164.975 456.435 164.797 456.562 164.67C457.019 164.263 457.197 164.085 457.197 163.882C457.197 163.272 456.917 163.221 455.597 163.068L450.622 162.458V162.712C450.622 163.119 450.647 164.289 450.673 165.483C450.698 166.627 450.723 167.797 450.749 168.407C448.439 168.509 440.264 168.789 439.198 168.789H438.97L439.249 173.644V173.899L439.528 173.848C441.381 173.492 445.215 173.161 450.85 172.856C450.85 173.517 450.85 174.305 450.901 178.195C450.241 178.195 449.733 178.195 449.327 178.221C448.109 178.221 447.779 178.246 447.169 178.195C445.951 178.094 445.773 177.814 445.773 177.636C445.773 177.305 446.789 176.797 447.728 176.314L448.032 176.161L445.494 173.797L445.367 173.848C443.387 174.687 440.087 176.517 440.087 179.365C440.087 180.077 440.341 180.661 440.823 181.144C442.498 182.772 446.814 182.67 451.028 182.543C451.104 183.738 451.206 184.729 451.409 186.661C450.647 186.56 449.683 186.483 448.591 186.483C443.133 186.483 439.3 189.026 439.3 192.687C439.3 198.661 447.931 198.966 449.657 198.966C454.353 198.966 457.044 197.187 457.044 194.06C457.044 193.78 457.044 193.5 456.994 193.119C456.994 193.017 456.994 192.89 456.994 192.763C459.989 193.983 462.248 195.356 464.305 197.263L464.508 197.441L467.452 193.068L467.275 192.941C464 190.577 460.598 188.95 456.257 187.678C456.004 185.822 455.851 184.45 455.724 182.314C456.892 182.238 462.274 181.856 465.599 181.017L465.777 180.966L465.929 175.907L465.625 175.983C462.731 176.822 459.634 177.407 455.648 177.839V177.051C455.699 175.348 455.724 173.721 455.775 172.628C457.095 172.577 458.415 172.551 460.827 172.551C464.914 172.551 466.259 172.729 467.224 172.856H467.478L467.706 167.873V167.619H467.452C464.812 167.822 462.858 167.924 455.978 168.204L455.953 168.331ZM448.058 190.933C448.997 190.933 450.216 191.085 451.916 191.365C451.993 192.153 451.993 192.433 451.993 192.865C451.993 193.653 451.993 194.441 448.896 194.441C446.662 194.441 444.25 193.678 444.25 192.56C444.25 191.492 446.179 190.933 448.083 190.933H448.058Z" fill="white"/>
<path d="M500.657 168.992C500.708 164.771 500.708 164.619 501.089 164.364C501.393 164.161 501.622 163.958 501.622 163.627C501.622 162.839 501.165 162.788 499.515 162.585L494.717 161.975L494.767 162.28C495.25 165 495.402 166.525 495.58 169.246C486.542 169.703 483.471 169.831 479.333 169.881H479.079L479.638 175.475L479.942 175.424C481.338 175.169 483.953 174.686 495.681 173.72V176.11C495.377 176.059 494.971 176.008 494.437 176.008C489.97 176.008 486.822 179.466 486.822 184.398C486.822 189.331 490.02 191.898 493.016 191.898C494.539 191.898 495.478 191.466 496.113 190.958C495.072 193.246 493.65 195.508 489.233 198.305L488.878 198.534L494.184 201.025L494.285 200.924C496.595 198.915 498.626 196.932 500.428 192.941C501.723 190.017 502.383 187.093 502.383 184.195C502.383 181.297 501.622 179.975 500.733 178.627L500.657 173.364C502.383 173.237 503.805 173.161 505.48 173.161C506.445 173.161 511.243 173.237 512.715 173.288H512.944V168.051H512.69C508.552 168.458 504.516 168.712 500.606 168.966L500.657 168.992ZM494.209 180.636C495.275 180.636 496.494 181.017 496.494 183.941C496.494 186.661 494.818 187.398 493.828 187.398C491.848 187.398 491.696 184.881 491.696 184.119C491.696 182.237 492.864 180.636 494.234 180.636H494.209Z" fill="white"/>
<path d="M520.89 190.983C518.326 190.983 516.27 193.068 516.27 195.611C516.27 198.153 518.351 200.212 520.89 200.212C523.428 200.212 525.51 198.153 525.51 195.611C525.51 193.068 523.479 190.983 520.89 190.983ZM520.89 192.738C522.514 192.738 523.758 194.009 523.758 195.611C523.758 197.212 522.464 198.458 520.89 198.483C519.316 198.483 518.021 197.161 518.021 195.611C518.021 194.06 519.316 192.738 520.89 192.738Z" fill="white"/>
</g>
<defs>
<clipPath id="clip0_2172_1550">
<rect width="645" height="201" fill="white"/>
</clipPath>
</defs>
</svg>
