<svg width="316" height="29" viewBox="0 0 316 29" fill="none" xmlns="http://www.w3.org/2000/svg">
<path d="M51.7382 1.44217C42.8497 1.44217 37.5439 8.4719 37.5439 15.2644C37.5439 20.2838 40.544 24.8538 43.8353 24.8538C45.7754 24.8538 47.5915 22.9184 49.5378 18.7605C51.4531 14.7275 52.6741 10.2699 53.1762 5.50019C54.3601 5.60008 55.4262 5.8498 56.232 6.21814C56.4118 6.30554 60.6576 8.40947 60.6576 13.5538C60.6576 16.257 59.3436 19.0602 57.3043 20.6896C55.7485 21.9507 54.1246 22.5064 52.9407 22.9122L51.6576 23.3554L54.1122 27.12L54.8188 26.8328C63.1308 23.4865 64.8725 17.7616 64.8725 13.5475C64.8725 6.52405 59.3498 1.42969 51.7444 1.42969L51.7382 1.44217ZM48.8807 5.77488C48.6576 7.90378 48.106 11.4436 46.3642 15.7389C44.5605 20.2089 43.9716 20.2089 43.7733 20.2089C43.296 20.2089 41.5357 18.3859 41.5357 15.2082C41.5357 12.6173 42.67 10.7506 43.5192 9.57068C45.3043 7.1109 47.1204 6.23063 48.8807 5.78113V5.77488Z" fill="#15327E"/>
<path d="M0 5.11344V11.2005L5.19422 6.60554V28.394H10.3699V0.225098H5.62191L0 5.11344Z" fill="#15327E"/>
<path d="M22.5373 0C17.6282 0 14.1943 3.43995 14.1943 8.36575V20.2589C14.1943 25.1847 17.622 28.6246 22.5373 28.6246C27.4526 28.6246 30.9175 25.1847 30.9175 20.2589V8.36575C30.9175 3.43995 27.4712 0 22.5373 0ZM19.37 8.47813C19.37 6.21188 20.5848 4.80094 22.5373 4.80094C24.4898 4.80094 25.7419 6.21188 25.7419 8.47813V20.1402C25.7419 22.4065 24.5146 23.8174 22.5373 23.8174C20.5601 23.8174 19.37 22.4065 19.37 20.1402V8.47813Z" fill="#15327E"/>
<path d="M138.531 16.478L84.1588 0.983398H74.2451V27.8115H85.545V12.3169L139.911 27.8115H149.824V0.983398H138.531V16.478Z" fill="#15327E"/>
<path d="M283.602 0.894531H272.213H239.809V10.2981H272.213V27.9417H283.602V10.2981H315.999V0.894531H283.602Z" fill="#15327E"/>
<path d="M234.151 1.17826H222.717V1.19871L169.468 1.19868V1.17823H158.034V27.9015H169.014V27.922L234.151 27.922V18.6506V10.47V1.19871V1.17826ZM222.724 18.6506H169.475V10.47L222.724 10.47V18.6506Z" fill="#15327E"/>
</svg>
