<svg width="708" height="72" viewBox="0 0 708 72" fill="none" xmlns="http://www.w3.org/2000/svg">
<path d="M128.946 4.13268C106.793 4.13268 93.5693 21.6529 93.5693 38.5818C93.5693 51.0917 101.046 62.4814 109.249 62.4814C114.084 62.4814 118.611 57.6579 123.462 47.2952C128.235 37.2436 131.278 26.134 132.53 14.2465C135.48 14.4954 138.137 15.1178 140.146 16.0358C140.594 16.2537 151.176 21.4973 151.176 34.3184C151.176 41.0557 147.901 48.042 142.818 52.1031C138.941 55.2461 134.893 56.631 131.943 57.6423L128.745 58.7471L134.862 68.1295L136.623 67.4138C157.339 59.0738 161.68 44.8056 161.68 34.3029C161.68 16.7982 147.916 4.10156 128.961 4.10156L128.946 4.13268ZM121.824 14.9311C121.268 20.2369 119.893 29.0592 115.552 39.7643C111.057 50.905 109.589 50.905 109.095 50.905C107.905 50.905 103.518 46.3616 103.518 38.4417C103.518 31.9845 106.345 27.3321 108.461 24.3914C112.91 18.2608 117.437 16.0669 121.824 14.9466V14.9311Z" fill="#15327E"/>
<path d="M0 13.2828V28.4535L12.9456 17.0016V71.3048H25.8448V1.09961H14.0115L0 13.2828Z" fill="#15327E"/>
<path d="M56.1692 0.539062C43.9343 0.539062 35.376 9.11243 35.376 21.389V51.0302C35.376 63.3067 43.9188 71.8801 56.1692 71.8801C68.4196 71.8801 77.0551 63.3067 77.0551 51.0302V21.389C77.0551 9.11243 68.4659 0.539062 56.1692 0.539062ZM48.2752 21.6691C48.2752 16.0209 51.303 12.5044 56.1692 12.5044C61.0354 12.5044 64.1559 16.0209 64.1559 21.6691V50.7345C64.1559 56.3827 61.0972 59.8992 56.1692 59.8992C51.2412 59.8992 48.2752 56.3827 48.2752 50.7345V21.6691Z" fill="#15327E"/>
<path d="M319.564 39.3379L200.603 5.4375H178.913V64.1343H203.636V30.2339L322.582 64.1343H344.272V5.4375H319.564V39.3379Z" fill="#15327E"/>
<path d="M636.959 5.24316H612.043H541.146V25.817H612.043V64.4191H636.959V25.817H707.842V5.24316H636.959Z" fill="#15327E"/>
<path d="M528.767 5.86335H503.751V5.9081L387.248 5.90804V5.86329H362.232V64.3307H386.255V64.3755L528.767 64.3755V44.0909V26.1927V5.9081V5.86335ZM503.766 44.0909H387.263V26.1926L503.766 26.1927V44.0909Z" fill="#15327E"/>
</svg>
