<svg width="1191" height="310" viewBox="0 0 1191 310" fill="none" xmlns="http://www.w3.org/2000/svg">
<path d="M414.223 53.3079C414.673 51.7487 416.321 46.9285 416.321 46.9285L401.5 42.7671C401.5 42.7671 399.083 48.3889 398.622 50.53C397.985 50.4641 397.303 50.4311 396.458 50.4311C389.756 50.4311 383.449 51.5401 379.198 52.4624C379.417 49.5967 379.615 46.676 379.846 43.2502L379.923 42.1413C392.887 40.4174 399.742 38.7484 416.618 34.6529L421.111 33.5659L422.474 16.2834L418.518 17.7876C406.466 22.3663 394.403 25.4517 381.758 27.1536C382.779 21.1805 384.229 15.0536 386.108 8.89385L386.91 6.26963L370.321 1.69098L369.782 4.54578C367.42 17.0081 366.453 23.0031 365.849 29.2398C356.686 29.4264 350.127 29.0641 343.03 28.032L339.02 27.45L343.184 43.1734L345.085 43.3161C349.27 43.6236 356.565 43.909 360.389 43.909C361.663 43.909 362.773 43.909 364.443 43.8212C364.058 48.4438 364.014 52.9565 364.014 57.623C357.225 61.1037 352.533 63.7499 347.029 68.8336C340.668 74.4663 330 86.2918 330 102.191C330 112.435 336.757 123.031 348.073 123.031C354.873 123.031 362.575 120.505 371.529 115.312C371.969 116.893 372.419 117.87 373.232 119.155L374.704 121.461L387.998 112.611L387.229 110.612C385.998 107.406 385.548 105.957 385.295 104.892C397.589 93.1872 405.609 75.4655 409.114 67.1427C415.014 69.2728 424.726 73.9393 424.726 86.5114C424.726 92.8468 422.287 98.4247 417.299 103.519C409.279 111.535 404.818 113.226 393.205 115.037L397.897 130.124C405.093 128.18 410.301 126.632 416.947 123.009C427.824 117.124 440.777 106.177 440.777 87.3898C440.777 79.3085 438.129 71.8751 433.131 65.9129C426.791 58.205 419.991 55.3172 414.223 53.2969V53.3079ZM394.106 64.5953C389.811 74.8946 385.702 81.252 381.516 86.9067C380.615 82.0425 379.659 75.6522 379.033 66.2862C384.713 64.9357 389.338 64.6502 394.106 64.5843V64.5953ZM364.267 72.7205C365.08 85.1608 366.618 93.4947 368.002 100.906C364.52 103.497 358.796 107.439 352.907 107.439C350.754 107.439 345.755 106.824 345.755 101.17C345.755 96.6898 347.491 91.5841 350.907 86.0502C355.203 79.2756 359.763 75.6631 364.256 72.7315L364.267 72.7205Z" fill="white"/>
<path d="M668.781 40.3735L670.517 39.7256V22.9372L666.847 24.4086C662.057 26.3191 656.564 28.3614 646.808 30.5464L647.632 27.5269C649.785 19.7091 650.587 16.7884 652.103 10.6946L652.664 8.44366L634.822 1.14197L634.668 4.95202C634.272 14.5705 631.372 26.1434 629.493 33.2694C624.549 33.9172 619.726 34.4772 613.727 34.4772C608.322 34.4772 606.356 34.2137 603.763 33.7855L600.28 33.2035L602.093 49.7174L604.422 49.7833C612.332 50.0249 618.342 49.7833 625.077 49.3221C622.121 58.3697 618.32 69.4485 611.882 83.986C604.378 100.95 599.181 108.46 594.149 115.729L591.601 119.418L609.113 123.744L610.146 122.119C615.068 114.335 618.869 107.856 626.494 89.3112C633.668 71.6774 638.238 57.634 641.6 47.1591C647.852 46.127 658.827 44.1506 668.792 40.3954L668.781 40.3735Z" fill="white"/>
<path d="M675.614 110.514C663.09 110.514 656.74 107.813 656.74 102.487C656.74 99.0175 657.399 97.1949 658.135 95.482L659.19 93.0335L645.325 87.0274L644.369 89.7175C641.556 97.6231 641.139 102.85 641.139 105.265C641.139 118.233 653.553 125.666 675.186 125.666C684.634 125.666 693.775 124.788 703.114 122.976L705.014 122.614L707.245 105.243L703.333 106.363C693.698 109.119 684.371 110.514 675.625 110.514H675.614Z" fill="white"/>
<path d="M684.261 50.4311C677.647 50.4311 666.462 51.3863 660.639 52.0561L658.343 52.3197L657.882 68.3504L661.705 67.472C665.21 66.6595 669.187 65.7372 680.009 65.7372C689.567 65.7372 694.258 66.385 703.509 68.3175L706.596 68.9653L707.266 53.3847L705.146 52.8577C698.609 51.2216 691.786 50.4311 684.261 50.4311Z" fill="white"/>
<path d="M845.85 98.0623C835.798 92.9017 828.986 90.4312 822.086 88.1913C820.878 72.0946 820.647 59.0284 820.625 48.2241C829.041 46.9175 834.04 45.9183 838.5 45.018L842.115 44.2933L841.434 26.5057L837.753 28.2845C834.49 29.8546 830.14 31.9518 820.878 33.8623C821.251 28.8994 821.988 20.4777 823.646 12.9564L824.196 10.464L807.167 5.88531L806.925 9.11343C806.409 16.0638 805.53 28.2076 805.123 36.2011C802.75 36.2999 800.113 36.3767 795.807 36.3767C786.578 36.3767 783.37 35.685 778.041 34.5321L774.174 33.6976L777.108 50.8484L779.25 50.9582C785.018 51.2436 795.345 51.1009 805.013 50.3213C805.068 56.7885 805.343 61.5429 806.244 77.0137L806.705 85.0291C803.014 84.4471 799.004 84.1397 794.917 84.1397C777.272 84.1397 769.373 93.8679 769.373 103.519C769.373 112.666 777.02 123.338 798.586 123.338C818.45 123.338 821.779 112.633 822.669 104.255C826.514 105.836 831.304 108.131 839.841 113.423L842.763 115.235L847.85 99.1054L845.839 98.0733L845.85 98.0623ZM805.651 107.824C804.475 109.042 802.256 109.635 798.894 109.635C790.665 109.635 783.974 106.495 783.974 102.641C783.974 100.247 786.512 97.7 793.62 97.7C796.653 97.7 801.553 98.4137 807.277 99.6654C807.342 103.486 807.123 106.319 805.662 107.834L805.651 107.824Z" fill="white"/>
<path d="M755.992 79.9673C755.486 81.0543 753.893 84.3812 752.278 87.7521C751.773 83.1515 751.421 77.8152 751.421 70.1072C751.421 53.2859 754.069 37.2002 760.551 14.5705L761.265 12.1L745.862 7.03821L745.137 9.77222C739.534 30.7769 736.688 51.4193 736.688 71.1284C736.688 85.3585 738.413 106.539 743.247 123.305L743.962 125.787L755.86 122.811L756.168 120.527C756.695 116.52 757.079 113.621 760.639 104.332C762.968 98.2709 764.935 94.2742 766.363 91.3645C766.704 90.6618 767.022 90.0249 767.297 89.432L768.066 87.818L757.717 76.3L756.003 79.9673H755.992Z" fill="white"/>
<path d="M528.769 40.088L531.01 39.7366L534.108 21.6306L529.165 23.2117C526.286 24.1341 523.32 25.0783 513.97 26.6485C515.311 22.9482 516.332 19.8958 519.09 11.3094L519.903 8.77307L503.039 6.10352e-05L502.346 4.30422C500.698 14.5705 497.963 23.3435 496.029 29.1849C494.458 29.2837 493.074 29.2837 490.569 29.2837C481.296 29.2837 477.616 28.4931 474.089 27.5488L469.936 26.4289L470.65 43.4479L473.452 43.7992C475.726 44.0847 479.165 44.5129 485.592 44.5129C486.306 44.5129 487.976 44.4361 490.646 44.3043C490.8 44.3043 490.953 44.2933 491.118 44.2823C479.022 74.7628 470.782 85.4134 465.245 92.5723L462.707 95.8553L479.879 102.861L481.252 100.467C492.371 81.0104 500.995 60.4778 507.983 42.7232C515.431 41.8667 524.572 40.7468 528.769 40.088Z" fill="white"/>
<path d="M543.435 93.3189C543.105 89.6516 542.82 86.4016 542.556 83.5687C541.831 75.6082 541.358 70.3488 541.358 68.8555C541.358 64.6392 542.413 63.1899 546.621 59.6433L549.466 57.2387L537.118 46.7968L535.074 48.6963C529.196 54.1424 524.703 58.9955 524.703 67.7246C524.703 69.4924 525.296 75.5973 526.12 84.0299C526.296 85.8416 526.472 87.6203 526.614 89.1466C523.121 88.5536 519.111 87.9497 515.375 87.9497C498.687 87.9497 489.678 97.8207 489.678 107.11C489.678 117.848 500.51 128.96 518.638 128.96C536.766 128.96 540.644 117.486 542.402 109.668C548.181 112.336 551.774 114.137 557.278 117.464L560.541 119.429L566.528 103.322L564.035 102.048C559.069 99.5007 554.366 97.0961 543.435 93.3189ZM526.977 106.264C526.977 113.335 520.704 113.884 518.781 113.884C512.299 113.884 504.773 111.052 504.773 107.395C504.773 105.496 508.245 102.751 514.529 102.751C518.814 102.751 523.264 103.64 526.977 104.42V106.264Z" fill="white"/>
<path d="M545.568 27.406L543.524 26.7802L538.36 39.0338L540.591 39.9342C556.202 46.2037 559.465 47.5762 569.826 53.8788L572.067 55.2403L578.527 41.702L576.637 40.604C567.65 35.3994 557.202 30.9635 545.579 27.406H545.568Z" fill="white"/>
<g clip-path="url(#clip0_2495_737)">
<path d="M96.689 214.793C89.8427 217.238 78.3812 221.333 62.6713 225.582C61.2196 225.949 59.6914 226.346 58.1632 226.743C66.7516 216.917 78.8549 204.477 81.8961 201.864C86.175 198.15 86.8169 197.539 88.5896 195.125L90.0566 193.123L79.3593 180.484L77.4032 181.05C58.102 186.658 48.1229 188.003 26.3767 187.85L21.3642 187.82L29.6929 205.364L31.8782 205.165C42.6214 204.217 53.9453 202.231 62.0448 200.55C61.6475 200.993 61.2043 201.482 60.7 202.032C51.2252 212.286 48.4286 215.343 41.5058 222.892L34.8582 230.151C31.8476 233.284 30.9001 234.155 26.7434 235.225C20.3709 236.814 11.1253 238.938 4.2331 239.091L0 239.183L6.26561 258.454L9.322 257.353C14.8388 255.382 17.0394 254.694 19.7901 253.869C23.0605 252.86 32.1991 250.262 41.8573 247.496C47.4505 245.907 53.1201 244.287 58.0562 242.866C49.8803 251.149 41.5975 262.35 41.5975 275.615C41.5975 292.487 52.0351 303.49 70.9542 306.577C76.8836 307.57 81.7738 307.861 88.5284 308.273L92.4406 308.518V290.668L89.2467 290.714C80.5512 290.852 77.6171 290.714 73.5368 290.042C62.9006 288.299 57.506 283.822 57.506 276.731C57.506 264.857 67.7602 254.343 72.681 249.3L73.1395 248.826C85.09 236.875 90.6526 234.308 92.8991 233.834L93.6173 233.697C96.7043 233.085 98.4006 232.749 102.099 231.649L104.743 230.869L101.87 212.959L96.689 214.808V214.793Z" fill="white"/>
<path d="M227.228 257.292C222.796 265.743 214.574 281.499 203.556 281.499C201.111 281.499 198.925 281.086 198.925 276.013C198.925 275.417 198.971 272.223 199.735 267.47L199.766 267.302C201.859 254.587 202.18 252.631 202.18 248.429C202.18 240.512 197.947 231.282 186.027 231.282C178.524 231.282 170.944 234.797 163.578 239.366C170.058 224.466 179.166 206.953 186.348 194.391L187.953 191.594L170.562 182.15L166.787 191.64C164.021 198.609 162.508 202.445 160.506 206.999C156.946 215.282 143.36 245.815 133.442 268.112C128.751 278.672 124.777 287.581 122.898 291.845L121.553 294.871L137.782 301.091L138.974 298.325C149.748 273.338 152.3 267.776 160.155 259.921C162.982 257.093 172.824 247.878 181.214 247.878C184.163 247.878 185.706 249.789 185.706 251.653C185.676 252.601 184.79 257.812 184.331 260.089C183.185 267.348 182.589 273.659 182.589 276.135C182.589 289.415 190.184 297.667 202.425 297.667C208.171 297.667 213.963 295.742 220.137 291.784C230.07 285.258 234.914 277.526 239.178 270.695L240.401 268.738L229.688 252.57L227.212 257.292H227.228Z" fill="white"/>
<path d="M324.498 217.024L326.729 216.672L329.816 198.594L324.88 200.168C322.007 201.085 319.042 202.032 309.72 203.591C311.065 199.893 312.073 196.851 314.824 188.278L315.634 185.757L298.809 177L298.121 181.31C296.471 191.564 293.75 200.305 291.825 206.158C290.251 206.25 288.875 206.25 286.369 206.25C277.108 206.25 273.441 205.471 269.926 204.523L265.784 203.407L266.503 220.386L269.299 220.737C271.576 221.028 274.999 221.456 281.418 221.456C282.136 221.456 283.802 221.379 286.461 221.242C286.614 221.242 286.767 221.226 286.935 221.211C274.877 251.638 266.64 262.274 261.108 269.426L258.571 272.696L275.702 279.68L277.062 277.281C288.157 257.858 296.761 237.364 303.73 219.637C311.172 218.781 320.28 217.666 324.467 217.009L324.498 217.024Z" fill="white"/>
<path d="M339.122 270.16C338.801 266.492 338.511 263.252 338.251 260.425C337.533 252.478 337.059 247.221 337.059 245.739C337.059 241.536 338.113 240.084 342.316 236.539L345.158 234.14L332.841 223.717L330.793 225.612C324.94 231.053 320.447 235.897 320.447 244.608C320.447 246.365 321.028 252.463 321.868 260.883C322.052 262.702 322.22 264.459 322.373 265.988C318.889 265.392 314.885 264.796 311.156 264.796C294.498 264.796 285.513 274.653 285.513 283.929C285.513 294.657 296.317 305.752 314.411 305.752C332.505 305.752 336.356 294.305 338.113 286.481C343.875 289.14 347.466 290.943 352.952 294.259L356.207 296.231L362.182 280.154L359.691 278.886C354.74 276.349 350.048 273.934 339.137 270.175L339.122 270.16ZM322.709 283.088C322.709 290.149 316.459 290.699 314.533 290.699C308.069 290.699 300.565 287.872 300.565 284.219C300.565 282.324 304.034 279.589 310.3 279.589C314.579 279.589 319.011 280.475 322.709 281.254V283.088Z" fill="white"/>
<path d="M473.894 251.424C476.263 255.596 478.081 260.562 478.081 266.263C478.081 279.955 466.727 290.286 451.659 290.286C436.591 290.286 430.616 279.787 430.616 269.946C430.616 267.057 430.936 263.267 431.349 260.058C436.499 259.982 446.28 259.6 458.979 257.491L461.225 257.109L464.159 237.716L459.361 239.213C454.853 240.619 446.784 243.126 433.32 243.752C433.366 243.523 433.397 243.278 433.443 243.049C434.13 238.847 434.833 234.506 436.362 226.117C441.099 225.826 446.799 225.261 460.033 222.816L462.417 222.373L463.823 204.141L459.285 205.715C454.165 207.503 448.771 209.169 439.846 210.04C441.649 200.825 443.437 193.352 445.836 187.361L447.12 184.167L424.992 177.565L425.068 181.86C425.19 188.889 424.274 194.834 422.027 209.169L421.89 210.086C417.213 209.612 410.871 208.649 400.755 205.394L396.766 204.11L396.308 220.371L398.309 221.196C404.01 223.565 409.221 225.077 419.124 225.964C418.405 230.793 417.198 238.251 416.373 243.278C410.474 242.851 404.82 241.704 399.853 239.932L395.65 238.434V256.62L398.982 257.307C402.481 258.041 406.394 258.851 414.111 259.508C413.897 262.35 413.622 266.095 413.622 269.625C413.622 272.589 414.111 282.981 420.392 292.319C428.522 304.361 443.147 306.149 451.155 306.149C475.82 306.149 495.885 288.177 495.885 266.079C495.885 256.283 492.294 248.046 488.305 241.827L473.94 251.378L473.894 251.424Z" fill="white"/>
<path d="M616.933 257.292C612.501 265.743 604.279 281.499 593.261 281.499C590.816 281.499 588.63 281.086 588.63 276.013C588.63 275.417 588.676 272.223 589.44 267.47L589.471 267.302C591.565 254.587 591.885 252.631 591.885 248.429C591.885 240.512 587.652 231.282 575.732 231.282C568.229 231.282 560.649 234.797 553.283 239.366C559.763 224.466 568.871 206.953 576.053 194.391L577.658 191.594L560.267 182.15L556.492 191.64C553.726 198.609 552.214 202.445 550.212 206.999C546.651 215.282 533.065 245.815 523.147 268.112C518.456 278.672 514.482 287.581 512.603 291.845L511.258 294.871L527.487 301.091L528.679 298.325C539.453 273.338 542.005 267.776 549.86 259.921C552.687 257.093 562.544 247.894 570.919 247.894C573.868 247.894 575.412 249.804 575.412 251.668C575.381 252.616 574.495 257.827 574.036 260.104C572.89 267.363 572.294 273.675 572.294 276.15C572.294 289.43 579.889 297.683 592.13 297.683C597.876 297.683 603.668 295.757 609.842 291.799C619.775 285.274 624.619 277.541 628.883 270.71L630.106 268.754L619.393 252.585L616.917 257.307L616.933 257.292Z" fill="white"/>
<path d="M726.932 249.345C710.137 284.632 691.661 288.437 684.51 288.437C682.966 288.437 675.065 288.04 671.81 280.215C671.214 278.932 669.976 276.242 669.976 259.325C669.976 252.616 670.129 217.803 673.216 190.647L673.537 187.759L652.998 183.831L653.686 188.248C654.633 194.376 654.633 201.467 654.633 207.717C654.633 210.575 654.496 218.735 654.358 227.385C654.205 236.401 654.068 245.724 654.068 249.162C654.068 272.1 654.45 277.373 656.605 284.28C659.554 294.275 669.319 304.361 684.51 304.361C705.11 304.361 724.166 289.996 741.144 261.647L742.642 259.141L728.842 245.342L726.932 249.361V249.345Z" fill="white"/>
<path d="M842.158 223.641C836.962 223.641 832.133 224.787 828.939 225.689C824.783 220.141 821.344 215.618 816.76 210.636L815.124 208.863L801.233 216.183L804.549 219.194C807.346 221.731 810.601 224.909 815.445 230.762C811.243 232.81 807.407 234.766 802.303 237.548C796.19 224.481 794.066 221.15 792.339 218.445L791.071 216.458L775.529 220.967L778.448 224.634C783.078 230.457 786.73 236.982 790.245 243.767C782.406 247.664 777.699 249.834 770.761 252.066L766.283 253.502L777.195 266.4L779.441 265.178C780.129 264.796 780.679 264.475 781.26 264.138C781.993 263.711 782.757 263.267 783.934 262.641L784.071 262.564C785.156 261.907 788.625 259.966 791.972 258.087C793.393 257.292 794.799 256.497 796.007 255.825C804.427 274.637 810.295 290.546 814.36 305.675L815.354 309.343L829.902 302.313L828.802 299.593C819.419 276.196 815.476 266.492 807.774 249.544C812.19 247.267 817.692 244.516 823.086 241.903C823.147 241.995 823.193 242.086 823.254 242.178C825.134 245.342 825.241 245.54 826.754 249.651L828.007 253.044L841.669 245.708L840.095 242.912C838.246 239.641 837.176 237.976 836.351 236.784C837.742 236.386 839.193 236.142 840.89 236.142C846.651 236.142 852.596 239.672 852.596 245.586C852.596 249.238 851.45 252.203 849.188 254.404C845.474 258.01 838.811 259.707 829.367 259.447L824.37 259.309L830.406 272.773H832.439C859.136 272.773 866.258 255.856 866.258 245.861C866.258 233.804 855.224 223.626 842.174 223.626L842.158 223.641Z" fill="white"/>
<path d="M1059.93 256.07C1054.59 275.264 1051.51 278.626 1050.51 279.207C1047.21 278.534 1036.1 266.522 1036.1 234.705C1036.1 223.748 1037.54 216.122 1038.3 212.027L1038.96 208.496L1020.35 202.643L1019.98 207.839C1019.67 211.996 1019.22 218.277 1019.22 227.217C1019.22 246.579 1021.32 261.22 1025.63 271.856C1025.73 272.1 1034.94 296.98 1050.38 296.98C1063.37 296.98 1070.82 275.875 1074.41 265.743L1075.1 263.787L1061.3 251.133L1059.93 256.07Z" fill="white"/>
<path d="M1111.44 205.18L1110.05 203.606L1094.33 208.924L1096.94 212.393C1105.44 223.717 1114.93 238.281 1119.98 267.76L1120.6 271.367L1137.76 265.651L1137.19 262.916C1135.28 253.701 1129.46 225.643 1111.44 205.18Z" fill="white"/>
<path d="M1166.08 260.287C1152.34 260.287 1141.15 271.474 1141.15 285.212C1141.15 298.951 1152.34 310 1166.08 310C1179.81 310 1191 298.875 1191 285.212C1191 271.55 1179.81 260.287 1166.08 260.287ZM1166.08 297.912C1159.08 297.912 1153.38 292.212 1153.38 285.212C1153.38 278.213 1159.08 272.513 1166.08 272.513C1173.07 272.513 1178.77 278.213 1178.77 285.212C1178.77 292.212 1173.07 297.912 1166.08 297.912Z" fill="white"/>
<path d="M712.308 222.892L713.637 224.97L725.083 216.917L723.952 215.037C720.896 209.948 717.091 204.263 710.015 197.188L708.609 195.782L697.515 203.683L699.211 205.639C702.726 209.688 707.081 214.731 712.308 222.907V222.892Z" fill="white"/>
<path d="M727.712 211.385L728.996 213.662L740.732 205.333L739.54 203.438C735.812 197.554 732.618 193.199 725.542 185.68L724.09 184.152L712.935 192.511L714.738 194.437C718.696 198.639 723.754 204.355 727.697 211.369L727.712 211.385Z" fill="white"/>
<path d="M341.262 204.355L339.229 203.728L334.079 215.969L336.31 216.871C351.883 223.121 355.138 224.497 365.468 230.793L367.699 232.153L374.148 218.644L372.269 217.559C363.298 212.363 352.876 207.931 341.277 204.386L341.262 204.355Z" fill="white"/>
<path d="M964.521 270.16C964.2 266.492 963.91 263.252 963.65 260.425C962.932 252.478 962.458 247.221 962.458 245.739C962.458 241.536 963.513 240.084 967.715 236.539L970.558 234.14L958.24 223.717L956.193 225.612C950.34 231.053 945.847 235.897 945.847 244.608C945.847 246.365 946.427 252.463 947.268 260.883C947.451 262.702 947.619 264.459 947.772 265.988C944.288 265.392 940.284 264.796 936.555 264.796C919.898 264.796 910.912 274.653 910.912 283.929C910.912 294.657 921.716 305.752 939.81 305.752C957.904 305.752 961.755 294.305 963.513 286.481C969.274 289.14 972.865 290.943 978.351 294.259L981.607 296.231L987.582 280.154L985.091 278.886C980.139 276.349 975.448 273.934 964.536 270.175L964.521 270.16ZM948.093 281.254V283.088C948.093 290.149 941.843 290.699 939.917 290.699C933.453 290.699 925.95 287.872 925.95 284.219C925.95 282.324 929.419 279.589 935.684 279.589C939.963 279.589 944.395 280.475 948.093 281.254Z" fill="white"/>
<path d="M949.882 217.024L952.113 216.672L955.2 198.594L950.264 200.168C947.391 201.085 944.426 202.032 935.104 203.591C936.449 199.893 937.457 196.851 940.208 188.278L941.018 185.757L924.193 177L923.505 181.31C921.854 191.564 919.134 200.305 917.209 206.158C915.635 206.25 914.259 206.25 911.753 206.25C902.492 206.25 898.824 205.471 895.31 204.523L891.168 203.407L891.886 220.386L894.683 220.737C896.96 221.028 900.383 221.456 906.802 221.456C907.52 221.456 909.186 221.379 911.845 221.242C911.997 221.242 912.15 221.226 912.318 221.211C900.261 251.638 892.024 262.274 886.492 269.426L883.955 272.696L901.086 279.68L902.446 277.281C913.541 257.858 922.145 237.364 929.113 219.637C936.556 218.781 945.664 217.666 949.851 217.009L949.882 217.024Z" fill="white"/>
<path d="M966.645 204.355L964.613 203.728L959.463 215.969L961.694 216.871C977.572 223.244 980.491 224.481 990.867 230.793L993.098 232.153L999.547 218.644L997.668 217.559C988.697 212.363 978.275 207.931 966.676 204.386L966.645 204.355Z" fill="white"/>
</g>
<defs>
<clipPath id="clip0_2495_737">
<rect width="1191" height="133" fill="white" transform="translate(0 177)"/>
</clipPath>
</defs>
</svg>
