<svg width="295" height="228" viewBox="0 0 295 228" fill="none" xmlns="http://www.w3.org/2000/svg">
<path d="M64.5995 26.2453C64.8131 25.5058 65.5947 23.2198 65.5947 23.2198L58.5658 21.2462C58.5658 21.2462 57.4195 23.9124 57.2007 24.9278C56.8985 24.8966 56.5754 24.881 56.1742 24.881C52.9959 24.881 50.0051 25.4069 47.9886 25.8443C48.0928 24.4852 48.1866 23.1001 48.296 21.4754L48.3325 20.9494C54.4808 20.1319 57.7322 19.3404 65.7354 17.398L67.8665 16.8825L68.5126 8.68612L66.6368 9.39953C60.9209 11.571 55.1999 13.0343 49.2027 13.8414C49.6872 11.0086 50.375 8.1029 51.266 5.18158L51.6464 3.93703L43.7786 1.76556L43.5233 3.11947C42.403 9.02981 41.9445 11.873 41.6579 14.8308C37.3124 14.9193 34.2018 14.7475 30.8358 14.258L28.934 13.982L30.9088 21.4389L31.8102 21.5066C33.7954 21.6524 37.2551 21.7878 39.0683 21.7878C39.6728 21.7878 40.199 21.7878 40.991 21.7461C40.8086 23.9384 40.7878 26.0787 40.7878 28.2918C37.5677 29.9425 35.3429 31.1975 32.7324 33.6085C29.7156 36.2798 24.6562 41.8882 24.6562 49.4284C24.6562 54.2868 27.8607 59.3119 33.2274 59.3119C36.4527 59.3119 40.1052 58.1142 44.3517 55.6512C44.5602 56.401 44.7738 56.8645 45.1593 57.4737L45.8576 58.5673L52.1622 54.3702L51.7975 53.4224C51.2139 51.9019 51.0003 51.2145 50.8804 50.7094C56.7109 45.1584 60.5145 36.7537 62.1767 32.8065C64.9747 33.8168 69.5807 36.0299 69.5807 41.9923C69.5807 44.9969 68.424 47.6423 66.0584 50.0585C62.2548 53.8598 60.1394 54.6618 54.6319 55.521L56.8568 62.6759C60.2696 61.7542 62.7394 61.0199 65.8917 59.3015C71.0501 56.5104 77.1932 51.3186 77.1932 42.4089C77.1932 38.5763 75.9374 35.0509 73.5667 32.2233C70.5603 28.5678 67.335 27.1982 64.5995 26.2401V26.2453ZM55.0592 31.5984C53.0219 36.4829 51.0732 39.498 49.088 42.1798C48.6608 39.8729 48.2075 36.8422 47.9105 32.4004C50.6043 31.7599 52.7979 31.6245 55.0592 31.5932V31.5984ZM40.9076 35.4519C41.2932 41.3518 42.0227 45.3042 42.6792 48.8191C41.0275 50.0481 38.3128 51.9175 35.52 51.9175C34.4988 51.9175 32.128 51.6259 32.128 48.9441C32.128 46.8195 32.9513 44.3981 34.5717 41.7736C36.609 38.5607 38.7713 36.8474 40.9024 35.4571L40.9076 35.4519Z" fill="white"/>
<path d="M185.326 20.111L186.149 19.8038V11.8418L184.409 12.5395C182.137 13.4456 179.532 14.4142 174.905 15.4505L175.296 14.0184C176.317 10.3108 176.698 8.92565 177.417 6.03558L177.682 4.96807L169.221 1.50519L169.148 3.31214C168.96 7.87377 167.584 13.3623 166.693 16.7419C164.349 17.0491 162.061 17.3147 159.216 17.3147C156.653 17.3147 155.72 17.1897 154.491 16.9866L152.839 16.7106L153.699 24.5425L154.803 24.5737C158.555 24.6883 161.405 24.5737 164.599 24.355C163.197 28.6459 161.394 33.9001 158.341 40.7946C154.782 48.8399 152.318 52.4018 149.931 55.849L148.723 57.5987L157.028 59.6504L157.518 58.8797C159.852 55.1877 161.655 52.1154 165.271 43.3202C168.673 34.9572 170.841 28.297 172.435 23.3292C175.4 22.8397 180.605 21.9024 185.331 20.1214L185.326 20.111Z" fill="white"/>
<path d="M188.566 53.3755C182.626 53.3755 179.615 52.0945 179.615 49.5689C179.615 47.9234 179.927 47.059 180.276 46.2467L180.777 45.0854L174.201 42.237L173.748 43.5128C172.414 47.2621 172.216 49.7408 172.216 50.8864C172.216 57.0363 178.104 60.5616 188.363 60.5616C192.844 60.5616 197.179 60.1451 201.608 59.2858L202.509 59.114L203.567 50.876L201.712 51.4071C197.143 52.7142 192.719 53.3755 188.571 53.3755H188.566Z" fill="white"/>
<path d="M192.667 24.881C189.53 24.881 184.226 25.334 181.464 25.6516L180.375 25.7766L180.156 33.3793L181.969 32.9627C183.632 32.5774 185.518 32.14 190.65 32.14C195.183 32.14 197.408 32.4472 201.795 33.3637L203.259 33.6709L203.577 26.2817L202.572 26.0318C199.471 25.2559 196.236 24.881 192.667 24.881Z" fill="white"/>
<path d="M269.302 47.4704C264.535 45.0229 261.304 43.8513 258.032 42.789C257.459 35.155 257.349 28.9583 257.339 23.8342C261.33 23.2146 263.701 22.7407 265.816 22.3137L267.531 21.97L267.208 13.5341L265.462 14.3777C263.915 15.1224 261.851 16.117 257.459 17.023C257.636 14.6693 257.985 10.6753 258.772 7.10826L259.032 5.92619L250.956 3.75473L250.842 5.28569C250.597 8.58194 250.18 14.3413 249.987 18.1322C248.862 18.1791 247.611 18.2155 245.569 18.2155C241.192 18.2155 239.67 17.8875 237.143 17.3407L235.309 16.9449L236.7 25.0788L237.716 25.1309C240.452 25.2663 245.35 25.1986 249.935 24.8289C249.961 27.896 250.091 30.1508 250.518 37.4879L250.737 41.2893C248.987 41.0133 247.085 40.8675 245.147 40.8675C236.779 40.8675 233.032 45.4812 233.032 50.0584C233.032 54.3962 236.659 59.4577 246.887 59.4577C256.307 59.4577 257.886 54.3805 258.308 50.4073C260.132 51.1572 262.404 52.2455 266.452 54.7555L267.838 55.6147L270.25 47.9651L269.297 47.4756L269.302 47.4704ZM250.237 52.0997C249.68 52.6777 248.627 52.9589 247.033 52.9589C243.13 52.9589 239.957 51.4696 239.957 49.6418C239.957 48.5066 241.161 47.2985 244.532 47.2985C245.97 47.2985 248.294 47.637 251.008 48.2307C251.04 50.0428 250.935 51.3863 250.242 52.1049L250.237 52.0997Z" fill="white"/>
<path d="M226.686 38.8887C226.446 39.4042 225.691 40.982 224.925 42.5807C224.685 40.3988 224.518 37.868 224.518 34.2125C224.518 26.2348 225.774 18.6061 228.848 7.87375L229.187 6.7021L221.882 4.30151L221.538 5.59814C218.881 15.5598 217.531 25.3496 217.531 34.6968C217.531 41.4455 218.349 51.4905 220.642 59.4421L220.981 60.6189L226.623 59.2077L226.769 58.1246C227.019 56.2239 227.202 54.8492 228.89 50.4438C229.995 47.5693 230.927 45.6739 231.605 44.2939C231.766 43.9606 231.917 43.6586 232.048 43.3774L232.412 42.6119L227.504 37.1494L226.691 38.8887H226.686Z" fill="white"/>
<path d="M118.924 19.9756L119.987 19.809L121.456 11.2221L119.112 11.9719C117.747 12.4094 116.34 12.8572 111.906 13.6018C112.541 11.847 113.026 10.3993 114.334 6.32719L114.719 5.12429L106.721 0.963623L106.393 3.0049C105.611 7.87377 104.314 12.0344 103.397 14.8047C102.652 14.8516 101.995 14.8516 100.807 14.8516C96.4098 14.8516 94.6643 14.4767 92.9918 14.0288L91.0222 13.4977L91.3609 21.5691L92.6896 21.7357C93.7681 21.8711 95.399 22.0742 98.4471 22.0742C98.7858 22.0742 99.5778 22.0377 100.844 21.9753C100.917 21.9753 100.99 21.97 101.068 21.9648C95.3313 36.4204 91.4234 41.4715 88.7974 44.8667L87.5938 46.4237L95.7377 49.746L96.389 48.6108C101.662 39.3834 105.752 29.6457 109.066 21.2254C112.599 20.8192 116.934 20.2881 118.924 19.9756Z" fill="white"/>
<path d="M125.879 45.2208C125.723 43.4816 125.588 41.9402 125.463 40.5967C125.119 36.8214 124.895 34.3271 124.895 33.6189C124.895 31.6193 125.395 30.9319 127.391 29.2499L128.74 28.1095L122.883 23.1573L121.914 24.0582C119.127 26.641 116.996 28.9427 116.996 33.0825C116.996 33.9209 117.277 36.8162 117.668 40.8154C117.751 41.6746 117.835 42.5182 117.902 43.242C116.245 42.9608 114.344 42.6744 112.572 42.6744C104.657 42.6744 100.385 47.3558 100.385 51.7613C100.385 56.854 105.522 62.1239 114.12 62.1239C122.717 62.1239 124.556 56.6822 125.39 52.9746C128.13 54.2399 129.834 55.094 132.445 56.6718L133.992 57.6039L136.832 49.9647L135.649 49.3607C133.294 48.1526 131.064 47.0122 125.879 45.2208ZM118.074 51.3603C118.074 54.7138 115.099 54.9742 114.187 54.9742C111.113 54.9742 107.544 53.6307 107.544 51.8966C107.544 50.9958 109.19 49.6939 112.171 49.6939C114.203 49.6939 116.313 50.1157 118.074 50.4855V51.3603Z" fill="white"/>
<path d="M126.89 13.9611L125.921 13.6643L123.472 19.4757L124.529 19.9027C131.933 22.8761 133.481 23.527 138.394 26.516L139.457 27.1617L142.521 20.7411L141.625 20.2204C137.363 17.7521 132.408 15.6483 126.895 13.9611H126.89Z" fill="white"/>
<path d="M45.2669 101.626C42.0617 102.763 36.6958 104.667 29.3409 106.642C28.6612 106.813 27.9457 106.998 27.2303 107.182C31.2511 102.613 36.9176 96.829 38.3413 95.6138C40.3446 93.8871 40.6451 93.6028 41.475 92.4801L42.1618 91.5492L37.1537 85.6725L36.2379 85.9354C27.2017 88.5433 22.5297 89.1687 12.3488 89.0976L10.0021 89.0834L13.9013 97.2411L14.9244 97.1487C19.9541 96.7082 25.2556 95.7844 29.0475 95.0027C28.8615 95.2088 28.654 95.4362 28.4179 95.692C23.9821 100.46 22.6728 101.881 19.4318 105.392L16.3196 108.767C14.9101 110.224 14.4665 110.629 12.5205 111.126C9.53703 111.865 5.20852 112.853 1.98181 112.924L0 112.967L2.93337 121.927L4.36428 121.416C6.94708 120.499 7.97734 120.179 9.26516 119.796C10.7962 119.327 15.0747 118.119 19.5964 116.832C22.2149 116.093 24.8693 115.34 27.1802 114.679C23.3525 118.531 19.4747 123.739 19.4747 129.908C19.4747 137.753 24.3613 142.869 33.2186 144.304C35.9946 144.766 38.2841 144.901 41.4464 145.093L43.278 145.207V136.907L41.7827 136.928C37.7117 136.992 36.338 136.928 34.4278 136.616C29.4482 135.806 26.9226 133.723 26.9226 130.426C26.9226 124.905 31.7233 120.016 34.0271 117.671L34.2417 117.451C39.8366 111.894 42.4409 110.7 43.4926 110.48L43.8289 110.416C45.2741 110.131 46.0682 109.975 47.7996 109.463L49.0374 109.101L47.6923 100.773L45.2669 101.633V101.626Z" fill="white"/>
<path d="M106.381 121.387C104.306 125.317 100.457 132.643 95.2986 132.643C94.1539 132.643 93.1308 132.451 93.1308 130.092C93.1308 129.815 93.1522 128.33 93.51 126.12L93.5243 126.042C94.5045 120.13 94.6547 119.22 94.6547 117.266C94.6547 113.585 92.6729 109.293 87.0923 109.293C83.5794 109.293 80.0308 110.927 76.5823 113.052C79.6158 106.124 83.8799 97.9801 87.2426 92.139L87.9938 90.8386L79.8519 86.4471L78.0847 90.8599C76.7898 94.1002 76.0815 95.8839 75.1442 98.0014C73.4772 101.853 67.1168 116.051 62.4735 126.418C60.277 131.329 58.4168 135.472 57.5368 137.454L56.9072 138.861L64.5054 141.753L65.0634 140.467C70.1074 128.849 71.3022 126.262 74.9797 122.61C76.3032 121.295 80.9108 117.01 84.8386 117.01C86.2195 117.01 86.9421 117.898 86.9421 118.765C86.9278 119.206 86.5128 121.629 86.2982 122.688C85.7616 126.063 85.4826 128.998 85.4826 130.149C85.4826 136.324 89.0384 140.161 94.7692 140.161C97.4593 140.161 100.171 139.266 103.061 137.426C107.712 134.391 109.98 130.796 111.976 127.619L112.548 126.71L107.533 119.192L106.374 121.387H106.381Z" fill="white"/>
<path d="M151.919 102.663L152.964 102.5L154.409 94.0931L152.098 94.8251C150.753 95.2514 149.365 95.692 145.001 96.4168C145.631 94.6972 146.103 93.2831 147.391 89.2966L147.77 88.1241L139.893 84.0523L139.571 86.0562C138.798 90.8244 137.525 94.889 136.623 97.6106C135.886 97.6533 135.242 97.6533 134.069 97.6533C129.733 97.6533 128.016 97.2909 126.371 96.8503L124.432 96.3315L124.768 104.226L126.077 104.39C127.143 104.525 128.746 104.724 131.751 104.724C132.087 104.724 132.867 104.688 134.112 104.624C134.183 104.624 134.255 104.617 134.334 104.61C128.689 118.758 124.832 123.704 122.242 127.03L121.055 128.55L129.075 131.798L129.712 130.682C134.906 121.65 138.934 112.121 142.196 103.878C145.681 103.48 149.945 102.961 151.905 102.656L151.919 102.663Z" fill="white"/>
<path d="M158.766 127.371C158.616 125.665 158.48 124.159 158.358 122.844C158.022 119.149 157.8 116.705 157.8 116.015C157.8 114.061 158.294 113.386 160.261 111.737L161.592 110.622L155.826 105.775L154.867 106.657C152.127 109.186 150.023 111.439 150.023 115.489C150.023 116.307 150.295 119.142 150.689 123.057C150.775 123.903 150.853 124.72 150.925 125.431C149.294 125.154 147.419 124.876 145.673 124.876C137.875 124.876 133.668 129.46 133.668 133.773C133.668 138.762 138.726 143.921 147.197 143.921C155.668 143.921 157.471 138.598 158.294 134.96C160.991 136.196 162.673 137.035 165.241 138.577L166.765 139.494L169.562 132.018L168.396 131.428C166.078 130.249 163.882 129.126 158.773 127.378L158.766 127.371ZM151.082 133.382C151.082 136.665 148.156 136.921 147.254 136.921C144.228 136.921 140.715 135.607 140.715 133.908C140.715 133.027 142.339 131.755 145.273 131.755C147.276 131.755 149.351 132.167 151.082 132.53V133.382Z" fill="white"/>
<path d="M221.863 118.659C222.972 120.599 223.823 122.908 223.823 125.559C223.823 131.926 218.507 136.729 211.453 136.729C204.399 136.729 201.601 131.848 201.601 127.271C201.601 125.928 201.751 124.166 201.945 122.674C204.356 122.638 208.935 122.46 214.88 121.48L215.932 121.302L217.305 112.285L215.059 112.981C212.948 113.635 209.171 114.8 202.867 115.091C202.889 114.985 202.903 114.871 202.925 114.765C203.247 112.81 203.576 110.792 204.291 106.891C206.509 106.756 209.178 106.493 215.374 105.356L216.49 105.15L217.148 96.6727L215.023 97.4046C212.626 98.236 210.101 99.0106 205.922 99.4156C206.767 95.1307 207.604 91.6558 208.727 88.8703L209.328 87.3851L198.968 84.3153L199.004 86.3121C199.061 89.5809 198.632 92.3451 197.58 99.0106L197.516 99.4369C195.327 99.2166 192.357 98.769 187.621 97.2554L185.754 96.6585L185.539 104.219L186.476 104.603C189.145 105.704 191.585 106.408 196.221 106.82C195.885 109.066 195.319 112.533 194.933 114.871C192.171 114.672 189.524 114.139 187.199 113.315L185.231 112.619V121.075L186.791 121.395C188.43 121.736 190.261 122.112 193.874 122.418C193.774 123.74 193.645 125.481 193.645 127.122C193.645 128.501 193.874 133.333 196.815 137.674C200.621 143.274 207.468 144.105 211.217 144.105C222.764 144.105 232.158 135.749 232.158 125.473C232.158 120.918 230.477 117.088 228.61 114.196L221.884 118.637L221.863 118.659Z" fill="white"/>
<path d="M288.831 121.387C286.756 125.317 282.907 132.643 277.749 132.643C276.604 132.643 275.581 132.451 275.581 130.092C275.581 129.815 275.602 128.33 275.96 126.12L275.974 126.042C276.955 120.13 277.105 119.22 277.105 117.266C277.105 113.585 275.123 109.293 269.543 109.293C266.03 109.293 262.481 110.927 259.032 113.052C262.066 106.124 266.33 97.9801 269.693 92.139L270.444 90.8386L262.302 86.4471L260.535 90.8599C259.24 94.1002 258.532 95.8839 257.594 98.0014C255.927 101.853 249.567 116.051 244.924 126.418C242.727 131.329 240.867 135.472 239.987 137.454L239.357 138.861L246.956 141.753L247.514 140.467C252.558 128.849 253.752 126.262 257.43 122.61C258.753 121.295 263.368 117.017 267.289 117.017C268.67 117.017 269.392 117.905 269.392 118.772C269.378 119.213 268.963 121.636 268.748 122.695C268.212 126.07 267.933 129.005 267.933 130.156C267.933 136.331 271.489 140.169 277.219 140.169C279.91 140.169 282.621 139.273 285.512 137.433C290.162 134.399 292.43 130.803 294.426 127.626L294.998 126.717L289.983 119.199L288.824 121.394L288.831 121.387Z" fill="white"/>
<path d="M159.768 96.7721L158.816 96.4808L156.405 102.173L157.45 102.592C164.74 105.498 166.264 106.138 171.101 109.066L172.145 109.698L175.165 103.416L174.285 102.912C170.085 100.496 165.205 98.4349 159.775 96.7863L159.768 96.7721Z" fill="white"/>
<path d="M60.1489 199.704C52.2861 216.111 43.6362 217.881 40.2879 217.881C39.5653 217.881 35.8663 217.696 34.3424 214.058C34.0634 213.461 33.4839 212.21 33.4839 204.344C33.4839 201.224 33.5554 185.037 35.0007 172.409L35.1509 171.066L25.5352 169.24L25.8571 171.294C26.3007 174.143 26.3007 177.441 26.3007 180.347C26.3007 181.676 26.2363 185.47 26.1719 189.492C26.1004 193.685 26.036 198.02 26.036 199.618C26.036 210.285 26.2149 212.736 27.2236 215.948C28.6045 220.595 33.1762 225.285 40.2879 225.285C49.9322 225.285 58.854 218.606 66.8027 205.424L67.5038 204.259L61.0433 197.842L60.1489 199.711V199.704Z" fill="white"/>
<path d="M114.093 187.751C111.66 187.751 109.399 188.284 107.904 188.704C105.958 186.124 104.348 184.021 102.202 181.704L101.436 180.88L94.9328 184.284L96.4853 185.684C97.7946 186.863 99.3185 188.341 101.587 191.063C99.619 192.015 97.8232 192.925 95.4336 194.218C92.5718 188.142 91.5773 186.593 90.7688 185.335L90.175 184.412L82.8988 186.508L84.2654 188.213C86.4332 190.921 88.1431 193.955 89.7887 197.11C86.1184 198.922 83.9148 199.931 80.6666 200.969L78.5703 201.637L83.6787 207.634L84.7304 207.066C85.0524 206.888 85.3099 206.739 85.5818 206.582C85.9252 206.383 86.2829 206.177 86.8338 205.886L86.8982 205.85C87.4062 205.545 89.0303 204.642 90.5971 203.768C91.2625 203.399 91.9207 203.029 92.4859 202.717C96.4281 211.464 99.1755 218.862 101.079 225.897L101.544 227.602L108.355 224.333L107.84 223.068C103.447 212.189 101.601 207.677 97.995 199.796C100.063 198.737 102.638 197.458 105.164 196.243C105.192 196.286 105.214 196.328 105.243 196.371C106.123 197.842 106.173 197.934 106.881 199.846L107.468 201.423L113.864 198.013L113.127 196.712C112.261 195.191 111.76 194.417 111.374 193.863C112.025 193.678 112.705 193.564 113.499 193.564C116.196 193.564 118.979 195.206 118.979 197.956C118.979 199.654 118.443 201.033 117.384 202.056C115.645 203.733 112.526 204.522 108.104 204.401L105.765 204.337L108.591 210.597H109.542C122.041 210.597 125.375 202.731 125.375 198.084C125.375 192.477 120.21 187.744 114.1 187.744L114.093 187.751Z" fill="white"/>
<path d="M216.046 202.83C213.549 211.756 212.104 213.319 211.639 213.589C210.093 213.276 204.892 207.691 204.892 192.896C204.892 187.801 205.565 184.255 205.922 182.351L206.23 180.709L197.516 177.988L197.344 180.404C197.201 182.337 196.986 185.257 196.986 189.414C196.986 198.418 197.974 205.225 199.991 210.171C200.034 210.285 204.348 221.853 211.574 221.853C217.656 221.853 221.147 212.04 222.829 207.328L223.151 206.419L216.69 200.535L216.046 202.83Z" fill="white"/>
<path d="M240.165 179.167L239.514 178.435L232.152 180.908L233.376 182.521C237.354 187.787 241.797 194.559 244.165 208.266L244.451 209.943L252.486 207.286L252.221 206.014C251.327 201.729 248.601 188.682 240.165 179.167Z" fill="white"/>
<path d="M265.742 204.792C259.31 204.792 254.073 209.993 254.073 216.382C254.073 222.77 259.31 227.908 265.742 227.908C272.174 227.908 277.411 222.734 277.411 216.382C277.411 210.029 272.174 204.792 265.742 204.792ZM265.742 222.287C262.466 222.287 259.797 219.636 259.797 216.382C259.797 213.127 262.466 210.476 265.742 210.476C269.019 210.476 271.688 213.127 271.688 216.382C271.688 219.636 269.019 222.287 265.742 222.287Z" fill="white"/>
<path d="M53.3016 187.403L53.9241 188.37L59.2828 184.625L58.7534 183.751C57.3225 181.384 55.541 178.741 52.2284 175.451L51.5702 174.797L46.376 178.471L47.1701 179.381C48.8157 181.264 50.8547 183.609 53.3016 187.41V187.403Z" fill="white"/>
<path d="M60.5142 182.052L61.1152 183.111L66.6099 179.238L66.0518 178.357C64.3061 175.621 62.8108 173.596 59.4982 170.1L58.8185 169.389L53.5957 173.276L54.44 174.172C56.293 176.126 58.6611 178.784 60.507 182.045L60.5142 182.052Z" fill="white"/>
<path d="M171.38 209.382C171.23 207.677 171.094 206.17 170.973 204.856C170.636 201.16 170.415 198.716 170.415 198.027C170.415 196.073 170.908 195.397 172.876 193.749L174.206 192.633L168.44 187.787L167.481 188.668C164.741 191.198 162.638 193.45 162.638 197.501C162.638 198.318 162.909 201.153 163.303 205.069C163.389 205.914 163.467 206.732 163.539 207.442C161.908 207.165 160.033 206.888 158.288 206.888C150.489 206.888 146.282 211.471 146.282 215.785C146.282 220.773 151.34 225.932 159.811 225.932C168.282 225.932 170.085 220.61 170.908 216.971C173.605 218.208 175.287 219.046 177.855 220.588L179.379 221.505L182.177 214.029L181.01 213.44C178.692 212.26 176.496 211.137 171.388 209.389L171.38 209.382ZM163.689 214.541V215.394C163.689 218.677 160.763 218.933 159.862 218.933C156.835 218.933 153.322 217.618 153.322 215.92C153.322 215.039 154.946 213.767 157.88 213.767C159.883 213.767 161.958 214.179 163.689 214.541Z" fill="white"/>
<path d="M164.527 184.674L165.571 184.511L167.017 176.105L164.706 176.837C163.361 177.263 161.973 177.703 157.608 178.428C158.238 176.709 158.71 175.295 159.998 171.308L160.377 170.136L152.5 166.064L152.178 168.068C151.405 172.836 150.132 176.9 149.23 179.622C148.494 179.665 147.85 179.665 146.676 179.665C142.341 179.665 140.623 179.302 138.978 178.862L137.039 178.343L137.375 186.238L138.685 186.401C139.751 186.536 141.353 186.735 144.358 186.735C144.694 186.735 145.474 186.7 146.719 186.636C146.791 186.636 146.862 186.629 146.941 186.622C141.296 200.77 137.44 205.715 134.85 209.041L133.662 210.562L141.682 213.809L142.319 212.694C147.513 203.662 151.541 194.133 154.804 185.89C158.288 185.492 162.552 184.973 164.513 184.667L164.527 184.674Z" fill="white"/>
<path d="M172.375 178.784L171.424 178.492L169.013 184.184L170.057 184.603C177.491 187.567 178.857 188.142 183.715 191.077L184.76 191.709L187.779 185.428L186.899 184.923C182.699 182.507 177.82 180.446 172.39 178.798L172.375 178.784Z" fill="white"/>
</svg>
