<svg width="67" height="14" viewBox="0 0 67 14" fill="none" xmlns="http://www.w3.org/2000/svg">
<path d="M20.7435 9.07464C20.3268 9.86717 19.5538 11.3447 18.5178 11.3447C18.2879 11.3447 18.0824 11.3061 18.0824 10.8302C18.0824 10.7744 18.0867 10.4748 18.1586 10.0291L18.1615 10.0134C18.3583 8.82097 18.3885 8.63752 18.3885 8.24341C18.3885 7.50104 17.9905 6.63541 16.8697 6.63541C16.1642 6.63541 15.4515 6.96504 14.759 7.39355C15.3682 5.99623 16.2246 4.35384 16.8999 3.17579L17.0508 2.91352L15.4156 2.02783L15.0607 2.91782C14.8006 3.57134 14.6584 3.93106 14.4702 4.35814C14.1354 5.1349 12.858 7.99834 11.9255 10.0893C11.4844 11.0796 11.1108 11.9151 10.9341 12.315L10.8076 12.5988L12.3336 13.182L12.4456 12.9226C13.4586 10.5794 13.6986 10.0578 14.4371 9.32114C14.7029 9.05601 15.6283 8.19181 16.4171 8.19181C16.6944 8.19181 16.8395 8.37096 16.8395 8.5458C16.8367 8.63466 16.7533 9.12336 16.7102 9.3369C16.6025 10.0191 16.5464 10.6095 16.5464 10.8417C16.5464 12.0871 17.2605 12.861 18.4115 12.861C18.9517 12.861 19.4963 12.6804 20.0768 12.3093C21.0107 11.6973 21.4662 10.9721 21.8671 10.3315L21.9821 10.1481L20.9748 8.63179L20.7421 9.07464H20.7435Z" fill="white"/>
<path d="M29.891 5.29712L30.1008 5.26416L30.391 3.56874L29.9269 3.71636C29.6568 3.80235 29.378 3.8912 28.5015 4.03738C28.628 3.69056 28.7228 3.40536 28.9815 2.60137L29.0576 2.3649L27.4756 1.5437L27.411 1.94785C27.2558 2.90949 27 3.72926 26.819 4.27815C26.671 4.28675 26.5417 4.28675 26.306 4.28675C25.4353 4.28675 25.0904 4.21366 24.76 4.12481L24.3706 4.02019L24.4381 5.61242L24.7011 5.64538C24.9151 5.67261 25.237 5.71274 25.8405 5.71274C25.908 5.71274 26.0646 5.70557 26.3146 5.69267C26.329 5.69267 26.3434 5.69124 26.3592 5.68981C25.2255 8.54321 24.451 9.54068 23.9309 10.2114L23.6924 10.5181L25.3031 11.173L25.431 10.948C26.4741 9.1265 27.2831 7.20465 27.9383 5.54219C28.638 5.46194 29.4944 5.35732 29.8881 5.29569L29.891 5.29712Z" fill="white"/>
<path d="M31.2651 10.2802C31.2349 9.93619 31.2076 9.63237 31.1832 9.36723C31.1157 8.62199 31.0711 8.12899 31.0711 7.98998C31.0711 7.59586 31.1703 7.45971 31.5654 7.12722L31.8327 6.90221L30.6746 5.9248L30.482 6.10252C29.9317 6.61272 29.5093 7.06703 29.5093 7.88392C29.5093 8.04873 29.5639 8.62056 29.6429 9.41023C29.6601 9.58077 29.6759 9.74559 29.6903 9.8889C29.3627 9.83301 28.9862 9.77711 28.6357 9.77711C27.0695 9.77711 26.2246 10.7015 26.2246 11.5714C26.2246 12.5775 27.2405 13.618 28.9417 13.618C30.6429 13.618 31.005 12.5445 31.1703 11.8108C31.712 12.0601 32.0496 12.2292 32.5655 12.5402L32.8715 12.7251L33.4333 11.2174L33.1991 11.0985C32.7336 10.8606 32.2925 10.6341 31.2665 10.2816L31.2651 10.2802ZM29.7219 11.4926C29.7219 12.1547 29.1342 12.2063 28.9532 12.2063C28.3454 12.2063 27.6399 11.9412 27.6399 11.5986C27.6399 11.4209 27.9661 11.1644 28.5552 11.1644C28.9575 11.1644 29.3742 11.2475 29.7219 11.3206V11.4926Z" fill="white"/>
<path d="M43.9368 8.52285C44.1595 8.9141 44.3305 9.37988 44.3305 9.91444C44.3305 11.1985 43.2629 12.1674 41.8462 12.1674C40.4294 12.1674 39.8676 11.1828 39.8676 10.2598C39.8676 9.98897 39.8978 9.63355 39.9366 9.33258C40.4208 9.32542 41.3404 9.28959 42.5344 9.09182L42.7456 9.05599L43.0215 7.23732L42.5703 7.37777C42.1465 7.50962 41.3878 7.74465 40.1219 7.80341C40.1262 7.78192 40.1291 7.75899 40.1334 7.73749C40.1981 7.34337 40.2642 6.93636 40.4079 6.14956C40.8533 6.12233 41.3892 6.0693 42.6336 5.84L42.8577 5.79843L42.9899 4.08869L42.5632 4.2363C42.0818 4.40398 41.5746 4.56019 40.7355 4.64188C40.905 3.77769 41.0731 3.07688 41.2987 2.51509L41.4194 2.21556L39.3388 1.59644L39.346 1.99915C39.3575 2.6584 39.2713 3.2159 39.0601 4.56019L39.0472 4.64618C38.6075 4.60175 38.0112 4.51147 37.06 4.2062L36.685 4.08582L36.6419 5.61069L36.8301 5.68808C37.366 5.91022 37.856 6.0521 38.7871 6.13522C38.7196 6.5881 38.606 7.28748 38.5285 7.75899C37.9738 7.71886 37.4422 7.61137 36.9752 7.44512L36.5801 7.30468V9.01013L36.8933 9.07462C37.2224 9.14341 37.5902 9.21937 38.3158 9.28099C38.2957 9.54756 38.2698 9.89868 38.2698 10.2297C38.2698 10.5078 38.3158 11.4823 38.9064 12.358C39.6708 13.4873 41.0458 13.655 41.7987 13.655C44.1178 13.655 46.0044 11.9696 46.0044 9.89725C46.0044 8.9786 45.6668 8.20613 45.2917 7.62284L43.9411 8.51856L43.9368 8.52285Z" fill="white"/>
<path d="M57.3861 9.07464C56.9694 9.86717 56.1963 11.3447 55.1604 11.3447C54.9305 11.3447 54.725 11.3061 54.725 10.8302C54.725 10.7744 54.7293 10.4748 54.8012 10.0291L54.804 10.0134C55.0009 8.82097 55.0311 8.63752 55.0311 8.24341C55.0311 7.50104 54.633 6.63541 53.5123 6.63541C52.8068 6.63541 52.0941 6.96504 51.4016 7.39355C52.0108 5.99623 52.8672 4.35384 53.5425 3.17579L53.6933 2.91352L52.0582 2.02783L51.7033 2.91782C51.4432 3.57134 51.301 3.93106 51.1127 4.35814C50.778 5.1349 49.5006 7.99834 48.5681 10.0893C48.127 11.0796 47.7534 11.9151 47.5766 12.315L47.4502 12.5988L48.9761 13.182L49.0882 12.9226C50.1012 10.5794 50.3412 10.0578 51.0797 9.32114C51.3455 9.05601 52.2723 8.19325 53.0597 8.19325C53.337 8.19325 53.4821 8.37239 53.4821 8.54724C53.4793 8.63609 53.3959 9.1248 53.3528 9.33834C53.245 10.0205 53.189 10.611 53.189 10.8431C53.189 12.0886 53.9031 12.8625 55.054 12.8625C55.5943 12.8625 56.1389 12.6819 56.7194 12.3107C57.6533 11.6987 58.1088 10.9736 58.5097 10.3329L58.6246 10.1495L57.6174 8.63323L57.3846 9.07607L57.3861 9.07464Z" fill="white"/>
<path d="M31.4654 4.10881L31.2743 4.05005L30.79 5.198L30.9998 5.28256C32.464 5.86872 32.77 5.9977 33.7413 6.58816L33.9511 6.71571L34.5575 5.4488L34.3807 5.34705C33.5373 4.85978 32.5574 4.44417 31.4668 4.11167L31.4654 4.10881Z" fill="white"/>
<path d="M8.92679 0.759561L8.77735 0.584717L7.75 1.25257L7.94972 1.48617C8.27445 1.86739 8.71988 2.47504 8.99145 3.04257L9.12364 3.31917L10.1711 2.58683L10.0461 2.37186C9.83775 2.015 9.41532 1.33282 8.92679 0.759561Z" fill="white"/>
<path d="M3.09974 8.33368C4.12566 7.44369 6.26226 6.46485 9.11443 5.57486L9.34001 5.50464L9.01672 3.77052L8.70061 3.92817C8.39456 4.08008 7.28531 4.57309 6.39445 4.9672C5.86713 5.20081 5.40159 5.40718 5.13577 5.52757C4.67597 5.2997 4.48918 4.92708 4.34837 3.56128C4.33688 3.44806 4.32394 3.12704 4.30814 2.78738C4.28659 2.28434 4.2636 1.76411 4.23917 1.57493L4.20756 1.3313L2.38706 1.42732L2.44741 1.72828C2.56379 2.31157 2.61265 2.58961 2.61983 2.66556L2.64426 2.84757C2.89858 4.77229 2.96755 5.29683 3.67448 6.21548C2.63707 6.75864 0.825195 7.8679 0.825195 9.93737C0.825195 11.2086 1.47753 11.7876 1.72898 12.0097C2.23332 12.4569 2.71035 12.8796 4.74638 12.8796C6.61142 12.8796 8.00805 12.6919 8.93195 12.5672L9.26099 12.5228V10.7973L8.93338 10.8747C8.3026 11.0251 7.98937 11.0882 7.38301 11.1656C6.08984 11.329 4.70471 11.3648 4.50355 11.3648C3.16871 11.3648 2.34108 11.1011 2.34108 9.78689C2.34108 9.26522 2.61552 8.73639 3.09974 8.33224V8.33368Z" fill="white"/>
<path d="M7.52332 3.68347L7.65839 3.94431L8.6843 3.27502L8.56361 3.05862C8.27624 2.54412 7.88829 1.8906 7.43567 1.39473L7.28337 1.22705L6.28906 1.87627L6.63247 2.35207C7.26613 3.22916 7.34659 3.34095 7.52332 3.68204V3.68347Z" fill="white"/>
<path d="M63.4631 11.0767H61.3926V13.1275H63.4631V11.0767Z" fill="white"/>
<path d="M62.6046 1.59644C60.4163 1.59644 59.1964 2.81031 58.978 5.20368L58.9492 5.51754H60.9378L60.9594 5.23664C61.0355 4.2406 61.2266 3.26892 62.6032 3.26892C63.9797 3.26892 64.1018 4.31226 64.1018 4.63185C64.1018 4.99157 64.017 5.48601 63.3532 6.13522C62.323 7.14846 61.5097 7.94816 61.5097 9.2466V10.2656H63.0572L63.3431 10.2598L63.346 9.97464C63.3604 8.76649 63.3604 8.69483 64.3015 7.75612C65.6608 6.40036 66.0559 5.8357 66.0559 4.70351C66.0559 2.84471 64.6693 1.59644 62.6046 1.59644Z" fill="white"/>
</svg>
