<svg width="1190" height="84" viewBox="0 0 1190 84" fill="none" xmlns="http://www.w3.org/2000/svg">
<path d="M57.0005 81.6713V70.6053L55.0284 70.6393C49.6661 70.7207 47.8561 70.646 45.3438 70.2251C38.786 69.1457 35.4565 66.369 35.4565 61.9765C35.4565 54.6173 41.7778 48.0998 44.8102 44.9701L45.0939 44.6782C52.4621 37.2714 55.8929 35.6828 57.2706 35.3909L57.7096 35.3026C59.6141 34.9224 60.6609 34.712 62.9369 34.0331L64.5713 33.5443L62.7951 22.4375L59.6006 23.5849C55.3796 25.0988 48.3153 27.6379 38.6307 30.272C37.7324 30.496 36.7937 30.7404 35.8549 30.9916C41.1498 24.9019 48.6125 17.1896 50.49 15.5739C53.1239 13.2792 53.5291 12.8922 54.6232 11.3986L55.5282 10.1563L48.9299 2.32178L47.721 2.6748C35.8144 6.15076 29.6686 6.9858 16.2627 6.89076L13.1763 6.87039L18.309 17.7395L19.653 17.6173C26.2716 17.0267 33.2615 15.7911 38.2525 14.7524C38.0093 15.024 37.7392 15.3295 37.4218 15.6689C31.5799 22.0234 29.851 23.9175 25.5827 28.5951L21.4832 33.0894C19.6327 35.0311 19.0384 35.5674 16.4856 36.2259C12.5617 37.2103 6.85492 38.5342 2.60689 38.6224L0 38.6767L3.86982 50.6253L5.74732 49.9464C9.14439 48.7176 10.5086 48.2967 12.2038 47.7808C14.2231 47.1562 19.8556 45.5404 25.8123 43.8364C29.2566 42.852 32.755 41.8472 35.8009 40.9646C30.7627 46.0971 25.657 53.0422 25.657 61.2637C25.657 71.7187 32.0864 78.5348 43.7634 80.4561C47.4239 81.0671 50.4292 81.2572 54.5962 81.5084L57.014 81.6578L57.0005 81.6713Z" fill="white"/>
<path d="M147.458 58.2495L148.214 57.0342L141.616 47.0137L140.097 49.9398C137.368 55.1808 132.289 64.9366 125.502 64.9366C123.996 64.9366 122.645 64.6786 122.645 61.5353C122.645 61.1687 122.672 59.1931 123.145 56.2399L123.165 56.1381C124.455 48.2561 124.658 47.0409 124.658 44.4407C124.658 39.539 122.051 33.8092 114.696 33.8092C110.063 33.8092 105.396 35.9884 100.858 38.8194C104.856 29.5864 110.468 18.724 114.899 10.9507L115.885 9.21948L105.16 3.3606L102.837 9.24664C101.135 13.5712 100.196 15.9474 98.967 18.7648C96.7721 23.8972 88.3909 42.8249 82.2788 56.6405C79.3815 63.1851 76.9367 68.7045 75.7751 71.3522L74.9512 73.2259L84.96 77.0821L85.6962 75.3645C92.335 59.8788 93.9086 56.43 98.7577 51.5623C100.493 49.8108 106.572 44.1012 111.745 44.1012C113.562 44.1012 114.514 45.2825 114.514 46.4434C114.5 47.0273 113.947 50.2588 113.663 51.6709C112.961 56.172 112.589 60.0825 112.589 61.6168C112.589 69.8518 117.276 74.9639 124.82 74.9639C128.365 74.9639 131.931 73.7759 135.74 71.3115C141.866 67.2652 144.851 62.4722 147.478 58.2427L147.458 58.2495Z" fill="white"/>
<path d="M170.839 62.3295C177.681 50.2927 182.982 37.5837 187.278 26.6059C191.863 26.0764 197.482 25.3771 200.069 24.9766L201.447 24.7593L203.351 13.5507L200.312 14.5284C198.536 15.0986 196.713 15.6825 190.965 16.6533C191.789 14.3654 192.417 12.4713 194.119 7.16232L194.619 5.59407L184.245 0.169678L183.82 2.83774C182.807 9.19223 181.125 14.6166 179.937 18.2351C178.971 18.2962 178.12 18.2962 176.573 18.2962C170.866 18.2962 168.604 17.8074 166.436 17.2236L163.883 16.5311L164.322 27.0608L166.044 27.2781C167.442 27.4546 169.556 27.7193 173.514 27.7193C173.953 27.7193 174.979 27.6718 176.621 27.5903C176.715 27.5903 176.81 27.5836 176.911 27.5768C169.475 46.4365 164.403 53.0286 160.993 57.4551L159.433 59.485L169.995 63.8163L170.839 62.3363V62.3295Z" fill="white"/>
<path d="M217.608 72.8525L219.614 74.0678L223.295 64.1016L221.762 63.314C218.709 61.739 215.812 60.2454 209.092 57.9168C208.889 55.6425 208.714 53.6397 208.552 51.8814C208.106 46.9526 207.816 43.7007 207.816 42.7774C207.816 40.1704 208.464 39.2675 211.051 37.0746L212.807 35.5879L205.209 29.1248L203.953 30.2992C200.339 33.6666 197.577 36.6741 197.577 42.0781C197.577 43.1711 197.942 46.9526 198.448 52.1665C198.556 53.2935 198.664 54.3865 198.752 55.3302C196.605 54.9636 194.14 54.5902 191.837 54.5902C181.571 54.5902 176.026 60.7003 176.026 66.4438C176.026 73.0902 182.692 79.9674 193.842 79.9674C204.993 79.9674 207.377 72.8661 208.457 68.0256C212.01 69.6753 214.225 70.7887 217.608 72.8458V72.8525ZM198.962 65.921C198.962 70.2931 195.105 70.6326 193.923 70.6326C189.939 70.6326 185.306 68.881 185.306 66.6203C185.306 65.4458 187.44 63.7485 191.303 63.7485C193.937 63.7485 196.679 64.2984 198.955 64.7805V65.921H198.962Z" fill="white"/>
<path d="M305.709 55.4047C305.709 49.3354 303.494 44.2301 301.035 40.3807L292.181 46.3007C293.64 48.8873 294.768 51.9695 294.768 55.4998C294.768 63.986 287.765 70.388 278.478 70.388C269.192 70.388 265.505 63.8774 265.505 57.7809C265.505 55.9886 265.707 53.6396 265.95 51.6504C269.125 51.6097 275.156 51.3653 282.983 50.055L284.374 49.8242L286.184 37.8077L283.226 38.731C280.444 39.6 275.466 41.1547 267.173 41.5484C267.2 41.3991 267.22 41.2565 267.247 41.1072C267.666 38.5002 268.105 35.8185 269.044 30.6114C271.968 30.4349 275.48 30.0819 283.638 28.5611L285.104 28.2896L285.968 16.9859L283.172 17.9635C280.011 19.0701 276.689 20.1021 271.191 20.6384C272.306 14.9289 273.406 10.2988 274.885 6.58521L275.676 4.60283L262.027 0.515869L262.074 3.17715C262.155 7.53567 261.581 11.2153 260.196 20.1089L260.108 20.6791C257.231 20.3872 253.314 19.7898 247.074 17.7734L244.616 16.9791L244.332 27.054L245.568 27.5699C249.08 29.0364 252.301 29.9732 258.407 30.5299C257.961 33.5239 257.218 38.1404 256.711 41.2633C253.078 40.9917 249.586 40.2857 246.52 39.1859L243.934 38.2626V49.5391L245.987 49.9668C248.148 50.4216 250.559 50.924 255.313 51.3246C255.178 53.0897 255.01 55.4115 255.01 57.5976C255.01 59.4374 255.307 65.8801 259.176 71.6643C264.188 79.1254 273.21 80.2388 278.141 80.2388C293.35 80.2388 305.722 69.0981 305.722 55.4047H305.709Z" fill="white"/>
<path d="M387.738 58.2495L388.495 57.0342L381.896 47.0137L380.377 49.9398C377.648 55.1808 372.57 64.9366 365.782 64.9366C364.276 64.9366 362.925 64.6786 362.925 61.5353C362.925 61.1687 362.952 59.1931 363.425 56.2399L363.445 56.1381C364.735 48.2561 364.938 47.0409 364.938 44.4407C364.938 39.539 362.331 33.8092 354.976 33.8092C350.343 33.8092 345.677 35.9884 341.131 38.8194C345.13 29.5864 350.742 18.724 355.172 10.9507L356.158 9.21948L345.434 3.3606L343.11 9.24664C341.408 13.5712 340.47 15.9474 339.24 18.7648C337.046 23.8972 328.671 42.8249 322.552 56.6405C319.655 63.1851 317.21 68.7045 316.049 71.3522L315.225 73.2259L325.233 77.0821L325.97 75.3645C332.608 59.8788 334.182 56.43 339.031 51.5623C340.774 49.8108 346.852 44.108 352.012 44.108C353.828 44.108 354.781 45.2893 354.781 46.4502C354.767 47.0341 354.213 50.2656 353.93 51.6777C353.227 56.1788 352.856 60.0893 352.856 61.6236C352.856 69.8586 357.543 74.9707 365.087 74.9707C368.632 74.9707 372.198 73.7826 376.007 71.3182C382.133 67.272 385.118 62.479 387.745 58.2495H387.738Z" fill="white"/>
<path d="M225.321 33.5036L226.699 34.3455L230.67 25.9679L229.508 25.289C223.984 22.071 217.554 19.3215 210.402 17.1218L209.146 16.7349L205.972 24.3181L207.343 24.8748C216.946 28.7514 218.952 29.6068 225.328 33.5036H225.321Z" fill="white"/>
<path d="M448.487 45.0314C438.127 66.8987 426.74 69.2612 422.324 69.2612C421.371 69.2612 416.502 69.0168 414.489 64.1695C414.125 63.3684 413.362 61.7119 413.362 51.2229C413.362 47.0681 413.456 25.4927 415.354 8.65605L415.557 6.86376L402.887 4.42651L403.312 7.16247C403.9 10.9575 403.9 15.35 403.9 19.2265C403.9 20.9984 403.819 26.063 403.731 31.4195C403.643 37.0068 403.549 42.7842 403.549 44.916C403.549 59.1389 403.785 62.3976 405.109 66.6882C406.925 72.8798 412.95 79.1324 422.317 79.1324C435.014 79.1324 446.765 70.2253 457.24 52.6554L458.165 51.1007L449.655 42.5534L448.474 45.045L448.487 45.0314Z" fill="white"/>
<path d="M519.528 29.1044C516.327 29.1044 513.349 29.8173 511.377 30.3807C508.81 26.9455 506.69 24.1417 503.86 21.0527L502.847 19.9529L494.283 24.4879L496.33 26.3549C498.052 27.9299 500.058 29.8987 503.043 33.524C500.456 34.7936 498.092 36.002 494.938 37.7264C491.163 29.6272 489.86 27.5633 488.799 25.8864L488.016 24.6576L478.433 27.4547L480.236 29.729C483.093 33.334 485.341 37.387 487.509 41.5893C482.674 44.0062 479.77 45.3504 475.495 46.7354L472.739 47.6247L479.466 55.6222L480.85 54.8618C481.276 54.631 481.62 54.4273 481.978 54.2236C482.424 53.9589 482.903 53.6873 483.626 53.2935L483.707 53.246C484.376 52.8387 486.517 51.637 488.583 50.4693C489.461 49.9737 490.326 49.4849 491.069 49.064C496.262 60.7207 499.875 70.5851 502.388 79.9606L502.995 82.2349L511.964 77.8764L511.289 76.186C505.501 61.6915 503.07 55.6697 498.322 45.1671C501.044 43.755 504.434 42.051 507.763 40.4284C507.797 40.4895 507.831 40.5438 507.865 40.5982C509.02 42.5602 509.087 42.6824 510.019 45.2282L510.789 47.3328L519.211 42.7842L518.238 41.053C517.097 39.0231 516.442 37.9912 515.929 37.258C516.786 37.0136 517.685 36.8574 518.731 36.8574C522.277 36.8574 525.951 39.0503 525.951 42.7095C525.951 44.977 525.242 46.8169 523.851 48.1747C521.568 50.4082 517.455 51.4605 511.627 51.3044L508.54 51.2161L512.261 59.5598H513.518C529.976 59.5598 534.366 49.0776 534.366 42.886C534.366 35.4114 527.565 29.0976 519.522 29.0976L519.528 29.1044Z" fill="white"/>
<path d="M439.464 28.6359L440.281 29.9258L447.339 24.9359L446.643 23.7682C444.759 20.6114 442.415 17.0879 438.052 12.7022L437.181 11.8264L430.34 16.7213L431.387 17.9365C433.548 20.4484 436.243 23.5713 439.457 28.6359H439.464Z" fill="white"/>
<path d="M448.966 21.5144L449.756 22.9265L456.996 17.7668L456.26 16.5923C453.964 12.9467 451.992 10.2447 447.629 5.58742L446.737 4.63696L439.862 9.82374L440.977 11.0118C443.415 13.612 446.535 17.1558 448.966 21.5076V21.5144Z" fill="white"/>
<path d="M592.947 57.9371C592.744 55.6628 592.568 53.66 592.406 51.9017C591.96 46.9729 591.67 43.721 591.67 42.7977C591.67 40.1907 592.318 39.2877 594.905 37.0949L596.661 35.6081L589.063 29.145L587.807 30.3195C584.194 33.6868 581.432 36.6944 581.432 42.0984C581.432 43.1914 581.796 46.9729 582.303 52.1868C582.411 53.3138 582.519 54.4068 582.607 55.3505C580.459 54.9839 577.994 54.6105 575.691 54.6105C565.426 54.6105 559.881 60.7205 559.881 66.464C559.881 73.1104 566.547 79.9877 577.697 79.9877C588.847 79.9877 591.231 72.8864 592.312 68.0459C595.864 69.6956 598.079 70.809 601.463 72.866L603.469 74.0812L607.149 64.115L605.616 63.3275C602.564 61.7525 599.666 60.2589 592.947 57.9303V57.9371ZM582.816 65.9481C582.816 70.3202 578.96 70.6596 577.778 70.6596C573.793 70.6596 569.16 68.908 569.16 66.6473C569.16 65.4728 571.294 63.7756 575.158 63.7756C577.791 63.7756 580.533 64.3255 582.809 64.8075V65.9481H582.816Z" fill="white"/>
<path d="M583.924 24.9971L585.301 24.7799L587.206 13.5713L584.167 14.5489C582.391 15.1191 580.567 15.703 574.82 16.6738C575.65 14.3859 576.272 12.4918 577.974 7.18283L578.473 5.61458L568.1 0.190186L567.674 2.85825C566.661 9.21274 564.98 14.6371 563.791 18.2557C562.825 18.3168 561.974 18.3168 560.428 18.3168C554.721 18.3168 552.459 17.8279 550.291 17.2441L547.738 16.5516L548.177 27.0813L549.899 27.2986C551.297 27.4751 553.411 27.7399 557.368 27.7399C557.807 27.7399 558.834 27.6923 560.475 27.6109C560.57 27.6109 560.664 27.6041 560.765 27.5973C553.33 46.4571 548.258 53.0492 544.847 57.4756L543.287 59.5055L553.85 63.8368L554.694 62.3568C561.535 50.32 566.837 37.611 571.132 26.6332C575.718 26.1037 581.337 25.4044 583.924 25.0039V24.9971Z" fill="white"/>
<path d="M594.257 17.1489L593 16.762L589.826 24.3452L591.197 24.9019C600.983 28.8531 602.793 29.6203 609.182 33.5307L610.56 34.3726L614.531 25.995L613.369 25.3161C607.845 22.0981 601.415 19.3486 594.257 17.1489Z" fill="white"/>
<path d="M685.876 15.058L677.488 19.6813L678.826 21.1885C680.933 23.5714 683.094 26.1037 686.254 30.7405C688.483 33.9653 689.125 35.6218 689.125 38.1134C689.125 38.3103 689.125 38.6836 689.078 38.7719C689.078 38.7719 688.841 38.9688 687.923 38.9688C687.517 38.9688 684.809 38.7923 684.411 38.7244L681.378 38.2152L686.302 48.5956L686.856 49.7293L688.085 49.4781C694.035 48.2425 699.181 47.1834 699.181 39.5187C699.181 31.8539 694.447 25.8593 686.72 16.1035L685.883 15.0444L685.876 15.058Z" fill="white"/>
<path d="M674.328 24.9157C671.782 22.6549 668.709 21.5144 665.19 21.5144C663.441 21.5144 661.861 21.7656 659.402 22.3223C660.355 17.2713 661.131 14.1144 662.05 11.4871L662.536 10.0953L651.575 5.09863L651.393 7.38652C650.879 13.8632 650.44 18.405 648.907 25.4791C645.112 26.6061 640.722 27.638 630.45 28.6768L628.167 28.9076L632.685 38.2628L633.887 38.0387C638.466 37.1833 641.607 36.4501 646.28 35.1263C639.547 56.3283 633.057 63.8708 628.7 68.9286L627.363 70.4765L637.136 75.5139L637.926 74.2987C649.549 56.3622 653.844 43.5378 657.106 32.0169C660.848 30.9443 662.286 30.7406 663.792 30.7406C666.345 30.7406 669.735 31.6367 669.735 39.3626C669.735 46.4503 668.088 54.2033 665.325 60.1165C663.347 64.3392 661.489 65.1879 659.139 65.1879C657.673 65.1879 656.35 64.9774 652.831 64.4207L648.901 63.7961L653.081 74.4344L654.006 74.5634C656.573 74.93 657.525 74.93 658.531 74.93C665.021 74.93 669.58 72.4385 672.477 67.3196C675.901 61.2706 679.359 50.3064 679.359 39.4373C679.359 37.0611 678.995 29.0026 674.341 24.9089L674.328 24.9157Z" fill="white"/>
<path d="M749.711 33.2456C743.687 33.2456 738.359 34.6102 730.167 36.8302C716.835 40.3944 715.322 40.761 709.933 41.7454L707.697 42.1527L712.945 51.3518L714.241 50.8223C733.503 42.9742 745.659 40.8832 749.799 40.8832C759.106 40.8832 761.01 50.7476 761.01 53.3885C761.01 54.2371 760.814 61.7865 754.027 66.145C746.983 70.6732 736.886 71.2571 730.855 71.6101L728.053 71.773L732.361 80.429L733.469 80.3136C736.711 79.9673 738.919 79.6279 742.228 78.9626C746.645 78.0461 752.366 76.6136 757.458 73.6604C765.623 68.8538 768.52 59.4511 768.52 52.859C768.52 40.5845 758.957 33.2524 749.711 33.2524V33.2456Z" fill="white"/>
<path d="M832.882 67.7472C825.386 67.7472 821.583 66.1246 821.583 62.9202C821.583 60.836 821.975 59.7362 822.421 58.7043L823.049 57.2311L814.749 53.6125L814.175 55.2351C812.493 59.9942 812.236 63.1443 812.236 64.5971C812.236 72.4044 819.665 76.8852 832.619 76.8852C838.271 76.8852 843.742 76.3556 849.334 75.2694L850.469 75.0453L851.806 64.5835L849.469 65.2556C843.701 66.9122 838.123 67.754 832.882 67.754V67.7472Z" fill="white"/>
<path d="M828.796 25.513L829.836 25.1193V15.0105L827.641 15.8931C824.771 17.0472 821.482 18.276 815.647 19.5863L816.14 17.7804C817.43 13.0688 817.909 11.3037 818.821 7.63088L819.159 6.27987L808.475 1.88062L808.38 4.17529C808.144 9.97307 806.408 16.9386 805.287 21.2224C802.329 21.6094 799.445 21.9488 795.852 21.9488C792.617 21.9488 791.442 21.7927 789.882 21.5279L787.795 21.1749L788.882 31.1207L790.274 31.1615C795.015 31.3108 798.607 31.1615 802.633 30.8831C800.863 36.3347 798.587 43.0014 794.738 51.7524C790.253 61.9631 787.14 66.4845 784.128 70.8566L782.595 73.0834L793.083 75.6836L793.698 74.706C796.649 70.0216 798.918 66.1179 803.484 54.95C807.779 44.3321 810.514 35.8798 812.527 29.5728C816.268 28.9483 822.846 27.7602 828.803 25.4995L828.796 25.513Z" fill="white"/>
<path d="M838.062 31.5688C834.105 31.5688 827.412 32.1459 823.92 32.5532L822.542 32.7162L822.266 42.3701L824.548 41.8406C826.649 41.3518 829.026 40.7951 835.509 40.7951C841.237 40.7951 844.046 41.182 849.577 42.3497L851.428 42.7367L851.826 33.3476L850.557 33.0285C846.646 32.0441 842.56 31.5688 838.056 31.5688H838.062Z" fill="white"/>
<path d="M902.384 47.5092L900.507 46.4909C897.157 44.6782 892.78 41.983 888.168 37.0746C891.511 32.8858 895.097 27.9298 897.528 22.3493L897.94 21.4056L894.766 17.8007H885.817V5.98786C887.114 4.94236 887.661 4.3585 887.661 3.18401C887.661 0.970805 885.176 0.658512 884.359 0.556677L876.207 0.0678711V17.8075H862.078V26.7621H884.527C880.739 32.363 872.81 42.1799 859.62 49.9668L857.54 51.1956L865.881 57.4483L866.806 56.8712C869.129 55.4252 872.02 53.4292 876.207 49.607V81.9022H885.817V47.1562C887.945 49.2472 890.68 51.44 894.651 53.7211L895.725 54.3389L902.384 47.5092Z" fill="white"/>
<path d="M925.137 35.7643H940.495V26.5449H925.137V6.33411C926.265 5.39724 926.981 4.64366 926.981 3.36054C926.981 1.92807 925.887 1.06587 923.685 0.787521L915.52 0V26.5381H898.845V35.7575H915.52V67.9169H894.719V77.1363H943.392V67.9169H925.137V35.7575V35.7643Z" fill="white"/>
<path d="M1010.58 68.4058H1023.6V26.2734H963.517V68.4058H975.093C968.137 71.9836 961.998 73.4161 956.331 74.3801L953.718 74.8282L960.546 83.81L961.586 83.5249C968.677 81.5832 976.775 79.1052 983.515 74.2443C985.426 74.3054 986.824 74.2715 987.742 73.3821C988.08 73.0563 988.479 72.4724 988.479 71.5627C988.479 70.5783 987.871 69.5532 986.851 68.8743L986.115 68.4058H1001.95L998.967 71.2776L1000.49 72.4181C1007.59 77.7067 1014.48 80.9722 1024.28 83.7014L1025.35 84.0001L1031.9 75.0387L1029.4 74.5702C1021.98 73.1785 1015.78 71.1486 1010.58 68.4126V68.4058ZM1013.72 56.5862V59.8924H973.04V56.5862H1013.72ZM1013.72 45.5541V48.5073H973.04V45.5541H1013.72ZM1013.72 34.7936V37.5703H973.04V34.7936H1013.72Z" fill="white"/>
<path d="M1018.59 1.48682H968.259V21.9488H1018.59V1.48682ZM977.869 14.2094V9.30093H1008.98V14.2094H977.869Z" fill="white"/>
<path d="M1093.99 67.7472C1086.49 67.7472 1082.69 66.1246 1082.69 62.9202C1082.69 60.836 1083.08 59.7362 1083.53 58.7043L1084.16 57.2311L1075.86 53.6125L1075.28 55.2351C1073.6 59.9942 1073.34 63.1443 1073.34 64.5971C1073.34 72.4044 1080.77 76.8852 1093.73 76.8852C1099.38 76.8852 1104.85 76.3556 1110.44 75.2694L1111.58 75.0453L1112.91 64.5835L1110.58 65.2556C1104.81 66.9122 1099.23 67.754 1093.99 67.754V67.7472Z" fill="white"/>
<path d="M1089.9 25.513L1090.94 25.1193V15.0105L1088.75 15.8931C1085.88 17.0472 1082.59 18.276 1076.76 19.5863L1077.25 17.7804C1078.54 13.0688 1079.02 11.3037 1079.93 7.63088L1080.27 6.27987L1069.58 1.88062L1069.49 4.17529C1069.25 9.97307 1067.52 16.9386 1066.4 21.2224C1063.44 21.6094 1060.55 21.9488 1056.96 21.9488C1053.73 21.9488 1052.55 21.7927 1050.99 21.5279L1048.9 21.1749L1049.99 31.1207L1051.38 31.1615C1056.12 31.3108 1059.72 31.1615 1063.74 30.8831C1061.97 36.3347 1059.7 43.0014 1055.85 51.7524C1051.36 61.9631 1048.25 66.4845 1045.24 70.8566L1043.7 73.0834L1054.19 75.6836L1054.81 74.706C1057.76 70.0216 1060.03 66.1179 1064.59 54.95C1068.89 44.3321 1071.62 35.8798 1073.64 29.5728C1077.38 28.9483 1083.95 27.7602 1089.91 25.4995L1089.9 25.513Z" fill="white"/>
<path d="M1099.16 31.5688C1095.21 31.5688 1088.51 32.1459 1085.02 32.5532L1083.64 32.7162L1083.37 42.3701L1085.65 41.8406C1087.75 41.3518 1090.13 40.7951 1096.61 40.7951C1102.34 40.7951 1105.15 41.182 1110.68 42.3497L1112.53 42.7367L1112.93 33.3476L1111.66 33.0285C1107.75 32.0441 1103.66 31.5688 1099.16 31.5688H1099.16Z" fill="white"/>
<path d="M1169.44 36.2463C1161.24 36.2463 1154.36 39.7223 1149.61 42.7026C1151.09 37.5159 1152.69 31.2021 1153.36 28.4526C1165.23 26.8164 1173.98 24.6372 1179.28 23.0757L1180.43 22.7363V11.9214L1178.19 12.9058C1174.45 14.5488 1168.33 17.2372 1155.58 19.5183C1156.47 16.2528 1157.95 11.0049 1159.53 6.6396L1160.09 5.11208L1149.89 1.47998L1149.53 3.30621C1149.33 4.27025 1148.88 6.61245 1148.36 9.34161C1147.59 13.3675 1146.65 18.2352 1146.15 20.7335C1145.72 20.7878 1145.28 20.8082 1144.51 20.8082C1138.7 20.8082 1134.5 20.3194 1128.79 19.4165L1126.5 19.0566L1128.52 28.9346L1129.7 29.05C1134.17 29.4913 1138.74 29.5863 1140.12 29.5863C1140.52 29.5863 1141.45 29.5388 1142.93 29.4641C1143.29 29.4438 1143.66 29.4234 1144.03 29.4098C1140.66 42.8995 1138 48.8263 1136.21 52.8182L1135.59 54.2032L1144.93 59.1455L1145.76 58.1136C1147.99 55.3301 1149.36 53.8162 1152.09 51.6641C1155.94 48.6023 1162.06 44.9498 1169.35 44.9498C1175.12 44.9498 1181.09 48.7041 1181.09 54.9839C1181.09 62.2209 1173.36 69.5191 1156.1 69.5191C1151.13 69.5191 1146.73 68.8198 1144.55 68.3989L1141.92 67.8965L1145.35 78.8947L1146.51 78.915C1147.58 78.9354 1148.84 78.949 1150.26 78.949C1159.66 78.949 1175.42 78.0664 1184.04 69.5327C1188 65.6154 1190.01 60.5169 1190.01 54.3661C1190.01 43.8703 1181.36 36.2599 1169.45 36.2599L1169.44 36.2463Z" fill="white"/>
</svg>
