<svg width="779" height="189" viewBox="0 0 779 189" fill="none" xmlns="http://www.w3.org/2000/svg">
<path d="M47.1764 31.7254C47.423 30.8565 47.6343 30.2107 48.0805 28.9192L48.5267 27.6276L40.0611 23.8821L39.5445 25.432C39.4153 25.8077 39.3449 26.1247 39.0631 27.475C38.9339 28.109 38.7461 28.9661 38.4878 30.1872C38.1355 30.152 37.7598 30.1403 37.2784 30.1403C33.5446 30.1403 30.034 30.7626 27.6739 31.2675C27.7914 29.6941 27.9088 28.0855 28.0262 26.2304L28.0732 25.5259C35.2941 24.5631 39.1101 23.6355 48.4914 21.3577L51.0041 20.7472L51.7673 11.1192L49.5717 11.9529C42.8673 14.5007 36.1512 16.215 29.1064 17.166C29.67 13.8315 30.4801 10.4265 31.5251 6.99798L31.9713 5.53031L22.7308 2.98242L22.4255 4.56751C21.1105 11.5067 20.5704 14.8412 20.2416 18.3167C15.1459 18.4224 11.4943 18.2228 7.53744 17.6474L5.30657 17.3187L7.61963 26.0778L8.67635 26.16C10.7781 26.3126 14.8758 26.4887 17.1889 26.4887C17.9051 26.4887 18.5156 26.4887 19.4432 26.4417C19.2319 29.0131 19.2084 31.5258 19.2084 34.1206C15.4277 36.058 12.8211 37.5374 9.75656 40.367C6.21066 43.502 0.28125 50.0889 0.28125 58.9419C0.28125 64.6483 4.05024 70.5542 10.3436 70.5542C14.1244 70.5542 18.41 69.1452 23.4001 66.2568C23.6466 67.1374 23.8932 67.6775 24.3511 68.3938L25.173 69.6736L32.5701 64.7422L32.1474 63.6268C31.4782 61.8773 31.2198 61.0671 31.079 60.4448C37.9124 53.9284 42.3859 44.0538 44.335 39.416C47.6226 40.6019 53.0236 43.2085 53.0236 50.2063C53.0236 53.7405 51.6734 56.8402 48.8907 59.6817C44.4289 64.1434 39.1218 65.2706 32.664 66.2803L29.9283 66.703L37.2197 74.7341L38.1003 74.4993C42.1041 73.4191 45.0043 72.5502 48.7028 70.5307C54.7614 67.2549 61.9706 61.1611 61.9706 50.6995C61.9706 46.2025 60.4912 42.0578 57.7202 38.735C54.1978 34.4376 50.4053 32.8408 47.1999 31.7136L47.1764 31.7254ZM35.9751 38.007C33.5799 43.7368 31.302 47.2827 28.9655 50.4294C28.4724 47.7289 27.9323 44.1595 27.58 38.9463C30.7385 38.1949 33.3098 38.0305 35.9634 37.9953L35.9751 38.007ZM19.3728 42.5392C19.8189 49.4666 20.6761 54.1045 21.451 58.2375C19.5137 59.6816 16.3317 61.8773 13.0442 61.8773C11.8465 61.8773 9.06382 61.5368 9.06382 58.3901C9.06382 55.8657 10.0031 53.0947 11.9287 49.9715C14.324 46.2025 16.8601 44.183 19.361 42.5509L19.3728 42.5392Z" fill="white"/>
<path d="M112.271 23.3779L113.328 23.2136L114.984 13.5386L112.647 14.2901C110.921 14.8419 109.148 15.4055 103.313 16.3683C104.182 13.9848 104.733 12.3528 106.448 7.02216L106.835 5.82454L97.7708 1.10449L97.4421 3.1475C96.4675 9.20606 94.8472 14.3605 93.7318 17.7303C92.722 17.8008 91.9119 17.8008 90.3503 17.8008C84.9727 17.8008 82.8358 17.3429 80.781 16.791L78.8202 16.2626L79.149 24.0824L79.2664 25.3505L80.511 25.5031C81.8143 25.6675 83.7868 25.9141 87.4854 25.9141C87.8963 25.9141 89.1174 25.8554 90.3737 25.7967C90.6321 25.7849 90.8904 25.7732 91.1487 25.7614C84.0686 43.7258 79.2546 49.9487 76.0257 54.1169L74.8281 55.6668L84.0569 59.424L84.7026 58.2969C91.1369 47.0486 96.1035 35.1546 100.143 24.9043C104.463 24.4112 109.841 23.7537 112.283 23.3662L112.271 23.3779Z" fill="white"/>
<path d="M119.937 63.3093C123.483 64.9414 125.597 65.9864 128.896 67.9824L130.434 68.91L133.64 60.2683L132.465 59.6695C129.589 58.1901 126.865 56.7929 120.454 54.5972C120.266 52.425 120.09 50.5112 119.937 48.8439C119.503 44.0417 119.245 41.1416 119.245 40.2727C119.245 37.7366 119.914 36.809 122.391 34.719L123.742 33.5801L117.143 28.0029L116.18 28.8953C112.752 32.0772 110.309 34.7073 110.309 39.6152C110.309 40.6249 110.65 44.1474 111.131 49.0083C111.249 50.2411 111.366 51.3918 111.46 52.3429C109.37 51.9789 106.904 51.5914 104.627 51.5914C97.6169 51.5914 90.1611 55.3487 90.1611 62.2996C90.1611 68.3229 96.2784 74.5576 106.505 74.5576C116.732 74.5576 119.022 67.865 119.949 63.3093H119.937ZM106.576 66.5265C103.077 66.5265 98.1922 64.9766 98.1922 62.4639C98.1922 61.0198 100.576 59.4699 104.122 59.4699C106.717 59.4699 109.405 60.0217 111.613 60.4914V61.8182C111.613 66.186 107.761 66.5265 106.576 66.5265Z" fill="white"/>
<path d="M115.734 25.1616C124.975 28.8719 128.18 30.2222 134.039 33.7798L135.448 34.637L139.276 26.6058L138.09 25.9131C131.949 22.3554 124.035 19.3379 118.681 17.6941L117.39 17.3066L114.325 24.5981L115.734 25.1616Z" fill="white"/>
<path d="M197.653 63.579C190.679 63.579 187.145 62.076 187.145 59.1055C187.145 57.1681 187.509 56.1584 187.92 55.2073L188.507 53.8453L180.781 50.499L180.241 52.0019C178.679 56.405 178.433 59.3168 178.433 60.6671C178.433 67.888 185.337 72.0328 197.383 72.0328C202.643 72.0328 207.727 71.5396 212.929 70.5416L213.986 70.342L215.23 60.6671L213.058 61.2894C207.692 62.8275 202.502 63.6024 197.642 63.6024L197.653 63.579Z" fill="white"/>
<path d="M202.48 30.1289C198.794 30.1289 192.571 30.6573 189.33 31.033L188.05 31.1856L187.792 40.1091L189.917 39.616C191.866 39.158 194.074 38.6532 200.109 38.6532C205.428 38.6532 208.046 39.0171 213.189 40.0856L214.903 40.4496L215.279 31.7727L214.104 31.4792C210.465 30.5751 206.672 30.1289 202.48 30.1289Z" fill="white"/>
<path d="M178.727 28.2848C182.214 27.7094 188.319 26.6058 193.861 24.5158L194.824 24.1518V14.8056L192.781 15.6275C190.116 16.696 187.051 17.8232 181.627 19.0443L182.061 17.4592C183.306 12.927 183.728 11.4006 184.574 7.99564L184.891 6.73931L174.958 2.66504L174.875 4.79023C174.652 10.1443 173.044 16.5903 171.999 20.5589C169.251 20.9229 166.562 21.2282 163.228 21.2282C160.163 21.2282 159.13 21.0756 157.674 20.8407L155.737 20.5237L156.747 29.7172L158.038 29.7525C162.441 29.8934 165.788 29.7525 169.533 29.4941C167.889 34.5312 165.776 40.6954 162.195 48.797C158.015 58.2488 155.126 62.4288 152.32 66.4796L150.899 68.5343L160.657 70.9413L161.232 70.0372C163.968 65.7046 166.093 62.0883 170.331 51.7676C174.335 41.9283 176.871 34.1203 178.738 28.2965L178.727 28.2848Z" fill="white"/>
<path d="M266.787 7.84277C244.244 7.84277 230.776 25.5253 230.776 42.6325C230.776 54.8906 238.279 66.4793 246.216 66.4793C250.866 66.4793 255.316 61.6419 260.212 51.2625C265.273 40.6835 268.455 28.9773 269.687 16.414C273.245 16.6136 276.474 17.3181 278.869 18.4218C279.362 18.6566 290.916 24.3394 290.916 38.2178C290.916 45.474 287.358 53.0002 281.84 57.3797C277.66 60.7378 273.175 62.2642 270.204 63.2857L267.997 64.0371L273.315 72.127L274.443 71.669C295.589 63.2152 300.027 48.8085 300.027 38.2178C300.027 20.6174 286.055 7.84277 266.787 7.84277ZM260.4 16.8954C259.907 22.2377 258.615 32.0535 253.649 44.1942C248.717 56.323 247.05 56.323 246.052 56.323C244.044 56.323 239.301 50.9455 239.301 42.4682C239.301 37.2432 241.05 32.2884 244.643 27.357C249.88 20.1947 255.41 18.0108 260.388 16.9071L260.4 16.8954Z" fill="white"/>
<path d="M352.887 10.0275L353.039 7.24476C354.425 6.36416 355.364 5.58923 355.364 4.192C355.364 2.95915 354.437 2.12551 352.523 1.69108L343.952 0.34082L343.893 2.01984C343.552 11.3543 343.329 15.6516 343.118 18.2934H316.383V27.1464H342.331C338.856 57.1105 324.038 66.3979 318.391 69.9321L316.723 70.9771L324.203 77.7401L325.177 77.0709C340.453 66.5271 348.378 51.5451 351.513 27.1464H373.082C372.859 37.8781 372.201 45.8505 370.933 53.5646C368.796 66.4097 367.352 66.9263 363.994 66.9263C360.636 66.9263 355.963 66.3627 353.967 66.1162L351.337 65.7991L356.163 76.5073H362.433C370.382 76.5073 375.419 75.6384 378.33 63.533C382.205 47.1655 382.205 27.9683 382.205 19.7728V18.2817H352.37C352.605 15.0763 352.676 13.726 352.875 10.0275H352.887Z" fill="white"/>
<path d="M446.854 63.4383C440.784 65.8453 432.835 66.1036 429.688 66.1036C420.119 66.1036 418.699 61.724 418.699 59.1057C418.699 54.3622 423.195 50.5579 428.056 47.3408C428.021 49.1138 427.986 50.7928 427.88 53.0002C427.857 53.6929 427.81 54.5265 427.775 55.3367C427.704 56.9453 427.634 58.3425 427.634 58.8474V60.3385H436.428L436.393 57.4032C436.334 52.3779 436.299 49.9591 435.97 42.9847C440.479 41.0239 442.968 40.1433 451.68 37.0553L454.028 36.2217L452.044 26.7816L450.283 27.7327C445.892 30.1162 444.036 30.985 435.313 34.8597C434.444 31.5604 432.26 26.4881 425.532 26.4881C424.1 26.4881 422.843 26.7464 421.787 27.1456C422.221 26.0419 422.749 24.6212 423.454 22.6956C429.313 21.6624 434.127 20.6291 443.954 17.999L445.14 17.682L444.494 8.07755L442.51 9.01686C439.575 10.4141 435.277 12.4571 426.73 14.0187C427.035 13.1733 427.305 12.4219 427.552 11.7409C428.491 9.15776 429.113 7.45526 429.724 5.50618L430.24 3.85065L420.354 2.30078L420.072 3.69801C419.52 6.37505 418.875 9.27517 416.996 15.2985C416.937 15.2985 416.879 15.2985 416.82 15.2985C415.493 15.3807 413.978 15.4746 411.654 15.4746C407.345 15.4746 404.996 15.1694 402.507 14.8523L400.335 14.5705L402.178 24.128L403.705 24.1868C405.759 24.2572 408.483 24.3629 413.72 23.9637C410.585 31.6073 407.004 36.9262 399.537 45.2743L398.304 46.6481L406.394 51.2507L407.168 50.1353C411.877 43.384 418.323 34.1317 424.957 34.1317C426.659 34.1317 427.411 35.8107 427.88 38.4408C420.718 42.2685 409.834 48.5384 409.834 59.9863C409.834 68.9685 417.102 74.1229 429.771 74.1229C430.792 74.1229 440.033 74.076 448.31 72.6318L449.672 72.397L448.674 62.6868L446.843 63.4148L446.854 63.4383Z" fill="white"/>
<path d="M533.61 6.0116C534.726 5.1897 535.571 4.46173 535.571 3.29933C535.571 2.43047 535.125 1.31504 533.023 0.962795L524.511 0V77.4228H533.61V6.0116Z" fill="white"/>
<path d="M479.271 51.0165C479.6 50.0302 479.823 49.1731 479.976 48.1986H496.825C496.343 55.0673 495.522 59.9634 494.934 62.1474C493.643 66.9261 491.776 66.9261 488.946 66.9261C487.267 66.9261 482.876 66.7735 478.367 66.4447L476.078 66.2803L479.741 76.4484H480.786C493.185 76.4484 498.351 76.1783 501.78 69.521C505.478 62.3 505.924 47.0362 506.101 41.2829L506.147 39.5217H481.455C481.984 36.0697 482.359 33.1696 482.594 29.5297H506.054L506.969 2.47754H470.148V11.2484H497.835L497.459 20.9937H481.819L473.823 19.4791L473.741 21.1933C473.236 31.8898 472.708 39.5921 470.125 48.9383L469.69 50.4881L478.837 52.2728L479.248 51.0282L479.271 51.0165Z" fill="white"/>
<path d="M581.175 66.2809C576.149 66.2809 567.731 65.2829 567.731 58.6255C567.731 52.4495 576.149 50.8174 580.599 50.8174C584.685 50.8174 588.947 51.7802 592.599 53.5297C595.311 54.8447 596.403 55.8075 598.599 57.8505L599.773 58.9425L606.125 51.0288L605.491 50.113C605.174 49.655 604.305 48.6335 602.92 46.9897C602.004 45.9095 601.053 44.7824 600.7 44.3127C597.836 40.7903 596.004 37.714 594.56 35.1427C603.154 31.5968 606.736 29.2485 608.919 27.816L609.847 27.2055L607.323 18.6343L605.632 19.7849C599.303 24.1058 594.806 26.2662 590.556 28.0743C589.581 26.0196 588.666 23.9766 587.797 21.8866C593.162 19.8671 596.65 18.1763 600.653 15.6754L601.593 15.0884L599.221 6.34101L597.507 7.4447C592.975 10.3566 589.241 12.3761 584.58 14.3839C583.253 10.6149 582.478 8.16093 581.562 4.49761L581.245 3.20605L571.347 4.49761L571.84 6.16489C573.061 10.3213 574.494 13.8438 575.891 17.2253C572.521 18.0824 566.733 19.3505 560.052 19.3505C558.983 19.3505 557.997 19.28 556.06 19.1509L552.983 18.9395L557.234 28.0743L558.208 28.0509C564.537 27.91 571.277 26.8532 579.331 24.728C579.766 25.6087 580.364 26.8063 580.975 28.0274C581.492 29.0606 582.008 30.0939 582.419 30.9275C578.004 32.1721 570.49 34.0507 561.684 34.0507C560.451 34.0507 559.289 34.0507 556.165 33.8042L553.723 33.6163L557.61 42.7746L558.96 42.7276C563.926 42.5632 571.382 42.3167 586.388 38.0898C588.243 41.119 589.511 43.0799 590.532 44.5593C586.634 43.5026 583.499 42.9272 579.402 42.9272C566.897 42.9272 558.819 49.2089 558.819 58.9425C558.819 63.0872 560.568 66.9032 563.739 69.6976C568.893 74.2063 578.908 74.5586 581.856 74.5586C592.059 74.5586 596.274 72.6682 598.54 71.6584L599.327 71.3062L600.313 61.0677L597.953 62.1714C594.888 63.6038 589.182 66.2691 581.198 66.2691L581.175 66.2809Z" fill="white"/>
<path d="M636.289 69.345H684.312V76.5308H693.247V49.596C694.28 48.8093 695.208 47.87 695.208 46.7193C695.208 44.782 692.848 44.465 691.944 44.3476L684.312 43.4083V60.8208H664.527V36.9505H681.952V40.8721H690.887V13.6556C691.709 13.0685 692.437 12.3053 692.437 11.2955C692.437 9.94527 691.427 9.12337 689.478 8.84158L681.94 7.56176V28.4028H664.516V6.84554C665.42 6.28195 666.23 5.57747 666.23 4.45029C666.23 2.60689 664.304 2.16072 663.576 1.9846L655.651 0.857422V28.4145H638.391V14.2778C639.189 13.773 640.105 13.0333 640.105 11.8709C640.105 9.86308 637.921 9.48735 636.876 9.29949L629.691 8.27799V40.8604H638.379V36.9388H655.639V60.809H636.266V49.1968C637.452 48.5745 637.734 47.7174 637.734 47.0481C637.734 44.9699 635.291 44.6294 634.493 44.5237L627.565 43.7488V76.2842H636.254V69.345H636.289Z" fill="white"/>
<path d="M776.987 22.9069H778.619L777.656 12.9502L776.106 13.1733C769.566 14.1126 761.195 14.6879 753.574 15.1811C753.621 10.6489 753.833 8.04228 754.208 5.03648L754.385 3.61577L743.735 1.81934L743.993 3.81537C744.369 6.70376 744.393 9.40428 744.393 16.0147C741.352 16.2143 737.806 16.4609 734.119 16.7074C726.745 17.2123 719.125 17.7407 713.489 18.046L711.975 18.1281L712.597 27.1573L714.158 26.9577C721.45 26.0536 731.688 25.1612 744.639 24.2924V28.0027C744.017 27.8853 743.301 27.8148 742.455 27.8148C739.332 27.8148 736.009 29.3529 733.59 31.9243C731.559 34.0847 729.141 38.0063 729.141 44.4876C729.141 54.4678 734.941 59.681 740.671 59.681C740.882 59.681 742.068 59.6575 743.629 59.27C740.342 65.5869 736.08 69.0506 734.095 70.6592L732.17 72.2208L741.727 76.2598L742.432 75.5788C745.015 73.0897 746.577 71.5046 748.76 68.1465C750.897 64.8942 755.864 56.3229 755.864 47.0942C755.864 44.605 755.383 39.0983 753.574 35.5406C753.574 35.0005 753.574 34.1904 753.574 33.2393C753.563 30.4214 753.539 26.0771 753.563 23.6818C757.966 23.4118 766.349 22.9539 776.998 22.8717L776.987 22.9069ZM742.455 36.7735C745.931 36.7735 746.107 42.3272 746.107 43.4426C746.107 47.7517 744.216 51.0158 741.727 51.0158C740.001 51.0158 737.418 49.2781 737.418 44.5111C737.418 39.4623 740.342 36.7735 742.455 36.7735Z" fill="white"/>
<path d="M144.488 122.651C142.892 123.684 141.882 124.095 141.706 124.13H94.2705V132.819H140.062C138.313 141.695 135.894 151.581 125.902 161.35C117.225 169.792 108.795 172.634 102.02 174.923L99.6246 175.733L107.761 183.87L108.701 183.448C116.18 180.078 121.158 177.683 127.217 172.892C138.735 163.699 143.878 154.892 150.16 133.629C150.453 132.619 150.5 132.56 152.426 130.412L153.623 129.073L145.416 122.052L144.488 122.651Z" fill="white"/>
<path d="M211.356 135.448L206.366 130.881L205.368 132.09C202.797 135.202 198.898 139.887 189.388 147.025C178.551 155.092 172.668 156.982 166.974 158.802L164.449 159.612L172.069 166.222L172.938 165.823C180.042 162.583 184.55 160.023 189.106 157.052V188.073H197.396V151.017C202.01 147.554 205.157 144.583 209.489 140.333C210.1 140.391 210.757 140.415 210.922 140.415C213.059 140.415 213.223 138.9 213.223 138.431C213.223 137.092 212.131 136.129 211.356 135.448Z" fill="white"/>
<path d="M290.763 148.118H228.698V157.053H290.763V148.118Z" fill="white"/>
<path d="M329.98 123.696L321.244 122.921L321.338 124.635C321.479 127.324 321.749 132.314 321.749 137.445C321.749 162.783 312.403 167.961 304.888 172.129L303.068 173.139L310.806 180.16L311.78 179.467C318.731 174.513 325.917 169.393 329.51 153.777C330.802 148.118 331.248 143.386 331.107 128.569C332.304 127.664 332.809 127.148 332.809 126.115C332.809 124.811 331.858 124.001 329.991 123.708L329.98 123.696Z" fill="white"/>
<path d="M370.405 144.643C368.738 147.437 366.648 150.901 361.411 156.149C356.633 161.057 353.239 163.359 350.175 165.108V126.678C351.549 125.81 352.136 125.293 352.136 124.142C352.136 123.544 351.854 122.099 349.2 121.841L341.075 121.23V174.325L346.253 178.399L347.263 177.848C351.302 175.664 356.327 172.951 363.783 166.47C371.532 159.637 374.62 154.964 377.344 150.831L377.967 149.891L371.638 142.588L370.405 144.655V144.643Z" fill="white"/>
<path d="M423.112 134.392L424.122 135.613L430.133 129.989L429.264 128.909C428.572 128.052 424.908 123.613 421.175 120.749L420.165 119.974L414.188 125.703L415.504 126.772C417.476 128.369 420.869 131.656 423.124 134.392H423.112Z" fill="white"/>
<path d="M430.967 115.454L429.992 114.702L423.934 120.115L425.284 121.219C427.468 122.992 430.861 126.338 432.869 129.027L433.832 130.33L440.219 124.718L439.291 123.602C437.248 121.148 433.879 117.684 430.978 115.454H430.967Z" fill="white"/>
<path d="M403.903 139.511L402.718 138.983L401.767 140.521V123.179C403.14 122.111 403.727 121.441 403.727 120.561C403.727 119.034 402.283 118.013 400.24 118.013H400.228L392.174 117.402V184.234H401.767V148.705C410.032 152.415 417.077 157.03 424.345 163.464L425.578 164.556L431.437 156.349L430.333 155.468C423.723 150.161 417.582 145.617 403.892 139.523L403.903 139.511Z" fill="white"/>
<path d="M508.883 118.448L507.92 117.743L501.768 123.109L503.294 124.201C505.854 126.033 508.777 128.98 510.761 131.046L511.677 131.997L518.499 126.819L517.29 125.61C514.049 122.369 511.325 120.244 508.871 118.448H508.883Z" fill="white"/>
<path d="M517.126 113.153L516.092 112.401L510.703 117.791L511.936 118.836C513.92 120.526 516.433 122.933 519.016 125.587L520.014 126.62L526.061 121.219L525.016 120.104C521.752 116.64 518.417 114.08 517.137 113.153H517.126Z" fill="white"/>
<path d="M498.727 125.07L497.518 123.954L491.412 130.06L492.539 131.116C497.001 135.285 500.606 138.795 502.966 142.87C504.269 145.03 504.797 146.321 504.797 147.331C504.797 147.648 504.692 147.754 504.633 147.813C503.917 148.505 501.439 148.411 500.383 148.376L497.987 148.294L502.402 158.11L503.694 157.828C508.343 156.83 514.132 155.597 514.132 148.564C514.132 139.359 503.33 129.367 498.715 125.093L498.727 125.07Z" fill="white"/>
<path d="M483.111 133.019C481.432 133.019 479.694 133.242 478.156 133.489C478.966 128.71 479.365 126.385 480.07 123.332L480.363 122.041L469.69 118.178V120.303C469.69 129.262 469.303 132.479 468.657 136.107L468.598 136.13C464.618 137.304 460.109 138.643 452.63 140.064L450.716 140.428L454.849 148.94L455.988 148.705C457.702 148.341 458.7 147.966 461.659 146.827C462.376 146.521 464.841 145.547 466.837 144.749C466.109 148.224 464.853 152.897 461.824 159.965C457.585 169.899 454.532 173.679 451.585 177.319L450.446 178.716L459.381 183.483L460.121 182.321C467.871 170.133 472.849 158.063 476.665 142.118C478.133 141.778 480.387 141.308 481.96 141.308C485.776 141.308 487.326 144.115 487.326 150.995C487.326 159.93 484.555 167.586 484.238 168.419C482.489 173.01 480.293 173.01 478.367 173.01C477.005 173.01 475.444 172.822 472.837 172.493L469.279 172.059L473.142 181.84L474.046 181.934C476.665 182.192 477.639 182.262 478.602 182.262C480.68 182.262 486.986 182.262 490.766 175.206C494.371 168.642 496.261 157.394 496.261 149.68C496.261 137.387 489.463 133.007 483.099 133.007L483.111 133.019Z" fill="white"/>
<path d="M574.624 143.514C574.87 142.646 575.082 142 575.528 140.72L575.974 139.428L567.508 135.683L566.992 137.233C566.863 137.608 566.792 137.937 566.51 139.311C566.381 139.933 566.193 140.79 565.947 141.988C565.594 141.953 565.219 141.941 564.737 141.941C561.004 141.941 557.493 142.563 555.133 143.068C555.262 141.448 555.368 139.792 555.497 137.879L555.532 137.327C562.741 136.364 566.557 135.436 575.95 133.158L578.463 132.548L579.226 122.92L577.031 123.754C570.326 126.302 563.61 128.016 556.565 128.967C557.129 125.644 557.939 122.227 558.984 118.799L559.43 117.331L550.19 114.783L549.884 116.368C548.569 123.319 548.029 126.654 547.701 130.117C542.605 130.223 538.953 130.024 534.996 129.448L532.766 129.119L535.09 137.879L536.147 137.961C538.249 138.113 542.347 138.289 544.66 138.289C545.376 138.289 545.986 138.289 546.914 138.243C546.703 140.814 546.679 143.327 546.679 145.921C542.898 147.859 540.292 149.338 537.227 152.168C533.693 155.303 527.752 161.89 527.752 170.743C527.752 176.449 531.521 182.355 537.814 182.355C541.595 182.355 545.881 180.946 550.871 178.058C551.117 178.938 551.364 179.478 551.822 180.195L552.644 181.474L560.041 176.543L559.618 175.428C558.949 173.678 558.691 172.856 558.55 172.246C565.383 165.729 569.857 155.855 571.806 151.217C575.093 152.403 580.494 155.009 580.494 162.007C580.494 165.541 579.144 168.641 576.361 171.482C571.9 175.944 566.592 177.071 560.135 178.081L557.399 178.504L564.679 186.535L565.559 186.3C569.563 185.22 572.463 184.351 576.162 182.331C582.22 179.056 589.43 172.962 589.43 162.5C589.43 158.003 587.95 153.859 585.179 150.536C581.657 146.238 577.864 144.642 574.659 143.514H574.624ZM563.422 149.796C561.027 155.526 558.749 159.072 556.413 162.218C555.908 159.518 555.379 155.949 555.027 150.735C558.186 149.984 560.757 149.82 563.411 149.784L563.422 149.796ZM546.82 154.328C547.266 161.256 548.123 165.894 548.898 170.026C546.961 171.471 543.779 173.666 540.491 173.666C539.294 173.666 536.511 173.326 536.511 170.179C536.511 167.655 537.45 164.884 539.376 161.761C541.771 157.992 544.307 155.972 546.808 154.34L546.82 154.328Z" fill="white"/>
<path d="M639.001 140.04C637.452 140.04 636.089 140.169 634.88 140.38C638.05 137.339 641.35 134.005 645.776 129.519L646.903 128.369C647.314 127.946 649.569 125.973 650.649 125.022L652.34 123.519L648.301 116.991L647.197 117.32C640.763 119.281 631.017 122.24 613.217 121.993L611.174 121.97L613.992 131.163L615.155 131.093C622.857 130.646 629.42 129.742 634.011 128.862C627.107 136.705 616.798 147.178 603.308 157.558L601.828 158.697L609.554 165.072L610.505 163.945C610.634 163.792 623.949 148.728 638.25 148.728C648.16 148.728 651.694 154.575 651.694 160.047C651.694 165.518 648.148 169.217 645.753 171.178C643.604 167.374 638.755 160.599 628.869 160.599C620.227 160.599 615.706 166.07 615.706 171.471C615.706 179.784 624.818 183.565 633.272 183.565C644.602 183.565 660.547 176.215 660.547 159.883C660.547 143.55 646.986 140.028 638.978 140.028L639.001 140.04ZM628.387 168.724C633.307 168.724 635.937 172.258 637.369 174.876C635.749 175.146 634.234 175.287 632.802 175.287C629.033 175.287 624.254 173.373 624.254 171.225C624.254 170.368 625.71 168.712 628.399 168.712L628.387 168.724Z" fill="white"/>
<path d="M690.253 160.764C682.503 160.764 676.198 167.069 676.198 174.818C676.198 182.567 682.503 188.79 690.253 188.79C698.002 188.79 704.307 182.52 704.307 174.818C704.307 167.116 698.002 160.764 690.253 160.764ZM690.253 182.474C686.038 182.474 682.609 179.045 682.609 174.818C682.609 170.591 686.038 167.163 690.253 167.163C694.468 167.163 697.908 170.591 697.908 174.818C697.908 179.045 694.48 182.474 690.253 182.474Z" fill="white"/>
</svg>
