<svg width="176" height="47" viewBox="0 0 176 47" fill="none" xmlns="http://www.w3.org/2000/svg">
<path opacity="0.3" d="M88.4684 37.1028C131.644 37.1028 166.645 30.7246 166.645 22.8566C166.645 14.9886 131.644 8.61035 88.4684 8.61035C45.2928 8.61035 10.292 14.9886 10.292 22.8566C10.292 30.7246 45.2928 37.1028 88.4684 37.1028Z" fill="white" fill-opacity="0.5"/>
<g filter="url(#filter0_d_2811_2366)">
<path d="M167 23.1205C166.859 28.1966 155.826 31.1255 150.409 32.526C136.999 35.7599 122.993 37.1692 109.003 38.0234C98.5152 38.6074 87.9842 38.7353 77.4728 38.4593C59.9604 37.8956 42.3342 36.5125 25.567 32.526C19.5818 31.0151 5.61893 27.1709 9.75289 20.9849C13.8515 15.7954 28.3086 13.3344 35.8823 12.085C53.0104 9.50769 70.5385 8.69702 87.9842 8.66797C101.947 8.66797 115.926 9.24619 129.755 10.7368C138.572 11.7247 166.514 15.0894 166.996 23.1176L167 23.1205ZM165.333 23.1205C165.125 18.887 154.567 16.1151 149.888 14.9209C129.94 10.298 108.791 9.22294 87.9882 9.08347C67.185 9.22585 46.0407 10.298 26.0887 14.9209C21.2409 16.1354 7.79181 19.7209 11.2315 24.6779C14.0084 28.0397 21.284 29.8267 26.2181 31.0238C32.823 32.5144 39.6554 33.4558 46.4957 34.1793C60.2271 35.6118 74.1273 36.1144 87.9882 36.1319C101.849 36.1144 115.753 35.6147 129.481 34.1793C136.321 33.4558 143.149 32.5144 149.758 31.0238C154.528 29.8848 164.976 27.3104 165.333 23.1205Z" fill="white"/>
</g>
<defs>
<filter id="filter0_d_2811_2366" x="0.902771" y="0.57074" width="174.194" height="46.1252" filterUnits="userSpaceOnUse" color-interpolation-filters="sRGB">
<feFlood flood-opacity="0" result="BackgroundImageFix"/>
<feColorMatrix in="SourceAlpha" type="matrix" values="0 0 0 0 0 0 0 0 0 0 0 0 0 0 0 0 0 0 127 0" result="hardAlpha"/>
<feOffset/>
<feGaussianBlur stdDeviation="4.04861"/>
<feColorMatrix type="matrix" values="0 0 0 0 1 0 0 0 0 1 0 0 0 0 1 0 0 0 0.9 0"/>
<feBlend mode="normal" in2="BackgroundImageFix" result="effect1_dropShadow_2811_2366"/>
<feBlend mode="normal" in="SourceGraphic" in2="effect1_dropShadow_2811_2366" result="shape"/>
</filter>
</defs>
</svg>
