<svg width="357" height="89" viewBox="0 0 357 89" fill="none" xmlns="http://www.w3.org/2000/svg">
<path d="M337.459 43.4821C337.175 53.7005 314.965 59.5964 304.061 62.4157C277.067 68.9257 248.872 71.7626 220.709 73.4822C199.597 74.6579 178.397 74.9152 157.238 74.3596C121.984 73.2248 86.5024 70.4407 52.7494 62.4157C40.701 59.3741 12.5932 51.6358 20.915 39.183C29.1657 28.7365 58.2683 23.7823 73.5144 21.2672C107.994 16.0791 143.278 14.4472 178.397 14.3887C206.505 14.3887 234.644 15.5526 262.484 18.5532C280.233 20.5419 336.48 27.3152 337.451 43.4763L337.459 43.4821ZM334.103 43.4821C333.685 34.96 312.43 29.3799 303.011 26.9759C262.855 17.67 220.283 15.5059 178.405 15.2251C136.528 15.5117 93.9636 17.67 53.7995 26.9759C44.0407 29.4209 16.9673 36.6387 23.8916 46.6172C29.4815 53.3847 44.1276 56.9819 54.06 59.3917C67.356 62.3923 81.1098 64.2874 94.8794 65.7438C122.521 68.6274 150.503 69.6393 178.405 69.6744C206.308 69.6393 234.297 68.6333 261.931 65.7438C275.701 64.2874 289.447 62.3923 302.75 59.3917C312.351 57.0988 333.385 51.9165 334.103 43.4821Z" fill="white"/>
<path opacity="0.3" d="M178.49 71.6298C265.404 71.6298 335.862 58.7901 335.862 42.9516C335.862 27.1131 265.404 14.2734 178.49 14.2734C91.5759 14.2734 21.1182 27.1131 21.1182 42.9516C21.1182 58.7901 91.5759 71.6298 178.49 71.6298Z" fill="white" fill-opacity="0.5"/>
</svg>
