<svg width="306" height="153" viewBox="0 0 306 153" fill="none" xmlns="http://www.w3.org/2000/svg">
<path d="M55.3859 16.082C55.5122 15.6368 55.6205 15.3059 55.8491 14.6442L56.0778 13.9824L51.7401 12.0632L51.4754 12.8574C51.4092 13.0499 51.3731 13.2123 51.2287 13.9042C51.1626 14.229 51.0663 14.6682 50.9339 15.2939C50.7535 15.2758 50.561 15.2698 50.3143 15.2698C48.4012 15.2698 46.6023 15.5887 45.3931 15.8474C45.4532 15.0412 45.5134 14.217 45.5736 13.2665L45.5976 12.9055C49.2976 12.4122 51.2528 11.9369 56.0597 10.7698L57.3472 10.4569L57.7382 5.52368L56.6132 5.95083C53.178 7.25633 49.7367 8.13469 46.1271 8.62199C46.4158 6.91341 46.8309 5.16873 47.3664 3.41201L47.595 2.66L42.8603 1.35449L42.7039 2.16667C42.0301 5.72221 41.7533 7.4308 41.5849 9.21158C38.9739 9.26572 37.1028 9.16345 35.0754 8.86866L33.9323 8.7002L35.1175 13.1882L35.659 13.2304C36.7359 13.3086 38.8355 13.3988 40.0207 13.3988C40.3877 13.3988 40.7005 13.3988 41.1758 13.3747C41.0675 14.6923 41.0554 15.9797 41.0554 17.3093C39.1182 18.302 37.7827 19.06 36.2124 20.5099C34.3956 22.1162 31.3574 25.4913 31.3574 30.0274C31.3574 32.9513 33.2886 35.9774 36.5133 35.9774C38.4505 35.9774 40.6463 35.2555 43.2032 33.7755C43.3295 34.2267 43.4559 34.5034 43.6905 34.8704L44.1116 35.5262L47.9018 32.9994L47.6852 32.4279C47.3423 31.5315 47.21 31.1164 47.1378 30.7975C50.6392 27.4585 52.9313 22.399 53.93 20.0226C55.6145 20.6302 58.3819 21.9658 58.3819 25.5514C58.3819 27.3623 57.6901 28.9505 56.2643 30.4065C53.9781 32.6926 51.2588 33.2701 47.9499 33.7875L46.5482 34.0041L50.2842 38.1191L50.7354 37.9988C52.7869 37.4453 54.2729 37.0001 56.168 35.9654C59.2723 34.2869 62.9662 31.1645 62.9662 25.8041C62.9662 23.4999 62.2082 21.3762 60.7884 19.6737C58.9835 17.4717 57.0403 16.6535 55.3979 16.076L55.3859 16.082ZM49.6465 19.3006C48.4192 22.2365 47.2521 24.0534 46.0549 25.6657C45.8022 24.282 45.5254 22.4531 45.345 19.7819C46.9633 19.3969 48.2808 19.3127 49.6405 19.2946L49.6465 19.3006ZM41.1397 21.6229C41.3683 25.1724 41.8075 27.5488 42.2045 29.6665C41.2119 30.4064 39.5815 31.5315 37.897 31.5315C37.2833 31.5315 35.8575 31.357 35.8575 29.7447C35.8575 28.4512 36.3388 27.0314 37.3254 25.4311C38.5527 23.4999 39.8522 22.4651 41.1337 21.6289L41.1397 21.6229Z" fill="white"/>
<path d="M88.7402 11.8042L89.2816 11.72L90.1299 6.7627L88.9327 7.14773C88.0483 7.43049 87.1399 7.71926 84.1499 8.21259C84.595 6.99131 84.8778 6.15507 85.7562 3.42374L85.9547 2.81009L81.3102 0.391602L81.1418 1.43841C80.6424 4.54274 79.8122 7.18383 79.2407 8.91046C78.7233 8.94656 78.3082 8.94656 77.508 8.94656C74.7526 8.94656 73.6577 8.71193 72.6049 8.42917L71.6002 8.15844L71.7686 12.1652L71.8288 12.8149L72.4665 12.8931C73.1343 12.9774 74.145 13.1037 76.0401 13.1037C76.2507 13.1037 76.8763 13.0736 77.5201 13.0435C77.6524 13.0375 77.7848 13.0315 77.9171 13.0255C74.2894 22.2302 71.8228 25.4188 70.1683 27.5545L69.5547 28.3486L74.2834 30.2738L74.6143 29.6962C77.9111 23.9328 80.4559 17.8384 82.5255 12.5863C84.7394 12.3336 87.4948 11.9967 88.7462 11.7982L88.7402 11.8042Z" fill="white"/>
<path d="M92.6671 32.2644C94.484 33.1006 95.5669 33.6361 97.2574 34.6588L98.0455 35.1341L99.6879 30.7062L99.0863 30.3994C97.6124 29.6413 96.2166 28.9254 92.9318 27.8004C92.8355 26.6874 92.7453 25.7068 92.6671 24.8525C92.4445 22.3919 92.3121 20.9059 92.3121 20.4607C92.3121 19.1612 92.6551 18.6859 93.9245 17.6151L94.6163 17.0315L91.2353 14.1738L90.7419 14.6311C88.9852 16.2614 87.7339 17.609 87.7339 20.1238C87.7339 20.6412 87.9083 22.446 88.155 24.9367C88.2151 25.5684 88.2753 26.158 88.3234 26.6453C87.2526 26.4588 85.9892 26.2603 84.822 26.2603C81.2304 26.2603 77.4102 28.1854 77.4102 31.747C77.4102 34.8333 80.5446 38.0278 85.7846 38.0278C91.0247 38.0278 92.1978 34.5986 92.6731 32.2644H92.6671ZM85.8207 33.9128C84.0279 33.9128 81.5252 33.1187 81.5252 31.8312C81.5252 31.0912 82.7465 30.2971 84.5633 30.2971C85.8929 30.2971 87.2706 30.5799 88.4016 30.8205V31.5003C88.4016 33.7383 86.4284 33.9128 85.8207 33.9128Z" fill="white"/>
<path d="M90.5139 12.7182C95.2486 14.6193 96.891 15.3111 99.8931 17.134L100.615 17.5732L102.576 13.4581L101.969 13.1032C98.8222 11.2803 94.7673 9.73415 92.024 8.89189L91.3622 8.69336L89.792 12.4294L90.5139 12.7182Z" fill="white"/>
<path d="M132.489 32.4022C128.915 32.4022 127.105 31.6321 127.105 30.11C127.105 29.1174 127.291 28.6 127.502 28.1127L127.802 27.4148L123.844 25.7002L123.567 26.4703C122.767 28.7263 122.641 30.2183 122.641 30.9102C122.641 34.6101 126.178 36.7338 132.351 36.7338C135.046 36.7338 137.651 36.4811 140.316 35.9698L140.858 35.8675L141.495 30.9102L140.382 31.229C137.633 32.0171 134.974 32.4142 132.483 32.4142L132.489 32.4022Z" fill="white"/>
<path d="M134.962 15.2637C133.073 15.2637 129.884 15.5344 128.224 15.7269L127.568 15.8051L127.436 20.3774L128.524 20.1247C129.523 19.8901 130.654 19.6314 133.746 19.6314C136.472 19.6314 137.813 19.8179 140.448 20.3654L141.327 20.5519L141.519 16.1059L140.918 15.9555C139.053 15.4923 137.11 15.2637 134.962 15.2637Z" fill="white"/>
<path d="M122.79 14.3177C124.577 14.0229 127.706 13.4573 130.545 12.3865L131.039 12.2V7.41112L129.992 7.83225C128.626 8.37972 127.056 8.95727 124.276 9.58295L124.499 8.77077C125.137 6.44854 125.353 5.66644 125.787 3.92176L125.949 3.27803L120.859 1.19043L120.817 2.27935C120.703 5.02271 119.879 8.32557 119.343 10.359C117.935 10.5455 116.558 10.702 114.849 10.702C113.279 10.702 112.75 10.6237 112.004 10.5034L111.011 10.341L111.528 15.0516L112.19 15.0697C114.446 15.1419 116.161 15.0697 118.08 14.9373C117.238 17.5182 116.155 20.6767 114.32 24.8279C112.178 29.6709 110.698 31.8126 109.26 33.8882L108.532 34.941L113.532 36.1743L113.826 35.7111C115.228 33.4911 116.317 31.6381 118.489 26.3499C120.54 21.3084 121.84 17.3077 122.796 14.3237L122.79 14.3177Z" fill="white"/>
<path d="M167.912 3.84375C156.361 3.84375 149.461 12.9041 149.461 21.6696C149.461 27.9504 153.305 33.8884 157.372 33.8884C159.755 33.8884 162.035 31.4097 164.543 26.0914C167.136 20.6709 168.767 14.6728 169.398 8.23553C171.221 8.33781 172.876 8.69878 174.103 9.2643C174.356 9.38462 180.276 12.2964 180.276 19.4075C180.276 23.1255 178.453 26.9818 175.625 29.2259C173.483 30.9465 171.185 31.7286 169.663 32.252L168.532 32.637L171.257 36.7821L171.835 36.5475C182.67 32.2159 184.944 24.8341 184.944 19.4075C184.944 10.3893 177.785 3.84375 167.912 3.84375ZM164.64 8.4822C164.387 11.2195 163.725 16.249 161.18 22.4697C158.654 28.6844 157.799 28.6844 157.288 28.6844C156.259 28.6844 153.829 25.929 153.829 21.5854C153.829 18.9082 154.725 16.3694 156.566 13.8426C159.249 10.1727 162.083 9.05373 164.634 8.48821L164.64 8.4822Z" fill="white"/>
<path d="M212.027 4.96332L212.106 3.53749C212.816 3.08628 213.297 2.68922 213.297 1.97329C213.297 1.3416 212.822 0.914454 211.841 0.691857L207.449 0L207.419 0.860308C207.245 5.64314 207.13 7.84505 207.022 9.19868H193.323V13.7349H206.619C204.838 29.0881 197.246 33.8468 194.352 35.6577L193.498 36.1931L197.33 39.6584L197.829 39.3155C205.656 33.913 209.717 26.2364 211.324 13.7349H222.375C222.261 19.2336 221.924 23.3186 221.274 27.2712C220.179 33.8528 219.439 34.1175 217.719 34.1175C215.998 34.1175 213.604 33.8288 212.581 33.7024L211.233 33.54L213.706 39.0267H216.919C220.991 39.0267 223.572 38.5815 225.064 32.3789C227.05 23.9924 227.05 14.156 227.05 9.95672V9.19267H211.763C211.883 7.55026 211.919 6.8584 212.021 4.96332H212.027Z" fill="white"/>
<path d="M260.176 32.33C257.065 33.5633 252.992 33.6956 251.38 33.6956C246.477 33.6956 245.749 31.4516 245.749 30.11C245.749 27.6795 248.053 25.7303 250.544 24.0818C250.526 24.9903 250.508 25.8506 250.453 26.9816C250.441 27.3366 250.417 27.7637 250.399 28.1788C250.363 29.003 250.327 29.719 250.327 29.9777V30.7417H254.833L254.815 29.2377C254.785 26.6628 254.767 25.4234 254.599 21.8498C256.909 20.8451 258.184 20.3939 262.648 18.8117L263.851 18.3845L262.835 13.5476L261.932 14.0349C259.682 15.2562 258.732 15.7013 254.262 17.6867C253.817 15.9961 252.698 13.3972 249.25 13.3972C248.516 13.3972 247.873 13.5295 247.331 13.7341C247.554 13.1685 247.824 12.4406 248.185 11.4539C251.187 10.9245 253.654 10.3951 258.69 9.04749L259.297 8.88505L258.966 3.96385L257.95 4.44514C256.446 5.16106 254.244 6.20787 249.864 7.00802C250.02 6.57485 250.159 6.18982 250.285 5.84089C250.766 4.51733 251.085 3.64499 251.398 2.64631L251.663 1.79804L246.597 1.00391L246.453 1.71983C246.17 3.09151 245.839 4.5775 244.877 7.66378C244.846 7.66378 244.816 7.66378 244.786 7.66378C244.106 7.70589 243.33 7.75402 242.139 7.75402C239.931 7.75402 238.728 7.5976 237.453 7.43516L236.34 7.29078L237.284 12.1879L238.066 12.218C239.119 12.2541 240.515 12.3082 243.198 12.1037C241.592 16.0202 239.757 18.7455 235.931 23.023L235.299 23.7269L239.444 26.0852L239.841 25.5137C242.253 22.0544 245.556 17.3137 248.955 17.3137C249.828 17.3137 250.213 18.174 250.453 19.5216C246.784 21.4829 241.207 24.6955 241.207 30.5612C241.207 35.1636 244.931 37.8047 251.422 37.8047C251.945 37.8047 256.68 37.7806 260.922 37.0406L261.619 36.9203L261.108 31.9449L260.17 32.3179L260.176 32.33Z" fill="white"/>
<path d="M103.073 59.925C103.644 59.5039 104.077 59.1309 104.077 58.5353C104.077 58.0901 103.849 57.5185 102.772 57.3381L98.4102 56.8447V96.5152H103.073V59.925Z" fill="white"/>
<path d="M75.2295 82.985C75.3979 82.4796 75.5123 82.0405 75.5905 81.5411H84.2236C83.977 85.0606 83.5558 87.5693 83.255 88.6883C82.5932 91.1369 81.6367 91.1369 80.1868 91.1369C79.3265 91.1369 77.0765 91.0587 74.7663 90.8902L73.5931 90.806L75.4701 96.016H76.0056C82.3586 96.016 85.0057 95.8776 86.7624 92.4664C88.6575 88.7665 88.8861 80.9455 88.9764 77.9976L89.0004 77.0952H76.3485C76.6192 75.3264 76.8117 73.8405 76.932 71.9755H88.9523L89.4216 58.1143H70.555V62.6083H84.741L84.5485 67.6017H76.535L72.438 66.8256L72.3959 67.704C72.1372 73.1847 71.8665 77.1313 70.5429 81.9201L70.3203 82.7143L75.0069 83.6287L75.2175 82.991L75.2295 82.985Z" fill="white"/>
<path d="M127.444 90.806C124.869 90.806 120.555 90.2947 120.555 86.8835C120.555 83.719 124.869 82.8828 127.149 82.8828C129.243 82.8828 131.426 83.3761 133.297 84.2725C134.687 84.9463 135.247 85.4396 136.372 86.4864L136.973 87.0459L140.228 82.9911L139.903 82.5218C139.741 82.2872 139.296 81.7638 138.586 80.9215C138.116 80.368 137.629 79.7905 137.449 79.5498C135.981 77.745 135.042 76.1688 134.302 74.8512C138.706 73.0343 140.541 71.8311 141.66 71.0971L142.135 70.7843L140.842 66.3925L139.975 66.9821C136.733 69.196 134.429 70.303 132.251 71.2295C131.751 70.1767 131.282 69.1299 130.837 68.059C133.586 67.0242 135.373 66.1579 137.425 64.8764L137.906 64.5756L136.691 60.0936L135.812 60.6591C133.49 62.1511 131.577 63.1859 129.188 64.2147C128.509 62.2835 128.112 61.0261 127.642 59.1491L127.48 58.4873L122.408 59.1491L122.661 60.0034C123.287 62.1331 124.021 63.9379 124.737 65.6706C123.01 66.1098 120.044 66.7595 116.621 66.7595C116.073 66.7595 115.568 66.7234 114.575 66.6572L112.999 66.5489L115.177 71.2295L115.676 71.2175C118.919 71.1453 122.372 70.6038 126.499 69.5149C126.722 69.9661 127.029 70.5798 127.342 71.2054C127.606 71.7349 127.871 72.2643 128.081 72.6914C125.819 73.3291 121.969 74.2917 117.457 74.2917C116.825 74.2917 116.23 74.2917 114.629 74.1654L113.378 74.0691L115.369 78.7617L116.061 78.7376C118.606 78.6534 122.426 78.5271 130.115 76.3613C131.066 77.9134 131.715 78.9181 132.239 79.6762C130.241 79.1347 128.635 78.8399 126.535 78.8399C120.128 78.8399 115.989 82.0586 115.989 87.0459C115.989 89.1696 116.885 91.1249 118.51 92.5567C121.151 94.8669 126.283 95.0474 127.793 95.0474C133.021 95.0474 135.181 94.0788 136.342 93.5614L136.745 93.3809L137.25 88.1349L136.041 88.7004C134.471 89.4343 131.547 90.8 127.456 90.8L127.444 90.806Z" fill="white"/>
<path d="M155.684 92.3754H180.29V96.0572H184.868V82.2562C185.398 81.8531 185.873 81.3718 185.873 80.7823C185.873 79.7896 184.664 79.6272 184.2 79.567L180.29 79.0857V88.0076H170.153V75.7768H179.081V77.7862H183.659V63.8408C184.08 63.54 184.453 63.1489 184.453 62.6316C184.453 61.9397 183.936 61.5186 182.937 61.3742L179.075 60.7184V71.3971H170.147V60.3514C170.61 60.0627 171.025 59.7017 171.025 59.1241C171.025 58.1796 170.038 57.951 169.665 57.8608L165.604 57.2832V71.4031H156.761V64.1597C157.17 63.901 157.639 63.5219 157.639 62.9263C157.639 61.8976 156.52 61.7051 155.985 61.6088L152.303 61.0854V77.7802H156.755V75.7708H165.598V88.0016H155.672V82.0517C156.279 81.7328 156.424 81.2936 156.424 80.9507C156.424 79.8859 155.173 79.7114 154.763 79.6572L151.214 79.2602V95.9309H155.666V92.3754H155.684Z" fill="white"/>
<path d="M227.775 68.5814H228.612L228.118 63.4797L227.324 63.594C223.973 64.0753 219.684 64.3701 215.779 64.6227C215.803 62.3005 215.911 60.9649 216.104 59.4248L216.194 58.6968L210.738 57.7764L210.87 58.7991C211.062 60.2791 211.074 61.6628 211.074 65.0499C209.516 65.1522 207.699 65.2785 205.81 65.4048C202.032 65.6635 198.128 65.9343 195.24 66.0907L194.464 66.1328L194.783 70.7592L195.583 70.6569C199.319 70.1937 204.565 69.7365 211.201 69.2913V71.1924C210.882 71.1322 210.515 71.0961 210.082 71.0961C208.481 71.0961 206.779 71.8842 205.54 73.2018C204.499 74.3087 203.259 76.3181 203.259 79.639C203.259 84.7528 206.231 87.4239 209.167 87.4239C209.276 87.4239 209.883 87.4119 210.683 87.2134C208.999 90.45 206.815 92.2248 205.798 93.049L204.812 93.8492L209.709 95.9187L210.07 95.5698C211.393 94.2944 212.193 93.4822 213.312 91.7616C214.407 90.0951 216.952 85.7033 216.952 80.9746C216.952 79.6992 216.706 76.8776 215.779 75.0547C215.779 74.778 215.779 74.3629 215.779 73.8756C215.773 72.4317 215.761 70.2057 215.773 68.9784C218.029 68.8401 222.325 68.6054 227.781 68.5633L227.775 68.5814ZM210.082 75.6864C211.863 75.6864 211.953 78.5321 211.953 79.1036C211.953 81.3115 210.984 82.984 209.709 82.984C208.824 82.984 207.501 82.0936 207.501 79.6511C207.501 77.0641 208.999 75.6864 210.082 75.6864Z" fill="white"/>
<path d="M25.7281 119.113C24.9099 119.643 24.3925 119.853 24.3023 119.872H-0.00292969V124.323H23.46C22.5636 128.872 21.3243 133.937 16.2046 138.943C11.7586 143.268 7.43904 144.724 3.96772 145.897L2.74043 146.312L6.90962 150.482L7.39091 150.265C11.2232 148.538 13.774 147.311 16.8784 144.857C22.7802 140.146 25.4153 135.634 28.6339 124.739C28.7843 124.221 28.8084 124.191 29.795 123.09L30.4087 122.404L26.2034 118.807L25.7281 119.113Z" fill="white"/>
<path d="M59.9905 125.671L57.4337 123.331L56.9223 123.951C55.6048 125.545 53.6074 127.945 48.7343 131.603C43.1814 135.736 40.1674 136.705 37.2495 137.637L35.9561 138.053L39.8605 141.44L40.3057 141.235C43.9455 139.575 46.2557 138.263 48.59 136.741V152.636H52.8374V133.649C55.2017 131.874 56.814 130.352 59.034 128.174C59.3468 128.204 59.6837 128.216 59.768 128.216C60.8629 128.216 60.9471 127.44 60.9471 127.199C60.9471 126.514 60.3876 126.02 59.9905 125.671Z" fill="white"/>
<path d="M95.979 132.294H68.4199V137.046H95.979V132.294Z" fill="white"/>
<path d="M114.119 119.649L109.643 119.252L109.691 120.13C109.763 121.508 109.902 124.065 109.902 126.694C109.902 139.677 105.113 142.33 101.263 144.466L100.33 144.983L104.295 148.581L104.794 148.226C108.356 145.687 112.038 143.064 113.878 135.062C114.54 132.163 114.769 129.738 114.697 122.146C115.31 121.682 115.569 121.418 115.569 120.888C115.569 120.221 115.082 119.805 114.125 119.655L114.119 119.649Z" fill="white"/>
<path d="M134.833 130.383C133.979 131.815 132.908 133.59 130.225 136.279C127.776 138.793 126.037 139.973 124.467 140.869V121.178C125.171 120.733 125.472 120.468 125.472 119.879C125.472 119.572 125.328 118.832 123.968 118.7L119.805 118.387V145.592L122.458 147.679L122.975 147.397C125.045 146.278 127.62 144.888 131.44 141.567C135.411 138.066 136.993 135.671 138.389 133.553L138.707 133.072L135.465 129.33L134.833 130.389V130.383Z" fill="white"/>
<path d="M161.84 125.13L162.357 125.756L165.437 122.874L164.992 122.32C164.637 121.881 162.76 119.607 160.847 118.139L160.33 117.742L157.268 120.678L157.941 121.226C158.952 122.044 160.691 123.728 161.846 125.13H161.84Z" fill="white"/>
<path d="M165.863 115.426L165.364 115.041L162.26 117.814L162.952 118.38C164.071 119.288 165.809 121.003 166.838 122.381L167.331 123.049L170.604 120.173L170.129 119.601C169.082 118.344 167.355 116.569 165.869 115.426H165.863Z" fill="white"/>
<path d="M151.997 127.753L151.39 127.482L150.902 128.271V119.385C151.606 118.837 151.907 118.494 151.907 118.043C151.907 117.261 151.167 116.738 150.12 116.738H150.114L145.987 116.425V150.669H150.902V132.464C155.138 134.365 158.748 136.729 162.472 140.026L163.103 140.586L166.105 136.38L165.54 135.929C162.153 133.21 159.006 130.882 151.991 127.759L151.997 127.753Z" fill="white"/>
<path d="M205.787 116.96L205.294 116.599L202.142 119.348L202.924 119.908C204.235 120.846 205.733 122.356 206.75 123.415L207.219 123.902L210.715 121.249L210.095 120.629C208.434 118.969 207.039 117.88 205.781 116.96H205.787Z" fill="white"/>
<path d="M210.011 114.247L209.481 113.862L206.72 116.624L207.351 117.159C208.368 118.025 209.656 119.259 210.979 120.618L211.491 121.148L214.589 118.38L214.053 117.809C212.381 116.034 210.672 114.723 210.017 114.247H210.011Z" fill="white"/>
<path d="M200.583 120.353L199.963 119.781L196.835 122.91L197.413 123.451C199.699 125.587 201.546 127.386 202.755 129.473C203.423 130.58 203.693 131.242 203.693 131.759C203.693 131.922 203.639 131.976 203.609 132.006C203.242 132.361 201.973 132.313 201.431 132.295L200.204 132.253L202.466 137.282L203.128 137.138C205.51 136.626 208.476 135.995 208.476 132.391C208.476 127.674 202.941 122.555 200.577 120.365L200.583 120.353Z" fill="white"/>
<path d="M192.582 124.427C191.721 124.427 190.831 124.541 190.043 124.667C190.458 122.219 190.662 121.028 191.023 119.463L191.174 118.802L185.705 116.822V117.911C185.705 122.502 185.507 124.15 185.176 126.009L185.146 126.021C183.106 126.623 180.796 127.308 176.964 128.036L175.983 128.223L178.101 132.585L178.684 132.464C179.563 132.278 180.074 132.085 181.59 131.502C181.957 131.345 183.221 130.846 184.243 130.437C183.87 132.218 183.227 134.612 181.674 138.234C179.503 143.323 177.938 145.261 176.428 147.126L175.845 147.842L180.423 150.284L180.802 149.688C184.773 143.444 187.324 137.259 189.279 129.089C190.031 128.915 191.186 128.674 191.992 128.674C193.947 128.674 194.741 130.112 194.741 133.637C194.741 138.216 193.322 142.138 193.159 142.565C192.263 144.918 191.138 144.918 190.151 144.918C189.453 144.918 188.653 144.821 187.317 144.653L185.495 144.43L187.474 149.442L187.937 149.49C189.279 149.622 189.778 149.658 190.271 149.658C191.336 149.658 194.567 149.658 196.504 146.043C198.351 142.68 199.32 136.916 199.32 132.964C199.32 126.665 195.836 124.421 192.576 124.421L192.582 124.427Z" fill="white"/>
<path d="M239.472 129.805C239.598 129.359 239.706 129.028 239.935 128.373L240.163 127.711L235.826 125.792L235.561 126.586C235.495 126.778 235.459 126.947 235.314 127.651C235.248 127.97 235.152 128.409 235.026 129.022C234.845 129.004 234.653 128.998 234.406 128.998C232.493 128.998 230.694 129.317 229.485 129.576C229.551 128.746 229.605 127.897 229.671 126.917L229.689 126.634C233.383 126.141 235.338 125.665 240.151 124.498L241.439 124.185L241.83 119.252L240.705 119.679C237.27 120.985 233.828 121.863 230.219 122.351C230.507 120.648 230.923 118.897 231.458 117.141L231.687 116.389L226.952 115.083L226.795 115.895C226.122 119.457 225.845 121.165 225.677 122.94C223.065 122.994 221.194 122.892 219.167 122.597L218.024 122.429L219.215 126.917L219.757 126.959C220.834 127.037 222.933 127.127 224.118 127.127C224.485 127.127 224.798 127.127 225.273 127.103C225.165 128.421 225.153 129.708 225.153 131.038C223.216 132.03 221.88 132.789 220.31 134.238C218.499 135.845 215.455 139.22 215.455 143.756C215.455 146.68 217.386 149.706 220.611 149.706C222.548 149.706 224.744 148.984 227.301 147.504C227.427 147.955 227.554 148.232 227.788 148.599L228.209 149.255L231.999 146.728L231.783 146.156C231.44 145.26 231.308 144.839 231.235 144.526C234.737 141.187 237.029 136.127 238.028 133.751C239.712 134.359 242.48 135.694 242.48 139.28C242.48 141.091 241.788 142.679 240.362 144.135C238.076 146.421 235.356 146.999 232.048 147.516L230.646 147.733L234.376 151.848L234.827 151.727C236.879 151.174 238.365 150.729 240.26 149.694C243.364 148.015 247.058 144.893 247.058 139.533C247.058 137.228 246.3 135.105 244.88 133.402C243.075 131.2 241.132 130.382 239.49 129.805H239.472ZM233.732 133.023C232.505 135.959 231.338 137.776 230.14 139.388C229.882 138.005 229.611 136.176 229.431 133.504C231.049 133.119 232.366 133.035 233.726 133.017L233.732 133.023ZM225.225 135.345C225.454 138.895 225.893 141.271 226.29 143.389C225.297 144.129 223.667 145.254 221.983 145.254C221.369 145.254 219.943 145.08 219.943 143.467C219.943 142.174 220.424 140.754 221.411 139.154C222.638 137.222 223.938 136.188 225.219 135.351L225.225 135.345Z" fill="white"/>
<path d="M272.458 128.024C271.664 128.024 270.966 128.09 270.347 128.198C271.971 126.64 273.661 124.931 275.93 122.633L276.507 122.044C276.718 121.827 277.873 120.816 278.426 120.329L279.293 119.559L277.223 116.214L276.658 116.382C273.361 117.387 268.367 118.903 259.247 118.777L258.2 118.765L259.644 123.475L260.239 123.439C264.186 123.211 267.549 122.747 269.901 122.296C266.364 126.315 261.082 131.681 254.169 137L253.411 137.583L257.37 140.85L257.857 140.272C257.923 140.194 264.746 132.476 272.073 132.476C277.151 132.476 278.962 135.472 278.962 138.275C278.962 141.079 277.145 142.974 275.918 143.978C274.817 142.029 272.332 138.558 267.266 138.558C262.838 138.558 260.522 141.361 260.522 144.129C260.522 148.388 265.191 150.325 269.522 150.325C275.328 150.325 283.498 146.559 283.498 138.191C283.498 129.822 276.549 128.018 272.446 128.018L272.458 128.024ZM267.02 142.721C269.54 142.721 270.888 144.532 271.622 145.873C270.792 146.012 270.016 146.084 269.282 146.084C267.351 146.084 264.902 145.103 264.902 144.002C264.902 143.563 265.648 142.715 267.026 142.715L267.02 142.721Z" fill="white"/>
<path d="M298.719 138.643C294.748 138.643 291.518 141.873 291.518 145.844C291.518 149.815 294.748 153.003 298.719 153.003C302.69 153.003 305.92 149.79 305.92 145.844C305.92 141.897 302.69 138.643 298.719 138.643ZM298.719 149.766C296.559 149.766 294.802 148.01 294.802 145.844C294.802 143.678 296.559 141.921 298.719 141.921C300.879 141.921 302.641 143.678 302.641 145.844C302.641 148.01 300.885 149.766 298.719 149.766Z" fill="white"/>
</svg>
