<svg width="348" height="202" viewBox="0 0 348 202" fill="none" xmlns="http://www.w3.org/2000/svg">
<path opacity="0.5" d="M214.539 0L109.402 195.356H319.675L214.539 0Z" fill="white"/>
<path d="M91.8848 195.371H94.3323V201.129H92.1926L80.4476 197.804V201.129H78V195.371H80.1397L91.8848 198.697V195.371ZM330.066 195.371V197.372V199.128V201.129H98.4116H96.0718V195.371H98.5193H327.649H330.097H330.066ZM327.634 197.372H98.5039V199.128H327.634V197.372ZM347.183 195.371H330.851V197.372H337.793V201.129H340.241V197.372H347.183V195.371Z" fill="white"/>
<path d="M8.8352 91.4111C8.65048 91.1186 8.58889 90.9492 8.43496 90.1948C7.28046 90.9184 5.51022 91.8884 3.81696 91.8884C2.12369 91.8884 1 90.2718 1 88.5627C1 85.8991 2.77025 83.8667 3.95554 82.8197C5.00229 81.8497 5.86423 81.4032 7.23423 80.6949C7.23423 79.571 7.23427 78.4624 7.37281 77.3384C6.69551 77.3846 6.43378 77.3846 6.07973 77.3846C5.35625 77.3846 4.03244 77.3384 3.30895 77.2768L2.83176 75.4446C4.30952 75.6601 5.61794 75.7063 7.52671 75.6601C7.63446 74.3514 7.78848 73.3044 8.28106 70.7485L10.3283 71.3182C9.75875 73.1658 9.52791 74.6285 9.42015 75.3676C11.9908 75.0751 14.4384 74.4746 16.9167 73.5354L16.7627 75.5832C13.1145 76.4762 11.96 76.7687 9.22003 77.1075C9.14307 78.293 9.08147 79.1552 9.0045 80.0636C9.78956 79.8789 11.175 79.5555 12.7143 79.5555C13.0376 79.5555 13.1915 79.5863 13.4993 79.6325C13.8534 78.0159 13.8688 77.8311 13.9304 77.6771L15.8083 78.5086C15.5928 79.1244 15.5467 79.3092 15.3774 79.9097C16.4703 80.2792 17.8249 80.7103 19.0564 82.2192C19.8876 83.22 20.3494 84.4672 20.3494 85.8375C20.3494 89.194 17.8865 91.0416 16.2394 91.9346C15.0541 92.5813 14.1459 92.8431 12.8528 93.1972L11.2674 91.4573C13.3301 91.134 15.2696 90.7645 16.8705 89.1478C18.0558 87.9314 18.3791 86.7305 18.3791 85.6835C18.3791 82.6811 15.716 81.8497 14.7616 81.5263C14.192 82.8967 12.6373 86.6227 10.1436 88.8861C10.1898 89.1786 10.2206 89.3634 10.5747 90.2872L8.88133 91.4111H8.8352ZM7.23423 82.3116C6.18749 82.9583 5.00226 83.6511 3.92472 85.3448C3.49371 86.0376 2.90876 87.177 2.90876 88.378C2.90876 89.5789 3.80159 90.01 4.7098 90.01C6.11059 90.01 7.37277 89.0092 8.0039 88.5319C7.71143 86.9461 7.35738 85.2062 7.23423 82.2962V82.3116ZM12.976 81.1876C11.7138 81.1876 10.5592 81.1876 8.97369 81.6187C9.14301 84.4056 9.4509 85.8683 9.6664 86.9307C10.8517 85.4064 11.8677 84.036 12.9606 81.1876H12.976Z" fill="white" stroke="white" stroke-width="0.64"/>
<path d="M34.2958 71.3336C33.5723 73.5816 33.4954 73.7971 32.9874 75.1674C35.6196 74.7671 36.2816 74.5516 36.9589 74.336L36.6048 76.3838C35.7427 76.5224 33.7571 76.7533 32.3409 76.9227C30.8323 80.7565 29.2314 84.5441 27.1841 88.1162L25.1367 87.2848C26.2296 85.8683 27.9537 83.6357 30.4474 77.1383C30.155 77.1383 28.7849 77.2152 28.5079 77.2152C27.2918 77.2152 26.6761 77.1382 26.2605 77.0767L26.1835 75.1674C26.8762 75.3522 27.6304 75.5216 29.4622 75.5216C30.1395 75.5216 30.4013 75.5216 30.94 75.46C31.3403 74.259 31.9406 72.4576 32.2792 70.2712L34.2958 71.3182V71.3336ZM39.6834 80.2176C38.8214 80.9413 38.4828 81.3724 38.4828 82.4194C38.4828 82.8505 38.6367 84.4672 38.9138 87.5003C41.1458 88.2548 42.0541 88.7167 43.1008 89.2402L42.4081 91.1186C41.115 90.3488 40.3608 89.9946 38.8368 89.2864C38.5905 90.7337 38.1441 93.2126 34.7884 93.2126C31.7559 93.2126 29.9087 91.3804 29.9087 89.6713C29.9087 87.7929 32.0021 86.6381 34.1726 86.6381C35.1116 86.6381 36.1584 86.8537 36.9589 86.9922C36.8973 86.2378 36.5278 82.7427 36.5278 82.2192C36.5278 80.8181 37.2052 80.0636 38.2981 79.0475L39.6988 80.233L39.6834 80.2176ZM33.9879 88.2394C32.5409 88.2394 31.5404 88.9323 31.5404 89.7175C31.5404 90.9493 33.4799 91.5497 34.7884 91.5497C35.8813 91.5497 36.9435 90.9339 36.9435 89.5019V88.6705C36.1584 88.5165 35.0654 88.2394 33.9879 88.2394ZM38.6367 75.46C40.5763 76.0451 43.07 77.0459 44.9172 78.1237L44.0859 79.8635C42.1002 78.6625 40.9919 78.2006 37.9902 76.9843L38.6367 75.46Z" fill="white" stroke="white" stroke-width="0.64"/>
<path d="M59.3094 71.6723C58.9554 73.0734 58.8323 73.5199 58.1242 76.0758C60.5102 75.5985 61.7262 75.1366 62.6652 74.7671V76.7841C60.818 77.4769 58.8015 77.8311 57.4776 78.0466C56.8003 80.1406 55.9691 82.7273 54.6299 86.0222C53.2137 89.4865 52.5057 90.6413 51.6744 91.95L49.5039 91.4111C50.4737 90.01 51.4435 88.6397 52.8596 85.4217C54.1989 82.3885 54.9224 80.156 55.5227 78.3392C54.045 78.4469 52.8135 78.5239 51.0586 78.4777L50.8431 76.5223C51.3203 76.5993 51.7051 76.6609 52.7519 76.6609C54.0141 76.6609 54.9993 76.5223 56.0307 76.3991C56.3847 75.0904 57.0004 72.7501 57.0774 70.7793L59.3094 71.6877V71.6723ZM60.4332 87.1462C60.2793 87.5157 60.1407 87.9314 60.1407 88.6243C60.1407 90.0716 61.757 90.5797 64.0814 90.5797C65.8517 90.5797 67.5911 90.2871 69.2844 89.7944L69.0226 91.8884C67.3602 92.2117 65.6977 92.3657 64.0044 92.3657C62.5574 92.3657 58.2627 92.1502 58.2627 89.117C58.2627 88.5473 58.4012 87.6389 58.8323 86.4379L60.4485 87.1308L60.4332 87.1462ZM61.4029 79.8634C62.5574 79.7249 64.5432 79.5709 65.6669 79.5709C66.9753 79.5709 68.1915 79.7095 69.3767 80.002L69.2997 81.8804C67.6372 81.5263 66.729 81.4031 64.8972 81.4031C62.773 81.4031 62.0495 81.5879 61.3568 81.7573L61.4183 79.8789L61.4029 79.8634Z" fill="white" stroke="white" stroke-width="0.64"/>
<path d="M87.3099 90.5026C88.3259 90.1485 89.9114 89.6404 91.4199 88.4395C93.2517 86.9922 94.5909 84.4055 94.5909 81.7572C94.5909 77.6155 91.5893 75.3983 90.3425 74.7978C89.3419 74.3359 88.0334 74.105 86.6634 74.0742C86.3094 78.1236 85.3242 82.1267 83.5539 85.8374C82.4302 88.2239 80.9832 90.5642 79.3977 90.5642C77.1503 90.5642 74.8105 87.0999 74.8105 83.2045C74.8105 78.0466 78.859 72.2419 86.1708 72.2419C91.8048 72.2419 96.6076 75.7832 96.6076 81.7418C96.6076 89.0399 90.1115 91.6574 88.4952 92.2887L87.3099 90.4872V90.5026ZM78.4742 77.8772C77.6121 79.0628 76.6269 80.8026 76.6269 83.1429C76.6269 86.0221 78.2587 88.1931 79.3362 88.1931C79.9057 88.1931 80.5368 88.1931 82.2917 83.8974C84.1389 79.3553 84.4621 75.7678 84.6007 74.1204C82.6919 74.4745 80.5215 75.0904 78.4742 77.8772Z" fill="white" stroke="white" stroke-width="0.64"/>
<path d="M24.2542 126.578C19.236 122.898 16.419 119.403 14.5102 115.292V124.668H19.3129V126.624H14.5102V130.812H12.5707V126.624H7.62942V124.668H12.5707V115.292C10.508 119.511 7.3677 123.514 2.93442 126.87L1.30273 125.361C5.38197 122.405 8.79928 118.571 11.0159 114.06H1.94927V112.151H12.5861V106.562L14.6026 106.7C14.7103 106.731 15.1722 106.762 15.1722 106.962C15.1722 107.208 14.9104 107.332 14.5256 107.547V112.135H25.2855V114.045H15.8956C18.5741 119.31 21.9914 122.451 25.9936 124.976L24.2696 126.562L24.2542 126.578Z" fill="white" stroke="white" stroke-width="0.64"/>
<path d="M50.346 129.318H31.874V127.486H50.346V123.76H32.7822V121.928H50.346V118.31H31.9818V116.4H41.541V106.623L43.9116 106.839C44.3734 106.885 44.4196 107.054 44.4196 107.131C44.4196 107.347 44.0655 107.501 43.5883 107.717V116.385H52.3934V130.612H50.346V129.303V129.318ZM34.3215 108.517C35.8454 110.365 37.1385 112.305 38.37 114.83L36.6305 115.877C35.399 113.213 33.9675 111.227 32.7052 109.564L34.3215 108.517ZM46.4823 114.737C48.391 112.49 49.6841 110.503 51.0387 107.947L52.8397 109.256C52.8397 109.256 53.1014 109.472 53.1014 109.687C53.1014 110.041 52.732 110.011 52.2702 109.98C50.6385 112.767 49.3916 114.445 48.2987 115.908L46.4669 114.722L46.4823 114.737Z" fill="white" stroke="white" stroke-width="0.64"/>
<path d="M72.2504 127.286C73.2663 126.932 74.8519 126.424 76.3604 125.223C78.1922 123.775 79.5315 121.189 79.5315 118.54C79.5315 114.399 76.5297 112.181 75.2829 111.581C74.2823 111.119 72.9739 110.888 71.6039 110.857C71.2498 114.907 70.2646 118.91 68.4944 122.621C67.3707 125.007 65.9237 127.347 64.3382 127.347C62.0907 127.347 59.751 123.883 59.751 119.988C59.751 114.83 63.7994 109.025 71.1113 109.025C76.7452 109.025 81.548 112.566 81.548 118.525C81.548 125.823 75.052 128.441 73.4357 129.072L72.2504 127.27V127.286ZM63.4146 114.66C62.5526 115.846 61.5674 117.586 61.5674 119.926C61.5674 122.805 63.1991 124.976 64.2766 124.976C64.8462 124.976 65.4773 124.976 67.2321 120.681C69.0793 116.138 69.4026 112.551 69.5411 110.904C67.6323 111.258 65.4619 111.874 63.4146 114.66Z" fill="white" stroke="white" stroke-width="0.64"/>
<path d="M87.6439 129.38C89.6604 128.117 94.7556 124.899 95.8023 114.399H87.2129V112.459H95.9717C96.0487 111.627 96.1256 110.365 96.2642 106.639L98.4961 106.993C98.6039 107.024 99.0658 107.101 99.0658 107.347C99.0658 107.593 98.881 107.716 98.3114 108.071C98.1729 110.519 98.1729 110.673 98.0498 112.474H107.902C107.902 115.784 107.84 121.651 106.639 126.762C105.777 130.334 104.5 130.658 101.883 130.658H100.143L99.0504 128.21C99.9432 128.317 101.329 128.471 102.406 128.471C103.961 128.471 104.469 127.856 105.177 123.668C105.685 120.573 105.854 117.54 105.9 114.399H97.8805C97.0492 121.327 95.0019 127.024 89.3679 130.92L87.6747 129.395L87.6439 129.38Z" fill="white" stroke="white" stroke-width="0.64"/>
<path d="M121 103L215 103" stroke="white" stroke-width="0.54"/>
</svg>
