<svg width="316" height="60" viewBox="0 0 316 60" fill="none" xmlns="http://www.w3.org/2000/svg">
<path d="M122.899 4.29566V19.8647H120.732V4.29566H115V2.48413H128.66V4.29566H122.899Z" fill="white" stroke="white" stroke-width="1.2"/>
<path d="M138.543 20.3375C134.069 20.3375 131 16.7217 131 11.178C131 5.6343 134.048 2.01123 138.543 2.01123C143.038 2.01123 146.064 5.65612 146.064 11.178C146.064 16.6999 142.994 20.3375 138.543 20.3375ZM138.543 3.80093C135.211 3.80093 133.262 6.84926 133.262 11.178C133.262 15.5068 135.211 18.5551 138.543 18.5551C141.874 18.5551 143.823 15.4631 143.823 11.178C143.823 6.89291 141.874 3.80093 138.543 3.80093Z" fill="white" stroke="white" stroke-width="1.2"/>
<path d="M160.978 19.8647L159.29 14.983H152.082L150.395 19.8647H148.184L154.417 2.49146H156.963L163.196 19.8647H160.985H160.978ZM155.697 4.58672L152.65 13.3243H158.716L155.69 4.58672H155.697Z" fill="white" stroke="white" stroke-width="1.2"/>
<path d="M173.896 1.01456C173.969 1.61113 174.063 4.20112 174.107 4.72494C174.202 5.81622 174.463 6.91478 175.06 7.81691C175.3 8.17339 175.511 8.28978 175.94 8.45711C176.987 7.98422 181.577 5.98354 182.508 5.5543L182.814 7.52588C180.551 8.26068 177.722 9.19191 174.129 11.098C172.987 11.7164 170.608 13.026 170.608 15.3831C170.608 18.6934 173.227 18.6934 174.704 18.6934C174.987 18.6934 177.678 18.6424 180.13 18.3369C181.293 18.1914 181.868 18.075 183.01 17.8131V19.9302C180.413 20.1921 178.253 20.4321 175.133 20.4321C172.012 20.4321 171.038 19.8574 170.23 19.0498C169.183 18.0022 168.87 16.5035 168.87 15.6232C168.87 13.1715 170.776 11.4327 171.416 10.9089C172.463 10.0722 173.562 9.55568 174.151 9.26467C172.536 7.59864 172.318 5.85986 172.034 3.07344C171.961 2.3823 171.918 2.14222 171.845 1.78574C171.75 1.37832 171.75 1.33467 171.729 1.14551L173.896 1V1.01456Z" fill="white" stroke="white" stroke-width="1.2"/>
<path d="M191.931 15.9141C194.331 17.5074 195.713 19.0352 196.761 20.2429L195.524 21.5961C194.026 19.4572 193.029 18.3804 191 16.8381L191.931 15.9069V15.9141Z" fill="white" stroke="white" stroke-width="1.2"/>
<path d="M15.6417 47.8362C13.8087 48.3091 11.3139 48.5273 10.0774 48.6437C10.121 49.4294 10.2447 50.8772 10.3829 52.7106C12.2376 53.1398 13.6924 53.5691 16.2599 54.9513L15.5253 56.6901C14.267 55.7589 13.0741 55.075 10.5065 54.2893C10.5065 55.8826 10.4629 58.0506 6.98614 58.0506C3.50938 58.0506 1.89465 56.4573 1.89465 55.075C1.89465 53.2199 4.08398 52.4123 6.57881 52.4123C7.02977 52.4123 7.6262 52.4341 8.84089 52.5578C8.76815 51.9612 8.46267 49.2985 8.38993 48.7747C7.98261 48.7965 7.48801 48.8256 6.41152 48.8256C4.72406 48.8256 2.38925 48.7092 2.38925 47.4942C2.38925 46.6139 3.45846 45.8282 4.55677 45.0643L5.53143 45.85C5.3205 46.061 5.26958 46.0901 4.74589 46.4684C4.50586 46.6358 4.4113 46.7085 4.4113 46.8758C4.4113 47.2833 5.14593 47.4215 7.16798 47.4215C7.35709 47.4215 8.17172 47.3997 8.33174 47.4215C8.21536 46.3229 8.21536 46.061 8.06989 43.8712C7.00068 43.9439 2.17105 44.3222 1.18912 44.3732L1 42.6344C2.12013 42.6562 4.04762 42.7071 8.01898 42.518C7.99716 42.016 7.97534 41.5649 7.97534 40.8301C7.97534 39.6661 8.01898 39.215 8.06989 38.7349L10.2374 39.2805C9.92466 40.0881 9.85919 41.3539 9.80827 42.4452C11.0666 42.3725 13.6633 42.2052 16.3763 42.2052V43.8203C15.7071 43.7475 15.2125 43.6747 13.8815 43.6747C12.2886 43.6747 10.6666 43.7693 9.76463 43.8203C9.76463 44.2713 9.85919 46.2938 9.93192 47.2687C12.0049 47.0796 13.1468 46.7958 15.598 45.981L15.6417 47.8362ZM6.5279 53.6709C4.91318 53.6709 3.55302 54.1947 3.55302 55.0532C3.55302 56.2464 5.72054 56.5083 6.88431 56.5083C8.83362 56.5083 8.97909 55.5115 8.95727 53.911C7.81532 53.7437 7.17525 53.6709 6.5279 53.6709Z" fill="white" stroke="white" stroke-width="1.2"/>
<path d="M23.1114 44.2422C23.5405 44.315 23.846 44.3586 24.7552 44.3586C25.7299 44.3586 26.7991 44.3077 27.7519 44.1694C28.1301 42.5543 28.632 40.3863 28.5593 38.9095L30.5304 39.7679C30.3631 40.4082 29.6721 43.2164 29.5339 43.813C30.174 43.6675 31.0105 43.5074 33.578 42.387V44.104C31.1268 45.057 29.8394 45.3407 28.9884 45.5299C26.61 53.2635 25.8681 55.3806 24.2751 57.9997L22.3477 57.4977C23.1332 56.3773 23.8678 55.3078 25.0607 52.405C26.2026 49.6477 26.8209 47.5233 27.3228 45.7918C24.777 46.0319 24.0351 46.0028 23.2787 45.981L23.1114 44.2422ZM31.7742 53.409C31.7233 53.6709 31.6578 54.1729 31.6578 54.8349C31.6578 56.29 33.8035 56.3846 34.5163 56.3846C35.04 56.3846 37.8694 56.1954 39.7314 55.6934L39.4696 57.5049C37.9203 57.8105 36.3492 58.0069 34.7854 58.0069C32.5234 58.0069 30.0503 57.4831 30.0503 55.1987C30.0503 54.6967 30.1449 53.9619 30.4286 52.8633L31.7887 53.409H31.7742ZM32.5815 46.9559C35.0764 46.6503 35.6728 46.5775 37.4839 46.5775C38.7204 46.5775 39.0041 46.6503 39.5787 46.7667L39.5278 48.3818C38.7641 48.2654 38.2913 48.1926 36.6256 48.1926C34.96 48.1926 33.9853 48.2654 32.5088 48.571L32.5815 46.9559ZM36.1019 39.6515C36.9093 40.4882 37.673 41.3685 38.4077 42.387L37.1712 43.2455C36.7929 42.7726 35.7164 41.3903 34.9382 40.6482L36.1019 39.6442V39.6515ZM38.8441 38.342C39.7969 39.2732 40.5097 40.219 41.0116 41.0047L39.7751 41.885C39.6078 41.674 38.4149 40.0735 37.6803 39.2659L38.8441 38.3347V38.342Z" fill="white" stroke="white" stroke-width="1.2"/>
<path d="M63.2245 58.7418H60.1042C57.653 58.7418 57.4857 57.6724 57.4857 56.5302V51.9395H55.1509C54.649 55.2934 53.3398 58.6545 47.2736 59.222L46.0371 57.3887C48.8229 57.4396 52.7942 57.2432 53.3398 51.9395H49.863V38.6622H62.8827V51.9395H59.2168V55.7954C59.2168 56.341 59.2168 57.0831 60.4097 57.0831H63.3336C64.4247 57.0831 64.7374 56.9158 65.3557 54.4204L66.9049 55.5407C66.0467 58.7564 65.072 58.7564 63.2172 58.7564L63.2245 58.7418ZM61.0861 40.2701H51.6887V42.5763H61.0861V40.2701ZM61.0861 44.075H51.6887V46.4322H61.0861V44.075ZM61.0861 47.9309H51.6887V50.3826H61.0861V47.9309Z" fill="white" stroke="white" stroke-width="1.2"/>
<path d="M81.4747 39.4625C81.1619 40.6993 81.0455 41.1067 80.4273 43.3693C82.5439 42.9401 83.6131 42.54 84.4495 42.2053V43.9877C82.8057 44.6061 81.0237 44.919 79.8599 45.1081C79.2635 46.9633 78.5289 49.2477 77.336 52.1796C76.0777 55.2498 75.4594 56.2756 74.7175 57.4396L72.79 56.9667C73.6483 55.7299 74.5066 54.515 75.7649 51.6558C76.9578 48.964 77.5978 46.9924 78.1215 45.37C76.8123 45.4646 75.7213 45.5373 74.172 45.4864L73.9829 43.7476C74.412 43.8204 74.7466 43.8641 75.6704 43.8641C76.7905 43.8641 77.6706 43.7476 78.5725 43.624C78.878 42.4599 79.4308 40.3865 79.5035 38.6477L81.4747 39.4553V39.4625ZM82.4784 53.1691C82.3329 53.5037 82.2166 53.8602 82.2166 54.4786C82.2166 55.7663 83.6422 56.2174 85.7151 56.2174C87.2862 56.2174 88.8355 55.9555 90.3338 55.5262L90.0938 57.3814C88.6173 57.6651 87.1408 57.8106 85.6424 57.8106C84.355 57.8106 80.5509 57.6215 80.5509 54.9297C80.5509 54.4277 80.6673 53.6201 81.0528 52.5507L82.4784 53.1691ZM83.3294 46.7232C84.355 46.6068 86.1152 46.4613 87.1117 46.4613C88.2754 46.4613 89.3446 46.5777 90.392 46.8396L90.3193 48.5057C88.8428 48.2001 88.0354 48.0764 86.4134 48.0764C84.5368 48.0764 83.8895 48.2437 83.2712 48.382L83.3221 46.7159L83.3294 46.7232Z" fill="white" stroke="white" stroke-width="1.2"/>
<path d="M112.263 56.6901C109.907 57.0684 107.506 57.1921 105.128 57.1921C103.44 57.1921 101.724 57.0466 100.058 56.6683C99.0835 56.4282 96.7051 55.6715 96.7051 53.2416C96.7051 51.7429 97.6361 50.8117 99.2508 49.313L100.487 50.4334C99.3454 51.3864 98.4871 52.0776 98.4871 53.0307C98.4871 55.4606 103.149 55.577 104.553 55.577C107.434 55.577 109.834 55.075 112.336 54.5294L112.263 56.6974V56.6901ZM98.6326 40.1971C99.0835 40.2699 101.084 40.6046 101.513 40.6482C102.466 40.7937 103.389 40.8374 104.531 40.8374C105.673 40.8374 107.768 40.7428 109.55 40.459L110.481 42.2415C107.979 43.7911 106.677 44.6423 104.961 45.9082L103.768 44.7878C104.386 44.3804 107.055 42.598 107.623 42.2415C106.721 42.387 105.841 42.4306 104.931 42.4306C103.215 42.4306 100.407 42.2197 98.8144 41.885L98.6253 40.1971H98.6326Z" fill="white" stroke="white" stroke-width="1.2"/>
<path d="M123.995 38.7713C124.068 39.3678 124.162 41.9578 124.206 42.4816C124.3 43.5729 124.562 44.6715 125.159 45.5736C125.399 45.9301 125.61 46.0465 126.039 46.2138C127.086 45.7409 131.676 43.7403 132.607 43.311L132.92 45.2826C130.657 46.0174 127.828 46.9486 124.235 48.8547C123.093 49.4731 120.715 50.7827 120.715 53.1399C120.715 56.4501 123.333 56.4501 124.81 56.4501C125.093 56.4501 127.784 56.3992 130.236 56.0936C131.399 55.9481 131.974 55.8317 133.116 55.5698V57.6869C130.519 57.9488 128.359 58.1889 125.239 58.1889C122.118 58.1889 121.144 57.6141 120.336 56.8066C119.289 55.7589 118.983 54.2602 118.983 53.3799C118.983 50.9282 120.889 49.1894 121.529 48.6656C122.577 47.8289 123.668 47.3124 124.264 47.0214C122.649 45.3554 122.431 43.6166 122.147 40.8302C122.075 40.139 122.031 39.8989 121.958 39.5425C121.864 39.135 121.864 39.0914 121.842 38.9022L124.009 38.7567L123.995 38.7713Z" fill="white" stroke="white" stroke-width="1.2"/>
<path d="M150.26 56.1444C151.162 55.8315 152.565 55.3804 153.896 54.311C155.511 53.0233 156.704 50.7389 156.704 48.3817C156.704 44.715 154.042 42.7434 152.944 42.2196C152.064 41.8121 150.9 41.6012 149.685 41.5793C149.372 45.1733 148.492 48.7163 146.928 52.0047C145.925 54.1218 144.645 56.1953 143.241 56.1953C141.24 56.1953 139.175 53.1251 139.175 49.6767C139.175 45.1078 142.768 39.9642 149.241 39.9642C154.238 39.9642 158.501 43.1071 158.501 48.389C158.501 54.8639 152.74 57.1701 151.314 57.7449L150.267 56.1516L150.26 56.1444ZM142.433 44.9551C141.67 46.0027 140.79 47.5523 140.79 49.6185C140.79 52.1648 142.244 54.0927 143.19 54.0927C143.692 54.0927 144.259 54.0927 145.808 50.2878C147.452 46.2646 147.736 43.078 147.852 41.623C146.165 41.9285 144.237 42.4815 142.426 44.9551H142.433Z" fill="white" stroke="white" stroke-width="1.2"/>
<path d="M172.627 39.1495C171.987 41.1502 171.914 41.3394 171.463 42.5543C173.798 42.1978 174.387 42.0087 174.984 41.8196L174.671 43.6311C173.907 43.7475 172.147 43.9657 170.889 44.104C169.558 47.5088 168.132 50.8627 166.321 54.0274L164.51 53.2926C165.484 52.034 167.012 50.0551 169.223 44.2931C168.961 44.2931 167.746 44.3659 167.506 44.3659C166.437 44.3659 165.892 44.2931 165.506 44.2495L165.433 42.5616C166.052 42.7289 166.721 42.8672 168.336 42.8672C168.932 42.8672 169.165 42.8672 169.645 42.8163C170.001 41.7468 170.525 40.1535 170.838 38.2256L172.62 39.1568L172.627 39.1495ZM177.406 47.0286C176.642 47.6688 176.337 48.0544 176.337 48.9784C176.337 49.3567 176.482 50.7899 176.715 53.4745C178.686 54.1438 179.501 54.5439 180.424 55.0241L179.806 56.6901C178.664 55.999 177.995 55.6934 176.642 55.075C176.431 56.3627 176.024 58.5526 173.049 58.5526C170.358 58.5526 168.721 56.9375 168.721 55.4097C168.721 53.7436 170.576 52.7178 172.503 52.7178C173.333 52.7178 174.264 52.907 174.976 53.0307C174.925 52.3614 174.598 49.2694 174.598 48.7965C174.598 47.5597 175.195 46.8904 176.169 45.9882L177.406 47.0359V47.0286ZM172.365 54.1438C171.078 54.1438 170.198 54.7622 170.198 55.4533C170.198 56.5519 171.914 57.0684 173.078 57.0684C174.053 57.0684 174.984 56.5228 174.984 55.2569V54.5221C174.293 54.3766 173.318 54.1438 172.365 54.1438ZM176.482 42.8163C178.199 43.3401 180.41 44.2204 182.054 45.1734L181.319 46.723C179.559 45.6536 178.584 45.2462 175.915 44.1767L176.489 42.8163H176.482Z" fill="white" stroke="white" stroke-width="1.2"/>
<path d="M190.207 43.0781C190.091 43.7184 189.8 45.1007 189.8 47.1232C189.8 52.9288 191.967 55.1405 192.774 55.1405C193.633 55.1405 194.491 52.1431 194.847 50.8554L196.273 52.1649C195.728 53.7145 194.535 57.0684 192.731 57.0684C190.614 57.0684 189.16 53.4526 189.065 53.1907C188.112 50.8335 188.018 47.6906 188.018 45.8573C188.018 44.2131 188.112 43.1 188.163 42.4307L190.207 43.0709V43.0781ZM202.608 42.5034C205.416 45.69 206.412 50.026 206.82 51.9758L204.965 52.5942C204.085 47.4506 202.419 44.9552 200.994 43.0491L202.608 42.5034Z" fill="white" stroke="white" stroke-width="1.2"/>
<path d="M219.57 56.9522C219.403 56.6903 219.359 56.5448 219.214 55.8828C218.188 56.523 216.617 57.3815 215.119 57.3815C213.62 57.3815 212.624 55.9555 212.624 54.4277C212.624 52.0705 214.195 50.2663 215.243 49.3351C216.174 48.4766 216.93 48.0765 218.145 47.4581C218.145 46.4614 218.145 45.4865 218.261 44.4825C217.665 44.5334 217.432 44.5334 217.119 44.5334C216.479 44.5334 215.308 44.4825 214.668 44.4388L214.239 42.8237C215.548 43.0129 216.712 43.0638 218.406 43.0129C218.501 41.8488 218.647 40.9176 219.076 38.655L220.887 39.157C220.385 40.8012 220.174 42.0817 220.079 42.751C222.363 42.4891 224.531 41.9653 226.72 41.1359L226.575 42.9474C223.338 43.7331 222.312 43.9951 219.89 44.3006C219.818 45.3482 219.774 46.1121 219.701 46.9197C220.392 46.7523 221.629 46.4686 222.989 46.4686C223.273 46.4686 223.418 46.4904 223.68 46.5414C223.985 45.1154 224.014 44.9481 224.058 44.8026L225.724 45.5374C225.535 46.083 225.484 46.2504 225.345 46.7742C226.32 47.1088 227.513 47.4872 228.604 48.8185C229.339 49.6988 229.746 50.8192 229.746 52.0342C229.746 55.0097 227.557 56.6539 226.102 57.4397C225.055 58.0144 224.247 58.2472 223.105 58.56L221.701 57.0104C223.534 56.7267 225.251 56.392 226.677 54.9661C227.724 53.8966 228.008 52.8272 228.008 51.8959C228.008 49.2332 225.651 48.4911 224.793 48.2074C224.291 49.4224 222.916 52.7326 220.698 54.726C220.741 54.9879 220.77 55.1553 221.076 55.9628L219.578 56.9595L219.57 56.9522ZM218.137 48.884C217.206 49.4587 216.159 50.0771 215.213 51.5758C214.835 52.1942 214.311 53.1909 214.311 54.2677C214.311 55.3444 215.097 55.7227 215.904 55.7227C217.141 55.7227 218.261 54.8424 218.828 54.4132C218.567 53.0091 218.254 51.4594 218.137 48.8913V48.884ZM223.236 47.8873C222.116 47.8873 221.098 47.8873 219.687 48.2656C219.832 50.7392 220.116 52.0269 220.305 52.98C221.352 51.6268 222.254 50.4118 223.229 47.8873H223.236Z" fill="white" stroke="white" stroke-width="1.2"/>
<path d="M243.551 39.1495C242.911 41.1502 242.838 41.3394 242.387 42.5543C244.722 42.1978 245.311 42.0087 245.908 41.8196L245.595 43.6311C244.831 43.7475 243.071 43.9657 241.813 44.104C240.481 47.5088 239.056 50.8627 237.245 54.0274L235.434 53.2926C236.408 52.034 237.936 50.0551 240.147 44.2931C239.885 44.2931 238.67 44.3659 238.43 44.3659C237.361 44.3659 236.816 44.2931 236.43 44.2495L236.357 42.5616C236.976 42.7289 237.645 42.8672 239.259 42.8672C239.856 42.8672 240.089 42.8672 240.569 42.8163C240.925 41.7468 241.449 40.1535 241.762 38.2256L243.544 39.1568L243.551 39.1495ZM248.337 47.0286C247.573 47.6688 247.268 48.0544 247.268 48.9784C247.268 49.3567 247.413 50.7899 247.646 53.4745C249.617 54.1438 250.432 54.5439 251.355 55.0241L250.737 56.6901C249.595 55.999 248.926 55.6934 247.573 55.075C247.362 56.3627 246.955 58.5526 243.98 58.5526C241.289 58.5526 239.652 56.9375 239.652 55.4097C239.652 53.7436 241.507 52.7178 243.435 52.7178C244.264 52.7178 245.195 52.907 245.908 53.0307C245.857 52.3614 245.529 49.2694 245.529 48.7965C245.529 47.5597 246.126 46.8904 247.1 45.9882L248.337 47.0359V47.0286ZM243.289 54.1438C242.002 54.1438 241.122 54.7622 241.122 55.4533C241.122 56.5519 242.838 57.0684 244.002 57.0684C244.976 57.0684 245.908 56.5228 245.908 55.2569V54.5221C245.217 54.3766 244.242 54.1438 243.289 54.1438ZM247.406 42.8163C249.122 43.3401 251.334 44.2204 252.977 45.1734L252.243 46.723C250.483 45.6536 249.508 45.2462 246.839 44.1767L247.413 42.8163H247.406Z" fill="white" stroke="white" stroke-width="1.2"/>
<path d="M267.153 39.4625C266.841 40.6993 266.724 41.1067 266.106 43.3693C268.223 42.9401 269.292 42.54 270.128 42.2053V43.9877C268.484 44.6061 266.702 44.919 265.539 45.1081C264.942 46.9633 264.208 49.2477 263.015 52.1796C261.756 55.2498 261.138 56.2756 260.396 57.4396L258.469 56.9667C259.327 55.7299 260.185 54.515 261.444 51.6558C262.636 48.964 263.277 46.9924 263.8 45.37C262.491 45.4646 261.4 45.5373 259.851 45.4864L259.662 43.7476C260.091 43.8204 260.425 43.8641 261.349 43.8641C262.469 43.8641 263.349 43.7476 264.251 43.624C264.557 42.4599 265.109 40.3865 265.182 38.6477L267.153 39.4553V39.4625ZM268.15 53.1691C268.004 53.5037 267.888 53.8602 267.888 54.4786C267.888 55.7663 269.314 56.2174 271.387 56.2174C272.958 56.2174 274.507 55.9555 276.005 55.5262L275.765 57.3814C274.289 57.6651 272.812 57.8106 271.314 57.8106C270.026 57.8106 266.222 57.6215 266.222 54.9297C266.222 54.4277 266.339 53.6201 266.724 52.5507L268.15 53.1691ZM269.008 46.7232C270.034 46.6068 271.794 46.4613 272.79 46.4613C273.954 46.4613 275.023 46.5777 276.071 46.8396L275.998 48.5057C274.521 48.2001 273.714 48.0764 272.092 48.0764C270.216 48.0764 269.568 48.2437 268.95 48.382L269.001 46.7159L269.008 46.7232Z" fill="white" stroke="white" stroke-width="1.2"/>
<path d="M282.043 50.1933C283.97 48.2144 284.851 47.0722 286.945 44.3368C287.542 43.551 288.298 42.5543 289.753 42.5543C291.208 42.5543 292.204 43.842 293.397 45.3407C296.466 49.1966 300.103 52.0558 301.871 53.409L300.445 54.9077C296.277 51.6702 294.423 49.3639 291.28 45.479C290.757 44.8097 290.4 44.4823 289.709 44.4823C288.924 44.4823 288.756 44.6932 287.258 46.7667C285.025 49.8368 284.785 50.1715 283.905 51.3137L282.05 50.1933H282.043Z" fill="white" stroke="white" stroke-width="1.2"/>
<path d="M314.949 55.6207C314.949 57.6214 313.305 59.2583 311.283 59.2583C309.261 59.2583 307.617 57.6141 307.617 55.6207C307.617 53.6273 309.283 51.954 311.283 51.954C313.283 51.954 314.949 53.5691 314.949 55.6207ZM308.621 55.6207C308.621 57.0757 309.814 58.2834 311.283 58.2834C312.752 58.2834 313.945 57.0685 313.945 55.6207C313.945 54.1729 312.731 52.958 311.283 52.958C309.836 52.958 308.621 54.122 308.621 55.6207Z" fill="white" stroke="white" stroke-width="1.2"/>
</svg>
