<svg width="760" height="42" viewBox="0 0 760 42" fill="none" xmlns="http://www.w3.org/2000/svg">
<path d="M15.3039 8.86609V37.7306H11.2853V8.86609H0.65918V5.50757H25.984V8.86609H15.3039Z" fill="white" stroke="white" stroke-width="1.2"/>
<path d="M49.9331 38.6073C41.6399 38.6073 35.9492 31.9038 35.9492 21.6258C35.9492 11.3479 41.5994 4.63086 49.9331 4.63086C58.2668 4.63086 63.8766 11.3884 63.8766 21.6258C63.8766 31.8633 58.1859 38.6073 49.9331 38.6073ZM49.9331 7.94892C43.757 7.94892 40.143 13.6004 40.143 21.6258C40.143 29.6513 43.757 35.3027 49.9331 35.3027C56.1092 35.3027 59.7232 29.5703 59.7232 21.6258C59.7232 13.6814 56.1092 7.94892 49.9331 7.94892Z" fill="white" stroke="white" stroke-width="1.2"/>
<path d="M97.5218 37.7308L94.3933 28.6802H81.0297L77.9012 37.7308H73.8018L85.3584 5.52124H90.0781L101.635 37.7308H97.5353H97.5218ZM87.7317 9.40581L82.0815 25.605H93.328L87.7182 9.40581H87.7317Z" fill="white" stroke="white" stroke-width="1.2"/>
<path d="M121.471 2.78311C121.606 3.88913 121.782 8.69089 121.862 9.66203C122.038 11.6852 122.523 13.7219 123.629 15.3945C124.074 16.0554 124.465 16.2712 125.261 16.5814C127.203 15.7047 135.712 11.9954 137.438 11.1997L138.004 14.8549C133.81 16.2172 128.565 17.9437 121.903 21.4776C119.786 22.624 115.376 25.0519 115.376 29.4221C115.376 35.5591 120.231 35.5591 122.968 35.5591C123.494 35.5591 128.484 35.4647 133.028 34.8982C135.186 34.6285 136.251 34.4126 138.368 33.9271V37.8521C133.554 38.3377 129.549 38.7828 123.764 38.7828C117.979 38.7828 116.172 37.7172 114.675 36.22C112.733 34.2777 112.153 31.4992 112.153 29.8671C112.153 25.3217 115.686 22.098 116.873 21.1269C118.815 19.5758 120.851 18.6181 121.943 18.0786C118.95 14.9898 118.545 11.7661 118.019 6.60021C117.884 5.31885 117.804 4.87375 117.669 4.21284C117.493 3.45751 117.493 3.37657 117.453 3.02588L121.471 2.7561V2.78311Z" fill="white" stroke="white" stroke-width="1.2"/>
<path d="M150.585 30.4065C155.035 33.3604 157.598 36.1929 159.539 38.4319L157.247 40.9407C154.469 36.9752 152.622 34.979 148.859 32.1195L150.585 30.3931V30.4065Z" fill="white" stroke="white" stroke-width="1.2"/>
<path d="M204.093 19.5892C200.695 20.4659 196.07 20.8705 193.778 21.0863C193.858 22.543 194.088 25.2272 194.344 28.6262C197.783 29.422 200.48 30.2178 205.24 32.7805L203.878 36.0042C201.545 34.2777 199.333 33.0098 194.573 31.5531C194.573 34.507 194.492 38.5264 188.046 38.5264C181.601 38.5264 178.607 35.5726 178.607 33.0098C178.607 29.5704 182.666 28.0732 187.291 28.0732C188.127 28.0732 189.233 28.1136 191.485 28.3429C191.35 27.2369 190.784 22.3003 190.649 21.3291C189.894 21.3696 188.977 21.4235 186.981 21.4235C183.853 21.4235 179.524 21.2077 179.524 18.9552C179.524 17.3232 181.506 15.8665 183.542 14.4502L185.349 15.9069C184.958 16.2981 184.864 16.352 183.893 17.0534C183.448 17.3636 183.273 17.4985 183.273 17.8087C183.273 18.5641 184.635 18.8203 188.384 18.8203C188.734 18.8203 190.244 18.7799 190.541 18.8203C190.325 16.7836 190.325 16.2981 190.056 12.2382C188.073 12.373 179.119 13.0744 177.299 13.1688L176.948 9.94521C179.025 9.98567 182.598 10.0801 189.961 9.72939C189.921 8.79871 189.88 7.96244 189.88 6.60015C189.88 4.44206 189.961 3.60579 190.056 2.71558L194.074 3.72718C193.494 5.22436 193.373 7.57129 193.279 9.5945C195.611 9.45962 200.426 9.14941 205.455 9.14941V12.1438C204.215 12.0089 203.298 11.874 200.83 11.874C197.877 11.874 194.87 12.0494 193.198 12.1438C193.198 12.98 193.373 16.7297 193.508 18.5371C197.351 18.1864 199.468 17.6604 204.013 16.1497L204.093 19.5892ZM187.197 30.4066C184.203 30.4066 181.681 31.3778 181.681 32.9694C181.681 35.1814 185.7 35.667 187.858 35.667C191.472 35.667 191.741 33.8191 191.701 30.8517C189.584 30.5415 188.397 30.4066 187.197 30.4066Z" fill="white" stroke="white" stroke-width="1.2"/>
<path d="M217.942 12.9262C218.738 13.0611 219.304 13.142 220.99 13.142C222.797 13.142 224.779 13.0476 226.546 12.7913C227.247 9.79695 228.177 5.77753 228.043 3.03945L231.697 4.63103C231.387 5.81798 230.106 11.0244 229.85 12.1304C231.036 11.8606 232.587 11.5639 237.347 9.48675V12.6699C232.803 14.4369 230.416 14.9629 228.838 15.3136C224.429 29.6514 223.053 33.5764 220.1 38.4321L216.526 37.5015C217.983 35.4243 219.345 33.4416 221.556 28.0598C223.673 22.9478 224.82 19.0093 225.75 15.7992C221.03 16.2443 219.655 16.1903 218.252 16.1499L217.942 12.9262ZM234.003 29.9212C233.908 30.4067 233.787 31.3374 233.787 32.5648C233.787 35.2624 237.765 35.4378 239.087 35.4378C240.058 35.4378 245.303 35.0871 248.755 34.1564L248.27 37.515C245.398 38.0815 242.485 38.4456 239.586 38.4456C235.392 38.4456 230.807 37.4745 230.807 33.2392C230.807 32.3086 230.982 30.9463 231.508 28.9096L234.03 29.9212H234.003ZM235.5 17.9573C240.125 17.3908 241.231 17.2558 244.589 17.2558C246.881 17.2558 247.407 17.3907 248.472 17.6066L248.378 20.6009C246.962 20.3851 246.085 20.2502 242.997 20.2502C239.909 20.2502 238.102 20.3851 235.365 20.9516L235.5 17.9573ZM242.026 4.41522C243.523 5.96634 244.939 7.59841 246.301 9.48675L244.009 11.0783C243.308 10.2016 241.312 7.63886 239.869 6.26308L242.026 4.40171V4.41522ZM247.11 1.98738C248.877 3.71385 250.198 5.46727 251.129 6.92398L248.836 8.55607C248.526 8.16491 246.315 5.19753 244.953 3.70035L247.11 1.97388V1.98738Z" fill="white" stroke="white" stroke-width="1.2"/>
<path d="M292.312 39.8079H286.527C281.983 39.8079 281.673 37.8252 281.673 35.7075V27.1966H277.344C276.413 33.4146 273.986 39.646 262.74 40.6981L260.447 37.2991C265.612 37.3935 272.975 37.0294 273.986 27.1966H267.54V2.58081H291.678V27.1966H284.882V34.3452C284.882 35.3568 284.882 36.7326 287.094 36.7326H292.515C294.537 36.7326 295.117 36.4224 296.263 31.7959L299.136 33.8731C297.544 39.8349 295.737 39.8349 292.299 39.8349L292.312 39.8079ZM288.348 5.56166H270.925V9.83736H288.348V5.56166ZM288.348 12.6159H270.925V16.9861H288.348V12.6159ZM288.348 19.7646H270.925V24.3101H288.348V19.7646Z" fill="white" stroke="white" stroke-width="1.2"/>
<path d="M326.146 4.06461C325.566 6.35759 325.35 7.11291 324.204 11.3077C328.128 10.5119 330.111 9.7701 331.661 9.14964V12.4542C328.614 13.6007 325.31 14.1807 323.152 14.5314C322.047 17.9708 320.685 22.2061 318.473 27.6418C316.14 33.3338 314.994 35.2356 313.618 37.3937L310.045 36.5169C311.636 34.2239 313.227 31.9715 315.56 26.6706C317.772 21.6801 318.958 18.0248 319.929 15.0169C317.502 15.1923 315.479 15.3272 312.607 15.2327L312.256 12.0091C313.052 12.144 313.672 12.2249 315.385 12.2249C317.462 12.2249 319.093 12.0091 320.765 11.7798C321.332 9.6217 322.357 5.77761 322.492 2.55396L326.146 4.05115V4.06461ZM328.007 29.4761C327.737 30.0966 327.521 30.7575 327.521 31.904C327.521 34.2914 330.164 35.1277 334.008 35.1277C336.92 35.1277 339.793 34.6421 342.571 33.8463L342.126 37.2858C339.388 37.8118 336.651 38.0815 333.873 38.0815C331.486 38.0815 324.433 37.7309 324.433 32.7403C324.433 31.8096 324.649 30.3124 325.364 28.3297L328.007 29.4761ZM329.585 17.5257C331.486 17.3099 334.749 17.0401 336.597 17.0401C338.754 17.0401 340.737 17.256 342.679 17.7415L342.544 20.8303C339.806 20.2638 338.309 20.0345 335.302 20.0345C331.823 20.0345 330.623 20.3447 329.477 20.601L329.571 17.5122L329.585 17.5257Z" fill="white" stroke="white" stroke-width="1.2"/>
<path d="M383.227 36.0042C378.858 36.7056 374.408 36.9349 369.998 36.9349C366.87 36.9349 363.687 36.6652 360.599 35.9638C358.792 35.5187 354.383 34.1159 354.383 29.6109C354.383 26.8323 356.109 25.1059 359.103 22.3273L361.395 24.4045C359.278 26.1714 357.687 27.4528 357.687 29.2197C357.687 33.7248 366.33 33.9406 368.933 33.9406C374.273 33.9406 378.723 33.0099 383.362 31.9983L383.227 36.0177V36.0042ZM357.956 5.42676C358.792 5.56164 362.501 6.18208 363.296 6.26301C365.063 6.53277 366.775 6.61372 368.893 6.61372C371.01 6.61372 374.893 6.43834 378.197 5.91231L379.923 9.2169C375.285 12.0899 372.871 13.668 369.688 16.0149L367.477 13.9377C368.623 13.1824 373.572 9.87782 374.624 9.2169C372.952 9.48667 371.32 9.56761 369.634 9.56761C366.452 9.56761 361.247 9.17645 358.293 8.556L357.943 5.42676H357.956Z" fill="white" stroke="white" stroke-width="1.2"/>
<path d="M404.979 2.78311C405.114 3.88913 405.289 8.69089 405.37 9.66203C405.545 11.6852 406.031 13.7219 407.136 15.3945C407.581 16.0554 407.972 16.2712 408.768 16.5814C410.71 15.7047 419.219 11.9954 420.945 11.1997L421.525 14.8549C417.331 16.2172 412.085 17.9437 405.424 21.4776C403.307 22.624 398.897 25.0519 398.897 29.4221C398.897 35.5591 403.752 35.5591 406.489 35.5591C407.015 35.5591 412.004 35.4647 416.549 34.8982C418.706 34.6285 419.772 34.4126 421.889 33.9271V37.8521C417.075 38.3377 413.07 38.7828 407.285 38.7828C401.5 38.7828 399.693 37.7172 398.196 36.22C396.254 34.2777 395.688 31.4992 395.688 29.8671C395.688 25.3217 399.221 22.098 400.407 21.1269C402.349 19.5758 404.372 18.6181 405.478 18.0786C402.484 14.9898 402.079 11.7661 401.553 6.60021C401.419 5.31885 401.338 4.87375 401.203 4.21284C401.028 3.45751 401.028 3.37657 400.987 3.02588L405.006 2.7561L404.979 2.78311Z" fill="white" stroke="white" stroke-width="1.2"/>
<path d="M453.673 34.9924C455.345 34.4124 457.948 33.5761 460.416 31.5934C463.409 29.206 465.621 24.9707 465.621 20.6006C465.621 13.8026 460.685 10.1473 458.649 9.17619C457.017 8.42085 454.86 8.02969 452.608 7.98923C452.028 14.6523 450.396 21.2211 447.497 27.3177C445.636 31.2427 443.263 35.0868 440.66 35.0868C436.952 35.0868 433.122 29.3948 433.122 23.0015C433.122 14.531 439.784 4.99487 451.785 4.99487C461.049 4.99487 468.952 10.8217 468.952 20.6141C468.952 32.6185 458.272 36.8942 455.628 37.9597L453.687 35.0058L453.673 34.9924ZM439.163 14.2477C437.747 16.19 436.116 19.063 436.116 22.8936C436.116 27.6144 438.813 31.1887 440.566 31.1887C441.496 31.1887 442.548 31.1887 445.42 24.1345C448.468 16.6756 448.994 10.7678 449.21 8.07015C446.081 8.63665 442.508 9.66177 439.15 14.2477H439.163Z" fill="white" stroke="white" stroke-width="1.2"/>
<path d="M495.14 3.48446C493.953 7.19368 493.819 7.54436 492.982 9.79687C497.311 9.13595 498.403 8.78529 499.509 8.4346L498.929 11.7931C497.513 12.0089 494.25 12.4136 491.917 12.6698C489.449 18.9823 486.806 25.2003 483.449 31.0676L480.091 29.7053C481.898 27.3718 484.73 23.7031 488.829 13.0205C488.344 13.0205 486.092 13.1554 485.647 13.1554C483.664 13.1554 482.653 13.0205 481.938 12.9396L481.803 9.81037C482.95 10.1206 484.19 10.3769 487.184 10.3769C488.29 10.3769 488.721 10.3769 489.611 10.2825C490.272 8.29971 491.243 5.34582 491.823 1.77148L495.127 3.49796L495.14 3.48446ZM504 18.0921C502.584 19.279 502.017 19.9939 502.017 21.7069C502.017 22.4082 502.287 25.0654 502.719 30.0425C506.373 31.2834 507.883 32.0252 509.596 32.9154L508.45 36.0042C506.333 34.7229 505.092 34.1564 502.584 33.0099C502.193 35.3973 501.438 39.4572 495.922 39.4572C490.933 39.4572 487.899 36.4628 487.899 33.6303C487.899 30.5415 491.337 28.6397 494.911 28.6397C496.448 28.6397 498.174 28.9904 499.496 29.2197C499.401 27.9788 498.794 22.2464 498.794 21.3697C498.794 19.0767 499.9 17.8358 501.707 16.1632L504 18.1055V18.0921ZM494.655 31.2834C492.268 31.2834 490.636 32.4299 490.636 33.7112C490.636 35.7479 493.819 36.7056 495.976 36.7056C497.783 36.7056 499.509 35.694 499.509 33.3471V31.9848C498.228 31.715 496.421 31.2834 494.655 31.2834ZM502.287 10.2825C505.47 11.2536 509.569 12.8856 512.617 14.6526L511.255 17.5255C507.991 15.5428 506.184 14.7875 501.235 12.8047L502.301 10.2825H502.287Z" fill="white" stroke="white" stroke-width="1.2"/>
<path d="M527.733 10.768C527.517 11.955 526.978 14.5177 526.978 18.2674C526.978 29.0309 530.996 33.1313 532.493 33.1313C534.084 33.1313 535.675 27.5742 536.336 25.1868L538.979 27.6147C537.968 30.4876 535.756 36.7056 532.412 36.7056C528.488 36.7056 525.791 30.002 525.616 29.5165C523.849 25.1463 523.674 19.3195 523.674 15.9205C523.674 12.8722 523.849 10.8085 523.944 9.56763L527.733 10.7546V10.768ZM550.725 9.70252C555.93 15.6103 557.777 23.6492 558.532 27.264L555.094 28.4105C553.462 18.8744 550.374 14.248 547.731 10.7141L550.725 9.70252Z" fill="white" stroke="white" stroke-width="1.2"/>
<path d="M582.171 36.4899C581.861 36.0043 581.78 35.7346 581.51 34.5071C579.609 35.6941 576.696 37.2857 573.918 37.2857C571.14 37.2857 569.293 34.642 569.293 31.8095C569.293 27.4394 572.206 24.0943 574.148 22.3679C575.874 20.7763 577.276 20.0345 579.528 18.888C579.528 17.0401 579.528 15.2327 579.744 13.3713C578.638 13.4658 578.207 13.4657 577.627 13.4657C576.44 13.4657 574.269 13.3713 573.082 13.2904L572.287 10.296C574.714 10.6467 576.871 10.7411 580.013 10.6467C580.189 8.48864 580.459 6.76217 581.254 2.56738L584.612 3.49806C583.681 6.54637 583.29 8.92027 583.115 10.1612C587.349 9.67561 591.368 8.70446 595.427 7.16682L595.157 10.5253C589.156 11.9821 587.255 12.4676 582.764 13.0341C582.63 14.9764 582.549 16.3926 582.414 17.8898C583.695 17.5796 585.987 17.0536 588.509 17.0536C589.035 17.0536 589.305 17.094 589.79 17.1885C590.356 14.5448 590.41 14.2345 590.491 13.9648L593.579 15.3271C593.229 16.3387 593.134 16.6489 592.878 17.6201C594.685 18.2405 596.897 18.9419 598.919 21.4102C600.281 23.0423 601.037 25.1194 601.037 27.3719C601.037 32.8886 596.978 35.9369 594.281 37.3936C592.339 38.4592 590.842 38.8908 588.725 39.4707L586.122 36.5978C589.52 36.0717 592.703 35.4513 595.346 32.8076C597.288 30.8249 597.814 28.8421 597.814 27.1157C597.814 22.179 593.445 20.8033 591.853 20.2772C590.923 22.5297 588.374 28.6668 584.261 32.3625C584.342 32.8481 584.396 33.1584 584.963 34.6555L582.185 36.5034L582.171 36.4899ZM579.515 21.5316C577.788 22.5972 575.847 23.7437 574.094 26.5222C573.392 27.6687 572.421 29.5165 572.421 31.5128C572.421 33.509 573.878 34.2104 575.375 34.2104C577.667 34.2104 579.744 32.5784 580.796 31.7826C580.31 29.1794 579.73 26.3064 579.515 21.5451V21.5316ZM588.968 19.6838C586.891 19.6838 585.003 19.6837 582.387 20.3851C582.657 24.9711 583.182 27.3585 583.533 29.1254C585.475 26.6166 587.147 24.3641 588.954 19.6838H588.968Z" fill="white" stroke="white" stroke-width="1.2"/>
<path d="M626.631 3.48446C625.445 7.19368 625.31 7.54436 624.474 9.79687C628.802 9.13595 629.895 8.78529 631 8.4346L630.421 11.7931C629.005 12.0089 625.741 12.4136 623.408 12.6698C620.941 18.9823 618.298 25.2003 614.94 31.0676L611.582 29.7053C613.389 27.3718 616.221 23.7031 620.32 13.0205C619.835 13.0205 617.583 13.1554 617.138 13.1554C615.156 13.1554 614.144 13.0205 613.429 12.9396L613.295 9.81037C614.441 10.1206 615.681 10.3769 618.675 10.3769C619.781 10.3769 620.212 10.3769 621.102 10.2825C621.763 8.29971 622.734 5.34582 623.314 1.77148L626.618 3.49796L626.631 3.48446ZM635.504 18.0921C634.088 19.279 633.522 19.9939 633.522 21.7069C633.522 22.4082 633.792 25.0654 634.223 30.0425C637.878 31.2834 639.388 32.0252 641.101 32.9154L639.954 36.0042C637.837 34.7229 636.597 34.1564 634.088 33.0099C633.697 35.3973 632.942 39.4572 627.427 39.4572C622.437 39.4572 619.403 36.4628 619.403 33.6303C619.403 30.5415 622.842 28.6397 626.415 28.6397C627.953 28.6397 629.679 28.9904 631 29.2197C630.906 27.9788 630.299 22.2464 630.299 21.3697C630.299 19.0767 631.405 17.8358 633.212 16.1632L635.504 18.1055V18.0921ZM626.146 31.2834C623.759 31.2834 622.127 32.4299 622.127 33.7112C622.127 35.7479 625.31 36.7056 627.467 36.7056C629.274 36.7056 631 35.694 631 33.3471V31.9848C629.719 31.715 627.912 31.2834 626.146 31.2834ZM633.778 10.2825C636.961 11.2536 641.06 12.8856 644.108 14.6526L642.746 17.5255C639.482 15.5428 637.675 14.7875 632.726 12.8047L633.792 10.2825H633.778Z" fill="white" stroke="white" stroke-width="1.2"/>
<path d="M670.39 4.06461C669.81 6.35759 669.595 7.11291 668.448 11.3077C672.372 10.5119 674.355 9.7701 675.905 9.14964V12.4542C672.858 13.6007 669.554 14.1807 667.396 14.5314C666.291 17.9708 664.929 22.2061 662.717 27.6418C660.384 33.3338 659.238 35.2356 657.863 37.3937L654.289 36.5169C655.88 34.2239 657.472 31.9715 659.804 26.6706C662.016 21.6801 663.203 18.0248 664.174 15.0169C661.746 15.1923 659.723 15.3272 656.851 15.2327L656.501 12.0091C657.296 12.144 657.917 12.2249 659.629 12.2249C661.706 12.2249 663.337 12.0091 665.01 11.7798C665.576 9.6217 666.601 5.77761 666.736 2.55396L670.39 4.05115V4.06461ZM672.238 29.4761C671.968 30.0966 671.752 30.7575 671.752 31.904C671.752 34.2914 674.395 35.1277 678.238 35.1277C681.151 35.1277 684.023 34.6421 686.801 33.8463L686.356 37.2858C683.619 37.8118 680.881 38.0815 678.104 38.0815C675.717 38.0815 668.664 37.7309 668.664 32.7403C668.664 31.8096 668.88 30.3124 669.595 28.3297L672.238 29.4761ZM673.829 17.5257C675.73 17.3099 678.993 17.0401 680.841 17.0401C682.999 17.0401 684.981 17.256 686.923 17.7415L686.788 20.8303C684.05 20.2638 682.554 20.0345 679.546 20.0345C676.067 20.0345 674.867 20.3447 673.721 20.601L673.815 17.5122L673.829 17.5257Z" fill="white" stroke="white" stroke-width="1.2"/>
<path d="M697.994 23.9594C701.568 20.2906 703.199 18.173 707.083 13.1015C708.189 11.6448 709.591 9.79688 712.288 9.79688C714.985 9.79688 716.833 12.1843 719.044 14.9628C724.735 22.1115 731.477 27.4123 734.754 29.9211L732.111 32.6996C724.384 26.6975 720.946 22.4217 715.12 15.2191C714.149 13.9782 713.488 13.3712 712.207 13.3712C710.751 13.3712 710.441 13.7624 707.663 17.6065C703.523 23.2985 703.078 23.9189 701.446 26.0365L698.008 23.9594H697.994Z" fill="white" stroke="white" stroke-width="1.2"/>
<path d="M759 34.0216C759 37.7309 755.953 40.7657 752.204 40.7657C748.455 40.7657 745.407 37.7174 745.407 34.0216C745.407 30.3259 748.495 27.2236 752.204 27.2236C755.912 27.2236 759 30.218 759 34.0216ZM747.268 34.0216C747.268 36.7193 749.48 38.9582 752.204 38.9582C754.928 38.9582 757.139 36.7058 757.139 34.0216C757.139 31.3375 754.887 29.085 752.204 29.085C749.52 29.085 747.268 31.2431 747.268 34.0216Z" fill="white" stroke="white" stroke-width="1.2"/>
</svg>
