<svg width="524" height="57" viewBox="0 0 524 57" fill="none" xmlns="http://www.w3.org/2000/svg">
<path d="M32.1086 14.6876L33.5734 15.5625L36.7882 8.81842L35.5396 8.10075C29.6311 4.69919 24.8041 3.54896 21.255 2.91977L20.1441 2.72314L16.8311 9.02487L18.7481 9.5066C26.0035 11.3155 28.5006 12.5346 32.1086 14.6876Z" fill="white"/>
<path d="M19.4459 34.5366L17.1847 26.9077L15.3463 28.6576C11.2369 32.5704 6.54751 35.7557 1.38618 38.1152L0 38.7542L3.30325 46.3438L4.76808 45.6163C10.2243 42.8832 14.8351 38.8033 18.7282 35.1953L19.4361 34.5366H19.4459Z" fill="white"/>
<path d="M41.5764 22.8475L40.5441 21.9233L35.3828 26.5538L36.4741 27.7139C41.0947 32.6196 44.3291 37.368 46.6492 42.6768L47.4751 44.5643L54.0521 39.0884L53.3639 37.948C47.4259 28.0481 44.3094 25.2856 41.5764 22.8475Z" fill="white"/>
<path d="M32.3238 29.5621C28.1849 24.912 27.654 24.2533 27.654 22.5034C27.654 21.5891 27.9096 20.8321 28.4897 20.0652L29.5416 18.6594L22.7876 14.7958L22.0208 16.3786C20.8607 18.7577 20.2217 20.0652 20.2217 22.4345C20.2217 26.7897 22.3846 29.0803 26.2973 33.2389C28.7551 35.8638 29.7874 37.5253 29.7874 41.0251C29.7874 42.3818 29.7874 43.9253 26.1007 43.9253C24.2033 43.9253 22.9154 43.6009 16.5449 41.7625L13.9102 41.0055L16.2401 49.7256L17.1348 49.9419C20.5068 50.7579 22.7778 51.2495 25.9237 51.2495C33.3364 51.2495 37.5834 47.8577 37.5834 41.9394C37.5834 37.9578 35.627 33.2192 32.6187 29.8963L32.3238 29.5621Z" fill="white"/>
<path d="M94.8695 9.45752C89.9835 9.45752 82.3349 11.6302 72.6808 14.3829C69.6823 15.1989 65.0224 15.9952 61.3357 16.3196L58.8779 16.5359L63.5182 24.332L64.5701 24.1452C67.4506 23.6438 68.3944 23.4275 72.7103 22.1101C82.8658 18.915 90.9469 16.4671 94.9285 16.4671C100.247 16.4671 104.573 21.0385 104.573 26.6521C104.573 27.9006 104.258 34.3203 98.1138 37.948C91.7334 41.7035 81.9515 41.7035 77.7831 41.7035H75.0796L79.887 49.9518L81.1355 49.8338C86.3263 49.3324 97.1405 48.2805 104.691 42.5785C109.773 38.7935 112.054 31.7643 112.054 26.4751C112.054 14.8646 101.791 9.45752 94.8597 9.45752H94.8695Z" fill="white"/>
<path d="M144.095 10.3325C144.468 10.3325 144.852 10.3325 145.245 10.3325H146.788V3.04764L145.029 3.01814C141.185 2.95916 134.745 2.86085 127.657 0.62919L125.642 0V7.34382L126.576 7.7469C130.724 9.53616 133.723 10.3423 144.104 10.3423L144.095 10.3325Z" fill="white"/>
<path d="M142.226 14.2747C137.665 14.2747 133.437 15.9067 126.359 18.7774C123.233 20.0357 122.269 20.311 119.418 21.127L117.619 21.6382L121.522 29.4441L122.938 28.6773C129.741 24.971 136.79 21.3433 141.754 21.3433C143.318 21.3433 144.832 22.0413 145.598 23.0932C146.611 24.5384 146.827 26.4849 146.827 27.8613C146.827 37.4269 139.936 43.1978 136.986 45.223C133.978 47.2285 131.963 47.8479 128.404 48.6737L126.113 49.2046L131.206 56.1257L132.297 55.7324C138.52 53.4713 141.292 51.918 144.684 48.7819C150.809 43.0307 154.319 35.2051 154.319 27.3108C154.319 17.6861 147.81 14.2649 142.236 14.2649L142.226 14.2747Z" fill="white"/>
<path d="M188.786 4.28638C171.887 4.28638 161.78 17.5583 161.78 30.3879C161.78 39.8258 167.423 48.428 173.617 48.428C177.245 48.428 180.646 44.7806 184.343 36.9551C188.039 29.2279 190.389 20.6945 191.333 11.5516C193.731 11.7285 195.884 12.2201 197.506 12.9574C197.86 13.1245 206.128 17.1946 206.128 27.1437C206.128 32.364 203.572 37.7711 199.61 40.917C196.592 43.3453 193.456 44.4071 191.165 45.1935L188.983 45.9407L193.427 52.7045L194.606 52.2326C210.434 45.9014 213.747 35.097 213.747 27.1437C213.747 13.9012 203.248 4.29621 188.796 4.29621L188.786 4.28638ZM183.566 11.994C183.163 16.0247 182.131 22.9261 178.69 31.371C175.17 40.0322 174.01 40.0322 173.509 40.0322C172.349 40.0322 168.986 36.1981 168.986 30.2699C168.986 25.2659 171.189 21.6677 172.84 19.3869C176.419 14.491 180.066 12.8394 183.576 11.994H183.566Z" fill="white"/>
<path d="M259.226 7.24546C259.826 6.83256 260.494 6.18371 260.494 5.11212C260.494 3.02792 258.174 2.84113 257.388 2.78215L251.194 2.28076L251.253 4.02086C251.352 6.84239 251.519 11.3745 251.548 16.0148H241.481V8.27773C242.356 7.78617 242.926 7.26512 242.926 6.25252C242.926 5.69215 242.69 4.36495 240.469 4.05036L233.872 3.31303V16.0148H220.698V23.3881H233.872V38.0659H241.481V23.3881H251.656C251.391 28.5396 250.988 33.1111 248.825 37.7022C245.876 43.768 242.307 45.3803 236.772 47.3268L234.157 48.2411L241.265 54.0316L242.14 53.6286C247.98 50.9447 252.364 48.4574 255.717 41.0153C258.45 35.0773 258.882 29.3654 259.157 23.3881H271.26V16.0148H259.226V7.24546Z" fill="white"/>
<path d="M316.502 3.98157H284.698V11.4729H316.502V3.98157Z" fill="white"/>
<path d="M317.554 15.9657C316.611 16.7718 315.451 17.2437 315.254 17.283H278.142V24.7743H312.59C311.322 28.2447 309.316 32.5901 304.577 37.4859C298.01 44.2301 292.642 45.5376 287.452 46.8058L284.778 47.4645L291.335 54.0218L292.259 53.6876C298.679 51.3871 305.315 49.0178 313.219 39.4816C315.126 37.132 315.814 35.8147 321.526 24.5187C321.742 24.096 321.782 24.0173 323.178 22.8474L324.348 21.8742L318.793 14.9236L317.574 15.9558L317.554 15.9657Z" fill="white"/>
<path d="M363.455 3.18523L356.592 2.81165L356.661 4.50259C356.799 8.22858 356.828 9.21169 356.868 10.3718L356.897 11.4237C356.956 13.0655 357.133 21.0778 357.133 22.8572C357.133 32.6785 354.282 37.3483 351.49 40.622C349.406 43.0798 347.076 44.8101 340.145 47.4546L338.012 48.2706L343.969 54.7198L345.011 54.1889C350.664 51.3379 359.198 47.0221 362.501 37.5547C365.018 30.4272 364.998 24.2533 364.939 7.73702V7.44209L365.028 7.31428C365.647 6.43932 365.903 6.07557 365.903 5.38739C365.903 4.69921 365.588 3.50965 363.464 3.16556L363.455 3.18523Z" fill="white"/>
<path d="M340.018 8.42519C340.686 7.83533 341.099 7.31428 341.099 6.43931C341.099 5.21043 339.988 4.3158 338.435 4.2863L332.045 3.63745V35.4214H340.018V8.42519Z" fill="white"/>
<path d="M415.826 25.2855H373.532V32.7768H415.826V25.2855Z" fill="white"/>
<path d="M465.669 10.2145C464.4 10.824 463.24 11.0206 462.906 11.0206H422.304V18.5119H458.05C455.13 22.002 450.47 27.1338 446.665 30.5059C444.168 28.1169 442.163 26.4554 439.96 24.9513L438.958 24.2631L432.941 29.68L434.789 30.8893C436.421 31.9609 438.456 33.2881 442.349 37.4073C446.99 42.3425 448.553 45.2427 449.939 47.7987L450.745 49.2931L458 44.4562L457.066 43.1486C455.218 40.5532 453.763 38.6853 451.699 36.2374C455.012 33.1602 458.03 30.1224 467.959 19.1116C468.205 18.8363 468.815 18.217 470.27 16.8013L471.331 15.7396L466.819 9.66394L465.669 10.2145Z" fill="white"/>
<path d="M489.126 20.7534L490.079 21.9626L496.558 16.9389L495.595 15.71C491.692 10.7355 486 5.86911 484.898 4.94499L483.817 4.04053L478.145 9.61476L479.373 10.7158C482.47 13.498 486.049 16.8603 489.126 20.7534Z" fill="white"/>
<path d="M520.369 17.637L518.796 19.3476C515.473 22.9654 511.334 27.4582 501.061 33.2487C490.345 39.3637 483.876 40.5434 478.164 41.5757L476.07 41.9591L478.872 48.7229L478.931 48.8605C479.374 49.8141 479.973 51.1315 481.418 51.1315C482.451 51.1315 483.07 50.3057 483.611 49.2636C508.857 40.101 516.397 32.5507 523.063 25.8852L523.83 25.1184L520.35 17.637H520.369Z" fill="white"/>
</svg>
