<svg width="297" height="56" viewBox="0 0 297 56" fill="none" xmlns="http://www.w3.org/2000/svg">
<path d="M26.7343 43.1611C25.9342 40.4836 25.1342 38.2803 23.1528 34.264L23.0876 34.1339L27.7483 31.8376L27.4506 30.973C26.0087 26.7801 24.5854 24.2978 22.6132 21.4251L22.083 20.6535L17.9898 22.8754C18.5852 22.0387 19.3015 21.0254 20.2875 19.6308C20.8364 18.8127 21.3574 18.0876 22.3899 16.6466L22.8551 16.0051C23.469 15.9958 24.1109 15.9121 24.5854 15.4473C24.7993 15.2334 25.0598 14.843 25.0598 14.2387C25.0598 13.2346 24.3621 12.7326 23.9714 12.4537L19.7945 9.22769L19.2084 10.2596C17.8782 12.5931 16.1293 15.2241 14.2781 18.0132L13.7943 18.7383C13.6734 18.6082 13.5432 18.4594 13.4036 18.32C12.9292 17.7994 12.2966 17.1207 11.8594 16.6373C14.4269 13.3555 15.9804 11.1149 17.7572 8.39098C18.6689 8.26083 19.6643 7.96333 19.6643 6.74544C19.6643 5.74139 18.6317 5.07202 18.4828 4.98834L14.306 2.05984L13.7478 3.0639C11.3384 7.40552 9.71047 9.93425 7.39412 12.8813C6.74294 12.3514 6.13827 11.8401 5.91501 11.6356L5.26382 10.3433L1.2544 15.3636L2.05442 16.0144C6.68712 19.7982 8.59416 21.7784 10.25 23.7121C8.0267 26.7801 7.69181 27.2356 6.67782 28.1374C5.45918 28.3327 4.29635 28.4814 1.95209 28.5279L0.714844 28.5558L1.81255 33.9015C1.90558 34.3756 2.19396 35.8073 3.50563 35.8073C3.78471 35.8073 3.99867 35.7515 4.19402 35.6586L4.17542 36.0397C4.01727 40.056 3.55214 43.5795 1.73813 48.7299L1.36603 49.7711L7.05923 51.3423L7.37552 50.4312C8.96627 45.8851 9.62675 42.4545 10.0826 38.8381C10.6035 38.5778 11.1245 38.1594 11.1245 37.3878C11.1245 36.7649 10.7803 35.9747 9.19883 35.7422L4.87311 34.9706C4.95684 34.8311 5.04986 34.6824 5.13359 34.5243C7.14295 34.1804 9.60815 33.7248 11.264 33.418V55.2656H17.3572V32.2001C19.4317 31.726 20.3248 31.5308 21.0225 31.382C21.0876 31.3727 21.1434 31.3541 21.1992 31.3448C21.4039 31.9584 21.5527 32.4976 21.7853 33.3994L21.8783 33.7527L17.4968 35.3332L17.9991 36.3651C19.4596 39.3866 20.362 41.8224 21.2271 45.0298L21.5248 46.1268L27.0133 44.0908L26.7343 43.1611ZM18.8643 26.2967C18.1573 26.4361 17.0688 26.6406 14.8362 27.0404C15.8781 25.7481 16.5386 24.9021 17.3293 23.8237L17.6642 24.3443C18.1573 25.1067 18.4363 25.5715 18.8549 26.2967H18.8643Z" fill="white"/>
<path d="M50.902 5.78787H27.7757V47.5864H22.2686V53.6293H54.9859V47.5864H50.902V5.78787ZM44.7995 39.3308V47.5864H33.8131V39.3308H44.7995ZM44.7995 24.9765V33.3994H33.8131V24.9765H44.7995ZM44.7995 11.7099V19.2218H33.8131V11.7099H44.7995Z" fill="white"/>
<path d="M113.062 43.3377C112.895 44.0443 112.16 47.0007 112.002 47.6236C111.974 47.7072 111.936 47.7723 111.909 47.8281C111.564 47.3726 110.876 46.1175 109.853 42.687C111.611 39.7585 112.076 38.773 114.718 33.1577C115.695 32.9904 116.634 32.6743 116.634 31.4843C116.634 30.5825 115.899 30.1363 115.62 29.9782L110.969 27.1892H116.913V21.6018H107.062C106.922 16.7953 106.876 14.7779 106.848 11.1521C109.285 14.6106 110.857 18.3572 111.285 19.4449L111.704 20.4954L116.876 17.9109L116.495 17.0184C114.988 13.4763 113.202 10.6036 111.648 8.18645L111.146 7.41482L106.839 9.5252C106.839 8.6327 106.829 7.63794 106.82 6.50373V6.2806C107.611 5.80647 108.29 5.25795 108.29 4.31897C108.29 3.37999 107.639 2.85937 106.355 2.68273L100.857 2.08774L100.885 3.25914C100.931 5.48108 100.978 7.36833 101.015 9.01387H95.8615V5.89943C96.5127 5.57405 97.2755 5.02553 97.2755 4.15163C97.2755 3.60312 96.8662 2.65484 95.3871 2.55258L90.0939 1.97617V9.01387H83.9076V14.1457C83.7588 14.0435 83.6286 13.9691 83.5355 13.9133L79.2377 11.3939L78.7726 12.463C78.047 14.155 76.4469 16.6837 75.2655 18.4966C74.819 18.1062 74.2422 17.6041 73.4236 16.9162C75.6097 13.467 77.6749 9.89707 79.5726 6.27131C80.2796 6.06678 81.0982 5.7042 81.0982 4.70944C81.0982 3.9378 80.5866 3.58453 80.3726 3.42648L75.2004 0.981415L74.7911 1.98547C73.1724 5.97381 71.0979 10.1016 69.1351 13.2811C68.4374 12.7698 67.5815 12.1934 67.0792 11.9424L66.3164 11.5612L62.7256 16.1724L63.6558 16.786C65.6838 18.1433 69.47 21.0068 72.0375 23.489C69.8979 26.7057 68.9862 27.8771 68.3071 28.7045C67.0513 28.7882 66.0745 28.7882 63.6558 28.7882H62.3721L63.507 33.9108C63.8605 35.454 64.8094 35.6214 65.2001 35.6214C66.0931 35.6214 66.5955 34.952 66.9024 34.4035C68.1862 34.2176 69.8514 33.9572 71.3398 33.7248L71.4886 33.6969V35.7887C71.4886 35.7887 71.4328 35.7887 71.3956 35.7794L66.4931 35.1937L66.4373 36.3C66.2234 40.307 65.3954 46.2105 63.7209 50.7473L63.3209 51.8164L68.8281 53.2389L69.163 52.3928C70.2607 49.641 70.9119 46.3964 71.4793 42.0641V55.5352H77.4051V38.6986C78.4656 42.2035 79.1912 45.7456 79.8982 49.3621L80.0843 50.3382L85.3774 49.5201V52.523H90.9683V48.609H97.3313C96.2801 49.3993 95.1266 50.1616 93.8242 50.9425L92.5126 51.7328L97.5918 55.5817L98.1965 55.2098C101.024 53.4434 103.127 51.5747 105.778 48.3766C107.192 51.4725 109.722 55.9907 112.522 55.9907C115.323 55.9907 116.895 52.2906 118.467 45.9037L118.644 45.1692L113.369 41.9153L113.043 43.3191L113.062 43.3377ZM75.8795 27.8678C76.2981 27.2263 76.7818 26.4826 77.2749 25.7482L77.7772 26.6778C77.9167 26.9288 78.0656 27.2078 78.2144 27.4867C77.2283 27.6633 76.4748 27.7842 75.8795 27.8678ZM93.48 20.3095L93.1265 20.9231L93.0242 20.6442C92.6149 19.5286 91.3404 16.6745 89.8055 14.4897H96.3452C95.4243 16.8511 94.4289 18.6826 93.48 20.3095ZM93.6289 21.6111H93.3777L93.3219 21.453L93.6289 21.6111ZM101.462 21.6111H98.9872C99.6105 20.5512 100.103 19.51 100.885 17.8923L100.997 17.6599C101.099 17.632 101.201 17.6041 101.294 17.5762C101.35 18.8871 101.406 20.1701 101.471 21.6204L101.462 21.6111ZM110.42 28.3234C109.536 30.9823 108.941 32.6092 108.206 34.264C107.834 31.5958 107.629 29.1694 107.471 27.1892H110.801L110.42 28.3234ZM85.396 29.5413C85.0519 28.7324 84.6797 27.9422 84.3169 27.1985H101.871C102.392 34.5429 102.913 38.0107 103.769 42.0362C102.755 43.4028 101.769 44.5835 100.745 45.6434V28.7045H85.396V29.5413ZM95.2754 41.0879V43.6166H90.9869V41.0879H95.2754ZM95.2754 33.8271V36.1792H90.9869V33.8271H95.2754ZM101.173 14.4897C101.173 14.4897 101.173 14.4897 101.173 14.499H101.145L101.173 14.4897ZM86.4379 14.4897L84.6984 15.2613C84.6332 14.9452 84.4751 14.6942 84.2983 14.4897H86.4379ZM84.6518 16.2003L84.7914 16.4513C84.9309 16.693 85.0519 16.8883 85.1914 17.1207C85.3495 17.3717 85.5449 17.6785 85.8054 18.1526L86.2519 18.9708C86.6798 19.761 87.2566 20.8301 87.6845 21.6111H81.8797V22.643L81.6099 22.1503L77.8795 24.8371L79.954 21.6668C80.3726 21.0997 82.0006 18.5524 82.7355 17.3903C83.3495 17.3159 84.3449 17.0835 84.6611 16.2003H84.6518ZM77.4237 32.9718H77.4609C78.633 32.823 79.1912 32.7487 80.568 32.5069C80.6331 32.7115 80.6982 32.8881 80.754 33.0462C80.8843 33.4273 80.9866 33.7434 81.1168 34.1432L77.433 35.203V32.9718H77.4237ZM85.396 47.2889C84.5774 43.4772 83.3495 39.3401 82.0936 36.1606L85.396 34.6824V47.2889Z" fill="white"/>
<path d="M152.152 7.25677C136.477 7.25677 127.109 19.5472 127.109 31.4285C127.109 39.9444 132.328 48.0047 137.845 48.0047C141.082 48.0047 144.17 44.6486 147.575 37.4343C151.092 30.0805 153.306 21.9365 154.161 13.216C156.636 13.3555 158.878 13.8482 160.552 14.6106C160.896 14.7779 168.934 18.729 168.934 28.3699C168.934 33.418 166.459 38.6428 162.627 41.6829C159.724 44.0164 156.599 45.0762 154.533 45.7828L152.999 46.3034L156.692 51.9187L157.473 51.6026C172.171 45.727 175.26 35.7143 175.26 28.3513C175.26 16.1166 165.538 7.23817 152.152 7.23817V7.25677ZM147.705 13.5507C147.361 17.2601 146.459 24.084 143.017 32.5255C139.593 40.9577 138.431 40.9577 137.733 40.9577C136.338 40.9577 133.035 37.2204 133.035 31.3262C133.035 27.6912 134.254 24.2607 136.756 20.8208C140.394 15.8377 144.245 14.3224 147.715 13.5507H147.705Z" fill="white"/>
<path d="M214.163 13.2997H233.745V7.54497H214.163V5.50897C214.842 5.1185 215.354 4.68155 215.354 3.81695C215.354 3.22195 215.065 2.45961 213.642 2.22719L207.837 1.86461V16.1073H200.879V8.95809C201.669 8.52114 202.069 7.95403 202.069 7.27536C202.069 5.93662 200.59 5.75068 200.004 5.67631L194.497 5.09991V16.098H184.962V21.8528H226.786V42.9659L226.424 42.7148C222.256 39.8421 219.856 37.5923 218.144 35.64H226.414V30.285H219.689C220.851 29.2438 221.744 28.2676 222.479 27.4402C223.233 27.4402 223.735 27.2821 224.098 26.9474C224.386 26.6778 224.545 26.3246 224.545 25.9341C224.545 25.1439 223.754 24.5582 223.503 24.3815L219.698 21.9457L219.121 22.6895C218.396 23.6285 216.33 26.0921 214.944 27.31L214.163 27.998V25.5715C214.795 25.2833 215.465 24.7906 215.465 23.8981C215.465 22.4571 213.902 22.3083 213.242 22.2432L208.284 21.955V30.2943H204.953L207.288 28.2769L206.767 27.5145C205.176 25.1903 204.032 23.9818 202.032 22.55L201.362 22.0666L197.353 25.618L198.274 26.3896C199.623 27.5238 200.972 28.9184 202.06 30.2943H196.032V35.6493H204.032C202.842 37.332 200.73 39.6934 196.032 42.8915L195.66 43.1425V25.7017C196.358 25.2926 196.906 24.8092 196.906 23.8981C196.906 22.4943 195.381 22.392 194.823 22.3548L189.446 21.9272V55.2749H195.66V53.1738H226.786V54.8751H233.001V25.367C233.736 24.9393 234.303 24.428 234.303 23.5541C234.303 22.6244 233.596 22.1038 232.229 22.0108L230.619 21.8621H237.596V16.1073H214.163V13.2997ZM200.014 47.1029C201.967 45.8479 205.493 43.0588 208.293 39.4517V47.4097H199.53L200.014 47.1029ZM214.163 39.3029C216.051 41.562 218.144 43.6817 222.554 46.9542L223.177 47.419H214.163V39.3029ZM226.796 44.0908V47.4097H223.326L226.796 44.0908ZM216.795 30.285H214.163V28.2676L216.795 30.285ZM199.223 47.4097H195.66V44.2767L199.223 47.4097Z" fill="white"/>
<path d="M273.839 40.1582V37.5179H289.617V16.3398H273.839V14.0434H295.347V8.28872H273.839V5.89943C274.788 5.53686 275.486 5.1278 275.486 4.04007C275.486 3.3614 275.058 2.4968 273.012 2.27367L267.625 1.77164V8.27942H245.95V14.0342H267.625V16.3305H252.192V37.5086H267.625V40.1489H244.871V46.0152H267.625V55.5445H273.839V46.0152H296.705V40.1489H273.839V40.1582ZM267.625 29.4576V31.7539H258.397V29.4576H267.625ZM267.625 21.9736V23.991H258.397V21.9736H267.625ZM283.458 29.4576V31.7539H273.839V29.4576H283.458ZM283.458 21.9736V23.991H273.839V21.9736H283.458Z" fill="white"/>
</svg>
