<svg width="295" height="144" viewBox="0 0 295 144" fill="none" xmlns="http://www.w3.org/2000/svg">
<path d="M45.2669 17.5732C42.0617 18.7101 36.6958 20.6146 29.3409 22.59C28.6612 22.7606 27.9457 22.9453 27.2303 23.1301C31.2511 18.5609 36.9176 12.7766 38.3413 11.5615C40.3446 9.83472 40.6451 9.55048 41.475 8.42773L42.1618 7.49684L37.1537 1.62016L36.2379 1.88308C27.2017 4.49099 22.5297 5.11632 12.3488 5.04526L10.0021 5.03105L13.9013 13.1888L14.9244 13.0964C19.9541 12.6558 25.2556 11.732 29.0475 10.9504C28.8615 11.1564 28.654 11.3838 28.4179 11.6396C23.9821 16.4078 22.6728 17.829 19.4318 21.3394L16.3196 24.7147C14.9101 26.1715 14.4665 26.5765 12.5205 27.0739C9.53703 27.813 5.20852 28.8007 1.98181 28.8718L0 28.9144L2.93337 37.8751L4.36428 37.3635C6.94708 36.4468 7.97734 36.127 9.26516 35.7433C10.7962 35.2743 15.0747 34.0663 19.5964 32.7801C22.2149 32.041 24.8693 31.2878 27.1802 30.6269C23.3525 34.4784 19.4747 39.6871 19.4747 45.8552C19.4747 53.7002 24.3613 58.8165 33.2186 60.252C35.9946 60.7138 38.2841 60.8489 41.4464 61.0407L43.278 61.1544V52.8546L41.7827 52.8759C37.7117 52.9399 36.338 52.8759 34.4278 52.5632C29.4482 51.7532 26.9226 49.6711 26.9226 46.3739C26.9226 40.8525 31.7233 35.9636 34.0271 33.6186L34.2417 33.3983C39.8366 27.8414 42.4409 26.6476 43.4926 26.4273L43.8289 26.3633C45.2741 26.0791 46.0682 25.9228 47.7996 25.4111L49.0374 25.0487L47.6923 16.7205L45.2669 17.5803V17.5732Z" fill="white"/>
<path d="M106.381 37.335C104.306 41.2646 100.457 48.5909 95.2986 48.5909C94.1539 48.5909 93.1308 48.3991 93.1308 46.0399C93.1308 45.7627 93.1522 44.2776 93.51 42.0676L93.5243 41.9895C94.5045 36.0772 94.6547 35.1677 94.6547 33.2135C94.6547 29.5326 92.6729 25.2406 87.0923 25.2406C83.5794 25.2406 80.0308 26.8749 76.5823 28.9996C79.6158 22.0713 83.8799 13.9278 87.2426 8.08661L87.9938 6.78621L79.8519 2.39468L78.0847 6.80752C76.7898 10.0479 76.0815 11.8315 75.1442 13.9491C73.4772 17.8005 67.1168 31.9984 62.4735 42.3661C60.277 47.2763 58.4168 51.4191 57.5368 53.4017L56.9072 54.8087L64.5054 57.7009L65.0634 56.4147C70.1074 44.7963 71.3022 42.2097 74.9797 38.5572C76.3032 37.2426 80.9108 32.9577 84.8386 32.9577C86.2195 32.9577 86.9421 33.8459 86.9421 34.7129C86.9278 35.1535 86.5128 37.5766 86.2982 38.6354C85.7616 42.0108 85.4826 44.9456 85.4826 46.0967C85.4826 52.2719 89.0384 56.1091 94.7692 56.1091C97.4593 56.1091 100.171 55.2138 103.061 53.3733C107.712 50.339 109.98 46.7434 111.976 43.567L112.548 42.6574L107.533 35.1392L106.374 37.335H106.381Z" fill="white"/>
<path d="M151.919 18.6107L152.964 18.4472L154.409 10.0408L152.098 10.7727C150.753 11.1991 149.365 11.6397 145.001 12.3645C145.631 10.6448 146.103 9.23071 147.391 5.24423L147.77 4.07174L139.893 -1.52588e-05L139.571 2.00388C138.798 6.77203 137.525 10.8367 136.623 13.5583C135.886 13.6009 135.242 13.6009 134.069 13.6009C129.733 13.6009 128.016 13.2385 126.371 12.7979L124.432 12.2792L124.768 20.174L126.077 20.3374C127.143 20.4724 128.746 20.6714 131.751 20.6714C132.087 20.6714 132.867 20.6359 134.112 20.5719C134.183 20.5719 134.255 20.5648 134.334 20.5577C128.689 34.7058 124.832 39.6516 122.242 42.9772L121.055 44.4979L129.075 47.7454L129.712 46.6297C134.906 37.598 138.934 28.0688 142.196 19.8258C145.681 19.4279 149.945 18.9091 151.905 18.6036L151.919 18.6107Z" fill="white"/>
<path d="M158.766 43.3183C158.616 41.6129 158.48 40.1064 158.358 38.7918C158.022 35.0967 157.8 32.6522 157.8 31.9629C157.8 30.0087 158.294 29.3337 160.261 27.6851L161.592 26.5694L155.826 21.7231L154.867 22.6043C152.127 25.134 150.023 27.3866 150.023 31.437C150.023 32.2542 150.295 35.0895 150.689 39.005C150.775 39.8506 150.853 40.6678 150.925 41.3784C149.294 41.1012 147.419 40.8241 145.673 40.8241C137.875 40.8241 133.668 45.4075 133.668 49.7208C133.668 54.7093 138.726 59.8682 147.197 59.8682C155.668 59.8682 157.471 54.5458 158.294 50.9076C160.991 52.144 162.673 52.9825 165.241 54.5245L166.765 55.4412L169.562 47.9657L168.396 47.3759C166.078 46.1963 163.882 45.0735 158.773 43.3254L158.766 43.3183ZM151.082 49.33C151.082 52.613 148.156 52.8688 147.254 52.8688C144.228 52.8688 140.715 51.5542 140.715 49.8559C140.715 48.9747 142.339 47.7027 145.273 47.7027C147.276 47.7027 149.351 48.1149 151.082 48.4773V49.33Z" fill="white"/>
<path d="M221.863 34.6064C222.972 36.5463 223.823 38.8558 223.823 41.5063C223.823 47.8733 218.507 52.677 211.453 52.677C204.399 52.677 201.601 47.7951 201.601 43.2189C201.601 41.8758 201.751 40.1135 201.945 38.6213C204.356 38.5857 208.935 38.4081 214.88 37.4274L215.932 37.2498L217.305 28.2323L215.059 28.9286C212.948 29.5824 209.171 30.7478 202.867 31.0391C202.889 30.9325 202.903 30.8188 202.925 30.7123C203.247 28.7581 203.576 26.74 204.291 22.8388C206.509 22.7038 209.178 22.4408 215.374 21.3039L216.49 21.0978L217.148 12.6203L215.023 13.3522C212.626 14.1836 210.101 14.9582 205.922 15.3632C206.767 11.0783 207.604 7.60346 208.727 4.8179L209.328 3.33274L198.968 0.262939L199.004 2.25973C199.061 5.5285 198.632 8.29275 197.58 14.9582L197.516 15.3846C195.327 15.1643 192.357 14.7166 187.621 13.203L185.754 12.6061L185.539 20.1669L186.476 20.5506C189.145 21.6521 191.585 22.3556 196.221 22.7677C195.885 25.0132 195.319 28.481 194.933 30.8188C192.171 30.6199 189.524 30.0869 187.199 29.2626L185.231 28.5662V37.0224L186.791 37.3422C188.43 37.6833 190.261 38.0599 193.874 38.3654C193.774 39.6872 193.645 41.4281 193.645 43.0696C193.645 44.4482 193.874 49.2803 196.815 53.6221C200.621 59.2216 207.468 60.053 211.217 60.053C222.764 60.053 232.158 51.6963 232.158 41.421C232.158 36.8661 230.477 33.0359 228.61 30.1438L221.884 34.585L221.863 34.6064Z" fill="white"/>
<path d="M288.831 37.335C286.756 41.2646 282.907 48.5909 277.749 48.5909C276.604 48.5909 275.581 48.3991 275.581 46.0399C275.581 45.7627 275.602 44.2776 275.96 42.0676L275.974 41.9895C276.955 36.0772 277.105 35.1677 277.105 33.2135C277.105 29.5326 275.123 25.2406 269.543 25.2406C266.03 25.2406 262.481 26.8749 259.032 28.9996C262.066 22.0713 266.33 13.9278 269.693 8.08661L270.444 6.78621L262.302 2.39468L260.535 6.80752C259.24 10.0479 258.532 11.8315 257.594 13.9491C255.927 17.8005 249.567 31.9984 244.924 42.3661C242.727 47.2763 240.867 51.4191 239.987 53.4017L239.357 54.8087L246.956 57.7009L247.514 56.4147C252.558 44.7963 253.752 42.2097 257.43 38.5572C258.753 37.2426 263.368 32.9648 267.289 32.9648C268.67 32.9648 269.392 33.8531 269.392 34.72C269.378 35.1606 268.963 37.5837 268.748 38.6425C268.212 42.0179 267.933 44.9527 267.933 46.1038C267.933 52.279 271.489 56.1162 277.219 56.1162C279.91 56.1162 282.621 55.2209 285.512 53.3804C290.162 50.3461 292.43 46.7505 294.426 43.5741L294.998 42.6645L289.983 35.1463L288.824 37.3421L288.831 37.335Z" fill="white"/>
<path d="M159.768 12.7198L158.816 12.4284L156.405 18.1203L157.45 18.5396C164.74 21.446 166.264 22.0855 171.101 25.0132L172.145 25.6456L175.165 19.3639L174.285 18.8594C170.085 16.4433 165.205 14.3826 159.775 12.734L159.768 12.7198Z" fill="white"/>
<path d="M66.1489 115.651C58.2861 132.059 49.6362 133.829 46.2879 133.829C45.5653 133.829 41.8663 133.644 40.3424 130.005C40.0634 129.409 39.4839 128.158 39.4839 120.292C39.4839 117.172 39.5554 100.984 41.0007 88.3571L41.1509 87.014L31.5352 85.1878L31.8571 87.2414C32.3007 90.0909 32.3007 93.3881 32.3007 96.2945C32.3007 97.6233 32.2363 101.418 32.1719 105.44C32.1004 109.633 32.036 113.967 32.036 115.566C32.036 126.232 32.2149 128.684 33.2236 131.896C34.6045 136.543 39.1762 141.233 46.2879 141.233C55.9322 141.233 64.854 134.553 72.8027 121.372L73.5038 120.206L67.0433 113.79L66.1489 115.658V115.651Z" fill="white"/>
<path d="M120.093 103.699C117.66 103.699 115.399 104.232 113.904 104.651C111.958 102.072 110.348 99.9684 108.202 97.6518L107.436 96.8275L100.933 100.231L102.485 101.631C103.795 102.811 105.319 104.289 107.587 107.01C105.619 107.963 103.823 108.872 101.434 110.166C98.5718 104.09 97.5773 102.541 96.7688 101.283L96.175 100.359L88.8988 102.455L90.2654 104.161C92.4332 106.868 94.1431 109.903 95.7887 113.058C92.1184 114.87 89.9148 115.879 86.6666 116.916L84.5703 117.584L89.6787 123.582L90.7304 123.013C91.0524 122.836 91.3099 122.686 91.5818 122.53C91.9252 122.331 92.2829 122.125 92.8338 121.834L92.8982 121.798C93.4062 121.493 95.0303 120.59 96.5971 119.716C97.2625 119.347 97.9207 118.977 98.4859 118.664C102.428 127.412 105.175 134.809 107.079 141.844L107.544 143.55L114.355 140.281L113.84 139.016C109.447 128.137 107.601 123.624 103.995 115.744C106.063 114.685 108.638 113.406 111.164 112.191C111.192 112.233 111.214 112.276 111.243 112.319C112.123 113.79 112.173 113.882 112.881 115.793L113.468 117.371L119.864 113.96L119.127 112.66C118.261 111.139 117.76 110.364 117.374 109.81C118.025 109.625 118.705 109.512 119.499 109.512C122.196 109.512 124.979 111.153 124.979 113.903C124.979 115.602 124.443 116.98 123.384 118.003C121.645 119.68 118.526 120.469 114.104 120.348L111.765 120.285L114.591 126.545H115.542C128.041 126.545 131.375 118.679 131.375 114.031C131.375 108.425 126.21 103.692 120.1 103.692L120.093 103.699Z" fill="white"/>
<path d="M222.046 118.778C219.549 127.703 218.104 129.266 217.639 129.537C216.093 129.224 210.892 123.639 210.892 108.844C210.892 103.749 211.565 100.203 211.922 98.2984L212.23 96.657L203.516 93.9353L203.344 96.3514C203.201 98.2842 202.986 101.205 202.986 105.362C202.986 114.365 203.974 121.173 205.991 126.119C206.034 126.232 210.348 137.801 217.574 137.801C223.656 137.801 227.147 127.987 228.829 123.276L229.151 122.367L222.69 116.483L222.046 118.778Z" fill="white"/>
<path d="M246.165 95.1149L245.514 94.383L238.152 96.8559L239.376 98.469C243.354 103.735 247.797 110.507 250.165 124.214L250.451 125.891L258.486 123.233L258.221 121.961C257.327 117.677 254.601 104.63 246.165 95.1149Z" fill="white"/>
<path d="M271.742 120.739C265.31 120.739 260.073 125.941 260.073 132.329C260.073 138.717 265.31 143.855 271.742 143.855C278.174 143.855 283.411 138.682 283.411 132.329C283.411 125.976 278.174 120.739 271.742 120.739ZM271.742 138.234C268.466 138.234 265.797 135.584 265.797 132.329C265.797 129.075 268.466 126.424 271.742 126.424C275.019 126.424 277.688 129.075 277.688 132.329C277.688 135.584 275.019 138.234 271.742 138.234Z" fill="white"/>
<path d="M59.3016 103.351L59.9241 104.317L65.2828 100.572L64.7534 99.6983C63.3225 97.332 61.541 94.6886 58.2284 91.3985L57.5702 90.7447L52.376 94.4185L53.1701 95.3281C54.8157 97.2112 56.8547 99.5562 59.3016 103.358V103.351Z" fill="white"/>
<path d="M66.5142 98L67.1152 99.0588L72.6099 95.186L72.0518 94.3048C70.3061 91.569 68.8108 89.5438 65.4982 86.0476L64.8185 85.337L59.5957 89.224L60.44 90.1194C62.293 92.0735 64.6611 94.7312 66.507 97.9929L66.5142 98Z" fill="white"/>
<path d="M177.38 125.33C177.23 123.624 177.094 122.118 176.973 120.803C176.636 117.108 176.415 114.664 176.415 113.974C176.415 112.02 176.908 111.345 178.876 109.697L180.206 108.581L174.44 103.735L173.481 104.616C170.741 107.145 168.638 109.398 168.638 113.449C168.638 114.266 168.909 117.101 169.303 121.016C169.389 121.862 169.467 122.679 169.539 123.39C167.908 123.113 166.033 122.836 164.288 122.836C156.489 122.836 152.282 127.419 152.282 131.732C152.282 136.721 157.34 141.88 165.811 141.88C174.282 141.88 176.085 136.557 176.908 132.919C179.605 134.155 181.287 134.994 183.855 136.536L185.379 137.453L188.177 129.977L187.01 129.387C184.692 128.208 182.496 127.085 177.388 125.337L177.38 125.33ZM169.689 130.489V131.341C169.689 134.624 166.763 134.88 165.862 134.88C162.835 134.88 159.322 133.566 159.322 131.867C159.322 130.986 160.946 129.714 163.88 129.714C165.883 129.714 167.958 130.126 169.689 130.489Z" fill="white"/>
<path d="M170.527 100.622L171.571 100.459L173.017 92.0522L170.706 92.7841C169.361 93.2105 167.973 93.6511 163.608 94.3759C164.238 92.6562 164.71 91.2421 165.998 87.2557L166.377 86.0832L158.5 82.0114L158.178 84.0153C157.405 88.7835 156.132 92.8481 155.23 95.5697C154.494 95.6123 153.85 95.6123 152.676 95.6123C148.341 95.6123 146.623 95.2499 144.978 94.8094L143.039 94.2906L143.375 102.185L144.685 102.349C145.751 102.484 147.353 102.683 150.358 102.683C150.694 102.683 151.474 102.647 152.719 102.583C152.791 102.583 152.862 102.576 152.941 102.569C147.296 116.717 143.44 121.663 140.85 124.989L139.662 126.509L147.682 129.757L148.319 128.641C153.513 119.609 157.541 110.08 160.804 101.837C164.288 101.439 168.552 100.921 170.513 100.615L170.527 100.622Z" fill="white"/>
<path d="M178.375 94.7312L177.424 94.4399L175.013 100.132L176.057 100.551C183.491 103.514 184.857 104.09 189.715 107.025L190.76 107.657L193.779 101.375L192.899 100.871C188.699 98.4548 183.82 96.394 178.39 94.7454L178.375 94.7312Z" fill="white"/>
</svg>
