<svg width="1191" height="133" viewBox="0 0 1191 133" fill="none" xmlns="http://www.w3.org/2000/svg">
<g clip-path="url(#clip0_2006_457)">
<path d="M96.689 37.7926C89.8427 40.2377 78.3812 44.3333 62.6713 48.5818C61.2196 48.9485 59.6914 49.3459 58.1632 49.7432C66.7516 39.9168 78.8549 27.4772 81.8961 24.864C86.175 21.1504 86.8169 20.5391 88.5896 18.1246L90.0566 16.1226L79.3593 3.48431L77.4032 4.04975C58.102 9.65828 48.1229 11.0031 26.3767 10.8503L21.3642 10.8197L29.6929 28.3636L31.8782 28.1649C42.6214 27.2174 53.9453 25.2307 62.0448 23.5497C61.6475 23.9929 61.2043 24.4819 60.7 25.0321C51.2252 35.2863 48.4286 38.3428 41.5058 45.8921L34.8582 53.1511C31.8476 56.2839 30.9001 57.155 26.7434 58.2248C20.3709 59.8141 11.1253 61.9383 4.2331 62.0911L0 62.1828L6.26561 81.4535L9.322 80.3532C14.8388 78.3818 17.0394 77.6941 19.7901 76.8689C23.0605 75.8603 32.1991 73.2623 41.8573 70.4963C47.4505 68.9069 53.1201 67.287 58.0562 65.8658C49.8803 74.1487 41.5975 85.3505 41.5975 98.6153C41.5975 115.487 52.0351 126.49 70.9542 129.577C76.8836 130.57 81.7738 130.861 88.5284 131.273L92.4406 131.518V113.668L89.2467 113.714C80.5512 113.852 77.6171 113.714 73.5368 113.042C62.9006 111.299 57.506 106.822 57.506 99.7309C57.506 87.8567 67.7602 77.3426 72.681 72.2996L73.1395 71.8258C85.09 59.8752 90.6526 57.3078 92.8991 56.8341L93.6173 56.6965C96.7043 56.0853 98.4006 55.7491 102.099 54.6487L104.743 53.8694L101.87 35.9587L96.689 37.8079V37.7926Z" fill="white"/>
<path d="M227.228 80.2921C222.796 88.7431 214.574 104.499 203.556 104.499C201.111 104.499 198.925 104.086 198.925 99.0126C198.925 98.4166 198.971 95.2227 199.735 90.4699L199.766 90.3018C201.859 77.5872 202.18 75.631 202.18 71.4285C202.18 63.5124 197.947 54.282 186.027 54.282C178.524 54.282 170.944 57.7968 163.578 62.3662C170.058 47.4662 179.166 29.9529 186.348 17.391L187.953 14.5944L170.562 5.15005L166.787 14.6402C164.021 21.6089 162.508 25.4447 160.506 29.9987C156.946 38.2816 143.36 68.8152 133.442 91.1118C128.751 101.672 124.777 110.581 122.898 114.845L121.553 117.871L137.782 124.091L138.974 121.324C149.748 96.3383 152.3 90.7756 160.155 82.9206C162.982 80.0934 172.824 70.8783 181.214 70.8783C184.163 70.8783 185.706 72.7886 185.706 74.653C185.676 75.6005 184.79 80.8117 184.331 83.0887C183.185 90.3477 182.589 96.6592 182.589 99.1349C182.589 112.415 190.184 120.667 202.425 120.667C208.171 120.667 213.963 118.742 220.137 114.784C230.07 108.258 234.914 100.526 239.178 93.6945L240.401 91.7384L229.688 75.5699L227.212 80.2921H227.228Z" fill="white"/>
<path d="M324.498 40.0238L326.729 39.6723L329.816 21.5936L324.88 23.1676C322.007 24.0846 319.042 25.0321 309.72 26.5908C311.065 22.8926 312.073 19.8514 314.824 11.2782L315.634 8.75664L298.809 0L298.121 4.30955C296.471 14.5638 293.75 23.3052 291.825 29.1582C290.251 29.2499 288.875 29.2499 286.369 29.2499C277.108 29.2499 273.441 28.4705 269.926 27.523L265.784 26.4074L266.503 43.3858L269.299 43.7373C271.576 44.0277 274.999 44.4556 281.418 44.4556C282.136 44.4556 283.802 44.3792 286.461 44.2416C286.614 44.2416 286.767 44.2264 286.935 44.2111C274.877 74.6377 266.64 85.274 261.108 92.4261L258.571 95.6964L275.702 102.68L277.062 100.281C288.157 80.8575 296.761 60.3642 303.73 42.637C311.172 41.7812 320.28 40.6656 324.467 40.0085L324.498 40.0238Z" fill="white"/>
<path d="M339.122 93.1596C338.801 89.4919 338.511 86.2521 338.251 83.4249C337.533 75.4782 337.059 70.2212 337.059 68.7388C337.059 64.5363 338.113 63.0845 342.316 59.539L345.158 57.1397L332.841 46.7173L330.793 48.6123C324.94 54.0527 320.447 58.8972 320.447 67.608C320.447 69.3654 321.028 75.4629 321.868 83.8834C322.052 85.7019 322.22 87.4594 322.373 88.9876C318.889 88.3916 314.885 87.7956 311.156 87.7956C294.498 87.7956 285.513 97.6525 285.513 106.929C285.513 117.657 296.317 128.752 314.411 128.752C332.505 128.752 336.356 117.305 338.113 109.481C343.875 112.14 347.466 113.943 352.952 117.259L356.207 119.231L362.182 103.154L359.691 101.886C354.74 99.3489 350.048 96.9343 339.137 93.1749L339.122 93.1596ZM322.709 106.088C322.709 113.149 316.459 113.699 314.533 113.699C308.069 113.699 300.565 110.872 300.565 107.219C300.565 105.324 304.034 102.589 310.3 102.589C314.579 102.589 319.011 103.475 322.709 104.254V106.088Z" fill="white"/>
<path d="M473.894 74.4238C476.263 78.5958 478.081 83.5624 478.081 89.2627C478.081 102.955 466.727 113.286 451.659 113.286C436.591 113.286 430.616 102.787 430.616 92.9456C430.616 90.0573 430.936 86.2674 431.349 83.0581C436.499 82.9817 446.28 82.5997 458.979 80.4907L461.225 80.1087L464.159 60.7157L459.361 62.2134C454.853 63.6193 446.784 66.1256 433.32 66.7522C433.366 66.5229 433.397 66.2784 433.443 66.0492C434.13 61.8466 434.833 57.5065 436.362 49.1166C441.099 48.8263 446.799 48.2608 460.033 45.8157L462.417 45.3725L463.823 27.141L459.285 28.715C454.165 30.503 448.771 32.1688 439.846 33.0399C441.649 23.8248 443.437 16.3518 445.836 10.3612L447.12 7.16729L424.992 0.56543L425.068 4.8597C425.19 11.8895 424.274 17.8342 422.027 32.1688L421.89 33.0857C417.213 32.612 410.871 31.6492 400.755 28.3941L396.766 27.1104L396.308 43.3706L398.309 44.1958C404.01 46.5645 409.221 48.0774 419.124 48.9638C418.405 53.7929 417.198 61.2506 416.373 66.2784C410.474 65.8505 404.82 64.7044 399.853 62.9316L395.65 61.434V79.6197L398.982 80.3074C402.481 81.0409 406.394 81.8509 414.111 82.508C413.897 85.3505 413.622 89.0946 413.622 92.6247C413.622 95.5895 414.111 105.981 420.392 115.319C428.522 127.361 443.147 129.149 451.155 129.149C475.82 129.149 495.885 111.177 495.885 89.0793C495.885 79.2835 492.294 71.0464 488.305 64.8266L473.94 74.3779L473.894 74.4238Z" fill="white"/>
<path d="M616.933 80.2921C612.501 88.7431 604.279 104.499 593.261 104.499C590.816 104.499 588.63 104.086 588.63 99.0126C588.63 98.4166 588.676 95.2227 589.44 90.4699L589.471 90.3018C591.565 77.5872 591.885 75.631 591.885 71.4285C591.885 63.5124 587.652 54.282 575.732 54.282C568.229 54.282 560.649 57.7968 553.283 62.3662C559.763 47.4662 568.871 29.9529 576.053 17.391L577.658 14.5944L560.267 5.15005L556.492 14.6402C553.726 21.6089 552.214 25.4447 550.212 29.9987C546.651 38.2816 533.065 68.8152 523.147 91.1118C518.456 101.672 514.482 110.581 512.603 114.845L511.258 117.871L527.487 124.091L528.679 121.324C539.453 96.3383 542.005 90.7756 549.86 82.9206C552.687 80.0934 562.544 70.8936 570.919 70.8936C573.868 70.8936 575.412 72.8039 575.412 74.6683C575.381 75.6158 574.495 80.827 574.036 83.104C572.89 90.363 572.294 96.6745 572.294 99.1502C572.294 112.43 579.889 120.683 592.13 120.683C597.876 120.683 603.668 118.757 609.842 114.799C619.775 108.274 624.619 100.541 628.883 93.7098L630.106 91.7536L619.393 75.5852L616.917 80.3074L616.933 80.2921Z" fill="white"/>
<path d="M726.932 72.3454C710.137 107.632 691.661 111.437 684.51 111.437C682.966 111.437 675.065 111.04 671.81 103.215C671.214 101.932 669.976 99.2419 669.976 82.3246C669.976 75.6158 670.129 40.8032 673.216 13.6469L673.537 10.7586L652.998 6.83109L653.686 11.2476C654.633 17.3757 654.633 24.4666 654.633 30.717C654.633 33.5747 654.496 41.7354 654.358 50.385C654.205 59.4015 654.068 68.7235 654.068 72.162C654.068 95.1004 654.45 100.373 656.605 107.28C659.554 117.275 669.319 127.361 684.51 127.361C705.11 127.361 724.166 112.996 741.144 84.6475L742.642 82.1412L728.842 68.3415L726.932 72.3607V72.3454Z" fill="white"/>
<path d="M842.158 46.6409C836.962 46.6409 832.133 47.7871 828.939 48.6887C824.783 43.1413 821.344 38.6178 816.76 33.6359L815.124 31.8632L801.233 39.1833L804.549 42.1939C807.346 44.7307 810.601 47.9094 815.445 53.7624C811.243 55.8102 807.407 57.7663 802.303 60.5476C796.19 47.4815 794.066 44.15 792.339 41.445L791.071 39.4584L775.529 43.9666L778.448 47.6343C783.078 53.4567 786.73 59.9822 790.245 66.7674C782.406 70.6644 777.699 72.8344 770.761 75.0656L766.283 76.5021L777.195 89.4002L779.441 88.1777C780.129 87.7956 780.679 87.4747 781.26 87.1385C781.993 86.7106 782.757 86.2674 783.934 85.6408L784.071 85.5644C785.156 84.9073 788.625 82.9665 791.972 81.0868C793.393 80.2921 794.799 79.4974 796.007 78.825C804.427 97.6373 810.295 113.546 814.36 128.675L815.354 132.343L829.902 125.313L828.802 122.593C819.419 99.196 815.476 89.4919 807.774 72.5441C812.19 70.267 817.692 67.5163 823.086 64.903C823.147 64.9947 823.193 65.0864 823.254 65.1781C825.134 68.3415 825.241 68.5402 826.754 72.6511L828.007 76.0437L841.669 68.7083L840.095 65.9117C838.246 62.6413 837.176 60.9755 836.351 59.7835C837.742 59.3862 839.193 59.1417 840.89 59.1417C846.651 59.1417 852.596 62.6718 852.596 68.586C852.596 72.2384 851.45 75.2032 849.188 77.4038C845.474 81.0104 838.811 82.7067 829.367 82.4469L824.37 82.3093L830.406 95.7728H832.439C859.136 95.7728 866.258 78.8556 866.258 68.8611C866.258 56.8035 855.224 46.6257 842.174 46.6257L842.158 46.6409Z" fill="white"/>
<path d="M1059.93 79.0695C1054.59 98.2638 1051.51 101.626 1050.51 102.207C1047.21 101.534 1036.1 89.5225 1036.1 57.7052C1036.1 46.7479 1037.54 39.1221 1038.3 35.0265L1038.96 31.4964L1020.35 25.6433L1019.98 30.8393C1019.67 34.996 1019.22 41.2769 1019.22 50.2169C1019.22 69.5793 1021.32 84.2196 1025.63 94.8559C1025.73 95.1004 1034.94 119.98 1050.38 119.98C1063.37 119.98 1070.82 98.8751 1074.41 88.7431L1075.1 86.787L1061.3 74.1334L1059.93 79.0695Z" fill="white"/>
<path d="M1111.44 28.1802L1110.05 26.6061L1094.33 31.9243L1096.94 35.3933C1105.44 46.7173 1114.93 61.2812 1119.98 90.7603L1120.6 94.3669L1137.76 88.6514L1137.19 85.9159C1135.28 76.7008 1129.46 48.6429 1111.44 28.1802Z" fill="white"/>
<path d="M1166.08 83.2874C1152.34 83.2874 1141.15 94.4739 1141.15 108.212C1141.15 121.951 1152.34 133 1166.08 133C1179.81 133 1191 121.875 1191 108.212C1191 94.5503 1179.81 83.2874 1166.08 83.2874ZM1166.08 120.912C1159.08 120.912 1153.38 115.212 1153.38 108.212C1153.38 101.213 1159.08 95.5131 1166.08 95.5131C1173.07 95.5131 1178.77 101.213 1178.77 108.212C1178.77 115.212 1173.07 120.912 1166.08 120.912Z" fill="white"/>
<path d="M712.308 45.8921L713.637 47.9705L725.083 39.9168L723.952 38.0371C720.896 32.9482 717.091 27.2632 710.015 20.1876L708.609 18.7817L697.515 26.6825L699.211 28.6386C702.726 32.6884 707.081 37.7315 712.308 45.9074V45.8921Z" fill="white"/>
<path d="M727.712 34.3847L728.996 36.6617L740.732 28.333L739.54 26.438C735.812 20.5544 732.618 16.199 725.542 8.68022L724.09 7.15201L712.935 15.5113L714.738 17.4369C718.696 21.6394 723.754 27.3549 727.697 34.3694L727.712 34.3847Z" fill="white"/>
<path d="M341.262 27.3549L339.229 26.7284L334.079 38.9693L336.31 39.871C351.883 46.1213 355.138 47.4967 365.468 53.7929L367.699 55.153L374.148 41.6437L372.269 40.5587C363.298 35.3627 352.876 30.9309 341.277 27.3855L341.262 27.3549Z" fill="white"/>
<path d="M964.521 93.1596C964.2 89.4919 963.91 86.2521 963.65 83.4249C962.932 75.4782 962.458 70.2212 962.458 68.7388C962.458 64.5363 963.513 63.0845 967.715 59.539L970.558 57.1397L958.24 46.7173L956.193 48.6123C950.34 54.0527 945.847 58.8972 945.847 67.608C945.847 69.3654 946.427 75.4629 947.268 83.8834C947.451 85.7019 947.619 87.4594 947.772 88.9876C944.288 88.3916 940.284 87.7956 936.555 87.7956C919.898 87.7956 910.912 97.6525 910.912 106.929C910.912 117.657 921.716 128.752 939.81 128.752C957.904 128.752 961.755 117.305 963.513 109.481C969.274 112.14 972.865 113.943 978.351 117.259L981.607 119.231L987.582 103.154L985.091 101.886C980.139 99.3489 975.448 96.9343 964.536 93.1749L964.521 93.1596ZM948.093 104.254V106.088C948.093 113.149 941.843 113.699 939.917 113.699C933.453 113.699 925.95 110.872 925.95 107.219C925.95 105.324 929.419 102.589 935.684 102.589C939.963 102.589 944.395 103.475 948.093 104.254Z" fill="white"/>
<path d="M949.882 40.0238L952.113 39.6723L955.2 21.5936L950.264 23.1676C947.391 24.0846 944.426 25.0321 935.104 26.5908C936.449 22.8926 937.457 19.8514 940.208 11.2782L941.018 8.75664L924.193 0L923.505 4.30955C921.854 14.5638 919.134 23.3052 917.209 29.1582C915.635 29.2499 914.259 29.2499 911.753 29.2499C902.492 29.2499 898.824 28.4705 895.31 27.523L891.168 26.4074L891.886 43.3858L894.683 43.7373C896.96 44.0277 900.383 44.4556 906.802 44.4556C907.52 44.4556 909.186 44.3792 911.845 44.2416C911.997 44.2416 912.15 44.2264 912.318 44.2111C900.261 74.6377 892.024 85.274 886.492 92.4261L883.955 95.6964L901.086 102.68L902.446 100.281C913.541 80.8575 922.145 60.3642 929.113 42.637C936.556 41.7812 945.664 40.6656 949.851 40.0085L949.882 40.0238Z" fill="white"/>
<path d="M966.645 27.3549L964.613 26.7284L959.463 38.9693L961.694 39.871C977.572 46.2436 980.491 47.4814 990.867 53.7929L993.098 55.153L999.547 41.6437L997.668 40.5587C988.697 35.3627 978.275 30.9309 966.676 27.3855L966.645 27.3549Z" fill="white"/>
</g>
<defs>
<clipPath id="clip0_2006_457">
<rect width="1191" height="133" fill="white"/>
</clipPath>
</defs>
</svg>
