<svg width="254" height="167" viewBox="0 0 254 167" fill="none" xmlns="http://www.w3.org/2000/svg">
<path d="M54.0834 45.9846V39.741L52.9708 39.7601C49.9452 39.8061 48.924 39.764 47.5065 39.5265C43.8065 38.9174 41.9279 37.3508 41.9279 34.8725C41.9279 30.7203 45.4946 27.0431 47.2055 25.2772L47.3655 25.1125C51.5228 20.9335 53.4585 20.0372 54.2358 19.8725L54.4835 19.8227C55.5581 19.6082 56.1487 19.4894 57.4328 19.1064L58.355 18.8306L57.3528 12.564L55.5505 13.2113C53.1689 14.0655 49.1831 15.4981 43.7189 16.9843C43.2121 17.1107 42.6824 17.2486 42.1528 17.3903C45.1402 13.9544 49.3508 9.60303 50.4101 8.69139C51.8962 7.3967 52.1248 7.17836 52.7421 6.33566L53.2527 5.63469L49.5299 1.21436L48.8478 1.41354C42.1299 3.37473 38.6624 3.84587 31.0985 3.79225L29.3571 3.78075L32.2531 9.9133L33.0114 9.84435C36.7457 9.5111 40.6895 8.81396 43.5055 8.2279C43.3683 8.38112 43.2159 8.55349 43.0368 8.74501C39.7407 12.3303 38.7652 13.399 36.357 16.0382L34.044 18.5739C33 19.6694 32.6646 19.9721 31.2243 20.3436C29.0104 20.899 25.7905 21.646 23.3937 21.6958L21.9229 21.7264L24.1063 28.468L25.1656 28.0849C27.0823 27.3916 27.852 27.1541 28.8084 26.863C29.9478 26.5106 33.1257 25.599 36.4866 24.6375C38.4299 24.0821 40.4037 23.5152 42.1223 23.0173C39.2797 25.9131 36.3989 29.8316 36.3989 34.4703C36.3989 40.3692 40.0265 44.215 46.6149 45.299C48.6801 45.6437 50.3758 45.751 52.7269 45.8927L54.091 45.977L54.0834 45.9846Z" fill="white"/>
<path d="M105.121 32.7695L105.548 32.0838L101.825 26.4301L100.968 28.081C99.4285 31.0381 96.563 36.5424 92.7335 36.5424C91.8837 36.5424 91.1216 36.3969 91.1216 34.6234C91.1216 34.4165 91.1369 33.3019 91.4036 31.6356L91.415 31.5782C92.1428 27.131 92.2572 26.4454 92.2572 24.9783C92.2572 22.2127 90.7863 18.9798 86.6367 18.9798C84.0227 18.9798 81.3896 20.2094 78.829 21.8067C81.0848 16.5973 84.2513 10.4686 86.751 6.08273L87.3073 5.10597L81.2563 1.80029L79.9454 5.12129C78.9852 7.56128 78.4555 8.90194 77.762 10.4916C76.5236 13.3874 71.7948 24.0667 68.3463 31.8616C66.7116 35.5542 65.3322 38.6683 64.6768 40.1622L64.2119 41.2194L69.8591 43.3951L70.2744 42.426C74.0201 33.6888 74.908 31.7429 77.6439 28.9965C78.6232 28.0082 82.0527 24.7868 84.9715 24.7868C85.9965 24.7868 86.5338 25.4533 86.5338 26.1083C86.5262 26.4377 86.2137 28.261 86.0537 29.0578C85.6574 31.5973 85.4478 33.8037 85.4478 34.6694C85.4478 39.3157 88.0923 42.2 92.3486 42.2C94.3491 42.2 96.3611 41.5297 98.5102 40.1392C101.966 37.8563 103.651 35.152 105.133 32.7656L105.121 32.7695Z" fill="white"/>
<path d="M118.313 35.0716C122.173 28.2802 125.164 21.1096 127.588 14.9158C130.175 14.617 133.345 14.2224 134.805 13.9965L135.582 13.8739L136.657 7.54981L134.942 8.10139C133.94 8.42315 132.911 8.75257 129.668 9.30033C130.133 8.00947 130.487 6.94077 131.448 3.94536L131.73 3.06053L125.877 0L125.637 1.50537C125.065 5.09066 124.116 8.15119 123.446 10.1928C122.901 10.2273 122.421 10.2273 121.548 10.2273C118.328 10.2273 117.052 9.9515 115.828 9.62208L114.388 9.23138L114.636 15.1724L115.607 15.295C116.396 15.3946 117.589 15.544 119.822 15.544C120.07 15.544 120.649 15.5171 121.575 15.4712C121.628 15.4712 121.681 15.4673 121.739 15.4635C117.543 26.1045 114.681 29.8239 112.757 32.3213L111.877 33.4666L117.837 35.9104L118.313 35.0754V35.0716Z" fill="white"/>
<path d="M144.7 41.0088L145.832 41.6945L147.909 36.0714L147.044 35.627C145.322 34.7384 143.687 33.8957 139.895 32.5818C139.781 31.2986 139.682 30.1687 139.591 29.1766C139.339 26.3957 139.175 24.5609 139.175 24.0399C139.175 22.5691 139.541 22.0596 141 20.8224L141.991 19.9835L137.704 16.3369L136.996 16.9996C134.957 18.8995 133.399 20.5964 133.399 23.6454C133.399 24.2621 133.604 26.3957 133.89 29.3375C133.951 29.9733 134.012 30.59 134.062 31.1224C132.85 30.9156 131.459 30.7049 130.16 30.7049C124.368 30.7049 121.239 34.1523 121.239 37.3929C121.239 41.1429 125 45.0231 131.291 45.0231C137.582 45.0231 138.928 41.0165 139.537 38.2854C141.542 39.2162 142.791 39.8444 144.7 41.005V41.0088ZM134.18 37.0979C134.18 39.5647 132.004 39.7563 131.337 39.7563C129.089 39.7563 126.475 38.768 126.475 37.4925C126.475 36.8298 127.679 35.8722 129.859 35.8722C131.345 35.8722 132.892 36.1825 134.176 36.4544V37.0979H134.18Z" fill="white"/>
<path d="M194.408 31.1647C194.408 27.7403 193.158 24.8598 191.771 22.6879L186.776 26.0281C187.599 27.4875 188.235 29.2265 188.235 31.2183C188.235 36.0064 184.284 39.6185 179.044 39.6185C173.805 39.6185 171.724 35.9451 171.724 32.5054C171.724 31.4941 171.839 30.1688 171.976 29.0465C173.767 29.0235 177.17 28.8856 181.586 28.1463L182.371 28.0161L183.392 21.2362L181.723 21.7571C180.153 22.2474 177.345 23.1246 172.666 23.3468C172.681 23.2625 172.692 23.1821 172.708 23.0978C172.944 21.6269 173.191 20.1139 173.721 17.1759C175.371 17.0763 177.353 16.8772 181.956 16.0191L182.782 15.8659L183.27 9.48822L181.693 10.0398C179.909 10.6642 178.035 11.2464 174.933 11.549C175.562 8.32759 176.183 5.71523 177.017 3.61998L177.463 2.50149L169.762 0.195557L169.789 1.69709C169.834 4.15624 169.511 6.23234 168.729 11.2502L168.68 11.572C167.057 11.4073 164.846 11.0702 161.326 9.93255L159.939 9.48439L159.779 15.1688L160.476 15.4599C162.457 16.2873 164.275 16.8159 167.72 17.13C167.468 18.8192 167.049 21.4239 166.763 23.1859C164.713 23.0327 162.743 22.6343 161.013 22.0138L159.554 21.4928V27.8552L160.712 28.0965C161.931 28.3532 163.292 28.6366 165.974 28.8626C165.898 29.8585 165.803 31.1685 165.803 32.402C165.803 33.44 165.971 37.0751 168.154 40.3386C170.981 44.5483 176.072 45.1765 178.854 45.1765C187.435 45.1765 194.416 38.8907 194.416 31.1647H194.408Z" fill="white"/>
<path d="M240.692 32.7695L241.118 32.0838L237.396 26.4301L236.538 28.081C234.999 31.0381 232.133 36.5424 228.304 36.5424C227.454 36.5424 226.692 36.3969 226.692 34.6234C226.692 34.4165 226.707 33.3019 226.974 31.6356L226.985 31.5782C227.713 27.131 227.827 26.4454 227.827 24.9783C227.827 22.2127 226.357 18.9798 222.207 18.9798C219.593 18.9798 216.96 20.2094 214.395 21.8067C216.651 16.5973 219.818 10.4686 222.317 6.08273L222.874 5.10597L216.823 1.80029L215.512 5.12129C214.552 7.56128 214.022 8.90194 213.328 10.4916C212.09 13.3874 207.365 24.0667 203.913 31.8616C202.278 35.5542 200.899 38.6683 200.243 40.1622L199.778 41.2194L205.425 43.3951L205.841 42.426C209.587 33.6888 210.474 31.7429 213.21 28.9965C214.193 28.0082 217.623 24.7906 220.534 24.7906C221.559 24.7906 222.096 25.4571 222.096 26.1121C222.089 26.4416 221.776 28.2649 221.616 29.0616C221.22 31.6012 221.01 33.8075 221.01 34.6732C221.01 39.3195 223.655 42.2038 227.911 42.2038C229.912 42.2038 231.924 41.5335 234.073 40.1431C237.529 37.8601 239.213 35.1558 240.695 32.7695H240.692Z" fill="white"/>
<path d="M149.053 18.8074L149.83 19.2824L152.071 14.5556L151.415 14.1726C148.298 12.3569 144.671 10.8056 140.635 9.56453L139.927 9.34619L138.136 13.6248L138.909 13.9389C144.328 16.1261 145.46 16.6087 149.057 18.8074H149.053Z" fill="white"/>
<path d="M26.1474 84.7331C20.3021 97.071 13.8776 98.404 11.3856 98.404C10.8483 98.404 8.1009 98.2661 6.96537 95.5312C6.7596 95.0792 6.32903 94.1446 6.32903 88.2265C6.32903 85.8823 6.38238 73.7091 7.45313 64.2096L7.56744 63.1984L0.418945 61.8232L0.659008 63.3669C0.990521 65.5081 0.990519 67.9864 0.990519 70.1736C0.990519 71.1734 0.944794 74.0309 0.895257 77.0531C0.845721 80.2056 0.792366 83.4653 0.792366 84.668C0.792366 92.6928 0.925733 94.5314 1.67259 96.9523C2.69761 100.446 6.09659 103.973 11.3817 103.973C18.5455 103.973 25.1757 98.9479 31.0858 89.0347L31.6078 88.1576L26.8066 83.335L26.1398 84.7408L26.1474 84.7331Z" fill="white"/>
<path d="M66.2302 75.7467C64.424 75.7467 62.7436 76.1489 61.6309 76.4668C60.1829 74.5286 58.9864 72.9466 57.3898 71.2038L56.8182 70.5833L51.9865 73.142L53.1411 74.1954C54.1128 75.084 55.2445 76.1949 56.9287 78.2403C55.4693 78.9566 54.1356 79.6384 52.3561 80.6114C50.2261 76.0416 49.4907 74.8772 48.8924 73.9311L48.4504 73.2378L43.0433 74.8159L44.0607 76.0991C45.6726 78.1331 46.9414 80.4198 48.1646 82.7909C45.4363 84.1545 43.7978 84.913 41.3857 85.6944L39.8311 86.1962L43.6263 90.7084L44.4075 90.2794C44.6475 90.1492 44.8419 90.0343 45.0438 89.9193C45.2953 89.77 45.5658 89.6167 45.9736 89.3946L46.0193 89.3678C46.3965 89.1379 47.6045 88.4599 48.7705 87.8011C49.2658 87.5215 49.7536 87.2457 50.1727 87.0082C53.103 93.5851 55.1416 99.1507 56.5591 104.441L56.9021 105.724L61.9624 103.265L61.5814 102.311C58.3158 94.1328 56.944 90.7352 54.2652 84.8095C55.8008 84.0128 57.7137 83.0514 59.5923 82.1359C59.6113 82.1704 59.6304 82.201 59.6494 82.2316C60.301 83.3386 60.3391 83.4076 60.865 84.844L61.2994 86.0314L66.0511 83.465L65.5024 82.4883C64.8584 81.343 64.4888 80.7607 64.1992 80.3471C64.6831 80.2092 65.1899 80.1211 65.7805 80.1211C67.781 80.1211 69.854 81.3583 69.854 83.4229C69.854 84.7023 69.4538 85.7403 68.6689 86.5064C67.3809 87.7666 65.0603 88.3604 61.7719 88.2723L60.0305 88.2225L62.1301 92.9301H62.8388C72.125 92.9301 74.6018 87.0159 74.6018 83.5225C74.6018 79.3052 70.7647 75.7429 66.2264 75.7429L66.2302 75.7467Z" fill="white"/>
<path d="M21.0562 75.4827L21.5172 76.2105L25.4992 73.3951L25.1067 72.7363C24.0436 70.9551 22.7214 68.9671 20.2598 66.4927L19.7682 65.9985L15.9082 68.7603L16.4988 69.4459C17.7182 70.8632 19.2386 72.6252 21.0524 75.4827H21.0562Z" fill="white"/>
<path d="M26.4178 71.4644L26.8636 72.2611L30.9485 69.35L30.5331 68.6873C29.2376 66.6304 28.1249 65.1058 25.6633 62.4782L25.1603 61.9419L21.2812 64.8684L21.91 65.5387C23.2856 67.0057 25.046 69.0052 26.4178 71.4606V71.4644Z" fill="white"/>
<path d="M107.654 92.0149C107.54 90.7317 107.441 89.6018 107.349 88.6097C107.098 85.8288 106.934 83.994 106.934 83.473C106.934 82.0022 107.3 81.4927 108.759 80.2555L109.75 79.4166L105.463 75.77L104.754 76.4327C102.716 78.3326 101.157 80.0295 101.157 83.0785C101.157 83.6952 101.363 85.8288 101.649 88.7706C101.71 89.4064 101.771 90.0231 101.82 90.5555C100.609 90.3487 99.2178 90.138 97.9184 90.138C92.1265 90.138 88.998 93.5854 88.998 96.826C88.998 100.576 92.759 104.456 99.0501 104.456C105.341 104.456 106.686 100.45 107.296 97.7185C109.3 98.6493 110.55 99.2775 112.459 100.438L113.591 101.124L115.668 95.5007L114.803 95.0563C113.08 94.1677 111.446 93.325 107.654 92.0111V92.0149ZM101.938 96.5349C101.938 99.0017 99.7627 99.1932 99.0959 99.1932C96.8477 99.1932 94.2337 98.2049 94.2337 96.9294C94.2337 96.2667 95.4378 95.3091 97.6174 95.3091C99.1035 95.3091 100.651 95.6194 101.935 95.8914V96.5349H101.938Z" fill="white"/>
<path d="M102.563 73.4296L103.34 73.307L104.414 66.9829L102.7 67.5345C101.698 67.8563 100.669 68.1857 97.426 68.7334C97.8947 67.4426 98.2452 66.3739 99.2055 63.3785L99.4874 62.4936L93.6345 59.4331L93.3945 60.9385C92.8229 64.5238 91.8741 67.5843 91.2034 69.6259C90.6585 69.6604 90.1784 69.6604 89.3058 69.6604C86.0859 69.6604 84.8094 69.3846 83.5862 69.0552L82.1459 68.6645L82.3936 74.6055L83.3652 74.7281C84.154 74.8277 85.3467 74.9771 87.5796 74.9771C87.8273 74.9771 88.4065 74.9502 89.3325 74.9043C89.3858 74.9043 89.4392 74.9005 89.4963 74.8966C85.301 85.5376 82.4393 89.257 80.515 91.7544L79.6348 92.8997L85.5944 95.3435L86.0707 94.5085C89.9307 87.7171 92.922 80.5465 95.3454 74.3527C97.9328 74.0539 101.103 73.6594 102.563 73.4334V73.4296Z" fill="white"/>
<path d="M108.393 69.0015L107.684 68.7832L105.894 73.0618L106.667 73.3759C112.189 75.6052 113.21 76.0381 116.814 78.2444L117.592 78.7194L119.832 73.9926L119.177 73.6096C116.06 71.7939 112.432 70.2426 108.393 69.0015Z" fill="white"/>
<path d="M160.085 67.8219L155.353 70.4304L156.107 71.2808C157.296 72.6252 158.515 74.054 160.299 76.6702C161.556 78.4897 161.918 79.4243 161.918 80.8301C161.918 80.9411 161.918 81.1518 161.891 81.2016C161.891 81.2016 161.758 81.3127 161.24 81.3127C161.011 81.3127 159.483 81.2131 159.258 81.1748L157.547 80.8875L160.325 86.7443L160.638 87.384L161.331 87.2422C164.688 86.5451 167.592 85.9475 167.592 81.623C167.592 77.2984 164.921 73.9161 160.562 68.4118L160.089 67.8142L160.085 67.8219Z" fill="white"/>
<path d="M153.57 73.3835C152.134 72.1079 150.4 71.4644 148.415 71.4644C147.428 71.4644 146.536 71.6061 145.149 71.9202C145.687 69.0704 146.125 67.2892 146.643 65.8068L146.917 65.0216L140.733 62.2024L140.63 63.4933C140.34 67.1475 140.093 69.7101 139.228 73.7014C137.086 74.3372 134.609 74.9195 128.814 75.5055L127.526 75.6358L130.075 80.9141L130.753 80.7877C133.337 80.3051 135.109 79.8914 137.745 79.1445C133.946 91.1069 130.285 95.3626 127.827 98.2163L127.072 99.0896L132.586 101.932L133.032 101.246C139.59 91.1261 142.013 83.8904 143.854 77.3901C145.965 76.7849 146.776 76.67 147.626 76.67C149.066 76.67 150.979 77.1756 150.979 81.5347C150.979 85.5336 150.05 89.908 148.491 93.2443C147.375 95.6269 146.327 96.1057 145.001 96.1057C144.174 96.1057 143.427 95.9869 141.442 95.6728L139.224 95.3204L141.583 101.323L142.105 101.396C143.553 101.602 144.09 101.602 144.658 101.602C148.32 101.602 150.892 100.197 152.526 97.3084C154.458 93.8955 156.409 87.7093 156.409 81.5768C156.409 80.2361 156.203 75.6894 153.578 73.3796L153.57 73.3835Z" fill="white"/>
<path d="M196.103 78.0837C192.704 78.0837 189.697 78.8537 185.075 80.1062C177.553 82.1172 176.699 82.324 173.659 82.8795L172.397 83.1093L175.358 88.2995L176.09 88.0008C186.957 83.5728 193.816 82.393 196.152 82.393C201.403 82.393 202.477 87.9586 202.477 89.4487C202.477 89.9275 202.367 94.1869 198.537 96.6461C194.563 99.201 188.866 99.5304 185.464 99.7296L183.882 99.8215L186.313 104.705L186.938 104.64C188.767 104.445 190.013 104.253 191.881 103.878C194.373 103.361 197.6 102.553 200.473 100.886C205.08 98.1744 206.715 92.8693 206.715 89.1499C206.715 82.2245 201.319 78.0876 196.103 78.0876V78.0837Z" fill="white"/>
<path d="M243.03 97.5499C238.8 97.5499 236.655 96.6345 236.655 94.8265C236.655 93.6505 236.876 93.03 237.127 92.4478L237.481 91.6166L232.798 89.575L232.474 90.4904C231.526 93.1756 231.381 94.9529 231.381 95.7726C231.381 100.178 235.572 102.706 242.881 102.706C246.07 102.706 249.157 102.407 252.312 101.794L252.952 101.668L253.707 95.765L252.388 96.1442C249.134 97.0788 245.986 97.5538 243.03 97.5538V97.5499Z" fill="white"/>
<path d="M240.724 73.7207L241.311 73.4986V67.795L240.072 68.293C238.453 68.9442 236.597 69.6375 233.305 70.3768L233.583 69.3579C234.311 66.6995 234.581 65.7036 235.096 63.6314L235.286 62.8691L229.258 60.387L229.205 61.6817C229.071 64.9529 228.092 68.8829 227.46 71.2999C225.791 71.5182 224.163 71.7098 222.136 71.7098C220.311 71.7098 219.648 71.6217 218.768 71.4723L217.59 71.2731L218.204 76.8847L218.989 76.9077C221.664 76.992 223.691 76.9077 225.962 76.7506C224.964 79.8265 223.679 83.588 221.508 88.5254C218.977 94.2864 217.221 96.8375 215.521 99.3043L214.656 100.561L220.574 102.028L220.921 101.476C222.586 98.8332 223.866 96.6307 226.442 90.3296C228.866 84.3388 230.409 79.5698 231.544 76.0114C233.655 75.659 237.367 74.9886 240.728 73.7131L240.724 73.7207Z" fill="white"/>
<path d="M245.952 77.1375C243.719 77.1375 239.943 77.463 237.973 77.6929L237.195 77.7848L237.039 83.2317L238.327 82.9329C239.512 82.6571 240.853 82.343 244.511 82.343C247.743 82.343 249.328 82.5614 252.449 83.2202L253.493 83.4385L253.718 78.141L253.001 77.961C250.795 77.4056 248.49 77.1375 245.948 77.1375H245.952Z" fill="white"/>
<path d="M58.5077 145.553L57.4484 144.978C55.5584 143.956 53.0892 142.435 50.4866 139.665C52.3728 137.302 54.3962 134.506 55.768 131.357L56.0004 130.825L54.2095 128.791H49.1606V122.126C49.8922 121.536 50.2008 121.206 50.2008 120.544C50.2008 119.295 48.7986 119.119 48.3375 119.061L43.7383 118.786V128.795H35.7667V133.847H48.4328C46.2951 137.007 41.8216 142.546 34.3797 146.939L33.2061 147.633L37.912 151.161L38.434 150.835C39.7449 150.019 41.3758 148.893 43.7383 146.736V164.958H49.1606V145.354C50.3609 146.533 51.9041 147.771 54.1447 149.058L54.7506 149.406L58.5077 145.553Z" fill="white"/>
<path d="M71.3451 138.926H80.0101V133.725H71.3451V122.321C71.9814 121.793 72.3853 121.368 72.3853 120.644C72.3853 119.835 71.768 119.349 70.5258 119.192L65.9189 118.748V133.721H56.5108V138.923H65.9189V157.067H54.1826V162.269H81.6448V157.067H71.3451V138.923V138.926Z" fill="white"/>
<path d="M119.552 157.343H126.899V133.571H93.0007V157.343H99.5319C95.607 159.362 92.1433 160.17 88.9463 160.714L87.4717 160.967L91.3241 166.034L91.9109 165.873C95.9119 164.778 100.481 163.38 104.284 160.637C105.362 160.672 106.151 160.653 106.669 160.151C106.859 159.967 107.084 159.637 107.084 159.124C107.084 158.569 106.741 157.99 106.166 157.607L105.751 157.343H114.686L113.002 158.963L113.863 159.607C117.868 162.591 121.755 164.433 127.284 165.973L127.886 166.142L131.586 161.085L130.172 160.821C125.988 160.036 122.49 158.891 119.552 157.347V157.343ZM121.324 150.674V152.54H98.3735V150.674H121.324ZM121.324 144.45V146.116H98.3735V144.45H121.324ZM121.324 138.378V139.945H98.3735V138.378H121.324Z" fill="white"/>
<path d="M124.075 119.586H95.6758V131.131H124.075V119.586ZM101.098 126.764V123.995H118.653V126.764H101.098Z" fill="white"/>
<path d="M166.615 156.971C162.386 156.971 160.241 156.056 160.241 154.248C160.241 153.072 160.462 152.451 160.713 151.869L161.067 151.038L156.384 148.996L156.06 149.912C155.112 152.597 154.967 154.374 154.967 155.194C154.967 159.599 159.158 162.127 166.467 162.127C169.656 162.127 172.743 161.828 175.898 161.215L176.538 161.089L177.292 155.186L175.974 155.566C172.72 156.5 169.572 156.975 166.615 156.975V156.971Z" fill="white"/>
<path d="M164.31 133.142L164.897 132.92V127.217L163.658 127.715C162.039 128.366 160.183 129.059 156.891 129.798L157.169 128.78C157.897 126.121 158.167 125.125 158.682 123.053L158.872 122.291L152.844 119.809L152.791 121.103C152.657 124.374 151.678 128.305 151.045 130.722C149.376 130.94 147.749 131.131 145.722 131.131C143.897 131.131 143.234 131.043 142.354 130.894L141.176 130.695L141.79 136.306L142.575 136.329C145.25 136.414 147.277 136.329 149.548 136.172C148.55 139.248 147.265 143.01 145.093 147.947C142.563 153.708 140.807 156.259 139.107 158.726L138.242 159.982L144.16 161.449L144.507 160.898C146.172 158.255 147.452 156.052 150.028 149.751C152.451 143.76 153.995 138.991 155.13 135.433C157.241 135.081 160.953 134.41 164.314 133.135L164.31 133.142Z" fill="white"/>
<path d="M169.534 136.559C167.301 136.559 163.525 136.885 161.555 137.114L160.777 137.206L160.621 142.653L161.909 142.355C163.094 142.079 164.435 141.765 168.093 141.765C171.325 141.765 172.91 141.983 176.031 142.642L177.075 142.86L177.3 137.563L176.583 137.383C174.377 136.827 172.072 136.559 169.53 136.559H169.534Z" fill="white"/>
<path d="M209.181 139.198C204.555 139.198 200.676 141.159 197.994 142.841C198.832 139.915 199.735 136.352 200.112 134.801C206.811 133.878 211.746 132.648 214.733 131.767L215.385 131.576V125.474L214.12 126.029C212.009 126.956 208.56 128.473 201.362 129.76C201.865 127.918 202.703 124.957 203.595 122.494L203.908 121.632L198.154 119.583L197.948 120.613C197.837 121.157 197.586 122.478 197.289 124.018C196.854 126.29 196.325 129.036 196.043 130.446C195.803 130.476 195.551 130.488 195.117 130.488C191.84 130.488 189.47 130.212 186.246 129.703L184.958 129.5L186.097 135.073L186.76 135.138C189.283 135.387 191.863 135.441 192.644 135.441C192.865 135.441 193.391 135.414 194.229 135.372C194.431 135.36 194.64 135.349 194.846 135.341C192.945 142.952 191.443 146.296 190.434 148.548L190.083 149.33L195.357 152.118L195.822 151.536C197.083 149.966 197.857 149.111 199.392 147.897C201.564 146.17 205.02 144.109 209.132 144.109C212.386 144.109 215.754 146.227 215.754 149.77C215.754 153.854 211.395 157.971 201.656 157.971C198.855 157.971 196.37 157.577 195.14 157.339L193.657 157.056L195.593 163.261L196.245 163.273C196.851 163.284 197.563 163.292 198.36 163.292C203.664 163.292 212.557 162.794 217.423 157.979C219.656 155.769 220.788 152.892 220.788 149.422C220.788 143.5 215.911 139.206 209.189 139.206L209.181 139.198Z" fill="white"/>
</svg>
