<svg width="305" height="96" viewBox="0 0 305 96" fill="none" xmlns="http://www.w3.org/2000/svg">
<path d="M2.08079 2.09643H7.34325V0H0V19.5344H2.08079V2.09643Z" fill="white"/>
<path d="M18.5099 13.2324C18.5099 12.9174 18.2074 12.7477 18.0139 12.6387L16.9856 12.0812H19.139V16.468C19.139 17.2193 19.139 18.6129 21.4012 18.6129H25.212C26.3612 18.6129 26.9782 18.1403 27.5831 15.3531V15.2804L25.6233 14.1049L25.5991 14.2625C25.2241 16.3953 24.595 16.3953 24.22 16.3953H22.4295C21.6432 16.3953 21.5706 16.1892 21.5706 15.5349V12.0812H25.1031V1.52637H12.5458V12.0812H15.8484C15.05 14.2504 13.8644 15.7166 10.1383 17.1829L9.99316 17.2435L11.6505 19.0855L11.7231 19.0491C15.8363 17.2435 17.155 15.038 17.5421 14.1776C17.7477 13.6929 17.7477 13.6929 17.9171 13.6445C18.2679 13.5717 18.4978 13.5112 18.4978 13.2324H18.5099ZM22.7561 9.02746V10.0211H14.8927V9.02746H22.7561ZM14.8927 4.4953V3.57432H22.7561V4.4953H14.8927ZM14.8927 7.23398V6.31301H22.7561V7.23398H14.8927Z" fill="white"/>
<path d="M47.7251 17.802L47.8098 17.7778L47.7009 15.0997L47.5679 15.1361C47.084 15.2815 45.9468 15.6208 43.7934 15.6208C41.386 15.6208 41.1924 15.0634 41.1924 14.4575C41.1924 14.1303 41.2892 13.9243 41.3739 13.7425L41.4223 13.6213L39.0753 13.0518L39.0511 13.1608C38.906 13.7788 38.8213 14.4575 38.8213 15.0755C38.8213 17.5476 40.8537 18.0323 44.3741 18.0323C45.0637 18.0323 46.6726 18.0323 47.7251 17.802Z" fill="white"/>
<path d="M41.2412 7.50164V9.98585L41.3743 9.94949C42.5719 9.65866 43.9148 9.64654 44.1688 9.64654C45.306 9.64654 46.6005 9.87679 47.4836 10.0586L47.6167 10.0828V7.63494L47.4957 7.6107C47.1448 7.52588 46.5642 7.39258 44.7616 7.39258C44.2777 7.39258 41.8703 7.4774 41.3622 7.48952H41.2533L41.2412 7.50164Z" fill="white"/>
<path d="M34.6237 18.1409L34.6721 18.0561C35.7366 15.8385 37.2005 12.7847 38.8699 7.07711C40.4668 6.76204 41.6403 6.4712 42.8379 5.92589L42.8984 5.90165L42.8138 3.53863V3.35685L42.6444 3.4538C42.1605 3.74463 41.5072 4.14453 39.5474 4.62925C39.5716 4.53231 39.6079 4.39901 39.6442 4.24148C39.7893 3.64769 40.0555 2.54494 40.1039 2.448C40.1281 2.42376 40.237 2.35105 40.2974 2.30258C40.3942 2.24199 40.4426 2.20564 40.4789 2.16928C40.5757 2.07234 40.5757 1.93904 40.5757 1.89057C40.5757 1.68456 40.1886 1.53914 39.8498 1.45432L37.5392 0.884766V1.01806C37.5392 2.06022 37.4061 2.93272 36.898 5.07762C36.5472 5.11398 35.9544 5.17457 35.1923 5.17457C34.2607 5.17457 33.6801 5.08974 33.2203 5.01703L33.0873 4.9928L33.1961 7.56183H33.305C34.5753 7.53759 35.2285 7.50124 36.3052 7.40429C35.8576 9.016 34.5995 13.33 32.1195 17.0503L32.0469 17.1594L34.5148 18.0924L34.6116 18.1288L34.6237 18.1409Z" fill="white"/>
<path d="M60.294 17.3536C62.7015 17.3536 65.0121 17.1355 66.6816 16.9779L66.9598 16.9537L66.73 14.2635L66.609 14.2998C65.6654 14.5422 63.9112 14.9784 60.2819 14.9784C56.6527 14.9784 56.0357 14.4089 56.0357 13.7909C56.0357 13.2577 56.447 12.6397 57.318 11.8762L57.4027 11.7914L55.6365 10.1797L55.5639 10.2524C54.8138 11.028 53.5557 12.3125 53.5557 14.0817C53.5557 16.9658 56.7857 17.3657 60.2819 17.3657L60.294 17.3536Z" fill="white"/>
<path d="M55.2002 5.10232H55.297C57.7165 5.16291 57.8375 5.16291 60.8135 5.16291C60.1481 5.79305 59.7731 6.05965 59.3376 6.35049L59.2287 6.4232L60.9103 8.22879L60.9829 8.15608C62.3741 6.85945 63.8863 5.52646 65.8098 4.54489L65.9066 4.49642L64.8299 2.44846H64.7452C63.1363 2.78777 61.3942 2.84836 60.1965 2.84836C57.5109 2.84836 55.5994 2.54541 54.9704 2.43635L54.8252 2.41211L55.176 5.00538V5.10232H55.2002Z" fill="white"/>
<path d="M85.9293 18.0312V15.2077L85.7721 15.244C84.2115 15.547 81.8524 16.0196 79.5055 16.0196C77.5215 16.0196 75.6827 15.7772 75.6827 14.0443C75.6827 10.8088 82.6267 8.76086 85.9656 7.77929L86.0624 7.75505L85.3487 5.05272L85.2277 5.10119C84.7559 5.31932 83.3888 5.90099 82.0823 6.47054C81.0661 6.90679 80.1104 7.3188 79.7233 7.48846C78.8885 7.13703 78.6587 6.67655 78.6587 4.39835C78.6587 3.24713 78.6829 2.24133 78.7192 1.12646V0.993164L75.8399 1.36882L75.8762 1.74449C76.0214 3.30772 76.3238 6.56748 76.6021 7.41575C76.8319 8.14283 77.207 8.48214 77.4731 8.67603C74.4366 10.4816 73.3115 11.9479 73.3115 14.0322C73.3115 18.322 77.7634 18.322 79.445 18.322C81.5863 18.322 83.7397 18.1766 85.8326 18.0312H85.9293Z" fill="white"/>
<path d="M100.496 15.9117L100.302 15.9723L101.996 18.0566L102.068 18.0324C103.617 17.4507 108.311 15.7057 108.311 9.85266C108.311 5.36897 105.153 2.35156 100.447 2.35156C95.4145 2.35156 91.4707 6.14452 91.4707 10.9918C91.4707 15.2331 94.5798 17.0266 95.8137 17.0266C96.9388 17.0266 97.8703 15.2816 98.3179 14.2394C100.06 10.3131 100.544 6.85949 100.858 4.53282C102.189 4.73882 105.782 5.3932 105.782 9.82842C105.782 14.2636 101.802 15.536 100.483 15.9117H100.496ZM98.33 4.79942C98.1123 7.48963 97.459 10.1314 96.3823 12.6519C96.1525 13.173 95.7775 14.0455 95.3903 14.0455C94.7371 14.0455 93.733 12.7246 93.733 10.9796C93.733 9.61029 94.1806 6.28994 98.3421 4.7873L98.33 4.79942Z" fill="white"/>
<path d="M124.291 16.5901C124.98 17.0748 125.512 17.5111 126.093 18.0928L126.178 18.1776L127.666 16.1418L127.593 16.0812C126.843 15.4389 125.875 14.6755 124.278 13.8757C124.278 13.6212 124.254 13.0638 124.242 12.4821C124.218 11.8035 124.194 11.1006 124.194 10.8583C124.194 10.2887 124.194 9.99788 125.125 9.23444L125.246 9.1375L123.081 7.81663L123.008 7.78027L122.948 7.82875C122.367 8.33771 121.883 8.8709 121.883 10.3372C121.883 10.725 121.932 12.4215 121.956 13.0395C121.544 12.9426 120.952 12.8214 120.153 12.8214C118.109 12.8214 116.572 14.118 116.572 15.8388C116.572 17.6686 118.302 18.9531 120.794 18.9531C123.637 18.9531 124.109 17.4141 124.278 16.6022L124.291 16.5901ZM120.02 14.9299C120.613 14.9299 121.085 15.0632 121.98 15.3904C121.932 15.9721 121.823 16.7961 120.516 16.7961C119.923 16.7961 118.81 16.5901 118.81 15.8146C118.81 15.6691 118.871 14.9299 120.02 14.9299Z" fill="white"/>
<path d="M123.033 6.67673C123.928 6.97968 126.142 7.80371 127.497 9.14882L127.594 9.23365L128.961 7.27052L128.888 7.20993C127.461 6.04659 125.937 5.28315 124.219 4.83478L124.146 4.81055L122.912 6.61614L123.045 6.66461L123.033 6.67673Z" fill="white"/>
<path d="M115.326 15.1239C115.435 14.93 118.121 10.4221 119.585 6.49583C120.891 6.35042 121.847 6.18076 122.779 5.92628L122.851 5.90205L123.008 3.30878L122.839 3.3936C122.404 3.61173 121.871 3.7935 120.395 4.08434C120.734 3.06642 121.036 2.3151 121.133 2.24239C121.641 1.93943 121.641 1.84249 121.641 1.79402C121.641 1.53954 121.242 1.40624 120.952 1.29718L118.883 0.606445L118.859 0.727626C118.593 2.01214 118.206 3.24819 117.831 4.41152C117.286 4.44788 116.766 4.48423 116.222 4.48423C115.556 4.48423 114.939 4.42364 114.492 4.38729L114.153 4.35093L114.262 6.65337V6.76243H114.371C115.145 6.7382 116.161 6.70184 117.008 6.66549C115.75 9.86466 114.467 12.1065 112.859 13.9121L112.762 14.0212L115.266 15.1966L115.314 15.1118L115.326 15.1239Z" fill="white"/>
<path d="M147.651 13.8874V14.0086L150.41 13.645V13.536C150.216 11.4395 149.563 7.45268 147.361 4.33833L147.313 4.26562L144.905 5.28354L144.978 5.39261C146.684 7.85258 147.567 10.6276 147.651 13.8874Z" fill="white"/>
<path d="M139.739 11.1842C138.698 13.7047 138.094 14.2258 137.767 14.2258C137.198 14.2258 136.351 12.9413 136.351 10.1905C136.351 7.59724 137.186 5.33116 137.343 5.1615L137.392 5.12515C137.658 4.91914 137.803 4.81008 137.803 4.64042C137.803 4.39806 137.464 4.22841 137.223 4.10723L134.863 3.0166L134.839 3.1499C134.791 3.45285 134.585 4.4223 134.428 5.13727C134.355 5.50081 134.283 5.81588 134.259 5.94918C134.077 6.80956 133.859 8.16679 133.859 9.7179C133.859 13.935 135.48 17.2432 137.549 17.2432C138.952 17.2432 140.138 15.9345 141.662 12.7111L141.699 12.6384L139.811 11.0267L139.751 11.16L139.739 11.1842Z" fill="white"/>
<path d="M155.297 14.9421C155.297 16.3599 156.107 17.8989 157.874 17.8989C158.926 17.8989 159.858 17.4384 160.922 16.7235L161.14 17.4142L163.414 16.2387L163.39 16.1539C163.366 16.0691 163.33 15.9843 163.293 15.8752C163.221 15.6813 163.124 15.4147 162.979 14.9542C164.358 13.4879 165.096 12.1792 166.112 10.0222C166.971 10.4342 167.987 10.9674 167.987 12.8699C167.987 14.9421 166.33 16.3841 163.185 17.0264L163.015 17.0628L164.491 19.135L164.564 19.1107C165.955 18.7593 170.504 17.2445 170.504 12.8214C170.504 9.48896 167.854 8.38621 166.874 7.99843C166.947 7.81666 166.983 7.69548 167.032 7.59854C167.08 7.47735 167.116 7.38041 167.165 7.23499L167.201 7.12593L164.757 6.52003L164.733 6.61697C164.697 6.73815 164.515 7.29558 164.431 7.53794C164.249 7.52583 164.043 7.52583 163.729 7.52583C163.051 7.52583 162.592 7.56218 162.289 7.61065C162.338 7.25923 162.362 7.11381 162.447 6.64121L162.495 6.39885C164.745 6.09589 165.931 5.87777 167.987 5.33245L168.072 5.30822V2.69071L167.915 2.7513C166.233 3.47839 164.939 3.73287 163.027 4.04794C163.366 2.89672 163.62 2.30293 163.717 2.24234C164.031 2.12116 164.152 2.07269 164.152 1.83033C164.152 1.60008 163.935 1.51526 163.523 1.38196L161.309 0.666992L161.225 1.06689C160.995 2.07269 160.838 2.81189 160.523 4.32665H160.414C160.148 4.35089 159.821 4.38724 159.362 4.38724C158.128 4.38724 157.232 4.21759 156.712 4.10853L156.495 4.06006L157.063 6.5685H157.269C157.62 6.60485 158.152 6.64121 158.757 6.64121C159.362 6.64121 159.785 6.62909 160.172 6.60485C160.112 7.08958 160.063 7.56218 160.027 8.37409C155.66 10.6644 155.309 13.9726 155.309 14.93L155.297 14.9421ZM160.342 14.3483C159.773 14.833 158.926 15.5722 158.309 15.5722C157.898 15.5722 157.656 15.245 157.656 14.6876C157.656 13.9242 158.14 12.1671 159.967 10.8341C159.991 11.7793 160.136 13.5122 160.342 14.3362V14.3483ZM163.693 9.53743C163.051 11.0401 162.58 11.8277 162.277 12.264C162.205 11.6339 162.096 10.5675 162.108 9.79191C162.713 9.54955 163.136 9.50107 163.693 9.52531V9.53743Z" fill="white"/>
<path d="M189.146 18.1776L190.634 16.1418L190.561 16.0812C189.811 15.4389 188.843 14.6755 187.246 13.8757C187.246 13.6212 187.222 13.0638 187.21 12.4821C187.186 11.8035 187.162 11.1006 187.162 10.8583C187.162 10.2887 187.162 9.99788 188.093 9.23444L188.214 9.1375L186.049 7.81663L185.976 7.78027L185.915 7.82875C185.335 8.33771 184.851 8.8709 184.851 10.3372C184.851 10.725 184.899 12.4215 184.923 13.0395C184.512 12.9426 183.919 12.8214 183.121 12.8214C181.076 12.8214 179.54 14.118 179.54 15.8388C179.54 17.6686 181.282 18.9531 183.762 18.9531C186.605 18.9531 187.077 17.4141 187.246 16.6022C187.936 17.087 188.468 17.5232 189.049 18.1049L189.133 18.1897L189.146 18.1776ZM182.988 14.9299C183.581 14.9299 184.052 15.0632 184.948 15.3904C184.899 15.9721 184.79 16.7961 183.484 16.7961C182.891 16.7961 181.778 16.5901 181.778 15.8146C181.778 15.6691 181.839 14.9299 182.988 14.9299Z" fill="white"/>
<path d="M185.989 6.67673C186.884 6.97968 189.098 7.80371 190.453 9.14882L190.55 9.23365L191.917 7.27052L191.844 7.20993C190.417 6.04659 188.893 5.28315 187.175 4.83478L187.102 4.81055L185.868 6.61614L186.001 6.66461L185.989 6.67673Z" fill="white"/>
<path d="M178.282 15.1239C178.391 14.93 181.077 10.4221 182.541 6.49583C183.847 6.35042 184.803 6.18076 185.735 5.92628L185.807 5.90205L185.964 3.30878L185.795 3.3936C185.36 3.61173 184.827 3.7935 183.351 4.08434C183.69 3.06642 183.993 2.3151 184.089 2.24239C184.597 1.93943 184.597 1.84249 184.597 1.79402C184.597 1.53954 184.198 1.40624 183.908 1.29718L181.839 0.606445L181.815 0.727626C181.549 2.01214 181.162 3.24819 180.787 4.41152C180.242 4.44788 179.722 4.48423 179.178 4.48423C178.512 4.48423 177.895 4.42364 177.448 4.38729L177.109 4.35093L177.218 6.65337V6.76243H177.327C178.101 6.7382 179.117 6.70184 179.964 6.66549C178.706 9.86466 177.424 12.1065 175.815 13.9121L175.718 14.0212L178.222 15.1966L178.27 15.1118L178.282 15.1239Z" fill="white"/>
<path d="M198.837 18.1409L198.885 18.0561C199.95 15.8385 201.413 12.7847 203.083 7.07711C204.68 6.76204 205.853 6.4712 207.051 5.92589L207.111 5.90165L207.027 3.53863V3.35685L206.857 3.4538C206.373 3.74463 205.72 4.14453 203.76 4.62925C203.784 4.53231 203.821 4.39901 203.857 4.24148C204.002 3.64769 204.268 2.54494 204.317 2.448C204.341 2.42376 204.45 2.35105 204.51 2.30258C204.607 2.24199 204.656 2.20564 204.692 2.16928C204.789 2.07234 204.789 1.93904 204.789 1.89057C204.789 1.68456 204.401 1.53914 204.063 1.45432L201.752 0.884766V1.01806C201.752 2.06022 201.619 2.93272 201.111 5.07762C200.76 5.11398 200.167 5.17457 199.405 5.17457C198.474 5.17457 197.893 5.08974 197.433 5.01703L197.3 4.9928L197.409 7.56183H197.518C198.788 7.53759 199.441 7.50124 200.518 7.40429C200.071 9.016 198.812 13.33 196.332 17.0503L196.26 17.1594L198.728 18.0924L198.824 18.1288L198.837 18.1409Z" fill="white"/>
<path d="M205.453 7.50164V9.98585L205.586 9.94949C206.784 9.65866 208.127 9.64654 208.381 9.64654C209.518 9.64654 210.812 9.87679 211.695 10.0586L211.829 10.0828V7.63494L211.708 7.6107C211.357 7.52588 210.776 7.39258 208.974 7.39258C208.49 7.39258 206.082 7.4774 205.574 7.48952H205.465L205.453 7.50164Z" fill="white"/>
<path d="M211.938 17.802L212.023 17.7778L211.914 15.0997L211.781 15.1361C211.297 15.2815 210.16 15.6208 208.006 15.6208C205.599 15.6208 205.405 15.0634 205.405 14.4575C205.405 14.1303 205.502 13.9243 205.587 13.7425L205.635 13.6213L203.288 13.0518L203.264 13.1608C203.119 13.7788 203.034 14.4575 203.034 15.0755C203.034 17.5476 205.067 18.0323 208.587 18.0323C209.277 18.0323 210.886 18.0323 211.938 17.802Z" fill="white"/>
<path d="M220.333 11.7788C220.019 12.3726 219.825 12.6877 219.692 12.8937C219.583 12.1181 219.571 11.4274 219.571 11.1487C219.571 7.98584 220.733 3.52638 221.083 3.32038C221.337 3.23555 221.398 3.1992 221.41 3.18708C221.507 3.13861 221.507 3.01743 221.507 2.96895C221.507 2.71447 221.289 2.62965 220.902 2.47211L218.749 1.59961L218.664 2.01162C217.563 7.45264 217.297 8.73716 217.297 10.9911C217.297 12.5544 217.49 15.5233 218.809 17.8015L218.857 17.8742L220.551 17.2683V17.1956C220.733 15.4869 221.168 14.0812 221.882 12.8937L221.93 12.8088L220.394 11.6455L220.333 11.7546V11.7788Z" fill="white"/>
<path d="M223.988 5.64685L224.061 5.67108C224.823 5.9498 226.274 5.9498 226.746 5.9498C228.924 5.9498 230.642 5.63473 231.888 5.40448L232.057 5.36813L232.106 2.96875L231.96 3.01722C230.424 3.48983 228.863 3.70795 227.218 3.70795C225.839 3.70795 225.125 3.55042 224.097 3.29594L223.964 3.25958L223.988 5.56202V5.63473V5.64685Z" fill="white"/>
<path d="M228.427 16.9899C230.145 16.9899 231.258 16.9172 232.553 16.7233H232.637L232.698 14.0694V13.924L232.565 13.9604C230.847 14.3603 229.141 14.5784 227.762 14.5784C226.141 14.5784 225.427 14.0937 225.427 13.0152C225.427 12.6153 225.476 12.2154 225.572 11.9124L225.621 11.7549L223.274 11.9609V12.0578C223.165 14.1058 223.383 15.2328 224.048 15.9356C224.762 16.6991 225.996 16.9899 228.427 16.9899Z" fill="white"/>
<path d="M240.803 5.41693L240.875 5.50176L242.484 3.81734L242.424 3.74463C241.674 2.8479 240.851 2.09657 239.581 0.957474L239.508 0.884766L237.96 2.42376L237.875 2.50859L237.96 2.5813C239.097 3.57498 240.512 5.07762 240.803 5.41693Z" fill="white"/>
<path d="M243.114 13.0385V14.5896H247.82V16.0923H249.804V14.5896H254.498V13.0385H249.804V12.4568H253.337V10.8572H249.804V10.2756H253.857V8.67599H249.804C249.804 8.4821 249.816 8.4821 249.889 8.45786C250.143 8.38515 250.337 8.30033 250.337 8.04585C250.337 7.9489 250.288 7.70654 249.889 7.70654L247.82 7.57324V8.67599H243.792V10.2756H247.82V10.8572H244.239V12.4568H247.82V13.0385H243.114Z" fill="white"/>
<path d="M251.025 5.70763C252.852 4.59276 253.674 3.6112 254.001 3.23554L254.061 3.16283L252.997 2.16914L252.961 2.14491H248.049C248.267 1.87831 248.291 1.86619 248.448 1.84196C248.726 1.78137 248.968 1.72078 248.968 1.44206C248.968 1.18758 248.738 1.12699 248.496 1.0664L246.379 0.533203L246.343 0.605912C245.908 1.41782 245.097 2.9447 242.182 4.76241L242.061 4.83512L243.5 6.11964L243.609 6.04693C244.129 5.7561 244.891 5.30773 245.847 4.4837C246.113 4.78665 246.428 5.11384 246.984 5.57433C245.024 6.32565 243.319 6.6286 242.23 6.7619L242.061 6.78613L243.186 8.51902L243.234 8.57961H243.307C244.057 8.43419 246.319 8.05853 248.932 6.84672C250.565 7.65864 252.356 8.22819 254.545 8.6402H254.618L255.864 6.64072H255.682C254.158 6.53165 252.598 6.21658 251.037 5.69551L251.025 5.70763ZM250.263 3.80509C249.948 4.09592 249.609 4.36252 248.847 4.7503C248.182 4.3504 247.759 4.02321 247.504 3.80509H250.263Z" fill="white"/>
<path d="M246.803 16.5778C244.517 16.5778 242.351 16.5778 242.351 14.1057V8.08301H237.524V10.2521H240.162V14.6631C239.811 14.8813 238.589 15.5962 237.839 16.0204C237.561 16.1779 237.355 16.2991 237.295 16.3354L237.21 16.3839L238.262 18.3834C238.396 18.65 238.553 18.7954 238.734 18.7954C238.916 18.7954 239.061 18.65 239.085 18.4561C239.17 18.032 239.182 18.0198 239.242 17.9714C239.303 17.935 240.525 17.0019 241.142 16.5172C241.626 17.3412 242.472 18.6257 245.702 18.6257H254.969L255.864 16.2748H255.695C252.731 16.5414 249.804 16.5535 246.815 16.5535L246.803 16.5778Z" fill="white"/>
<path d="M271.906 16.0437C270.732 16.0437 270.684 15.7044 270.684 15.0379C270.684 14.8804 270.72 14.3836 270.757 13.8625C270.805 13.2929 270.841 12.6992 270.841 12.481C270.841 11.863 270.696 11.4268 270.406 11.148C269.994 10.7481 269.317 10.736 268.639 10.7724C271.023 7.67015 271.289 7.35508 272.16 6.71282L272.245 6.65223L270.829 4.64062L270.744 4.67698C267.926 5.9615 265.361 6.25233 261.877 6.31292H261.744L262.288 8.85772H262.373C263.304 8.83348 264.563 8.74866 267.708 7.98522C264.95 12.2023 262.312 14.7835 260.304 16.5648L260.195 16.6618L262.627 18.1402L262.712 18.1886L262.772 18.1038C263.946 16.3952 265.736 14.2866 266.45 13.4505C266.934 13.1233 267.381 12.9415 267.72 12.9415C267.793 12.9415 268.434 12.9657 268.434 13.7655C268.434 13.9352 268.385 14.4926 268.337 15.0258C268.289 15.6075 268.228 16.2134 268.228 16.4194C268.228 18.1159 269.135 18.4189 271.712 18.4189C273.358 18.4189 274.095 18.2735 275.172 18.0311L275.257 18.0069V15.353L275.112 15.4136C274.023 15.862 272.741 16.0195 271.906 16.0195V16.0437Z" fill="white"/>
<path d="M269.487 3.61133C269.753 3.61133 270.019 3.61133 270.297 3.59921H270.394L270.491 1.29678H270.37C270.104 1.32101 269.765 1.34525 269.269 1.34525C267.333 1.34525 265.991 1.00594 264.817 0.654518L264.684 0.618164L264.575 2.83577V2.9206L264.66 2.94484C266.341 3.41744 267.793 3.62345 269.499 3.62345L269.487 3.61133Z" fill="white"/>
<path d="M288.782 7.50107C288.189 7.50107 287.73 7.57378 287.379 7.64649C289.363 5.3804 290.488 4.13224 291.673 3.24762L291.758 3.18703L290.718 1.39355L290.633 1.42991C288.83 2.18123 285.25 2.4963 284.052 2.4963C283.399 2.4963 282.261 2.42359 281.923 2.39936H281.79L282.153 4.89568V4.99263H282.261C284.354 4.85933 285.032 4.78662 286.919 4.54426C285.068 7.12541 282.685 9.54903 279.624 11.9363L279.527 12.009L281.439 13.8873L281.56 13.754C283.846 11.2456 285.358 9.58538 288.129 9.58538C290.899 9.58538 291.335 11.1001 291.335 12.3604C291.335 13.8146 290.597 14.5296 290.004 15.0264C289.169 13.2814 287.838 12.3968 286.036 12.3968C283.592 12.3968 282.721 13.9479 282.721 15.2809C282.721 18.0802 285.746 18.371 287.052 18.371C290.935 18.371 293.766 15.8504 293.766 12.3725C293.766 11.2334 293.403 7.50107 288.782 7.50107ZM286.024 14.3478C287.354 14.3478 287.742 15.4021 287.947 16.0686C287.717 16.1413 287.306 16.2382 286.81 16.2382C285.903 16.2382 284.947 15.8747 284.947 15.2082C284.947 14.7477 285.443 14.3478 286.036 14.3478H286.024Z" fill="white"/>
<path d="M302.73 0.121094V17.5711H297.468V19.6554H304.823V0.121094H302.73Z" fill="white"/>
<path d="M35.5003 39.0078L35.464 39.1653C35.3672 39.5531 35.1374 40.5832 34.6414 41.5163H31V56.9789H33.3348V55.8277H41.8153V56.9789H44.1259V41.5163H37.2787C37.448 41.1406 37.69 40.5105 37.8231 40.159C37.8593 40.0742 37.944 39.953 38.0166 39.9288C38.2586 39.8197 38.4521 39.7228 38.4521 39.5168C38.4521 39.2381 38.0771 39.1775 37.6658 39.1653L35.5003 39.0199V39.0078ZM33.3348 45.5395V43.6369H41.8153V45.5395H33.3348ZM33.3348 49.5505V47.6238H41.8153V49.5505H33.3348ZM41.8153 51.647V53.6707H33.3348V51.647H41.8153Z" fill="white"/>
<path d="M66.0462 39.7715H56.6826V41.6377H66.0462V39.7715Z" fill="white"/>
<path d="M66.0462 47.4551H56.6826V49.297H66.0462V47.4551Z" fill="white"/>
<path d="M67.7888 42.2686H55.292V44.1347H67.7888V42.2686Z" fill="white"/>
<path d="M66.0462 44.8613H56.6826V46.679H66.0462V44.8613Z" fill="white"/>
<path d="M66.626 56.9796V50.0117H56.21V56.9796H58.4843V56.0586H64.3517V56.9796H66.626ZM64.3517 51.9991V54.0713H58.4843V51.9991H64.3517Z" fill="white"/>
<path d="M50.8157 48.1206C51.1786 47.648 51.3359 47.4541 51.7714 46.8724V56.9789H54.082V44.7396C54.082 44.6063 54.1183 44.5336 54.2272 44.4609C54.3966 44.3397 54.4934 44.2307 54.4934 44.061C54.4934 43.8429 54.3724 43.7096 53.949 43.4672C54.3845 42.6311 54.7837 41.7949 55.1829 40.8376C55.2555 40.6679 55.3039 40.6437 55.3523 40.6316C55.5458 40.5831 55.8241 40.5104 55.8241 40.2559C55.8241 40.1105 55.6789 39.8924 55.2797 39.7591L53.2836 39.0684L53.2473 39.1774C51.8924 43.3945 49.8842 45.806 49.1341 46.727L49.0615 46.8118L50.731 48.2296L50.8036 48.1448L50.8157 48.1206Z" fill="white"/>
<path d="M78.1322 39.1778C77.9507 40.0867 77.5999 41.044 77.3216 41.8317C76.5474 41.8559 76.4748 41.8559 75.9788 41.8559C75.1561 41.8559 74.2609 41.8438 73.3173 41.7347H73.1842L73.4988 44.0856H73.5955C74.4303 44.122 75.7973 44.0493 76.3175 44.0251C75.6642 45.3096 74.4545 47.2364 72.3253 49.3691L72.2285 49.4661L74.2367 50.7748L74.3335 50.8354L74.394 50.7385C74.9989 49.7933 76.8377 46.9092 78.8338 46.9092C79.8863 46.9092 80.1766 47.6726 80.3339 48.2058C78.3862 49.1995 75.4344 50.7021 75.4344 53.6589C75.4344 56.6157 78.7612 56.9187 81.2654 56.9187C83.1648 56.9187 84.6165 56.7006 85.9351 56.4824H86.0319V54.0104L85.8988 54.0346C83.1769 54.6647 81.4227 54.7496 80.6122 54.7496C79.3056 54.7496 77.8055 54.5799 77.8055 53.2348C77.8055 51.7685 79.6323 50.7869 80.467 50.3628C80.467 50.7506 80.467 51.0899 80.3702 53.4408V53.5499H82.9107V53.4408C82.8865 52.3381 82.8139 51.1626 82.7534 50.0235L82.7171 49.3691C83.0317 49.248 83.7333 48.9692 84.4713 48.6905C85.427 48.3149 86.4674 47.915 86.8182 47.7695L86.915 47.7332L86.1045 45.4308L86.0561 45.2975L85.9351 45.3823C84.6528 46.3033 83.068 46.994 82.4752 47.2363C82.1607 46.0972 81.5437 44.9703 79.6323 44.9703C78.9669 44.9703 78.4709 45.0914 78.1322 45.2126C78.3983 44.8249 78.6644 44.3886 78.9911 43.7463C79.8016 43.6615 82.2574 43.3707 83.9027 42.9708L83.9753 42.9465L84.2535 40.4745L84.0842 40.5472C83.0559 41.0077 81.1687 41.4075 80.0678 41.5408C80.2492 41.141 80.588 40.4381 80.6485 40.3533C81.0598 40.0624 81.1445 40.0019 81.1445 39.8322C81.1445 39.6262 81.0235 39.5292 80.3097 39.4202L78.2047 39.0566L78.1805 39.1657L78.1322 39.1778Z" fill="white"/>
<path d="M100.525 54.9918L102.364 53.7557L102.327 53.6709C101.952 52.8954 101.359 52.0107 100.73 51.2836L100.67 51.2109L98.7705 52.3137L98.8552 52.4106C99.5689 53.2468 100.246 54.4828 100.464 54.8827L100.525 54.9918Z" fill="white"/>
<path d="M104.395 43.4433H108.472V41.3348H104.395V40.0624C104.395 39.9897 104.395 39.9897 104.625 39.7837C104.674 39.7352 104.734 39.6625 104.734 39.5656C104.734 39.2868 104.347 39.2626 104.178 39.2505L102.109 39.1172V41.3348H98.4433V43.4433H102.109V45.1035H97.6933V46.8485L97.5965 46.8849C97.1731 47.0545 96.6166 47.2848 96.1448 47.4665V44.4734H98.1772V42.377H96.1448V40.1109C96.1448 40.1109 96.1448 40.0018 96.2053 39.9533C96.423 39.7958 96.4956 39.7473 96.4956 39.6019C96.4956 39.3353 96.1932 39.3111 95.9391 39.2868L93.8946 39.1778V42.377H91.2816V44.4734H93.8946V48.2663C92.5397 48.7389 91.8985 48.8965 91.2695 49.0419L90.9912 49.1146L91.463 51.2353C91.5719 51.6715 91.6324 51.8896 91.8743 51.8896C91.9711 51.8896 92.0679 51.8291 92.1042 51.7563C92.1163 51.7321 92.1526 51.6836 92.1768 51.623C92.2131 51.5503 92.3099 51.3928 92.322 51.3686C92.3461 51.3443 92.5397 51.2353 93.8704 50.7263V53.9618C93.8704 54.1921 93.8704 54.3739 93.7374 54.4829C93.5438 54.6647 93.0357 54.7253 92.0921 54.6526H91.9227L92.9026 57.0156H92.9873C95.4552 56.7005 96.1206 56.3491 96.1206 54.5314V49.7447C97.0884 49.3085 97.4513 49.1267 97.7296 48.9813V51.0656H104.347V54.1315C104.347 54.6283 104.347 54.701 103.839 54.701C103.379 54.701 102.944 54.6889 102.242 54.6041L102.061 54.5799L103.065 57.0398H103.137C105.98 56.955 106.694 56.7005 106.694 54.5435V51.0656H109.126V48.9086H106.694V47.2484H109.222V45.0914H104.347V43.4312L104.395 43.4433ZM97.899 48.9207L97.9594 48.8844V47.2605H104.383V48.9207H97.899Z" fill="white"/>
<path d="M123.462 45.0195C122.143 45.0195 121.671 45.1771 118.09 46.401L118.006 46.4252C116.832 46.813 115.623 47.0796 114.413 47.2008H114.268L115.247 49.3699H115.332C116.179 49.1882 117.365 48.8125 118.514 48.3641C121.151 47.3341 122.046 47.0069 123.22 47.0069C124.296 47.0069 125.821 47.7703 125.821 49.4547C125.821 50.5211 125.216 53.0417 119.542 53.4658H119.373L120.522 55.5865H120.595C122.409 55.223 127.938 54.1808 127.938 49.4305C127.938 46.8736 126.051 45.0195 123.45 45.0195H123.462Z" fill="white"/>
<path d="M147.416 40.0627C141.476 41.5411 134.398 41.8198 132.366 41.8683H132.245L132.608 44.2798V44.3768H132.729C133.479 44.3041 136.104 44.0011 138.221 43.7709C139.213 43.6618 140.096 43.5648 140.665 43.4921C138.814 44.9948 136.467 47.0549 136.467 50.4722C136.467 52.7625 137.701 55.7193 143.593 56.7614H143.689L144.476 54.253L144.512 54.1197H144.379C142.915 53.9864 139.032 53.6834 139.032 50.3389C139.032 47.2609 142.286 43.4316 147.561 42.5954H147.657L147.549 40.0264L147.416 40.0627Z" fill="white"/>
<path d="M168.03 57.1007V50.1934H154.674V57.1007H157.093V56.2403H165.61V57.1007H168.03ZM165.61 52.2656V54.1681H157.093V52.2656H165.61Z" fill="white"/>
<path d="M169.977 42.207H152.532V44.2186H169.977V42.207Z" fill="white"/>
<path d="M167.207 44.959H155.291V46.8252H167.207V44.959Z" fill="white"/>
<path d="M167.207 39.5654H155.291V41.4558H167.207V39.5654Z" fill="white"/>
<path d="M167.207 47.6006H155.291V49.4668H167.207V47.6006Z" fill="white"/>
<path d="M176.231 56.4586L176.292 56.3737C177.465 54.6651 179.256 52.5565 179.969 51.7204C180.453 51.3932 180.901 51.2114 181.24 51.2114C181.312 51.2114 181.953 51.2357 181.953 52.0355C181.953 52.2051 181.905 52.7626 181.857 53.2958C181.808 53.8774 181.748 54.4833 181.748 54.6893C181.748 56.3859 182.655 56.6888 185.232 56.6888C186.877 56.6888 187.615 56.5434 188.692 56.301L188.776 56.2768V53.6229L188.631 53.6835C187.542 54.1319 186.26 54.2894 185.425 54.2894C184.252 54.2894 184.203 53.9501 184.203 53.2836C184.203 53.114 184.24 52.605 184.276 52.1082C184.324 51.5386 184.361 50.957 184.361 50.7388C184.361 50.1208 184.216 49.6846 183.925 49.4058C183.514 49.0059 182.836 48.9938 182.159 49.0302C184.542 45.928 184.808 45.6129 185.679 44.9706L185.764 44.91L184.349 42.8984L184.264 42.9348C181.445 44.2193 178.881 44.5101 175.396 44.5707H175.263L175.808 47.1155H175.892C176.824 47.0913 178.082 47.0065 181.227 46.243C178.469 50.4601 175.832 53.0413 173.824 54.8347L173.715 54.9317L176.146 56.4101L176.231 56.4586Z" fill="white"/>
<path d="M178.167 38.8506L178.059 41.0682V41.153L178.143 41.1773C179.825 41.6499 181.289 41.8559 182.994 41.8559C183.248 41.8559 183.515 41.8559 183.793 41.8437H183.89L183.986 39.5413H183.865C183.599 39.5656 183.261 39.5898 182.765 39.5898C180.829 39.5898 179.486 39.2505 178.313 38.8991L178.18 38.8627L178.167 38.8506Z" fill="white"/>
<path d="M207.261 50.6167C207.261 49.4776 206.898 45.7452 202.277 45.7452C201.684 45.7452 201.225 45.8179 200.874 45.8906C202.858 43.6245 203.983 42.3764 205.168 41.4918L205.253 41.4312L204.213 39.6377L204.128 39.6741C202.326 40.4254 198.745 40.7404 197.547 40.7404C196.894 40.7404 195.757 40.6677 195.418 40.6435H195.285L195.648 43.1398V43.2368H195.757C197.849 43.1035 198.527 43.0308 200.414 42.7884C198.563 45.3696 196.18 47.7932 193.119 50.1804L193.022 50.2531L194.934 52.1314L195.055 51.9981C197.341 49.4897 198.854 47.8295 201.624 47.8295C204.394 47.8295 204.83 49.3443 204.83 50.6046C204.83 52.0587 204.092 52.7737 203.499 53.2705C202.664 51.5255 201.334 50.6409 199.531 50.6409C197.087 50.6409 196.216 52.192 196.216 53.525C196.216 56.3243 199.241 56.6151 200.547 56.6151C204.431 56.6151 207.261 54.0946 207.261 50.6167ZM199.519 52.5919C200.85 52.5919 201.237 53.6462 201.442 54.3127C201.213 54.3854 200.801 54.4823 200.305 54.4823C199.398 54.4823 198.442 54.1188 198.442 53.4523C198.442 52.9918 198.938 52.5919 199.531 52.5919H199.519Z" fill="white"/>
<path d="M218.634 53.1496C218.634 54.9915 220.206 56.1791 222.65 56.1791C223.521 56.1791 224.707 56.0216 225.408 55.2824C225.759 54.9067 225.953 54.422 225.953 53.8282C226.642 54.3371 227.211 54.8461 227.755 55.4399L227.84 55.5368L229.413 53.6222L229.328 53.5495C228.215 52.6285 227.114 51.9499 225.783 51.3319C225.529 48.2781 225.505 47.8782 225.469 46.9572C225.892 46.8603 226.945 46.6179 228.493 46.0726L228.566 46.0484L228.409 43.6005L228.251 43.6975C227.538 44.1216 226.267 44.4851 225.59 44.679L225.481 44.7033C225.542 43.4309 225.602 42.8734 225.687 42.3887C226.062 42.2918 226.449 42.1948 226.751 42.1221C227.03 42.0494 227.272 41.9888 227.344 41.9767H227.441V39.6016L227.284 39.6743C225.542 40.4983 222.517 40.9588 221.078 40.9588C220.509 40.9588 220.17 40.9103 219.868 40.874L219.614 40.8376L219.723 43.0431V43.1522H219.831C221.44 43.1279 222.735 42.9583 223.376 42.8613C223.364 43.1764 223.34 43.649 223.34 45.1759H223.255C222.566 45.2971 221.416 45.491 220.509 45.491C220.049 45.491 219.686 45.4546 219.408 45.4304C219.323 45.4304 219.263 45.4182 219.19 45.4061H219.057L219.335 47.7207H219.432C220.775 47.6964 221.67 47.6237 223.4 47.3693C223.449 48.169 223.485 48.6174 223.509 49.0779C223.533 49.4899 223.57 49.9141 223.606 50.6169C223.207 50.5321 222.711 50.4594 222.057 50.4594C219.541 50.4594 218.634 51.8408 218.634 53.1375V53.1496ZM223.352 53.7797C223.134 53.9978 222.783 54.1069 222.299 54.1069C221.561 54.1069 220.787 53.7676 220.787 53.2708C220.787 52.5921 221.682 52.4104 222.154 52.4104C222.626 52.4104 223.098 52.4952 223.63 52.6649C223.63 53.0284 223.63 53.4768 223.352 53.7797Z" fill="white"/>
<path d="M216.02 50.1204C215.694 50.6778 215.488 51.005 215.367 51.211C215.27 50.2537 215.258 49.9507 215.258 49.1752C215.258 44.9823 216.456 41.6256 216.673 41.4438C217.012 41.2257 217.109 41.153 217.109 41.0076C217.109 40.8379 217.012 40.7046 216.48 40.4986L214.52 39.7109L214.496 39.8442C214.448 40.1714 214.23 41.0924 214.024 41.9891C213.843 42.7647 213.673 43.5039 213.625 43.7705C213.298 45.4791 213.129 47.2241 213.129 48.9449C213.129 51.6715 213.589 54.5919 214.29 56.3854L214.327 56.4702L216.117 56.0582V55.9734C216.202 54.2405 216.601 52.75 217.448 50.9929L217.484 50.908L216.069 50.0113L215.984 50.1446L216.02 50.1204Z" fill="white"/>
<path d="M248.708 41.395L249.979 40.5104L249.93 40.4255C249.374 39.444 248.805 38.7411 248.273 38.3655L248.212 38.3291L247.015 39.141L247.111 39.238C247.716 39.8439 248.164 40.4377 248.66 41.298L248.72 41.395H248.708Z" fill="white"/>
<path d="M247.341 56.2757H247.438V53.4401L247.281 53.4765C245.72 53.7794 243.361 54.252 241.014 54.252C239.03 54.252 237.191 54.0096 237.191 52.2768C237.191 49.0412 244.135 46.9933 247.474 46.0117L247.571 45.9875L246.857 43.2851L246.736 43.3336C246.264 43.5517 244.922 44.1213 243.615 44.6908C242.587 45.1392 241.619 45.5512 241.22 45.7209C240.385 45.3695 240.155 44.909 240.155 42.6308C240.155 41.4432 240.179 40.4374 240.216 39.3589V39.2256L237.336 39.6012L237.373 40.0375C237.518 41.5886 237.82 44.812 238.086 45.6361C238.316 46.3631 238.691 46.7024 238.957 46.8963C235.921 48.7019 234.796 50.1682 234.796 52.2646C234.796 56.5544 239.248 56.5544 240.929 56.5544C243.071 56.5544 245.224 56.409 247.317 56.2636L247.341 56.2757Z" fill="white"/>
<path d="M246.204 42.3769L246.253 42.4859L247.571 41.6255L247.523 41.5407C246.942 40.5107 246.41 39.7594 245.938 39.2989L245.878 39.2383L244.644 40.1471L244.716 40.232C245.224 40.8621 245.793 41.5771 246.204 42.4011V42.3769Z" fill="white"/>
<path d="M259.874 52.4835C261.616 48.5573 262.1 45.1036 262.414 42.777C263.745 42.983 267.338 43.6373 267.338 48.0726C267.338 52.5078 263.358 53.7802 262.039 54.1558L261.846 54.2164L263.54 56.3007L263.612 56.2765C265.161 55.6948 269.855 53.9498 269.855 48.0968C269.855 43.6131 266.697 40.5957 261.991 40.5957C256.958 40.5957 253.015 44.3887 253.015 49.2359C253.015 53.4772 256.124 55.2707 257.358 55.2707C258.483 55.2707 259.414 53.5257 259.862 52.4835H259.874ZM259.886 43.0436C259.668 45.7338 259.015 48.3755 257.938 50.8961C257.709 51.4172 257.333 52.2897 256.946 52.2897C256.293 52.2897 255.289 50.9688 255.289 49.2238C255.289 47.8544 255.737 44.5462 259.898 43.0314L259.886 43.0436Z" fill="white"/>
<path d="M43.3439 79.7734L43.2713 79.6885C42.6543 78.9736 42.3398 78.61 41.3599 77.6042L41.2994 77.5436L39.521 78.6706L39.6299 78.7676C40.1501 79.2523 40.6219 79.7491 41.13 80.5731H38.1177C38.1177 79.3856 38.1661 78.6585 38.2629 78.4283C38.275 78.404 38.3476 78.3313 38.4081 78.2707C38.6137 78.0647 38.7105 77.9556 38.7105 77.8587C38.7105 77.5436 38.3234 77.5194 37.8395 77.5073L35.8917 77.4346V77.5436C35.8917 79.0342 35.9038 79.4341 35.9401 80.2338V80.5731H28.5606V80.6943C28.73 81.9183 28.8025 82.8756 28.8025 84.6933C28.8025 89.8556 28.2582 91.7581 27.0484 94.0969L27 94.1939L29.1413 95.127L29.1897 95.03C30.0365 93.1881 30.2543 92.3883 30.5204 91.3098L31.2584 93.0184H31.3309C35.1538 92.8851 35.4683 91.6854 35.5288 84.9963V84.8872H31.1495V82.8392H36.0974C36.3757 86.2081 36.7507 87.9288 37.6943 90.1101C36.4361 91.5643 35.2627 92.5216 33.5085 93.5153L33.3996 93.5759L34.9239 95.3572L34.9965 95.3087C36.9563 94.1333 37.8879 93.2365 38.8557 92.1944C40.3679 94.1575 41.372 95.4542 42.7269 95.4542C43.4649 95.4542 44.1786 95.1633 44.8077 91.7218V91.6491L42.9568 90.4736L42.9205 90.6312C42.7027 91.7097 42.497 92.255 42.3035 92.255C41.9527 92.255 41.0453 91.4067 40.38 90.304C40.8397 89.6011 41.8801 88.0258 42.7874 85.4325C42.8963 85.0811 42.9205 85.0326 42.9447 85.0205L43.0535 84.9599C43.2834 84.8387 43.3923 84.766 43.3923 84.6206C43.3923 84.4267 43.2955 84.3903 42.7148 84.1843L40.8397 83.5178L40.8155 83.639C40.3316 85.7476 39.6904 87.02 39.2186 87.8804C38.7468 86.3777 38.5411 85.5779 38.2266 82.8635H44.8803V80.5853H42.243L43.3439 79.7855V79.7734ZM31.0769 87.0684H33.315C33.2303 90.51 32.5407 90.8008 31.8874 90.8008C31.706 90.8008 31.4761 90.7887 30.6414 90.6312C30.8833 89.3345 31.0164 88.5468 31.089 87.0563L31.0769 87.0684Z" fill="white"/>
<path d="M62.2649 91.2847C62.7488 90.9212 63.2327 90.5334 63.5836 90.2547L63.8013 90.0729C64.0554 89.8669 64.6482 89.4307 64.7328 89.3943H64.7812C65.1442 89.3458 65.2651 89.3337 65.2651 89.1398C65.2651 88.9823 65.1079 88.849 64.8417 88.6309L64.1159 88.0007H66.7289V86.0134H54.7644V85.0803H63.9586V83.2747H54.7644V82.3537H63.9586V80.5481H54.7644V79.6514H64.9264V77.7246H52.4901V86.0013H48.6914V87.9886H52.0424V92.4844L51.7521 92.5208C51.0504 92.6177 49.9979 92.7632 49.5624 92.7632H49.4294L49.9617 94.8717C50.0584 95.2958 50.2157 95.514 50.4214 95.514C50.5544 95.514 50.6028 95.4412 50.7359 95.2352L50.7601 95.1868C50.8085 95.1019 51.0141 95.0413 51.4013 94.9565C56.1435 93.975 57.1355 93.7568 58.9744 93.26L59.0591 93.2358V91.6119C60.6438 93.2479 62.1077 94.3627 64.999 95.4412L65.0716 95.4655L66.8499 93.2479L66.6806 93.2115C64.6965 92.7268 63.5473 92.133 62.277 91.2726L62.2649 91.2847ZM62.5916 88.0007C61.9383 88.643 61.2366 89.2853 60.4866 89.7579C59.8454 89.1156 59.5309 88.6672 59.1316 88.0007H62.5916ZM56.4944 88.0007C57.1718 89.3459 57.813 90.182 58.5631 91.0787C57.196 91.5271 56.0105 91.7816 54.5346 92.1088L54.4136 92.133V88.0129H56.4944V88.0007Z" fill="white"/>
<path d="M83.0131 84.1235L82.9042 84.0508L81.9727 85.2747L82.0694 85.3353C83.0252 85.9533 83.6179 86.4865 84.2349 87.0924L84.3196 87.1772L85.3842 85.9412L85.3116 85.8685C84.4043 84.9718 83.4728 84.4022 83.0252 84.1235H83.0131Z" fill="white"/>
<path d="M84.6683 82.2086L84.5957 82.1602L83.6279 83.2508L83.7247 83.3235C84.4143 83.784 85.1885 84.3414 85.8176 85.0564L85.9023 85.1533L86.9185 83.99L86.8459 83.9173C85.9386 83.0327 85.2369 82.56 84.6683 82.2086Z" fill="white"/>
<path d="M77.084 88.5719C77.084 85.821 79.4672 83.7125 80.8827 82.7067C82.6368 81.4828 83.9675 81.1435 85.4072 80.8526L85.5039 80.8284L85.3951 78.2715L85.262 78.3078C80.0721 79.6651 74.7371 80.174 70.1884 80.4891H70.0674L70.515 83.0097H70.6118C71.1925 82.9127 71.7248 82.84 72.245 82.7552C73.1281 82.634 73.9628 82.5128 74.8822 82.3674C75.0395 82.3432 75.3661 82.2947 75.7775 82.2341C76.6606 82.1008 77.9308 81.9069 78.6083 81.81C76.9509 83.2157 74.483 85.4817 74.483 89.0081C74.483 90.9591 75.6686 92.789 77.6647 93.8796C78.4026 94.2795 79.4067 94.7036 81.7053 95.0429H81.8021L82.5884 92.5345L82.6368 92.4012H82.4916C80.1568 92.3285 77.0598 91.8559 77.0598 88.5476L77.084 88.5719Z" fill="white"/>
<path d="M104.642 81.5429C103.505 82.379 102.368 82.888 100.795 83.4696C100.444 82.7062 100.323 82.3911 100.166 82.0034C101.606 81.5186 102.138 81.3005 103.662 80.634L103.747 80.5977L103.106 78.2104L102.973 78.3073C101.727 79.2162 100.71 79.6161 99.4281 80.0523C99.283 79.6282 98.9805 78.6224 98.9805 78.4649C98.9805 78.4285 99.0531 78.3195 99.0894 78.2589C99.1862 78.0892 99.2225 78.0044 99.2225 77.9438C99.2225 77.6045 99.041 77.6045 98.3514 77.6045H95.9319L96.0166 77.762C96.2828 78.271 96.7788 79.5555 97.1659 80.5977C96.4763 80.7188 95.2061 80.9491 93.839 80.9491C93.1253 80.9491 92.6777 80.9006 92.3147 80.8643L92.0365 80.84L92.7624 83.1788H92.847C94.5407 83.1788 95.811 83.094 97.9401 82.6214C98.2426 83.3848 98.3514 83.6514 98.545 84.0877L98.5813 84.1725H98.5208C97.6377 84.4027 95.5569 84.8996 93.7302 84.8996C93.1374 84.8996 92.6414 84.8511 92.2422 84.8026L91.8066 84.7542L92.6293 87.0324H92.7019C95.6537 86.996 97.2627 86.6567 99.5128 86.1235C99.9846 87.0202 100.299 87.5292 100.686 88.0503C99.9362 87.8443 98.9563 87.6019 97.6982 87.6019C94.7101 87.6019 92.9196 89.0318 92.9196 91.4191C92.9196 93.9639 94.9278 95.1515 99.2346 95.1515C100.71 95.1515 101.787 95.0061 102.646 94.8606H102.743V92.3764L102.416 92.437C101.061 92.7036 99.9846 92.9096 98.6176 92.9096C96.4158 92.9096 95.2908 92.3764 95.2908 91.31C95.2908 90.2437 96.6215 89.5408 97.9159 89.5408C99.5491 89.5408 101.327 90.1467 102.912 91.2252L102.997 91.2737L104.63 89.4196L104.558 89.3469C103.154 87.8322 102.682 87.1293 101.751 85.4207C103.311 84.8753 104.134 84.4876 105.259 83.9059L105.332 83.8695L104.763 81.4459L104.63 81.5429H104.642Z" fill="white"/>
<path d="M119.874 83.9903C119.281 83.9903 118.821 84.063 118.47 84.1357C120.454 81.8697 121.58 80.6215 122.765 79.7369L122.85 79.6763L121.809 77.8828L121.725 77.9192C119.922 78.6705 116.341 78.9856 115.144 78.9856C114.49 78.9856 113.353 78.9129 113.014 78.8886H112.881L113.244 81.3849V81.4819H113.353C115.446 81.3486 116.124 81.2759 118.011 81.0335C116.16 83.6147 113.777 86.0383 110.716 88.4256L110.619 88.4983L112.531 90.3766L112.652 90.2433C114.938 87.7348 116.45 86.0746 119.221 86.0746C121.991 86.0746 122.426 87.5894 122.426 88.8497C122.426 90.3039 121.688 91.0188 121.096 91.5157C120.261 89.7707 118.93 88.886 117.128 88.886C114.684 88.886 113.813 90.4372 113.813 91.7701C113.813 94.5694 116.837 94.8603 118.144 94.8603C122.027 94.8603 124.858 92.3397 124.858 88.8618C124.858 87.7227 124.495 83.9903 119.874 83.9903ZM117.128 90.837C118.458 90.837 118.846 91.8913 119.051 92.5578C118.821 92.6305 118.41 92.7275 117.914 92.7275C117.007 92.7275 116.051 92.3639 116.051 91.6974C116.051 91.2369 116.547 90.837 117.14 90.837H117.128Z" fill="white"/>
<path d="M136.592 82.5006H146.923V77.8594H136.592V82.5006ZM144.939 79.5923V80.7314H143.959V79.5923H144.939ZM142.229 79.5923V80.7314H141.274V79.5923H142.229ZM139.556 79.5923V80.7314H138.624V79.5923H139.556Z" fill="white"/>
<path d="M145.29 92.097C145.375 92.0364 145.472 91.9516 145.593 91.8547C145.968 91.5638 146.597 91.067 146.79 91.0185L146.875 90.9943C147.322 90.8852 147.431 90.861 147.431 90.6186C147.431 90.4368 147.359 90.3884 146.984 90.1824L146.028 89.6492H146.294V85.3594H137.088V89.6492H139.689C138.54 90.5823 137.04 91.6365 134.644 92.6302L134.499 92.6908L136.035 94.3873L136.35 94.2177C136.846 93.9511 137.669 93.5148 139.06 92.6545V95.3083H141.334V90.9822C141.467 90.8489 141.576 90.7519 141.649 90.6792C142.701 92.7272 144.274 94.3146 146.318 95.4174L146.391 95.4537L148.073 93.7814L147.939 93.7087C147.141 93.3088 146.04 92.7151 145.29 92.0607V92.097ZM145.193 89.6613C144.637 90.2793 144.322 90.5823 144.02 90.8489C143.766 90.5823 143.536 90.3035 143.125 89.6613H145.193ZM144.117 87.068V87.9648H139.314V87.068H144.117Z" fill="white"/>
<path d="M136.64 90.9708L136.713 88.935L136.568 88.9713C136.459 89.0077 136.035 89.1288 135.6 89.2621C135.249 89.3712 134.874 89.4803 134.632 89.553V85.9176H136.132V84.8027H147.976V83.0456H135.769V83.7484H134.632V80.2099H136.193V78.0771H130.337V80.2099H132.418V83.7484H130.446V85.9176H132.418V90.1589C131.983 90.2558 131.632 90.3407 131.329 90.4134C130.773 90.5467 130.41 90.6315 130.035 90.7163L129.914 90.7405L130.507 92.7279C130.555 92.8854 130.676 93.2369 130.979 93.2369C131.112 93.2369 131.221 93.1763 131.281 93.1399L131.329 93.0915C131.475 92.8612 131.547 92.7643 131.571 92.7279C131.729 92.6673 132.721 92.328 133.689 92.0008C134.886 91.5888 136.241 91.1283 136.568 91.0071L136.64 90.9829V90.9708Z" fill="white"/>
<path d="M158.223 89.6496V87.4077L158.066 87.4805C157.425 87.7955 156.941 88.0258 156.336 88.2803V83.4573H158.139V84.0995H169.91V82.1122H166.692C166.934 81.5426 167.043 81.2881 167.164 80.8034H169.269V78.9372H164.708C164.708 78.707 164.708 78.6343 164.756 78.5616C164.768 78.5494 164.792 78.5252 164.829 78.501C165.095 78.2707 165.216 78.1495 165.216 78.0405C165.216 77.6648 164.671 77.6285 164.417 77.6042L162.204 77.4346V78.9493H158.272V80.8155H159.905C159.929 80.8761 159.953 80.9731 159.99 81.07C160.111 81.3972 160.268 81.8577 160.365 82.1243H158.332V81.1912H156.312V79.0705C156.312 78.816 156.385 78.7554 156.494 78.6706C156.76 78.4888 156.832 78.4404 156.832 78.295C156.832 77.8708 156.106 77.8587 156.022 77.8587L153.929 77.6648V81.2033H152.138V83.4815H153.929V89.1891L153.82 89.2255C153.518 89.3345 152.997 89.5163 151.933 89.8071L151.836 89.8314L152.199 92.0126C152.259 92.3156 152.332 92.6549 152.598 92.6549C152.792 92.6549 152.913 92.5095 152.949 92.4489L152.973 92.4125C153.276 92.0005 153.288 91.9763 153.699 91.7824C156.022 90.8008 157.352 90.1222 158.151 89.6981L158.211 89.6617L158.223 89.6496ZM162.191 80.8034H164.889C164.768 81.2033 164.635 81.5062 164.43 81.9546L164.357 82.1122H162.712C162.506 81.5911 162.446 81.4335 162.264 80.9852L162.191 80.8034Z" fill="white"/>
<path d="M167.985 91.1406C167.985 92.1706 167.852 92.8613 167.235 92.8613H166.316C166.11 92.8613 165.989 92.7886 165.989 92.413V90.4014H168.288V84.6816H158.961V90.4014H160.86C160.182 92.6796 158.223 92.9462 155.972 93.2491L155.791 93.2734L157.303 95.2486L157.34 95.2971H157.4C160.013 94.7881 161.719 94.0732 162.675 91.904L162.711 91.8313C162.904 91.3951 162.917 91.3951 163.025 91.3708L163.098 91.3466C163.304 91.286 163.413 91.2496 163.413 91.0558C163.413 90.8255 163.304 90.8013 162.675 90.6074L161.997 90.3893H163.763V93.4915C163.763 94.4488 164.247 95.0668 164.985 95.0668H167.925C169.619 95.0668 169.921 94.0732 169.969 91.8556V91.7828L167.985 90.9709V91.1285V91.1406ZM166.364 88.1838V88.8987H160.908V88.1838H166.364ZM160.896 86.7781V86.1722H166.352V86.7781H160.896Z" fill="white"/>
<path d="M183.192 81.955C182.49 81.955 181.752 82.0883 181.208 82.1974C181.281 81.7369 181.377 81.1189 181.462 80.513C181.511 80.1737 181.559 79.8344 181.607 79.5314C181.631 79.5072 181.704 79.4345 181.752 79.3981C181.837 79.3254 181.898 79.2769 181.91 79.2648C181.958 79.2163 182.043 79.1315 182.043 78.9861C182.043 78.7437 181.91 78.7195 181.329 78.6225L178.946 78.2227V78.356C179.018 79.895 178.958 81.0946 178.752 82.7306C176.103 83.2517 175.813 83.3122 174.421 83.494H174.288L175.123 86.1963L175.232 86.1479C176.103 85.7722 176.817 85.5541 178.317 85.1542C177.543 88.3897 176.2 91.1405 174.349 93.3339L174.252 93.443L176.587 94.4851L176.671 94.5215L176.72 94.4488C178.595 91.8919 179.914 88.6442 180.76 84.5241C180.797 84.5241 180.845 84.5119 180.894 84.4998C181.317 84.415 182.309 84.209 182.72 84.209C183.652 84.209 183.724 85.0936 183.724 86.3418C183.724 88.8866 182.853 90.8739 182.853 90.8982C182.515 91.698 182.176 91.9646 181.535 91.9646C181.002 91.9646 180.446 91.807 179.781 91.6131L179.635 91.5768L179.744 94.0246L179.853 94.061C180.216 94.1822 180.7 94.3639 181.498 94.3639C184.293 94.3639 184.958 92.3887 185.237 91.5283C185.37 91.1163 186.071 88.8987 186.071 86.16C186.071 84.0757 185.733 81.955 183.204 81.955H183.192Z" fill="white"/>
<path d="M189.253 78.876L189.193 78.8154L187.91 79.7728L187.995 79.8576C188.697 80.5968 189.193 81.2269 189.689 82.0267L189.749 82.1237L191.164 81.1785L191.104 81.0815C190.499 80.2211 189.894 79.494 189.265 78.8881L189.253 78.876Z" fill="white"/>
<path d="M187.159 80.1254L185.466 81.4099L185.538 81.4947C188.067 84.4637 188.139 85.6512 188.139 85.7724C188.139 86.1238 187.885 86.1966 186.893 86.4026L186.76 86.4268L187.849 88.6323L187.885 88.7171L187.97 88.6929C189.361 88.3051 190.801 87.9173 190.801 86.5237C190.801 86.0996 190.631 83.8214 187.22 80.186L187.147 80.1133L187.159 80.1254Z" fill="white"/>
<path d="M191.395 77.7618L191.334 77.7012L190.076 78.6343L190.161 78.7191C190.85 79.4704 191.238 80.04 191.685 80.767L191.746 80.864L193.101 80.0036L193.052 79.9188C192.52 78.9857 192.036 78.3555 191.407 77.7739L191.395 77.7618Z" fill="white"/>
<path d="M207.883 84.4867C207.956 84.3049 207.992 84.1838 208.04 84.0868C208.089 83.9656 208.125 83.8687 208.173 83.7233L208.21 83.6142L205.766 83.0083L205.742 83.1053C205.706 83.2264 205.524 83.7839 205.439 84.0262C205.258 84.0141 205.052 84.0141 204.738 84.0141C204.06 84.0141 203.601 84.0505 203.298 84.0989C203.334 83.7475 203.371 83.6021 203.455 83.1174L203.492 82.8871C205.742 82.5842 206.927 82.366 208.984 81.8207L209.069 81.7965V79.179L208.911 79.2396C207.23 79.9667 205.935 80.2211 204.024 80.5362C204.363 79.385 204.617 78.7912 204.714 78.7306C205.028 78.6094 205.149 78.561 205.149 78.3186C205.149 78.0884 204.931 78.0035 204.52 77.8702L202.306 77.1553L202.221 77.5552C201.992 78.561 201.834 79.3002 201.52 80.8149H201.411C201.145 80.8392 200.818 80.8755 200.358 80.8755C199.124 80.8755 198.229 80.7059 197.709 80.5968L197.491 80.5483L198.06 83.0568H198.265C198.616 83.0931 199.149 83.1295 199.753 83.1295C200.358 83.1295 200.782 83.1174 201.169 83.0931C201.108 83.5779 201.06 84.0505 201.024 84.8624C196.657 87.1527 196.306 90.4609 196.306 91.4183C196.306 92.8361 197.116 94.3751 198.882 94.3751C199.935 94.3751 200.866 93.9146 201.931 93.1996L202.149 93.8904L204.423 92.7149L204.399 92.6301C204.375 92.5452 204.338 92.4604 204.302 92.3514C204.23 92.1575 204.133 91.8909 203.988 91.4304C205.367 89.9641 206.105 88.6553 207.121 86.4983C207.98 86.9103 208.996 87.4435 208.996 89.3461C208.996 91.4183 207.339 92.8603 204.193 93.5026L204.024 93.5389L205.5 95.6111L205.572 95.5869C206.964 95.2355 211.512 93.7207 211.512 89.2976C211.512 85.9651 208.863 84.8624 207.883 84.4746V84.4867ZM204.701 86.0378C204.06 87.5405 203.588 88.3281 203.286 88.7644C203.213 88.1343 203.105 87.0679 203.117 86.2923C203.722 86.0499 204.145 86.0015 204.701 86.0257V86.0378ZM199.318 92.0605C198.907 92.0605 198.665 91.7333 198.665 91.1759C198.665 90.4125 199.149 88.6553 200.975 87.3223C201 88.2676 201.145 90.0004 201.35 90.8245C200.782 91.3092 199.935 92.0484 199.318 92.0484V92.0605Z" fill="white"/>
<path d="M229.599 78.4402C229.599 78.3554 229.575 78.2948 229.514 78.2463C229.393 78.1372 229.176 78.1615 228.752 78.2099L226.514 78.4523L226.538 78.5614C226.925 80.7668 227.01 82.7906 227.01 84.0993C227.01 88.1225 226.054 90.4371 223.091 93.6241L223.006 93.709L225.135 95.2843L225.22 95.3449L225.28 95.2722C227.349 92.8486 229.502 90.3401 229.502 83.6509C229.502 83.2632 229.442 82.221 229.393 81.2152C229.345 80.2579 229.297 79.349 229.297 79.034C229.297 78.9976 229.393 78.8401 229.442 78.7552C229.551 78.5735 229.587 78.4886 229.587 78.4281L229.599 78.4402Z" fill="white"/>
<path d="M221.36 82.7301L221.312 82.827C220.9 83.6632 220.501 84.4993 219.86 85.9899C219.848 85.6505 219.824 85.2022 219.824 84.7902C219.824 82.3665 220.622 79.9066 220.828 79.4946C220.84 79.4582 220.937 79.3613 220.997 79.2886C221.179 79.0947 221.239 79.022 221.239 78.9371C221.239 78.6826 220.937 78.6221 220.429 78.5009L218.493 78.0889L218.469 78.1979C218.13 79.8339 217.562 82.9119 217.562 85.1052C217.562 88.0863 218.203 89.5405 218.626 90.5099L218.735 90.4857L218.638 90.5341L218.675 90.6068L220.308 90.3403L220.332 90.2797C221.336 87.3956 222.401 85.1295 222.909 84.0388L223.066 83.7117L221.36 82.7422V82.7301Z" fill="white"/>
<path d="M244.286 80.2338L244.31 79.7734C244.358 78.9614 244.37 78.816 244.407 78.6585C244.419 78.6343 244.516 78.5494 244.576 78.4888C244.794 78.2949 244.878 78.2101 244.878 78.1132C244.878 77.8223 244.745 77.7981 244.116 77.7254L241.745 77.4346V77.5557C241.745 77.7496 241.757 78.3071 241.769 78.8766C241.781 79.4219 241.794 79.9794 241.806 80.2702C240.705 80.3187 236.809 80.452 236.301 80.452H236.192L236.325 82.7665V82.8877L236.459 82.8635C237.342 82.6938 239.168 82.5363 241.854 82.3909C241.854 82.7059 241.854 83.0816 241.878 84.9357C241.564 84.9357 241.322 84.9357 241.128 84.9478C240.548 84.9478 240.39 84.9599 240.1 84.9357C239.519 84.8872 239.435 84.7539 239.435 84.6691C239.435 84.5115 239.918 84.2692 240.366 84.0389L240.511 83.9662L239.301 82.8392L239.241 82.8635C238.297 83.2634 236.725 84.1359 236.725 85.4931C236.725 85.8324 236.846 86.1111 237.076 86.3414C237.874 87.1169 239.931 87.0684 241.939 87.0079C241.975 87.5774 242.023 88.05 242.12 88.971C241.757 88.9225 241.298 88.8862 240.777 88.8862C238.176 88.8862 236.35 90.098 236.35 91.843C236.35 94.6907 240.463 94.8361 241.285 94.8361C243.524 94.8361 244.806 93.9879 244.806 92.4973C244.806 92.3641 244.806 92.2307 244.782 92.049C244.782 92.0005 244.782 91.9399 244.782 91.8793C246.209 92.461 247.286 93.1154 248.266 94.0242L248.363 94.1091L249.766 92.0247L249.681 91.9642C248.121 90.8372 246.5 90.0616 244.431 89.4557C244.31 88.5711 244.237 87.9167 244.177 86.8988C244.733 86.8624 247.298 86.6807 248.883 86.2808L248.967 86.2565L249.04 83.845L248.895 83.8814C247.516 84.2813 246.04 84.56 244.141 84.766V84.3903C244.165 83.5784 244.177 82.8029 244.201 82.2818C244.83 82.2576 245.459 82.2455 246.608 82.2455C248.556 82.2455 249.197 82.3303 249.657 82.3909H249.778L249.887 80.0157V79.8945H249.766C248.508 79.9915 247.576 80.04 244.298 80.1733L244.286 80.2338ZM240.523 91.0068C240.971 91.0068 241.552 91.0795 242.362 91.2128C242.398 91.5885 242.398 91.7218 242.398 91.9278C242.398 92.3035 242.398 92.6791 240.923 92.6791C239.858 92.6791 238.709 92.3156 238.709 91.7824C238.709 91.2734 239.628 91.0068 240.535 91.0068H240.523Z" fill="white"/>
<path d="M265.589 80.5497C265.613 78.5381 265.613 78.4654 265.794 78.3442C265.939 78.2472 266.048 78.1503 266.048 77.9928C266.048 77.6171 265.831 77.5929 265.044 77.4959L262.758 77.2051L262.782 77.3505C263.012 78.6471 263.084 79.3742 263.169 80.6709C258.862 80.889 257.399 80.9496 255.427 80.9738H255.306L255.572 83.6398L255.717 83.6155C256.382 83.4944 257.628 83.2641 263.217 82.8036V83.9427C263.072 83.9185 262.879 83.8943 262.625 83.8943C260.496 83.8943 258.995 85.5423 258.995 87.8932C258.995 90.2441 260.52 91.4681 261.947 91.4681C262.673 91.4681 263.121 91.2621 263.423 91.0197C262.927 92.1103 262.25 93.1888 260.145 94.5218L259.975 94.6309L262.504 95.8185L262.552 95.77C263.653 94.8127 264.621 93.8674 265.48 91.9649C266.097 90.5713 266.411 89.1777 266.411 87.7963C266.411 86.4148 266.048 85.7847 265.625 85.1424L265.589 82.634C266.411 82.5734 267.089 82.537 267.887 82.537C268.347 82.537 270.633 82.5734 271.335 82.5976H271.444V80.1013H271.323C269.351 80.2952 267.427 80.4164 265.564 80.5376L265.589 80.5497ZM262.516 86.0998C263.024 86.0998 263.605 86.2815 263.605 87.6751C263.605 88.9717 262.806 89.3232 262.334 89.3232C261.391 89.3232 261.318 88.1235 261.318 87.7599C261.318 86.8632 261.875 86.0998 262.528 86.0998H262.516Z" fill="white"/>
<path d="M275.231 91.0312C274.009 91.0312 273.029 92.0249 273.029 93.2367C273.029 94.4485 274.021 95.4301 275.231 95.4301C276.441 95.4301 277.433 94.4485 277.433 93.2367C277.433 92.0249 276.465 91.0312 275.231 91.0312ZM275.231 91.8674C276.005 91.8674 276.598 92.4733 276.598 93.2367C276.598 94.0002 275.981 94.594 275.231 94.6061C274.481 94.6061 273.864 93.9759 273.864 93.2367C273.864 92.4975 274.481 91.8674 275.231 91.8674Z" fill="white"/>
</svg>
