<svg id="グループ_13406" data-name="グループ 13406" xmlns="http://www.w3.org/2000/svg" xmlns:xlink="http://www.w3.org/1999/xlink" width="201.219" height="25.004" viewBox="0 0 201.219 25.004">
  <defs>
    <clipPath id="clip-path">
      <rect id="長方形_9173" data-name="長方形 9173" width="201.219" height="25.004" transform="translate(0 0)" fill="none"/>
    </clipPath>
  </defs>
  <g id="グループ_13404" data-name="グループ 13404" transform="translate(0 0)" clip-path="url(#clip-path)">
    <path id="パス_3566" data-name="パス 3566" d="M444.1,41.373H433.775a1.338,1.338,0,0,1-1.3-1.352c0-3.638,2.605-5.556,5.408-6.907,2.95-1.426,4.425-2.016,4.425-3.687,0-1.4-1.4-2.065-3.368-2.065a6.629,6.629,0,0,0-4.2,1.229,1.155,1.155,0,0,1-.639.2,1.231,1.231,0,0,1-1.3-1.2c0-.959.885-1.549,2.385-2.163a11.2,11.2,0,0,1,3.908-.713c3.614,0,6.17,1.647,6.17,4.671,0,2.532-1.721,3.933-4.793,5.457-2.68,1.328-4.6,2.286-4.6,3.884H444.1a1.317,1.317,0,0,1,1.3,1.328,1.333,1.333,0,0,1-1.3,1.327" transform="translate(-291.92 -16.677)" fill="#00aaeb"/>
    <path id="パス_3567" data-name="パス 3567" d="M486.619,41.667c-4.6,0-7.178-3.982-7.178-8.481s2.581-8.48,7.178-8.48,7.178,3.982,7.178,8.48-2.581,8.481-7.178,8.481m0-14.307c-2.409,0-4.228,2.311-4.228,5.826s1.819,5.826,4.228,5.826,4.228-2.311,4.228-5.826-1.819-5.826-4.228-5.826" transform="translate(-323.624 -16.677)" fill="#00aaeb"/>
    <path id="パス_3568" data-name="パス 3568" d="M542.577,41.373H532.253a1.338,1.338,0,0,1-1.3-1.352c0-3.638,2.605-5.556,5.408-6.907,2.95-1.426,4.425-2.016,4.425-3.687,0-1.4-1.4-2.065-3.368-2.065a6.628,6.628,0,0,0-4.2,1.229,1.155,1.155,0,0,1-.639.2,1.231,1.231,0,0,1-1.3-1.2c0-.959.885-1.549,2.385-2.163a11.2,11.2,0,0,1,3.908-.713c3.614,0,6.17,1.647,6.17,4.671,0,2.532-1.721,3.933-4.793,5.457-2.68,1.328-4.6,2.286-4.6,3.884h8.235a1.317,1.317,0,0,1,1.3,1.328,1.333,1.333,0,0,1-1.3,1.327" transform="translate(-358.392 -16.677)" fill="#00aaeb"/>
    <path id="パス_3569" data-name="パス 3569" d="M405.207,14.511c-.21-.624-.532-1.621-.653-1.993l-.036-.111a.721.721,0,0,0-.728-.511l-2.238,0a.436.436,0,0,0-.4.173.449.449,0,0,0-.054.413c.054.173.508,1.529.756,2.218a.775.775,0,0,0,.821.5l2,0c.318,0,.442-.1.507-.187a.528.528,0,0,0,.028-.5" transform="translate(-270.724 -8.03)"/>
    <path id="パス_3570" data-name="パス 3570" d="M390.98,12.4a.71.71,0,0,0-.72-.487l-2.238,0a.436.436,0,0,0-.4.168.457.457,0,0,0-.056.419c.058.181.51,1.536.755,2.217a.771.771,0,0,0,.822.5l2.01,0a.574.574,0,0,0,.5-.185.517.517,0,0,0,.035-.506c-.247-.737-.667-1.994-.71-2.127" transform="translate(-261.591 -8.044)"/>
    <path id="パス_3571" data-name="パス 3571" d="M123.1,62.377a2.711,2.711,0,1,1-2.716-2.707,2.712,2.712,0,0,1,2.716,2.707" transform="translate(-79.431 -40.277)" fill="#00aaeb"/>
    <path id="パス_3572" data-name="パス 3572" d="M45.285,2.84A2.008,2.008,0,0,0,44.1.127a2.323,2.323,0,0,0-2.8,1.241c-.933,1.661-5.772,10.827-6.583,12.347s-1.833,3.692-2.683,3.361c-.78-.3-1.7-3.635-2.093-4.587-.7-1.69-2.11-3.7-4.47-3.188-1.8.388-2.83,1.808-4.462,4.939a29.873,29.873,0,0,1-2.274,3.967c-1.675,2.287-2.62-1.471-3.174-3.413-.743-2.607-2.1-6.3-5.056-6.292-1.652,0-3.413.97-5.605,4.518C3.627,15.092.635,20.887.193,21.919A2.03,2.03,0,0,0,1.227,24.68a2.239,2.239,0,0,0,2.823-1.023c2.1-3.266,2.679-4.541,3.754-6.043,1.152-1.6,2.716-3.029,3.914.81.754,2.416,2.071,6.378,5.617,6.4,2.134.015,4.343-1.828,5.377-3.585,1.168-1.986,1.462-3.047,2.353-4.006.455-.488,1.131-.665,1.771.754.618,1.372,1.9,5.708,4.171,6.653,3.213,1.334,6.237-5.165,7.281-7.237.842-1.67,6.626-13.689,7-14.566" transform="translate(0 0)" fill="#00aaeb"/>
    <path id="パス_3573" data-name="パス 3573" d="M176.292,13.921a.961.961,0,0,0-.7-.241h.015l-19.539.025a.669.669,0,0,0-.51.23.72.72,0,0,0-.168.468l0,2.474a.677.677,0,0,0,.678.661h.11l14.241-.019h.578c.415,0,.53.075.628.2.215.283-.008.732-.038.839a11.972,11.972,0,0,1-5.961,7.608l-.167.089-.112-.153c-.727-1-1.273-1.686-1.905-2.483l-.09-.119a1.217,1.217,0,0,0-.878-.534h0l-3.3,0a.459.459,0,0,0-.456.287.561.561,0,0,0,.05.515,74.366,74.366,0,0,1,6.5,9.845.815.815,0,0,0,.738.439h3.576a.438.438,0,0,0,.4-.259.492.492,0,0,0,0-.483,29.069,29.069,0,0,0-2.02-3.346l-.12-.177.176-.123c4.18-2.939,8.09-6.683,8.46-15.154a.786.786,0,0,0-.181-.6" transform="translate(-104.886 -9.234)"/>
    <path id="パス_3574" data-name="パス 3574" d="M240.213,13.078a.664.664,0,0,0-.529-.228c-.375,0-2.156.013-3.241.017a.928.928,0,0,0-.774.513c-1.854,4.246-7.235,7.451-14.63,8.687-.478.094-.707.375-.717.7l0,2.558a.634.634,0,0,0,.216.491.759.759,0,0,0,.6.183,28.7,28.7,0,0,0,8.5-2.145l.308-.142.012,9.077a.679.679,0,0,0,.7.68h.145l2.647,0a.672.672,0,0,0,.644-.632l-.017-11.071.1-.065a16.161,16.161,0,0,0,6.15-8.074.641.641,0,0,0-.117-.54" transform="translate(-148.718 -8.674)"/>
    <path id="パス_3575" data-name="パス 3575" d="M298.1,21.875l.011-.206,6.244-.017a.679.679,0,0,0,.479-.205.72.72,0,0,0,.194-.458l0-2.462a.671.671,0,0,0-.681-.685h-.068l-6.131,0,0-4.387a.679.679,0,0,0-.709-.682h-.1l-2.66,0a.659.659,0,0,0-.493.214.683.683,0,0,0-.18.461l.006,4.4-9.368.01a.688.688,0,0,0-.514.208.7.7,0,0,0-.191.494l0,2.473a.673.673,0,0,0,.7.656h.09l9.252-.018-.015.232c-.329,5.358-2.9,6.887-7.727,7.876-.421.1-.661.307-.661.674l0,2.546a.571.571,0,0,0,.215.459.72.72,0,0,0,.509.162c8.089-1.119,11.388-4.506,11.8-11.749" transform="translate(-191.657 -8.623)"/>
    <path id="パス_3576" data-name="パス 3576" d="M375.177,17.959a.667.667,0,0,0-.441-.182h-.115l-13.548.019-.008-4.388a.686.686,0,0,0-.193-.492.712.712,0,0,0-.523-.207h-.021l-2.589,0a.676.676,0,0,0-.672.682l.021,14.706c0,3.66,1.444,5.2,5.463,5.2h.322l12.214-.022a.679.679,0,0,0,.63-.66l0-2.5a.679.679,0,0,0-.674-.684l-11.156.011h-.015a3.628,3.628,0,0,1-2.194-.42c-.543-.454-.6-1.109-.586-2.133l-.007-5.286,13.625-.02a.675.675,0,0,0,.683-.687l0-2.452a.648.648,0,0,0-.207-.487" transform="translate(-241.02 -8.579)"/>
    <path id="パス_3577" data-name="パス 3577" d="M581.771,32.836a5.8,5.8,0,0,1,4.351-1.7c3.54,0,5.7,2.286,5.7,5.187,0,3.048-2.679,5.334-6.366,5.334-4.45,0-6.785-2.655-6.785-6.145,0-4.842,2.556-7.645,5.555-9.538a7.331,7.331,0,0,1,3.736-1.278c.688,0,1.2.369,1.2,1.033,0,.713-.541,1.033-1.622,1.524-2.335,1.057-4.818,2.777-5.777,5.58m3.736.786c-1.991,0-3.515,1.106-3.515,2.753,0,1.77,1.352,2.8,3.417,2.8,1.819,0,3.466-1.033,3.466-2.827,0-1.6-1.155-2.729-3.368-2.729" transform="translate(-390.606 -16.672)" fill="#00aaeb"/>
  </g>
</svg>
