<svg width="875" height="300" viewBox="0 0 875 300" fill="none" xmlns="http://www.w3.org/2000/svg">
<g filter="url(#filter0_d_2212_687)">
<path d="M725.638 22C675.385 22 629.699 51.7107 609.246 97.6883C608.027 100.428 609.258 103.637 611.99 104.857C614.726 106.078 617.93 104.846 619.149 102.106C637.863 60.037 679.666 32.8552 725.638 32.8552C789.887 32.8552 842.156 85.1988 842.156 149.539C842.156 213.879 789.887 266.222 725.638 266.222C679.662 266.222 637.863 239.041 619.149 196.972C617.93 194.232 614.726 193.003 611.99 194.22C609.254 195.441 608.027 198.65 609.242 201.389C629.695 247.371 675.385 277.082 725.638 277.082C795.866 277.082 853 219.867 853 149.539C853 79.2105 795.866 22 725.638 22Z" fill="white"/>
</g>
<g filter="url(#filter1_d_2212_687)">
<path d="M350.857 153.38C351.107 153.126 351.333 152.851 351.532 152.553C351.619 152.418 351.683 152.275 351.758 152.136C351.854 151.965 351.957 151.798 352.032 151.619C352.108 151.44 352.147 151.253 352.203 151.066C352.247 150.911 352.306 150.764 352.338 150.605C352.477 149.901 352.477 149.181 352.338 148.477C352.306 148.318 352.247 148.171 352.203 148.016C352.147 147.833 352.108 147.646 352.032 147.463C351.957 147.281 351.854 147.118 351.758 146.947C351.683 146.807 351.623 146.664 351.532 146.529C351.333 146.231 351.107 145.952 350.857 145.702L322.669 117.474C320.553 115.355 317.118 115.355 315.002 117.474C312.886 119.594 312.886 123.033 315.002 125.153L333.934 144.111H284.182C274.398 144.111 266.278 151.531 265.29 161.368C259.282 221.144 209.443 266.223 149.363 266.223C117.931 266.223 88.4692 253.88 66.3964 231.466C44.3276 209.06 32.4157 179.373 32.8564 147.873C33.2892 116.818 45.9 87.7041 68.3698 65.8943C90.8675 44.0646 120.373 32.3306 151.428 32.8793C196.502 33.6626 237.491 60.8365 255.852 102.106C257.07 104.846 260.271 106.074 263.011 104.858C265.746 103.637 266.973 100.428 265.754 97.6885C245.687 52.5778 200.882 22.875 151.614 22.0201C117.657 21.4396 85.4039 34.2432 60.8217 58.1008C36.2672 81.9345 22.4851 113.765 22.0126 147.726C21.5362 182.152 34.5559 214.599 58.6775 239.093C82.8031 263.59 115.009 277.082 149.363 277.082C181.132 277.082 211.559 265.3 235.041 243.912C258.361 222.667 272.937 193.739 276.078 162.458C276.507 158.191 279.993 154.971 284.182 154.971H333.934L315.002 173.929C312.886 176.049 312.886 179.488 315.002 181.608C316.058 182.669 317.448 183.198 318.834 183.198C320.22 183.198 321.609 182.669 322.665 181.608L350.853 153.38H350.857Z" fill="white"/>
</g>
<g filter="url(#filter2_d_2212_687)">
<path d="M323.849 104.861C324.567 105.184 325.314 105.335 326.052 105.335C328.129 105.335 330.106 104.134 331.008 102.114C349.721 60.0449 391.52 32.8592 437.496 32.8592C483.472 32.8592 525.271 60.041 543.985 102.11C545.204 104.85 548.404 106.078 551.144 104.861C553.88 103.641 555.107 100.432 553.892 97.6922C533.439 51.7107 487.753 22 437.5 22C387.248 22 341.558 51.7107 321.105 97.6922C319.886 100.432 321.117 103.641 323.853 104.861H323.849Z" fill="white"/>
</g>
<g filter="url(#filter3_d_2212_687)">
<path d="M638.995 153.38C639.245 153.129 639.467 152.855 639.666 152.561C639.717 152.485 639.749 152.402 639.797 152.322C639.932 152.096 640.067 151.873 640.166 151.626C640.21 151.515 640.234 151.4 640.273 151.288C640.349 151.066 640.432 150.847 640.476 150.612C640.547 150.263 640.583 149.901 640.583 149.539C640.583 149.177 640.547 148.815 640.476 148.465C640.428 148.231 640.345 148.012 640.269 147.789C640.23 147.678 640.21 147.563 640.166 147.451C640.063 147.209 639.932 146.982 639.797 146.755C639.749 146.68 639.717 146.592 639.67 146.517C639.471 146.223 639.249 145.948 638.999 145.698L610.811 117.47C608.695 115.351 605.26 115.351 603.144 117.47C601.028 119.59 601.028 123.029 603.144 125.148L622.076 144.107H572.324C562.54 144.107 554.416 151.527 553.432 161.364C547.424 221.139 497.584 266.218 437.505 266.218C391.529 266.218 349.73 239.037 331.016 196.968C329.797 194.228 326.593 192.995 323.857 194.216C321.121 195.437 319.894 198.646 321.113 201.385C341.566 247.363 387.256 277.074 437.505 277.074C469.274 277.074 499.701 265.292 523.183 243.904C546.503 222.658 561.079 193.731 564.22 162.45C564.649 158.183 568.135 154.962 572.324 154.962H622.076L603.144 173.921C601.028 176.041 601.028 179.48 603.144 181.599C604.2 182.661 605.59 183.19 606.976 183.19C608.361 183.19 609.751 182.661 610.807 181.599L638.995 153.372V153.38Z" fill="white"/>
</g>
<defs>
<filter id="filter0_d_2212_687" x="586.773" y="0" width="288.227" height="299.082" filterUnits="userSpaceOnUse" color-interpolation-filters="sRGB">
<feFlood flood-opacity="0" result="BackgroundImageFix"/>
<feColorMatrix in="SourceAlpha" type="matrix" values="0 0 0 0 0 0 0 0 0 0 0 0 0 0 0 0 0 0 127 0" result="hardAlpha"/>
<feOffset/>
<feGaussianBlur stdDeviation="11"/>
<feComposite in2="hardAlpha" operator="out"/>
<feColorMatrix type="matrix" values="0 0 0 0 1 0 0 0 0 1 0 0 0 0 1 0 0 0 1 0"/>
<feBlend mode="normal" in2="BackgroundImageFix" result="effect1_dropShadow_2212_687"/>
<feBlend mode="normal" in="SourceGraphic" in2="effect1_dropShadow_2212_687" result="shape"/>
</filter>
<filter id="filter1_d_2212_687" x="0" y="0.0012207" width="374.442" height="299.081" filterUnits="userSpaceOnUse" color-interpolation-filters="sRGB">
<feFlood flood-opacity="0" result="BackgroundImageFix"/>
<feColorMatrix in="SourceAlpha" type="matrix" values="0 0 0 0 0 0 0 0 0 0 0 0 0 0 0 0 0 0 127 0" result="hardAlpha"/>
<feOffset/>
<feGaussianBlur stdDeviation="11"/>
<feComposite in2="hardAlpha" operator="out"/>
<feColorMatrix type="matrix" values="0 0 0 0 1 0 0 0 0 1 0 0 0 0 1 0 0 0 1 0"/>
<feBlend mode="normal" in2="BackgroundImageFix" result="effect1_dropShadow_2212_687"/>
<feBlend mode="normal" in="SourceGraphic" in2="effect1_dropShadow_2212_687" result="shape"/>
</filter>
<filter id="filter2_d_2212_687" x="298.634" y="0" width="277.726" height="127.335" filterUnits="userSpaceOnUse" color-interpolation-filters="sRGB">
<feFlood flood-opacity="0" result="BackgroundImageFix"/>
<feColorMatrix in="SourceAlpha" type="matrix" values="0 0 0 0 0 0 0 0 0 0 0 0 0 0 0 0 0 0 127 0" result="hardAlpha"/>
<feOffset/>
<feGaussianBlur stdDeviation="11"/>
<feComposite in2="hardAlpha" operator="out"/>
<feColorMatrix type="matrix" values="0 0 0 0 1 0 0 0 0 1 0 0 0 0 1 0 0 0 1 0"/>
<feBlend mode="normal" in2="BackgroundImageFix" result="effect1_dropShadow_2212_687"/>
<feBlend mode="normal" in="SourceGraphic" in2="effect1_dropShadow_2212_687" result="shape"/>
</filter>
<filter id="filter3_d_2212_687" x="298.642" y="93.8807" width="363.941" height="205.193" filterUnits="userSpaceOnUse" color-interpolation-filters="sRGB">
<feFlood flood-opacity="0" result="BackgroundImageFix"/>
<feColorMatrix in="SourceAlpha" type="matrix" values="0 0 0 0 0 0 0 0 0 0 0 0 0 0 0 0 0 0 127 0" result="hardAlpha"/>
<feOffset/>
<feGaussianBlur stdDeviation="11"/>
<feComposite in2="hardAlpha" operator="out"/>
<feColorMatrix type="matrix" values="0 0 0 0 1 0 0 0 0 1 0 0 0 0 1 0 0 0 1 0"/>
<feBlend mode="normal" in2="BackgroundImageFix" result="effect1_dropShadow_2212_687"/>
<feBlend mode="normal" in="SourceGraphic" in2="effect1_dropShadow_2212_687" result="shape"/>
</filter>
</defs>
</svg>
