<?xml version="1.0" encoding="UTF-8"?>
<svg id="_レイヤー_1" data-name="レイヤー_1" xmlns="http://www.w3.org/2000/svg" width="690" height="49" version="1.1" viewBox="0 0 690 49">
  <!-- Generator: Adobe Illustrator 29.2.1, SVG Export Plug-In . SVG Version: 2.1.0 Build 116)  -->
  <defs>
    <style>
      .st0 {
        fill: #fff;
      }
    </style>
  </defs>
  <path class="st0" d="M33.0569992,47.3544006v-6.4164009l-1.1433983.0196991c-3.1093006.0472031-4.1587009.0039024-5.6154003-.240097-3.8024006-.6259003-5.7329006-2.2359009-5.7329006-4.7827034,0-4.2670975,3.6653004-8.0460987,5.4235001-9.8606987l.1644993-.1693001c4.2722015-4.2945995,6.2614994-5.2157001,7.0603008-5.3850002l.2546005-.051199c1.1041985-.2203999,1.7112007-.3423996,3.030899-.7361012l.9476013-.2833996-1.0298996-6.4398994-1.8521996.6652002c-2.447403.8778-6.5434017,2.3499994-12.158802,3.8774004-.5209007.1299-1.0652008.2715988-1.609499.4172001,3.0700989-3.530901,7.3970985-8.0026808,8.4857998-8.9395409,1.5271988-1.3305101,1.7621002-1.5548801,2.3964996-2.4208899l.5247002-.7203603-3.8257999-4.5426099-.700901.2047c-6.9037991,2.01543-10.4671993,2.4996102-18.2402897,2.4445l-1.7895598-.0118101,2.9760499,6.3022103.7792997-.0709c3.8376007-.3424501,7.890501-1.0588799,10.7844009-1.66115-.1410007.1574593-.2975998.3345995-.4817009.5314198-3.3871994,3.6844301-4.3896999,4.7827301-6.8645992,7.4949293l-2.3769007,2.6058998c-1.073,1.1258011-1.4175997,1.4368-2.8977594,1.8186016-2.2751403.5707989-5.5840702,1.3383999-8.0471703,1.3894997l-1.5115341.0314999,2.243804,6.9281006,1.0886202-.3936005c1.9696999-.7124996,2.7607098-.9566002,3.7435999-1.2558002,1.1708498-.3621006,4.4367399-1.2989998,7.8905401-2.2870007,1.9971008-.5707989,4.0254993-1.1534004,5.7915993-1.6651001-2.921299,2.9759007-5.8816996,7.0028-5.8816996,11.7698002,0,6.0620995,3.7279997,10.0142021,10.4984999,11.1282005,2.1224995.3543015,3.8649998.4645004,6.2811012.610199l1.4018993.0866013-.0078011.0079002Z"/>
  <path class="st0" d="M85.5064011,33.7750015l.4385986-.7046013-3.8258972-5.8101006-.8810043,1.6966c-1.5820999,3.0389004-4.5267944,8.6955013-8.4622955,8.6955013-.8731995,0-1.6564026-.149601-1.6564026-1.9722023,0-.2124977.0157013-1.3579979.2898026-3.0704002l.0116959-.0589981c.7479019-4.5702.8654022-5.2748013.8654022-6.7824001,0-2.8421001-1.5114975-6.1644001-5.7759018-6.1644001-2.6862984,0-5.3922005,1.2635994-8.0237007,2.9050007,2.318203-5.3535004,5.5723-11.651701,8.141201-16.1588907l.571701-1.0037799-6.218502-3.3971102-1.3469963,3.4128602c-.9868011,2.5074797-1.5311012,3.8852201-2.2438011,5.5188203-1.2727013,2.9758997-6.1323013,13.9505987-9.6762009,21.9611979-1.6799011,3.7947006-3.0974998,6.9950027-3.7709999,8.530201l-.4777985,1.0863991,5.8033981,2.2359009.4267998-.9958992c3.8493004-8.9789009,4.7617989-10.9785995,7.5734024-13.8010006,1.0063972-1.0156002,4.5306969-4.3260994,7.530201-4.3260994,1.0533981,0,1.6055984.6849003,1.6055984,1.3579998-.0079041.338501-.3290024,2.2122993-.4934998,3.0310001-.4072037,2.6098995-.6226044,4.8771992-.6226044,5.766901,0,4.7747993,2.7177048,7.7388992,7.0917053,7.7388992,2.0559006,0,4.1233978-.6888008,6.3320007-2.1178017,3.5516968-2.3459969,5.2826004-5.1250992,6.8057938-7.5774994l-.0116959.0039024Z"/>
  <path class="st0" d="M99.0632019,36.1393013c3.9667969-6.9792004,7.0407944-14.3481007,9.5307999-20.7133017,2.6589966-.3069992,5.9169998-.7124996,7.4169998-.9446993l.798996-.1260004,1.1040039-6.4990001-1.762001.5668397c-1.0299988.3306608-2.086998.6691904-5.4189987,1.2321005.4769974-1.3265705.8409958-2.42483,1.8279953-5.5030899l.2900009-.9093101L106.8359985.0976562l-.2460022,1.5470038c-.5879974,3.6844702-1.5629959,6.8296604-2.2519989,8.9277401-.5599976.0353994-1.0540009.0353994-1.9499969.0353994-3.3092041,0-4.6210022-.2833996-5.8779984-.6219091l-1.4802017-.4015102.2545013,6.10532.9985962.1259995c.8106003.1023006,2.0362015.2559004,4.3311005.2559004.2539978,0,.8499985-.0275993,1.8010025-.0747995.0550003,0,.1100006-.0040007.1689987-.0079002-4.3117981,10.9352999-7.2527008,14.7575998-9.2302017,17.3240995l-.9045944,1.177002,6.1244965,2.5113983.489502-.8581009v-.0039978Z"/>
  <path class="st0" d="M126.1809998,42.2411003l1.163002.7046013,2.1339951-5.7786026-.8889923-.4566994c-1.7700043-.9132004-3.4500046-1.7792015-7.3460083-3.1293983-.1169968-1.3187027-.2189941-2.4799004-.3129959-3.4995022-.2590027-2.8577995-.427002-4.7432995-.427002-5.2786999,0-1.5115986.3759995-2.035099,1.8759995-3.3065987l1.0180054-.8620014-4.4060059-3.7474995-.7279968.6809998c-2.0950012,1.9525013-3.6969986,3.6963005-3.6969986,6.8297005,0,.6336994.211998,2.8262997.5059967,5.8495007.0620041.6533985.125,1.287199.1760025,1.8342991-1.2450027-.2124996-2.6750031-.4289989-4.0100021-.4289989-5.9519958,0-9.1669998,3.5426998-9.1669998,6.8729,0,3.8536987,3.8649979,7.841301,10.3300018,7.841301,6.4649963,0,7.8470001-4.1175003,8.473999-6.9241028,2.0599976.956501,3.3440018,1.6021004,5.3059998,2.7947998v.0040016ZM115.3690033,38.2220001c0,2.5349998-2.2360001,2.7318993-2.9210052,2.7318993-2.3099976,0-4.9970016-1.0155983-4.9970016-2.3264008,0-.6809998,1.2380066-1.6651001,3.4780045-1.6651001,1.5270004,0,3.1169968.3188019,4.435997.5983009v.6613007h.0040054Z"/>
  <path class="st0" d="M177.2640076,32.1245995c0-3.5191002-1.2850037-6.4792995-2.7100067-8.7111988l-5.1340027,3.4324989c.8460083,1.4997997,1.5,3.2868996,1.5,5.3337994,0,4.9205017-4.0610046,8.6326027-9.4449921,8.6326027-5.3850098,0-7.5230103-3.7750015-7.5230103-7.3099022,0-1.0391998.1180115-2.4011993.2590027-3.5545998,1.8399963-.0235996,5.3370056-.1653004,9.8760071-.9251003l.8059998-.1337986,1.0499878-6.9674015-1.7159882.5353012c-1.6130066.5038986-4.4990082,1.4053001-9.3079987,1.6336002.0159912-.0866013.0279999-.1692009.0429993-.2558002.2429962-1.5116005.4980011-3.0664997,1.0419922-6.085701,1.6959991-.1023998,3.7319946-.3069992,8.4620056-1.1887989l.8499908-.1575012.5010071-6.5540695-1.6210022.5668697c-1.8320007.6416006-3.7590027,1.2399006-6.9470062,1.5509005.6460114-3.3104897,1.2850037-5.99512,2.1420135-8.14833l.4589996-1.14943-7.9150085-2.369712.0279999,1.543072c.0469971,2.5271701-.2859955,4.6606902-1.0890045,9.8173999l-.0509949.3305998c-1.6679993-.1691999-3.9389954-.5155993-7.5569916-1.6847l-1.4260101-.4605999-.1640015,5.8416004.7160034.2992001c2.0370026.8501997,3.9049988,1.3935003,7.4450073,1.7163-.2590027,1.735899-.6900024,4.4127007-.9830017,6.2234001-2.1070099-.1575012-4.1320038-.5668011-5.9089966-1.2045002l-1.5-.5354004v6.5384007l1.1899872.2479992c1.253006.2637005,2.651001.5550003,5.4080048.7872009-.0780029,1.0235004-.1759949,2.3698006-.1759949,3.6372986,0,1.0667.1719971,4.8024025,2.4160004,8.1562004,2.9059906,4.3260994,8.1369934,4.9716988,10.9960022,4.9716988,8.8179932,0,15.9919891-6.4596977,15.9919891-14.3993988h-.0069885Z"/>
  <path class="st0" d="M224.826004,33.7750015l.4389954-.7046013-3.826004-5.8101006-.8809967,1.6966c-1.5820007,3.0389004-4.5269928,8.6955013-8.4620056,8.6955013-.8739929,0-1.6569977-.149601-1.6569977-1.9722023,0-.2124977.0160065-1.3579979.2900085-3.0704002l.0119934-.0589981c.7480011-4.5702.8650055-5.2748013.8650055-6.7824001,0-2.8421001-1.5110016-6.1644001-5.776001-6.1644001-2.6860046,0-5.3919983,1.2635994-8.0270081,2.9050007,2.3180084-5.3535004,5.5720062-11.651701,8.1410065-16.1588907l.5709991-1.0037799-6.2180023-3.3971102-1.3470001,3.4128602c-.9869995,2.5074797-1.5309906,3.8852201-2.2440033,5.5188203-1.2719879,2.9758997-6.1279907,13.9505987-9.6759949,21.9611979-1.6799927,3.7947006-3.0970001,6.9950027-3.7709961,8.530201l-.4779968,1.0863991,5.8040009,2.2359009.4259949-.9958992c3.8499908-8.9789009,4.7619934-10.9785995,7.5740051-13.8010006,1.0099945-1.0156002,4.5339966-4.3221989,7.5259857-4.3221989,1.053009,0,1.6060028.6849003,1.6060028,1.3579998-.0079956.3386002-.3289948,2.2122993-.493988,3.0310993-.4070129,2.6098022-.6220093,4.8772011-.6220093,5.7667999,0,4.7749023,2.7169952,7.7390022,7.0910034,7.7390022,2.0559998,0,4.1239929-.6889,6.3320007-2.1178017,3.552002-2.3460999,5.2830048-5.1251984,6.8059998-7.5775986h-.0039978Z"/>
  <path class="st0" d="M130.6529999,19.4260006l.7980042.4881001,2.3029938-4.857501-.673996-.3935995c-3.2030029-1.8659-6.9309998-3.4601002-11.0780029-4.7355003l-.7279968-.2243795-1.840004,4.3969793.7949982.3228006c5.5680008,2.2477007,6.7310028,2.7435999,10.4280014,5.0031004h-.0039978Z"/>
  <path class="st0" d="M260.0499878,26.1100006c-6.0069885,12.6791992-12.6099854,14.0489998-15.17099,14.0489998-.552002,0-3.375-.1417007-4.5419922-2.952301-.2120056-.4645004-.654007-1.4249992-.654007-7.5066986,0-2.4091015.0550079-14.9189005,1.1549988-24.6812205l.1179962-1.0392103-7.3470001-1.4131598.2470093,1.58637c.3410034,2.2004399.3410034,4.7472901.3410034,6.9950204,0,1.0274-.0470123,3.9638996-.0980072,7.0697002-.0509949,3.2396984-.1060028,6.5895996-.1060028,7.8255997,0,8.2468014.1370087,10.136198.9049988,12.6239986,1.053009,3.5900002,4.5460052,7.2154007,9.977005,7.2154007,7.3619995,0,14.1759949-5.1645012,20.2489929-15.3519001l.5370178-.9013996-4.934021-4.9559994-.6849976,1.4447002.0079956-.0079002Z"/>
  <path class="st0" d="M301.2409973,16.8745995c-1.8559875,0-3.5830078.4133015-4.7259827.7401009-1.4880066-1.9918003-2.7180176-3.6176004-4.3590088-5.4085999l-.5870056-.6377001-4.9649963,2.6294994,1.1860046,1.0825005c.9989929.9131994,2.1619873,2.0547991,3.8919983,4.1568003-1.4989929.7360992-2.8699951,1.4368-4.6990051,2.4366989-2.1889954-4.6961994-2.9440002-5.8927994-3.5589905-6.8650999l-.45401-.7124996-5.5570068,1.6218004,1.0450134,1.3186989c1.6569824,2.0902004,2.9609985,4.4402008,4.2179871,6.8769016-2.8039856,1.4012985-4.4880066,2.1806984-6.9660034,2.983799l-1.5979919.5156002,3.8999939,4.6370983.803009-.4408989c.2470093-.1337986.4459839-.2518997.6539917-.3699989.2579956-.1534996.5360107-.3110008.9550171-.5393009l.0469971-.0275002c.3880005-.2362003,1.6289978-.9329987,2.8280029-1.6099987.5090027-.2874012,1.0099792-.5708008,1.440979-.8149014,3.0110168,6.7588024,5.1060181,12.4783993,6.5630188,17.9146023l.3519897,1.3186989,5.2000122-2.5271988-.3910217-.9801025c-3.3559875-8.4043007-4.7659912-11.8957977-7.5189819-17.9854984,1.5780029-.8187008,3.5440063-1.8068008,5.4750061-2.7476006.0189819.0354996.0390015.0669994.0579834.0984993.6700134,1.1375999.7090149,1.2084007,1.25,2.6846008l.4460144,1.2202988,4.8829956-2.6373997-.5639954-1.0037994c-.6620178-1.177-1.0410156-1.775301-1.3390198-2.2005005.4970093-.1416988,1.0180054-.2321987,1.625-.2321987,2.0559998,0,4.1860046,1.2714996,4.1860046,3.3931999,0,1.3146992-.4110107,2.3814983-1.2179871,3.1687984-1.322998,1.2951012-3.7080078,1.905201-7.0870056,1.8147011l-1.7900085-.0512009,2.15802,4.8377991h.7279968c9.5429993,0,12.0879822-6.0777988,12.0879822-9.667799,0-4.3339996-3.9429932-7.9947987-8.6069946-7.9947987l.0039978.0038986Z"/>
  <path class="st0" d="M254.8179932,16.6039009l.4740143.7479992,4.0919952-2.8933001-.4039917-.6771002c-1.0920105-1.8303995-2.4510193-3.8733702-4.9810181-6.4162798l-.5049896-.5078001-3.9670105,2.83815.6070099.7046299c1.2529907,1.4563999,2.8159943,3.2672005,4.6799927,6.203701h.0039978Z"/>
  <path class="st0" d="M260.3269958,12.4734001l.4590149.8188,4.196991-2.9917002-.4259949-.6809998c-1.3320007-2.1138501-2.4750061-3.6805301-5.0050049-6.3809001l-.5169983-.5511-3.9860077,3.00741.6460114.68887c1.4140015,1.5076399,3.2229919,3.5624404,4.6319885,6.0857196v.0039005Z"/>
  <path class="st0" d="M343.8099976,33.592701c-.1170044-1.3187027-.2189941-2.4799004-.3129883-3.4995003-.2579956-2.8578014-.427002-4.7433014-.427002-5.2786999,0-1.5115013.3760071-2.0351009,1.8760071-3.3065014l1.0179749-.8620987-4.4049988-3.7475014-.7290039.6809998c-2.0950012,1.9525013-3.6959839,3.6963005-3.6959839,6.8297005,0,.6337013.2109985,2.8262997.5050049,5.8495007.0629883.6534004.125,1.287199.1759949,1.8342991-1.2449951-.2124996-2.6740112-.4289989-4.0100098-.4289989-5.9519958,0-9.1669922,3.5426998-9.1669922,6.8729,0,3.8537979,3.8649902,7.841301,10.3299866,7.841301,6.4650269,0,7.8480225-4.1174011,8.473999-6.9241028,2.0600281.9566002,3.3440247,1.6021004,5.3059998,2.7949028l1.1630249.7045975,2.1349792-5.778698-.8889771-.4566002c-1.7700195-.9132004-3.4500122-1.7792015-7.3470154-3.1294022v.0039024ZM337.9370117,38.2377014c0,2.5349998-2.2360229,2.7318001-2.9219971,2.7318001-2.3100281,0-4.9960022-1.0156021-4.9960022-2.3264008,0-.6809998,1.2369995-1.6651001,3.4769897-1.6651001,1.5270081,0,3.1170044.3189011,4.4370117.5983009v.6613998h.0039978Z"/>
  <path class="st0" d="M338.57901,14.493l.7980042-.1260004,1.1049805-6.4989796-1.7619934.5668402c-1.0299988.3306599-2.0880127.6691895-5.4200134,1.23209.4820251-1.32656.8420105-2.4248204,1.82901-5.5030804l.2890015-.9093099-6.0140076-3.145185-.2469788,1.5470051c-.5870056,3.6844698-1.5630188,6.8296496-2.2520142,8.9277197-.5599976.0355005-1.053009.0355005-1.9500122.0355005-3.3089905,0-4.6209717-.2835007-5.8779907-.6219902l-1.480011-.4015102.2550049,6.1054001.9980164.1259003c.8110046.1023998,2.0369873.2558994,4.3309937.2558994.2550049,0,.8500061-.0275993,1.802002-.0748005.0539856,0,.1090088-.0038986.1679993-.0078983-4.3110046,10.9352989-7.2520142,14.7575989-9.230011,17.3240986l-.9039917,1.177002,6.1239929,2.5113983.4900208-.8581009c3.9659729-6.9791985,7.039978-14.3481979,9.5309753-20.7132988,2.6590271-.3071003,5.9170227-.7124996,7.4170227-.9448004v-.0038996Z"/>
  <path class="st0" d="M344.5700073,9.94312l-.7279968-.22437-1.8410034,4.3969498.7949829.3228006c5.6750183,2.2909994,6.723999,2.7357988,10.428009,5.0031996l.7990112.4881001,2.3029785-4.8575001-.6739807-.3936996c-3.2030029-1.8657999-6.9309998-3.4601002-11.0820007-4.7354803Z"/>
  <path class="st0" d="M397.6929932,8.7305298l-4.8630066,2.6806698.7750244.8739004c1.2219849,1.3816996,2.4749756,2.8500004,4.3069763,5.5385008,1.2929993,1.8697987,1.6650085,2.8302994,1.6650085,4.2748985,0,.1142006,0,.3306999-.0279846.3819008,0,0-.1370239.1140995-.6690063.1140995-.2350159,0-1.8059998-.1022987-2.0370178-.1416988l-1.7579956-.2952003,2.855011,6.0186996.3209839.6574001.7130127-.1455994c3.4500122-.7164001,6.4330139-1.3305016,6.4330139-5.7747002s-2.7450256-7.9201002-7.223999-13.5766706l-.4860229-.6140699-.0039978.0078697Z"/>
  <path class="st0" d="M390.9970093,14.4454002c-1.4760132-1.3108006-3.2579956-1.9721003-5.2980042-1.9721003-1.0140076,0-1.9299927.1456003-3.3560181.4684.552002-2.9287004,1.0030212-4.7590799,1.5350037-6.2824697l.2820129-.8069601-6.355011-2.8971901-.1059875,1.32656c-.2980042,3.7553301-.552002,6.3887596-1.4410095,10.4905596-2.2009888.6534004-4.7460022,1.2516994-10.7019958,1.8540001l-1.3240051.1338005,2.6199951,5.4244003.6970215-.1299c2.6549988-.4960003,4.4759827-.9211006,7.1859741-1.6886997-3.9049988,12.2933979-7.6679993,16.6667004-10.1940002,19.5992985l-.7749939.8974991,5.6660156,2.9208031.4589844-.7046013c6.7390137-10.4000015,9.2290039-17.8358002,11.1210022-24.5158997,2.1690063-.6219006,3.0030212-.7399998,3.8760071-.7399998,1.4809875,0,3.4460144.5195999,3.4460144,4.9991989,0,4.1096001-.9550171,8.6049995-2.5570068,12.0336018-1.1470032,2.4483986-2.223999,2.9404984-3.5870056,2.9404984-.848999,0-1.6170044-.1221008-3.6570129-.4449005l-2.2789917-.3620987,2.4240112,6.1683006.5359802.0747986c1.4880066.2126007,2.0410156.2126007,2.6240234.2126007,3.7630005,0,6.4059753-1.4447021,8.0859985-4.4127007,1.9859924-3.5073013,3.9909973-9.8645992,3.9909973-16.1667995,0-1.3778-.2120056-6.0503006-2.9100037-8.4239006l-.0079956.0039005Z"/>
  <path class="st0" d="M434.7059937,19.2772999c-3.492981,0-6.5820007.7912998-11.3320007,2.0785007-7.7299805,2.0665989-8.6069946,2.2790985-11.7319946,2.8498993l-1.29599.2362003,3.0419922,5.3337994.7520142-.3069992c11.1679993-4.5505009,18.21698-5.7629013,20.6169739-5.7629013,5.3960266,0,6.5010071,5.7196007,6.5010071,7.2508011,0,.4920998-.1139832,4.8694-4.0489807,7.3964996-4.085022,2.6255989-9.9390259,2.9640999-13.4360046,3.1688004l-1.625.0945015,2.4989929,5.018898.6419983-.0668983c1.8789978-.2007027,3.1600037-.3976021,5.07901-.7833023,2.5609741-.531498,5.8769836-1.3619995,8.8299866-3.074398,4.7340088-2.7868996,6.4140015-8.2388992,6.4140015-12.0611019,0-7.1169987-5.5450134-11.3682995-10.9060059-11.3682995v-.0039997Z"/>
  <path class="st0" d="M482.9299927,39.2815018c-4.3459778,0-6.5509949-.9408035-6.5509949-2.7988014,0-1.2084007.2269897-1.8460999.4859924-2.4445l.3640137-.8542023-4.8130188-2.0980988-.3329773.9407997c-.9750061,2.7595024-1.1239929,4.5858994-1.1239929,5.4283028,0,4.5268974,4.3079834,7.124897,11.8190002,7.124897,3.2769775,0,6.4489746-.3069992,9.690979-.9367981l.65802-.1299019.776001-6.0659981-1.355011.389698c-3.3439941.9603996-6.57901,1.4486008-9.6180115,1.4486008v-.0039978Z"/>
  <path class="st0" d="M480.5620117,14.7924995l.6029968-.2283993v-5.8612604l-1.2730103.5117302c-1.6640015.6691904-3.5709839,1.3817301-6.9549866,2.1414299l.2859802-1.0471001c.7480164-2.7318697,1.026001-3.7553301,1.5550232-5.8849297l.1959839-.7833402-6.1950073-2.55079-.0549927,1.33051c-.1369934,3.36168-1.1440125,7.4004297-1.7940063,9.8842497-1.7149963.2244005-3.3869934.4211998-5.4700012.4211998-1.8759766,0-2.5569763-.0904999-3.4620056-.2439995l-1.2099915-.2047005.631012,5.7667999.8059998.0235996c2.7489929.0866013,4.8330078,0,7.1659851-.1613998-1.026001,3.1610012-2.3450012,7.0265007-4.5769958,12.1005001-2.6000061,5.9203987-4.4060059,8.5419998-6.1520081,11.0770988l-.8889771,1.2911034,6.0809937,1.5076981.3569946-.5668983c1.7109985-2.7161026,3.0270081-4.9794998,5.6740112-11.4549007,2.4899902-6.1564999,4.0759888-11.0573997,5.242981-14.7143002,2.1700134-.3621006,5.9840088-1.0510006,9.4370117-2.3618002l-.0029907.0078993Z"/>
  <path class="st0" d="M485.9339905,18.3047009c-2.2949829,0-6.1749878.3345985-8.1999817.5707989l-.7990112.0944004-.1600037,5.597599,1.322998-.3069992c1.2180176-.2835007,2.5970154-.6061993,6.3560181-.6061993,3.3209839,0,4.9499817.2242985,8.1569824.9013996l1.072998.2243996.2310181-5.4440994-.7360229-.1850014c-2.2679749-.5707989-4.6369934-.8462982-7.2489929-.8462982h.0039978Z"/>
  <path class="st0" d="M523.2290039,27.5466003l-1.0889893-.5904007c-1.9420166-1.0510998-4.4790039-2.6138-7.1539917-5.4597988,1.9379883-2.4288006,4.0180054-5.3024006,5.4279785-8.5381012l.2379761-.5471001-1.8399658-2.0902996h-5.1890259V3.4716001c.7520142-.6062,1.0690308-.94473,1.0690308-1.62573,0-1.283266-1.44104-1.464341-1.9140015-1.523387l-4.7270203-.2834205v10.2858372h-8.1919861v5.1921005h13.0159912c-2.1960144,3.2474995-6.7940063,8.9396-14.4410095,13.4545994l-1.2059937.7124996,4.8359985,3.6254025.5360107-.3346024c1.3469849-.838398,3.0229797-1.9956989,5.4509888-4.2118988v18.725399h5.571991v-20.1464996c1.2340088,1.2124004,2.8200073,2.4839001,5.1220093,3.8064995l.6229858.3582001,3.8610229-3.9599991Z"/>
  <path class="st0" d="M536.4219971,20.7369995h8.9050293v-5.3456993h-8.9050293V3.6726601c.6539917-.54322,1.0690308-.98016,1.0690308-1.7241402,0-.83058-.6350098-1.330505-1.9110107-1.4918979l-4.7340088-.456622v15.3873997h-9.6690063v5.3456001h9.6690063v18.6466999h-12.0610352v5.3456993h28.2220459v-5.3456993h-10.585022v-18.6466999.0039997Z"/>
  <path class="st0" d="M585.9619751,39.6637001h7.5490112V15.2343998h-34.8349609v24.4293003h6.7109985c-4.03302,2.074501-7.592041,2.9049988-10.8780518,3.4640007l-1.5149536.2598,3.9589844,5.207901.6030273-.1654015c4.1109619-1.1258011,8.8069458-2.5625992,12.7149658-5.3810005,1.1080322.0354004,1.9180298.0157013,2.4509888-.4999008.1960449-.1889992.427002-.5275002.427002-1.0550003,0-.570797-.3529663-1.1651993-.9439697-1.5587997l-.427002-.2715988h9.1829834l-1.7310181,1.6651001.8850098.6613007c4.1160278,3.0663986,8.1099854,4.9598007,13.7919922,6.5422974l.6190186.1732025,3.802002-5.1961021-1.4530029-.2715988c-4.2990112-.8069-7.8939819-1.9838982-10.9130249-3.5703011v-.0038986ZM587.7819824,32.8103981v1.9170036h-23.5849609v-1.9170036h23.5849609ZM587.7819824,26.4137001v1.7124004h-23.5849609v-1.7124004h23.5849609ZM587.7819824,20.1746006v1.6098995h-23.5849609v-1.6098995h23.5849609Z"/>
  <path class="st0" d="M590.6099854.861328h-29.1849976v11.8642722h29.1849976V.861328ZM566.9970093,8.2381401v-2.8460202h18.0410156v2.8460202h-18.0410156Z"/>
  <path class="st0" d="M634.3270264,39.2815018c-4.3470459,0-6.5510254-.9408035-6.5510254-2.7988014,0-1.2084007.2269897-1.8460999.4849854-2.4445l.3640137-.8542023-4.8120117-2.0980988-.3330078.9407997c-.9749756,2.7595024-1.1239624,4.5858994-1.1239624,5.4283028,0,4.5268974,4.3070068,7.124897,11.8179932,7.124897,3.2780151,0,6.4500122-.3069992,9.6920166-.9367981l.657959-.1299019.7750244-6.0659981-1.3550415.389698c-3.3439941.9603996-6.5779419,1.4486008-9.6169434,1.4486008v-.0039978Z"/>
  <path class="st0" d="M631.9580078,14.7924995l.6029663-.2283993v-5.8612604l-1.2729492.5117302c-1.6640015.6691904-3.5710449,1.3817301-6.9540405,2.1414299l.2860107-1.0471001c.7479858-2.7318697,1.026001-3.7553301,1.5540161-5.8849297l.1959839-.7833402-6.1950073-2.55079-.0549927,1.33051c-.1370239,3.36168-1.1430054,7.4004297-1.7929688,9.8842497-1.7150269.2244005-3.3870239.4211998-5.4710083.4211998-1.875,0-2.5570068-.0904999-3.4609985-.2439995l-1.210022-.2047005.6300049,5.7667999.8070068.0235996c2.7489624.0866013,4.8319702,0,7.1660156-.1613998-1.026001,3.1610012-2.3460083,7.0265007-4.5780029,12.1005001-2.6000366,5.9203987-4.4050293,8.5419998-6.1520386,11.0770988l-.8889771,1.2911034,6.0819702,1.5076981.3560181-.5668983c1.7109985-2.7161026,3.0269775-4.9794998,5.6740112-11.4549007,2.4909668-6.1564999,4.0769653-11.0573997,5.2440186-14.7143002,2.1689453-.3621006,5.9829712-1.0510006,9.4369507-2.3618002l-.0039673.0078993Z"/>
  <path class="st0" d="M637.3270264,18.3047009c-2.2950439,0-6.1760254.3345985-8.2000122.5707989l-.7990112.0944004-.1610107,5.597599,1.3240356-.3069992c1.2179565-.2835007,2.5959473-.6061993,6.355957-.6061993,3.3200073,0,4.9490356.2242985,8.1560059.9013996l1.072998.2243996.2310181-5.4440994-.7360229-.1850014c-2.2669678-.5707989-4.6359863-.8462982-7.2479858-.8462982h.0040283Z"/>
  <path class="st0" d="M678.0720215,21.0177002c-4.7540283,0-8.7410278,2.0153999-11.4980469,3.7434998.8619995-3.0074005,1.7900391-6.6683006,2.1780396-8.2625008,6.8839722-.948699,11.9549561-2.2122993,15.0249634-3.1175995l.6700439-.1968994v-6.2706404l-1.3000488.5707803c-2.1699829.9526-5.7139893,2.5114198-13.1109619,3.8340602.5169678-1.8934202,1.3789673-4.9362602,2.2949829-7.4673605l.3209839-.88569-5.9129639-2.1059749-.2120361,1.058895c-.1129761.5589701-.3719482,1.91702-.677002,3.4994599-.4459839,2.33428-.9909668,5.1566701-1.2799683,6.6052699-.2470093.0314999-.5059814.0433006-.9520264.0433006-3.367981,0-5.8029785-.2834005-9.1159668-.8070002l-1.3240356-.2086,1.1710205,5.7275.6810303.0669003c2.5929565.2558994,5.2439575.3109989,6.0469971.3109989.2269897,0,.7669678-.0275993,1.6289673-.0709.2070312-.0117989.4219971-.0235996.6340332-.0314999-1.9540405,7.821701-3.4970093,11.2581005-4.5350342,13.5727005l-.3599854.8031006,5.4199829,2.8656998.4769897-.5984001c1.2969971-1.6138992,2.092041-2.4917011,3.6700439-3.7396011,2.2319946-1.7752991,5.782959-3.8930988,10.0089722-3.8930988,3.3439941,0,6.8049927,2.176899,6.8049927,5.8179989,0,4.1962013-4.4790039,8.4279022-14.4879761,8.4279022-2.8790283,0-5.4320068-.4055023-6.6970215-.6495018l-1.5230103-.2912979,1.9899902,6.3768997.6690063.0117989c.6230469.011898,1.3550415.0196991,2.1730347.0196991,5.4509888,0,14.5910034-.5116997,19.59198-5.4598007,2.2940063-2.2712975,3.4570312-5.2274971,3.4570312-8.7938995,0-6.0855999-5.0120239-10.4982986-11.9200439-10.4982986l-.006958-.0079002Z"/>
</svg>