<svg width="254" height="20" viewBox="0 0 254 20" fill="none" xmlns="http://www.w3.org/2000/svg">
<g clip-path="url(#clip0_2569_6943)">
<path d="M15.64 14.7463C15.1657 16.6977 14.9803 16.6977 14.2933 16.6977H11.9624C11.2863 16.6977 11.2863 16.3919 11.2863 15.9333V13.0812H14.2033V1.74512H3.29594V13.0812H6.02756C5.52322 16.7255 2.93063 16.9924 0.523425 16.9507L0 16.9423L1.36854 19.0105L1.52938 18.9938C6.4065 18.5268 7.57603 15.7776 8.00949 13.084H9.36167V16.5337C9.36167 17.5372 9.54432 18.6074 11.7198 18.6074H14.2006C15.7382 18.6074 16.6651 18.6074 17.4011 15.7943L17.4502 15.608L15.7382 14.346L15.64 14.7463ZM12.2214 9.83714V11.2715H5.28332V9.83714H12.2214ZM5.28332 4.93356V3.61593H12.2214V4.93356H5.28332ZM5.28332 8.06363V6.70708H12.2214V8.06363H5.28332Z" fill="white"/>
<path d="M31.4241 8.00879C30.5681 8.00879 29.1232 8.13388 28.3708 8.22283L28.0736 8.25897L28.0137 10.3716L28.5071 10.2549C28.9597 10.1465 29.4722 10.0269 30.8734 10.0269C32.1084 10.0269 32.7163 10.1131 33.9104 10.3661L34.3084 10.4522L34.3956 8.39796L34.123 8.32847C33.2779 8.11442 32.3974 8.00879 31.4241 8.00879Z" fill="white"/>
<path d="M30.3069 15.9307C28.6876 15.9307 27.867 15.5749 27.867 14.8716C27.867 14.4157 27.9515 14.1739 28.0469 13.9487L28.1832 13.6262L26.3894 12.834L26.2667 13.1898C25.9041 14.2322 25.8496 14.9216 25.8496 15.2413C25.8496 16.9509 27.4526 17.9322 30.2496 17.9322C31.471 17.9322 32.6514 17.8154 33.8591 17.5791L34.1045 17.5319L34.3934 15.2413L33.8891 15.3886C32.6432 15.7528 31.4383 15.9363 30.3096 15.9363L30.3069 15.9307Z" fill="white"/>
<path d="M29.4262 6.68187L29.6498 6.59569V4.38296L29.1754 4.57755C28.5566 4.83051 27.845 5.09737 26.5856 5.38647L26.6919 4.98618C26.9699 3.95487 27.0735 3.57126 27.2698 2.76789L27.3434 2.47045L25.0371 1.50586L25.018 2.00901C24.9662 3.27938 24.5927 4.80271 24.3501 5.74229C23.7122 5.82846 23.0879 5.90074 22.3137 5.90074C21.6021 5.90074 21.3622 5.8646 21.0242 5.80901L20.5744 5.73395L20.8088 7.91054L21.1087 7.91888C22.131 7.94946 22.908 7.91888 23.7776 7.85772C23.3959 9.05026 22.9052 10.5097 22.0737 12.4277C21.106 14.6655 20.4326 15.6551 19.781 16.6113L19.4512 17.0978L21.7139 17.6677L21.8475 17.4536C22.4854 16.4279 22.9761 15.5717 23.9603 13.1282C24.8872 10.8043 25.4787 8.95297 25.9122 7.5714C26.7219 7.43519 28.1395 7.17389 29.4262 6.67909V6.68187Z" fill="white"/>
<path d="M44.2731 15.4078C43.2208 15.4078 39.7886 15.2854 39.7886 13.6926C39.7886 13.1033 40.3774 12.6029 41.1898 11.9135L41.5606 11.5994L40.0448 10.2012L39.8131 10.4208C38.4882 11.6745 37.6758 12.5112 37.6758 13.8677C37.6758 15.4133 38.7172 16.5225 40.6173 16.995C41.8714 17.2869 43.2154 17.4287 44.7311 17.4287C46.9475 17.4287 48.7713 17.298 50.4697 17.0173L50.7505 16.97L50.8323 14.4682L50.3988 14.5655C48.2642 15.0436 46.4568 15.4078 44.2758 15.4078H44.2731Z" fill="white"/>
<path d="M39.6353 4.99705C40.9438 5.27503 43.2202 5.45016 44.5751 5.45016C44.845 5.45016 45.104 5.4446 45.3521 5.43348C45.0495 5.6364 44.7332 5.85323 44.4388 6.0506C44.0053 6.34526 43.6318 6.59822 43.4574 6.71497L43.0893 6.95959L44.5669 8.37452L44.7986 8.19939C46.0936 7.22924 47.0723 6.56486 49.1714 5.23889L49.444 5.06654L48.4408 3.10122L48.1955 3.14292C46.816 3.36808 45.2103 3.44869 44.2534 3.44869C43.2965 3.44869 42.5905 3.40422 41.8844 3.29581C41.6336 3.26801 40.6385 3.10122 40.0415 3.00393L39.1582 2.85938L39.3872 4.94423L39.6326 4.99705H39.6353Z" fill="white"/>
<path d="M63.6344 15.836C61.7915 16.0723 59.6951 16.1223 59.3571 16.1223C57.8222 16.1223 56.4455 15.9444 56.4455 13.79C56.4455 12.0721 58.2175 11.0936 59.0654 10.6238C61.9169 9.08382 64.1415 8.34439 65.9271 7.74951L66.2079 7.65499L65.8453 5.29215L65.4282 5.48674C65.0384 5.67021 63.8253 6.21227 62.653 6.73766C61.7125 7.15741 60.7965 7.56882 60.3358 7.78008C60.1313 7.69113 60.0441 7.61886 59.9323 7.44929C59.5424 6.84607 59.3134 6.07606 59.2289 5.10035C59.2126 4.93078 59.1908 4.44709 59.1662 3.93839C59.1308 3.20174 59.0926 2.37057 59.0572 2.07591L59.019 1.74512L56.6009 1.90635L56.6527 2.3261C56.6691 2.46231 56.68 2.54014 56.7454 2.82646C56.7999 3.10722 56.8354 3.29069 56.8926 3.83553C57.0943 5.84256 57.2443 7.33809 58.3593 8.71132C57.8604 8.96706 57.1843 9.3479 56.5246 9.88162C55.8757 10.4209 54.3682 11.897 54.3682 13.9818C54.3682 14.8658 54.6789 16.1251 55.5486 17.0146C56.2901 17.7707 57.2415 18.2377 59.6951 18.2377C62.1487 18.2377 63.7244 18.0654 65.6545 17.8652L66.3115 17.7985V15.3161L65.889 15.4162C64.9757 15.6303 64.545 15.722 63.629 15.836H63.6344Z" fill="white"/>
<path d="M77.7782 2.73535C72.5439 2.73535 69.417 6.92175 69.417 10.9719C69.417 13.8741 71.159 16.6177 73.0046 16.6177C74.0842 16.6177 75.1174 15.4724 76.2542 13.0151C77.4292 10.5105 78.168 7.73623 78.4542 4.76461C79.2803 4.81187 80.03 4.97866 80.5861 5.23996C80.7006 5.29556 83.3832 6.64099 83.3832 9.92672C83.3832 11.6474 82.5571 13.4265 81.2758 14.4634C80.3053 15.2584 79.2639 15.6198 78.5742 15.8616L78.0617 16.0395L79.2966 17.9548L79.5583 17.8464C84.4682 15.8449 85.4987 12.4341 85.4987 9.92672C85.4987 5.75979 82.2545 2.73535 77.7809 2.73535H77.7782ZM76.2951 4.87858C76.1806 6.1434 75.8807 8.46732 74.7303 11.3416C73.5853 14.2132 73.1982 14.2132 72.9665 14.2132C72.5003 14.2132 71.3989 12.94 71.3989 10.933C71.3989 9.696 71.8051 8.5257 72.6393 7.35262C73.8552 5.65693 75.1392 5.13989 76.2951 4.87858Z" fill="white"/>
<path d="M98.9464 13.8002C98.9001 13.2804 98.8592 12.8217 98.8237 12.4214C98.7229 11.2928 98.6629 10.6145 98.6629 10.4088C98.6629 9.80837 98.8183 9.58876 99.3935 9.09396L99.707 8.82432L98.1749 7.50391L97.9513 7.71517C97.1553 8.4685 96.591 9.09118 96.591 10.2531C96.591 10.4894 96.67 11.3206 96.7791 12.4686C96.8064 12.7633 96.8336 13.0413 96.8554 13.2665C96.3702 13.1803 95.7977 13.0885 95.2688 13.0885C93.6413 13.0885 91.9102 13.9781 91.9102 15.6237C91.9102 17.0498 93.3305 18.5259 95.705 18.5259C98.0795 18.5259 98.6111 16.9414 98.8264 15.8628C99.6498 16.2492 100.14 16.4966 100.907 16.9692L101.264 17.1888L102.008 15.1428L101.735 15.0011C101.067 14.6508 100.435 14.32 98.9464 13.8002ZM95.7241 16.6245C94.9117 16.6245 93.7776 16.2575 93.7776 15.6626C93.7776 15.3207 94.331 14.9538 95.157 14.9538C95.7595 14.9538 96.3838 15.0844 96.8963 15.1956V15.5098C96.8963 16.5438 96.0021 16.6245 95.7268 16.6245H95.7241Z" fill="white"/>
<path d="M97.0463 6.40904L97.2917 6.37012L97.676 4.07956L97.1335 4.25747C96.7328 4.38812 96.3211 4.52155 94.9662 4.74949C95.168 4.18519 95.2961 3.7988 95.6941 2.53677L95.7841 2.25323L93.6795 1.13574L93.6031 1.61943C93.3769 3.05659 93.0007 4.27415 92.7417 5.07195C92.5072 5.08863 92.3191 5.08863 91.9565 5.08863C90.708 5.08863 90.2118 4.98022 89.7347 4.84957L89.2794 4.72448L89.3558 6.57583L89.383 6.87605L89.672 6.91219C89.9746 6.9511 90.4326 7.00948 91.2913 7.00948C91.3868 7.00948 91.6703 6.99558 91.962 6.98168C92.022 6.9789 92.0819 6.97612 92.1419 6.97334C90.498 11.2265 89.3803 12.6997 88.6306 13.6866L88.3525 14.0535L90.4953 14.9431L90.6452 14.6734C92.1392 12.0104 93.2924 9.19441 94.2302 6.76764C95.2334 6.65088 96.482 6.49522 97.049 6.40348L97.0463 6.40904Z" fill="white"/>
<path d="M98.5348 5.06634L98.235 4.97461L97.5234 6.70087L97.8506 6.8343C99.9961 7.71272 100.74 8.0324 102.101 8.87468L102.428 9.07761L103.317 7.17622L103.041 7.01221C101.615 6.16993 99.778 5.45552 98.5348 5.06634Z" fill="white"/>
<path d="M111.307 11.8415C110.508 14.7798 110.064 15.0383 109.993 15.0606C109.581 15.0606 107.97 13.4538 107.97 8.90328C107.97 7.3994 108.164 6.35419 108.267 5.79267L108.344 5.3757L106.005 4.62793L105.961 5.24505C105.92 5.81213 105.857 6.66553 105.857 7.88031C105.857 10.5156 106.138 12.5031 106.713 13.9514C106.724 13.9848 107.943 17.3317 109.958 17.3317C111.642 17.3317 112.632 14.4851 113.106 13.1175L113.183 12.8979L111.46 11.2884L111.31 11.8443L111.307 11.8415Z" fill="white"/>
<path d="M118.079 4.92024L117.926 4.74512L115.966 5.42061L116.252 5.80978C117.397 7.3637 118.673 9.36238 119.352 13.4042L119.42 13.8101L121.571 13.079L121.508 12.7732C121.255 11.5195 120.478 7.70283 118.076 4.92302L118.079 4.92024Z" fill="white"/>
<path d="M135.295 8.38603C135.352 8.1831 135.401 8.02743 135.505 7.72166L135.608 7.41588L133.643 6.52912L133.523 6.89883C133.493 6.98779 133.479 7.06284 133.411 7.3853C133.381 7.53541 133.337 7.73833 133.277 8.02187C133.196 8.01354 133.108 8.01076 132.997 8.01076C132.13 8.01076 131.315 8.15809 130.767 8.27762C130.794 7.90512 130.821 7.52429 130.848 7.08508L130.859 6.91829C132.536 6.69035 133.422 6.47074 135.603 5.93146L136.184 5.78691L136.361 3.50746L135.851 3.70483C134.294 4.30805 132.735 4.7139 131.099 4.93906C131.23 4.1496 131.421 3.34067 131.661 2.53175L131.764 2.18427L129.622 1.58105L129.551 1.95633C129.245 3.59642 129.12 4.38588 129.044 5.21149C127.861 5.23651 127.013 5.18925 126.094 5.05304L125.576 4.9752L126.113 7.04894L126.358 7.0684C126.846 7.10454 127.798 7.14623 128.335 7.14623C128.501 7.14623 128.643 7.14623 128.858 7.13512C128.809 7.74389 128.804 8.33877 128.804 8.95311C127.926 9.41178 127.321 9.76204 126.609 10.432C125.789 11.1742 124.409 12.7337 124.409 14.8296C124.409 16.1806 125.284 17.5789 126.746 17.5789C127.623 17.5789 128.618 17.2453 129.777 16.5615C129.834 16.7699 129.892 16.8978 129.998 17.0674L130.189 17.3704L131.906 16.2029L131.808 15.9388C131.653 15.5246 131.593 15.3328 131.56 15.1854C133.149 13.6427 134.185 11.3048 134.638 10.2068C135.401 10.4876 136.655 11.1047 136.655 12.7615C136.655 13.5982 136.342 14.332 135.696 15.0048C134.66 16.0611 133.427 16.3279 131.925 16.567L131.29 16.6671L132.983 18.5685L133.187 18.5129C134.117 18.2571 134.79 18.0514 135.649 17.5733C137.056 16.7977 138.73 15.355 138.73 12.8782C138.73 11.8135 138.386 10.8323 137.743 10.0456C136.925 9.02817 136.044 8.65011 135.3 8.38325L135.295 8.38603ZM132.694 9.87601C132.138 11.2353 131.609 12.0721 131.066 12.817C130.952 12.1749 130.827 11.3326 130.748 10.0984C131.481 9.92049 132.078 9.88157 132.694 9.87323V9.87601ZM128.839 10.9462C128.943 12.5863 129.142 13.6843 129.322 14.6628C128.872 15.0048 128.133 15.5246 127.37 15.5246C127.092 15.5246 126.446 15.444 126.446 14.699C126.446 14.1097 126.672 13.4369 127.111 12.7059C127.667 11.8135 128.256 11.3354 128.836 10.949L128.839 10.9462Z" fill="white"/>
<path d="M151.517 5.06634L151.217 4.97461L150.506 6.70087L150.833 6.8343C152.978 7.71272 153.723 8.0324 155.083 8.87468L155.41 9.07761L156.299 7.17622L156.024 7.01221C154.598 6.16993 152.76 5.45552 151.517 5.06634Z" fill="white"/>
<path d="M150.033 6.40904L150.278 6.37012L150.662 4.07956L150.12 4.25747C149.719 4.38812 149.307 4.52155 147.953 4.74949C148.154 4.18519 148.282 3.7988 148.68 2.53677L148.77 2.25323L146.666 1.13574L146.589 1.61943C146.363 3.05381 145.987 4.27415 145.728 5.07195C145.494 5.08863 145.305 5.08863 144.943 5.08863C143.694 5.08863 143.198 4.98022 142.721 4.84957L142.266 4.72448L142.342 6.57583L142.369 6.87605L142.658 6.91219C142.961 6.9511 143.419 7.00948 144.278 7.00948C144.373 7.00948 144.657 6.99558 144.948 6.98168C145.008 6.9789 145.068 6.97612 145.128 6.97334C143.484 11.2265 142.367 12.6997 141.617 13.6866L141.339 14.0535L143.482 14.9431L143.632 14.6762C145.126 12.0131 146.279 9.19719 147.216 6.77042C148.22 6.65366 149.468 6.49799 150.035 6.40626L150.033 6.40904Z" fill="white"/>
<path d="M151.932 13.8002C151.888 13.2859 151.847 12.8328 151.812 12.4381C151.711 11.3011 151.651 10.6145 151.651 10.4088C151.651 9.80837 151.807 9.58876 152.382 9.09396L152.695 8.82432L151.163 7.50391L150.94 7.71517C150.144 8.4685 149.577 9.09118 149.577 10.2531C149.577 10.4922 149.656 11.3261 149.767 12.477C149.795 12.7689 149.822 13.0413 149.844 13.2665C149.358 13.1803 148.786 13.0885 148.257 13.0885C146.63 13.0885 144.898 13.9781 144.898 15.6237C144.898 17.0498 146.319 18.5259 148.693 18.5259C151.068 18.5259 151.599 16.9414 151.815 15.8628C152.638 16.2492 153.129 16.4966 153.895 16.9692L154.252 17.1888L154.996 15.1428L154.724 15.0011C154.056 14.6508 153.423 14.32 151.935 13.8002H151.932ZM148.707 16.6245C147.894 16.6245 146.76 16.2575 146.76 15.6626C146.76 15.3207 147.314 14.9538 148.137 14.9538C148.74 14.9538 149.364 15.0844 149.876 15.1956V15.5098C149.876 16.5438 148.982 16.6245 148.707 16.6245Z" fill="white"/>
<path d="M169.099 15.9307C167.48 15.9307 166.659 15.5749 166.659 14.8716C166.659 14.4157 166.743 14.1739 166.839 13.9487L166.975 13.6262L165.184 12.834L165.059 13.1898C164.696 14.2322 164.642 14.9216 164.642 15.2413C164.642 16.9509 166.245 17.9322 169.042 17.9322C170.263 17.9322 171.443 17.8154 172.651 17.5791L172.896 17.5319L173.185 15.2413L172.681 15.3886C171.435 15.7528 170.23 15.9363 169.099 15.9363V15.9307Z" fill="white"/>
<path d="M170.217 8.00879C169.361 8.00879 167.916 8.13388 167.164 8.22283L166.867 8.25897L166.807 10.3716L167.3 10.2549C167.753 10.1465 168.265 10.0269 169.666 10.0269C170.901 10.0269 171.509 10.1131 172.703 10.3661L173.101 10.4522L173.189 8.39796L172.916 8.32847C172.074 8.11442 171.19 8.00879 170.217 8.00879Z" fill="white"/>
<path d="M168.215 6.68187L168.439 6.59569V4.38296L167.965 4.57755C167.346 4.83051 166.634 5.09737 165.375 5.38647L165.487 4.97228C165.762 3.94931 165.866 3.56848 166.062 2.76789L166.135 2.47045L163.829 1.50586L163.81 2.00901C163.758 3.28216 163.385 4.80549 163.142 5.74229C162.504 5.82846 161.88 5.90074 161.106 5.90074C160.394 5.90074 160.154 5.8646 159.816 5.80901L159.366 5.73395L159.601 7.91054L159.901 7.91888C160.923 7.95224 161.7 7.91888 162.57 7.85772C162.188 9.05026 161.694 10.5124 160.866 12.4277C159.898 14.6655 159.225 15.6551 158.573 16.6113L158.243 17.0978L160.506 17.6677L160.639 17.4536C161.277 16.4279 161.768 15.5717 162.752 13.1282C163.676 10.8099 164.268 8.95575 164.704 7.5714C165.514 7.43519 166.931 7.17389 168.218 6.67909L168.215 6.68187Z" fill="white"/>
<path d="M183.812 5.85058C184.109 5.89505 184.314 5.91173 184.807 5.91173C186.748 5.91173 188.152 5.91173 191.08 5.40581L191.38 5.35299L191.293 3.04297L190.851 3.19864C189.068 3.8241 187.225 3.99088 186.416 3.99088C184.963 3.99088 184.21 3.87135 183.758 3.80186L183.311 3.73236L183.545 5.81444L183.809 5.85336L183.812 5.85058Z" fill="white"/>
<path d="M179.78 11.8827C179.565 12.5471 179.409 13.0224 179.287 13.3894C179.199 12.6805 179.129 11.9439 179.129 11.046C179.129 9.95074 179.246 8.71929 179.483 7.27935C179.824 5.25287 180.162 4.37445 180.486 3.52382L180.609 3.20415L178.461 2.28125L178.174 3.85462C178.098 4.27715 178.06 4.4773 177.646 6.25638C177.406 7.35996 177.201 9.66998 177.201 11.299C177.201 13.9426 177.643 15.5382 178.458 17.5591L178.559 17.8093L180.244 17.5869L180.293 17.3395C180.792 14.8099 181.211 13.6646 181.519 12.9502L181.631 12.6889L179.922 11.4268L179.775 11.8855L179.78 11.8827Z" fill="white"/>
<path d="M187.081 14.654C185.636 14.654 184.81 14.4455 184.576 13.3447C184.548 13.2113 184.508 12.3662 184.508 12.1466V11.7324L182.621 12.0382V12.3412C182.643 16.2719 184.45 16.5748 187.005 16.5748C189.832 16.5748 190.92 16.3024 191.882 16.0634L192.146 15.9966V13.7228L191.691 13.8784C190.402 14.3176 189.243 14.654 187.081 14.654Z" fill="white"/>
<path d="M198.11 5.98227L198.269 6.22689L199.836 5.06215L199.681 4.83698C198.776 3.54159 197.996 2.62982 196.897 1.58739L196.717 1.41504L195.365 2.62982L195.575 2.8383C196.597 3.86127 197.358 4.80085 198.116 5.97949L198.11 5.98227Z" fill="white"/>
<path d="M211.156 10.7826V9.36767C211.301 9.40659 211.445 9.44272 211.595 9.48164L211.783 9.5289L212.628 8.18347L212.827 7.83877L212.437 7.75816C211.418 7.54689 209.354 7.1188 207.508 5.98742C208.272 5.28691 208.961 4.51412 209.73 3.25487L209.845 3.06862L209.12 2.32919H204.837C204.891 2.23468 204.927 2.16796 204.954 2.11237C205.262 2.07067 205.565 1.99284 205.565 1.64258C205.565 1.3924 205.398 1.309 205.18 1.19781L203.665 0.483398L203.55 0.733581C202.724 2.5071 201.756 3.78025 200.091 5.28135L199.851 5.49817L201.32 6.72407L201.494 6.56562C202.127 5.9902 202.948 4.98391 203.359 4.44463C203.828 5.15348 204.319 5.69276 204.613 5.99298C203.585 6.59342 201.552 7.66921 199.553 8.07228L199.128 8.15845L200.3 9.75128L200.486 9.69291C200.641 9.64287 200.816 9.58449 201.004 9.52056V10.7882H204.755V11.5665H201.402V13.2427H204.755V14.0405H200.472V15.7168H204.755V16.8231C202.261 16.8176 200.682 16.7314 199.943 15.9113C199.349 15.2358 199.349 14.6966 199.349 14.01V8.6894H195.129V10.5991H197.422V15.347C196.615 16.4006 195.303 17.3513 194.864 17.6682L194.605 17.8544L195.958 19.2805C196.034 19.3611 196.151 19.4862 196.347 19.4862C196.751 19.4862 196.786 19.1026 196.789 18.7523C197.154 18.3326 197.667 17.7849 198.122 17.3012C198.269 17.1428 198.414 16.9899 198.545 16.8481C198.856 17.2151 199.226 17.5347 199.633 17.7822C201.064 18.6745 202.143 18.6745 205.726 18.6745C205.984 18.6745 206.227 18.6689 206.462 18.6634C206.671 18.6578 206.873 18.655 207.08 18.655C208.018 18.6272 209.346 18.6078 210.518 18.5939L211.799 18.5772L212.792 16.3116L212.301 16.3839C211.066 16.5674 209.444 16.7564 206.682 16.8092V15.7195H211.153V14.0433H206.682V13.2455H210.586V11.5693H206.682V10.7909H211.153L211.156 10.7826ZM202.122 9.10637C202.928 8.79225 203.85 8.38918 204.758 7.90549V9.10637H202.122ZM205.586 7.4357C205.728 7.34953 205.87 7.26057 206.009 7.17162C206.164 7.28003 206.369 7.41346 206.622 7.56357L205.586 7.4357ZM206.682 9.10637V8.53651C207.05 8.39752 207.195 8.30856 207.195 8.03336C207.195 7.96665 207.181 7.91105 207.157 7.86101C207.893 8.24741 208.91 8.69218 210.248 9.10637H206.682ZM206.096 4.94499C205.796 4.66423 205.505 4.34177 205.243 4.00264H206.993C206.767 4.31398 206.505 4.59752 206.096 4.94499Z" fill="white"/>
<path d="M225.986 9.0895C224.62 9.0895 223.347 9.46756 222.069 9.92622V7.76631L222.14 7.75241C223.789 7.45219 224.541 7.31598 225.321 7.0936L225.591 7.01576L225.449 4.83083L225.029 4.96704C223.966 5.30896 223.154 5.54524 222.14 5.73427C222.167 5.0143 222.232 4.19148 222.464 2.8933L222.521 2.56807L219.956 1.92871L220 2.42074C220.106 3.64385 220.111 3.93573 220.095 6.02059C218.975 6.09287 218.26 6.09287 217.047 6.09287H216.543L217.339 8.2083H217.576C218.274 8.2083 219.274 8.12213 220.092 8.04707V10.8658C219.588 11.1327 218.568 11.6942 217.579 12.2362C216.554 12.8005 215.583 13.3315 215.204 13.5289L214.787 13.7457L216.505 15.5526L216.744 15.3969C216.933 15.2718 217.208 15.0911 217.306 15.0411C217.412 15.1106 217.682 15.3357 218.353 16.0752L218.388 16.1141C219.588 17.4317 220.147 17.8098 220.877 17.8098C222.115 17.8098 222.115 16.5922 222.115 16.0084C222.115 15.6971 222.107 14.7853 222.096 13.8569C222.088 13.0507 222.08 12.2307 222.077 11.7748C223.576 11.1132 224.879 10.8741 225.558 10.8741C225.583 10.8741 228.148 10.9019 228.148 13.3621C228.148 14.5602 227.36 15.4636 226.316 15.4636C225.839 15.4636 225.455 15.2718 224.964 15.0022L224.699 14.8576L223.514 16.4977L223.808 16.7034C224.364 17.0926 225.054 17.5763 226.24 17.5763C228.194 17.5763 230.168 16.3031 230.168 13.4566C230.168 10.4377 228.072 9.08394 225.994 9.08394L225.986 9.0895ZM220.09 12.959V14.7575C220.09 14.8409 220.09 14.9299 220.09 15.0077C219.852 14.8493 219.408 14.4518 218.855 13.8624C219.16 13.615 219.569 13.3148 220.09 12.959Z" fill="white"/>
<path d="M227.338 5.23604L227.082 5.12207L225.921 6.76216L226.333 6.92895C227.876 7.55996 228.786 8.24658 229.675 9.0833L229.977 9.36684L231.068 7.6517L230.833 7.45155C229.634 6.4258 228.753 5.86706 227.338 5.23326V5.23604Z" fill="white"/>
<path d="M240.786 5.93945C239.374 5.93945 238.055 6.45928 235.844 7.37661C234.895 7.76857 234.582 7.86308 233.641 8.13828L233.24 8.25503L234.325 10.4705L234.639 10.2954C236.798 9.09454 239.036 7.92424 240.631 7.92424C241.165 7.92424 241.689 8.17164 241.959 8.54692C242.299 9.04172 242.37 9.69776 242.37 10.162C242.37 13.3032 240.157 15.1934 239.208 15.8578C238.24 16.5166 237.597 16.7168 236.46 16.9864L235.95 17.1087L237.362 19.0657L237.605 18.9768C239.543 18.2596 240.407 17.7675 241.457 16.7779C243.357 14.9599 244.445 12.4859 244.445 9.98964C244.445 6.14238 241.394 5.94779 240.784 5.94779L240.786 5.93945Z" fill="white"/>
<path d="M241.375 4.38636C241.493 4.38636 241.612 4.38636 241.735 4.38636H242.079V2.33486L241.664 2.3293C240.446 2.30984 238.406 2.27648 236.152 1.55373L235.702 1.40918V3.47458L235.912 3.56631C237.199 4.13061 238.131 4.38914 241.375 4.38914V4.38636Z" fill="white"/>
<path d="M250.737 12.4727C248.938 12.4727 247.474 13.9654 247.474 15.8001C247.474 17.6348 248.938 19.1081 250.737 19.1081C252.536 19.1081 254 17.6236 254 15.8001C254 13.9765 252.536 12.4727 250.737 12.4727ZM250.737 17.6097C249.758 17.6097 248.959 16.798 248.959 15.7973C248.959 14.7966 249.755 13.9849 250.737 13.9849C251.718 13.9849 252.512 14.7966 252.512 15.7973C252.512 16.798 251.716 17.6097 250.737 17.6097Z" fill="white"/>
</g>
<defs>
<clipPath id="clip0_2569_6943">
<rect width="254" height="19" fill="white" transform="translate(0 0.477539)"/>
</clipPath>
</defs>
</svg>
