<svg width="422" height="31" viewBox="0 0 422 31" fill="none" xmlns="http://www.w3.org/2000/svg">
<g clip-path="url(#clip0_2531_1487)">
<path d="M25.9846 23.2808C25.1965 26.4647 24.8885 26.4647 23.7472 26.4647H19.8746C18.7513 26.4647 18.7513 25.9658 18.7513 25.2174V20.564H23.5977V2.06836H5.47593V20.564H10.0143C9.17638 26.5101 4.869 26.9455 0.869627 26.8774L0 26.8638L2.27371 30.2382L2.54094 30.211C10.6439 29.449 12.5869 24.9635 13.3071 20.5686H15.5536V26.1971C15.5536 27.8344 15.8571 29.5806 19.4715 29.5806H23.5932C26.1477 29.5806 27.6877 29.5806 28.9106 24.9907L28.9921 24.6868L26.1477 22.6277L25.9846 23.2808ZM20.3049 15.2711V17.6114H8.7778V15.2711H20.3049ZM8.7778 7.27056V5.12074H20.3049V7.27056H8.7778ZM8.7778 12.3775V10.1642H20.3049V12.3775H8.7778Z" fill="white"/>
<path d="M52.2091 12.2871C50.7869 12.2871 48.3864 12.4912 47.1363 12.6363L46.6426 12.6953L46.543 16.1423L47.3628 15.9518C48.1146 15.7749 48.9661 15.5799 51.2942 15.5799C53.346 15.5799 54.356 15.7205 56.3399 16.1332L57.0011 16.2738L57.1461 12.9221L56.6931 12.8087C55.2891 12.4595 53.8261 12.2871 52.2091 12.2871Z" fill="white"/>
<path d="M50.3527 25.2127C47.6623 25.2127 46.299 24.6321 46.299 23.4847C46.299 22.7408 46.4394 22.3463 46.5979 21.9789L46.8244 21.4528L43.8441 20.1602L43.6402 20.7407C43.0379 22.4415 42.9473 23.5663 42.9473 24.0879C42.9473 26.8772 45.6105 28.4782 50.2576 28.4782C52.2867 28.4782 54.2479 28.2877 56.2544 27.9022L56.662 27.8251L57.1421 24.0879L56.3042 24.3283C54.2343 24.9224 52.2323 25.2218 50.3572 25.2218L50.3527 25.2127Z" fill="white"/>
<path d="M48.8891 10.1228L49.2605 9.9822V6.37196L48.4724 6.68944C47.4443 7.10217 46.2621 7.53757 44.1696 8.00926L44.3462 7.35615C44.8082 5.67349 44.9803 5.0476 45.3065 3.73684L45.4287 3.25155L41.597 1.67773L41.5652 2.49866C41.4792 4.57137 40.8587 7.05681 40.4556 8.58981C39.3957 8.7304 38.3585 8.84833 37.0722 8.84833C35.89 8.84833 35.4915 8.78937 34.9298 8.69866L34.1825 8.5762L34.572 12.1275L35.0702 12.1411C36.7687 12.191 38.0596 12.1411 39.5044 12.0413C38.8703 13.987 38.055 16.3682 36.6736 19.4976C35.0657 23.1487 33.947 24.7633 32.8645 26.3235L32.3164 27.1172L36.0757 28.047L36.2977 27.6978C37.3575 26.0242 38.1728 24.6273 39.8079 20.6406C41.3478 16.8489 42.3307 13.8283 43.0509 11.5742C44.3961 11.3519 46.7513 10.9256 48.8891 10.1183V10.1228Z" fill="white"/>
<path d="M73.5556 24.3602C71.8073 24.3602 66.1049 24.1606 66.1049 21.5618C66.1049 20.6003 67.0833 19.7839 68.433 18.6591L69.049 18.1466L66.5307 15.8652L66.1457 16.2235C63.9445 18.269 62.5947 19.6342 62.5947 21.8475C62.5947 24.3693 64.3249 26.1789 67.4819 26.9499C69.5653 27.4262 71.7983 27.6575 74.3166 27.6575C77.9989 27.6575 81.029 27.4443 83.8508 26.9862L84.3173 26.9091L84.4532 22.8272L83.733 22.9859C80.1866 23.766 77.1836 24.3602 73.5602 24.3602H73.5556Z" fill="white"/>
<path d="M65.8512 7.3745C68.0253 7.82805 71.8073 8.11378 74.0583 8.11378C74.5067 8.11378 74.937 8.10471 75.3492 8.08657C74.8464 8.41766 74.321 8.77143 73.8319 9.09345C73.1117 9.57421 72.4912 9.98694 72.2013 10.1774L71.5899 10.5766L74.0447 12.8851L74.4297 12.5994C76.5812 11.0165 78.2072 9.93251 81.6947 7.76909L82.1477 7.48789L80.4809 4.28131L80.0732 4.34934C77.7814 4.71671 75.1137 4.84824 73.5239 4.84824C71.9341 4.84824 70.761 4.77567 69.5879 4.59879C69.1712 4.55343 67.518 4.28131 66.5261 4.12256L65.0586 3.88672L65.4391 7.28833L65.8467 7.3745H65.8512Z" fill="white"/>
<path d="M105.723 25.0587C102.661 25.4442 99.1784 25.5259 98.6168 25.5259C96.0668 25.5259 93.7795 25.2356 93.7795 21.7206C93.7795 18.9177 96.7235 17.3212 98.1321 16.5547C102.87 14.042 106.566 12.8356 109.532 11.865L109.999 11.7108L109.397 7.85563L108.704 8.17311C108.056 8.47246 106.04 9.35687 104.093 10.2141C102.53 10.8989 101.008 11.5702 100.243 11.9149C99.9031 11.7697 99.7581 11.6518 99.5724 11.3752C98.9248 10.391 98.5443 9.13464 98.4039 7.54268C98.3767 7.26602 98.3405 6.47684 98.2997 5.64685C98.2408 4.44495 98.1774 3.08884 98.1185 2.60808L98.0551 2.06836L94.0376 2.33142L94.1237 3.01627C94.1509 3.23851 94.169 3.36551 94.2777 3.83266C94.3683 4.29074 94.4272 4.59009 94.5223 5.47904C94.8574 8.75366 95.1066 11.1937 96.959 13.4343C96.1302 13.8515 95.0069 14.4729 93.9108 15.3437C92.8328 16.2236 90.3281 18.6319 90.3281 22.0335C90.3281 23.4758 90.8445 25.5304 92.2893 26.9817C93.5213 28.2154 95.102 28.9774 99.1784 28.9774C103.255 28.9774 105.873 28.6962 109.079 28.3696L110.171 28.2607V24.2106L109.469 24.3738C107.952 24.7231 107.236 24.8727 105.714 25.0587H105.723Z" fill="white"/>
<path d="M129.221 3.68359C120.525 3.68359 115.33 10.514 115.33 17.1222C115.33 21.8573 118.224 26.3338 121.291 26.3338C123.084 26.3338 124.801 24.4652 126.69 20.4558C128.642 16.3693 129.869 11.8429 130.345 6.99449C131.717 7.0716 132.963 7.34373 133.887 7.77006C134.077 7.86077 138.534 10.0559 138.534 15.4169C138.534 18.2243 137.161 21.127 135.033 22.8188C133.42 24.1159 131.69 24.7055 130.544 25.1001L129.693 25.3904L131.744 28.5153L132.179 28.3385C140.336 25.0729 142.048 19.5079 142.048 15.4169C142.048 8.6182 136.659 3.68359 129.226 3.68359H129.221ZM126.758 7.18045C126.567 9.24409 126.069 13.0358 124.158 17.7254C122.255 22.4106 121.612 22.4106 121.227 22.4106C120.453 22.4106 118.623 20.3333 118.623 17.0587C118.623 15.0404 119.298 13.131 120.684 11.217C122.704 8.45038 124.837 7.60678 126.758 7.18045Z" fill="white"/>
<path d="M164.391 21.7377C164.314 20.8896 164.246 20.1412 164.187 19.4881C164.02 17.6467 163.92 16.54 163.92 16.2044C163.92 15.2248 164.178 14.8665 165.134 14.0591L165.655 13.6192L163.11 11.4648L162.738 11.8095C161.416 13.0387 160.478 14.0546 160.478 15.9504C160.478 16.3359 160.609 17.6921 160.791 19.5652C160.836 20.046 160.881 20.4995 160.917 20.8669C160.111 20.7263 159.16 20.5766 158.281 20.5766C155.577 20.5766 152.701 22.028 152.701 24.713C152.701 27.0397 155.061 29.448 159.006 29.448C162.951 29.448 163.834 26.8628 164.192 25.103C165.56 25.7335 166.375 26.1371 167.648 26.9082L168.241 27.2665L169.478 23.9283L169.025 23.697C167.915 23.1256 166.864 22.5858 164.391 21.7377ZM159.038 26.3458C157.688 26.3458 155.804 25.7471 155.804 24.7765C155.804 24.2186 156.723 23.6199 158.096 23.6199C159.097 23.6199 160.134 23.8331 160.985 24.0145V24.527C160.985 26.2142 159.5 26.3458 159.042 26.3458H159.038Z" fill="white"/>
<path d="M161.234 9.67802L161.642 9.61453L162.28 5.87729L161.379 6.16756C160.713 6.38073 160.029 6.59843 157.778 6.97034C158.113 6.04964 158.326 5.41921 158.987 3.3601L159.137 2.89748L155.64 1.07422L155.513 1.86339C155.138 4.20823 154.513 6.19478 154.082 7.49646C153.693 7.52367 153.38 7.52367 152.778 7.52367C150.703 7.52367 149.879 7.34679 149.086 7.13362L148.33 6.92952L148.457 9.95015L148.502 10.44L148.982 10.4989C149.485 10.5624 150.246 10.6577 151.673 10.6577C151.831 10.6577 152.302 10.635 152.787 10.6123C152.886 10.6078 152.986 10.6033 153.086 10.5987C150.355 17.538 148.498 19.9418 147.252 21.5519L146.79 22.1506L150.35 23.6019L150.599 23.162C153.081 18.817 154.997 14.2226 156.555 10.2631C158.222 10.0726 160.296 9.81862 161.239 9.66895L161.234 9.67802Z" fill="white"/>
<path d="M163.708 7.48756L163.209 7.33789L162.027 10.1544L162.571 10.3721C166.135 11.8053 167.372 12.3269 169.632 13.7012L170.176 14.0323L171.652 10.93L171.195 10.6624C168.826 9.28815 165.773 8.12253 163.708 7.48756Z" fill="white"/>
<path d="M184.927 18.5411C183.6 23.3351 182.862 23.7569 182.744 23.7931C182.06 23.7931 179.383 21.1716 179.383 13.7471C179.383 11.2934 179.705 9.58802 179.877 8.67185L180.004 7.99153L176.118 6.77148L176.045 7.77836C175.977 8.7036 175.873 10.096 175.873 12.078C175.873 16.3776 176.34 19.6205 177.295 21.9835C177.313 22.0379 179.338 27.4986 182.685 27.4986C185.484 27.4986 187.128 22.8543 187.916 20.6228L188.043 20.2645L185.181 17.6385L184.932 18.5456L184.927 18.5411Z" fill="white"/>
<path d="M196.178 7.24863L195.925 6.96289L192.668 8.06501L193.144 8.69998C195.046 11.2353 197.166 14.4963 198.293 21.0909L198.407 21.7531L201.98 20.5603L201.876 20.0614C201.455 18.0159 200.164 11.7886 196.174 7.25316L196.178 7.24863Z" fill="white"/>
<path d="M224.781 12.9036C224.876 12.5725 224.957 12.3186 225.13 11.8197L225.302 11.3208L222.036 9.87394L221.837 10.4772C221.787 10.6223 221.764 10.7447 221.651 11.2709C221.601 11.5158 221.529 11.8469 221.429 12.3095C221.293 12.2959 221.148 12.2913 220.963 12.2913C219.522 12.2913 218.168 12.5317 217.258 12.7268C217.303 12.119 217.348 11.4976 217.394 10.781L217.412 10.5089C220.197 10.137 221.669 9.77869 225.293 8.89881L226.257 8.66296L226.552 4.94387L225.705 5.26589C223.119 6.25009 220.528 6.91227 217.81 7.27964C218.028 5.99156 218.345 4.67174 218.743 3.35192L218.915 2.78498L215.355 1.80078L215.238 2.41307C214.73 5.089 214.522 6.37708 214.395 7.72412C212.429 7.76494 211.021 7.68783 209.494 7.46559L208.634 7.3386L209.526 10.7221L209.934 10.7538C210.745 10.8128 212.325 10.8808 213.218 10.8808C213.494 10.8808 213.729 10.8808 214.087 10.8627C214.006 11.8559 213.997 12.8265 213.997 13.8289C212.538 14.5772 211.533 15.1487 210.35 16.2417C208.987 17.4527 206.695 19.9971 206.695 23.4169C206.695 25.6211 208.149 27.9025 210.577 27.9025C212.035 27.9025 213.689 27.3582 215.614 26.2425C215.709 26.5826 215.804 26.7913 215.98 27.0679L216.297 27.5623L219.151 25.6574L218.988 25.2265C218.73 24.5507 218.63 24.2378 218.576 23.9974C221.216 21.4802 222.937 17.6659 223.689 15.8744C224.957 16.3325 227.041 17.3393 227.041 20.0425C227.041 21.4077 226.52 22.605 225.447 23.7026C223.726 25.4261 221.678 25.8615 219.183 26.2516L218.127 26.4148L220.94 29.5171L221.28 29.4264C222.824 29.0091 223.943 28.6735 225.37 27.8934C227.707 26.628 230.488 24.2741 230.488 20.233C230.488 18.4959 229.917 16.8949 228.848 15.6113C227.489 13.9513 226.026 13.3345 224.79 12.8991L224.781 12.9036ZM220.46 15.3347C219.536 17.5525 218.657 18.9177 217.756 20.1332C217.566 19.0855 217.357 17.7112 217.226 15.6975C218.444 15.4072 219.436 15.3437 220.46 15.3301V15.3347ZM214.055 17.0808C214.228 19.7567 214.558 21.5483 214.857 23.1447C214.11 23.7026 212.882 24.5507 211.614 24.5507C211.152 24.5507 210.079 24.4192 210.079 23.2037C210.079 22.2422 210.455 21.1446 211.184 19.9518C212.108 18.4959 213.086 17.7158 214.051 17.0853L214.055 17.0808Z" fill="white"/>
<path d="M251.734 7.48756L251.236 7.33789L250.054 10.1544L250.597 10.3721C254.162 11.8053 255.398 12.3269 257.658 13.7012L258.202 14.0323L259.678 10.93L259.221 10.6624C256.852 9.28815 253.799 8.12253 251.734 7.48756Z" fill="white"/>
<path d="M249.266 9.67802L249.674 9.61453L250.312 5.87729L249.411 6.16756C248.745 6.38073 248.061 6.59843 245.81 6.97034C246.146 6.04964 246.358 5.41921 247.02 3.3601L247.169 2.89748L243.673 1.07422L243.546 1.86339C243.17 4.2037 242.545 6.19478 242.114 7.49646C241.725 7.52367 241.412 7.52367 240.81 7.52367C238.736 7.52367 237.911 7.34679 237.119 7.13362L236.362 6.92952L236.489 9.95015L236.534 10.44L237.014 10.4989C237.517 10.5624 238.278 10.6577 239.705 10.6577C239.863 10.6577 240.334 10.635 240.819 10.6123C240.919 10.6078 241.018 10.6033 241.118 10.5987C238.387 17.538 236.53 19.9418 235.284 21.5519L234.822 22.1506L238.382 23.6019L238.631 23.1665C241.113 18.8215 243.029 14.2271 244.587 10.2676C246.254 10.0771 248.329 9.82316 249.271 9.67349L249.266 9.67802Z" fill="white"/>
<path d="M252.423 21.7377C252.35 20.8986 252.283 20.1594 252.224 19.5153C252.056 17.6603 251.956 16.54 251.956 16.2044C251.956 15.2248 252.215 14.8665 253.17 14.0591L253.691 13.6192L251.146 11.4648L250.774 11.8095C249.452 13.0387 248.51 14.0546 248.51 15.9504C248.51 16.3405 248.641 17.7011 248.827 19.5788C248.872 20.055 248.917 20.4995 248.953 20.8669C248.147 20.7263 247.196 20.5766 246.317 20.5766C243.613 20.5766 240.737 22.028 240.737 24.713C240.737 27.0397 243.097 29.448 247.042 29.448C250.987 29.448 251.87 26.8628 252.228 25.103C253.596 25.7335 254.411 26.1371 255.684 26.9082L256.277 27.2665L257.514 23.9283L257.061 23.697C255.951 23.1256 254.9 22.5858 252.427 21.7377H252.423ZM247.065 26.3458C245.715 26.3458 243.831 25.7471 243.831 24.7765C243.831 24.2186 244.75 23.6199 246.118 23.6199C247.119 23.6199 248.156 23.8331 249.008 24.0145V24.527C249.008 26.2142 247.522 26.3458 247.065 26.3458Z" fill="white"/>
<path d="M280.944 25.2127C278.253 25.2127 276.89 24.6321 276.89 23.4847C276.89 22.7408 277.03 22.3463 277.189 21.9789L277.415 21.4528L274.439 20.1602L274.231 20.7407C273.629 22.4415 273.538 23.5663 273.538 24.0879C273.538 26.8772 276.201 28.4782 280.848 28.4782C282.878 28.4782 284.839 28.2877 286.845 27.9022L287.253 27.8251L287.733 24.0879L286.895 24.3283C284.825 24.9224 282.823 25.2218 280.944 25.2218V25.2127Z" fill="white"/>
<path d="M282.801 12.2871C281.379 12.2871 278.978 12.4912 277.728 12.6363L277.234 12.6953L277.135 16.1423L277.955 15.9518C278.706 15.7749 279.558 15.5799 281.886 15.5799C283.938 15.5799 284.948 15.7205 286.932 16.1332L287.593 16.2738L287.738 12.9221L287.285 12.8087C285.885 12.4595 284.418 12.2871 282.801 12.2871Z" fill="white"/>
<path d="M279.476 10.1228L279.848 9.9822V6.37196L279.06 6.68944C278.032 7.10217 276.849 7.53757 274.757 8.00926L274.943 7.33348C275.4 5.66442 275.572 5.04306 275.898 3.73684L276.021 3.25155L272.189 1.67773L272.157 2.49866C272.071 4.57591 271.45 7.06135 271.047 8.58981C269.987 8.7304 268.95 8.84833 267.664 8.84833C266.482 8.84833 266.083 8.78937 265.522 8.69866L264.774 8.5762L265.164 12.1275L265.662 12.1411C267.36 12.1955 268.651 12.1411 270.096 12.0413C269.462 13.987 268.642 16.3727 267.265 19.4976C265.657 23.1487 264.539 24.7633 263.456 26.3235L262.908 27.1172L266.668 28.047L266.889 27.6978C267.949 26.0242 268.765 24.6273 270.4 20.6406C271.935 16.858 272.918 13.8328 273.643 11.5742C274.988 11.3519 277.343 10.9256 279.481 10.1183L279.476 10.1228Z" fill="white"/>
<path d="M305.388 8.76638C305.882 8.83895 306.221 8.86616 307.041 8.86616C310.266 8.86616 312.599 8.86616 317.463 8.0407L317.961 7.95453L317.817 4.18555L317.083 4.43953C314.121 5.46002 311.059 5.73215 309.714 5.73215C307.299 5.73215 306.049 5.53712 305.298 5.42373L304.555 5.31035L304.944 8.70742L305.384 8.77092L305.388 8.76638Z" fill="white"/>
<path d="M298.69 18.6089C298.332 19.6929 298.074 20.4685 297.87 21.0671C297.725 19.9106 297.607 18.7087 297.607 17.2437C297.607 15.4567 297.802 13.4475 298.196 11.0982C298.762 7.79179 299.324 6.35858 299.863 4.97072L300.067 4.44914L296.498 2.94336L296.022 5.51044C295.895 6.19983 295.832 6.52639 295.144 9.42909C294.745 11.2297 294.405 14.9987 294.405 17.6565C294.405 21.9697 295.139 24.5731 296.493 27.8704L296.661 28.2785L299.46 27.9157L299.542 27.512C300.37 23.3848 301.068 21.5161 301.58 20.3505L301.765 19.9242L298.926 17.8651L298.681 18.6134L298.69 18.6089Z" fill="white"/>
<path d="M310.819 23.1301C308.419 23.1301 307.046 22.7899 306.657 20.9939C306.611 20.7762 306.543 19.3974 306.543 19.0391V18.3633L303.409 18.8622V19.3566C303.445 25.7697 306.448 26.2641 310.692 26.2641C315.389 26.2641 317.196 25.8196 318.795 25.4296L319.235 25.3207V21.6107L318.478 21.8647C316.336 22.5813 314.411 23.1301 310.819 23.1301Z" fill="white"/>
<path d="M329.145 8.98109L329.408 9.38021L332.012 7.47985L331.754 7.11247C330.25 4.99894 328.955 3.5113 327.129 1.8105L326.831 1.5293L324.584 3.5113L324.933 3.85146C326.631 5.52052 327.895 7.05351 329.154 8.97655L329.145 8.98109Z" fill="white"/>
<path d="M350.818 16.8137V14.5052C351.058 14.5687 351.298 14.6276 351.547 14.6911L351.859 14.7682L353.264 12.573L353.594 12.0106L352.946 11.8791C351.253 11.5344 347.824 10.836 344.757 8.99001C346.026 7.84707 347.172 6.58621 348.449 4.53164L348.639 4.22776L347.434 3.02132H340.319C340.409 2.86712 340.468 2.75827 340.514 2.66756C341.025 2.59952 341.528 2.47253 341.528 1.90106C341.528 1.49287 341.252 1.3568 340.889 1.17538L338.371 0.00976562L338.181 0.417959C336.809 3.31159 335.201 5.38884 332.433 7.838L332.035 8.19177L334.476 10.1919L334.766 9.93339C335.817 8.99455 337.18 7.35271 337.864 6.47282C338.643 7.62937 339.458 8.50925 339.947 8.99908C338.24 9.97875 334.861 11.734 331.541 12.3916L330.834 12.5322L332.782 15.1311L333.09 15.0358C333.348 14.9542 333.638 14.8589 333.951 14.7546V16.8228H340.183V18.0927H334.612V20.8276H340.183V22.1293H333.067V24.8642H340.183V26.6693C336.039 26.6602 333.416 26.5196 332.189 25.1817C331.201 24.0796 331.201 23.1997 331.201 22.0794V13.3985H324.19V16.5144H327.999V24.261C326.658 25.9799 324.48 27.5311 323.751 28.0481L323.32 28.352L325.567 30.6787C325.694 30.8102 325.888 31.0143 326.215 31.0143C326.885 31.0143 326.944 30.3884 326.948 29.8169C327.555 29.1321 328.407 28.2386 329.163 27.4494C329.408 27.1909 329.648 26.9414 329.865 26.7101C330.381 27.3088 330.997 27.8304 331.672 28.2341C334.05 29.6899 335.844 29.6899 341.795 29.6899C342.226 29.6899 342.629 29.6809 343.018 29.6718C343.367 29.6627 343.702 29.6582 344.046 29.6582C345.604 29.6128 347.81 29.5811 349.758 29.5584L351.887 29.5312L353.535 25.8348L352.72 25.9527C350.668 26.252 347.973 26.5605 343.385 26.6466V24.8687H350.813V22.1338H343.385V20.8321H349.871V18.0973H343.385V16.8273H350.813L350.818 16.8137ZM335.808 14.0788C337.148 13.5663 338.679 12.9087 340.187 12.1195V14.0788H335.808ZM341.564 11.353C341.8 11.2124 342.035 11.0673 342.266 10.9221C342.525 11.099 342.864 11.3167 343.285 11.5616L341.564 11.353ZM343.385 14.0788V13.149C343.997 12.9223 344.237 12.7771 344.237 12.3281C344.237 12.2193 344.214 12.1286 344.173 12.0469C345.396 12.6774 347.086 13.403 349.309 14.0788H343.385ZM342.411 7.28921C341.913 6.83113 341.428 6.30501 340.994 5.75168H343.901C343.526 6.25966 343.091 6.72227 342.411 7.28921Z" fill="white"/>
<path d="M375.457 14.0506C373.188 14.0506 371.073 14.6674 368.948 15.4158V11.8917L369.066 11.869C371.806 11.3792 373.056 11.1569 374.352 10.7941L374.8 10.6671L374.565 7.10223L373.867 7.32447C372.101 7.88233 370.751 8.26785 369.066 8.57626C369.111 7.40157 369.22 6.05907 369.605 3.941L369.7 3.41035L365.438 2.36719L365.511 3.16997C365.687 5.16558 365.696 5.6418 365.669 9.04341C363.808 9.16134 362.621 9.16134 360.605 9.16134H359.767L361.09 12.6128H361.484C362.644 12.6128 364.306 12.4722 365.665 12.3498V16.9488C364.827 17.3842 363.133 18.3003 361.489 19.1847C359.786 20.1054 358.173 20.9717 357.544 21.2937L356.851 21.6475L359.704 24.5956L360.103 24.3416C360.415 24.1375 360.873 23.8427 361.036 23.761C361.212 23.8744 361.661 24.2418 362.775 25.4482L362.834 25.5117C364.827 27.6616 365.755 28.2784 366.969 28.2784C369.025 28.2784 369.025 26.2918 369.025 25.3394C369.025 24.8314 369.012 23.3438 368.994 21.8289C368.98 20.5136 368.966 19.1757 368.962 18.4319C371.453 17.3524 373.618 16.9624 374.746 16.9624C374.787 16.9624 379.049 17.0077 379.049 21.0216C379.049 22.9764 377.74 24.4504 376.005 24.4504C375.212 24.4504 374.574 24.1375 373.758 23.6975L373.319 23.4617L371.349 26.1376L371.838 26.4733C372.762 27.1082 373.908 27.8974 375.878 27.8974C379.126 27.8974 382.405 25.8201 382.405 21.1758C382.405 16.2503 378.922 14.0415 375.471 14.0415L375.457 14.0506ZM365.66 20.364V23.2984C365.66 23.4345 365.66 23.5796 365.66 23.7066C365.266 23.4481 364.528 22.7995 363.608 21.838C364.116 21.4343 364.795 20.9445 365.66 20.364Z" fill="white"/>
<path d="M377.704 7.76408L377.278 7.57812L375.349 10.2541L376.033 10.5262C378.596 11.5557 380.109 12.676 381.585 14.0412L382.088 14.5038L383.9 11.7054L383.51 11.3789C381.518 9.70527 380.055 8.79363 377.704 7.75954V7.76408Z" fill="white"/>
<path d="M400.047 8.91211C397.701 8.91211 395.509 9.76024 391.835 11.257C390.259 11.8965 389.738 12.0507 388.176 12.4997L387.51 12.6902L389.312 16.3049L389.833 16.0192C393.421 14.0599 397.139 12.1504 399.789 12.1504C400.676 12.1504 401.546 12.5541 401.994 13.1664C402.561 13.9737 402.678 15.0441 402.678 15.8015C402.678 20.9266 399.001 24.0107 397.424 25.0947C395.817 26.1696 394.748 26.4962 392.859 26.9361L392.012 27.1357L394.358 30.3286L394.761 30.1835C397.982 29.0134 399.417 28.2106 401.161 26.5959C404.318 23.6297 406.125 19.5932 406.125 15.5203C406.125 9.2432 401.057 8.92572 400.042 8.92572L400.047 8.91211Z" fill="white"/>
<path d="M401.025 6.37703C401.22 6.37703 401.419 6.37703 401.623 6.37703H402.194V3.02985L401.505 3.02077C399.481 2.98903 396.093 2.9346 392.347 1.75538L391.6 1.51953V4.88939L391.948 5.03906C394.086 5.95976 395.635 6.38156 401.025 6.38156V6.37703Z" fill="white"/>
<path d="M416.579 19.5703C413.589 19.5703 411.157 22.0059 411.157 24.9993C411.157 27.9927 413.589 30.3965 416.579 30.3965C419.568 30.3965 422 27.9746 422 24.9993C422 22.024 419.568 19.5703 416.579 19.5703ZM416.579 27.9519C414.953 27.9519 413.626 26.6275 413.626 24.9947C413.626 23.362 414.948 22.0376 416.579 22.0376C418.209 22.0376 419.527 23.362 419.527 24.9947C419.527 26.6275 418.205 27.9519 416.579 27.9519Z" fill="white"/>
</g>
<defs>
<clipPath id="clip0_2531_1487">
<rect width="422" height="31" fill="white"/>
</clipPath>
</defs>
</svg>
