<svg width="292" height="93" viewBox="0 0 292 93" fill="none" xmlns="http://www.w3.org/2000/svg">
<path d="M278.604 1.02637H291.828L268.233 54.0491V91.7743H255.01V54.0491L231.675 1.15601H244.898L257.343 29.8064C259.158 34.0845 260.196 37.1959 260.714 39.1405C261.233 41.3444 261.492 42.3815 261.622 42.3815H261.881C261.881 42.3815 262.27 41.3444 262.788 39.0109C263.177 37.0663 264.344 33.9549 266.159 29.6768L278.604 1.02637Z" fill="white"/>
<path d="M227.306 91.7731H212.527L199.433 58.8445C199.174 58.9742 198.785 58.9742 198.266 58.9742H197.229H190.229V91.6434H177.005V0.895508H197.229C201.118 0.895508 204.748 1.67334 208.119 2.96974C211.49 4.39579 214.342 6.34038 216.805 8.93318C219.138 11.526 221.083 14.6373 222.639 18.2673C223.935 21.8972 224.713 25.916 224.713 30.3238C224.713 36.2872 223.416 41.3432 221.083 45.4916C218.62 49.7697 215.508 53.0107 211.619 55.3443L227.306 91.7731ZM190.618 47.1769H197.488C201.637 47.1769 205.008 45.7509 207.6 42.6396C210.193 39.6578 211.49 35.5094 211.49 30.3238C211.49 25.3974 210.193 21.3786 207.6 18.2673C205.008 15.2855 201.637 13.7299 197.488 13.7299H190.618V47.1769Z" fill="white"/>
<path d="M115.334 1.02637H167.32V13.9904H147.874V91.7743H134.65V13.9904H115.334V1.02637Z" fill="white"/>
<path d="M92.3102 1.02637H105.274L104.626 92.5521H93.6066L71.8271 42.9001C71.5678 42.6408 71.3085 41.8629 70.7899 40.6962C70.2714 39.5294 70.0121 38.6219 69.7528 37.8441C68.975 36.0291 68.3268 34.3438 67.8082 32.7881C67.549 32.2696 67.16 30.9732 66.3822 28.8989L65.8636 27.3433H65.4747L65.734 29.2879C65.734 29.8064 65.734 30.5843 65.9933 31.751C66.1229 33.0474 66.2526 33.9549 66.3822 34.7327C66.6415 37.1959 66.9008 39.9183 67.16 43.0297C67.4193 46.4003 67.5489 49.9006 67.5489 53.6602V92.0336H54.585V1.41529H65.6044L88.2913 52.623C88.8099 53.7898 89.4581 55.4751 90.3656 57.679C91.0138 59.3643 91.5323 60.7904 91.9212 61.9571C92.0509 62.4757 92.1805 62.9942 92.4398 63.5128C92.6991 64.161 92.8287 64.5499 92.9584 64.8092L93.3473 65.8463H93.7362L93.6066 63.9017C93.6066 63.7721 93.4769 63.1239 93.3473 61.8275C93.2177 60.5311 93.088 59.494 93.088 58.4568C92.8287 56.7715 92.6991 54.0491 92.5695 50.1599C92.3102 45.8818 92.3102 42.3815 92.3102 39.5294V1.02637Z" fill="white"/>
<path d="M13.6285 78.8103H41.89V91.7743H0.405273V1.02637H41.1122V13.9904H13.6285V38.1034H33.4634V50.5488H13.6285V78.8103Z" fill="white"/>
</svg>
