<svg width="177" height="56" viewBox="0 0 177 56" fill="none" xmlns="http://www.w3.org/2000/svg">
<path d="M168.851 0.0791016H176.832L162.591 32.0819V54.8516H154.61V32.0819L140.525 0.157347H148.507L156.018 17.4498C157.114 20.0319 157.74 21.9099 158.053 23.0836C158.366 24.4138 158.522 25.0397 158.6 25.0397H158.757C158.757 25.0397 158.992 24.4138 159.305 23.0053C159.539 21.8316 160.244 19.9537 161.339 17.3716L168.851 0.0791016Z" fill="white"/>
<path d="M137.889 54.8508H128.969L121.066 34.9762C120.909 35.0544 120.675 35.0544 120.362 35.0544H119.736H115.51V54.7725H107.529V0H119.736C122.083 0 124.274 0.469477 126.308 1.25194C128.343 2.11265 130.064 3.28635 131.551 4.85128C132.959 6.41621 134.133 8.29412 135.072 10.485C135.854 12.6759 136.324 15.1016 136.324 17.7619C136.324 21.3613 135.541 24.4129 134.133 26.9168C132.646 29.4989 130.768 31.4551 128.421 32.8635L137.889 54.8508ZM115.745 27.934H119.892C122.396 27.934 124.43 27.0733 125.995 25.1954C127.56 23.3957 128.343 20.8918 128.343 17.7619C128.343 14.7886 127.56 12.3629 125.995 10.485C124.43 8.68536 122.396 7.7464 119.892 7.7464H115.745V27.934Z" fill="white"/>
<path d="M70.3057 0.0791016H101.682V7.90375H89.9455V54.8516H81.9644V7.90375H70.3057V0.0791016Z" fill="white"/>
<path d="M56.4094 0.0791016H64.234L63.8428 55.3211H57.1918L44.0464 25.3527C43.8899 25.1962 43.7334 24.7267 43.4205 24.0225C43.1075 23.3183 42.951 22.7706 42.7945 22.3011C42.325 21.2056 41.9338 20.1884 41.6208 19.2495C41.4643 18.9365 41.2296 18.154 40.7601 16.9021L40.4471 15.9631H40.2123L40.3688 17.1368C40.3688 17.4498 40.3688 17.9193 40.5253 18.6235C40.6036 19.406 40.6818 19.9537 40.7601 20.4232C40.9166 21.9099 41.0731 23.553 41.2296 25.431C41.386 27.4654 41.4643 29.578 41.4643 31.8472V55.0081H33.6396V0.313843H40.2906L53.9837 31.2212C54.2967 31.9254 54.6879 32.9426 55.2357 34.2728C55.6269 35.29 55.9399 36.1507 56.1746 36.8549C56.2529 37.1679 56.3311 37.4809 56.4876 37.7939C56.6441 38.1851 56.7224 38.4199 56.8006 38.5764L57.0353 39.2023H57.2701L57.1918 38.0286C57.1918 37.9504 57.1136 37.5591 57.0353 36.7767C56.9571 35.9942 56.8788 35.3682 56.8788 34.7423C56.7224 33.7251 56.6441 32.0819 56.5659 29.7345C56.4094 27.1524 56.4094 25.0397 56.4094 23.3183V0.0791016Z" fill="white"/>
<path d="M8.91961 47.027H25.9773V54.8516H0.938477V0.0791016H25.5079V7.90375H8.91961V22.4576H20.8913V29.9692H8.91961V47.027Z" fill="white"/>
</svg>
