<svg width="236" height="183" viewBox="0 0 236 183" fill="none" xmlns="http://www.w3.org/2000/svg">
<path d="M52.305 20.1575C52.4754 19.5679 53.0985 17.7453 53.0985 17.7453L47.4943 16.1717C47.4943 16.1717 46.5804 18.2975 46.4059 19.1071C46.165 19.0822 45.9074 19.0697 45.5875 19.0697C43.0534 19.0697 40.6688 19.489 39.0611 19.8378C39.1442 18.7542 39.2189 17.6498 39.3062 16.3544L39.3353 15.9351C44.2374 15.2832 46.8296 14.6521 53.2107 13.1035L54.9098 12.6925L55.4249 6.15746L53.9294 6.72626C49.3721 8.45758 44.8106 9.62425 40.029 10.2678C40.4154 8.00918 40.9637 5.69245 41.6741 3.36326L41.9774 2.37097L35.7044 0.639648L35.5008 1.71913C34.6076 6.43148 34.2421 8.69839 34.0136 11.0566C30.5489 11.1272 28.0687 10.9902 25.385 10.5999L23.8687 10.3799L25.4432 16.3253L26.1619 16.3793C27.7447 16.4956 30.5032 16.6035 31.9489 16.6035C32.4308 16.6035 32.8504 16.6035 33.4818 16.5703C33.3364 18.3182 33.3198 20.0246 33.3198 21.7892C30.7524 23.1053 28.9785 24.1059 26.8972 26.0282C24.4919 28.1581 20.458 32.6297 20.458 38.6415C20.458 42.5152 23.0129 46.5218 27.2919 46.5218C29.8634 46.5218 32.7756 45.5668 36.1614 43.603C36.3275 44.2009 36.4978 44.5704 36.8053 45.0561L37.3619 45.928L42.3887 42.5816L42.0979 41.826C41.6326 40.6137 41.4623 40.0656 41.3667 39.6629C46.0154 35.237 49.0481 28.5359 50.3733 25.3888C52.6042 26.1943 56.2766 27.9588 56.2766 32.7127C56.2766 35.1083 55.3543 37.2175 53.4683 39.1439C50.4356 42.1748 48.7489 42.8141 44.3578 43.4992L46.1317 49.2038C48.8528 48.469 50.822 47.8836 53.3353 46.5134C57.4481 44.2881 62.346 40.1487 62.346 33.0448C62.346 29.9891 61.3449 27.1783 59.4546 24.9238C57.0576 22.0092 54.4861 20.9173 52.305 20.1533V20.1575ZM44.6985 24.4256C43.0741 28.32 41.5204 30.724 39.9376 32.8622C39.597 31.0229 39.2355 28.6065 38.9988 25.065C41.1465 24.5543 42.8955 24.4464 44.6985 24.4214V24.4256ZM33.4153 27.498C33.7228 32.202 34.3044 35.3533 34.8278 38.1558C33.5109 39.1356 31.3465 40.6261 29.1198 40.6261C28.3055 40.6261 26.4153 40.3936 26.4153 38.2554C26.4153 36.5615 27.0717 34.6309 28.3637 32.5383C29.988 29.9766 31.7121 28.6107 33.4112 27.5021L33.4153 27.498Z" fill="white"/>
<path d="M148.56 15.2662L149.216 15.0212V8.67306L147.829 9.22941C146.018 9.95183 143.94 10.7241 140.251 11.5503L140.563 10.4085C141.377 7.45242 141.681 6.34803 142.254 4.04375L142.466 3.19262L135.719 0.431641L135.661 1.87233C135.511 5.50935 134.415 9.8854 133.704 12.58C131.835 12.8249 130.011 13.0367 127.743 13.0367C125.699 13.0367 124.955 12.937 123.975 12.7751L122.658 12.555L123.343 18.7994L124.224 18.8243C127.215 18.9157 129.488 18.8243 132.034 18.65C130.917 22.0711 129.479 26.2603 127.045 31.7574C124.207 38.172 122.242 41.0118 120.34 43.7603L119.376 45.1554L125.998 46.7912L126.388 46.1767C128.25 43.2331 129.687 40.7835 132.57 33.771C135.283 27.1031 137.011 21.7929 138.282 17.832C140.646 17.4418 144.796 16.6944 148.564 15.2745L148.56 15.2662Z" fill="white"/>
<path d="M151.145 41.788C146.409 41.788 144.008 40.7667 144.008 38.753C144.008 37.441 144.257 36.7518 144.535 36.1041L144.934 35.1783L139.691 32.9072L139.33 33.9244C138.266 36.9138 138.108 38.89 138.108 39.8034C138.108 44.7068 142.803 47.5176 150.983 47.5176C154.555 47.5176 158.012 47.1854 161.543 46.5004L162.262 46.3634L163.105 39.7951L161.626 40.2186C157.983 41.2607 154.456 41.788 151.149 41.788H151.145Z" fill="white"/>
<path d="M154.413 19.0693C151.912 19.0693 147.683 19.4305 145.481 19.6838L144.613 19.7835L144.438 25.8452L145.884 25.513C147.209 25.2058 148.713 24.857 152.805 24.857C156.42 24.857 158.193 25.102 161.691 25.8327L162.859 26.0777L163.112 20.1862L162.31 19.9869C159.839 19.3683 157.259 19.0693 154.413 19.0693Z" fill="white"/>
<path d="M215.515 37.0794C211.714 35.128 209.138 34.1939 206.529 33.3469C206.072 27.2603 205.985 22.3196 205.977 18.2341C209.159 17.7401 211.049 17.3623 212.736 17.0218L214.102 16.7478L213.845 10.0218L212.453 10.6944C211.219 11.2881 209.574 12.0811 206.072 12.8035C206.213 10.9269 206.492 7.74242 207.119 4.8984L207.327 3.95593L200.888 2.22461L200.796 3.44525C200.601 6.07337 200.269 10.6653 200.115 13.6879C199.218 13.7252 198.22 13.7543 196.592 13.7543C193.102 13.7543 191.889 13.4927 189.874 13.0568L188.412 12.7412L189.521 19.2264L190.331 19.268C192.512 19.3759 196.418 19.3219 200.073 19.0271C200.094 21.4726 200.198 23.2703 200.539 29.1203L200.713 32.1511C199.317 31.9311 197.801 31.8148 196.255 31.8148C189.584 31.8148 186.597 35.4934 186.597 39.1429C186.597 42.6014 189.488 46.637 197.643 46.637C205.154 46.637 206.413 42.5889 206.749 39.421C208.203 40.0189 210.015 40.8866 213.243 42.8878L214.348 43.5729L216.271 37.4738L215.511 37.0835L215.515 37.0794ZM200.314 40.7704C199.87 41.2312 199.031 41.4554 197.759 41.4554C194.648 41.4554 192.118 40.268 192.118 38.8107C192.118 37.9056 193.077 36.9424 195.765 36.9424C196.912 36.9424 198.765 37.2123 200.929 37.6856C200.954 39.1304 200.871 40.2016 200.318 40.7745L200.314 40.7704Z" fill="white"/>
<path d="M181.537 30.2377C181.346 30.6488 180.744 31.9068 180.133 33.1814C179.942 31.4418 179.809 29.424 179.809 26.5094C179.809 20.1487 180.81 14.0663 183.261 5.5093L183.532 4.57514L177.707 2.66113L177.433 3.69494C175.314 11.6374 174.238 19.4429 174.238 26.8955C174.238 32.2763 174.891 40.2852 176.718 46.6251L176.988 47.5634L181.488 46.4382L181.604 45.5747C181.803 44.0592 181.949 42.9631 183.295 39.4507C184.175 37.1589 184.919 35.6476 185.459 34.5473C185.588 34.2816 185.708 34.0408 185.812 33.8166L186.103 33.2063L182.19 28.851L181.542 30.2377H181.537Z" fill="white"/>
<path d="M95.6186 15.1584L96.4661 15.0255L97.6376 8.17914L95.7682 8.77701C94.6797 9.12577 93.5581 9.48283 90.0227 10.0765C90.5296 8.67737 90.9159 7.52315 91.9587 4.27641L92.2661 3.31733L85.8892 0L85.6275 1.62753C85.0043 5.5095 83.9699 8.82683 83.2387 11.0356C82.6447 11.073 82.1212 11.073 81.174 11.073C77.6678 11.073 76.2761 10.774 74.9426 10.417L73.3722 9.9935L73.6423 16.4289L74.7016 16.5617C75.5615 16.6697 76.8618 16.8316 79.2921 16.8316C79.5622 16.8316 80.1936 16.8025 81.2031 16.7527C81.2613 16.7527 81.3194 16.7486 81.3818 16.7444C76.8078 28.2699 73.6921 32.2972 71.5983 35.0042L70.6387 36.2457L77.1319 38.8945L77.6512 37.9894C81.8553 30.6323 85.1165 22.8684 87.7586 16.1548C90.5753 15.831 94.0317 15.4075 95.6186 15.1584Z" fill="white"/>
<path d="M101.163 35.2867C101.038 33.9 100.93 32.671 100.831 31.5999C100.557 28.5898 100.378 26.601 100.378 26.0364C100.378 24.4421 100.777 23.894 102.368 22.553L103.444 21.6437L98.7743 17.6953L98.0016 18.4136C95.779 20.4729 94.0799 22.308 94.0799 25.6087C94.0799 26.2772 94.3043 28.5856 94.6158 31.7742C94.6823 32.4593 94.7488 33.1319 94.8028 33.709C93.4817 33.4848 91.9654 33.2564 90.5529 33.2564C84.2425 33.2564 80.8359 36.989 80.8359 40.5014C80.8359 44.5619 84.9321 48.7636 91.7867 48.7636C98.6414 48.7636 100.108 44.4249 100.773 41.4688C102.958 42.4777 104.316 43.1586 106.397 44.4166L107.631 45.1598L109.895 39.069L108.952 38.5874C107.075 37.6242 105.297 36.7149 101.163 35.2867ZM94.9399 40.1817C94.9399 42.8555 92.5677 43.0631 91.8407 43.0631C89.3897 43.0631 86.544 41.9919 86.544 40.6094C86.544 39.8911 87.8567 38.8531 90.233 38.8531C91.8532 38.8531 93.5357 39.1894 94.9399 39.4842V40.1817Z" fill="white"/>
<path d="M101.969 10.3636L101.197 10.127L99.2441 14.7604L100.087 15.1009C105.991 17.4716 107.225 17.9906 111.142 20.3737L111.99 20.8885L114.432 15.7693L113.718 15.3541C110.32 13.3862 106.369 11.7088 101.974 10.3636H101.969Z" fill="white"/>
<path d="M36.8963 82.2566C34.3408 83.1631 30.0625 84.6815 24.1984 86.2565C23.6564 86.3925 23.086 86.5398 22.5156 86.6871C25.7214 83.0441 30.2393 78.4322 31.3745 77.4634C32.9717 76.0866 33.2113 75.86 33.873 74.9648L34.4206 74.2226L30.4275 69.5371L29.6974 69.7467C22.4928 71.826 18.7678 72.3246 10.6505 72.268L8.77941 72.2566L11.8883 78.7608L12.704 78.6872C16.7142 78.3359 20.9412 77.5994 23.9645 76.9761C23.8162 77.1405 23.6507 77.3218 23.4625 77.5257C19.9258 81.3274 18.8819 82.4605 16.2978 85.2594L13.8164 87.9506C12.6926 89.112 12.3389 89.435 10.7874 89.8316C8.40863 90.4208 4.95748 91.2083 2.3848 91.265L0.804688 91.299L3.14348 98.4434L4.28436 98.0355C6.34364 97.3046 7.16507 97.0497 8.19186 96.7437C9.4126 96.3698 12.8238 95.4066 16.429 94.3811C18.5168 93.7919 20.6331 93.1913 22.4756 92.6644C19.4238 95.7352 16.332 99.8882 16.332 104.806C16.332 111.061 20.2281 115.14 27.2901 116.285C29.5034 116.653 31.3288 116.761 33.8502 116.914L35.3105 117.004V110.387L34.1183 110.404C30.8725 110.455 29.7772 110.404 28.2542 110.154C24.2839 109.508 22.2703 107.848 22.2703 105.22C22.2703 100.817 26.0979 96.9193 27.9347 95.0497L28.1059 94.874C32.5667 90.4435 34.6431 89.4916 35.4816 89.316L35.7497 89.265C36.902 89.0384 37.5352 88.9137 38.9157 88.5058L39.9025 88.2169L38.8301 81.5767L36.8963 82.2622V82.2566Z" fill="white"/>
<path d="M85.6226 98.0115C83.9683 101.145 80.8993 106.986 76.7865 106.986C75.8738 106.986 75.058 106.833 75.058 104.952C75.058 104.731 75.0752 103.547 75.3604 101.785L75.3718 101.722C76.1533 97.0086 76.2731 96.2834 76.2731 94.7254C76.2731 91.7906 74.693 88.3685 70.2435 88.3685C67.4427 88.3685 64.6133 89.6716 61.8638 91.3656C64.2825 85.8416 67.6823 79.3487 70.3633 74.6915L70.9623 73.6547L64.4707 70.1533L63.0617 73.6717C62.0292 76.2553 61.4645 77.6773 60.7172 79.3657C59.3881 82.4365 54.3169 93.7565 50.6148 102.023C48.8635 105.938 47.3804 109.241 46.6787 110.822L46.1768 111.943L52.2348 114.249L52.6798 113.224C56.7013 103.96 57.654 101.898 60.586 98.986C61.6413 97.9378 65.315 94.5214 68.4467 94.5214C69.5476 94.5214 70.1238 95.2296 70.1238 95.9208C70.1123 96.2721 69.7815 98.2041 69.6104 99.0483C69.1825 101.739 68.9601 104.079 68.9601 104.997C68.9601 109.921 71.7951 112.98 76.3644 112.98C78.5092 112.98 80.6712 112.266 82.9757 110.799C86.6836 108.38 88.4919 105.513 90.0834 102.98L90.5397 102.255L86.541 96.2608L85.6169 98.0115H85.6226Z" fill="white"/>
<path d="M121.931 83.0835L122.764 82.9532L123.916 76.2507L122.074 76.8343C121.001 77.1742 119.895 77.5255 116.415 78.1034C116.917 76.7323 117.293 75.6048 118.32 72.4264L118.622 71.4916L112.342 68.2451L112.085 69.8428C111.469 73.6445 110.454 76.8853 109.735 79.0552C109.147 79.0892 108.634 79.0892 107.699 79.0892C104.242 79.0892 102.873 78.8003 101.561 78.449L100.015 78.0354L100.283 84.33L101.327 84.4603C102.177 84.5679 103.454 84.7266 105.85 84.7266C106.118 84.7266 106.74 84.6983 107.733 84.6473C107.79 84.6473 107.847 84.6416 107.91 84.6359C103.409 95.9163 100.334 99.8596 98.2692 102.511L97.3223 103.724L103.717 106.313L104.225 105.423C108.366 98.2222 111.578 90.6246 114.179 84.0524C116.957 83.7351 120.357 83.3215 121.92 83.0779L121.931 83.0835Z" fill="white"/>
<path d="M127.39 102.783C127.27 101.424 127.162 100.223 127.065 99.1744C126.797 96.2282 126.62 94.2792 126.62 93.7297C126.62 92.1716 127.013 91.6334 128.582 90.3189L129.643 89.4294L125.045 85.5654L124.281 86.268C122.096 88.285 120.419 90.081 120.419 93.3104C120.419 93.962 120.636 96.2226 120.95 99.3444C121.018 100.019 121.081 100.67 121.138 101.237C119.837 101.016 118.343 100.795 116.951 100.795C110.733 100.795 107.379 104.449 107.379 107.888C107.379 111.866 111.412 115.979 118.166 115.979C124.92 115.979 126.357 111.735 127.013 108.834C129.164 109.82 130.504 110.489 132.552 111.718L133.767 112.449L135.998 106.489L135.068 106.019C133.22 105.078 131.469 104.183 127.396 102.789L127.39 102.783ZM121.263 107.577C121.263 110.194 118.93 110.398 118.212 110.398C115.799 110.398 112.998 109.35 112.998 107.996C112.998 107.293 114.293 106.279 116.631 106.279C118.229 106.279 119.883 106.608 121.263 106.897V107.577Z" fill="white"/>
<path d="M177.698 95.8373C178.582 97.384 179.261 99.2254 179.261 101.339C179.261 106.415 175.022 110.245 169.398 110.245C163.773 110.245 161.543 106.353 161.543 102.704C161.543 101.633 161.663 100.228 161.817 99.0384C163.739 99.0101 167.39 98.8685 172.13 98.0866L172.969 97.9449L174.064 90.7552L172.273 91.3104C170.59 91.8317 167.578 92.7608 162.553 92.9931C162.57 92.9082 162.581 92.8175 162.598 92.7325C162.855 91.1745 163.117 89.5654 163.688 86.4549C165.456 86.3473 167.584 86.1377 172.524 85.2312L173.414 85.0669L173.938 78.3077L172.244 78.8913C170.333 79.5541 168.32 80.1717 164.988 80.4946C165.661 77.0782 166.329 74.3077 167.224 72.0868L167.704 70.9027L159.444 68.4551L159.472 70.0471C159.518 72.6533 159.176 74.8573 158.337 80.1717L158.286 80.5116C156.54 80.336 154.173 79.9791 150.396 78.7723L148.908 78.2964L148.736 84.3246L149.484 84.6306C151.612 85.5088 153.557 86.0697 157.253 86.3983C156.985 88.1886 156.534 90.9535 156.226 92.8175C154.024 92.6589 151.914 92.2339 150.06 91.5767L148.491 91.0215V97.7636L149.735 98.0186C151.041 98.2906 152.501 98.5908 155.382 98.8345C155.302 99.8883 155.2 101.276 155.2 102.585C155.2 103.684 155.382 107.537 157.727 110.999C160.761 115.463 166.22 116.126 169.21 116.126C178.416 116.126 185.906 109.463 185.906 101.271C185.906 97.639 184.566 94.5852 183.077 92.2793L177.715 95.8203L177.698 95.8373Z" fill="white"/>
<path d="M231.092 98.0115C229.438 101.145 226.369 106.986 222.256 106.986C221.344 106.986 220.528 106.833 220.528 104.952C220.528 104.731 220.545 103.547 220.83 101.785L220.842 101.722C221.623 97.0086 221.743 96.2834 221.743 94.7254C221.743 91.7906 220.163 88.3685 215.713 88.3685C212.912 88.3685 210.083 89.6716 207.334 91.3656C209.752 85.8416 213.152 79.3487 215.833 74.6915L216.432 73.6547L209.94 70.1533L208.531 73.6717C207.499 76.2553 206.934 77.6773 206.187 79.3657C204.858 82.4365 199.787 93.7565 196.084 102.023C194.333 105.938 192.85 109.241 192.148 110.822L191.646 111.943L197.705 114.249L198.149 113.224C202.171 103.96 203.124 101.898 206.056 98.986C207.111 97.9378 210.79 94.5271 213.916 94.5271C215.017 94.5271 215.593 95.2353 215.593 95.9265C215.582 96.2778 215.251 98.2098 215.08 99.054C214.652 101.745 214.43 104.085 214.43 105.003C214.43 109.926 217.265 112.986 221.834 112.986C223.979 112.986 226.141 112.272 228.445 110.805C232.153 108.385 233.962 105.518 235.553 102.986L236.009 102.261L232.011 96.2664L231.087 98.0171L231.092 98.0115Z" fill="white"/>
<path d="M128.189 78.3866L127.43 78.1543L125.508 82.6925L126.341 83.0268C132.153 85.344 133.368 85.854 137.225 88.1882L138.057 88.6925L140.465 83.684L139.763 83.2817C136.415 81.3554 132.524 79.7124 128.195 78.3979L128.189 78.3866Z" fill="white"/>
<path d="M57.5978 160.458C51.3287 173.54 44.4321 174.951 41.7624 174.951C41.1863 174.951 38.2371 174.803 37.0221 171.902C36.7996 171.426 36.3376 170.429 36.3376 164.157C36.3376 161.67 36.3946 148.764 37.5469 138.696L37.6667 137.625L30 136.169L30.2567 137.806C30.6104 140.078 30.6104 142.707 30.6104 145.024C30.6104 146.084 30.559 149.109 30.5077 152.316C30.4507 155.659 30.3993 159.115 30.3993 160.39C30.3993 168.894 30.5419 170.849 31.3462 173.409C32.4472 177.115 36.0923 180.854 41.7624 180.854C49.452 180.854 56.5653 175.528 62.9029 165.019L63.4619 164.089L58.3108 158.973L57.5978 160.463V160.458Z" fill="white"/>
<path d="M100.608 150.928C98.6689 150.928 96.8663 151.353 95.6741 151.687C94.1225 149.63 92.839 147.953 91.1277 146.106L90.5174 145.449L85.3321 148.163L86.5699 149.279C87.6138 150.22 88.8288 151.398 90.6371 153.568C89.0684 154.327 87.6366 155.053 85.7314 156.084C83.4496 151.24 82.6567 150.004 82.0121 149.002L81.5387 148.265L75.7373 149.936L76.8268 151.296C78.5553 153.455 79.9186 155.874 81.2306 158.39C78.3043 159.834 76.5473 160.639 73.9575 161.466L72.2861 161.999L76.3591 166.781L77.1976 166.327C77.4543 166.186 77.6597 166.067 77.8764 165.942C78.1502 165.783 78.4354 165.619 78.8747 165.387L78.926 165.358C79.3311 165.115 80.6259 164.395 81.8752 163.698C82.4057 163.404 82.9305 163.109 83.3812 162.86C86.5243 169.834 88.7148 175.732 90.2321 181.341L90.6029 182.701L96.0335 180.095L95.6228 179.086C92.1203 170.412 90.6486 166.814 87.7735 160.531C89.4221 159.687 91.4757 158.667 93.4893 157.698C93.5121 157.732 93.5293 157.766 93.5521 157.8C94.2537 158.973 94.2936 159.047 94.8584 160.571L95.3261 161.829L100.426 159.109L99.8383 158.072C99.1481 156.86 98.7488 156.242 98.4407 155.8C98.9598 155.653 99.5017 155.562 100.135 155.562C102.285 155.562 104.504 156.871 104.504 159.064C104.504 160.418 104.077 161.517 103.232 162.333C101.846 163.67 99.3591 164.299 95.8338 164.203L93.9685 164.152L96.2217 169.143H96.9804C106.946 169.143 109.604 162.871 109.604 159.166C109.604 154.696 105.486 150.922 100.614 150.922L100.608 150.928Z" fill="white"/>
<path d="M181.897 162.95C179.906 170.066 178.754 171.312 178.383 171.528C177.151 171.278 173.004 166.825 173.004 155.029C173.004 150.967 173.54 148.14 173.825 146.621L174.07 145.313L167.122 143.143L166.985 145.069C166.871 146.61 166.7 148.939 166.7 152.253C166.7 159.431 167.487 164.859 169.096 168.802C169.13 168.893 172.57 178.117 178.331 178.117C183.18 178.117 185.964 170.293 187.304 166.536L187.561 165.811L182.41 161.12L181.897 162.95Z" fill="white"/>
<path d="M201.126 144.085L200.607 143.501L194.737 145.473L195.713 146.759C198.884 150.957 202.427 156.356 204.315 167.285L204.543 168.623L210.949 166.504L210.738 165.489C210.025 162.073 207.852 151.671 201.126 144.085Z" fill="white"/>
<path d="M221.52 164.513C216.391 164.513 212.216 168.66 212.216 173.753C212.216 178.847 216.391 182.943 221.52 182.943C226.648 182.943 230.824 178.819 230.824 173.753C230.824 168.688 226.648 164.513 221.52 164.513ZM221.52 178.462C218.907 178.462 216.779 176.348 216.779 173.753C216.779 171.159 218.907 169.045 221.52 169.045C224.132 169.045 226.26 171.159 226.26 173.753C226.26 176.348 224.132 178.462 221.52 178.462Z" fill="white"/>
<path d="M52.138 150.65L52.6343 151.42L56.9069 148.434L56.4848 147.737C55.3439 145.851 53.9235 143.743 51.2824 141.12L50.7576 140.599L46.6162 143.528L47.2494 144.253C48.5614 145.754 50.1872 147.624 52.138 150.655V150.65Z" fill="white"/>
<path d="M57.8882 146.383L58.3674 147.228L62.7483 144.14L62.3034 143.437C60.9115 141.256 59.7193 139.641 57.0782 136.854L56.5363 136.287L52.3721 139.386L53.0452 140.1C54.5226 141.658 56.4108 143.777 57.8825 146.378L57.8882 146.383Z" fill="white"/>
<path d="M146.283 168.174C146.164 166.814 146.055 165.613 145.958 164.565C145.69 161.619 145.513 159.67 145.513 159.12C145.513 157.562 145.907 157.024 147.476 155.71L148.537 154.82L143.939 150.956L143.175 151.659C140.99 153.676 139.313 155.472 139.313 158.701C139.313 159.353 139.529 161.613 139.843 164.735C139.912 165.409 139.974 166.061 140.031 166.627C138.731 166.406 137.236 166.185 135.844 166.185C129.627 166.185 126.272 169.84 126.272 173.279C126.272 177.256 130.305 181.369 137.059 181.369C143.813 181.369 145.251 177.126 145.907 174.225C148.057 175.211 149.398 175.879 151.446 177.109L152.661 177.84L154.891 171.879L153.962 171.409C152.113 170.469 150.362 169.573 146.289 168.18L146.283 168.174ZM140.151 172.287V172.967C140.151 175.585 137.818 175.789 137.099 175.789C134.686 175.789 131.886 174.741 131.886 173.386C131.886 172.684 133.18 171.67 135.519 171.67C137.117 171.67 138.771 171.998 140.151 172.287Z" fill="white"/>
<path d="M140.82 148.474L141.653 148.344L142.805 141.641L140.962 142.225C139.89 142.565 138.783 142.916 135.304 143.494C135.806 142.123 136.182 140.995 137.209 137.817L137.511 136.882L131.231 133.636L130.974 135.233C130.358 139.035 129.342 142.276 128.624 144.446C128.036 144.48 127.523 144.48 126.587 144.48C123.13 144.48 121.761 144.191 120.449 143.84L118.903 143.426L119.172 149.721L120.215 149.851C121.065 149.959 122.343 150.117 124.739 150.117C125.007 150.117 125.629 150.089 126.621 150.038C126.678 150.038 126.736 150.032 126.798 150.027C122.298 161.307 119.223 165.25 117.158 167.902L116.211 169.114L122.606 171.703L123.113 170.814C127.255 163.613 130.466 156.015 133.067 149.443C135.845 149.126 139.245 148.712 140.808 148.468L140.82 148.474Z" fill="white"/>
<path d="M147.077 143.778L146.318 143.546L144.396 148.084L145.228 148.418C151.155 150.781 152.245 151.24 156.118 153.58L156.951 154.084L159.358 149.076L158.656 148.673C155.308 146.747 151.418 145.104 147.088 143.79L147.077 143.778Z" fill="white"/>
</svg>
