<svg width="890" height="233" viewBox="0 0 890 233" fill="none" xmlns="http://www.w3.org/2000/svg">
<path d="M312.466 39.7318C312.801 38.5697 314.03 34.977 314.03 34.977L302.983 31.8754C302.983 31.8754 301.182 36.0655 300.838 37.6613C300.363 37.6122 299.855 37.5876 299.225 37.5876C294.23 37.5876 289.529 38.4142 286.36 39.1016C286.524 36.9657 286.671 34.7888 286.843 32.2354L286.901 31.4089C296.563 30.124 301.673 28.8801 314.251 25.8275L317.6 25.0173L318.615 12.136L315.668 13.2572C306.685 16.6699 297.693 18.9695 288.268 20.238C289.03 15.786 290.111 11.2194 291.511 6.62834L292.109 4.67241L279.744 1.25977L279.343 3.38755C277.582 12.6762 276.861 17.1445 276.411 21.7929C269.582 21.932 264.693 21.662 259.403 20.8927L256.414 20.459L259.518 32.1782L260.934 32.2845C264.054 32.5137 269.492 32.7265 272.341 32.7265C273.291 32.7265 274.118 32.7265 275.363 32.661C275.076 36.1064 275.044 39.4699 275.044 42.948C269.983 45.5423 266.486 47.5146 262.384 51.3037C257.643 55.502 249.691 64.3159 249.691 76.1661C249.691 83.8015 254.727 91.6989 263.162 91.6989C268.231 91.6989 273.971 89.8166 280.645 85.9457C280.972 87.1242 281.308 87.8525 281.914 88.81L283.011 90.5286L292.919 83.9325L292.346 82.443C291.429 80.0534 291.093 78.9731 290.905 78.1793C300.068 69.4553 306.046 56.2467 308.658 50.0434C313.055 51.631 320.294 55.1091 320.294 64.4796C320.294 69.2016 318.476 73.359 314.759 77.1563C308.781 83.1305 305.456 84.3908 296.801 85.7411L300.297 96.9856C305.661 95.5371 309.542 94.3832 314.497 91.6825C322.603 87.296 332.258 79.1368 332.258 65.1343C332.258 59.111 330.284 53.5706 326.558 49.1268C321.834 43.3818 316.765 41.2294 312.466 39.7236V39.7318ZM297.472 48.1447C294.271 55.8211 291.208 60.5596 288.088 64.7742C287.417 61.1488 286.704 56.3858 286.237 49.405C290.471 48.3984 293.918 48.1857 297.472 48.1366V48.1447ZM275.232 54.2008C275.838 63.473 276.984 69.6845 278.016 75.2086C275.42 77.1399 271.154 80.0779 266.765 80.0779C265.16 80.0779 261.434 79.6196 261.434 75.405C261.434 72.066 262.728 68.2605 265.274 64.1359C268.476 59.0865 271.875 56.394 275.224 54.2089L275.232 54.2008Z" fill="white"/>
<path d="M502.196 30.0923L503.49 29.6094V17.0964L500.755 18.193C497.185 19.617 493.091 21.1392 485.819 22.7678L486.433 20.5172C488.038 14.6904 488.636 12.5135 489.766 7.97147L490.184 6.29379L476.885 0.851562L476.771 3.69134C476.476 10.8603 474.314 19.4861 472.914 24.7973C469.229 25.2802 465.634 25.6976 461.163 25.6976C457.134 25.6976 455.668 25.5012 453.736 25.182L451.14 24.7482L452.491 37.0567L454.227 37.1058C460.123 37.2858 464.602 37.1058 469.622 36.7621C467.419 43.5055 464.586 51.763 459.787 62.5983C454.194 75.2423 450.321 80.84 446.571 86.2577L444.671 89.0074L457.724 92.2318L458.493 91.0206C462.162 85.2183 464.995 80.3899 470.678 66.5674C476.025 53.4243 479.432 42.9572 481.938 35.1499C486.597 34.3806 494.777 32.9075 502.205 30.1086L502.196 30.0923Z" fill="white"/>
<path d="M507.29 82.3723C497.955 82.3723 493.222 80.3591 493.222 76.39C493.222 73.8039 493.713 72.4454 494.262 71.1687L495.048 69.3437L484.714 64.8672L484.001 66.8722C481.905 72.7645 481.594 76.66 481.594 78.4605C481.594 88.1255 490.847 93.666 506.97 93.666C514.013 93.666 520.826 93.0113 527.786 91.6609L529.203 91.3909L530.865 78.4441L527.95 79.2789C520.768 81.333 513.816 82.3723 507.298 82.3723H507.29Z" fill="white"/>
<path d="M513.734 37.5898C508.805 37.5898 500.469 38.3018 496.129 38.801L494.417 38.9975L494.073 50.9458L496.923 50.2911C499.535 49.6855 502.499 48.9981 510.565 48.9981C517.689 48.9981 521.186 49.4809 528.081 50.9212L530.382 51.4041L530.881 39.7913L529.301 39.3985C524.429 38.1791 519.343 37.5898 513.734 37.5898Z" fill="white"/>
<path d="M634.173 73.0916C626.681 69.2453 621.604 67.4039 616.461 65.7344C615.56 53.737 615.388 43.9982 615.372 35.9454C621.645 34.9715 625.37 34.2268 628.695 33.5557L631.389 33.0156L630.881 19.7578L628.138 21.0836C625.706 22.2539 622.463 23.817 615.56 25.241C615.839 21.5419 616.387 15.2649 617.624 9.65904L618.033 7.80131L605.341 4.38867L605.161 6.79471C604.776 11.9751 604.121 21.0263 603.818 26.9841C602.049 27.0578 600.084 27.1151 596.874 27.1151C589.995 27.1151 587.604 26.5995 583.633 25.7402L580.75 25.1182L582.937 37.9013L584.533 37.9832C588.833 38.1959 596.53 38.0896 603.736 37.5085C603.777 42.3288 603.982 45.8723 604.653 57.4033L604.997 63.3775C602.246 62.9437 599.257 62.7146 596.211 62.7146C583.06 62.7146 577.172 69.9654 577.172 77.159C577.172 83.9761 582.871 91.9307 598.946 91.9307C613.751 91.9307 616.232 83.9515 616.895 77.7073C619.761 78.8858 623.331 80.5962 629.694 84.5408L631.872 85.8911L635.664 73.8691L634.165 73.0998L634.173 73.0916ZM604.211 80.367C603.335 81.2754 601.681 81.7174 599.175 81.7174C593.042 81.7174 588.055 79.3768 588.055 76.5043C588.055 74.7202 589.946 72.8216 595.244 72.8216C597.504 72.8216 601.156 73.3535 605.423 74.2865C605.472 77.1344 605.308 79.2459 604.219 80.3752L604.211 80.367Z" fill="white"/>
<path d="M567.199 59.6029C566.822 60.4131 565.635 62.8928 564.431 65.4052C564.055 61.9762 563.793 57.9988 563.793 52.2538C563.793 39.7162 565.766 27.727 570.597 10.8602L571.13 9.01882L559.649 5.24609L559.109 7.28386C554.932 22.9395 552.812 38.325 552.812 53.0149C552.812 63.6211 554.097 79.4077 557.7 91.9043L558.232 93.7539L567.101 91.536L567.33 89.8338C567.723 86.8467 568.01 84.6862 570.663 77.7627C572.399 73.2453 573.865 70.2664 574.929 68.0977C575.183 67.5739 575.42 67.0992 575.625 66.6573L576.198 65.4543L568.485 56.8695L567.207 59.6029H567.199Z" fill="white"/>
<path d="M397.84 29.879L399.511 29.6172L401.82 16.1221L398.135 17.3005C395.989 17.988 393.778 18.6918 386.81 19.8621C387.809 17.1041 388.57 14.829 390.626 8.42931L391.232 6.53885L378.662 0L378.146 3.20805C376.918 10.8599 374.879 17.3988 373.438 21.7525C372.267 21.8262 371.235 21.8262 369.368 21.8262C362.457 21.8262 359.714 21.2369 357.085 20.5331L353.99 19.6984L354.522 32.3833L356.61 32.6452C358.305 32.8579 360.868 33.1771 365.659 33.1771C366.191 33.1771 367.436 33.1198 369.425 33.0216C369.54 33.0216 369.655 33.0134 369.777 33.0052C360.762 55.7235 354.62 63.6617 350.493 68.9976L348.602 71.4445L361.4 76.6658L362.424 74.8817C370.711 60.38 377.139 45.0763 382.347 31.8431C387.899 31.2048 394.712 30.3701 397.84 29.879Z" fill="white"/>
<path d="M408.773 69.5517C408.528 66.8183 408.315 64.3959 408.118 62.2845C407.578 56.3512 407.226 52.4312 407.226 51.3182C407.226 48.1756 408.012 47.0954 411.148 44.452L413.269 42.6597L404.065 34.877L402.542 36.2927C398.161 40.3519 394.812 43.9692 394.812 50.4753C394.812 51.7929 395.254 56.3431 395.868 62.6282C395.999 63.9785 396.13 65.3043 396.236 66.4419C393.632 65.9999 390.644 65.5498 387.859 65.5498C375.421 65.5498 368.706 72.9071 368.706 79.8306C368.706 87.8343 376.78 96.1163 390.291 96.1163C403.803 96.1163 406.693 87.5642 408.004 81.7374C412.311 83.726 414.988 85.0682 419.091 87.5479L421.523 89.0128L425.986 77.0071L424.127 76.0578C420.426 74.1592 416.921 72.3669 408.773 69.5517ZM396.507 79.2004C396.507 84.4708 391.831 84.88 390.398 84.88C385.567 84.88 379.957 82.7685 379.957 80.0433C379.957 78.6275 382.545 76.5816 387.229 76.5816C390.422 76.5816 393.739 77.2445 396.507 77.8255V79.2004Z" fill="white"/>
<path d="M410.362 20.4274L408.839 19.9609L404.99 29.0941L406.653 29.7651C418.289 34.4381 420.721 35.461 428.443 40.1585L430.113 41.1733L434.928 31.0827L433.52 30.2643C426.821 26.3852 419.034 23.079 410.37 20.4274H410.362Z" fill="white"/>
<path d="M72.264 161.143C67.1461 162.968 58.5808 166.029 46.8382 169.204C45.7491 169.474 44.6109 169.769 43.4727 170.072C49.8926 162.731 58.9411 153.434 61.2175 151.486C64.4111 148.72 64.9024 148.262 66.229 146.453L67.3263 144.964L59.3259 135.52L57.8602 135.945C43.4235 140.143 35.9719 141.142 19.7173 141.027L15.9751 141.003L22.1985 154.105L23.8281 153.958C31.853 153.246 40.3282 151.756 46.3797 150.504C46.0849 150.831 45.7573 151.2 45.3724 151.609C38.2892 159.269 36.193 161.552 31.0177 167.191L26.0472 172.608C23.8035 174.949 23.0829 175.596 19.9876 176.398C15.23 177.584 8.31052 179.18 3.15985 179.286L-0.000976562 179.352L4.69113 193.755L6.96758 192.937C11.0865 191.456 12.7406 190.948 14.796 190.326C17.2444 189.573 24.0737 187.626 31.2961 185.572C35.4723 184.385 39.7141 183.174 43.4072 182.11C37.2984 188.297 31.1078 196.669 31.1078 206.579C31.1078 219.182 38.9034 227.399 53.0616 229.715C57.4999 230.452 61.1438 230.681 66.1962 230.983L69.1278 231.164V217.824L66.7367 217.865C60.2349 217.963 58.0403 217.873 54.9941 217.366C47.0429 216.064 43.0059 212.717 43.0059 207.422C43.0059 198.551 50.6705 190.695 54.3472 186.922L54.6912 186.57C63.625 177.642 67.7848 175.727 69.4553 175.375L69.9876 175.268C72.2968 174.81 73.566 174.556 76.3256 173.738L78.3073 173.149L76.1537 159.76L72.2804 161.143H72.264Z" fill="white"/>
<path d="M169.856 192.907C166.548 199.225 160.39 210.985 152.16 210.985C150.334 210.985 148.697 210.674 148.697 206.885C148.697 206.443 148.729 204.061 149.303 200.501L149.327 200.379C150.891 190.877 151.137 189.421 151.137 186.278C151.137 180.369 147.976 173.462 139.058 173.462C133.441 173.462 127.783 176.089 122.28 179.502C127.128 168.372 133.932 155.278 139.304 145.907L140.5 143.82L127.496 136.758L124.679 143.853C122.616 149.058 121.477 151.931 119.987 155.327C117.326 161.514 107.172 184.33 99.7529 200.984C96.2399 208.873 93.2756 215.527 91.8672 218.719L90.8682 220.977L103.004 225.626L103.896 223.555C111.946 204.888 113.854 200.731 119.733 194.863C121.838 192.751 129.208 185.869 135.48 185.869C137.683 185.869 138.837 187.293 138.837 188.692C138.821 189.396 138.15 193.291 137.806 194.994C136.954 200.42 136.504 205.133 136.504 206.983C136.504 216.91 142.187 223.072 151.333 223.072C155.632 223.072 159.956 221.64 164.574 218.669C172.002 213.792 175.621 208.014 178.806 202.916L179.723 201.451L171.723 189.371L169.881 192.899L169.856 192.907Z" fill="white"/>
<path d="M242.581 162.814L244.251 162.552L246.56 149.04L242.876 150.219C240.722 150.906 238.511 151.61 231.542 152.78C232.55 150.022 233.303 147.739 235.367 141.339L235.973 139.449L223.395 132.91L222.879 136.126C221.651 143.786 219.612 150.325 218.17 154.687C216.999 154.761 215.968 154.761 214.092 154.761C207.173 154.761 204.43 154.172 201.801 153.468L198.706 152.633L199.238 165.326L201.326 165.588C203.021 165.801 205.584 166.12 210.383 166.12C210.915 166.12 212.16 166.063 214.15 165.965C214.264 165.965 214.379 165.956 214.502 165.948C205.486 188.683 199.336 196.629 195.201 201.965L193.31 204.412L206.117 209.633L207.14 207.849C215.435 193.339 221.863 178.019 227.071 164.786C232.632 164.148 239.445 163.305 242.581 162.822V162.814Z" fill="white"/>
<path d="M253.519 202.514C253.274 199.773 253.061 197.358 252.864 195.239C252.324 189.297 251.972 185.377 251.972 184.264C251.972 181.122 252.758 180.033 255.894 177.39L258.023 175.598L248.811 167.807L247.288 169.222C242.907 173.282 239.558 176.907 239.558 183.421C239.558 184.739 240 189.297 240.614 195.582C240.745 196.941 240.876 198.259 240.983 199.396C238.379 198.954 235.39 198.504 232.597 198.504C220.151 198.504 213.428 205.869 213.428 212.793C213.428 220.805 221.51 229.095 235.029 229.095C248.549 229.095 251.44 220.535 252.75 214.7C257.057 216.688 259.743 218.031 263.845 220.51L266.277 221.975L270.74 209.961L268.881 209.012C265.18 207.113 261.667 205.313 253.519 202.506V202.514ZM241.236 212.171C241.236 217.441 236.561 217.859 235.128 217.859C230.296 217.859 224.679 215.747 224.679 213.022C224.679 211.606 227.267 209.56 231.951 209.56C235.144 209.56 238.469 210.223 241.228 210.804V212.179L241.236 212.171Z" fill="white"/>
<path d="M354.264 188.513C356.033 191.631 357.4 195.347 357.4 199.602C357.4 209.832 348.909 217.55 337.649 217.55C326.39 217.55 321.919 209.701 321.919 202.352C321.919 200.192 322.164 197.36 322.459 194.962C326.308 194.913 333.62 194.619 343.111 193.039L344.79 192.761L346.984 178.275L343.398 179.388C340.024 180.436 333.989 182.31 323.933 182.785C323.966 182.605 323.99 182.433 324.023 182.261C324.539 179.118 325.063 175.886 326.201 169.609C329.747 169.396 334.005 168.971 343.897 167.137L345.674 166.81L346.722 153.184L343.332 154.362C339.5 155.696 335.471 156.94 328.805 157.587C330.156 150.704 331.491 145.123 333.285 140.646L334.243 138.257L317.693 133.33L317.751 136.538C317.849 141.792 317.153 146.228 315.474 156.949L315.368 157.636C311.879 157.284 307.13 156.564 299.564 154.133L296.583 153.176L296.239 165.321L297.738 165.943C301.996 167.71 305.902 168.84 313.304 169.511C312.764 173.12 311.863 178.685 311.249 182.449C306.843 182.122 302.61 181.271 298.892 179.945L295.756 178.832V192.425L298.245 192.941C300.866 193.489 303.789 194.095 309.554 194.578C309.39 196.705 309.185 199.504 309.185 202.139C309.185 204.357 309.546 212.124 314.238 219.096C320.314 228.09 331.254 229.432 337.231 229.432C355.672 229.432 370.674 216.003 370.674 199.496C370.674 192.18 367.988 186.026 365.007 181.385L354.272 188.522L354.264 188.513Z" fill="white"/>
<path d="M461.193 192.907C457.885 199.225 451.727 210.985 443.497 210.985C441.671 210.985 440.033 210.674 440.033 206.885C440.033 206.443 440.066 204.061 440.639 200.501L440.664 200.379C442.228 190.877 442.474 189.421 442.474 186.278C442.474 180.369 439.313 173.462 430.395 173.462C424.778 173.462 419.12 176.089 413.617 179.502C418.465 168.372 425.269 155.278 430.641 145.907L431.837 143.82L418.833 136.758L416.016 143.853C413.953 149.058 412.814 151.931 411.324 155.327C408.663 161.514 398.509 184.33 391.09 200.984C387.577 208.873 384.613 215.527 383.204 218.719L382.205 220.977L394.341 225.626L395.233 223.555C403.283 204.888 405.191 200.731 411.07 194.855C413.183 192.743 420.553 185.869 426.809 185.869C429.012 185.869 430.166 187.293 430.166 188.692C430.15 189.396 429.478 193.291 429.134 194.994C428.283 200.42 427.832 205.133 427.832 206.983C427.832 216.91 433.515 223.072 442.662 223.072C446.961 223.072 451.285 221.64 455.903 218.669C463.33 213.792 466.95 208.014 470.135 202.916L471.052 201.451L463.052 189.371L461.209 192.899L461.193 192.907Z" fill="white"/>
<path d="M255.108 153.353L253.585 152.887L249.736 162.028L251.399 162.699C263.043 167.372 265.475 168.403 273.205 173.101L274.876 174.115L279.691 164.017L278.282 163.198C271.584 159.319 263.788 156.005 255.116 153.353H255.108Z" fill="white"/>
<path d="M542.546 187.15C529.984 213.51 516.178 216.358 510.823 216.358C509.668 216.358 503.764 216.064 501.324 210.221C500.882 209.255 499.956 207.258 499.956 194.614C499.956 189.606 500.071 163.597 502.372 143.302L502.618 141.141L487.256 138.203L487.772 141.501C488.484 146.076 488.484 151.371 488.484 156.044C488.484 158.18 488.386 164.285 488.279 170.742C488.173 177.477 488.058 184.442 488.058 187.011C488.058 204.156 488.345 208.085 489.95 213.257C492.153 220.72 499.457 228.258 510.815 228.258C526.209 228.258 540.458 217.52 553.158 196.341L554.28 194.467L543.962 184.155L542.529 187.159L542.546 187.15Z" fill="white"/>
<path d="M628.683 167.952C624.801 167.952 621.19 168.811 618.799 169.49C615.687 165.349 613.116 161.969 609.685 158.246L608.457 156.92L598.074 162.387L600.555 164.637C602.643 166.536 605.075 168.909 608.694 173.279C605.558 174.81 602.692 176.266 598.868 178.345C594.29 168.582 592.71 166.094 591.424 164.073L590.483 162.583L578.863 165.955L581.049 168.696C584.513 173.042 587.24 177.928 589.869 182.994C584.005 185.907 580.484 187.527 575.301 189.197L571.96 190.269L580.116 199.909L581.795 198.993C582.31 198.715 582.728 198.469 583.162 198.224C583.703 197.904 584.284 197.577 585.16 197.102L585.258 197.045C586.069 196.554 588.665 195.106 591.171 193.698C592.235 193.1 593.283 192.511 594.184 192.004C600.481 206.055 604.862 217.946 607.908 229.248L608.645 231.99L619.52 226.736L618.701 224.698C611.683 207.226 608.735 199.967 602.979 187.306C606.279 185.604 610.389 183.55 614.426 181.594C614.467 181.668 614.508 181.733 614.549 181.807C615.95 184.172 616.031 184.319 617.161 187.388L618.095 189.925L628.306 184.442L627.127 182.355C625.743 179.908 624.949 178.664 624.327 177.78C625.366 177.486 626.456 177.298 627.725 177.298C632.024 177.298 636.479 179.941 636.479 184.352C636.479 187.085 635.619 189.303 633.932 190.94C631.164 193.632 626.177 194.901 619.11 194.713L615.368 194.606L619.88 204.664H621.403C641.359 204.664 646.682 192.028 646.682 184.565C646.682 175.554 638.436 167.943 628.683 167.943V167.952Z" fill="white"/>
<path d="M789.033 192.184C785.045 206.53 782.736 209.043 781.999 209.468C779.534 208.969 771.231 199.992 771.231 176.218C771.231 168.026 772.304 162.33 772.877 159.277L773.368 156.634L759.447 152.264L759.169 156.143C758.94 159.253 758.596 163.942 758.596 170.62C758.596 185.089 760.176 196.022 763.386 203.977C763.452 204.165 770.346 222.751 781.884 222.751C791.596 222.751 797.173 206.989 799.858 199.411L800.374 197.946L790.057 188.493L789.033 192.184Z" fill="white"/>
<path d="M827.536 154.161L826.505 152.99L814.754 156.959L816.703 159.554C823.057 168.016 830.149 178.892 833.924 200.923L834.382 203.623L847.214 199.351L846.788 197.305C845.355 190.423 841.015 169.464 827.528 154.169L827.536 154.161Z" fill="white"/>
<path d="M870.838 195.328C860.561 195.328 852.2 203.684 852.2 213.954C852.2 224.225 860.561 232.474 870.838 232.474C881.114 232.474 889.475 224.168 889.475 213.954C889.475 203.741 881.114 195.328 870.838 195.328ZM870.838 223.439C865.605 223.439 861.347 219.184 861.347 213.954C861.347 208.725 865.605 204.469 870.838 204.469C876.07 204.469 880.328 208.725 880.328 213.954C880.328 219.184 876.07 223.439 870.838 223.439Z" fill="white"/>
<path d="M531.615 167.388L532.605 168.943L541.163 162.92L540.319 161.512C538.035 157.707 535.193 153.46 529.903 148.173L528.847 147.117L520.552 153.018L521.821 154.483C524.441 157.511 527.709 161.275 531.606 167.38L531.615 167.388Z" fill="white"/>
<path d="M543.136 158.804L544.094 160.506L552.872 154.286L551.98 152.871C549.196 148.476 546.805 145.219 541.515 139.605L540.434 138.459L532.098 144.711L533.449 146.144C536.405 149.278 540.188 153.55 543.136 158.796V158.804Z" fill="white"/>
<path d="M717.702 202.707C717.456 199.966 717.244 197.552 717.047 195.432C716.507 189.491 716.154 185.571 716.154 184.458C716.154 181.315 716.941 180.227 720.077 177.583L722.206 175.791L712.994 168L711.471 169.416C707.09 173.475 703.74 177.1 703.74 183.615C703.74 184.932 704.183 189.491 704.797 195.776C704.928 197.134 705.059 198.452 705.165 199.589C702.561 199.148 699.572 198.697 696.78 198.697C684.333 198.697 677.61 206.063 677.61 212.986C677.61 220.998 685.693 229.288 699.212 229.288C712.732 229.288 715.622 220.728 716.932 214.893C721.24 216.882 723.925 218.224 728.028 220.704L730.46 222.169L734.923 210.155L733.064 209.205C729.363 207.307 725.85 205.506 717.702 202.699V202.707ZM705.427 210.989V212.364C705.427 217.635 700.752 218.052 699.319 218.052C694.487 218.052 688.87 215.941 688.87 213.215C688.87 211.8 691.457 209.754 696.141 209.754C699.335 209.754 702.659 210.417 705.419 210.998L705.427 210.989Z" fill="white"/>
<path d="M706.761 163.001L708.432 162.739L710.741 149.228L707.056 150.406C704.903 151.094 702.692 151.798 695.723 152.968C696.73 150.21 697.484 147.927 699.547 141.527L700.153 139.637L687.575 133.098L687.06 136.314C685.831 143.974 683.792 150.513 682.351 154.875C681.18 154.948 680.148 154.948 678.273 154.948C671.354 154.948 668.61 154.359 665.982 153.655L662.887 152.821L663.419 165.514L665.507 165.776C667.202 165.988 669.765 166.307 674.564 166.307C675.096 166.307 676.341 166.25 678.33 166.152C678.445 166.152 678.56 166.144 678.683 166.136C669.667 188.87 663.517 196.817 659.382 202.153L657.49 204.599L670.297 209.821L671.321 208.037C679.616 193.527 686.044 178.207 691.252 164.974C696.812 164.335 703.625 163.492 706.761 163.009V163.001Z" fill="white"/>
<path d="M719.29 153.549L717.767 153.082L713.918 162.223L715.58 162.894C727.446 167.657 729.64 168.582 737.387 173.296L739.057 174.311L743.872 164.212L742.464 163.394C735.765 159.515 727.97 156.2 719.29 153.549Z" fill="white"/>
</svg>
