<svg width="81" height="35" viewBox="0 0 81 35" fill="none" xmlns="http://www.w3.org/2000/svg">
<path d="M19.602 34.9908V8.7422H39.204C43.5576 8.7422 47.233 11.9601 47.8346 16.2873L53.0414 6.85318C49.7488 2.537 44.6296 0 39.204 0H0V8.7422H10.8949V34.9798H19.602V34.9908Z" fill="white"/>
<path d="M46.8279 21.7347L58.8057 0H67.5128L80.5844 34.9908H51.9581L56.782 26.2486H68.016L62.4701 11.411L54.4411 25.974C50.0876 33.8705 40.4616 37.1434 32.2248 33.5411C23.4083 29.6752 19.3719 19.3624 23.2223 10.5104H33.964C30.1137 13.4098 29.337 18.8902 32.2248 22.7561C35.1126 26.622 40.571 27.4017 44.4214 24.5023C45.4058 23.7665 46.2262 22.822 46.8169 21.7457" fill="white"/>
</svg>
