<svg width="146" height="64" viewBox="0 0 146 64" fill="none" xmlns="http://www.w3.org/2000/svg">
<path d="M35.5134 63.3953V15.8389H71.0277C78.9154 15.8389 85.5743 21.669 86.6644 29.5089L96.0979 12.4164C90.1326 4.59646 80.8576 0 71.0277 0H-0.000976562V15.8389H19.738V63.3754H35.5134V63.3953Z" fill="white"/>
<path d="M84.8403 39.3783L106.541 0H122.317L145.999 63.3953H94.135L102.875 47.5564H123.228L113.18 20.6741L98.6338 47.059C90.7461 61.3657 73.306 67.2953 58.3829 60.7687C42.4093 53.7646 35.0964 35.0803 42.0724 19.0425H61.534C54.5579 24.2956 53.1508 34.2247 58.3829 41.2288C63.6149 48.2329 73.5042 49.6457 80.4803 44.3926C82.2639 43.0594 83.7503 41.3482 84.8205 39.3982" fill="white"/>
</svg>
