<svg width="310" height="23" viewBox="0 0 310 23" fill="none" xmlns="http://www.w3.org/2000/svg">
<path d="M12.4842 1.45752V4.46965H7.81083V22.5552H4.63399V4.46965H0V1.45752H12.4842Z" fill="white"/>
<path d="M15.4511 12.0571C15.4511 8.24427 15.9762 5.46091 17.0395 3.70701C18.0897 1.96582 19.7306 1.08887 21.9491 1.08887C24.1677 1.08887 25.8611 1.97853 26.8982 3.77056C27.9353 5.56258 28.4604 8.32053 28.4604 12.0571C28.4604 15.7937 27.9353 18.6533 26.8719 20.4072C25.8349 22.1357 24.2071 22.9999 21.9885 22.9999C19.77 22.9999 18.0634 22.1102 17.0132 20.3436C15.9499 18.5516 15.4248 15.7937 15.4248 12.0571H15.4511ZM18.6542 12.0571C18.6542 13.506 18.7198 14.7388 18.8379 15.7682C18.9692 16.7723 19.153 17.5984 19.4024 18.2339C19.6518 18.8312 19.98 19.3015 20.4001 19.6192C20.8202 19.9242 21.319 20.0767 21.8966 20.0767C23.1175 20.0767 23.9839 19.4413 24.4827 18.183C24.9816 16.9121 25.231 14.8786 25.231 12.0698C25.231 10.6209 25.1654 9.38812 25.0472 8.35865C24.9159 7.29106 24.7322 6.46495 24.4565 5.8549C24.1808 5.23214 23.8395 4.7746 23.4325 4.46957C23.0387 4.16455 22.5399 4.01203 21.936 4.01203C21.3322 4.01203 20.8464 4.16455 20.4132 4.46957C19.98 4.7746 19.6387 5.24485 19.3893 5.88032C19.1399 6.5285 18.9561 7.3419 18.8248 8.34595C18.6935 9.37541 18.641 10.5828 18.641 11.9935L18.6673 12.0571H18.6542Z" fill="white"/>
<path d="M41.4306 17.7637H35.4576L34.3418 22.5552H31.1387L36.4422 1.45752H40.4329L45.7495 22.5552H42.5464L41.4306 17.7637ZM40.8267 14.8406L38.9626 7.06237C38.7526 6.19813 38.6344 5.4737 38.5951 4.88906C38.5557 4.48236 38.5163 4.29172 38.5032 4.29172H38.4375C38.4375 4.29172 38.385 4.49507 38.3456 4.88906C38.3063 5.4737 38.175 6.19813 37.9781 7.06237L36.1665 14.8406H40.8399H40.8267Z" fill="white"/>
<path d="M57.8262 22.5552V1.45752H61.003V22.5552H57.8262Z" fill="white"/>
<path d="M78.384 1.45752L78.2265 22.7331H75.5747L70.35 11.193C70.3106 11.1167 70.2318 10.9387 70.1137 10.6718C69.9955 10.4049 69.9168 10.1889 69.8511 10.0237C69.6674 9.60426 69.5098 9.21026 69.3786 8.8544C69.3392 8.72731 69.221 8.43499 69.0372 7.95203L68.9191 7.59617H68.8272L68.8928 8.05371C68.8928 8.15538 68.9191 8.34602 68.9585 8.62563C68.9979 8.90524 69.0241 9.13401 69.0504 9.32465C69.116 9.88386 69.1816 10.532 69.2342 11.2565C69.2998 12.0191 69.3261 12.8452 69.3261 13.7221V22.6441H66.2148V1.54649H68.8666L74.3145 13.4552C74.4326 13.7094 74.6033 14.1034 74.8133 14.6245C74.984 15.0058 75.1021 15.3362 75.1809 15.6158C75.2203 15.7175 75.2728 15.8319 75.3253 15.9844C75.3778 16.1242 75.4172 16.2259 75.4303 16.2894L75.5222 16.5309H75.6141L75.5878 16.0734C75.5878 16.0734 75.5747 15.87 75.5353 15.5777C75.5091 15.2854 75.4828 15.0312 75.4566 14.8151C75.4172 14.4084 75.3778 13.773 75.3253 12.8833C75.2859 11.8793 75.2597 11.0532 75.2597 10.4177V1.45752H78.3709H78.384Z" fill="white"/>
<path d="M87.5604 1.5083H87.4948C90.3828 1.5083 92.5226 2.4488 93.9403 4.31708C95.3319 6.15995 96.0276 8.7908 96.0276 12.1842C96.0276 15.5776 95.3712 18.1957 94.0716 19.9623C92.7851 21.7035 90.7241 22.5805 87.8755 22.5805H83.6484V1.5083H87.5735H87.5604ZM88.4662 19.5683L88.44 19.6319C89.3326 19.6319 90.0415 19.4667 90.5929 19.1489C91.1705 18.8058 91.6299 18.3228 91.9581 17.7001C92.3126 17.0392 92.5488 16.2512 92.667 15.3488C92.7983 14.4083 92.8508 13.328 92.8508 12.1206C92.8508 9.42627 92.4701 7.46902 91.6956 6.24891C90.921 5.02881 89.7396 4.40605 88.1511 4.40605H86.8384V19.5683H88.4531H88.4662Z" fill="white"/>
<path d="M112.62 1.45752L112.646 15.959C112.646 18.2086 112.121 19.937 111.058 21.1444C110.021 22.3264 108.485 22.9238 106.45 22.9238C104.415 22.9238 102.879 22.3264 101.842 21.1444C100.779 19.937 100.254 18.2213 100.254 15.9971V1.45752H103.431V16.1623C103.431 18.7296 104.428 20.026 106.424 20.026C108.419 20.026 109.443 18.7424 109.443 16.1623V1.45752H112.62Z" fill="white"/>
<path d="M125.892 6.8717L125.708 6.99879C125.432 6.02016 125.038 5.24489 124.5 4.71109C123.975 4.16459 123.293 3.89769 122.439 3.89769C121.717 3.89769 121.153 4.11375 120.759 4.55858C120.339 5.01612 120.142 5.60075 120.142 6.31248C120.142 7.04963 120.523 7.78677 121.258 8.51121C121.94 9.1721 122.899 9.93466 124.12 10.7989C124.723 11.2437 125.288 11.6758 125.826 12.0952C126.391 12.5528 126.889 13.0357 127.323 13.5441C127.756 14.0525 128.097 14.6117 128.347 15.2345C128.596 15.8318 128.714 16.5054 128.714 17.2553C128.714 18.0941 128.583 18.8566 128.307 19.5175C128.032 20.2038 127.638 20.8012 127.126 21.3223C126.653 21.8052 126.036 22.2119 125.288 22.5297C124.54 22.8093 123.765 22.9491 122.951 22.9491C122.019 22.9491 121.166 22.8093 120.404 22.5297C119.656 22.2246 119.026 21.8306 118.501 21.3223C117.976 20.8139 117.569 20.2165 117.254 19.5175C116.965 18.8693 116.742 18.1195 116.571 17.2553L119.564 16.4673C119.735 17.6365 120.103 18.5262 120.68 19.149C121.284 19.7971 122.045 20.1149 122.951 20.1149C123.699 20.1149 124.316 19.8734 124.815 19.3904C125.314 18.9075 125.564 18.2593 125.564 17.4332C125.564 17.0265 125.485 16.6452 125.314 16.2639C125.17 15.9208 124.933 15.5649 124.592 15.1836C124.264 14.8023 123.883 14.4465 123.437 14.1033C123.253 13.9635 122.977 13.7347 122.61 13.4424C122.242 13.1374 122.019 12.9468 121.914 12.8705C121.205 12.3494 120.575 11.8537 120.011 11.3962C119.472 10.9768 118.96 10.4685 118.488 9.88383C118.055 9.38816 117.713 8.81624 117.464 8.19347C117.215 7.59613 117.083 6.92253 117.083 6.17268C117.083 5.5245 117.215 4.90174 117.464 4.30439C117.713 3.68163 118.068 3.13513 118.527 2.67759C118.987 2.19463 119.564 1.80064 120.273 1.50832C120.956 1.20329 121.757 1.05078 122.676 1.05078C124.251 1.05078 125.564 1.52103 126.601 2.46153C127.625 3.38932 128.333 4.60942 128.754 6.13455L125.892 6.88441V6.8717Z" fill="white"/>
<path d="M144.415 1.45752V4.46965H139.741V22.5552H136.565V4.46965H131.931V1.45752H144.415Z" fill="white"/>
<path d="M156.834 22.5552L153.683 14.9041C153.683 14.9041 153.526 14.9295 153.407 14.9295H151.478V22.5297H148.301V1.41943H153.158C154.116 1.41943 154.983 1.58466 155.77 1.90239C156.584 2.22013 157.28 2.69037 157.858 3.28772C158.435 3.88506 158.908 4.6095 159.262 5.46103C159.59 6.28714 159.761 7.21493 159.761 8.26981C159.761 9.62972 159.472 10.8117 158.895 11.7903C158.317 12.7816 157.556 13.5442 156.624 14.078L160.391 22.5425H156.847L156.834 22.5552ZM153.224 12.1843C154.221 12.1843 155.035 11.8284 155.652 11.1294C156.269 10.4304 156.584 9.4772 156.584 8.26981C156.584 7.06241 156.269 6.17276 155.652 5.46103C155.035 4.7493 154.221 4.40615 153.224 4.40615H151.57V12.1843H153.224Z" fill="white"/>
<path d="M164.447 22.5552V1.45752H167.624V22.5552H164.447Z" fill="white"/>
<path d="M182.839 19.5431V22.5552H172.875V1.45752H182.655V4.46965H176.052V10.0745H180.817V12.9723H176.052V19.5431H182.839Z" fill="white"/>
<path d="M195.52 6.8717L195.336 6.99879C195.074 6.02016 194.667 5.24489 194.129 4.71109C193.617 4.16459 192.921 3.89769 192.081 3.89769C191.359 3.89769 190.794 4.11375 190.401 4.55858C189.98 5.01612 189.784 5.60075 189.784 6.31248C189.784 7.04963 190.164 7.78677 190.899 8.51121C191.582 9.1721 192.54 9.93466 193.761 10.7989C194.365 11.2437 194.929 11.6758 195.468 12.0952C196.032 12.5528 196.531 13.0357 196.964 13.5441C197.397 14.0525 197.739 14.6117 197.988 15.2345C198.238 15.8318 198.356 16.5054 198.356 17.2553C198.356 18.0941 198.224 18.8566 197.949 19.5175C197.686 20.2038 197.279 20.8012 196.767 21.3223C196.295 21.8052 195.678 22.2119 194.93 22.5297C194.181 22.8093 193.407 22.9491 192.593 22.9491C191.661 22.9491 190.807 22.8093 190.046 22.5297C189.298 22.2246 188.668 21.8306 188.143 21.3223C187.618 20.8139 187.211 20.2165 186.896 19.5175C186.607 18.8693 186.384 18.1195 186.213 17.2553L189.206 16.4673C189.377 17.6365 189.744 18.5262 190.322 19.149C190.926 19.7971 191.687 20.1149 192.593 20.1149C193.341 20.1149 193.958 19.8734 194.457 19.3904C194.956 18.9075 195.205 18.2593 195.205 17.4332C195.205 17.0265 195.126 16.6452 194.956 16.2639C194.811 15.9208 194.575 15.5649 194.234 15.1836C193.906 14.8023 193.525 14.4465 193.079 14.1033C192.895 13.9635 192.619 13.7347 192.252 13.4424C191.884 13.1374 191.661 12.9468 191.556 12.8705C190.847 12.3494 190.217 11.8537 189.652 11.3962C189.114 10.9768 188.602 10.4685 188.129 9.88383C187.696 9.38816 187.355 8.81624 187.106 8.19347C186.856 7.59613 186.725 6.92253 186.725 6.17268C186.725 5.5245 186.856 4.90174 187.106 4.30439C187.355 3.68163 187.709 3.13513 188.169 2.67759C188.628 2.19463 189.206 1.80064 189.915 1.50832C190.597 1.20329 191.398 1.05078 192.317 1.05078C193.892 1.05078 195.205 1.52103 196.242 2.46153C197.266 3.38932 197.975 4.60942 198.395 6.13455L195.533 6.88441L195.52 6.8717Z" fill="white"/>
<path d="M219.519 22.5552L216.382 14.9041C216.382 14.9041 216.224 14.9295 216.106 14.9295H214.176V22.5297H211V1.41943H215.857C216.815 1.41943 217.681 1.58466 218.469 1.90239C219.283 2.22013 219.979 2.69037 220.556 3.28772C221.134 3.88506 221.606 4.6095 221.961 5.46103C222.289 6.28714 222.46 7.21493 222.46 8.26981C222.46 9.62972 222.171 10.8117 221.593 11.7903C221.016 12.7816 220.254 13.5442 219.322 14.078L223.09 22.5425H219.545L219.519 22.5552ZM215.909 12.1843C216.907 12.1843 217.721 11.8284 218.338 11.1294C218.955 10.4304 219.27 9.4772 219.27 8.26981C219.27 7.06241 218.955 6.17276 218.338 5.46103C217.721 4.7493 216.907 4.40615 215.909 4.40615H214.255V12.1843H215.909Z" fill="white"/>
<path d="M237.097 19.5431V22.5552H227.133V1.45752H236.913V4.46965H230.31V10.0745H235.075V12.9723H230.31V19.5431H237.097Z" fill="white"/>
<path d="M249.87 7.3293H249.843C249.555 6.02023 249.174 5.14328 248.688 4.67304C248.203 4.20279 247.586 3.9486 246.877 3.9486C245.695 3.9486 244.855 4.59678 244.356 5.88043C243.857 7.1895 243.608 9.2103 243.608 11.9682C243.608 14.7262 243.884 16.8232 244.448 18.0815C245.013 19.3524 245.866 19.9752 247.034 19.9752C247.861 19.9752 248.544 19.6701 249.082 19.0728C249.62 18.4755 250.001 17.4714 250.198 16.0607L253.099 16.8105C252.745 18.8949 252.049 20.4327 251.012 21.424C249.975 22.4154 248.623 22.8983 246.969 22.8983C244.711 22.8983 243.043 22.0087 241.993 20.2421C240.93 18.4755 240.405 15.7048 240.405 11.9555C240.405 8.20625 240.93 5.35934 241.993 3.60544C243.057 1.86425 244.697 0.987305 246.916 0.987305C248.531 0.987305 249.817 1.44484 250.775 2.34721C251.747 3.24958 252.43 4.64762 252.836 6.54132L249.883 7.3293H249.87Z" fill="white"/>
<path d="M265.675 22.5552L262.537 14.9041C262.537 14.9041 262.38 14.9295 262.261 14.9295H260.332V22.5297H257.155V1.41943H262.012C262.97 1.41943 263.837 1.58466 264.624 1.90239C265.438 2.22013 266.134 2.69037 266.712 3.28772C267.289 3.88506 267.762 4.6095 268.116 5.46103C268.444 6.28714 268.615 7.21493 268.615 8.26981C268.615 9.62972 268.326 10.8117 267.749 11.7903C267.171 12.7816 266.41 13.5442 265.478 14.078L269.245 22.5425H265.701L265.675 22.5552ZM262.051 12.1843C263.049 12.1843 263.863 11.8284 264.48 11.1294C265.097 10.4304 265.412 9.4772 265.412 8.26981C265.412 7.06241 265.097 6.17276 264.48 5.46103C263.863 4.7493 263.049 4.40615 262.051 4.40615H260.397V12.1843H262.051Z" fill="white"/>
<path d="M285.235 1.45752L285.261 15.959C285.261 18.2086 284.736 19.937 283.673 21.1444C282.635 22.3264 281.1 22.9238 279.065 22.9238C277.03 22.9238 275.494 22.3264 274.457 21.1444C273.394 19.937 272.869 18.2213 272.869 15.9971V1.45752H276.045V16.1623C276.045 18.7296 277.043 20.026 279.039 20.026C281.034 20.026 282.058 18.7424 282.058 16.1623V1.45752H285.235Z" fill="white"/>
<path d="M290.407 22.5552V1.45752H293.584V22.5552H290.407Z" fill="white"/>
<path d="M309.98 1.45752V4.46965H305.306V22.5552H302.13V4.46965H297.496V1.45752H309.98Z" fill="white"/>
</svg>
