<svg width="181" height="13" viewBox="0 0 181 13" fill="none" xmlns="http://www.w3.org/2000/svg">
<path d="M7.2934 0.277832V2.05773H4.56317V12.7446H2.70722V2.05773H0V0.277832H7.2934Z" fill="white"/>
<path d="M9.02706 6.54129C9.02706 4.28825 9.33382 2.64354 9.95503 1.60714C10.5686 0.578257 11.5272 0.0600586 12.8233 0.0600586C14.1194 0.0600586 15.1087 0.585767 15.7146 1.6447C16.3205 2.70362 16.6272 4.33331 16.6272 6.54129C16.6272 8.74926 16.3205 10.4391 15.6993 11.4754C15.0934 12.4968 14.1424 13.0075 12.8463 13.0075C11.5502 13.0075 10.5532 12.4818 9.93969 11.4379C9.31849 10.379 9.01172 8.74926 9.01172 6.54129H9.02706ZM10.8983 6.54129C10.8983 7.39744 10.9367 8.12592 11.0057 8.73424C11.0824 9.32754 11.1898 9.81569 11.3355 10.1912C11.4812 10.5442 11.6729 10.8221 11.9183 11.0098C12.1638 11.1901 12.4552 11.2802 12.7926 11.2802C13.5059 11.2802 14.012 10.9047 14.3035 10.1612C14.5949 9.41015 14.7406 8.20853 14.7406 6.5488C14.7406 5.69264 14.7023 4.96416 14.6332 4.35584C14.5565 3.72499 14.4492 3.23684 14.2881 2.87635C14.1271 2.50836 13.9277 2.23799 13.6899 2.05775C13.4598 1.87751 13.1684 1.78739 12.8156 1.78739C12.4629 1.78739 12.1791 1.87751 11.926 2.05775C11.6729 2.23799 11.4735 2.51587 11.3278 2.89137C11.1821 3.27439 11.0747 3.75504 10.998 4.34833C10.9213 4.95665 10.8907 5.67011 10.8907 6.50374L10.906 6.54129H10.8983Z" fill="white"/>
<path d="M24.2041 9.91331H20.7146L20.0627 12.7446H18.1914L21.2898 0.277832H23.6212L26.7272 12.7446H24.8559L24.2041 9.91331ZM23.8513 8.18598L22.7622 3.58979C22.6395 3.07911 22.5705 2.65103 22.5475 2.30556C22.5245 2.06524 22.5015 1.95259 22.4938 1.95259H22.4555C22.4555 1.95259 22.4248 2.07275 22.4018 2.30556C22.3788 2.65103 22.3021 3.07911 22.1871 3.58979L21.1287 8.18598H23.8589H23.8513Z" fill="white"/>
<path d="M33.7832 12.7446V0.277832H35.6391V12.7446H33.7832Z" fill="white"/>
<path d="M45.7929 0.277832L45.7009 12.8498H44.1517L41.0994 6.03058C41.0764 5.98552 41.0304 5.88038 40.9613 5.72266C40.8923 5.56495 40.8463 5.43728 40.808 5.33965C40.7006 5.09182 40.6086 4.859 40.5319 4.64872C40.5089 4.57362 40.4398 4.40088 40.3325 4.1155L40.2634 3.90522H40.2098L40.2481 4.17558C40.2481 4.23566 40.2634 4.34831 40.2865 4.51354C40.3095 4.67876 40.3248 4.81394 40.3401 4.92659C40.3785 5.25704 40.4168 5.64005 40.4475 6.06813C40.4859 6.51874 40.5012 7.00689 40.5012 7.52509V12.7972H38.6836V0.330403H40.2328L43.4155 7.36738C43.4845 7.51758 43.5842 7.75039 43.7069 8.05831C43.8066 8.28361 43.8756 8.47888 43.9217 8.6441C43.9447 8.70418 43.9753 8.77177 44.006 8.86189C44.0367 8.9445 44.0597 9.00458 44.0674 9.04213L44.121 9.18483H44.1747L44.1594 8.91446C44.1594 8.91446 44.1517 8.7943 44.1287 8.62157C44.1134 8.44883 44.098 8.29863 44.0827 8.17096C44.0597 7.93064 44.0367 7.55513 44.006 7.02942C43.983 6.43613 43.9677 5.94797 43.9677 5.57246V0.277832H45.7853H45.7929Z" fill="white"/>
<path d="M51.1536 0.307617H51.1152C52.8025 0.307617 54.0525 0.863365 54.8808 1.96735C55.6937 3.05631 56.1002 4.61091 56.1002 6.61611C56.1002 8.62131 55.7168 10.1684 54.9575 11.2123C54.2059 12.2412 53.0019 12.7594 51.3376 12.7594H48.8682V0.307617H51.1612H51.1536ZM51.6828 10.9795L51.6674 11.017C52.1889 11.017 52.6031 10.9194 52.9252 10.7316C53.2626 10.5289 53.531 10.2435 53.7228 9.87549C53.9298 9.48497 54.0679 9.01934 54.1369 8.48612C54.2136 7.93038 54.2443 7.29202 54.2443 6.57856C54.2443 4.98641 54.0219 3.82986 53.5694 3.10889C53.1169 2.38792 52.4267 2.01992 51.4987 2.01992H50.7318V10.9795H51.6751H51.6828Z" fill="white"/>
<path d="M65.7937 0.277832L65.809 8.84687C65.809 10.1762 65.5023 11.1976 64.8811 11.911C64.2752 12.6095 63.3779 12.9624 62.1892 12.9624C61.0005 12.9624 60.1032 12.6095 59.4973 11.911C58.8761 11.1976 58.5693 10.1837 58.5693 8.8694V0.277832H60.4253V8.96703C60.4253 10.4841 61.0081 11.2501 62.1739 11.2501C63.3396 11.2501 63.9378 10.4916 63.9378 8.96703V0.277832H65.7937Z" fill="white"/>
<path d="M73.5477 3.47723L73.4403 3.55233C73.2792 2.97405 73.0492 2.51594 72.7347 2.20051C72.428 1.87758 72.0292 1.71986 71.5307 1.71986C71.1089 1.71986 70.7791 1.84754 70.549 2.11039C70.3036 2.38075 70.1886 2.72622 70.1886 3.14678C70.1886 3.58237 70.411 4.01796 70.8404 4.44603C71.2392 4.83656 71.7991 5.28717 72.5123 5.79785C72.8651 6.06071 73.1949 6.31605 73.5093 6.56388C73.8391 6.83425 74.1305 7.11963 74.3836 7.42004C74.6367 7.72044 74.8361 8.05089 74.9818 8.41888C75.1275 8.77186 75.1965 9.16989 75.1965 9.61299C75.1965 10.1087 75.1198 10.5593 74.9588 10.9498C74.7977 11.3554 74.5677 11.7083 74.2686 12.0163C73.9925 12.3016 73.632 12.542 73.1949 12.7297C72.7577 12.8949 72.3053 12.9775 71.8298 12.9775C71.2853 12.9775 70.7868 12.8949 70.3419 12.7297C69.9048 12.5495 69.5367 12.3167 69.2299 12.0163C68.9231 11.7159 68.6854 11.3629 68.5013 10.9498C68.3326 10.5668 68.2022 10.1237 68.1025 9.61299L69.8511 9.14736C69.9508 9.83829 70.1655 10.364 70.503 10.732C70.8558 11.115 71.3006 11.3028 71.8298 11.3028C72.2669 11.3028 72.6274 11.1601 72.9188 10.8747C73.2102 10.5893 73.3559 10.2063 73.3559 9.71813C73.3559 9.47781 73.3099 9.25251 73.2102 9.0272C73.1259 8.82443 72.9878 8.61415 72.7884 8.38884C72.5967 8.16354 72.3743 7.95326 72.1135 7.75048C72.0062 7.66787 71.8451 7.53269 71.6304 7.35996C71.4156 7.17971 71.2853 7.06706 71.2239 7.022C70.8098 6.71409 70.4416 6.42119 70.1119 6.15083C69.7974 5.903 69.4983 5.60259 69.2222 5.25713C68.9692 4.96423 68.7698 4.62628 68.624 4.25828C68.4783 3.90531 68.4016 3.50727 68.4016 3.06417C68.4016 2.68116 68.4783 2.31316 68.624 1.96019C68.7698 1.59219 68.9768 1.26926 69.2452 0.998891C69.5137 0.713507 69.8511 0.480694 70.2652 0.307961C70.664 0.127719 71.1319 0.0375977 71.6687 0.0375977C72.589 0.0375977 73.3559 0.315471 73.9618 0.87122C74.56 1.41946 74.9741 2.14043 75.2195 3.04164L73.5477 3.48474V3.47723Z" fill="white"/>
<path d="M84.3686 0.277832V2.05773H81.6384V12.7446H79.7824V2.05773H77.0752V0.277832H84.3686Z" fill="white"/>
<path d="M91.6236 12.7446L89.783 8.2236C89.783 8.2236 89.691 8.23862 89.622 8.23862H88.4946V12.7296H86.6387V0.255371H89.4763C90.0361 0.255371 90.5423 0.353003 91.0024 0.540755C91.4779 0.728508 91.8844 1.00638 92.2218 1.35936C92.5593 1.71233 92.8354 2.14041 93.0424 2.64359C93.2342 3.13175 93.3339 3.67998 93.3339 4.30332C93.3339 5.1069 93.1652 5.80534 92.8277 6.38362C92.4903 6.96941 92.0454 7.42002 91.5009 7.73544L93.702 12.7371H91.6313L91.6236 12.7446ZM89.5146 6.61644C90.0975 6.61644 90.573 6.40615 90.9334 5.9931C91.2939 5.58004 91.4779 5.01678 91.4779 4.30332C91.4779 3.58986 91.2939 3.06415 90.9334 2.64359C90.573 2.22302 90.0975 2.02025 89.5146 2.02025H88.5483V6.61644H89.5146Z" fill="white"/>
<path d="M96.0723 12.7446V0.277832H97.9282V12.7446H96.0723Z" fill="white"/>
<path d="M106.816 10.9647V12.7446H100.995V0.277832H106.709V2.05773H102.851V5.36969H105.635V7.082H102.851V10.9647H106.816Z" fill="white"/>
<path d="M114.225 3.47723L114.117 3.55233C113.964 2.97405 113.726 2.51594 113.412 2.20051C113.113 1.87758 112.706 1.71986 112.215 1.71986C111.793 1.71986 111.464 1.84754 111.234 2.11039C110.988 2.38075 110.873 2.72622 110.873 3.14678C110.873 3.58237 111.096 4.01796 111.525 4.44603C111.924 4.83656 112.484 5.28717 113.197 5.79785C113.55 6.06071 113.879 6.31605 114.194 6.56388C114.524 6.83425 114.815 7.11963 115.068 7.42004C115.321 7.72044 115.521 8.05089 115.666 8.41888C115.812 8.77186 115.881 9.16989 115.881 9.61299C115.881 10.1087 115.804 10.5593 115.643 10.9498C115.49 11.3554 115.252 11.7083 114.953 12.0163C114.677 12.3016 114.317 12.542 113.879 12.7297C113.442 12.8949 112.99 12.9775 112.514 12.9775C111.97 12.9775 111.471 12.8949 111.027 12.7297C110.589 12.5495 110.221 12.3167 109.914 12.0163C109.608 11.7159 109.37 11.3629 109.186 10.9498C109.017 10.5668 108.887 10.1237 108.787 9.61299L110.536 9.14736C110.635 9.83829 110.85 10.364 111.188 10.732C111.54 11.115 111.985 11.3028 112.514 11.3028C112.951 11.3028 113.312 11.1601 113.603 10.8747C113.895 10.5893 114.04 10.2063 114.04 9.71813C114.04 9.47781 113.994 9.25251 113.895 9.0272C113.81 8.82443 113.672 8.61415 113.473 8.38884C113.281 8.16354 113.059 7.95326 112.798 7.75048C112.691 7.66787 112.53 7.53269 112.315 7.35996C112.1 7.17971 111.97 7.06706 111.908 7.022C111.494 6.71409 111.126 6.42119 110.796 6.15083C110.482 5.903 110.183 5.60259 109.907 5.25713C109.654 4.96423 109.454 4.62628 109.309 4.25828C109.163 3.90531 109.086 3.50727 109.086 3.06417C109.086 2.68116 109.163 2.31316 109.309 1.96019C109.454 1.59219 109.661 1.26926 109.93 0.998891C110.198 0.713507 110.536 0.480694 110.95 0.307961C111.349 0.127719 111.816 0.0375977 112.353 0.0375977C113.274 0.0375977 114.041 0.315471 114.646 0.87122C115.245 1.41946 115.659 2.14043 115.904 3.04164L114.232 3.48474L114.225 3.47723Z" fill="white"/>
<path d="M127.977 12.7446L126.144 8.2236C126.144 8.2236 126.052 8.23862 125.983 8.23862H124.856V12.7296H123V0.255371H125.837C126.397 0.255371 126.903 0.353003 127.364 0.540755C127.839 0.728508 128.246 1.00638 128.583 1.35936C128.92 1.71233 129.197 2.14041 129.404 2.64359C129.595 3.13175 129.695 3.67998 129.695 4.30332C129.695 5.1069 129.526 5.80534 129.189 6.38362C128.851 6.96941 128.407 7.42002 127.862 7.73544L130.063 12.7371H127.992L127.977 12.7446ZM125.868 6.61644C126.451 6.61644 126.926 6.40615 127.287 5.9931C127.647 5.58004 127.831 5.01678 127.831 4.30332C127.831 3.58986 127.647 3.06415 127.287 2.64359C126.926 2.22302 126.451 2.02025 125.868 2.02025H124.902V6.61644H125.868Z" fill="white"/>
<path d="M138.247 10.9647V12.7446H132.426V0.277832H138.139V2.05773H134.282V5.36969H137.065V7.082H134.282V10.9647H138.247Z" fill="white"/>
<path d="M145.709 3.74755H145.694C145.525 2.97401 145.303 2.45581 145.019 2.17793C144.735 1.90006 144.375 1.74986 143.96 1.74986C143.27 1.74986 142.779 2.13287 142.488 2.89139C142.197 3.66494 142.051 4.85904 142.051 6.48874C142.051 8.11843 142.212 9.3576 142.542 10.1011C142.871 10.8521 143.37 11.2201 144.052 11.2201C144.536 11.2201 144.934 11.0399 145.249 10.6869C145.563 10.3339 145.786 9.74062 145.901 8.90699L147.596 9.35009C147.389 10.5817 146.982 11.4905 146.376 12.0762C145.77 12.662 144.98 12.9474 144.014 12.9474C142.695 12.9474 141.721 12.4217 141.107 11.3778C140.486 10.3339 140.18 8.69671 140.18 6.48123C140.18 4.26574 140.486 2.58348 141.107 1.54709C141.729 0.518197 142.687 0 143.983 0C144.927 0 145.678 0.270364 146.238 0.803581C146.806 1.3368 147.204 2.16291 147.442 3.28192L145.717 3.74755H145.709Z" fill="white"/>
<path d="M154.943 12.7446L153.11 8.2236C153.11 8.2236 153.018 8.23862 152.949 8.23862H151.822V12.7296H149.966V0.255371H152.803C153.363 0.255371 153.869 0.353003 154.329 0.540755C154.805 0.728508 155.211 1.00638 155.549 1.35936C155.886 1.71233 156.162 2.14041 156.369 2.64359C156.561 3.13175 156.661 3.67998 156.661 4.30332C156.661 5.1069 156.492 5.80534 156.155 6.38362C155.817 6.96941 155.372 7.42002 154.828 7.73544L157.029 12.7371H154.958L154.943 12.7446ZM152.826 6.61644C153.409 6.61644 153.885 6.40615 154.245 5.9931C154.606 5.58004 154.79 5.01678 154.79 4.30332C154.79 3.58986 154.606 3.06415 154.245 2.64359C153.885 2.22302 153.409 2.02025 152.826 2.02025H151.86V6.61644H152.826Z" fill="white"/>
<path d="M166.371 0.277832L166.386 8.84687C166.386 10.1762 166.079 11.1976 165.458 11.911C164.852 12.6095 163.955 12.9624 162.766 12.9624C161.577 12.9624 160.68 12.6095 160.074 11.911C159.453 11.1976 159.146 10.1837 159.146 8.8694V0.277832H161.002V8.96703C161.002 10.4841 161.585 11.2501 162.751 11.2501C163.917 11.2501 164.515 10.4916 164.515 8.96703V0.277832H166.371Z" fill="white"/>
<path d="M169.392 12.7446V0.277832H171.248V12.7446H169.392Z" fill="white"/>
<path d="M180.826 0.277832V2.05773H178.096V12.7446H176.24V2.05773H173.533V0.277832H180.826Z" fill="white"/>
</svg>
